<?xml version="1.0" encoding="UTF-8"?>
<svg id="Capa_1" data-name="Capa 1" xmlns="http://www.w3.org/2000/svg" viewBox="0 0 40 40">
  <defs>
    <style>
      .cls-1 {
        fill: none;
      }
    </style>
  </defs>
  <rect class="cls-1" width="40" height="40"/>
  <g>
    <path d="m20.12,35.38c-1.38,1.38-3.12,2-5,2s-3.62-.75-5-2.12-2.12-3-2.12-5c0-1.88.75-3.62,2.12-5s3-2.12,5-2.12v-2.62c-2.62,0-5,1-6.88,2.88s-2.88,4.25-2.88,6.88,1,5,2.88,6.88,4.25,2.88,6.88,2.88,5-.88,6.88-2.75,2.88-4.38,2.88-7.25h-2.62c0,2.25-.75,4-2.12,5.38Z"/>
    <path d="m30.75,7.5c1,0,1.88-.25,2.62-1.12.75-.75,1.12-1.62,1.12-2.62s-.38-1.88-1.12-2.62-1.62-1.12-2.62-1.12-1.88.38-2.62,1.12-1.12,1.62-1.12,2.62.38,1.88,1.12,2.62,1.62,1.12,2.62,1.12Z"/>
    <path d="m33.62,25.75c-.62-.62-1.5-1-2.5-1h-6.62l5.12-10.38c.5-1.25.5-2.38-.25-3.38s-1.75-1.5-3.12-1.5h-9.25c-.75,0-1.25.12-1.75.5-.38.38-.75.88-1,1.5l-1,2.75c-.12.38-.12.62,0,1,.12.25.38.5.75.62s.62.12,1,0c.25-.12.5-.38.62-.75l1-2.88h5.38l-4.5,10c-.62,1.38-.62,2.88.25,4.12.75,1.38,2,2,3.62,2h10.38c.12,0,.25,0,.38.12s.12.25.12.38v8.62c0,.38.12.62.38.88s.5.38.88.38.62-.12.75-.5c.25-.25.38-.5.38-.88v-9.12c0-1-.38-1.88-1-2.5Z"/>
  </g>
</svg>