<?xml version="1.0" encoding="UTF-8"?>
<svg id="Capa_1" data-name="Capa 1" xmlns="http://www.w3.org/2000/svg" viewBox="0 0 40 40">
  <defs>
    <style>
      .cls-1 {
        fill: none;
      }
    </style>
  </defs>
  <rect class="cls-1" x="0" width="40" height="40"/>
  <path d="m12.31,21.25h2.89l-1.44-4.16-1.44,4.16Zm15.19-1.25c-1.03,0-1.88.84-1.88,1.88s.84,1.88,1.88,1.88,1.88-.84,1.88-1.88-.84-1.88-1.88-1.88Zm8.75-15H3.75c-2.07,0-3.75,1.68-3.75,3.75v22.5c0,2.07,1.68,3.75,3.75,3.75h32.5c2.07,0,3.75-1.68,3.75-3.75V8.75c0-2.07-1.68-3.75-3.75-3.75Zm-16.67,22.5h-1.32c-.53,0-1.01-.34-1.18-.84l-.58-1.66h-5.49l-.58,1.66c-.17.5-.65.84-1.18.84h-1.32c-.86,0-1.46-.85-1.18-1.66l4.2-12.08c.26-.75.97-1.26,1.77-1.26h2.08c.8,0,1.51.51,1.77,1.26l4.19,12.08c.28.81-.32,1.66-1.18,1.66Zm13.55-1.25c0,.69-.56,1.25-1.25,1.25h-1.25c-.38,0-.71-.18-.94-.44-.67.29-1.41.44-2.19.44-3.1,0-5.62-2.52-5.62-5.62s2.52-5.62,5.62-5.62c.66,0,1.29.14,1.88.35v-2.85c0-.69.56-1.25,1.25-1.25h1.25c.69,0,1.25.56,1.25,1.25v12.5Z"/>
</svg>