<?xml version="1.0" encoding="UTF-8"?>
<svg id="Capa_1" data-name="Capa 1" xmlns="http://www.w3.org/2000/svg" viewBox="0 0 40 40">
  <defs>
    <style>
      .cls-1 {
        fill: none;
      }
    </style>
  </defs>
  <rect class="cls-1" width="40" height="40"/>
  <path d="m7.6,31.65h11.95v-.7c0-.6-.15-1.13-.45-1.6s-.68-.78-1.15-.95c-1.07-.37-1.9-.61-2.5-.73s-1.18-.18-1.75-.18c-.63,0-1.31.08-2.03.23s-1.53.38-2.43.68c-.5.17-.9.48-1.2.95s-.45,1-.45,1.6v.7Zm18.05-3.35h6c.36,0,.66-.12.9-.36.24-.24.35-.54.35-.9s-.12-.66-.35-.89c-.24-.23-.53-.35-.9-.35h-6c-.36,0-.66.12-.9.36-.24.24-.35.54-.35.9s.12.66.35.89c.24.23.53.35.9.35Zm-11.95-2.5c.75,0,1.39-.26,1.91-.79s.79-1.16.79-1.91-.26-1.39-.79-1.91-1.16-.79-1.91-.79-1.39.26-1.91.79-.79,1.16-.79,1.91.26,1.39.79,1.91,1.16.79,1.91.79Zm11.95-3.15h6c.36,0,.66-.12.9-.36.24-.24.35-.54.35-.9s-.12-.66-.35-.89c-.24-.23-.53-.35-.9-.35h-6c-.36,0-.66.12-.9.36-.24.24-.35.54-.35.9s.12.66.35.89c.24.23.53.35.9.35ZM3,40c-.8,0-1.5-.3-2.1-.9S0,37.8,0,37V13C0,12.2.3,11.5.9,10.9s1.3-.9,2.1-.9h12.5V3c0-.8.3-1.5.9-2.1S17.71,0,18.52,0h2.96C22.29,0,23,.3,23.6.9s.9,1.3.9,2.1v7h12.5c.8,0,1.5.3,2.1.9s.9,1.3.9,2.1v24c0,.8-.3,1.5-.9,2.1s-1.3.9-2.1.9H3Zm0-3h34V13h-12.5v1.5c0,.93-.3,1.67-.9,2.2s-1.31.8-2.12.8h-2.96c-.81,0-1.52-.27-2.12-.8s-.9-1.27-.9-2.2v-1.5H3v24Zm15.5-22.5h3V3h-3v11.5Z"/>
</svg>