<?xml version="1.0" encoding="UTF-8"?>
<svg id="Capa_1" data-name="Capa 1" xmlns="http://www.w3.org/2000/svg" viewBox="0 0 40 40">
  <defs>
    <style>
      .cls-1 {
        fill: none;
      }
    </style>
  </defs>
  <rect class="cls-1" width="40" height="40"/>
  <g>
    <path d="m20,11.1c-1.89,0-3.53.63-4.79,2.02-1.26,1.26-2.02,2.9-2.02,4.79s.63,3.53,2.02,4.79c1.39,1.39,2.9,2.02,4.79,2.02s3.53-.63,4.79-2.02c1.26-1.26,2.02-2.9,2.02-4.79s-.63-3.53-2.02-4.79c-1.26-1.26-2.9-2.02-4.79-2.02Zm2.9,9.72c-.76.88-1.77,1.26-2.9,1.26s-2.15-.38-2.9-1.26c-.76-.76-1.26-1.77-1.26-2.9s.38-2.15,1.26-2.9c.76-.76,1.77-1.26,2.9-1.26s2.15.38,2.9,1.26c.76.76,1.26,1.77,1.26,2.9s-.38,2.15-1.26,2.9Z"/>
    <path d="m34.76,1.01c-.63-.63-1.39-1.01-2.27-1.01H7.51c-.88,0-1.64.38-2.27,1.01s-1.01,1.39-1.01,2.27v33.31c0,.88.38,1.64,1.01,2.27s1.39,1.01,2.27,1.01c0,0,24.98,0,24.98.13.88,0,1.64-.38,2.27-1.01.63-.63,1.01-1.39,1.01-2.27V3.28c0-.88-.38-1.64-1.01-2.27Zm-2.52,35.96c-.13.13-.25.25-.38.25H8.14c-.13,0-.25-.13-.38-.25s-.25-.38-.25-.5c1.89-1.64,3.79-2.78,5.93-3.53,2.15-.76,4.29-1.14,6.56-1.14s4.42.38,6.56,1.14c2.15.88,4.16,2.02,5.93,3.53,0,.25-.13.38-.25.5Zm.88-3.28c-1.77-1.39-3.91-2.52-6.06-3.28-2.27-.88-4.54-1.26-7.07-1.26s-4.79.5-7.07,1.26c-2.15.76-4.16,1.89-6.06,3.28V3.28c0-.25,0-.38.13-.5.25-.13.38-.25.5-.25h24.86c.25,0,.38.13.5.25.13.25.25.38.25.5v30.41Z"/>
  </g>
</svg>