<?xml version="1.0" encoding="UTF-8"?>
<svg id="Capa_1" data-name="Capa 1" xmlns="http://www.w3.org/2000/svg" viewBox="0 0 40 40">
  <defs>
    <style>
      .cls-1 {
        fill: none;
      }
    </style>
  </defs>
  <rect class="cls-1" width="40" height="40"/>
  <g>
    <path d="m38.33,36.67H1.67c-.47,0-.87.16-1.19.47C.16,37.45,0,37.85,0,38.32s.16.87.48,1.19c.32.32.72.48,1.19.48h36.67c.47,0,.87-.16,1.19-.47.32-.31.48-.71.48-1.18s-.16-.87-.48-1.19c-.32-.32-.72-.48-1.19-.48Z"/>
    <path d="m10.56,9.17c-.47,0-.87.16-1.19.47-.32.31-.48.71-.48,1.18s.16.87.48,1.19c.32.32.72.48,1.19.48h18.89c.47,0,.87-.16,1.19-.47s.48-.71.48-1.18-.16-.87-.48-1.19c-.32-.32-.72-.48-1.19-.48H10.56Z"/>
    <path d="m1.67,3.33h36.67c.47,0,.87-.16,1.19-.47.32-.31.48-.71.48-1.18s-.16-.87-.48-1.19c-.32-.32-.72-.48-1.19-.48H1.67c-.47,0-.87.16-1.19.47C.16.79,0,1.18,0,1.66s.16.87.48,1.19c.32.32.72.48,1.19.48Z"/>
    <path d="m38.33,18.33H1.67c-.47,0-.87.16-1.19.47C.16,19.12,0,19.52,0,19.99s.16.87.48,1.19c.32.32.72.48,1.19.48h36.67c.47,0,.87-.16,1.19-.47.32-.31.48-.71.48-1.18s-.16-.87-.48-1.19c-.32-.32-.72-.48-1.19-.48Z"/>
    <path d="m29.44,30.83c.47,0,.87-.16,1.19-.47s.48-.71.48-1.18-.16-.87-.48-1.19c-.32-.32-.72-.48-1.19-.48H10.56c-.47,0-.87.16-1.19.47s-.48.71-.48,1.18.16.87.48,1.19c.32.32.72.48,1.19.48h18.89Z"/>
  </g>
</svg>