<?xml version="1.0" encoding="UTF-8"?>
<svg id="Capa_1" data-name="Capa 1" xmlns="http://www.w3.org/2000/svg" viewBox="0 0 40 40">
  <defs>
    <style>
      .cls-1 {
        fill: none;
      }
    </style>
  </defs>
  <rect class="cls-1" width="40" height="40"/>
  <path d="m34.84,40c-.48,0-.91-.12-1.3-.36s-.67-.58-.87-1.03c-4.01-.54-7.52-2.22-10.53-5.02-3.01-2.8-5.14-6.4-6.39-10.79-3.08,1.25-5.58,3.21-7.52,5.89-1.94,2.68-3.1,5.71-3.49,9.11-.06.45-.24.82-.53,1.11s-.64.43-1.06.43-.76-.15-1.03-.46-.38-.67-.31-1.08c.38-4.07,1.76-7.69,4.13-10.87,2.37-3.17,5.43-5.48,9.18-6.92-.67-3.72-.68-7.09-.02-10.12s1.9-5.46,3.73-7.28v-.19c0-.67.23-1.24.7-1.71s1.03-.7,1.71-.7,1.24.23,1.71.7c.46.46.7,1.03.7,1.71s-.23,1.24-.7,1.71c-.46.46-1.03.7-1.71.7h-.29c-.1,0-.19-.02-.29-.05-1.12,1.31-1.92,2.64-2.38,3.99s-.71,3.01-.75,5c1.03-1.35,2.42-2.36,4.18-3.03,1.76-.67,3.85-1.01,6.25-1.01.45,0,.88,0,1.3.02s.75.04,1.01.07c.22-.26.49-.45.79-.58s.63-.19.99-.19c.67,0,1.24.23,1.71.7s.7,1.03.7,1.71-.23,1.24-.7,1.71-1.03.7-1.71.7c-.42,0-.81-.1-1.18-.31s-.67-.49-.89-.84c-.54-.06-.97-.1-1.27-.1h-.99c-2.79,0-4.96.54-6.51,1.63-1.55,1.09-2.41,2.68-2.57,4.76,1.12-.22,2.29-.35,3.51-.38,1.22-.03,2.56.03,4.04.19.22-.35.51-.62.87-.82s.74-.29,1.15-.29c.67,0,1.24.23,1.71.7.46.46.7,1.03.7,1.71s-.23,1.24-.7,1.71-1.03.7-1.71.7c-.38,0-.73-.08-1.03-.24s-.58-.38-.84-.67c-1.28-.16-2.6-.21-3.94-.14s-2.53.21-3.56.43c.42,1.54,1.31,2.68,2.67,3.41,1.36.74,3.25,1.11,5.65,1.11.87,0,1.84-.06,2.93-.17s2.24-.28,3.46-.5c.16-.48.45-.87.87-1.15s.88-.43,1.39-.43c.67,0,1.24.23,1.71.7s.7,1.03.7,1.71-.23,1.24-.7,1.71-1.03.7-1.71.7c-.26,0-.5-.03-.72-.1s-.43-.16-.62-.29c-1.44.26-2.77.44-3.99.55s-2.32.17-3.32.17c-1.09,0-2.12-.07-3.08-.22s-1.84-.38-2.64-.7c1.44,2.18,3.18,3.9,5.22,5.17s4.25,2.01,6.66,2.24c.22-.16.46-.3.72-.41s.53-.17.82-.17c.67,0,1.24.23,1.71.7s.7,1.03.7,1.71-.23,1.24-.7,1.71-1.03.7-1.71.7Z"/>
</svg>