<?xml version="1.0" encoding="UTF-8"?>
<svg id="Capa_1" data-name="Capa 1" xmlns="http://www.w3.org/2000/svg" viewBox="0 0 40 40">
  <defs>
    <style>
      .cls-1 {
        fill: none;
      }
    </style>
  </defs>
  <rect class="cls-1" x="0" width="40" height="40"/>
  <path d="m22.96,11.67c-4.35.16-15.13,1.38-15.13,10.49,0,9.78,12.35,10.18,16.38,3.86.58.91,3.16,3.35,4.04,4.18l5.07-5s-2.88-2.26-2.88-4.71V7.35c0-2.26-2.19-7.35-10.03-7.35s-12.03,4.91-12.03,9.31l6.56.61c1.46-4.42,4.84-4.42,4.84-4.42,3.63,0,3.17,2.66,3.17,6.17h0Zm0,7.75c0,7.14-7.52,6.07-7.52,1.54,0-4.21,4.51-5.06,7.52-5.16v3.62Zm12.14,14.6c-.69.89-6.25,5.98-15.58,5.98S3.05,33.62.87,30.98c-.61-.69.09-1.01.49-.74,6.54,3.97,16.77,10.52,33.26,2.71.67-.33,1.19.18.49,1.07Zm3.55.2c-.58,1.41-1.43,2.39-1.89,2.77-.49.4-.85.24-.58-.34s1.72-4.15,1.13-4.91c-.58-.74-3.3-.38-4.29-.29-.96.09-1.16.18-1.25-.03-.21-.51,1.94-1.38,3.35-1.56,1.4-.16,3.66-.07,4.11.51.33.46,0,2.42-.58,3.85h0Z"/>
</svg>