<?xml version="1.0" encoding="UTF-8"?>
<svg id="Capa_1" data-name="Capa 1" xmlns="http://www.w3.org/2000/svg" viewBox="0 0 40 40">
  <defs>
    <style>
      .cls-1 {
        fill: none;
      }
    </style>
  </defs>
  <rect class="cls-1" width="40" height="40"/>
  <path d="m17.33,5.01V1.11c0-.33.11-.56.33-.78.22-.22.56-.33.89-.33s.56.11.78.33c.11.11.22.45.22.78v3.9c0,.33-.11.56-.33.78-.22.22-.56.33-.89.33s-.56-.11-.78-.33c-.11-.11-.22-.45-.22-.78Zm-8.47,2.67l-3.12-3.01c-.22-.22-.33-.56-.33-.89s.11-.56.33-.78c.22-.22.45-.33.78-.33s.56.11.78.33l3.12,3.01c.22.22.33.56.33.78,0,.33-.11.56-.33.78s-.56.33-.78.33c-.33.11-.56,0-.78-.22ZM3.84,40c-.33,0-.56-.11-.78-.33s-.33-.45-.33-.78v-14.37c0-.11.11-.33.11-.45l3.68-10.47c.11-.45.45-.78.78-1s.78-.33,1.23-.33h5.57v-1.78c0-.45.11-.78.45-1,.22-.33.67-.45,1-.45h3.57c-.56.78-.89,1.67-1.23,2.56-.33.89-.56,1.89-.56,2.9h-8.69l-2.9,8.13h14.37c.33.45.78.89,1.23,1.23.45.45.89.78,1.34,1.11H4.96v8.91h26.85v-7.35c.45-.11.78-.22,1.23-.33.33-.11.78-.33,1.11-.45v13.15c0,.33-.11.56-.33.78s-.45.33-.78.33h-.67c-.33,0-.56-.11-.78-.33s-.33-.45-.33-.78v-2.67H5.63v2.67c0,.33-.11.56-.33.78s-.45.33-.78.33h-.67Zm9.47-9.25c.33,0,.67-.11,1-.45s.45-.56.45-1c0-.33-.11-.67-.45-1-.22-.22-.56-.45-1-.45h-4.57c-.22,0-.33.11-.56.22-.11.11-.22.33-.22.56v1.34c0,.22.11.33.22.56.11.11.33.22.56.22h4.57Zm10.25,0h4.57c.22,0,.33-.11.56-.22.11-.11.22-.33.22-.56v-1.34c0-.22-.11-.33-.22-.56-.11-.11-.33-.22-.56-.22h-4.57c-.33,0-.67.11-1,.45-.22.22-.45.56-.45,1,0,.33.11.67.45,1,.22.33.56.45,1,.45h0Zm-18.61-5.79v8.91-8.91Zm22.84-8.58l-1.78-1.78c-.22-.22-.33-.22-.56-.22s-.45.11-.67.22c-.22.22-.22.45-.22.67s.11.45.22.67l2.01,2.01c.33.33.67.45,1,.45s.78-.11,1-.45l4.57-4.57c.22-.22.22-.33.22-.56s-.11-.45-.22-.67-.33-.22-.67-.22c-.22,0-.45.11-.67.22.11-.11-4.23,4.23-4.23,4.23Zm1.23-9.58c2.23,0,4.23.78,5.79,2.45,1.56,1.56,2.45,3.57,2.45,5.79s-.78,4.23-2.45,5.79c-1.56,1.56-3.57,2.45-5.79,2.45s-4.23-.78-5.79-2.45-2.45-3.57-2.45-5.79.78-4.23,2.45-5.79c1.56-1.67,3.57-2.45,5.79-2.45Z"/>
</svg>