<?xml version="1.0" encoding="UTF-8"?>
<svg id="Capa_1" data-name="Capa 1" xmlns="http://www.w3.org/2000/svg" viewBox="0 0 40 40">
  <defs>
    <style>
      .cls-1 {
        fill: none;
      }
    </style>
  </defs>
  <rect class="cls-1" x="0" width="40" height="40"/>
  <path d="m18.16,15.81c-1.27-.63-2.76-.7-4.05-.24,2.66,0,4.45,1.28,5.35,3.16.54,1.12-.32,2.38-1.48,2.38,1.15,0,2.01,1.26,1.48,2.38-.92,1.93-2.88,3.18-5.02,3.18-.03,0-5.9-.54-5.9-.54l-4.15,2.08c-.59.29-1.24.02-1.49-.49L.12,22.17c-.26-.54-.07-1.18.43-1.48l3.63-2.07,2.57-4.64c.4-3.58,2.17-6.86,4.98-9.17.71-.59,1.77-.49,2.34.23.59.71.49,1.75-.23,2.34-.78.66-1.48,1.41-2.03,2.22,1.35-.92,2.92-1.55,4.64-1.75.92-.12,1.75.52,1.86,1.44.12.92-.52,1.75-1.44,1.86-1.01.12-1.94.47-2.76.96,1.63-.36,3.67-.2,5.5.69.83.42,1.18,1.41.76,2.24-.4.82-1.41,1.16-2.22.76h0Zm-1.7,4.34c-.38-.78-1.15-1.27-2.01-1.27-1.22,0-2.22.99-2.22,2.21,0,0,0,0,0,.01,0,1.34,1.11,2.22,2.22,2.22.87,0,1.63-.49,2.01-1.27.28-.59.85-.94,1.46-.96-.61-.02-1.18-.36-1.46-.96Zm23.43-2.33c.26.54.07,1.18-.43,1.48l-3.63,2.07-2.57,4.64c-.4,3.58-2.17,6.86-4.98,9.17-.68.57-1.74.51-2.34-.23-.59-.71-.49-1.75.23-2.34.78-.66,1.48-1.41,2.03-2.22-1.35.92-2.92,1.55-4.64,1.75-.63.16-1.72-.35-1.86-1.44-.12-.92.52-1.75,1.44-1.86,1.01-.12,1.94-.47,2.76-.96-1.63.36-3.67.2-5.5-.69-.83-.42-1.18-1.41-.76-2.24.4-.82,1.41-1.16,2.22-.76,1.27.63,2.76.7,4.05.24-2.66,0-4.45-1.28-5.35-3.16-.54-1.12.32-2.38,1.48-2.38-1.15,0-2.01-1.26-1.48-2.38.88-1.84,2.75-3.18,5.12-3.18l5.8.54,4.15-2.08c.59-.29,1.24-.02,1.49.49l2.78,5.56h0Zm-14.33-1.16c-.87,0-1.63.49-2.01,1.27-.28.59-.85.94-1.46.96.61.02,1.18.36,1.46.96.38.78,1.15,1.27,2.01,1.27,1.22,0,2.22-.99,2.22-2.21,0,0,0,0,0-.01,0-1.34-1.11-2.22-2.22-2.22h0Z"/>
</svg>