<?xml version="1.0" encoding="UTF-8"?>
<svg id="Capa_1" data-name="Capa 1" xmlns="http://www.w3.org/2000/svg" viewBox="0 0 40 40">
  <defs>
    <style>
      .cls-1 {
        fill: none;
      }
    </style>
  </defs>
  <rect class="cls-1" width="40" height="40"/>
  <path d="m20,40c-2.2,0-4.38-.4-6.53-1.2s-4.08-1.85-5.78-3.15-3.08-2.77-4.13-4.4c-1.05-1.63-1.58-3.3-1.58-5v-3.5c0-.3.13-.52.4-.65.27-.13.53-.12.8.05l4.15,3.1c.37.27.58.63.63,1.08s-.09.84-.43,1.18l-1.7,1.7c1.03,1.93,2.8,3.66,5.3,5.18s4.95,2.36,7.35,2.53v-19.4h-5c-.43,0-.79-.14-1.08-.43s-.43-.64-.43-1.08.14-.79.43-1.08.64-.43,1.08-.43h5v-3.7c-1.27-.47-2.25-1.17-2.95-2.1s-1.05-2-1.05-3.2c0-1.53.54-2.83,1.63-3.9S18.5,0,20,0s2.83.53,3.9,1.6,1.6,2.37,1.6,3.9c0,1.2-.35,2.27-1.05,3.2s-1.68,1.63-2.95,2.1v3.7h5c.43,0,.79.14,1.08.43s.43.64.43,1.08-.14.79-.43,1.08-.64.43-1.08.43h-5v19.4c2.4-.17,4.85-1.01,7.35-2.53s4.27-3.24,5.3-5.18l-1.7-1.7c-.33-.33-.48-.73-.43-1.18s.26-.81.63-1.08l4.15-3.1c.27-.17.53-.18.8-.05s.4.35.4.65v3.5c0,1.7-.53,3.37-1.58,5-1.05,1.63-2.43,3.1-4.13,4.4s-3.63,2.35-5.78,3.15-4.33,1.2-6.53,1.2Zm0-32c.7,0,1.29-.25,1.78-.75.48-.5.73-1.08.73-1.75,0-.7-.24-1.29-.73-1.78-.48-.48-1.08-.73-1.78-.73s-1.25.24-1.75.73-.75,1.08-.75,1.78.25,1.25.75,1.75,1.08.75,1.75.75Z"/>
</svg>