<?xml version="1.0" encoding="UTF-8"?>
<svg id="Capa_1" data-name="Capa 1" xmlns="http://www.w3.org/2000/svg" viewBox="0 0 40 40">
  <defs>
    <style>
      .cls-1 {
        fill: none;
      }
    </style>
  </defs>
  <rect class="cls-1" width="40" height="40"/>
  <path d="m0,31.46c.24-3.21,1.23-6.19,2.95-8.93s4.02-4.92,6.86-6.52l-3.41-5.86c-.09-.27-.1-.55-.02-.82s.23-.48.48-.64c.27-.15.57-.18.89-.09s.55.27.7.55l3.36,5.77c2.61-1.12,5.33-1.68,8.18-1.68s5.58.56,8.18,1.68l3.41-5.77c.15-.27.39-.45.7-.55s.61-.06.89.09c.24.15.42.37.52.66s.08.55-.07.8l-3.45,5.86c2.85,1.61,5.14,3.78,6.86,6.52s2.71,5.72,2.95,8.93H0Zm10.91-5c.61,0,1.14-.23,1.59-.68s.68-.98.68-1.59-.23-1.14-.68-1.59-.98-.68-1.59-.68-1.14.23-1.59.68-.68.98-.68,1.59.23,1.14.68,1.59.98.68,1.59.68Zm18.18,0c.61,0,1.14-.23,1.59-.68s.68-.98.68-1.59-.23-1.14-.68-1.59-.98-.68-1.59-.68-1.14.23-1.59.68-.68.98-.68,1.59.23,1.14.68,1.59.98.68,1.59.68Z"/>
</svg>