<?xml version="1.0" encoding="UTF-8"?>
<svg id="Capa_1" data-name="Capa 1" xmlns="http://www.w3.org/2000/svg" viewBox="0 0 40 40">
  <defs>
    <style>
      .cls-1 {
        fill: none;
      }
    </style>
  </defs>
  <rect class="cls-1" width="40" height="40"/>
  <path d="m20,34.36l13.86-13.86c.47-.47,1.02-.7,1.64-.7s1.17.23,1.64.7.7,1.02.7,1.64-.23,1.17-.7,1.64l-15.5,15.5c-.26.26-.52.44-.78.55s-.55.16-.86.16-.6-.05-.86-.16-.52-.29-.78-.55L2.86,23.8c-.47-.47-.7-1.02-.7-1.64s.23-1.17.7-1.64,1.02-.7,1.64-.7,1.17.23,1.64.7l13.86,13.86Zm0-19.8L33.86.7c.47-.47,1.02-.7,1.64-.7s1.17.23,1.64.7.7,1.02.7,1.64-.23,1.17-.7,1.64l-15.5,15.5c-.26.26-.52.44-.78.55s-.55.16-.86.16-.6-.05-.86-.16-.52-.29-.78-.55L2.86,3.99c-.47-.47-.7-1.02-.7-1.64s.23-1.17.7-1.64,1.02-.7,1.64-.7,1.17.23,1.64.7l13.86,13.86Z"/>
</svg>