<?xml version="1.0" encoding="UTF-8"?>
<svg id="Capa_1" data-name="Capa 1" xmlns="http://www.w3.org/2000/svg" viewBox="0 0 40 40">
  <defs>
    <style>
      .cls-1 {
        fill: none;
      }
    </style>
  </defs>
  <rect class="cls-1" width="40" height="40"/>
  <path d="m5.64,20l13.86,13.86c.47.47.7,1.02.7,1.64s-.23,1.17-.7,1.64-1.02.7-1.64.7-1.17-.23-1.64-.7L.7,21.64c-.26-.26-.44-.52-.55-.78s-.16-.55-.16-.86.05-.6.16-.86.29-.52.55-.78L16.2,2.86c.47-.47,1.02-.7,1.64-.7s1.17.23,1.64.7.7,1.02.7,1.64-.23,1.17-.7,1.64l-13.86,13.86Zm19.8,0l13.86,13.86c.47.47.7,1.02.7,1.64s-.23,1.17-.7,1.64-1.02.7-1.64.7-1.17-.23-1.64-.7l-15.5-15.5c-.26-.26-.44-.52-.55-.78s-.16-.55-.16-.86.05-.6.16-.86.29-.52.55-.78l15.5-15.5c.47-.47,1.02-.7,1.64-.7s1.17.23,1.64.7.7,1.02.7,1.64-.23,1.17-.7,1.64l-13.86,13.86Z"/>
</svg>