<?xml version="1.0" encoding="UTF-8"?>
<svg id="Capa_1" data-name="Capa 1" xmlns="http://www.w3.org/2000/svg" viewBox="0 0 40 40">
  <defs>
    <style>
      .cls-1 {
        fill: none;
      }
    </style>
  </defs>
  <rect class="cls-1" width="40" height="40"/>
  <path d="m20.02,31.4c-.35,0-.67-.06-.97-.18s-.59-.32-.88-.62L.75,13.18C.22,12.65-.03,12.02,0,11.29s.31-1.36.84-1.89,1.16-.79,1.89-.79,1.36.26,1.89.79l15.4,15.49,15.49-15.49c.53-.53,1.14-.78,1.85-.75s1.32.31,1.85.84.79,1.16.79,1.89-.26,1.36-.79,1.89l-17.34,17.34c-.29.29-.59.5-.88.62s-.62.18-.97.18Z"/>
</svg>