<?xml version="1.0" encoding="UTF-8"?>
<svg id="Capa_1" data-name="Capa 1" xmlns="http://www.w3.org/2000/svg" viewBox="0 0 40 40">
  <defs>
    <style>
      .cls-1 {
        fill: none;
      }
    </style>
  </defs>
  <rect class="cls-1" width="40" height="40"/>
  <path d="m15.1,20.04l15.49,15.49c.53.53.77,1.14.74,1.84s-.31,1.31-.83,1.84-1.15.79-1.88.79-1.36-.26-1.88-.79L9.41,21.88c-.29-.29-.5-.58-.61-.88s-.18-.61-.18-.96.06-.67.18-.96.32-.58.61-.88L26.83.79c.53-.53,1.15-.79,1.88-.79s1.36.26,1.88.79.79,1.15.79,1.88-.26,1.36-.79,1.88l-15.49,15.49Z"/>
</svg>