<?xml version="1.0" encoding="UTF-8"?>
<svg id="Capa_1" data-name="Capa 1" xmlns="http://www.w3.org/2000/svg" viewBox="0 0 40 40">
  <defs>
    <style>
      .cls-1 {
        fill: none;
      }
    </style>
  </defs>
  <rect class="cls-1" width="40" height="40"/>
  <path d="m20,40c-2.78,0-5.32-.51-7.85-1.52-2.41-1.01-4.56-2.53-6.33-4.3-1.77-1.77-3.29-3.92-4.3-6.33s-1.52-5.06-1.52-7.85.51-5.32,1.52-7.85c1.01-2.41,2.53-4.56,4.3-6.33,1.77-1.77,3.92-3.29,6.33-4.3S17.22,0,20,0s5.32.51,7.85,1.52,4.56,2.53,6.33,4.3c1.77,1.77,3.29,3.92,4.3,6.33,1.01,2.41,1.52,5.06,1.52,7.85s-.51,5.32-1.52,7.85c-1.01,2.41-2.53,4.56-4.3,6.33-1.77,1.77-3.92,3.29-6.33,4.3-2.53,1.01-5.06,1.52-7.85,1.52Zm0-2.66c4.81,0,8.86-1.65,12.28-5.06s5.06-7.47,5.06-12.28-1.65-8.99-5.06-12.28c-3.42-3.42-7.47-5.06-12.28-5.06s-8.99,1.65-12.28,5.06c-3.42,3.42-5.06,7.47-5.06,12.28s1.65,8.86,5.06,12.28c3.29,3.42,7.47,5.06,12.28,5.06Zm7.22-18.1c.76,0,1.39-.25,1.9-.76s.76-1.14.76-1.9c0-.51-.13-.89-.38-1.27-.25-.38-.51-.76-.89-.89l.76-.38c.25-.13.38-.38.51-.51.13-.25,0-.51-.13-.76-.13-.25-.38-.38-.63-.51-.25-.13-.51,0-.76.13l-4.68,2.78c-.25.13-.38.38-.51.63,0,.25,0,.51.13.76s.25.38.51.38.38,0,.63-.13l.13-.13c0,.76.25,1.27.76,1.77.51.51,1.14.76,1.9.76Zm-14.43,0c.76,0,1.27-.25,1.77-.76.51-.51.76-1.14.76-1.77l.25.13c.25.13.38.13.63.13.25-.13.38-.25.51-.51.13-.25.13-.51.13-.76-.13-.25-.25-.38-.51-.63l-4.68-2.66c-.25-.13-.51-.13-.63-.13-.25,0-.38.25-.51.51-.13.25-.13.51-.13.76.13.25.25.38.51.51l.76.38c-.38.25-.76.51-.89.89-.25.38-.38.76-.38,1.27,0,.76.25,1.39.76,1.9.38.51.89.76,1.65.76Zm7.22,2.91c-2.28,0-4.3.76-6.08,2.28-1.77,1.52-3.04,3.29-3.8,5.44h19.75c-.89-2.15-2.15-4.05-3.8-5.44-1.77-1.52-3.8-2.28-6.08-2.28Z"/>
</svg>