<?xml version="1.0" encoding="UTF-8"?>
<svg id="Capa_1" data-name="Capa 1" xmlns="http://www.w3.org/2000/svg" viewBox="0 0 40 40">
  <defs>
    <style>
      .cls-1 {
        fill: none;
      }
    </style>
  </defs>
  <rect class="cls-1" x="0" width="40" height="40"/>
  <path d="m19.99,9.1l.73-1.27c.45-.79,1.46-1.06,2.25-.6s1.06,1.46.6,2.25l-7.06,12.22h5.1c1.65,0,2.58,1.94,1.86,3.29h-14.96c-.91,0-1.65-.73-1.65-1.65s.73-1.65,1.65-1.65h4.19l5.37-9.31-1.68-2.91c-.45-.79-.19-1.79.6-2.25.79-.45,1.79-.19,2.25.6l.72,1.27h0Zm-6.35,17.58l-1.58,2.74c-.45.79-1.46,1.06-2.25.6-.79-.45-1.06-1.46-.6-2.25l1.18-2.03c1.32-.41,2.4-.1,3.26.94h0Zm13.62-4.98h4.28c.91,0,1.65.73,1.65,1.65s-.73,1.65-1.65,1.65h-2.38l1.6,2.78c.45.79.19,1.79-.6,2.25-.79.45-1.79.19-2.25-.6-2.7-4.69-4.73-8.19-6.08-10.53-1.38-2.38-.4-4.77.58-5.57,1.08,1.85,2.69,4.65,4.85,8.39h0ZM20,0C8.95,0,0,8.95,0,20s8.95,20,20,20,20-8.95,20-20S31.05,0,20,0Zm17.42,20c0,9.57-7.75,17.42-17.42,17.42S2.58,29.67,2.58,20,10.33,2.58,20,2.58s17.42,7.75,17.42,17.42Z"/>
</svg>