<?xml version="1.0" encoding="UTF-8"?>
<svg id="Capa_1" data-name="Capa 1" xmlns="http://www.w3.org/2000/svg" viewBox="0 0 40 40">
  <defs>
    <style>
      .cls-1 {
        fill: none;
      }
    </style>
  </defs>
  <rect class="cls-1" x="0" width="40" height="40"/>
  <path d="m31.3,21.14c-.02-3.28,1.46-5.75,4.47-7.57-1.68-2.4-4.22-3.72-7.56-3.98-3.17-.25-6.64,1.85-7.9,1.85-1.34,0-4.41-1.76-6.82-1.76-4.98.08-10.28,3.97-10.28,11.9,0,2.34.43,4.76,1.29,7.25,1.14,3.28,5.27,11.31,9.57,11.18,2.25-.05,3.84-1.6,6.77-1.6s4.31,1.6,6.82,1.6c4.34-.06,8.07-7.37,9.16-10.65-5.82-2.74-5.51-8.04-5.51-8.21h0Zm-5.05-14.66c2.44-2.89,2.21-5.53,2.14-6.47-2.15.13-4.64,1.46-6.06,3.12-1.56,1.77-2.48,3.96-2.29,6.42,2.33.18,4.46-1.02,6.21-3.06Z"/>
</svg>