<?xml version="1.0" encoding="UTF-8"?>
<svg id="Capa_1" data-name="Capa 1" xmlns="http://www.w3.org/2000/svg" viewBox="0 0 40 40">
  <defs>
    <style>
      .cls-1 {
        fill: none;
      }
    </style>
  </defs>
  <rect class="cls-1" width="40" height="40"/>
  <path d="m5.3,39.37c-.88,0-1.64-.38-2.27-1.01s-1.01-1.39-1.01-2.4V11.99c-.5-.13-1.01-.5-1.39-1.14-.5-.63-.63-1.26-.63-2.02V3.79c0-.88.38-1.64,1.01-2.27.5-.63,1.39-1.01,2.27-1.01h33.44c.88,0,1.64.38,2.27,1.01s1.01,1.39,1.01,2.27v5.17c0,.76-.25,1.39-.63,2.02-.5.63-.88,1.01-1.39,1.14v23.97c0,.88-.38,1.64-1.01,2.4-.63.63-1.39,1.01-2.27,1.01-.13-.13-29.4-.13-29.4-.13Zm-.63-27.13v23.85c0,.13,0,.38.13.5.13.13.25.13.5.13h29.15c.13,0,.38,0,.5-.13s.13-.25.13-.5V12.24H4.67Zm31.92-2.65c.13,0,.38,0,.5-.13.13-.13.13-.25.13-.5V3.79c0-.13,0-.38-.13-.5s-.25-.13-.5-.13H3.28c-.13,0-.38,0-.5.13-.13.13-.13.38-.13.5v5.17c0,.13,0,.38.13.5.13.13.25.13.5.13h33.31Zm-21.2,12.87h9.21c.38,0,.63-.13.88-.38.25-.25.38-.63.38-.88s-.13-.63-.38-.88c-.25-.25-.5-.38-.88-.38h-9.21c-.38,0-.63.13-.88.38-.25.25-.38.63-.38,1.01s.13.63.38.88c.13.13.5.25.88.25Zm-10.73,14.26V12.24v24.48Z"/>
</svg>