<?xml version="1.0" encoding="UTF-8"?>
<svg id="Capa_1" data-name="Capa 1" xmlns="http://www.w3.org/2000/svg" viewBox="0 0 40 40">
  <defs>
    <style>
      .cls-1 {
        fill: none;
      }
    </style>
  </defs>
  <rect class="cls-1" width="40" height="40"/>
  <path d="m4.49,21.32l5.54,5.54c.26.26.4.53.4.92s-.13.66-.4.92-.53.4-.92.4-.66-.13-.92-.4L.53,21.06c-.4-.4-.53-.79-.53-1.19s.13-.92.53-1.19l7.66-7.66c.26-.26.66-.4.92-.4.4,0,.66.13.92.4s.4.66.4.92c0,.4-.13.66-.4.92l-5.54,5.81h31.02l-5.54-5.54c-.26-.26-.4-.66-.4-.92,0-.4.13-.66.4-.92.26-.26.66-.4.92-.4.4,0,.66.13.92.4l7.66,7.66c.4.4.53.79.53,1.19s-.13.92-.53,1.19l-7.66,7.66c-.26.26-.53.4-.92.4s-.66-.13-.92-.4c-.26-.26-.4-.66-.4-1.06s.13-.66.4-.92l5.54-5.54c0-.13-31.02-.13-31.02-.13Z"/>
</svg>