<?xml version="1.0" encoding="UTF-8"?>
<svg id="Capa_1" data-name="Capa 1" xmlns="http://www.w3.org/2000/svg" viewBox="0 0 40 40">
  <defs>
    <style>
      .cls-1 {
        fill: none;
      }
    </style>
  </defs>
  <rect class="cls-1" width="40" height="40"/>
  <path d="m33.44,21.94H1.91c-.55,0-1.01-.18-1.37-.54s-.54-.82-.54-1.37.18-1.01.54-1.37.82-.54,1.37-.54h31.53l-9.43-9.43c-.38-.38-.56-.83-.54-1.34s.22-.96.61-1.34.83-.57,1.34-.57.96.19,1.34.57l12.68,12.68c.21.21.36.42.45.64s.13.45.13.7-.04.49-.13.7-.23.42-.45.64l-12.61,12.61c-.38.38-.83.57-1.34.57s-.96-.19-1.34-.57-.57-.84-.57-1.37.19-.99.57-1.37l9.3-9.3Z"/>
</svg>