<?xml version="1.0" encoding="UTF-8"?>
<svg id="Capa_1" data-name="Capa 1" xmlns="http://www.w3.org/2000/svg" viewBox="0 0 40 40">
  <defs>
    <style>
      .cls-1 {
        fill: none;
      }
    </style>
  </defs>
  <rect class="cls-1" width="40" height="40"/>
  <path d="m6.55,21.94l9.35,9.35c.38.38.56.83.54,1.34s-.22.95-.6,1.34-.83.57-1.34.57-.95-.19-1.34-.57L.57,21.37c-.38-.38-.57-.83-.57-1.34s.19-.95.57-1.34L13.23,6.04c.38-.38.83-.57,1.34-.57s.95.19,1.34.57.57.84.57,1.37-.19.99-.57,1.37l-9.35,9.35h31.54c.55,0,1.01.18,1.37.54s.54.82.54,1.37-.18,1.01-.54,1.37-.82.54-1.37.54H6.55Z"/>
</svg>