<?xml version="1.0" encoding="UTF-8"?>
<svg id="Capa_1" data-name="Capa 1" xmlns="http://www.w3.org/2000/svg" viewBox="0 0 40 40">
  <defs>
    <style>
      .cls-1 {
        fill: none;
      }
    </style>
  </defs>
  <rect class="cls-1" width="40" height="40"/>
  <path d="m18.1,33V2c0-.6.2-1.2.6-1.4.4-.4.8-.6,1.4-.6s1.2.2,1.4.6c.4.2.6.8.6,1.4v31.2l12.4-12.4c.4-.4.8-.6,1.4-.6s1,.2,1.4.6c.4.4.6,1,.6,1.4,0,.6-.2,1-.6,1.4l-15.6,15.6c-.6.6-1.2.8-1.8.8s-1.2-.2-1.8-.8L2.5,23.6c-.2-.4-.4-.8-.4-1.4s.2-1,.6-1.4,1-.6,1.6-.6,1,.2,1.4.6c0-.2,12.4,12.2,12.4,12.2Z"/>
</svg>