<?xml version="1.0" encoding="UTF-8"?>
<svg id="Capa_1" data-name="Capa 1" xmlns="http://www.w3.org/2000/svg" viewBox="0 0 40 40">
  <defs>
    <style>
      .cls-1 {
        fill: none;
      }
    </style>
  </defs>
  <rect class="cls-1" width="40" height="40"/>
  <path d="m17.7,8.32l-11.8,11.56c-.48.48-1.03.7-1.66.67s-1.19-.28-1.66-.75-.71-1.03-.71-1.66.24-1.19.71-1.66L18.34.71c.48-.48,1.03-.71,1.66-.71s1.19.24,1.66.71l15.76,15.76c.48.48.71,1.03.71,1.66s-.24,1.19-.71,1.66-1.03.71-1.66.71-1.19-.24-1.66-.71l-11.64-11.64v29.47c0,.69-.22,1.25-.67,1.7-.45.45-1.02.67-1.7.67s-1.25-.22-1.7-.67c-.45-.45-.67-1.02-.67-1.7V8.32Z"/>
</svg>