<?xml version="1.0" encoding="UTF-8"?>
<svg id="Capa_1" data-name="Capa 1" xmlns="http://www.w3.org/2000/svg" viewBox="0 0 40 40">
  <defs>
    <style>
      .cls-1 {
        fill: none;
      }
    </style>
  </defs>
  <rect class="cls-1" width="40" height="40"/>
  <path d="m19.93,40c-.29,0-.43,0-.72-.14-.14-.14-.43-.29-.58-.43l-6.33-6.33c-.29-.29-.43-.72-.43-1.15s.14-.72.43-1.01.72-.43,1.15-.43.86.14,1.15.43l4.03,4.03V5.18l-4.03,4.03c-.29.29-.58.43-1.01.43s-.72-.14-1.15-.43c-.29-.29-.43-.72-.43-1.15s.14-.86.43-1.15L18.78.58c.14-.14.43-.29.58-.43.14-.14.43-.14.72-.14s.43,0,.72.14c.14.14.43.29.58.43l6.33,6.33c.29.29.43.72.43,1.15s-.14.72-.43,1.01c-.29.29-.72.43-1.15.43s-.86-.14-1.15-.43l-4.03-3.88v29.64l4.03-4.03c.29-.29.58-.43,1.01-.43s.72.14,1.15.43c.29.29.43.72.43,1.15s-.14.86-.43,1.15l-6.33,6.33c-.14.14-.43.29-.58.43-.29.14-.43.14-.72.14Z"/>
</svg>