<?xml version="1.0" encoding="UTF-8"?>
<svg id="Capa_1" data-name="Capa 1" xmlns="http://www.w3.org/2000/svg" viewBox="0 0 40 40">
  <defs>
    <style>
      .cls-1 {
        fill: none;
      }
    </style>
  </defs>
  <rect class="cls-1" width="40" height="40"/>
  <path d="m18.45,34.54v-8.2c0-.44.15-.81.45-1.1.3-.3.67-.44,1.11-.44s.81.15,1.1.44.44.66.44,1.1v8.2l3.45-3.45c.31-.31.69-.46,1.14-.46s.82.16,1.13.47c.31.31.46.69.46,1.13s-.15.82-.46,1.13l-6.19,6.19c-.31.31-.67.46-1.08.46s-.77-.15-1.08-.46l-6.19-6.19c-.31-.31-.46-.69-.46-1.13s.15-.82.46-1.13.68-.46,1.13-.46.82.15,1.14.46l3.45,3.45Zm-12.99-12.99l3.2,3.2c.31.31.46.69.46,1.14s-.16.82-.47,1.13c-.31.31-.69.46-1.13.46s-.82-.15-1.13-.46L.46,21.08c-.31-.31-.46-.67-.46-1.08s.15-.77.46-1.08l5.98-5.98c.32-.31.7-.46,1.14-.46s.82.15,1.13.46.46.68.46,1.13-.15.82-.46,1.14l-3.25,3.25h8.2c.44,0,.81.15,1.1.45.3.3.44.67.44,1.11s-.15.81-.44,1.1-.66.44-1.1.44H5.46Zm29.07,0h-8.14c-.44,0-.81-.15-1.1-.45-.3-.3-.44-.67-.44-1.11s.15-.81.44-1.1.66-.44,1.1-.44h8.14l-3.2-3.2c-.31-.31-.46-.69-.46-1.14s.16-.82.47-1.13c.31-.31.69-.46,1.13-.46s.82.15,1.13.46l5.93,5.93c.31.31.46.67.46,1.08s-.15.77-.46,1.08l-5.93,5.93c-.31.31-.69.46-1.13.46s-.82-.15-1.13-.46-.46-.68-.46-1.13.15-.82.46-1.14l3.2-3.2ZM18.45,5.46l-3.2,3.2c-.31.31-.69.46-1.13.46s-.82-.15-1.13-.46-.46-.68-.46-1.13.15-.82.46-1.14L18.92.46c.31-.31.67-.46,1.08-.46s.77.15,1.08.46l5.93,5.93c.31.31.46.69.46,1.13s-.15.82-.46,1.13-.68.46-1.13.46-.82-.15-1.14-.46l-3.2-3.2v8.14c0,.44-.15.81-.45,1.1-.3.3-.67.44-1.11.44s-.81-.15-1.1-.44-.44-.66-.44-1.1V5.46Z"/>
</svg>