<?xml version="1.0" encoding="UTF-8"?>
<svg id="Capa_1" data-name="Capa 1" xmlns="http://www.w3.org/2000/svg" viewBox="0 0 40 40">
  <defs>
    <style>
      .cls-1 {
        fill: none;
      }
    </style>
  </defs>
  <rect class="cls-1" width="40" height="40"/>
  <path d="m18.81,40c-.56,0-.98-.14-1.26-.56-.28-.28-.56-.84-.56-1.26v-12.87l-11.19,6.43c-.42.28-.84.28-1.4.14s-.84-.42-1.12-.84l-1.26-2.1c-.28-.42-.28-.98-.14-1.4.14-.56.42-.84.84-1.12l11.05-6.43L2.73,13.57c-.42-.28-.7-.56-.84-1.12-.14-.42,0-.98.14-1.4l1.26-2.1c.28-.42.56-.7,1.12-.84.56-.14.98,0,1.4.14l11.05,6.43V1.82c0-.56.14-.98.56-1.26.28-.28.84-.56,1.26-.56h2.38c.56,0,.98.14,1.26.56.28.28.56.84.56,1.26v12.87l11.05-6.43c.42-.28.84-.28,1.4-.14.42.14.84.42,1.12.84l1.26,2.1c.28.42.28.98.14,1.4-.14.42-.42.84-.84,1.12l-10.77,6.43,11.05,6.43c.42.28.7.56.84,1.12.14.42.14.98-.14,1.4l-1.26,2.1c-.28.42-.56.7-1.12.84s-.98,0-1.4-.14l-11.05-6.43v12.87c0,.56-.14.98-.56,1.26-.28.28-.84.56-1.26.56h-2.52Z"/>
</svg>