<?xml version="1.0" encoding="UTF-8"?>
<svg id="Capa_1" data-name="Capa 1" xmlns="http://www.w3.org/2000/svg" viewBox="0 0 40 40">
  <defs>
    <style>
      .cls-1 {
        fill: none;
      }
    </style>
  </defs>
  <rect class="cls-1" x="0" width="40" height="40"/>
  <path d="m12.73,18.65l.69,2.39h-2l.71-2.39c.1-.35.21-.78.3-1.19.1.41.2.85.3,1.19h0Zm13.01-2.51h-1.13v7.72h1.13c2.33,0,3.61-1.38,3.61-3.89s-1.37-3.83-3.61-3.83h0Zm14.27-7.39v22.5c0,2.07-1.68,3.75-3.75,3.75H3.75c-2.07,0-3.75-1.68-3.75-3.75V8.75c0-2.07,1.68-3.75,3.75-3.75h32.5c2.07,0,3.75,1.68,3.75,3.75Zm-20.82,17.51l-4.46-13.12c-.13-.38-.49-.64-.89-.64h-2.8c-.4,0-.76.26-.89.64l-4.46,13.12c-.21.61.25,1.24.89,1.24h2.28c.42,0,.79-.28.9-.68l.67-2.34h4.01l.69,2.34c.12.4.48.67.9.67h2.28c.64,0,1.09-.63.89-1.24h0Zm14.43-6.29c0-4.61-2.96-7.47-7.73-7.47h-4.48c-.52,0-.94.42-.94.94v13.12c0,.52.42.94.94.94h4.48c4.77,0,7.73-2.89,7.73-7.53h0Z"/>
</svg>