<?xml version="1.0" encoding="UTF-8"?>
<svg id="Capa_1" data-name="Capa 1" xmlns="http://www.w3.org/2000/svg" viewBox="0 0 40 40">
  <defs>
    <style>
      .cls-1 {
        fill: none;
      }
    </style>
  </defs>
  <rect class="cls-1" width="40" height="40"/>
  <path d="m12.97,38.44l-2.88-4.8-5.65-1.2c-.36-.12-.72-.24-.96-.6-.12-.36-.24-.72-.12-1.08l.6-5.53L.36,21.02c-.24-.24-.36-.6-.36-1.08,0-.36.12-.72.36-1.08l3.6-4.2-.6-5.53c0-.36,0-.72.24-1.08.24-.36.6-.6.96-.6l5.65-1.2,2.88-4.92c.24-.36.48-.6.84-.72s.72-.12,1.08,0l5.05,2.4,5.05-2.28c.36-.12.72-.24,1.08,0,.36.12.6.36.84.72l2.88,4.92,5.53,1.2c.36.12.72.24.96.6s.36.72.24,1.08l-.6,5.53,3.6,4.2c.24.24.36.6.36,1.08,0,.36-.12.72-.36,1.08l-3.6,4.2.6,5.53c0,.36,0,.72-.24,1.08s-.6.6-.96.6l-5.53,1.2-2.88,4.92c-.24.36-.48.6-.84.72-.36.12-.72.12-1.08,0l-5.05-2.52-5.05,2.28c-.36.12-.72.24-1.08,0-.36-.12-.72-.36-.96-.72Zm1.92-2.04l5.17-2.16,5.29,2.16,3.12-4.92,5.65-1.32-.6-5.77,3.84-4.44-3.84-4.44.6-5.89-5.65-1.2-3.12-4.92-5.29,2.16-5.29-2.16-3.12,4.92-5.65,1.32.6,5.89-3.96,4.32,3.84,4.44-.6,5.89,5.65,1.32c.12-.12,3.36,4.8,3.36,4.8Zm3-13.81l-3.6-3.72c-.24-.24-.48-.36-.84-.36s-.72.12-.96.36c-.24.24-.36.6-.36.96s.12.72.36.96l4.32,4.32c.36.36.72.48,1.08.48s.84-.12,1.08-.48l8.65-8.53c.24-.24.36-.6.36-.96s-.12-.72-.36-.96c-.24-.24-.6-.36-.84-.36-.36,0-.6.12-.84.36l-8.05,7.93Z"/>
</svg>