<?xml version="1.0" encoding="UTF-8"?>
<svg id="Capa_1" data-name="Capa 1" xmlns="http://www.w3.org/2000/svg" viewBox="0 0 40 40">
  <defs>
    <style>
      .cls-1 {
        fill: none;
      }
    </style>
  </defs>
  <rect class="cls-1" x="0" width="40" height="40"/>
  <path d="m11.28,16.69c-.04,1.42.66,2.04.68,2.44-.02.16-.11.31-.26.39l-.8.56c-.1.07-.23.11-.35.12-.03,0-.51.11-1.28-1.6-.95,1.19-2.39,1.86-3.91,1.84-1.02.06-3.77-.58-3.63-3.51-.1-2.39,2.13-3.88,4.43-3.75.44,0,1.35.02,2.94.39v-.98c.17-1.65-.92-2.94-2.8-2.74-.15,0-1.21-.03-2.86.63-.46.21-.52.18-.67.18-.46,0-.27-1.34-.18-1.51.33-.4,2.24-1.15,4.12-1.14,1.26-.11,2.51.28,3.48,1.08.8.89,1.2,2.08,1.1,3.27v4.33s0,0,0,0Zm-5.4,2.02c2.03-.03,2.88-1.25,3.08-1.9.15-.63.13-1.03.13-1.71-.6-.14-1.47-.3-2.47-.3-.95-.07-2.68.35-2.61,2.02-.08,1.05.69,1.96,1.87,1.9Zm10.68,1.44c-.49.04-.72-.3-.79-.65l-3.11-10.29c-.06-.17-.1-.35-.12-.54-.02-.16.08-.3.24-.33.02,0-.13,0,1.39,0,.55-.05.73.38.78.65l2.23,8.8,2.07-8.8c.03-.2.18-.69.8-.64h1.07c.14-.01.69-.03.79.65l2.09,8.91,2.3-8.91c.03-.14.17-.71.79-.65h1.23c.05,0,.38-.05.33.54-.03.12.21-.67-3.3,10.62-.07.34-.3.69-.79.65h-1.17c-.68.07-.78-.6-.79-.67l-2.07-8.57-2.05,8.56c-.01.07-.11.74-.79.67h-1.14Zm17.09.35c-.37,0-2.12-.02-3.58-.77-.3-.13-.49-.42-.49-.74v-.67c0-.53.39-.43.55-.37.63.25,1.03.45,1.8.6,2.29.47,3.3-.14,3.54-.28.82-.49.89-1.6.33-2.18-.65-.55-.97-.57-3.32-1.31-.29-.08-2.73-.85-2.74-3.27-.04-1.76,1.57-3.51,4.34-3.5.79,0,2.9.26,3.47.98.08.13.13.28.12.44v.63c0,.28-.1.42-.3.42-.48-.05-1.34-.7-3.07-.67-.43-.02-2.49.06-2.4,1.56-.03,1.18,1.66,1.63,1.86,1.68,2.28.69,3.04.8,3.94,1.85,1.07,1.39.49,3.02.27,3.46-1.19,2.34-4.28,2.15-4.33,2.15h0Zm2.51,6.55c-4.38,3.23-10.73,4.95-16.16,4.95-7.32.05-14.39-2.64-19.83-7.55-.41-.37-.05-.87.45-.59,6.03,3.45,12.86,5.26,19.8,5.26,5.19-.03,10.32-1.08,15.1-3.1.74-.31,1.36.49.63,1.02h0Zm1.82-2.08c-.56-.72-3.7-.34-5.11-.17-.42.05-.5-.32-.11-.59,2.5-1.76,6.62-1.26,7.09-.66.47.59-.13,4.71-2.47,6.68-.36.3-.7.14-.54-.26.53-1.33,1.71-4.28,1.15-5Z"/>
</svg>