<?xml version="1.0" encoding="UTF-8"?>
<svg id="Capa_1" data-name="Capa 1" xmlns="http://www.w3.org/2000/svg" viewBox="0 0 40 40">
  <defs>
    <style>
      .cls-1 {
        fill: none;
      }
    </style>
  </defs>
  <rect class="cls-1" width="40" height="40"/>
  <path d="m25.78,18.78c-.7,0-1.3-.24-1.78-.72-.48-.48-.72-1.07-.72-1.78s.24-1.3.72-1.78,1.07-.72,1.78-.72,1.3.24,1.78.72.72,1.07.72,1.78-.24,1.3-.72,1.78c-.48.48-1.07.72-1.78.72Zm-11.61,0c-.7,0-1.3-.24-1.78-.72-.48-.48-.72-1.07-.72-1.78s.24-1.3.72-1.78,1.07-.72,1.78-.72,1.3.24,1.78.72.72,1.07.72,1.78-.24,1.3-.72,1.78c-.48.48-1.07.72-1.78.72Zm5.83,12c-2.07,0-3.96-.56-5.67-1.67s-3.04-2.57-4-4.39h19.33c-.96,1.81-2.3,3.28-4,4.39s-3.59,1.67-5.67,1.67Zm0,9.22c-2.74,0-5.32-.53-7.75-1.58s-4.55-2.49-6.36-4.31c-1.81-1.81-3.25-3.94-4.31-6.36s-1.58-5.01-1.58-7.75.53-5.32,1.58-7.75,2.49-4.55,4.31-6.36c1.81-1.81,3.94-3.25,6.36-4.31s5.01-1.58,7.75-1.58,5.32.53,7.75,1.58,4.55,2.49,6.36,4.31,3.25,3.94,4.31,6.36,1.58,5.01,1.58,7.75-.53,5.32-1.58,7.75-2.49,4.55-4.31,6.36c-1.81,1.81-3.94,3.25-6.36,4.31s-5.01,1.58-7.75,1.58Zm0-3.33c4.56,0,8.47-1.62,11.75-4.86,3.28-3.24,4.92-7.14,4.92-11.69s-1.61-8.54-4.83-11.94-7.2-5.11-11.94-5.11h-1c-.26,0-.59.02-1,.06-.07.3-.14.65-.19,1.06s-.08.76-.08,1.06c0,.93.31,1.69.92,2.31s1.38.92,2.31.92c.44,0,.81-.03,1.11-.08.3-.06.57-.08.83-.08.37,0,.69.09.94.28s.39.46.39.83c0,.59-.28,1.05-.83,1.36s-1.37.47-2.44.47c-1.7,0-3.13-.57-4.28-1.72s-1.72-2.57-1.72-4.28c0-.19,0-.43.03-.72s.06-.54.14-.72c-3.37,1.22-6.16,3.26-8.36,6.11-2.2,2.85-3.31,6.19-3.31,10,0,4.56,1.64,8.49,4.92,11.81,3.28,3.31,7.19,4.97,11.75,4.97Z"/>
</svg>