<?xml version="1.0" encoding="UTF-8"?>
<svg id="Capa_1" data-name="Capa 1" xmlns="http://www.w3.org/2000/svg" viewBox="0 0 40 40">
  <defs>
    <style>
      .cls-1 {
        fill: none;
      }
    </style>
  </defs>
  <rect class="cls-1" width="40" height="40"/>
  <path d="m14.97,40c-.77,0-1.43-.28-1.98-.83s-.83-1.21-.83-1.98.28-1.43.83-1.98,1.21-.83,1.98-.83,1.43.28,1.98.83.83,1.21.83,1.98-.28,1.43-.83,1.98-1.21.83-1.98.83Zm21.15,0c-.77,0-1.43-.28-1.98-.83s-.83-1.21-.83-1.98.28-1.43.83-1.98,1.21-.83,1.98-.83,1.43.28,1.98.83.83,1.21.83,1.98-.28,1.43-.83,1.98-1.21.83-1.98.83Zm-12.4-28.35l-7.7-9.25c1.23-.63,2.55-1.11,3.95-1.43s2.72-.48,3.95-.48c1.37,0,2.7.14,4,.43s2.53.71,3.7,1.28c.47.23.73.58.8,1.05s-.12.88-.55,1.25l-8.15,7.15Zm-1.9,20.35c-2.7,0-4.98-.93-6.83-2.78s-2.78-4.13-2.78-6.83V7.3l-1.45-1.65c-.93-1.07-1.66-1.78-2.18-2.13s-1.03-.53-1.53-.53c-.8,0-1.45.25-1.95.75s-.85,1.1-1.05,1.8c-.1.37-.28.67-.53.9s-.56.35-.93.35c-.47,0-.86-.18-1.18-.53s-.43-.74-.33-1.18c.37-1.47,1.09-2.68,2.18-3.65C4.38.48,5.63,0,7.07,0,8.03,0,8.94.21,9.79.62s1.89,1.38,3.13,2.88l21.15,25.3c.5.6.58,1.28.23,2.05-.35.77-.94,1.15-1.78,1.15h-10.7Zm0-3h8.4L15.22,10.95v11.45c0,1.9.63,3.48,1.88,4.73s2.83,1.88,4.73,1.88Z"/>
</svg>