<?xml version="1.0" encoding="UTF-8"?>
<svg id="Capa_1" data-name="Capa 1" xmlns="http://www.w3.org/2000/svg" viewBox="0 0 40 40">
  <defs>
    <style>
      .cls-1 {
        fill: none;
      }
    </style>
  </defs>
  <rect class="cls-1" width="40" height="40"/>
  <path d="m12.84,35.84c-.83,0-1.58-.22-2.26-.65s-1.26-.99-1.75-1.67L.62,21.98c-.41-.6-.62-1.26-.62-1.98s.21-1.38.62-1.98L8.83,6.48c.49-.68,1.07-1.24,1.75-1.67s1.43-.65,2.26-.65h23.76c.93,0,1.73.33,2.4,1s1,1.46,1,2.4v24.89c0,.93-.33,1.73-1,2.4s-1.46,1-2.4,1H12.84Zm23.76-3.39V7.55v24.89Zm-24.38,0h24.38V7.55H12.22L3.51,20l8.71,12.45Zm11.94-10.07l5.15,5.15c.34.34.74.51,1.19.51s.85-.17,1.19-.51.51-.74.51-1.22-.17-.88-.51-1.22l-5.15-5.09,5.09-5.09c.34-.34.51-.74.51-1.19s-.17-.85-.51-1.19-.74-.51-1.22-.51-.88.17-1.22.51l-5.04,5.09-5.15-5.15c-.34-.34-.74-.51-1.19-.51s-.85.17-1.19.51-.51.74-.51,1.22.17.88.51,1.22l5.15,5.09-5.15,5.09c-.34.34-.51.74-.51,1.19s.17.85.51,1.19.74.51,1.22.51.88-.17,1.22-.51l5.09-5.09Z"/>
</svg>