<?xml version="1.0" encoding="UTF-8"?>
<svg id="Capa_1" data-name="Capa 1" xmlns="http://www.w3.org/2000/svg" viewBox="0 0 40 40">
  <defs>
    <style>
      .cls-1 {
        fill: none;
      }
    </style>
  </defs>
  <rect class="cls-1" width="40" height="40"/>
  <path d="m1.5,39c-.43,0-.79-.14-1.08-.43C.14,38.29,0,37.93,0,37.5s.14-.79.43-1.08.64-.43,1.08-.43h17V11.8c-.87-.3-1.64-.79-2.33-1.48s-1.18-1.46-1.48-2.33h-7.95l5.9,14.25c.13.27.21.55.23.85s0,.6-.08.9c-.3,1.5-1.07,2.63-2.3,3.38s-2.57,1.13-4,1.13-2.77-.38-4-1.13c-1.23-.75-2-1.88-2.3-3.38-.07-.3-.09-.6-.08-.9s.09-.58.23-.85L6.25,8h-2.75c-.43,0-.79-.14-1.08-.43-.28-.28-.43-.64-.43-1.08s.14-.79.43-1.08c.28-.28.64-.43,1.08-.43h11.2c.4-1.17,1.08-2.13,2.05-2.88s2.05-1.13,3.25-1.13,2.28.38,3.25,1.13,1.65,1.71,2.05,2.88h11.2c.43,0,.79.14,1.08.43s.43.64.43,1.08-.14.79-.43,1.08-.64.43-1.08.43h-2.75l5.9,14.25c.13.27.21.55.23.85s0,.6-.08.9c-.3,1.5-1.07,2.63-2.3,3.38s-2.57,1.13-4,1.13-2.77-.38-4-1.13-2-1.88-2.3-3.38c-.07-.3-.09-.6-.08-.9s.09-.58.23-.85l5.9-14.25h-7.95c-.3.87-.79,1.64-1.48,2.33s-1.46,1.18-2.33,1.48v24.2h17c.43,0,.79.14,1.08.43s.43.64.43,1.08-.14.79-.43,1.08c-.28.28-.64.43-1.08.43H1.5Zm28.25-16h7.5l-3.75-9.2-3.75,9.2Zm-27,0h7.5l-3.75-9.2-3.75,9.2Zm17.25-14c.7,0,1.29-.25,1.78-.75.48-.5.73-1.08.73-1.75,0-.7-.24-1.29-.73-1.78-.48-.48-1.08-.73-1.78-.73s-1.25.24-1.75.73-.75,1.08-.75,1.78.25,1.25.75,1.75,1.08.75,1.75.75Z"/>
</svg>