<?xml version="1.0" encoding="UTF-8"?>
<svg id="Capa_1" data-name="Capa 1" xmlns="http://www.w3.org/2000/svg" viewBox="0 0 40 40">
  <defs>
    <style>
      .cls-1 {
        fill: none;
      }
    </style>
  </defs>
  <rect class="cls-1" width="40" height="40"/>
  <path d="m20,40c-2.78,0-5.32-.51-7.85-1.52-2.41-1.01-4.56-2.53-6.33-4.3s-3.29-3.92-4.3-6.33-1.52-5.06-1.52-7.85.51-5.32,1.52-7.85c1.01-2.41,2.53-4.56,4.3-6.33s3.92-3.29,6.33-4.3S17.22,0,20,0s5.32.51,7.85,1.52c2.41,1.01,4.56,2.53,6.33,4.3,1.77,1.77,3.29,3.92,4.3,6.33,1.01,2.41,1.52,5.06,1.52,7.85s-.51,5.32-1.52,7.85c-1.01,2.41-2.53,4.56-4.3,6.33-1.77,1.77-3.92,3.29-6.33,4.3-2.41,1.01-5.06,1.52-7.85,1.52Zm0-2.66c4.81,0,8.99-1.65,12.28-5.06,3.42-3.42,5.06-7.47,5.06-12.28,0-2.15-.38-4.18-1.14-6.08-.76-1.9-1.77-3.67-3.16-5.32l-24.43,24.56c1.52,1.39,3.29,2.41,5.32,3.16s3.92,1.01,6.08,1.01Zm-13.16-5.95L31.39,6.84c-1.52-1.39-3.29-2.41-5.32-3.16-1.9-.76-3.92-1.14-6.08-1.14-4.81,0-8.99,1.65-12.28,5.06-3.42,3.42-5.06,7.47-5.06,12.28,0,2.15.38,4.18,1.14,6.08.63,2.03,1.77,3.8,3.04,5.44Z"/>
</svg>