<?xml version="1.0" encoding="UTF-8"?>
<svg id="Capa_1" data-name="Capa 1" xmlns="http://www.w3.org/2000/svg" viewBox="0 0 40 40">
  <defs>
    <style>
      .cls-1 {
        fill: none;
      }
    </style>
  </defs>
  <rect class="cls-1" width="40" height="40"/>
  <path d="m20.13,29.97l-9.02,9.02c-.63.63-1.4,1.02-2.41,1.02-.89,0-1.65-.38-2.29-1.02l-5.33-5.33c-.63-.63-1.02-1.4-1.02-2.29s.38-1.65,1.02-2.41l9.02-9.02L1.21,10.92c-.63-.63-1.02-1.4-1.02-2.29s.25-1.65.89-2.29L6.41,1.02c.63-.63,1.4-1.02,2.29-1.02s1.65.38,2.41,1.02l9.02,9.02L29.02,1.02C29.65.38,30.41,0,31.3,0s1.65.38,2.29,1.02l5.33,5.33c.63.63,1.02,1.4,1.02,2.41,0,.89-.25,1.65-1.02,2.29l-8.89,9.02,8.89,9.02c.63.63,1.02,1.4,1.02,2.41,0,.89-.38,1.65-1.02,2.29l-5.33,5.33c-.63.63-1.4.89-2.29.89s-1.65-.38-2.29-1.02l-8.89-9.02Zm0-11.68c.51,0,1.02-.13,1.4-.51.38-.38.51-.76.51-1.4,0-.51-.13-1.02-.51-1.4-.38-.38-.76-.51-1.4-.51-.51,0-1.02.13-1.4.51-.38.38-.51.76-.51,1.4,0,.51.13,1.02.51,1.4.38.25.76.51,1.4.51Zm-8.25-.13l6.35-6.35L9.21,2.79c-.13-.13-.25-.13-.51-.13-.13,0-.38,0-.51.13l-5.33,5.33c-.13.13-.13.25-.13.51,0,.13,0,.38.13.51l9.02,9.02Zm4.57,3.68c.51,0,1.02-.13,1.4-.51.38-.38.51-.76.51-1.4,0-.51-.13-1.02-.51-1.4-.38-.38-.76-.51-1.4-.51-.51,0-1.02.13-1.4.51-.38.38-.51.76-.51,1.4,0,.51.13,1.02.51,1.4.38.38.89.51,1.4.51Zm3.68,3.68c.51,0,1.02-.13,1.4-.51.38-.38.51-.76.51-1.4,0-.51-.13-1.02-.51-1.4-.38-.38-.76-.51-1.4-.51-.51,0-1.02.13-1.4.51-.38.38-.51.76-.51,1.4,0,.51.13,1.02.51,1.4s.76.51,1.4.51Zm3.56-3.68c.51,0,1.02-.13,1.4-.51.38-.38.51-.76.51-1.4,0-.51-.13-1.02-.51-1.4-.38-.38-.76-.51-1.4-.51-.51,0-1.02.13-1.4.51-.38.38-.51.76-.51,1.4,0,.51.13,1.02.51,1.4.51.38.89.51,1.4.51Zm-1.78,6.22l9.02,9.02c.13.13.25.13.51.13.13,0,.38,0,.51-.13l5.33-5.33c.13-.13.13-.25.13-.51,0-.13,0-.38-.13-.51l-9.02-9.02c-.13.13-6.35,6.35-6.35,6.35Z"/>
</svg>