<?xml version="1.0" encoding="UTF-8"?>
<svg id="Capa_1" data-name="Capa 1" xmlns="http://www.w3.org/2000/svg" viewBox="0 0 40 40">
  <defs>
    <style>
      .cls-1 {
        fill: none;
      }
    </style>
  </defs>
  <rect class="cls-1" width="40" height="40"/>
  <path d="m1.67,33.33c-.47,0-.87-.16-1.19-.48-.32-.32-.48-.72-.48-1.19s.16-.87.48-1.18.72-.47,1.19-.47h36.67c.47,0,.87.16,1.19.48.32.32.48.72.48,1.19s-.16.87-.48,1.18-.72.47-1.19.47H1.67Zm0-11.67c-.47,0-.87-.16-1.19-.48-.32-.32-.48-.72-.48-1.19s.16-.87.48-1.18.72-.47,1.19-.47h36.67c.47,0,.87.16,1.19.48.32.32.48.72.48,1.19s-.16.87-.48,1.18-.72.47-1.19.47H1.67Zm0-11.67c-.47,0-.87-.16-1.19-.48-.32-.32-.48-.72-.48-1.19s.16-.87.48-1.18.72-.47,1.19-.47h36.67c.47,0,.87.16,1.19.48.32.32.48.72.48,1.19s-.16.87-.48,1.18-.72.47-1.19.47H1.67Z"/>
</svg>