<?xml version="1.0" encoding="UTF-8"?>
<svg id="Capa_1" data-name="Capa 1" xmlns="http://www.w3.org/2000/svg" viewBox="0 0 40 40">
  <defs>
    <style>
      .cls-1 {
        fill: none;
      }
    </style>
  </defs>
  <rect class="cls-1" width="40" height="40"/>
  <path d="m6.58,31.14c1.77-1.27,3.16-2.91,4.05-4.94,1.01-2.03,1.39-4.05,1.39-6.33s-.51-4.3-1.39-6.33c-1.01-2.03-2.28-3.67-4.05-4.94-1.27,1.65-2.28,3.29-3.04,5.19-.63,1.9-1.01,3.92-1.01,5.95s.38,4.05,1.01,5.95c.76,2.15,1.77,3.92,3.04,5.44Zm13.42,6.2c2.15,0,4.18-.38,6.2-1.01,1.9-.76,3.8-1.77,5.32-3.16-2.03-1.65-3.54-3.54-4.68-5.82s-1.65-4.81-1.65-7.34.51-4.94,1.65-7.22,2.66-4.3,4.68-5.82c-1.65-1.39-3.42-2.41-5.32-3.16s-4.05-1.14-6.2-1.14-4.18.38-6.2,1.01c-1.9.76-3.8,1.77-5.32,3.16,2.03,1.65,3.54,3.54,4.68,5.82,1.14,2.28,1.65,4.68,1.65,7.22s-.51,4.94-1.65,7.22-2.66,4.3-4.68,5.82c1.65,1.39,3.42,2.53,5.32,3.16,2.03,1.01,4.05,1.27,6.2,1.27Zm13.42-6.2c1.27-1.52,2.28-3.29,2.91-5.19s1.01-3.92,1.01-5.95-.38-4.05-1.01-5.95-1.65-3.67-2.91-5.19c-1.77,1.27-3.16,2.91-4.05,4.94-1.01,2.03-1.39,4.05-1.39,6.33s.51,4.3,1.39,6.33c.89,1.77,2.28,3.42,4.05,4.68Zm-13.42,8.86c-2.78,0-5.32-.51-7.85-1.52s-4.56-2.53-6.33-4.3-3.29-3.92-4.3-6.33-1.52-5.06-1.52-7.85.51-5.32,1.52-7.85,2.53-4.56,4.3-6.33,3.92-3.29,6.33-4.3S17.22,0,20,0s5.32.51,7.85,1.52,4.56,2.53,6.33,4.3c1.77,1.77,3.29,3.92,4.3,6.33s1.52,5.06,1.52,7.85-.51,5.32-1.52,7.85-2.53,4.56-4.3,6.33c-1.77,1.77-3.92,3.29-6.33,4.3-2.53,1.01-5.06,1.52-7.85,1.52Z"/>
</svg>