<?xml version="1.0" encoding="UTF-8"?>
<svg id="Capa_1" data-name="Capa 1" xmlns="http://www.w3.org/2000/svg" viewBox="0 0 40 40">
  <defs>
    <style>
      .cls-1 {
        fill: none;
      }
    </style>
  </defs>
  <rect class="cls-1" width="40" height="40"/>
  <path d="m2.66,18.73h7.22c-.25-1.65-.63-3.29-1.39-4.81-.63-1.52-1.65-2.91-2.78-4.05-.89,1.27-1.52,2.66-2.15,4.18-.51,1.39-.76,2.91-.89,4.68Zm27.47,0h7.22c-.13-1.65-.38-3.16-1.01-4.68-.51-1.52-1.27-2.78-2.15-4.05-1.27,1.14-2.15,2.53-2.91,4.05-.51,1.39-1.01,2.91-1.14,4.68ZM5.7,30c1.14-1.14,2.15-2.53,2.78-3.92.76-1.52,1.14-3.04,1.39-4.68H2.66c.13,1.65.38,3.16,1.01,4.68.51,1.39,1.14,2.66,2.03,3.92Zm28.61,0c.89-1.27,1.52-2.53,2.15-4.05.51-1.39.89-3.04,1.01-4.68h-7.34c.25,1.65.63,3.29,1.27,4.68.76,1.52,1.65,2.91,2.91,4.05Zm-21.77-11.27h6.2V2.66c-2.15.25-4.3.76-6.2,1.65-1.9.89-3.54,2.15-5.06,3.67,1.39,1.39,2.66,3.04,3.42,4.94.89,1.77,1.52,3.67,1.65,5.82Zm8.73,0h6.08c.25-2.03.76-4.05,1.65-5.82s2.03-3.42,3.54-4.81c-1.52-1.52-3.16-2.78-5.06-3.67s-3.92-1.52-6.2-1.65c0-.13,0,15.95,0,15.95Zm-2.53,18.61v-16.08h-6.08c-.25,2.15-.76,4.05-1.65,5.82s-2.03,3.42-3.54,4.81c1.52,1.52,3.16,2.78,4.94,3.67,1.9,1.01,3.92,1.65,6.33,1.77Zm2.53,0c2.28-.25,4.3-.76,6.2-1.65s3.54-2.15,5.06-3.67c-1.39-1.39-2.66-3.04-3.54-4.81-.89-1.77-1.39-3.8-1.65-5.82h-6.08c0-.13,0,15.95,0,15.95Zm-1.27,2.66c-2.78,0-5.32-.51-7.85-1.52-2.41-1.01-4.56-2.53-6.33-4.3s-3.29-3.92-4.3-6.33-1.52-5.06-1.52-7.85.51-5.32,1.52-7.85c1.01-2.41,2.53-4.56,4.3-6.33s3.92-3.29,6.33-4.3S17.22,0,20,0s5.32.51,7.85,1.52c2.41,1.01,4.56,2.53,6.33,4.3,1.77,1.77,3.29,3.92,4.3,6.33,1.01,2.41,1.52,5.06,1.52,7.85s-.51,5.32-1.52,7.85c-1.01,2.41-2.53,4.56-4.3,6.33-1.77,1.77-3.92,3.29-6.33,4.3-2.53,1.01-5.06,1.52-7.85,1.52Z"/>
</svg>