<?xml version="1.0" encoding="UTF-8"?>
<svg id="Capa_1" data-name="Capa 1" xmlns="http://www.w3.org/2000/svg" viewBox="0 0 40 40">
  <defs>
    <style>
      .cls-1 {
        fill: none;
      }
    </style>
  </defs>
  <rect class="cls-1" width="40" height="40"/>
  <path d="m9.65,14.05c-1,0-1.86-.36-2.58-1.07-.72-.71-1.08-1.57-1.08-2.58s.36-1.86,1.07-2.58c.71-.72,1.57-1.08,2.58-1.08s1.86.36,2.58,1.07c.72.71,1.08,1.57,1.08,2.58s-.36,1.86-1.07,2.58c-.71.72-1.57,1.08-2.58,1.08Zm-4.35,25.95c-.63,0-1.18-.17-1.63-.5s-.68-.83-.68-1.5c-.8,0-1.5-.3-2.1-.9S0,35.8,0,35v-11.5C0,23.08.14,22.72.43,22.43s.64-.43,1.07-.43h4.5v-1.39c0-1.17.42-2.18,1.25-3.01.83-.83,1.84-1.25,3.02-1.25.62,0,1.21.12,1.78.35s1.07.58,1.5,1.05l2.6,2.95c.23.27.48.51.73.73s.51.41.78.58h14.35V5.3c0-.63-.21-1.17-.63-1.62-.42-.45-.94-.68-1.58-.68-.33,0-.65.03-.95.1s-.57.22-.8.45l-2.6,2.6c.17.57.19,1.14.08,1.73s-.33,1.14-.63,1.68l-5.1-4.85c.55-.36,1.13-.6,1.76-.7.63-.1,1.24-.04,1.84.2l2.6-2.55c.5-.5,1.08-.9,1.73-1.2S29.07,0,29.8,0C31.26,0,32.49.52,33.49,1.55c1,1.03,1.51,2.28,1.51,3.75v16.7h3.5c.43,0,.78.14,1.07.43s.43.64.43,1.07v11.5c0,.8-.31,1.5-.93,2.1s-1.31.9-2.08.9c0,.67-.23,1.17-.68,1.5-.45.33-1.01.5-1.67.5H5.3Zm-2.3-5h34v-10H3v10Zm34,0H3h34Z"/>
</svg>