<?xml version="1.0" encoding="UTF-8"?>
<svg id="Capa_1" data-name="Capa 1" xmlns="http://www.w3.org/2000/svg" viewBox="0 0 40 40">
  <defs>
    <style>
      .cls-1 {
        fill: none;
      }
    </style>
  </defs>
  <rect class="cls-1" width="40" height="40"/>
  <path d="m4.7,30c-.43,0-.78-.14-1.07-.43s-.43-.64-.43-1.07v-4.5h-1.7c-.43,0-.78-.14-1.07-.43S0,22.93,0,22.5v-5C0,17.07.14,16.72.43,16.43s.64-.43,1.07-.43h1.7v-4.5c0-.43.14-.78.43-1.07s.64-.43,1.07-.43h33.8c.43,0,.78.14,1.07.43s.43.64.43,1.07v17c0,.43-.14.78-.43,1.07s-.64.43-1.07.43H4.7Zm1.5-3h24.8v-14H6.2v14Z"/>
</svg>