<?xml version="1.0" encoding="UTF-8"?>
<svg id="Capa_1" data-name="Capa 1" xmlns="http://www.w3.org/2000/svg" viewBox="0 0 40 40">
  <defs>
    <style>
      .cls-1 {
        fill: none;
      }
    </style>
  </defs>
  <rect class="cls-1" width="40" height="40"/>
  <path d="m1.27,33.16c-.38,0-.76-.13-.89-.38s-.38-.51-.38-.89v-10.63c0-.76.13-1.52.51-2.28.38-.76.89-1.27,1.52-1.77v-5.44c0-1.39.51-2.53,1.39-3.54,1.01-.89,2.15-1.39,3.54-1.39h9.49c.76,0,1.39.13,2.03.51.63.38,1.14.76,1.52,1.27.38-.51.89-1.01,1.52-1.27.63-.38,1.27-.51,2.03-.51h9.49c1.39,0,2.53.51,3.54,1.39,1.01.89,1.39,2.15,1.39,3.54v5.44c.63.38,1.27,1.01,1.52,1.77.38.76.51,1.52.51,2.28v10.63c0,.38-.13.76-.38.89-.25.25-.51.38-.89.38s-.76-.13-.89-.38-.38-.51-.38-.89v-2.91H2.66v2.91c0,.38-.13.76-.38.89-.25.25-.63.38-1.01.38Zm20-16.71h13.92v-4.68c0-.63-.25-1.14-.63-1.65-.38-.38-1.01-.63-1.65-.63h-9.62c-.63,0-1.14.25-1.52.63s-.51,1.01-.51,1.65v4.68Zm-16.58,0h13.92v-4.68c0-.63-.25-1.14-.63-1.65s-.89-.63-1.52-.63H6.96c-.63,0-1.14.25-1.65.63-.38.38-.63,1.01-.63,1.65v4.68Zm-2.03,9.87h34.81v-5.06c0-.63-.25-1.14-.63-1.52-.38-.38-.89-.63-1.52-.63H4.68c-.63,0-1.14.25-1.52.63s-.63.89-.63,1.52c.13,0,.13,5.06.13,5.06Zm34.68,0H2.66h34.68Z"/>
</svg>