<?xml version="1.0" encoding="UTF-8"?>
<svg id="Capa_1" data-name="Capa 1" xmlns="http://www.w3.org/2000/svg" viewBox="0 0 40 40">
  <defs>
    <style>
      .cls-1 {
        fill: none;
      }
    </style>
  </defs>
  <rect class="cls-1" width="40" height="40"/>
  <path d="m11.51,37.19h15.02c.14,0,.42,0,.56-.14s.14-.28.14-.56V14.18h-4.63c-1.12,0-2.11.28-2.81.84-.7.56-1.54,1.4-2.53,2.39-.98,1.12-2.11,2.11-3.23,2.95-1.12.7-2.25,1.26-3.37,1.54v14.46c0,.14,0,.42.14.56.42.14.56.28.7.28Zm0,2.81c-.98,0-1.82-.42-2.53-1.12s-1.12-1.54-1.12-2.53v-14.46c-1.96-.42-3.51-1.4-4.91-2.81-1.4-1.4-1.96-3.09-1.96-5.19,0-1.82.56-3.51,1.68-4.91,1.12-1.4,2.53-2.39,4.21-3.09.84-1.68,1.96-3.09,3.65-4.21,1.54-1.12,3.37-1.68,5.47-1.68,1.26,0,2.39.28,3.51.7s2.11.98,3.09,1.82c.28-.14.7-.14.98-.28.28,0,.7-.14.98-.14,2.25,0,4.21.84,5.75,2.53s2.39,3.65,2.39,5.89c0,.7-.14,1.54-.28,2.11-.28.7-.56,1.26-.84,1.82h3.79c.98,0,1.82.42,2.53,1.12.7.7,1.12,1.54,1.12,2.53v13.89c0,.98-.42,1.82-1.12,2.53s-1.54,1.12-2.53,1.12h-5.05v.7c0,.98-.42,1.82-1.12,2.53s-1.54,1.12-2.53,1.12c-.14,0-15.16,0-15.16,0ZM3.93,13.89c0,1.4.56,2.67,1.68,3.65,1.12.98,2.39,1.54,3.79,1.54,1.26,0,2.25-.28,3.23-.98.98-.7,1.82-1.54,2.81-2.67.98-1.12,1.96-1.96,3.09-2.81,1.12-.84,2.53-1.26,4.07-1.26h7.16c.14-1.68-.42-3.09-1.4-4.35-.98-1.26-2.25-1.82-3.79-1.82-.7,0-1.26.14-1.82.28-.56.14-.84.28-.98.28l-1.12-.98c-.56-.42-1.26-.84-1.96-1.26-.84-.42-1.68-.56-2.67-.56-1.26,0-2.53.28-3.65.98-1.12.7-1.96,1.68-2.53,2.81l-.7,1.54-1.54.56c-.98.42-1.82.98-2.53,1.96-.84.98-1.12,1.96-1.12,3.09Zm26.25,18.81h5.05c.14,0,.42,0,.56-.14s.14-.28.14-.56v-13.89c0-.14,0-.42-.14-.56s-.28-.14-.56-.14h-5.05v15.3Zm-18.67,4.49h-.7,16.42-15.72Z"/>
</svg>