<?xml version="1.0" encoding="UTF-8"?>
<svg id="Capa_1" data-name="Capa 1" xmlns="http://www.w3.org/2000/svg" viewBox="0 0 40 40">
  <defs>
    <style>
      .cls-1 {
        fill: none;
      }
    </style>
  </defs>
  <rect class="cls-1" x="0" width="40" height="40"/>
  <path d="m16.11,18.7c2.21-1.06,3.36-2.65,3.36-5.14,0-4.9-3.65-6.1-7.87-6.1H0v24.61h11.93c4.47,0,8.67-2.15,8.67-7.15,0-3.09-1.47-5.37-4.49-6.23h0Zm-10.7-7.03h5.08c1.95,0,3.71.55,3.71,2.81,0,2.09-1.37,2.93-3.3,2.93h-5.49s0-5.74,0-5.74Zm5.78,16.23h-5.78v-6.78h5.9c2.38,0,3.89.99,3.89,3.51s-1.8,3.26-4,3.26h0Zm24.9-16.72h-9.98v-2.42h9.98v2.42h0Zm3.91,12.24c0-5.27-3.08-9.67-8.67-9.67s-9.12,4.08-9.12,9.43,3.49,9.35,9.12,9.35c4.26,0,7.01-1.92,8.34-5.99h-4.32c-.47,1.52-2.38,2.33-3.87,2.33-2.87,0-4.38-1.68-4.38-4.53h12.85c.02-.29.04-.6.04-.92Zm-12.89-2.17c.16-2.34,1.72-3.81,4.06-3.81s3.69,1.44,3.9,3.81h-7.97Z"/>
</svg>