<?xml version="1.0" encoding="UTF-8"?>
<svg id="Capa_1" data-name="Capa 1" xmlns="http://www.w3.org/2000/svg" viewBox="0 0 40 40">
  <defs>
    <style>
      .cls-1 {
        fill: none;
      }
    </style>
  </defs>
  <rect class="cls-1" width="40" height="40"/>
  <path d="m5.19,33.88c-.38,0-.63-.13-.87-.37-.25-.25-.38-.63-.38-.88,0-.37.12-.63.38-.88.25-.25.5-.37.87-.37h3v-15.87c0-2.75.87-5.25,2.63-7.5,1.75-2.13,4-3.63,6.75-4.13v-1.5c0-.75.25-1.25.75-1.75s1.12-.63,1.75-.63,1.25.25,1.75.63c.5.5.75,1,.75,1.75v1.5c2.75.63,5,2,6.75,4.25s2.63,4.75,2.63,7.5v15.75h2.87c.37,0,.63.13.88.37.25.25.37.63.37.88,0,.37-.12.63-.37.88s-.5.37-.88.37c.13,0-29.62,0-29.62,0Zm14.87,6.12c-1,0-1.88-.37-2.63-1.13-.75-.75-1.12-1.62-1.12-2.62h7.5c0,1-.37,2-1.12,2.62-.63.88-1.63,1.13-2.63,1.13Zm-9.25-8.75h18.5v-15.75c0-2.63-.88-4.75-2.75-6.63-1.75-1.75-3.88-2.63-6.5-2.63s-4.75.87-6.63,2.75c-1.75,1.75-2.75,4-2.75,6.62.13-.12.13,15.63.13,15.63Z"/>
</svg>