<?xml version="1.0" encoding="UTF-8"?>
<svg id="Capa_1" data-name="Capa 1" xmlns="http://www.w3.org/2000/svg" viewBox="0 0 40 40">
  <defs>
    <style>
      .cls-1 {
        fill: none;
      }
    </style>
  </defs>
  <rect class="cls-1" width="40" height="40"/>
  <g>
    <path d="m18.25,38.87c.75.75,1.62,1.12,2.62,1.12s1.88-.25,2.62-1.12c.75-.75,1.12-1.62,1.12-2.62h-7.5c0,1,.38,1.88,1.12,2.62Z"/>
    <path d="m17.5,6.87c1.12-.38,2.25-.62,3.38-.62,2.62,0,4.75.88,6.5,2.62,1.88,1.88,2.75,4,2.75,6.62v8.62l2.62,2.62v-11.25c0-2.88-.88-5.5-2.75-7.62-1.75-2.12-4-3.5-6.62-4v-1.38c0-.75-.25-1.38-.75-1.75C22.12.25,21.62,0,20.88,0s-1.25.25-1.75.75-.75,1-.75,1.75v1.5c-1,.25-2,.5-2.88,1-1,.38-1.88,1.12-2.75,1.88l1.88,1.88c.75-.88,1.75-1.5,2.88-1.88Z"/>
    <path d="m38.5,37.62L12.5,11.62l-2-2L3.38,2.5c-.25-.25-.62-.38-1-.38-.25,0-.62.12-.88.38s-.38.5-.38.88.12.75.38,1l7.91,7.91s-.02.06-.03.09c-.25.88-.38,1.88-.38,2.88v16h-3c-.38,0-.62.12-.88.38s-.38.5-.38.88.12.75.38,1,.5.38.88.38h25.25s5.5,5.5,5.5,5.5c.25.25.5.37.88.37.25,0,.62-.12.88-.37.25-.25.38-.5.38-.88s-.12-.62-.38-.88Zm-26.88-6.25V15.37c0-.27.03-.54.07-.81l16.81,16.81H11.62Z"/>
  </g>
</svg>