<?xml version="1.0" encoding="UTF-8"?>
<svg id="Capa_1" data-name="Capa 1" xmlns="http://www.w3.org/2000/svg" viewBox="0 0 40 40">
  <defs>
    <style>
      .cls-1 {
        fill: none;
      }
    </style>
  </defs>
  <rect class="cls-1" width="40" height="40"/>
  <path d="m38.28,40c-.47,0-.94-.16-1.25-.63-.31-.47-.47-.94-.47-1.41-.16-4.69-1.25-9.06-3.13-13.12s-4.37-7.66-7.5-10.78-6.72-5.63-10.94-7.5S6.56,3.59,1.88,3.28c-.47,0-.94-.16-1.41-.47-.31-.31-.47-.62-.47-1.09S.16.78.63.47c.31-.31.78-.47,1.41-.47,5.16.16,10,1.25,14.53,3.44,4.53,2.03,8.44,4.84,11.88,8.12,3.44,3.44,6.09,7.34,8.12,11.87s3.13,9.38,3.44,14.53c0,.47-.16,1.09-.31,1.41s-.78.62-1.41.62Z"/>
</svg>