<?xml version="1.0" encoding="UTF-8"?>
<svg id="Capa_1" data-name="Capa 1" xmlns="http://www.w3.org/2000/svg" viewBox="0 0 40 40">
  <defs>
    <style>
      .cls-1 {
        fill: none;
      }
    </style>
  </defs>
  <rect class="cls-1" width="40" height="40"/>
  <path d="m7.98,33.25c-2.25,0-4.09-.82-5.63-2.35-1.53-1.53-2.35-3.48-2.35-5.73s.82-4.09,2.35-5.63c1.53-1.53,3.48-2.35,5.63-2.35,1.94,0,3.68.61,5.22,1.94,1.53,1.33,2.35,2.97,2.66,4.91h2.56l-3.58-10.03h-1.84c-.31,0-.61-.1-.72-.31-.2-.2-.31-.41-.31-.82,0-.31.1-.61.31-.72.2-.2.41-.31.72-.31h5.32c.31,0,.61.1.82.31.2.2.31.41.31.72s-.1.61-.31.82c-.2.2-.41.31-.82.31h-1.13l1.13,3.17h9.72l-2.97-7.98c0-.1-.1-.2-.2-.2s-.2-.1-.31-.1h-2.97c-.31,0-.61-.1-.72-.31-.2-.2-.31-.41-.31-.82,0-.31.1-.61.31-.72.2-.2.41-.31.72-.31h2.86c.61,0,1.13.2,1.64.51s.82.72,1.02,1.33l3.17,8.59h1.74c2.25,0,4.09.82,5.63,2.35,1.53,1.53,2.35,3.38,2.35,5.63s-.82,4.09-2.35,5.73c-1.53,1.53-3.48,2.35-5.63,2.35s-3.79-.61-5.22-1.94c-1.43-1.33-2.35-2.97-2.66-4.91h-8.39c-.31,2.05-1.13,3.68-2.66,5.01-1.43,1.23-3.17,1.84-5.12,1.84Zm0-2.15c1.43,0,2.66-.41,3.68-1.33s1.74-2.05,2.05-3.48h-3.99c-.31,0-.61-.1-.82-.31s-.2-.51-.2-.82.1-.61.31-.82.41-.2.72-.2h3.99c-.31-1.43-1.02-2.56-2.05-3.48-1.02-.82-2.25-1.23-3.58-1.23-1.64,0-3.07.61-4.19,1.74-1.13,1.13-1.74,2.46-1.74,4.09s.61,2.97,1.74,4.19c1.13,1.13,2.46,1.64,4.09,1.64Zm12.79-6.96h3.48c.1-.72.41-1.53.82-2.46.41-.92,1.02-1.64,1.74-2.25h-7.77l1.74,4.71Zm11.36,6.96c1.64,0,2.97-.61,4.09-1.74,1.13-1.13,1.74-2.56,1.74-4.19s-.61-2.97-1.74-4.09c-1.13-1.13-2.46-1.74-4.09-1.74h-.51c-.2,0-.31,0-.51.1l1.33,3.79c.1.31.1.51,0,.82-.1.31-.31.41-.61.61-.31.1-.51.1-.82,0s-.41-.31-.51-.61l-1.43-3.79c-.92.51-1.64,1.23-2.05,2.15s-.72,1.84-.72,2.86c0,1.64.61,2.97,1.74,4.19,1.02,1.13,2.46,1.64,4.09,1.64Z"/>
</svg>