<?xml version="1.0" encoding="UTF-8"?>
<svg id="Capa_1" data-name="Capa 1" xmlns="http://www.w3.org/2000/svg" viewBox="0 0 40 40">
  <defs>
    <style>
      .cls-1 {
        fill: none;
      }
    </style>
  </defs>
  <rect class="cls-1" width="40" height="40"/>
  <path d="m25.83,8.56c-.84,0-1.47-.31-2.1-.84-.52-.52-.84-1.26-.84-2.1s.31-1.47.84-2.1c.52-.52,1.26-.84,2.1-.84s1.47.31,2.1.84c.52.52.84,1.26.84,2.1s-.31,1.47-.84,2.1c-.63.52-1.26.84-2.1.84Zm-5.77,23.41c-.31,0-.52-.1-.73-.31-.21-.21-.31-.42-.31-.73v-7.56l-5.98-4.93c-.31-.21-.52-.52-.63-.84s-.21-.73-.21-1.15.1-.73.21-1.05c.21-.31.42-.63.63-.84l5.14-5.14c.21-.21.52-.42.94-.63.42-.21.84-.21,1.26-.21s.84.1,1.26.21c.42.21.73.42.94.63l3.36,3.36c.63.63,1.47,1.26,2.31,1.78.94.52,1.89.84,2.94.94.31.1.52.21.73.42s.31.42.31.73-.1.63-.31.84-.52.31-.84.31c-1.36-.21-2.62-.52-3.67-1.15-1.15-.63-2.1-1.36-3.04-2.31l-1.89-1.89-5.04,5.04,3.15,3.36c.21.21.42.52.52.84s.21.63.21,1.05v8.19c0,.31-.1.52-.31.73-.31.21-.63.31-.94.31Zm-11.97,5.35c-2.31,0-4.2-.73-5.77-2.31-1.57-1.57-2.31-3.46-2.31-5.77s.73-4.2,2.31-5.77c1.57-1.57,3.46-2.31,5.77-2.31s4.2.73,5.77,2.31c1.57,1.57,2.31,3.46,2.31,5.77s-.73,4.2-2.31,5.77c-1.47,1.47-3.46,2.31-5.77,2.31Zm.1-1.89c1.78,0,3.25-.63,4.41-1.78,1.26-1.15,1.78-2.73,1.78-4.41s-.63-3.25-1.78-4.41c-1.26-1.15-2.73-1.78-4.41-1.78s-3.25.63-4.41,1.78c-1.26,1.15-1.78,2.73-1.78,4.41s.63,3.25,1.78,4.41c1.15,1.15,2.62,1.78,4.41,1.78Zm23.73,1.89c-2.31,0-4.2-.73-5.77-2.31-1.57-1.57-2.31-3.46-2.31-5.77s.73-4.2,2.31-5.77c1.57-1.57,3.46-2.31,5.77-2.31s4.2.73,5.77,2.31,2.31,3.46,2.31,5.77-.73,4.2-2.31,5.77c-1.47,1.47-3.46,2.31-5.77,2.31h0Zm0-1.89c1.78,0,3.25-.63,4.41-1.78,1.26-1.15,1.78-2.73,1.78-4.41s-.63-3.25-1.78-4.41c-1.26-1.15-2.73-1.78-4.41-1.78-1.78,0-3.25.63-4.41,1.78-1.26,1.15-1.78,2.73-1.78,4.41s.63,3.25,1.78,4.41c1.26,1.15,2.73,1.78,4.41,1.78Z"/>
</svg>