<?xml version="1.0" encoding="UTF-8"?>
<svg id="Capa_1" data-name="Capa 1" xmlns="http://www.w3.org/2000/svg" viewBox="0 0 40 40">
  <defs>
    <style>
      .cls-1 {
        fill: none;
      }
    </style>
  </defs>
  <rect class="cls-1" width="40" height="40"/>
  <path d="m14.56,40c-.42,0-.71-.14-.99-.42-.28-.28-.42-.57-.42-.99v-3.53h-5.94c-.42,0-.71-.14-.99-.42-.28-.28-.42-.71-.42-1.13s.14-.71.42-.99.57-.42.99-.42h3.53V7.92h-3.53c-.42,0-.71-.14-.99-.42s-.42-.71-.42-.99c0-.42.14-.71.42-.99s.57-.42.99-.42h5.94V1.41c0-.42.14-.71.42-.99.28-.28.71-.42.99-.42.42,0,.71.14.99.42.42.14.57.57.57.99v3.53h5.8V1.41c0-.42.14-.71.42-.99.28-.28.71-.42.99-.42.42,0,.71.14.99.42.28.28.42.57.42.99v3.67c2.12.28,3.82,1.13,5.09,2.69s1.98,3.39,1.98,5.37c0,1.13-.28,2.26-.71,3.39-.42.99-1.13,1.98-1.84,2.69,1.55.71,2.69,1.7,3.67,2.97.85,1.41,1.27,2.83,1.27,4.52,0,2.4-.85,4.24-2.4,5.94-1.55,1.55-3.53,2.4-5.94,2.4h-1.13v3.53c0,.42-.14.71-.42.99-.28.28-.71.42-1.13.42s-.71-.14-.99-.42-.42-.57-.42-.99v-3.53h-5.65v3.53c0,.42-.14.71-.42.99-.28.28-.71.42-1.13.42Zm-.85-21.48h9.89c1.55,0,2.83-.57,3.82-1.55s1.55-2.26,1.55-3.82-.57-2.83-1.55-3.82-2.26-1.55-3.82-1.55h-9.89v10.74Zm0,13.43h12.3c1.55,0,2.83-.57,3.82-1.55s1.55-2.26,1.55-3.82-.57-2.83-1.55-3.82-2.26-1.41-3.82-1.41h-12.3v10.6Z"/>
</svg>