<?xml version="1.0" encoding="UTF-8"?>
<svg id="Capa_1" data-name="Capa 1" xmlns="http://www.w3.org/2000/svg" viewBox="0 0 40 40">
  <defs>
    <style>
      .cls-1 {
        fill: none;
      }
    </style>
  </defs>
  <rect class="cls-1" x="0" width="40" height="40"/>
  <path d="m12.97,9.13c0,1.83-1.28,3.84-5.67,3.84H1.83l1.64-6.94h5.3c3.29,0,4.2,1.82,4.2,3.1Zm9.86-3.1h-5.3l-1.46,6.94h5.48c4.2,0,5.48-2.01,5.48-3.84,0-1.28-.91-3.1-4.2-3.1h0Zm-15.89,10.23H1.64L0,23.2h5.48c4.38,0,5.67-1.83,5.67-3.84,0-1.27-.91-3.1-4.2-3.1h0Zm14.07,0h-5.3l-1.46,6.94h5.48c4.2,0,5.48-1.83,5.48-3.84,0-1.27-.91-3.1-4.2-3.1h0Zm14.79-4.2h-5.3l-1.46,6.94h5.48c4.2,0,5.48-1.83,5.48-3.84,0-1.27-.91-3.1-4.2-3.1Zm-2.19,10.78h-5.3l-1.46,6.94h5.48c4.38,0,5.48-1.83,5.48-3.84,0-1.27-.91-3.1-4.2-3.1h0Zm-14.8,4.2h-5.3l-1.46,6.94h5.48c4.38,0,5.48-2.01,5.48-3.84,0-1.27-.91-3.1-4.2-3.1h0Z"/>
</svg>