<?xml version="1.0" encoding="UTF-8"?>
<svg id="Capa_1" data-name="Capa 1" xmlns="http://www.w3.org/2000/svg" viewBox="0 0 40 40">
  <defs>
    <style>
      .cls-1 {
        fill: none;
      }
    </style>
  </defs>
  <rect class="cls-1" width="40" height="40"/>
  <path d="m13.69,39.87c-.76,0-1.39-.25-1.89-.76-.5-.5-.76-1.14-.76-1.89v-2.02c0-1.51.38-2.9,1.14-4.29.76-1.39,1.77-2.52,3.28-3.41l-1.77-10.35h-4.54c-.88,0-1.64-.38-2.27-1.01s-1.01-1.39-1.01-2.27V5.55c0-.88.38-1.64,1.01-2.27s1.39-1.01,2.27-1.01h10.47v-.63c0-.5.13-.88.5-1.14.25-.25.76-.5,1.14-.5h2.4c.5,0,.88.13,1.14.5.25.25.5.76.5,1.14v.63h6.69c.5,0,.88.25,1.26.63s.5.88.38,1.39l-3.91,23.34c1.39.88,2.52,2.02,3.28,3.41s1.14,2.78,1.14,4.29v2.02c0,.76-.25,1.39-.76,1.89s-1.14.76-1.89.76c.13-.13-17.79-.13-17.79-.13Zm-.5-25.36l-1.64-9.59h-2.4c-.13,0-.25.13-.38.25-.25.13-.25.25-.25.38v8.33c0,.13.13.25.25.5.13.13.25.25.5.25-.13-.13,3.91-.13,3.91-.13Zm9.46,20.32c.5,0,1.01-.13,1.39-.5.38-.38.5-.76.5-1.39,0-.5-.13-1.01-.5-1.39-.38-.38-.76-.5-1.39-.5-.5,0-1.01.13-1.39.5-.38.38-.5.76-.5,1.39,0,.5.13,1.01.5,1.39.38.38.88.5,1.39.5Zm-4.79-8.83h9.72l3.41-20.95H14.2c0-.13,3.66,20.95,3.66,20.95Zm-4.16,11.23h17.79v-2.02c0-1.77-.63-3.41-2.02-4.67-1.26-1.26-2.9-1.89-4.79-1.89h-4.29c-1.89,0-3.53.63-4.79,1.89s-2.02,2.9-2.02,4.67c.13,0,.13,2.02.13,2.02Z"/>
</svg>