<?xml version="1.0" encoding="UTF-8"?>
<svg id="Capa_1" data-name="Capa 1" xmlns="http://www.w3.org/2000/svg" viewBox="0 0 40 40">
  <defs>
    <style>
      .cls-1 {
        fill: none;
      }
    </style>
  </defs>
  <rect class="cls-1" width="40" height="40"/>
  <path d="m17.69,6.69c-.91,0-1.7-.34-2.38-1.02s-1.02-1.47-1.02-2.38.34-1.7,1.02-2.38,1.47-.91,2.38-.91,1.7.34,2.38.91c.68.68.91,1.47.91,2.49,0,.91-.34,1.7-.91,2.38-.68.57-1.47.91-2.38.91Zm1.13,33.31c-.34,0-.57-.11-.79-.34s-.34-.57-.34-.79v-8.61l-4.19-5.44-.45,6.46c0,.23-.11.57-.11.79l-.34.68-4.87,6.23c-.23.23-.45.45-.79.45s-.57,0-.91-.23c-.23-.23-.45-.45-.45-.79s0-.57.23-.91l4.76-6.23-.57-8.61c-.11-1.47,0-3.17.23-4.87.23-1.81.68-3.4,1.13-4.76l-4.76,2.95v4.53c0,.34-.11.57-.34.79s-.45.34-.79.34-.57-.11-.79-.34c-.23-.23-.34-.57-.34-.79v-4.42c0-.45.11-.91.34-1.36.11-.45.45-.68.91-1.02l6.69-3.97c.45-.34,1.02-.57,1.47-.68.45-.11.91-.23,1.36-.23.68,0,1.25.11,1.7.45.45.34.91.79,1.25,1.47l1.36,2.72c.68,1.36,1.81,2.49,3.17,3.4,1.36.79,2.95,1.36,4.42,1.36.34,0,.57.11.68.34.23.23.23.45.23.79s-.11.68-.34.79c-.23.23-.45.34-.79.34h-.68l9.52,18.02c.11.23.11.34,0,.57,0,.23-.23.34-.34.45-.11.23-.34.23-.45.23-.23,0-.34-.11-.45-.34l-10.08-19.15c-1.36-.34-2.61-1.02-3.85-2.04-1.25-.91-2.27-2.15-3.17-3.51-.45,1.36-.91,2.72-1.13,4.08s-.34,2.61-.23,3.74l3.74,5.78c.11.23.23.45.34.68.11.23.11.45.11.79v9.07c0,.34-.11.57-.34.79-.34.23-.57.34-.91.34Z"/>
</svg>