<?xml version="1.0" encoding="UTF-8"?>
<svg id="Capa_1" data-name="Capa 1" xmlns="http://www.w3.org/2000/svg" viewBox="0 0 40 40">
  <defs>
    <style>
      .cls-1 {
        fill: none;
      }
    </style>
  </defs>
  <rect class="cls-1" x="0" width="40" height="40"/>
  <path d="m14.5,14.64c.43-.44.55-.46,3.25-.46,2.43,0,2.51,0,2.87.19.52.26.74.63.74,1.21,0,.53-.21.89-.68,1.2-.25.16-.4.17-2.78.19-1.46,0-2.63-.02-2.81-.07-.92-.26-1.26-1.58-.59-2.26h0Zm5.48,8.44c-4.81,0-4.98.02-5.38.37-.31.28-.51.84-.46,1.24.06.42.43.9.82,1.07.2.09,1.26.15,5.03.11l4.28-.05.82-.13c.8-.46.94-1.55.28-2.18-.47-.42-.45-.42-5.39-.42h0Zm19.95,11.62c-.31,2.54-2.05,4.5-4.56,5.13-.64.16-.87.17-15.44.16-14.09,0-14.81,0-15.36-.16-.75-.2-1.39-.49-1.99-.89-.5-.34-1.24-1.05-1.52-1.46-.34-.5-.73-1.37-.89-1.96-.16-.6-.17-.84-.17-15.48S0,5.15.16,4.52C.72,2.31,2.47.63,4.73.13c.65-.14,29.65-.17,30.36-.03,1.89.38,3.38,1.53,4.25,3.25.69,1.37.63-.13.65,16.13.02,10.34,0,14.69-.06,15.22Zm-7.63-16.54c-.1-.45-.38-.86-.69-1.03-.1-.05-.71-.12-1.38-.15-1.11-.05-1.23-.07-1.59-.28-.55-.32-.71-.68-.71-1.63,0-1.82-.76-3.52-2.26-5.04-1.07-1.09-2.26-1.83-3.63-2.24-.32-.1-1.05-.13-3.5-.16-3.83-.04-4.69.04-5.99.55-2.41.96-4.13,2.98-4.77,5.57-.12.48-.14,1.27-.17,5.74-.04,5.61,0,6.44.36,7.55.87,2.74,3.31,4.77,5.77,5.21.82.15,10.91.19,11.94.04,1.79-.24,3.21-.96,4.53-2.31.96-.97,1.55-2.04,1.95-3.44.29-.97.26-7.89.15-8.38h0Z"/>
</svg>