<?xml version="1.0" encoding="UTF-8"?>
<svg id="Capa_1" data-name="Capa 1" xmlns="http://www.w3.org/2000/svg" viewBox="0 0 40 40">
  <defs>
    <style>
      .cls-1 {
        fill: none;
      }
    </style>
  </defs>
  <rect class="cls-1" width="40" height="40"/>
  <path d="m20,23.27l-9.8,9.8c-.26.26-.52.39-.92.39s-.65-.13-.92-.39c-.26-.26-.39-.65-.39-.92,0-.39.13-.65.39-.92l11.24-11.24-11.24-11.24c-.26-.26-.39-.52-.39-.92s.13-.65.39-.92.65-.39.92-.39c.39,0,.65.13.92.39l9.8,9.8V1.31c0-.39,0-.78.26-.92.26-.26.52-.39.92-.39.26,0,.52,0,.78.13.26.13.52.26.65.52l8.76,8.76c.13.13.26.39.39.52.13.13.13.39.13.65s0,.39-.13.65c-.13.13-.26.39-.39.52l-8.1,8.24,8.24,8.24c.13.13.26.39.39.52s.13.39.13.65,0,.39-.13.65c-.13.13-.26.39-.39.52l-8.89,8.76c-.26.26-.52.39-.78.52-.26.13-.52.13-.78.13-.39,0-.65-.13-.92-.39-.13-.13-.13-.52-.13-.92v-15.42Zm2.61-6.54l6.01-6.01-6.01-6.14v12.16Zm0,18.69l6.01-6.01-6.01-6.14v12.16Z"/>
</svg>