<?xml version="1.0" encoding="UTF-8"?>
<svg id="Capa_1" data-name="Capa 1" xmlns="http://www.w3.org/2000/svg" viewBox="0 0 40 40">
  <defs>
    <style>
      .cls-1 {
        fill: none;
      }
    </style>
  </defs>
  <rect class="cls-1" width="40" height="40"/>
  <path d="m9.91,40c-1.09,0-2-.36-2.73-1.09s-1.09-1.64-1.09-2.73V3.82c0-1.09.36-2,1.09-2.73.73-.73,1.64-1.09,2.73-1.09h11.09c3.09,0,5.82.91,8.18,2.91s3.45,4.55,3.45,7.64c0,2-.55,3.64-1.64,5.27-1.09,1.45-2.36,2.73-4,3.45v.18c2,.55,3.64,1.82,4.91,3.45s2,3.82,2,6c0,3.27-1.27,6-3.82,8s-5.45,3.09-8.73,3.09c.36,0-11.45,0-11.45,0Zm1.45-4.55h10c2.18,0,4-.73,5.27-2,1.45-1.27,2.18-2.91,2.18-4.91,0-1.82-.73-3.45-2.18-4.73-1.45-1.27-3.27-2-5.45-2h-10c.18,0,.18,13.64.18,13.64Zm0-18.18h9.45c1.82,0,3.45-.55,4.91-1.82,1.27-1.27,2-2.73,2-4.55s-.73-3.27-2-4.55-2.91-1.82-4.73-1.82h-9.45c-.18,0-.18,12.73-.18,12.73Z"/>
</svg>