<?xml version="1.0" encoding="UTF-8"?>
<svg id="Capa_1" data-name="Capa 1" xmlns="http://www.w3.org/2000/svg" viewBox="0 0 40 40">
  <defs>
    <style>
      .cls-1 {
        fill: none;
      }
    </style>
  </defs>
  <rect class="cls-1" width="40" height="40"/>
  <path d="m16.36,35.11l13.2-15.81h-9.28l1.7-13.98-11.89,17.11h7.97c.13.13-1.7,12.67-1.7,12.67Zm-1.31-9.8h-7.19c-.65,0-1.05-.26-1.31-.78s-.26-1.05.13-1.57L21.98.75c.26-.39.52-.52.91-.65s.78-.13,1.18,0,.65.39.91.78c.26.39.26.78.26,1.18l-1.83,14.5h8.62c.65,0,1.18.26,1.44.91.26.52.13,1.18-.26,1.7l-16.85,20.12c-.26.26-.65.52-1.05.65-.39.13-.78,0-1.18-.13-.39-.13-.65-.39-.78-.78-.26-.39-.26-.78-.26-1.18.13.13,1.96-12.54,1.96-12.54Z"/>
</svg>