<?xml version="1.0" encoding="UTF-8"?>
<svg id="Capa_1" data-name="Capa 1" xmlns="http://www.w3.org/2000/svg" viewBox="0 0 40 40">
  <defs>
    <style>
      .cls-1 {
        fill: none;
      }
    </style>
  </defs>
  <rect class="cls-1" width="40" height="40"/>
  <path d="m13.9,39.87c-1.51,0-2.77-.5-3.77-1.51s-1.51-2.26-1.51-3.77c0-.75.13-1.38.38-2.01s.63-1.13,1.13-1.64l4.78-4.65v-8.3c0-.75-.25-1.26-.75-1.89-.5-.5-1.01-1.01-1.51-1.38-1.51-1.13-2.52-2.26-3.14-3.4s-1.01-2.39-1.01-3.77c0-2.14.75-3.9,2.26-5.41,1.51-1.38,3.4-2.14,5.53-2.14.88,0,1.64.13,2.14.25.63.13,1.26.38,1.76.75.38.13.63.38,1.01.5.25.13.63.25.88.25.63,0,1.38-.25,2.01-.88.38-.25.88-.5,1.26-.63s.88-.25,1.38-.25c1.38,0,2.52.5,3.4,1.38.88,1.01,1.38,2.14,1.38,3.52,0,.75-.13,1.38-.38,2.01-.25.63-.75,1.26-1.26,1.89l-4.53,4.91v12.45l4.65,4.78c.5.5.88,1.13,1.13,1.76.25.63.38,1.26.38,2.01,0,1.51-.5,2.77-1.51,3.77-1.01,1.01-2.26,1.51-3.77,1.51-.63,0-1.38-.13-2.01-.38s-1.26-.63-1.76-1.13c-.38-.38-.75-.63-1.13-.75s-.88-.25-1.38-.25-.88.13-1.38.25c-.5.13-.88.38-1.13.75-.5.5-1.01.88-1.76,1.13-.38.13-1.13.25-1.76.25Zm-.13-2.64c.38,0,.75-.13,1.01-.25.38-.13.63-.38.88-.63.63-.63,1.26-1.01,2.01-1.38.75-.25,1.51-.5,2.39-.5s1.64.13,2.39.5c.75.25,1.38.75,2.01,1.38.25.25.5.38.88.63.38.13.63.25,1.01.25.75,0,1.38-.25,1.89-.75.5-.5.75-1.13.75-1.89,0-.38-.13-.75-.25-1.01-.13-.38-.38-.63-.63-.88l-4.78-4.65c-.25-.25-.38-.5-.5-.75s-.13-.63-.13-1.01v-12.45c0-.5.13-.88.25-1.26s.38-.75.63-1.01l4.53-4.53c.25-.25.5-.63.63-1.01s.25-.75.25-1.13c0-.63-.25-1.26-.63-1.64-.5-.5-1.01-.63-1.64-.63-.25,0-.5,0-.88.13-.25.13-.5.13-.75.38l-1.51,1.01c-.25.13-.38.25-.63.38-.25.13-.5.13-.75.13s-.5,0-.88-.13c-.25-.13-.5-.25-.75-.5-.5-.38-1.13-.75-1.89-.88-.75-.25-1.51-.38-2.26-.38-1.38,0-2.64.5-3.65,1.38-1.01.88-1.51,2.14-1.51,3.52,0,1.01.25,2.01.88,2.64.5.75,1.26,1.51,2.26,2.39l.88.75c.25-.88.5-1.76.88-2.52.38-.75.88-1.38,1.38-1.89.13-.13.25-.25.38-.25s.25-.13.38-.13c.38,0,.75.13.88.38.25.25.38.5.38.88,0,.13,0,.38-.13.5-.13.25-.25.38-.38.5l-.75,1.26c-.5.88-.75,2.14-.75,4.03v9.81c0,.38,0,.63-.13,1.01s-.25.63-.5.75l-4.78,4.78c-.25.25-.5.5-.63.88-.13.38-.25.63-.25,1.01,0,.75.25,1.38.75,1.89.38.63,1.01.88,1.76.88Z"/>
</svg>