<?xml version="1.0" encoding="UTF-8"?>
<svg id="Capa_1" data-name="Capa 1" xmlns="http://www.w3.org/2000/svg" viewBox="0 0 40 40">
  <defs>
    <style>
      .cls-1 {
        fill: none;
      }
    </style>
  </defs>
  <rect class="cls-1" width="40" height="40"/>
  <path d="m9.45,28.43c1.62,0,3.2.19,4.74.57,1.54.38,3.05.95,4.53,1.7V11.3c-1.36-.91-2.84-1.61-4.44-2.11-1.59-.5-3.21-.75-4.84-.75-1.15,0-2.28.14-3.39.43s-2.22.64-3.34,1.07v19.73c.94-.42,2.01-.73,3.2-.93s2.37-.3,3.52-.3Zm12,2.27c1.52-.76,3-1.33,4.45-1.7s3-.57,4.64-.57c1.15,0,2.34.09,3.57.27s2.28.42,3.16.73V9.93c-1.03-.52-2.12-.89-3.26-1.14-1.15-.24-2.3-.36-3.46-.36-1.64,0-3.22.25-4.75.75s-2.98,1.2-4.34,2.11v19.41Zm-1.36,3.59c-.23,0-.44-.02-.65-.07-.2-.05-.38-.13-.53-.25-1.42-.88-2.94-1.56-4.54-2.05-1.6-.48-3.24-.73-4.92-.73-1.11,0-2.19.14-3.26.41-1.07.27-2.13.61-3.19,1-.7.33-1.38.29-2.02-.14-.65-.42-.98-1.03-.98-1.82V9.61c0-.45.11-.87.32-1.25s.53-.67.95-.89c1.27-.61,2.6-1.05,3.97-1.34,1.38-.29,2.78-.43,4.21-.43,1.91,0,3.77.26,5.57.77s3.49,1.3,5.07,2.36c1.55-1.06,3.2-1.85,4.98-2.36s3.6-.77,5.48-.77c1.42,0,2.81.14,4.18.43,1.37.29,2.68.73,3.96,1.34.42.21.75.51.98.89s.34.8.34,1.25v21.05c0,.85-.34,1.49-1.02,1.93-.68.44-1.36.45-2.02.03-1.03-.42-2.08-.77-3.15-1.02-1.07-.26-2.16-.39-3.26-.39-1.64,0-3.25.24-4.82.73-1.57.48-3.05,1.17-4.45,2.05-.15.12-.33.2-.53.25-.2.05-.42.07-.65.07Z"/>
</svg>