<?xml version="1.0" encoding="UTF-8"?>
<svg id="Capa_1" data-name="Capa 1" xmlns="http://www.w3.org/2000/svg" viewBox="0 0 40 40">
  <defs>
    <style>
      .cls-1 {
        fill: none;
      }
    </style>
  </defs>
  <rect class="cls-1" width="40" height="40"/>
  <path d="m20.07,34.99l-10.77,4.64c-1.35.6-2.54.45-3.74-.3s-1.79-1.79-1.79-3.29V3.89c0-1.05.45-1.94,1.2-2.69s1.65-1.2,2.69-1.2h24.68c1.05,0,1.94.45,2.69,1.2s1.2,1.65,1.2,2.69v32.15c0,1.35-.6,2.54-1.79,3.29-1.2.75-2.39.9-3.74.3l-10.62-4.64Zm0-3.44l11.96,5.08c.3.15.45.15.75,0s.3-.3.3-.6V3.89c0-.15-.15-.3-.3-.6-.15-.15-.3-.3-.6-.3H7.81c-.15,0-.3.15-.6.3-.15.15-.3.3-.3.6v32c0,.3.15.45.3.6.3.15.45.15.75,0l12.11-4.94Zm0-28.41H7.06h26.17-13.16Z"/>
</svg>