<?xml version="1.0" encoding="UTF-8"?>
<svg id="Capa_1" data-name="Capa 1" xmlns="http://www.w3.org/2000/svg" viewBox="0 0 40 40">
  <defs>
    <style>
      .cls-1 {
        fill: none;
      }
    </style>
  </defs>
  <rect class="cls-1" width="40" height="40"/>
  <path d="m7,40c-.8,0-1.5-.3-2.1-.9s-.9-1.3-.9-2.1V3c0-.8.3-1.5.9-2.1S6.2,0,7,0h26C33.8,0,34.5.3,35.1.9s.9,1.3.9,2.1v34c0,.8-.3,1.5-.9,2.1s-1.3.9-2.1.9H7Zm0-3h26V3h-3v12.05c0,.27-.13.48-.38.63s-.51.16-.78.03l-3-1.75c-.24-.13-.48-.2-.73-.2s-.49.07-.72.2l-3,1.75c-.27.13-.52.13-.75-.03s-.35-.36-.35-.63V3H7v34Zm0,0V3v34Zm13.3-21.95c0,.27.12.48.35.63s.48.16.75.03l3-1.75c.24-.13.48-.2.73-.2s.51.07.77.2l2.95,1.75c.27.13.53.13.78-.03s.38-.36.38-.63c0,.31-.13.54-.38.68-.25.14-.51.13-.78-.03l-3-1.7c-.24-.17-.48-.25-.73-.25s-.49.08-.72.25l-3,1.7c-.27.17-.52.18-.75.03-.23-.14-.35-.37-.35-.68Z"/>
</svg>