<?xml version="1.0" encoding="UTF-8"?>
<svg id="Capa_1" data-name="Capa 1" xmlns="http://www.w3.org/2000/svg" viewBox="0 0 40 40">
  <defs>
    <style>
      .cls-1 {
        fill: none;
      }
    </style>
  </defs>
  <rect class="cls-1" width="40" height="40"/>
  <path d="m17.95,39.27c-1.93-1.33-3.99-2.54-6.04-3.38-2.18-.85-4.35-1.45-6.65-1.69-.73-.12-1.33-.36-1.69-.97-.48-.48-.73-1.09-.73-1.69v-15.11c0-.73.24-1.33.73-1.81s1.09-.6,1.81-.6c2.66.36,5.2,1.21,7.73,2.54,2.54,1.33,4.71,2.9,6.89,4.83,2.05-1.93,4.35-3.5,6.89-4.83s5.08-2.18,7.73-2.54c.73-.12,1.21.12,1.81.6s.73,1.09.73,1.81v15.23c0,.6-.24,1.21-.73,1.69s-1.09.85-1.69.97c-2.3.24-4.59.85-6.65,1.69-2.18.85-4.23,1.93-6.04,3.38-.48.36-1.21.6-1.81.6-1.21-.12-1.81-.36-2.3-.73Zm1.81-1.69c2.3-1.57,4.59-2.9,7.01-3.87,2.42-.97,4.95-1.57,7.49-1.93v-15.23c-2.42.36-4.95,1.33-7.37,2.66s-4.83,3.14-7.25,5.44c-2.42-2.3-4.95-4.23-7.25-5.56-2.42-1.33-4.83-2.18-7.25-2.54v15.11c2.54.24,5.08.97,7.49,1.93,2.54,1.09,4.83,2.3,7.13,3.99Zm.12-23.32c-1.93,0-3.63-.73-5.08-2.05-1.33-1.33-2.05-3.02-2.05-5.08,0-1.93.73-3.63,2.05-5.08,1.33-1.33,3.02-2.05,5.08-2.05,1.93,0,3.63.73,5.08,2.05,1.33,1.45,2.05,3.14,2.05,5.08s-.73,3.63-2.05,5.08c-1.45,1.33-3.14,2.05-5.08,2.05Zm0-2.54c1.21,0,2.3-.48,3.26-1.33.85-.85,1.33-1.93,1.33-3.26,0-1.21-.48-2.3-1.33-3.26-.85-.85-1.93-1.33-3.26-1.33s-2.3.48-3.26,1.33c-.85.85-1.33,1.93-1.33,3.26s.48,2.3,1.33,3.26c.85.85,1.93,1.33,3.26,1.33Z"/>
</svg>