<?xml version="1.0" encoding="UTF-8"?>
<svg id="Capa_1" data-name="Capa 1" xmlns="http://www.w3.org/2000/svg" viewBox="0 0 40 40">
  <defs>
    <style>
      .cls-1 {
        fill: none;
      }
    </style>
  </defs>
  <rect class="cls-1" x="0" width="40" height="40"/>
  <path d="m26.1,24.99c0,3.79-3.55,3.7-3.92,3.7h-7.22v-7.29h7.22c3.8,0,3.92,2.85,3.92,3.59Zm-4.48-6.53c.06,0,3.43.09,3.43-3.24,0-1.39-.31-3.2-3.43-3.2h-6.67v6.44h6.67Zm18.38-11.8v26.67c-.01,3.68-2.99,6.66-6.67,6.67H6.67c-3.68-.01-6.66-2.99-6.67-6.67V6.67C.01,2.99,2.99.01,6.67,0h26.67c3.68.01,6.66,2.99,6.67,6.67Zm-9.82,18.86c0-1.93-.59-5.2-4.38-6.01v-.07c2.05-.87,3.33-2.52,3.33-4.97,0-.62.18-5.78-6.93-5.78h-11.34v23.33c11.45,0,12.49.15,14.61-.51,1.27-.39,4.71-1.61,4.71-5.99Z"/>
</svg>