<?xml version="1.0" encoding="UTF-8"?>
<svg id="Capa_1" data-name="Capa 1" xmlns="http://www.w3.org/2000/svg" viewBox="0 0 40 40">
  <defs>
    <style>
      .cls-1 {
        fill: none;
      }
    </style>
  </defs>
  <rect class="cls-1" width="40" height="40"/>
  <path d="m0,36.47V3.67c0-.99.42-1.84,1.13-2.54S2.69,0,3.67,0h32.65C37.31,0,38.16.42,38.87,1.13s1.13,1.55,1.13,2.54v32.65c0,.99-.42,1.84-1.13,2.54s-1.55,1.13-2.54,1.13H3.67c-.99,0-1.84-.42-2.54-1.13-.71-.57-1.13-1.41-1.13-2.4Zm21.48-14.98v15.55h15.55v-15.55h-15.55Zm0-2.83h15.55V3.11h-15.55c0-.14,0,15.55,0,15.55Zm-2.83,0V3.11H3.11v15.55c-.14,0,15.55,0,15.55,0Zm0,2.83H3.11v15.55h15.55c0,.14,0-15.55,0-15.55Z"/>
</svg>