<?xml version="1.0" encoding="UTF-8"?>
<svg id="Capa_1" data-name="Capa 1" xmlns="http://www.w3.org/2000/svg" viewBox="0 0 40 40">
  <defs>
    <style>
      .cls-1 {
        fill: none;
      }
    </style>
  </defs>
  <rect class="cls-1" width="40" height="40"/>
  <path d="m0,40v-3.13h3.13v3.13H0Zm0-9.25v-3.13h3.13v3.13H0Zm0-9.25v-3.13h3.13v3.13H0Zm0-9.12v-3.13h3.13v3.13H0ZM0,3.13V0h3.13v3.13H0Zm9.25,36.87v-3.13h3.13v3.13h-3.13Zm0-18.5v-3.13h3.13v3.13h-3.13Zm0-18.37V0h3.13v3.13h-3.13Zm9.25,36.87v-3.13h3.13v3.13h-3.13Zm0-9.25v-3.13h3.13v3.13h-3.13Zm0-9.25v-3.13h3.13v3.13h-3.13Zm0-9.25v-3.13h3.13v3.13h-3.13Zm0-9.12V0h3.13v3.13h-3.13Zm9.12,36.87v-3.13h3.13v3.13h-3.13Zm0-18.5v-3.13h3.13v3.13h-3.13Zm0-18.37V0h3.13v3.13h-3.13Zm9.25,36.87v-3.13h3.13v3.13h-3.13Zm0-9.25v-3.13h3.13v3.13h-3.13Zm0-9.25v-3.13h3.13v3.13h-3.13Zm0-9.12v-3.13h3.13v3.13h-3.13Zm0-9.25V0h3.13v3.13h-3.13Z"/>
</svg>