<?xml version="1.0" encoding="UTF-8"?>
<svg id="Capa_1" data-name="Capa 1" xmlns="http://www.w3.org/2000/svg" viewBox="0 0 40 40">
  <defs>
    <style>
      .cls-1 {
        fill: none;
      }
    </style>
  </defs>
  <rect class="cls-1" width="40" height="40"/>
  <path d="m14.72,40c-1.89,0-3.49-.7-4.81-2.11s-2.06-3-2.25-4.78c-2.19-.19-4.01-1.1-5.47-2.75s-2.19-3.66-2.19-6.03c0-.81.1-1.6.31-2.36.2-.76.51-1.49.92-2.19-.41-.67-.71-1.37-.92-2.11-.2-.74-.31-1.54-.31-2.39,0-2.22.77-4.13,2.31-5.72s3.36-2.52,5.47-2.78c.07-1.89.79-3.49,2.14-4.81s2.97-1.97,4.86-1.97c1.07,0,2.03.19,2.86.58s1.62.95,2.36,1.69c.74-.74,1.52-1.31,2.33-1.69.81-.39,1.76-.58,2.83-.58,1.85,0,3.44.66,4.78,1.97s2.06,2.92,2.17,4.81c2.15.19,4,1.08,5.56,2.69s2.33,3.55,2.33,5.81c0,.85-.11,1.66-.33,2.42-.22.76-.54,1.47-.94,2.14.41.74.72,1.52.94,2.33s.33,1.61.33,2.39c0,2.37-.73,4.34-2.19,5.92s-3.29,2.45-5.47,2.64c-.19,1.78-.94,3.37-2.28,4.78s-2.93,2.11-4.78,2.11c-1.11,0-2.07-.19-2.89-.56-.81-.37-1.61-.93-2.39-1.67-.78.74-1.57,1.3-2.39,1.67-.81.37-1.78.56-2.89.56ZM21.67,6.67v26.67c0,.93.36,1.71,1.08,2.36s1.58.97,2.58.97,1.8-.43,2.5-1.28,1.09-1.72,1.17-2.61c-.85-.3-1.65-.69-2.39-1.19s-1.37-1.12-1.89-1.86c-.3-.41-.41-.82-.33-1.25s.31-.79.72-1.08.82-.41,1.25-.33.79.31,1.08.72c.48.67,1.07,1.18,1.78,1.53s1.48.53,2.33.53c1.41,0,2.61-.48,3.61-1.44s1.5-2.24,1.5-3.83c0-.33-.04-.68-.11-1.03s-.15-.71-.22-1.08c-.67.48-1.4.84-2.19,1.08s-1.62.36-2.47.36c-.48,0-.88-.16-1.19-.47s-.47-.71-.47-1.19.16-.88.47-1.19.71-.47,1.19-.47c1.41,0,2.59-.52,3.56-1.56.96-1.04,1.44-2.28,1.44-3.72s-.52-2.61-1.56-3.61-2.22-1.54-3.56-1.61c-.37.89-.9,1.68-1.58,2.36s-1.47,1.19-2.36,1.53c-.44.19-.87.18-1.28-.03s-.69-.53-.83-.97-.13-.88.06-1.31.5-.71.94-.86c.67-.22,1.21-.67,1.64-1.33s.64-1.43.64-2.28c0-1.07-.35-1.98-1.06-2.72s-1.54-1.11-2.5-1.11-1.8.32-2.5.97-1.06,1.44-1.06,2.36Zm-3.33,26.67V6.67c0-.93-.34-1.71-1.03-2.36s-1.53-.97-2.53-.97-1.81.37-2.53,1.11-1.08,1.65-1.08,2.72c0,.85.2,1.6.61,2.25s.94,1.08,1.61,1.31c.44.15.77.44.97.86s.23.84.08,1.25c-.19.44-.49.78-.92,1s-.86.24-1.31.06c-.89-.3-1.67-.79-2.33-1.47s-1.19-1.47-1.56-2.36c-1.3.11-2.45.66-3.47,1.64s-1.53,2.18-1.53,3.58.48,2.69,1.44,3.72c.96,1.04,2.15,1.56,3.56,1.56.48,0,.88.16,1.19.47s.47.71.47,1.19-.16.88-.47,1.19-.71.47-1.19.47c-.85,0-1.68-.13-2.47-.39s-1.53-.61-2.19-1.06c-.11.3-.19.61-.25.94s-.08.67-.08,1c0,1.59.49,2.9,1.47,3.92s2.18,1.53,3.58,1.53c.81,0,1.58-.19,2.31-.56s1.32-.87,1.81-1.5c.3-.37.67-.6,1.11-.69s.85,0,1.22.31.6.67.69,1.11,0,.85-.31,1.22c-.52.74-1.14,1.36-1.86,1.86s-1.51.9-2.36,1.19c.07.89.46,1.76,1.17,2.61s1.56,1.28,2.56,1.28,1.85-.32,2.56-.97,1.06-1.44,1.06-2.36Z"/>
</svg>