<?xml version="1.0" encoding="UTF-8"?>
<svg id="Capa_1" data-name="Capa 1" xmlns="http://www.w3.org/2000/svg" viewBox="0 0 40 40">
  <defs>
    <style>
      .cls-1 {
        fill: none;
      }
    </style>
  </defs>
  <rect class="cls-1" width="40" height="40"/>
  <path d="m7.5,38c-.87,0-1.58-.28-2.15-.85-.57-.57-.85-1.28-.85-2.15v-18.35c-1.3-.73-2.38-1.68-3.23-2.83S0,11.2,0,9.4C0,7.3.71,5.54,2.12,4.12c1.42-1.42,3.18-2.13,5.28-2.13h25.2c2.1,0,3.86.71,5.28,2.13s2.13,3.18,2.13,5.28c0,1.8-.43,3.28-1.28,4.43s-1.91,2.09-3.18,2.83v18.35c0,.87-.28,1.58-.85,2.15-.57.57-1.28.85-2.15.85H7.5Zm0-3h25.05V15.25l1.75-1.1c.77-.47,1.41-1.08,1.93-1.85s.78-1.73.78-2.9c0-1.23-.43-2.28-1.28-3.13s-1.89-1.28-3.13-1.28H7.4c-1.23,0-2.28.43-3.13,1.28s-1.28,1.89-1.28,3.13.25,2.18.75,2.93,1.17,1.38,2,1.88l1.75,1.05v19.75Zm11.45-3.45c.33.33.69.5,1.08.5s.74-.17,1.08-.5l8.5-8.5c.33-.33.5-.69.5-1.08s-.17-.74-.5-1.08l-8.5-8.5c-.27-.27-.63-.4-1.08-.4s-.81.13-1.08.4l-8.5,8.5c-.33.33-.5.69-.5,1.08s.17.74.5,1.08l8.5,8.5Zm1.05-3.05l-6.4-6.4,6.4-6.4,6.4,6.4-6.4,6.4Z"/>
</svg>