<?xml version="1.0" encoding="UTF-8"?>
<svg id="Capa_1" data-name="Capa 1" xmlns="http://www.w3.org/2000/svg" viewBox="0 0 40 40">
  <path d="m3,39c-.8,0-1.5-.3-2.1-.9S0,36.8,0,36V12C0,11.2.3,10.5.9,9.9s1.3-.9,2.1-.9h9V4c0-.8.3-1.5.9-2.1s1.3-.9,2.1-.9h10c.8,0,1.5.3,2.1.9s.9,1.3.9,2.1v5h9c.8,0,1.5.3,2.1.9s.9,1.3.9,2.1v24c0,.8-.3,1.5-.9,2.1s-1.3.9-2.1.9H3ZM15,9h10V4h-10v5Zm22,17.45h-12.45v1.51c0,.43-.14.78-.43,1.07s-.64.43-1.07.43h-6.01c-.43,0-.78-.14-1.06-.43s-.43-.64-.43-1.07v-1.5H3v9.55h34v-9.55Zm-18.45,0h3v-3h-3v3Zm-15.55-3h12.55v-1.51c0-.43.14-.78.43-1.07.29-.28.64-.43,1.07-.43h6.01c.43,0,.78.14,1.06.43s.43.64.43,1.07v1.5h12.45v-11.45H3v11.45Z"/>
</svg>