<?xml version="1.0" encoding="UTF-8"?>
<svg id="Capa_1" data-name="Capa 1" xmlns="http://www.w3.org/2000/svg" viewBox="0 0 40 40">
  <defs>
    <style>
      .cls-1 {
        fill: none;
      }
    </style>
  </defs>
  <rect class="cls-1" width="40" height="40"/>
  <path d="m10.68,24.72c-1.24-1.24-2.24-2.73-2.86-4.35s-.99-3.35-.99-4.84.37-3.23.99-4.84c.62-1.61,1.61-3.11,2.86-4.35l1.61,1.61c-.99.99-1.74,2.24-2.36,3.6-.5,1.37-.87,2.73-.87,4.1,0,1.24.25,2.61.87,3.98.5,1.37,1.37,2.61,2.36,3.73,0-.25-1.61,1.37-1.61,1.37Zm23.35,4.84l-1.61-1.61c1.74-1.74,2.98-3.6,3.85-5.84.87-2.24,1.37-4.35,1.37-6.58s-.5-4.35-1.37-6.58-2.11-4.22-3.85-5.96l1.61-1.61c1.99,1.99,3.48,4.22,4.47,6.58.99,2.48,1.49,4.97,1.49,7.45s-.5,4.97-1.37,7.45c-.99,2.48-2.48,4.72-4.6,6.71Zm-28.07,0c-1.99-1.99-3.48-4.22-4.47-6.58-.99-2.48-1.49-4.97-1.49-7.45s.5-4.97,1.49-7.45S3.98,3.48,5.96,1.49l1.61,1.49c-1.74,1.74-2.98,3.73-3.85,5.96-.87,2.24-1.24,4.35-1.24,6.58s.37,4.35,1.24,6.58,2.11,4.22,3.85,5.84l-1.61,1.61Zm23.35-4.84l-1.61-1.61c.99-.99,1.74-2.11,2.24-3.48s.87-2.73.87-4.1c0-1.24-.25-2.48-.87-3.98-.5-1.37-1.37-2.61-2.24-3.73l1.61-1.61c1.24,1.24,2.24,2.73,2.86,4.35s.99,3.35.99,4.84c0,1.61-.37,3.23-.99,4.84-.62,1.74-1.61,3.23-2.86,4.47Zm-18.26,13.91l6.46-19.5c-.62-.37-1.12-.87-1.37-1.49s-.5-1.37-.5-2.11c0-1.24.37-2.24,1.24-3.11s1.86-1.24,3.11-1.24,2.24.37,3.11,1.24,1.24,1.86,1.24,3.11c0,.75-.12,1.37-.5,2.11-.37.62-.87,1.12-1.49,1.49l6.46,19.5h-2.61l-1.37-4.35h-9.69l-1.37,4.35h-2.73Zm4.97-6.96h7.95l-3.98-12.05-3.98,12.05Z"/>
</svg>