<?xml version="1.0" encoding="UTF-8"?>
<svg id="Capa_1" data-name="Capa 1" xmlns="http://www.w3.org/2000/svg" viewBox="0 0 40 40">
  <defs>
    <style>
      .cls-1 {
        fill: none;
      }
    </style>
  </defs>
  <rect class="cls-1" width="40" height="40"/>
  <path d="m3.61,37.02v-9.4c0-2.41.92-4.58,2.64-6.3s3.78-2.64,6.3-2.64h2.64V4.81c0-1.38.46-2.52,1.38-3.44.92-.92,2.06-1.38,3.44-1.38s2.52.46,3.44,1.38c.92.92,1.38,2.06,1.38,3.44v13.87h2.64c2.41,0,4.58.92,6.3,2.64s2.64,3.78,2.64,6.3v9.4c0,.8-.34,1.49-.92,2.06s-1.26.92-2.06.92H6.59c-.8,0-1.49-.34-2.06-.92s-.92-1.26-.92-2.06Zm2.98.57h4.58v-6.42c0-.34.11-.57.34-.8s.57-.34.92-.34.57.11.8.34c.23.23.34.46.34.8v6.42h5.27v-6.42c0-.34.11-.57.34-.8.23-.23.57-.34.92-.34s.57.11.8.34c.23.23.34.46.34.8v6.42h5.16v-6.42c0-.34.11-.57.34-.8.23-.23.57-.34.92-.34s.57.11.8.34c.23.23.34.46.34.8v6.42h4.58c.11,0,.34,0,.46-.11.11-.11.11-.23.11-.46v-9.4c0-1.83-.57-3.32-1.83-4.58s-2.75-1.83-4.58-1.83h-15.01c-1.83,0-3.32.57-4.58,1.83s-1.83,2.75-1.83,4.58v9.4c0,.11,0,.34.11.46.11.11.23.11.34.11Z"/>
</svg>