<?xml version="1.0" encoding="UTF-8"?>
<svg id="Capa_1" data-name="Capa 1" xmlns="http://www.w3.org/2000/svg" viewBox="0 0 40 40">
  <defs>
    <style>
      .cls-1 {
        fill: none;
      }
    </style>
  </defs>
  <rect class="cls-1" width="40" height="40"/>
  <path d="m17.74,40c-.84,0-1.58-.31-2.21-.93s-.95-1.36-.95-2.23v-10.53H6.32c-.84,0-1.58-.32-2.21-.95s-.95-1.37-.95-2.21V7.21c0-1.93.7-3.61,2.09-5.05S8.31,0,10.26,0h26.58v23.16c0,.84-.32,1.58-.95,2.21s-1.37.95-2.21.95h-8.26v10.53c0,.87-.32,1.61-.95,2.23s-1.37.93-2.21.93h-4.53ZM6.32,15.05h27.37V3.16h-2.95v7.42c0,.45-.15.82-.46,1.12-.3.3-.68.45-1.13.45s-.82-.15-1.12-.45-.45-.68-.45-1.12V3.16h-3.74v2.89c0,.45-.15.82-.46,1.12-.3.3-.68.45-1.13.45s-.82-.15-1.12-.45-.45-.68-.45-1.12v-2.89h-10.42c-1.12,0-2.06.4-2.82,1.21s-1.13,1.75-1.13,2.84v7.84Zm0,8.11h27.37v-4.95H6.32v4.95Zm0-4.95v4.95-4.95Z"/>
</svg>