<?xml version="1.0" encoding="UTF-8"?>
<svg id="Capa_1" data-name="Capa 1" xmlns="http://www.w3.org/2000/svg" viewBox="0 0 40 40">
  <defs>
    <style>
      .cls-1 {
        fill: none;
      }
    </style>
  </defs>
  <rect class="cls-1" width="40" height="40"/>
  <path d="m20,40c-2.45,0-4.6-.58-6.62-1.73s-3.6-2.73-4.6-4.89H3.31c-.43,0-.72-.14-1.01-.43-.29-.29-.43-.72-.43-1.01,0-.43.14-.86.43-1.15.29-.29.58-.43,1.01-.43h4.03c-.29-1.15-.43-2.16-.43-3.31v-3.45h-3.6c-.43,0-.72-.14-1.01-.43-.29-.29-.43-.72-.43-1.01,0-.43.14-.86.43-1.01s.58-.43,1.15-.43h3.6v-3.6c0-1.15.14-2.3.58-3.45H3.31c-.43,0-.72-.14-1.01-.43s-.43-.72-.43-1.01c0-.43.14-.86.43-1.01.29-.29.58-.43,1.01-.43h5.47c.58-1.15,1.29-2.01,2.16-2.88s1.87-1.44,3.02-2.01l-3.45-3.45c-.29-.29-.43-.58-.43-1.01s.14-.72.43-1.01.58-.43,1.01-.43.72.14,1.01.43l4.32,4.32c1.01-.29,2.01-.43,3.17-.43,1.01,0,2.01.14,3.17.43L27.63.43c.29-.29.58-.43,1.01-.43s.72.14,1.01.43c.29.29.43.58.43,1.01s-.14.72-.43,1.01l-3.45,3.45c1.15.58,2.01,1.15,2.88,2.01.86.86,1.58,1.73,2.16,2.88h5.47c.43,0,.72.14,1.01.43s.43.72.43,1.01c0,.43-.14.86-.43,1.15s-.58.43-1.15.43h-4.17c.43,1.15.58,2.3.58,3.45v3.6h3.74c.43,0,.72.14,1.01.43.29.29.43.72.43,1.01,0,.43-.14.86-.43,1.15-.29.29-.58.43-1.15.43h-3.6v3.45c0,1.15-.14,2.3-.43,3.31h4.17c.43,0,.72.14,1.01.43.29.29.43.72.43,1.01,0,.43-.14.86-.43,1.01-.29.29-.58.43-1.15.43h-5.32c-1.01,2.16-2.59,3.74-4.6,4.89-2.01,1.01-4.17,1.58-6.62,1.58Zm0-3.02c2.73,0,5.18-1.01,7.05-2.88,2.01-2.01,2.88-4.32,2.88-7.05v-9.78c0-2.73-1.01-5.18-2.88-7.05-2.01-2.01-4.32-2.88-7.05-2.88s-5.18,1.01-7.05,2.88c-2.01,2.01-2.88,4.32-2.88,7.05v9.78c0,2.73,1.01,5.18,2.88,7.05,1.87,1.87,4.32,2.88,7.05,2.88Zm-2.88-8.49h5.9c.43,0,.72-.14,1.01-.43.29-.29.43-.58.43-1.01s-.14-.86-.43-1.15-.58-.43-1.15-.43h-5.9c-.43,0-.72.14-1.01.43-.29.29-.43.58-.43,1.15,0,.43.14.86.43,1.01.29.43.72.43,1.15.43Zm0-9.93h5.9c.43,0,.72-.14,1.01-.43.29-.29.43-.58.43-1.01s-.14-.86-.43-1.15-.58-.43-1.15-.43h-5.9c-.43,0-.72.14-1.01.43-.29.29-.43.58-.43,1.15,0,.43.14.86.43,1.01.29.29.72.43,1.15.43Zm2.88,3.45h0Z"/>
</svg>