<?xml version="1.0" encoding="UTF-8"?>
<svg id="Capa_1" data-name="Capa 1" xmlns="http://www.w3.org/2000/svg" viewBox="0 0 40 40">
  <defs>
    <style>
      .cls-1 {
        fill: none;
      }
    </style>
  </defs>
  <rect class="cls-1" width="40" height="40"/>
  <path d="m2.88,40c-.82,0-1.51-.27-2.05-.82-.55-.55-.82-1.23-.82-2.05V12.19c0-.82.27-1.51.82-2.05s1.23-.82,2.05-.82h6.44V2.88c0-.82.27-1.51.82-2.05C10.68.27,11.37,0,12.19,0h15.62C28.63,0,29.32.27,29.86.82s.82,1.23.82,2.05v15.62h6.44c.82,0,1.51.27,2.05.82s.82,1.23.82,2.05v15.62c0,.82-.27,1.51-.82,2.05-.55.55-1.23.82-2.05.82h-13.97v-9.32h-6.44v9.32c.14.14-13.84.14-13.84.14Zm0-2.88h6.44v-6.44H2.88v6.44Zm0-9.32h6.44v-6.44H2.88v6.44Zm0-9.18h6.44v-6.44H2.88v6.44Zm9.32,9.18h6.44v-6.44h-6.44v6.44Zm0-9.18h6.44v-6.44h-6.44v6.44Zm0-9.32h6.44V2.88h-6.44v6.44Zm9.18,18.49h6.44v-6.44h-6.44v6.44Zm0-9.18h6.44v-6.44h-6.44v6.44Zm0-9.32h6.44V2.88h-6.44v6.44Zm9.32,27.81h6.44v-6.44h-6.44v6.44Zm0-9.32h6.44v-6.44h-6.44v6.44Z"/>
</svg>