<?xml version="1.0" encoding="UTF-8"?>
<svg id="Capa_1" data-name="Capa 1" xmlns="http://www.w3.org/2000/svg" viewBox="0 0 40 40">
  <defs>
    <style>
      .cls-1 {
        fill: none;
      }
    </style>
  </defs>
  <rect class="cls-1" width="40" height="40"/>
  <path d="m38.49,21.51h-5.43c-.45,0-.91-.15-1.06-.45-.3-.3-.45-.6-.45-1.06s.15-.91.45-1.06c.3-.3.6-.45,1.06-.45h5.43c.45,0,.91.15,1.06.45.3.3.45.6.45,1.21,0,.45-.15.91-.45,1.06-.3.15-.6.3-1.06.3Zm-10.72,10.87c.3-.3.6-.6,1.06-.6.45-.15.75,0,1.21.3l4.53,3.32c.3.3.6.6.6,1.06s0,.75-.3,1.21c-.3.3-.6.6-1.06.6-.45.15-.75,0-1.21-.3l-4.53-3.32c-.3-.3-.6-.6-.6-1.06-.15-.45,0-.91.3-1.21Zm6.49-27.92l-4.53,3.32c-.3.3-.75.3-1.21.3-.45-.15-.75-.3-1.06-.6-.15-.3-.15-.75-.15-1.06,0-.45.3-.75.6-1.06l4.53-3.32c.3-.3.75-.45,1.21-.3s.75.3,1.06.6c.15.3.3.75.15,1.21,0,.3-.15.75-.6.91ZM9.36,26.34H1.96c-.6,0-1.06-.15-1.36-.6-.3-.3-.6-.91-.6-1.36v-8.6c0-.6.15-1.06.6-1.36.3-.3.91-.6,1.36-.6h7.4l8-8c.45-.45,1.06-.6,1.81-.3.6.3,1.06.75,1.06,1.51v26.42c0,.75-.3,1.21-1.06,1.51-.6.3-1.21.15-1.81-.3l-8-8.3Zm7.7-15.55l-6.19,6.04H3.17v6.19h7.55l6.19,6.19c.15,0,.15-18.42.15-18.42Z"/>
</svg>