<?xml version="1.0" encoding="UTF-8"?>
<svg id="Capa_1" data-name="Capa 1" xmlns="http://www.w3.org/2000/svg" viewBox="0 0 40 40">
  <defs>
    <style>
      .cls-1 {
        fill: none;
      }
    </style>
  </defs>
  <rect class="cls-1" width="40" height="40"/>
  <path d="m20,40c-2.78,0-5.32-.51-7.85-1.52-2.41-1.01-4.56-2.53-6.33-4.3-1.77-1.77-3.29-3.92-4.3-6.33s-1.52-5.06-1.52-7.85.51-5.32,1.52-7.85c1.01-2.41,2.53-4.56,4.3-6.33,1.77-1.77,3.92-3.29,6.33-4.3S17.22,0,20,0s5.32.51,7.85,1.52c2.41,1.01,4.56,2.53,6.33,4.3,1.77,1.77,3.29,3.92,4.3,6.33,1.01,2.41,1.52,5.06,1.52,7.85s-.51,5.32-1.52,7.85c-1.01,2.41-2.53,4.56-4.3,6.33-1.77,1.77-3.92,3.29-6.33,4.3-2.41,1.01-5.06,1.52-7.85,1.52Zm0-2.66c4.81,0,8.99-1.65,12.28-5.06,3.42-3.42,5.06-7.47,5.06-12.28s-1.65-8.99-5.06-12.28c-3.42-3.42-7.47-5.06-12.28-5.06s-8.99,1.65-12.28,5.06c-3.42,3.42-5.06,7.47-5.06,12.28s1.65,8.99,5.06,12.28c3.29,3.42,7.47,5.06,12.28,5.06Zm0-5.7c-3.16,0-5.95-1.14-8.23-3.42-2.28-2.28-3.42-4.94-3.42-8.23s1.14-5.95,3.42-8.23c2.28-2.28,4.94-3.42,8.23-3.42s5.95,1.14,8.23,3.42,3.42,4.94,3.42,8.23-1.14,5.95-3.42,8.23c-2.28,2.28-5.06,3.42-8.23,3.42Zm0-2.66c2.53,0,4.56-.89,6.33-2.66s2.66-3.8,2.66-6.33-.89-4.56-2.66-6.33-3.8-2.66-6.33-2.66-4.56.89-6.33,2.66c-1.77,1.77-2.66,3.8-2.66,6.33s.89,4.56,2.66,6.33c1.77,1.77,3.8,2.66,6.33,2.66Zm0-5.82c-.89,0-1.65-.25-2.28-.89s-.89-1.39-.89-2.28.25-1.65.89-2.28,1.39-.89,2.28-.89,1.65.25,2.28.89.89,1.39.89,2.28-.25,1.65-.89,2.28-1.39.89-2.28.89Z"/>
</svg>