<?xml version="1.0" encoding="UTF-8"?>
<svg id="Capa_1" data-name="Capa 1" xmlns="http://www.w3.org/2000/svg" viewBox="0 0 40 40">
  <defs>
    <style>
      .cls-1 {
        fill: none;
      }
    </style>
  </defs>
  <rect class="cls-1" width="40" height="40"/>
  <path d="m20,40c-4.95,0-9.05-1.7-12.59-5.09-3.39-3.39-5.09-7.64-5.09-12.59,0-4.1,1.13-8.06,3.54-11.88C8.26,6.62,11.51,3.23,15.62.4c.71-.42,1.41-.57,2.12-.14.71.42,1.13,1.13,1.13,1.84v2.55c0,1.41.57,2.69,1.7,3.82,1.13,1.13,2.55,1.56,4.1,1.56.71,0,1.41-.14,2.12-.42s1.27-.71,1.84-1.13c.28-.28.71-.42.99-.57.42-.14.71,0,1.13.28,2.12,1.7,3.82,3.68,5.09,6.22,1.27,2.55,1.84,5.09,1.84,7.92,0,4.95-1.7,9.05-5.09,12.59-3.54,3.39-7.64,5.09-12.59,5.09ZM5.29,22.32c0,2.55.71,4.95,1.98,7.21s2.97,3.96,5.23,5.23c-.28-.42-.42-.99-.57-1.41-.14-.42-.14-.99-.14-1.41,0-1.13.14-2.12.57-3.11.42-.99.99-1.84,1.84-2.69l5.8-5.66,5.8,5.66c.85.85,1.41,1.7,1.84,2.69.42.99.57,1.98.57,3.11,0,.57,0,.99-.14,1.41s-.28.99-.57,1.41c2.26-1.27,3.96-3.11,5.23-5.23,1.27-2.26,1.98-4.67,1.98-7.21,0-1.98-.42-3.96-1.27-5.94-.85-1.84-1.98-3.54-3.54-5.09-.85.57-1.7.99-2.55,1.27-.85.28-1.84.42-2.69.42-2.4,0-4.53-.85-6.22-2.4-1.7-1.56-2.55-3.68-2.69-6.08v-.57c-3.39,2.55-5.94,5.52-7.78,8.77-1.7,3.25-2.69,6.51-2.69,9.62Zm14.71,2.26l-3.82,3.68c-.42.42-.85.99-1.13,1.7-.28.57-.42,1.27-.42,1.98,0,1.41.57,2.69,1.56,3.68s2.26,1.56,3.82,1.56c1.41,0,2.69-.57,3.82-1.56.99-.99,1.56-2.26,1.56-3.68,0-.71-.14-1.41-.42-1.98s-.71-1.13-1.13-1.56l-3.82-3.82Z"/>
</svg>