<?xml version="1.0" encoding="UTF-8"?>
<svg id="Capa_1" data-name="Capa 1" xmlns="http://www.w3.org/2000/svg" viewBox="0 0 40 40">
  <defs>
    <style>
      .cls-1 {
        fill: none;
      }
    </style>
  </defs>
  <rect class="cls-1" width="40" height="40"/>
  <path d="m8.5,40c-.53,0-.93-.13-1.33-.53-.4-.4-.53-.8-.53-1.33v-3.85c-.93-.4-1.59-1.2-2.26-2.26-.66-1.06-.93-2.26-.93-3.46V7.31c0-2.52,1.33-4.39,3.99-5.58,2.66-1.2,6.91-1.73,12.62-1.73s10.1.53,12.62,1.73c2.66,1.2,3.85,3.06,3.85,5.58v21.13c0,1.33-.27,2.39-.93,3.46-.66,1.06-1.46,1.86-2.26,2.26v3.85c0,.53-.13.93-.53,1.33s-.8.53-1.33.53-.93-.13-1.33-.53c-.4-.4-.53-.8-.53-1.33v-2.66H10.37v2.66c0,.53-.13.93-.53,1.33-.4.4-.8.66-1.33.66ZM19.93,6.11h13.69H6.25h13.69Zm9.3,15.28H6.11h27.64-4.52Zm-23.12-2.79h27.64v-9.7H6.11v9.7Zm5.71,11.16c.8,0,1.46-.27,1.99-.8s.8-1.2.8-1.99-.27-1.46-.8-1.99c-.53-.53-1.2-.8-1.99-.8s-1.46.27-1.99.8-.8,1.2-.8,1.99.27,1.46.8,1.99,1.2.8,1.99.8Zm16.21,0c.8,0,1.46-.27,1.99-.8s.8-1.2.8-1.99-.27-1.46-.8-1.99-1.2-.8-1.99-.8-1.46.27-1.99.8-.8,1.2-.8,1.99.27,1.46.8,1.99c.66.53,1.2.8,1.99.8ZM6.25,6.11h27.38c-.66-1.06-2.13-1.86-4.25-2.39-2.26-.53-5.32-.8-9.44-.8-4.39,0-7.57.27-9.7.8-2.13.53-3.46,1.33-3.99,2.39Zm4.39,26.58h18.6c1.2,0,2.26-.4,3.19-1.33.93-.93,1.33-1.99,1.33-3.32v-6.64H6.11v6.64c0,1.2.4,2.39,1.33,3.32.8.8,1.86,1.33,3.19,1.33Z"/>
</svg>