<?xml version="1.0" encoding="UTF-8"?>
<svg id="Capa_1" data-name="Capa 1" xmlns="http://www.w3.org/2000/svg" viewBox="0 0 40 40">
  <defs>
    <style>
      .cls-1 {
        fill: none;
      }
    </style>
  </defs>
  <rect class="cls-1" width="40" height="40"/>
  <path d="m2.53,33.13V10v22.41-.36,1.08Zm.6,2.53c-.84,0-1.57-.36-2.17-.96s-.96-1.33-.96-2.17V10.6c0-.84.36-1.57.96-2.17s1.33-.96,2.17-.96h8.92v-3.86c0-.84.36-1.57.96-2.17.48-.6,1.33-.96,2.17-.96h7.83c.84,0,1.57.36,2.17.96s.96,1.33.96,2.17v3.86h8.92c.84,0,1.57.36,2.17.96s.96,1.33.96,2.17v9.88c-.36-.24-.84-.48-1.2-.72s-.84-.48-1.33-.6v-8.43c0-.12,0-.36-.12-.48-.12-.12-.24-.12-.48-.12H3.13c-.12,0-.36,0-.48.12s-.12.24-.12.48v21.81c0,.12,0,.36.12.48.12.12.24.12.48.12h15.78c.12.48.24.84.36,1.33.12.36.36.84.48,1.2H3.13ZM14.58,7.47h9.04v-3.86c0-.12,0-.36-.12-.48s-.24-.12-.48-.12h-7.83c-.12,0-.36,0-.48.12s-.12.24-.12.48v3.86Zm16.51,32.05c-2.41,0-4.58-.84-6.27-2.65-1.69-1.69-2.65-3.86-2.65-6.27s.84-4.58,2.65-6.27c1.69-1.69,3.86-2.65,6.27-2.65s4.58.84,6.27,2.65c1.69,1.69,2.65,3.86,2.65,6.27s-.84,4.58-2.65,6.27c-1.69,1.69-3.86,2.65-6.27,2.65Zm.84-9.16v-4.94c0-.24-.12-.48-.24-.6-.24-.24-.48-.24-.72-.24s-.48.12-.6.24-.24.36-.24.6v4.94c0,.24,0,.36.12.6s.24.36.36.48l3.37,3.25c.12.12.36.24.6.24s.48-.12.6-.24c.24-.12.24-.36.24-.6s-.12-.48-.24-.6l-3.25-3.13Z"/>
</svg>