<?xml version="1.0" encoding="UTF-8"?>
<svg id="Capa_1" data-name="Capa 1" xmlns="http://www.w3.org/2000/svg" viewBox="0 0 40 40">
  <defs>
    <style>
      .cls-1 {
        fill: none;
      }
    </style>
  </defs>
  <rect class="cls-1" width="40" height="40"/>
  <path d="m10.78,29.11v3.5c0,.4.13.73.4,1,.26.26.6.39,1,.39s.73-.13.99-.39c.26-.26.39-.59.39-1v-3.5h3.5c.4,0,.73-.13,1-.4.26-.26.39-.6.39-1s-.13-.73-.39-.99c-.26-.26-.59-.39-1-.39h-3.5v-3.5c0-.4-.13-.73-.4-1-.26-.26-.6-.39-1-.39s-.73.13-.99.39c-.26.26-.39.59-.39,1v3.5h-3.5c-.4,0-.73.13-1,.4-.26.26-.39.6-.39,1s.13.73.39.99c.26.26.59.39,1,.39h3.5Zm13.33,2.94h8.44c.39,0,.7-.13.96-.4.25-.26.38-.6.38-1s-.12-.73-.36-.97-.56-.36-.97-.36h-8.5c-.39,0-.7.12-.96.36s-.38.56-.38.97.13.74.39,1c.26.26.59.4,1,.4Zm0-5.94h8.39c.4,0,.73-.13,1-.4.26-.26.39-.6.39-1s-.13-.73-.39-.99c-.26-.26-.59-.39-1-.39h-8.39c-.4,0-.73.13-1,.4-.26.26-.39.6-.39,1s.13.73.39.99c.26.26.59.39,1,.39Zm4.06-12.44l2.39,2.39c.28.3.61.44.99.44s.71-.15,1.01-.44.44-.63.44-1-.15-.7-.44-1l-2.39-2.39,2.39-2.39c.3-.28.44-.61.44-.99s-.15-.71-.44-1.01-.63-.44-1.01-.44-.71.15-.99.44l-2.39,2.39-2.39-2.39c-.28-.3-.61-.44-.99-.44s-.71.15-1.01.44-.44.63-.44,1.01.15.71.44.99l2.39,2.39-2.39,2.39c-.3.29-.44.62-.44,1s.15.71.44,1c.28.3.61.44.99.44s.71-.15,1.01-.44l2.39-2.39Zm-20.06-.61h8.11c.4,0,.73-.13,1-.4.26-.26.39-.6.39-1s-.13-.73-.39-.99c-.26-.26-.59-.39-1-.39h-8.11c-.4,0-.73.13-1,.4-.26.26-.39.6-.39,1s.13.73.39.99c.26.26.59.39,1,.39Zm-4.78,26.94c-.89,0-1.67-.33-2.33-1S0,37.56,0,36.67V3.33C0,2.44.33,1.67,1,1S2.44,0,3.33,0h33.33c.89,0,1.67.33,2.33,1s1,1.44,1,2.33v33.33c0,.89-.33,1.67-1,2.33s-1.44,1-2.33,1H3.33Zm0-3.33h33.33V3.33H3.33v33.33ZM3.33,3.33v33.33V3.33Z"/>
</svg>