<?xml version="1.0" encoding="UTF-8"?>
<svg id="Capa_1" data-name="Capa 1" xmlns="http://www.w3.org/2000/svg" viewBox="0 0 40 40">
  <defs>
    <style>
      .cls-1 {
        fill: none;
      }
    </style>
  </defs>
  <rect class="cls-1" width="40" height="40"/>
  <path d="m11.3,24.3c-.57,0-1.04-.19-1.43-.58s-.58-.86-.58-1.43.19-1.04.58-1.43.86-.58,1.43-.58,1.04.19,1.43.58.58.86.58,1.43-.19,1.04-.58,1.43-.86.58-1.43.58Zm8.85,0c-.57,0-1.04-.19-1.43-.58s-.58-.86-.58-1.43.19-1.04.58-1.43.86-.58,1.43-.58,1.04.19,1.43.58c.38.38.58.86.58,1.43s-.19,1.04-.58,1.43c-.38.38-.86.58-1.43.58Zm8.5,0c-.57,0-1.04-.19-1.43-.58s-.58-.86-.58-1.43.19-1.04.58-1.43.86-.58,1.43-.58,1.04.19,1.43.58.58.86.58,1.43-.19,1.04-.58,1.43-.86.58-1.43.58Zm-23.65,15.7c-.8,0-1.5-.3-2.1-.9s-.9-1.3-.9-2.1V6c0-.8.3-1.5.9-2.1s1.3-.9,2.1-.9h3.25v-1.4c0-.45.15-.83.46-1.14C9.02.15,9.4,0,9.85,0s.86.15,1.18.46c.32.31.47.69.47,1.14v1.4h17v-1.4c0-.45.15-.83.46-1.14C29.27.15,29.65,0,30.1,0s.86.15,1.18.46c.32.31.47.69.47,1.14v1.4h3.25c.8,0,1.5.3,2.1.9s.9,1.3.9,2.1v31c0,.8-.3,1.5-.9,2.1s-1.3.9-2.1.9H5Zm0-3h30V15.5H5v21.5Zm0-24.5h30v-6.5H5v6.5Zm0,0v-6.5,6.5Z"/>
</svg>