<?xml version="1.0" encoding="UTF-8"?>
<svg id="Capa_1" data-name="Capa 1" xmlns="http://www.w3.org/2000/svg" viewBox="0 0 40 40">
  <defs>
    <style>
      .cls-1 {
        fill: none;
      }
    </style>
  </defs>
  <rect class="cls-1" width="40" height="40"/>
  <path d="m5.47,40c-.88,0-1.64-.38-2.26-1.01s-1.01-1.38-1.01-2.26V7.17c0-.88.38-1.64,1.01-2.26s1.38-1.01,2.26-1.01h3.52V1.38c0-.38.13-.75.38-1.01.38-.25.75-.38,1.13-.38s.75.13,1.01.38c.25.25.38.63.38,1.01v2.52h16.35V1.38c0-.38.13-.75.38-1.01.38-.25.63-.38,1.01-.38s.75.13,1.01.38c.25.25.38.63.38,1.01v2.52h3.52c.88,0,1.64.38,2.26,1.01s1.01,1.38,1.01,2.26v29.56c0,.88-.38,1.64-1.01,2.26s-1.38,1.01-2.26,1.01c.13,0-29.06,0-29.06,0Zm0-2.64h29.06c.13,0,.25-.13.5-.25.13-.13.25-.25.25-.5v-20.25H4.84v20.38c0,.13.13.25.25.5.13.13.25.13.38.13Zm-.63-23.65h30.31v-6.54c0-.13-.13-.25-.25-.5-.13-.13-.25-.25-.5-.25H5.47c-.13,0-.25.13-.5.25,0,.25-.13.38-.13.5v6.54Zm0,0v-7.17,7.17Z"/>
</svg>