<?xml version="1.0" encoding="UTF-8"?>
<svg id="Capa_1" data-name="Capa 1" xmlns="http://www.w3.org/2000/svg" viewBox="0 0 40 40">
  <defs>
    <style>
      .cls-1 {
        fill: none;
      }
    </style>
  </defs>
  <rect class="cls-1" width="40" height="40"/>
  <path d="m30,34h-4.5c-.43,0-.78-.14-1.07-.43-.29-.29-.43-.65-.43-1.08s.14-.78.43-1.07c.29-.28.64-.43,1.07-.43h4.5v-4.5c0-.43.14-.78.43-1.07.29-.29.65-.43,1.08-.43s.78.14,1.07.43.43.64.43,1.07v4.5h4.5c.43,0,.78.14,1.07.43.29.29.43.65.43,1.08s-.14.78-.43,1.07-.64.43-1.07.43h-4.5v4.5c0,.43-.14.78-.43,1.07-.29.29-.65.43-1.08.43s-.78-.14-1.07-.43-.43-.64-.43-1.07v-4.5Zm-26,2c-.8,0-1.5-.3-2.1-.9s-.9-1.3-.9-2.1V6c0-.8.3-1.5.9-2.1s1.3-.9,2.1-.9h3.25v-1.4c0-.45.15-.83.46-1.14C8.02.15,8.4,0,8.85,0s.86.15,1.18.46c.32.31.47.69.47,1.14v1.4h13v-1.4c0-.45.15-.83.46-1.14C24.27.15,24.65,0,25.1,0s.86.15,1.18.46c.32.31.47.69.47,1.14v1.4h3.25c.8,0,1.5.3,2.1.9s.9,1.3.9,2.1v15.1c-.5-.07-1-.1-1.5-.1s-1,.03-1.5.1v-5.6H4v17.5h16c0,.5.05,1,.15,1.5s.23,1,.4,1.5H4Zm0-23.5h26v-6.5H4v6.5Zm0,0v-6.5,6.5Z"/>
</svg>