<?xml version="1.0" encoding="UTF-8"?>
<svg id="Capa_1" data-name="Capa 1" xmlns="http://www.w3.org/2000/svg" viewBox="0 0 40 40">
  <defs>
    <style>
      .cls-1 {
        fill: none;
      }
    </style>
  </defs>
  <rect class="cls-1" width="40" height="40"/>
  <path d="m19.97,30.65c2.42,0,4.44-.82,6.08-2.45s2.45-3.66,2.45-6.08-.82-4.43-2.45-6.05-3.66-2.43-6.08-2.43-4.43.81-6.05,2.43-2.43,3.63-2.43,6.05.81,4.44,2.43,6.08,3.63,2.45,6.05,2.45Zm0-3c-1.58,0-2.89-.53-3.93-1.58s-1.55-2.37-1.55-3.95.52-2.89,1.55-3.93c1.03-1.03,2.34-1.55,3.93-1.55s2.9.52,3.95,1.55c1.05,1.03,1.58,2.34,1.58,3.93s-.53,2.9-1.58,3.95-2.37,1.58-3.95,1.58ZM3,38c-.8,0-1.5-.3-2.1-.9S0,35.8,0,35V9.35C0,8.58.3,7.89.9,7.27s1.3-.93,2.1-.93h7.35l2.75-3.3c.27-.37.6-.63,1-.8s.83-.25,1.3-.25h9.2c.47,0,.9.08,1.3.25s.73.43,1,.8l2.75,3.3h7.35c.77,0,1.46.31,2.08.93s.93,1.31.93,2.08v25.65c0,.8-.31,1.5-.93,2.1s-1.31.9-2.08.9H3Zm0-3h34V9.35h-8.75l-3.65-4.35h-9.2l-3.65,4.35H3v25.65Z"/>
</svg>