<?xml version="1.0" encoding="UTF-8"?>
<svg id="Capa_1" data-name="Capa 1" xmlns="http://www.w3.org/2000/svg" viewBox="0 0 40 40">
  <defs>
    <style>
      .cls-1 {
        fill: none;
      }
    </style>
  </defs>
  <rect class="cls-1" y="0" width="40" height="40"/>
  <path d="m39.87,30.59c-.13-.25-.25-.63-.51-.89L21.65,5.78l2.15-2.91c.19-.29.24-.5.25-.75,0-.04.02-.08.02-.12,0-.04-.02-.07-.02-.1,0-.02,0-.03,0-.05,0-.12-.03-.23-.08-.33-.02-.05-.04-.09-.07-.13-.02-.03-.03-.05-.05-.08-.24-.38-.64-.65-1.12-.65-.23,0-.44.08-.63.18-.05.03-.09.06-.14.09-.09.06-.16.12-.23.2-.03.03-.06.05-.08.08l-1.65,2.28-1.65-2.28h-.02c-.24-.32-.61-.55-1.05-.55-.73,0-1.32.59-1.32,1.32,0,.28.11.52.25.73h-.02s2.15,3.05,2.15,3.05L.63,29.71c-.25.25-.38.51-.51.89-.13.25-.13.63-.13,1.01v6.08c0,.51,0,.85.39,1.28.39.4.75.37,1.26.37h36.71c.38,0,.81,0,1.24-.47.41-.49.41-.67.41-1.17v-6.08c0-.38,0-.63-.13-1.01Zm-26.71,6.2l6.84-9.75,6.96,9.75h-13.8Zm24.18-.13h-7.22l-8.88-12.47s0,0,0,0c-.24-.4-.68-.68-1.18-.68-.54,0-1,.31-1.22.76-.03.04-.07.07-.1.12l-8.86,12.28H2.66v-5.32L20,7.94l17.34,23.42v5.32Z"/>
</svg>