<?xml version="1.0" encoding="UTF-8"?>
<svg id="Capa_1" data-name="Capa 1" xmlns="http://www.w3.org/2000/svg" viewBox="0 0 40 40">
  <defs>
    <style>
      .cls-1 {
        fill: none;
      }
    </style>
  </defs>
  <rect class="cls-1" y="0" width="40" height="40"/>
  <path d="m12.07,40c-3.37,0-6.18-1.12-8.56-3.51-2.25-2.39-3.51-5.19-3.51-8.56,0-1.54.28-3.09.98-4.63.56-1.4,1.54-2.81,2.67-3.93L19.37,3.65c1.12-1.12,2.39-1.96,3.93-2.67C24.7.42,26.25,0,27.93,0,31.3,0,34.11,1.12,36.49,3.51c2.39,2.39,3.51,5.19,3.51,8.56,0,1.54-.28,3.09-.98,4.63s-1.54,2.81-2.67,3.93l-15.86,15.86c-1.12,1.12-2.39,1.96-3.93,2.67-1.4.42-2.95.84-4.49.84Zm15.3-14.6l6.88-6.74c.84-.84,1.54-1.82,1.96-2.95.42-1.12.7-2.25.7-3.51,0-2.53-.84-4.63-2.67-6.46s-3.93-2.67-6.46-2.67c-1.26,0-2.39.28-3.51.7s-2.11,1.12-2.95,1.96l-6.74,6.88,12.77,12.77Zm-15.3,11.65c1.12,0,2.39-.28,3.51-.7s2.11-1.12,2.95-1.96l6.74-6.88-12.77-12.77-6.88,6.74c-.84.84-1.54,1.82-1.96,2.95-.42,1.12-.7,2.25-.7,3.51,0,2.53.84,4.63,2.67,6.46,1.82,1.68,3.93,2.67,6.46,2.67Z"/>
</svg>