<?xml version="1.0" encoding="UTF-8"?>
<svg id="Capa_1" data-name="Capa 1" xmlns="http://www.w3.org/2000/svg" viewBox="0 0 40 40">
  <defs>
    <style>
      .cls-1 {
        fill: none;
      }
    </style>
  </defs>
  <rect class="cls-1" y="0" width="40" height="40"/>
  <path d="m30.67,19.74c-2.56,0-4.86-.89-6.65-2.68s-2.68-4.09-2.68-6.65.89-4.73,2.68-6.65c1.79-1.79,4.09-2.68,6.65-2.68s4.86.89,6.65,2.68c1.79,1.79,2.68,3.96,2.68,6.65s-.89,4.86-2.68,6.65c-1.92,1.66-4.09,2.68-6.65,2.68Zm-.89-8.82c0,.26.13.51.26.64s.38.26.64.26.51-.13.64-.26c.13-.13.26-.38.26-.64v-5.24c0-.26-.13-.38-.26-.64-.13-.13-.38-.26-.64-.26s-.51.13-.64.26-.26.38-.26.64v5.24ZM1.28,38.91c-.38,0-.64-.13-.89-.38s-.38-.51-.38-.89v-16.49l4.35-12.78c.13-.51.38-.77.64-1.02.38-.26.77-.38,1.15-.38h10.61c-.13.38-.26.89-.26,1.28s-.13.89-.13,1.41H6.52l-3.07,8.82h15.46c.38.51.64,1.02,1.15,1.41l1.28,1.28H2.56v10.73h30.8v-7.67c.51-.13.89-.26,1.41-.38s.89-.26,1.28-.51v14.19c0,.38-.13.64-.38.89s-.51.38-.89.38h-.77c-.38,0-.77-.13-.89-.38-.26-.26-.38-.51-.38-.89v-3.07H3.32v3.07c0,.38-.13.64-.38.89s-.51.38-.89.38c0,.13-.77.13-.77.13Zm29.39-22.88c.26,0,.51-.13.77-.26.26-.26.26-.51.38-.77,0-.26-.13-.51-.38-.77-.26-.26-.51-.26-.77-.26-.38,0-.64.13-.77.38-.26.26-.26.51-.26.77s.13.51.26.77c.26,0,.51.13.77.13ZM7.92,29.2c.77,0,1.41-.26,1.92-.77s.77-1.15.77-1.92-.26-1.41-.77-1.92c-.51-.51-1.15-.77-1.92-.77s-1.41.26-1.92.77-.77,1.15-.77,1.92.26,1.41.77,1.92c.64.51,1.28.77,1.92.77Zm20.19,0c.77,0,1.41-.26,1.92-.77s.77-1.15.77-1.92c0-.38-.13-.77-.26-1.15s-.51-.64-.77-.89c-.38,0-.89-.13-1.28-.13-.38-.13-.77-.13-1.15-.26-.51.13-.89.51-1.28.89-.38.51-.51,1.02-.51,1.53,0,.77.26,1.41.77,1.92.38.51,1.02.77,1.79.77Zm-25.56,2.68v-10.73,10.73Z"/>
</svg>