<?xml version="1.0" encoding="UTF-8"?>
<svg id="Capa_1" data-name="Capa 1" xmlns="http://www.w3.org/2000/svg" viewBox="0 0 40 40">
  <defs>
    <style>
      .cls-1 {
        fill: none;
      }
    </style>
  </defs>
  <rect class="cls-1" y="0" width="40" height="40"/>
  <path d="m3.96,32.86v2.97c0,.57-.14.99-.57,1.27-.42.42-.85.57-1.41.57s-.99-.14-1.41-.57c-.42-.42-.57-.85-.57-1.41v-17.67L4.81,3.89c.14-.42.42-.85.85-1.13s.85-.42,1.27-.42h26.15c.42,0,.85.14,1.27.42s.57.57.85,1.13l4.81,14.13v17.81c0,.57-.14.99-.57,1.27-.42.42-.85.57-1.41.57s-.99-.14-1.41-.57c-.42-.42-.57-.85-.57-1.41v-2.97c.42.14-32.08.14-32.08.14Zm.42-17.81h31.8l-3.39-9.75H7.63l-3.25,9.75Zm-1.27,2.97v11.87-11.87Zm5.94,8.76c.85,0,1.55-.28,2.12-.85s.85-1.27.85-2.12-.28-1.55-.85-2.12c-.57-.57-1.27-.85-2.12-.85s-1.55.28-2.12.85-.85,1.27-.85,2.12.28,1.55.85,2.12c.71.57,1.41.85,2.12.85Zm22.33,0c.85,0,1.55-.28,2.12-.85s.85-1.27.85-2.12-.28-1.55-.85-2.12-1.27-.85-2.12-.85-1.55.28-2.12.85-.85,1.27-.85,2.12.28,1.55.85,2.12,1.27.85,2.12.85Zm-28.27,3.11h34.06v-11.87H3.11v11.87Z"/>
</svg>