<?xml version="1.0" encoding="UTF-8"?>
<svg id="Capa_1" data-name="Capa 1" xmlns="http://www.w3.org/2000/svg" viewBox="0 0 40 40">
  <defs>
    <style>
      .cls-1 {
        fill: none;
      }
    </style>
  </defs>
  <rect class="cls-1" y="0" width="40" height="40"/>
  <path d="m30.94,23.23c.93-.92,1.88-1.97,1.88-3.23s-.86-2.21-1.85-3.19c-.02-.02-.04-.06-.07-.08l-1.02-1.02h0S15.64,1.45,15.64,1.45C14.18,0,12.36-.36,10.55.36c-1.82.73-2.91,2.18-2.91,4.36v30.55c0,2.18,1.09,3.64,2.91,4.36,1.82.73,3.64.36,5.09-1.09l14.25-14.25h0s1.02-1.02,1.02-1.02c.01-.01.02-.03.03-.04Z"/>
</svg>