<?xml version="1.0" encoding="UTF-8"?>
<svg id="Capa_1" data-name="Capa 1" xmlns="http://www.w3.org/2000/svg" viewBox="0 0 40 40">
  <defs>
    <style>
      .cls-1 {
        fill: none;
      }
    </style>
  </defs>
  <rect class="cls-1" y="0" width="40" height="40"/>
  <path d="m21.99,14.29c-.36,0-.6-.12-.83-.36s-.36-.48-.36-.83v-4.76h-4.76c-.36,0-.6-.12-.83-.36s-.36-.6-.36-.83c0-.36.12-.6.36-.83s.48-.36.83-.36h4.76V1.19c0-.36.12-.6.36-.83C21.4.12,21.76,0,21.99,0,22.35,0,22.59.12,22.83.36s.36.48.36.83v4.76h4.76c.36,0,.6.12.83.36.24.24.36.6.36.95s-.12.6-.36.83c-.24.24-.48.36-.83.36h-4.76v4.76c0,.36-.12.6-.36.83-.24.12-.48.24-.83.24Zm-9.76,25.71c-.95,0-1.67-.36-2.38-.95-.6-.6-.95-1.43-.95-2.38s.36-1.67.95-2.26,1.43-.95,2.38-.95,1.67.36,2.38.95c.6.6.95,1.43.95,2.38s-.36,1.67-.95,2.26c-.71.71-1.43.95-2.38.95h0Zm19.4,0c-.95,0-1.67-.36-2.26-.95s-.95-1.43-.95-2.38.36-1.67.95-2.26,1.43-.95,2.38-.95,1.67.36,2.38.95c.6.6.95,1.43.95,2.38s-.36,1.67-.95,2.26c-.83.71-1.67.95-2.5.95h0Zm-19.4-10c-1.19,0-2.14-.48-2.86-1.55-.6-1.07-.6-2.14,0-3.21l2.98-5.36L5.09,4.17h-2.5c-.36,0-.6-.12-.83-.36-.24-.24-.36-.48-.36-.83s.12-.71.36-.95c.24-.24.48-.24.83-.24h3.1c.36,0,.6.12.83.24.24.12.48.36.6.6l7.86,16.67h14.17l7.14-12.86c.12-.24.24-.36.48-.48s.36-.12.6-.12c.48,0,.83.24,1.07.6s.24.83,0,1.19l-6.9,12.5c-.24.48-.71.95-1.19,1.19s-1.07.48-1.67.48h-14.52l-2.74,4.88c-.12.12-.12.36,0,.48s.24.24.48.24h21.79c.36,0,.6.12.83.36.24.24.36.6.36.83,0,.36-.12.6-.36.83-.24.24-.48.36-.83.36,0,.24-21.43.24-21.43.24Z"/>
</svg>