<?xml version="1.0" encoding="UTF-8"?>
<svg id="Capa_1" data-name="Capa 1" xmlns="http://www.w3.org/2000/svg" viewBox="0 0 40 40">
  <defs>
    <style>
      .cls-1 {
        fill: none;
      }
    </style>
  </defs>
  <rect class="cls-1" x="0" width="40" height="40"/>
  <path d="m8.66,16.24c0-.82,0-1.63,0-2.45v-2.45c0-.09.03-.14.1-.19.8-.56,1.67-.84,2.65-.77.87.06,1.58.49,1.95,1.51.23.62.28,1.26.28,1.92,0,.6-.05,1.2-.24,1.78-.4,1.24-1.3,1.72-2.48,1.66-.81-.03-1.52-.35-2.18-.81-.06-.06-.1-.11-.09-.19h0Zm10.76,1.01c.32.13.65.14.98.1.81-.08,1.52-.4,2.17-.87.06-.04.09-.09.09-.17,0-.27,0-.55,0-.82s0-.56,0-.83c0-.1-.03-.14-.12-.15-.49-.06-.97-.15-1.45-.2-.49-.04-.97-.02-1.44.13-.47.15-.81.43-.95.91-.11.37-.11.75,0,1.12.11.38.36.64.72.78Zm20.58-9.47v24.44c0,1.84-1.49,3.33-3.33,3.33H3.33c-1.84,0-3.33-1.49-3.33-3.33V7.78c0-1.84,1.49-3.33,3.33-3.33h33.33c1.84,0,3.33,1.49,3.33,3.33Zm-14.41,1.66c.03.12.06.24.11.35,1.15,2.82,2.28,5.65,3.44,8.47.1.24.12.44.01.69-.19.43-.34.88-.54,1.3-.18.38-.47.66-.88.78-.29.08-.59.09-.9.06-.15-.01-.29-.05-.44-.06-.19-.01-.29.08-.3.28,0,.19,0,.39,0,.58,0,.32.11.47.43.52.33.06.65.11.99.12.99.02,1.78-.37,2.3-1.24.2-.34.39-.7.53-1.07,1.37-3.48,2.74-6.97,4.11-10.45.04-.1.08-.21.09-.32.03-.17-.05-.25-.22-.26-.39,0-.77,0-1.16,0-.22,0-.37.1-.44.3-.03.08-.06.16-.09.24l-2.02,5.81c-.15.42-.29.84-.45,1.29-.03-.06-.04-.1-.06-.13-.75-2.08-1.5-4.16-2.25-6.24-.12-.33-.24-.66-.37-.99-.06-.17-.19-.28-.37-.28-.44,0-.89-.01-1.33,0-.15,0-.23.11-.19.26h0Zm-8.76,7.09c.12.81.53,1.44,1.25,1.85.69.38,1.44.43,2.2.32.88-.13,1.66-.51,2.35-1.08.03-.02.06-.04.1-.07.03.22.06.43.1.64.03.18.15.3.31.31.32,0,.63,0,.95,0,.16,0,.26-.11.28-.27,0-.06,0-.11,0-.16v-6.17c0-.25-.01-.5-.05-.75-.11-.75-.43-1.37-1.1-1.76-.39-.23-.82-.35-1.26-.41-.21-.03-.42-.05-.63-.08h-.69c-.06,0-.11.02-.17.02-.57.03-1.13.1-1.68.24-.35.09-.69.22-1.04.34-.21.07-.31.22-.31.45,0,.19,0,.39,0,.58,0,.28.13.36.4.28.45-.12.91-.24,1.37-.33.72-.13,1.44-.19,2.16-.08.37.06.73.17.98.49.22.28.29.61.31.95.02.48.01.97.02,1.44,0,.03,0,.05-.01.08-.03,0-.06,0-.08,0-.61-.15-1.23-.25-1.86-.28-.66-.03-1.31,0-1.94.22-.75.26-1.35.72-1.71,1.44-.28.58-.32,1.18-.24,1.79Zm-9.98-6.88v12.17c0,.06,0,.12,0,.17.01.17.12.28.28.29.41,0,.82,0,1.23,0,.17,0,.28-.12.28-.28,0-.06,0-.12,0-.17v-4.22c.06.05.1.08.13.11,1.04.87,2.24,1.15,3.55.9,1.19-.24,2.01-.97,2.55-2.03.4-.81.58-1.67.6-2.57.03-.99-.07-1.97-.47-2.9-.49-1.14-1.31-1.9-2.55-2.15-.19-.04-.38-.06-.57-.08h-.49c-.08.01-.17.02-.25.03-.81.1-1.55.4-2.21.88-.14.1-.27.21-.41.31,0-.03-.02-.06-.03-.08-.03-.16-.05-.32-.08-.48-.04-.27-.17-.38-.44-.39h-.67c-.41,0-.48.07-.48.47h0Zm27.42,16.12c-.19-.05-.35,0-.53.07-3.05,1.28-6.22,2.1-9.5,2.49-1.01.12-2.02.19-3.03.22-1.85.05-3.69-.06-5.53-.3-1.24-.17-2.47-.4-3.68-.69-2.57-.62-5.05-1.51-7.41-2.69-.61-.31-1.21-.65-1.81-.97-.26-.15-.43-.1-.57.15v.12c.08.11.15.24.26.33,2.5,2.24,5.32,3.92,8.47,5.06,1.52.55,3.08.95,4.67,1.22.97.16,1.94.26,2.93.31.21,0,.42.01.62.03.05,0,.1.01.15.02h1.23s.1-.02.15-.02c1.03-.03,2.07-.12,3.1-.28,1.49-.22,2.94-.56,4.37-1.02,2.06-.67,4.01-1.56,5.79-2.78.19-.13.4-.26.56-.43.3-.31.16-.72-.23-.83h0Zm3.5-1.92c-.06-.29-.28-.4-.53-.49-.4-.13-.81-.19-1.22-.23-.76-.06-1.53-.03-2.28.11-.83.15-1.62.42-2.33.91-.08.06-.17.12-.22.21-.04.06-.05.16-.03.24.02.09.12.11.21.1.04,0,.08,0,.12,0l1.35-.15c.67-.06,1.33-.1,2-.06.28.02.56.08.83.15.3.08.43.31.44.6.02.47-.08.91-.2,1.35-.24.9-.58,1.76-.92,2.62-.02.06-.05.12-.06.17-.03.17.07.28.24.24.1-.02.21-.08.28-.15.26-.25.52-.5.74-.78.74-.96,1.18-2.06,1.44-3.24.05-.21.08-.42.12-.63.01-.33.01-.67.01-1.01h0Z"/>
</svg>