<?xml version="1.0" encoding="UTF-8"?>
<svg id="Capa_1" data-name="Capa 1" xmlns="http://www.w3.org/2000/svg" viewBox="0 0 40 40">
  <defs>
    <style>
      .cls-1 {
        fill: none;
      }
    </style>
  </defs>
  <rect class="cls-1" y="0" width="40" height="40"/>
  <path d="m22.43,13.89c0-1.12-1-1.25-1.87-1.25h-2.74v4.74h1.12v-1.74h1.25c1.25,0,1,.75,1,1.74h1.25v-.87c0-.62-.12-1-.75-1.25.5-.25.75-.87.75-1.37h0Zm-1.99.75h-1.37v-1h1.5c.37,0,.75.12.75.5-.12.5-.5.5-.87.5h0Zm-1.12,6.23h-3.61l-1.5,1.62-1.37-1.62h-4.61v4.74h4.49l1.5-1.62,1.37,1.62h2.24v-1.62c1.25,0,3.36.37,3.36-1.62,0-1.12-.87-1.5-1.87-1.5h0Zm-7.23,3.74h-2.87v-.87h2.49v-1h-2.49v-.87h2.87l1.25,1.37-1.25,1.37Zm4.49.62l-1.74-1.99,1.74-1.87v3.86Zm2.62-2.12h-1.5v-1.25h1.5c.37,0,.75.12.75.62,0,.37-.25.62-.75.62Zm-2.12-9.47v-1h-3.86v4.74h3.86v-1h-2.74v-1h2.62v-1h-2.62v-.87l2.74.12Zm22.68,6.36h0Zm-13.46,2.12c0-1.12-1-1.25-1.87-1.25h-2.74v4.74h1.12v-1.74h1.25c.75,0,1,.12,1,1v.75h1.12v-1c0-.62-.12-1-.75-1.25.62-.12.87-.62.87-1.25Zm-1.99.87h-1.37v-1.12h1.5c.37,0,.75.12.75.5-.12.5-.5.62-.87.62Zm-11.96-5.61v-4.74h-1.87l-1.37,3.24-1.5-3.24h-1.87v4.49l-1.99-4.49h-1.62l-2.12,4.74h1.25l.5-1h2.37l.5,1h2.37v-3.74l1.62,3.74h1l1.62-3.74v3.74h1.12Zm-10.22-1.99l.75-1.87.87,1.87h-1.62Zm33.02,10.97v-.25c-.75.37-.25.25-10.84.25v-1.74h-.62v1.74h-2.74v-1.99c-.75.37-1.62.5-2.37.37v1.62h-3.36c-.37-.37-.12-.25-1.12-1.25-.25.25-.87,1-1.12,1.25h-5.61v-6.36h5.73c.37.37.25.25,1.12,1.25.25-.25.87-.87,1.12-1.25h3.99c.62,0,1.25.12,1.62.37v-.37c3.74,0,4.49-.12,5.23.37v-.37h5.36v.37c.75-.5,1.37-.37,4.49-.37v.37c.75-.37,1.37-.37,3.99-.37V7.91c0-1.87-1.5-3.36-3.36-3.36H3.24c-1.87,0-3.24,1.5-3.24,3.24v7.6c.62-1.5,1.37-3.24,1.62-3.74h2.74c.25.75.12.25.62,1.5v-1.5h3.24c.25.37.75,1.62,1,2.12.37-1,.75-1.62.87-2.12h7.85c2.99,0,3.74,0,4.49.37v-.37h2.74v.62c.5-.37,1.25-.62,2.12-.62h4.24c.25.62.12.37.62,1.37v-1.37h2.99c.37.5-.12-.12.75,1.25v-1.25h2.74v6.36h-2.87c-.37-.62-.12-.12-.87-1.5v1.5h-3.74l-.5-1h-1.37c-.25.75-.12.37-.5,1h-1.87c-.87,0-1.5-.25-1.99-.62v.62h-4.61v-1.74h-.62v1.74h-9.35v-.75q-.12.37-.37.75h-1.99c-.25-.62-.25-.5-.37-.75v.75h-3.61c-.25-.75-.12-.37-.5-1h-1.25c-.25.75-.12.37-.5,1H0v14.08c0,1.87,1.5,3.36,3.36,3.36h33.27c1.87,0,3.36-1.5,3.36-3.36v-6.23c-1.12.62-2.49.5-4.86.5h0Zm2.49-4.49h2.12v-1h-2.24c-.87,0-1.62.5-1.62,1.37,0,2.24,2.99.87,2.99,1.87,0,.37-.25.5-.62.5h-2.24v1h2.24c.62,0,1.25-.12,1.5-.62v-1.74c-.75-1-2.74-.12-2.74-.87,0-.5.37-.5.62-.5Zm-3.86,2.74h-2.24v1h2.12c1,0,1.87-.37,1.87-1.5,0-2.24-2.99-.75-2.99-1.87,0-.37.37-.5.62-.5h2.12v-1h-2.24c-.87,0-1.62.5-1.62,1.37,0,2.24,2.99.87,2.99,1.87-.12.62-.37.62-.62.62Zm-2.99-2.74v-1h-3.86v4.74h3.86v-1h-2.62v-.87h2.62v-1h-2.62v-.87h2.62Zm-3.86-7.48s-.12.12-.12.5,0,.5.12.5h.25l.5-1.12h-.25c-.37,0-.5.12-.5.12Zm1.37-.75h0Zm-1.12-1c-1.62,0-2.37.87-2.37,2.49,0,1.5.75,2.37,2.24,2.37h1.37l.5-1h2.37l.5,1h2.37v-3.74l2.12,3.61h1.62v-4.74h-1.12v3.36l-1.99-3.36h-1.74v4.49l-1.87-4.49h-1.74l-1.62,3.74h-.5c-.87,0-1.12-.5-1.12-1.37,0-1.62,1.12-1.37,2.24-1.37v-1h-1.25Zm2.99.75l.75,1.87h-1.62l.87-1.87Zm-7.1-.75v4.74h1.12v-4.74h-1.12Z"/>
</svg>