<?xml version="1.0" encoding="UTF-8"?>
<svg id="Capa_1" data-name="Capa 1" xmlns="http://www.w3.org/2000/svg" viewBox="0 0 40 40">
  <defs>
    <style>
      .cls-1 {
        fill: none;
      }
    </style>
  </defs>
  <rect class="cls-1" y="0" width="40" height="40"/>
  <path d="m21,17.5c0,1.25-.75,1.87-2,1.87h-1.75v-3.75h1.75c1.25,0,2,.62,2,1.87h0Zm3.25,4.25c0,.62.5,1,1.25,1,1,0,1.75-.62,1.75-1.5v-.5l-1.62.13c-.88,0-1.38.38-1.38.88Zm15.75-14v24.5c0,1.87-1.5,3.38-3.38,3.38H3.38c-1.87,0-3.38-1.5-3.38-3.38V7.75c0-1.87,1.5-3.37,3.38-3.37h33.38c1.75.12,3.25,1.5,3.25,3.37Zm-31.12,8.25c.62,0,1.12-.25,1.5-.75.38-.5.62-1,.5-1.63-.5,0-1.12.38-1.5.75-.25.38-.62,1-.5,1.63h0Zm4.25,5.12s-1.38-.5-1.38-2.13c0-1.25,1.12-1.87,1.12-2-.62-.87-1.5-1-1.87-1-.87,0-1.63.5-2,.5s-1-.5-1.75-.5c-.87,0-1.63.5-2.12,1.25-.87,1.62-.25,3.88.62,5.13.38.62,1,1.38,1.63,1.25.62,0,.87-.37,1.63-.37s1,.37,1.75.37,1.12-.62,1.63-1.25c.5-.5.75-1.12.75-1.25Zm9.37-3.62c0-1.87-1.25-3.12-3.12-3.12h-3.5v9.5h1.5v-3.25h2c1.75,0,3.12-1.38,3.12-3.12Zm6.25,1.62c0-1.38-1.12-2.25-2.75-2.25-1.5,0-2.75.88-2.75,2.13h1.38c.13-.62.62-1,1.38-1,.88,0,1.38.37,1.38,1.25v.5l-1.87.13c-1.75.13-2.63.75-2.63,2s1,2,2.37,2c.88,0,1.75-.5,2.13-1.25h0v1.12h1.38v-4.63h0Zm7.13-2.25h-1.5l-1.75,5.62h0l-1.75-5.62h-1.5l2.5,6.87-.13.37c-.25.75-.62,1-1.25,1h-.37v1.12h.62c1.5,0,2.13-.5,2.75-2.25l2.37-7.12Z"/>
</svg>