<?xml version="1.0" encoding="UTF-8"?>
<svg id="Capa_1" data-name="Capa 1" xmlns="http://www.w3.org/2000/svg" viewBox="0 0 40 40">
  <defs>
    <style>
      .cls-1 {
        fill: none;
      }
    </style>
  </defs>
  <rect class="cls-1" y="0" width="40" height="40"/>
  <path d="m16.57,7.73c-6.73,0-12.21,5.48-12.21,12.21s5.48,12.21,12.21,12.21,12.21-5.48,12.21-12.21c0-6.73-5.48-12.21-12.21-12.21Zm-2.74,19.44c-2.87-1.12-4.98-3.86-4.98-7.23s2.12-6.11,4.98-7.23v14.45Zm5.48,0v-14.45c2.87,1.12,4.98,3.99,4.98,7.23s-2.12,6.11-4.98,7.23h0ZM36.51,4.49H3.36c-1.87,0-3.36,1.37-3.36,3.24v24.42c0,1.87,1.5,3.36,3.36,3.36h33.27c1.87,0,3.36-1.5,3.36-3.36V7.73c-.12-1.87-1.62-3.24-3.49-3.24Zm-13.71,28.79h-6.23c-7.35,0-13.46-5.98-13.46-13.21,0-7.98,6.11-13.46,13.46-13.46h6.23c7.23,0,13.96,5.48,13.96,13.46,0,7.23-6.6,13.21-13.96,13.21Z"/>
</svg>