<?xml version="1.0" encoding="UTF-8"?>
<svg id="Capa_1" data-name="Capa 1" xmlns="http://www.w3.org/2000/svg" viewBox="0 0 40 40">
  <defs>
    <style>
      .cls-1 {
        fill: none;
      }
    </style>
  </defs>
  <rect class="cls-1" y="0" width="40" height="40"/>
  <path d="m36.01,15.83c0-.5-.37-.87-1.12-.87h-.37v1.74h.37c.75,0,1.12-.37,1.12-.87h0Zm.5-11.34H3.36c-1.87,0-3.36,1.37-3.36,3.24v24.42c0,1.87,1.5,3.36,3.36,3.36h33.27c1.87,0,3.36-1.5,3.36-3.36V7.73c-.12-1.87-1.62-3.24-3.49-3.24Zm-2.99,9.6c1.62,0,3.61-.25,3.61,1.74,0,.87-.5,1.5-1.25,1.62l1.74,2.37h-1.37l-1.5-2.37h-.12v2.24h-1.12v-5.61Zm-3.86,0h3.12v1h-1.99v1.25h1.99v1h-1.99v1.5h1.99v1h-3.12v-5.73Zm-4.74,0l1.5,3.86,1.5-3.86h1.25l-2.49,5.86h-.62l-2.37-5.86h1.25Zm-3.86-.25c1.74,0,3.12,1.37,3.12,3.12s-1.37,3.12-3.12,3.12-3.12-1.37-3.12-3.12,1.37-3.12,3.12-3.12Zm-3.49.37v1.37c-1.37-1.37-3.24-.37-3.24,1.37s1.87,2.62,3.24,1.37v1.37c-1.99,1-4.36-.37-4.36-2.62,0-2.37,2.24-3.86,4.36-2.87Zm-6.73,4.61c.75,0,1.5-1.12-.25-1.74-1-.37-1.37-.75-1.37-1.62,0-1.62,2.12-2.12,3.49-1l-.62.75c-.75-.75-1.74-.37-1.74.12,0,.25.12.5.87.75,1.25.5,1.62.87,1.62,1.74,0,1.99-2.74,2.62-3.86.75l.75-.62c.12.62.62.87,1.12.87h0Zm-6.98.87h-1.62v-5.73h1.62c1.87,0,3.12,1.12,3.12,2.87-.12,1.37-1,2.87-3.12,2.87Zm4.61,0h-1.12v-5.73h1.12v5.73Zm29.16,12.46c0,.62-.5,1-1,1H8.85c13.08-2.49,26.54-9.6,28.79-11.09v10.09ZM5.11,15.45c-.37-.37-.75-.5-1.5-.5h-.25v3.74h.25c.75,0,1.12-.12,1.5-.5.37-.37.62-.87.62-1.5,0-.37-.25-.87-.62-1.25Z"/>
</svg>