<?xml version="1.0" encoding="UTF-8"?>
<svg id="Capa_1" data-name="Capa 1" xmlns="http://www.w3.org/2000/svg" viewBox="0 0 40 40">
  <defs>
    <style>
      .cls-1 {
        fill: none;
      }
    </style>
  </defs>
  <rect class="cls-1" y="0" width="40" height="40"/>
  <path d="m33.57,30.67c0,.47-.32.81-.78.81s-.78-.36-.78-.81.31-.81.78-.81.78.36.78.81Zm-21.63-.81c-.49,0-.78.36-.78.81s.29.81.78.81c.45,0,.76-.34.76-.81,0-.45-.31-.81-.76-.81Zm8.18-.02c-.38,0-.61.24-.66.61h1.33c-.06-.4-.31-.61-.67-.61Zm7.5.02c-.47,0-.76.36-.76.81s.29.81.76.81.78-.34.78-.81-.31-.81-.78-.81Zm7.37,1.82s.02.03.02.08c0,.02-.02.03-.02.08-.02.02-.02.03-.03.06-.02.02-.03.03-.08.03-.02.02-.03.02-.08.02-.02,0-.03,0-.08-.02-.02,0-.03-.02-.06-.03-.02-.02-.03-.03-.03-.06-.02-.03-.02-.06-.02-.08,0-.03,0-.06.02-.08,0-.03.02-.06.03-.08.02-.02.03-.02.06-.03.03-.02.06-.02.08-.02.03,0,.06,0,.08.02.03.02.06.02.08.03s.01.04.03.08Zm-.15.1s.03-.02.06-.02c.02-.02.02-.03.02-.06s0-.03-.02-.06c-.02,0-.03-.02-.08-.02h-.11v.24h.06v-.1h.02l.08.1h.06l-.08-.09h0Zm5.21-24.02v24.5c0,1.84-1.5,3.34-3.34,3.34H3.29c-1.84,0-3.34-1.5-3.34-3.34V7.75c0-1.84,1.5-3.34,3.34-3.34h33.41c1.84,0,3.34,1.5,3.34,3.34ZM4.41,17.47c0,5.33,4.32,9.64,9.64,9.64,1.89,0,3.75-.57,5.33-1.61-5.07-4.13-5.04-11.92,0-16.04-1.57-1.04-3.43-1.61-5.33-1.61-5.32,0-9.64,4.32-9.64,9.62Zm15.59,7.57c4.91-3.83,4.89-11.29,0-15.14-4.89,3.85-4.91,11.32,0,15.14Zm-9.91,5.31c0-.61-.4-1-1.02-1.02-.32,0-.66.1-.89.45-.17-.29-.45-.45-.85-.45-.26,0-.53.1-.74.38v-.31h-.57v2.55h.57c0-1.32-.17-2.1.63-2.1.71,0,.57.71.57,2.1h.55c0-1.27-.17-2.1.63-2.1.71,0,.57.7.57,2.1h.57v-1.6h-.01Zm3.13-.95h-.55v.31c-.19-.23-.45-.38-.81-.38-.72,0-1.27.57-1.27,1.34s.55,1.34,1.27,1.34c.36,0,.63-.13.81-.38v.32h.55v-2.56Zm2.82,1.78c0-1.04-1.59-.57-1.59-1.06,0-.4.83-.33,1.29-.08l.23-.45c-.65-.42-2.1-.42-2.1.57s1.59.58,1.59,1.04c0,.44-.94.4-1.44.06l-.24.44c.78.53,2.27.42,2.27-.52h0Zm2.46.65l-.15-.47c-.26.15-.85.31-.85-.29v-1.16h.91v-.52h-.91v-.78h-.57v.78h-.53v.51h.53v1.16c0,1.23,1.2,1,1.57.76h0Zm.93-.93h1.91c0-1.13-.52-1.57-1.21-1.57-.74,0-1.27.55-1.27,1.34,0,1.43,1.57,1.66,2.35.99l-.26-.42c-.54.45-1.36.4-1.52-.34Zm4.11-1.5c-.32-.14-.81-.13-1.06.31v-.31h-.57v2.55h.57v-1.44c0-.81.66-.7.89-.58l.17-.53h0Zm.74,1.27c0-.79.81-1.05,1.44-.58l.26-.45c-.81-.63-2.28-.29-2.28,1.04s1.56,1.66,2.28,1.04l-.26-.45c-.64.45-1.44.18-1.44-.6Zm4.64-1.27h-.57v.31c-.58-.77-2.08-.33-2.08.97s1.56,1.72,2.08.97v.32h.57v-2.56Zm2.35,0c-.17-.08-.77-.2-1.06.31v-.31h-.55v2.55h.55v-1.44c0-.77.63-.72.89-.58l.17-.53h0Zm2.81-1.04h-.55v1.34c-.57-.76-2.08-.36-2.08.97s1.57,1.71,2.08.97v.32h.55v-3.6h0Zm.53-5.23v.32h.06v-.32h.13v-.06h-.32v.06h.13Zm.46,8.62s0-.08-.02-.11c-.02-.02-.03-.06-.06-.08-.02-.02-.06-.03-.08-.06-.03,0-.08-.02-.11-.02-.02,0-.06.02-.1.02-.03.02-.06.03-.08.06-.03.02-.06.06-.06.08-.02.03-.02.08-.02.11,0,.02,0,.06.02.1,0,.02.02.06.06.08.02.02.03.03.08.06.03.02.08.02.1.02.03,0,.08,0,.11-.02.02-.02.06-.03.08-.06.02-.02.03-.06.06-.08.02-.04.02-.08.02-.1Zm.22-8.68h-.1l-.11.24-.11-.24h-.1v.38h.06v-.29l.11.24h.08l.1-.24v.29h.08v-.38Zm.31-5.6c0-5.3-4.32-9.63-9.64-9.63-1.89,0-3.75.57-5.33,1.61,5.02,4.13,5.1,11.94,0,16.04,1.57,1.04,3.45,1.61,5.33,1.61,5.32,0,9.64-4.31,9.64-9.63Z"/>
</svg>