<?xml version="1.0" encoding="UTF-8"?>
<svg id="Capa_1" data-name="Capa 1" xmlns="http://www.w3.org/2000/svg" viewBox="0 0 40 40">
  <defs>
    <style>
      .cls-1 {
        fill: none;
      }
    </style>
  </defs>
  <rect class="cls-1" y="0" width="40" height="40"/>
  <path d="m12.88,20.13c0,.88-.62,1.5-1.5,1.5-.62,0-1.12-.37-1.12-1,0-.88.62-1.5,1.5-1.5.75,0,1.12.37,1.12,1Zm-7.25-3.38h-.38c-.13,0-.25.13-.25.13l-.25,1.87h.62c.75,0,1.38-.13,1.5-1,.13-.88-.5-1-1.25-1Zm19.75,0h-.37c-.13,0-.25.13-.25.13l-.25,1.87h.5c.88,0,1.5-.25,1.5-1.25,0-.62-.62-.75-1.12-.75h0Zm14.63-9v24.5c0,1.87-1.5,3.38-3.38,3.38H3.38c-1.87,0-3.38-1.5-3.38-3.38V7.75c0-1.87,1.5-3.37,3.38-3.37h33.38c1.75.12,3.25,1.5,3.25,3.37Zm-31.12,9.38c0-1.5-1.12-2-2.37-2h-2.75c-.12,0-.38.13-.38.37l-1.13,7.12c0,.13.12.25.25.25h1.25c.25,0,.38-.25.38-.37l.25-1.87c.12-.5.87-.37,1.25-.37,2.12.12,3.25-1.13,3.25-3.12h0Zm5.87.62h-1.38c-.25,0-.25.37-.25.62-.38-.62-1-.75-1.63-.75-1.75,0-3,1.5-3,3.12,0,1.38.87,2.25,2.25,2.25.62,0,1.38-.37,1.87-.88,0,.13-.13.37-.13.37,0,.13.13.25.25.25h1.25c.13,0,.38-.25.38-.37l.75-4.5c-.12,0-.25-.12-.37-.12h0Zm2.88,6.87l4.37-6.38v-.13c0-.13-.13-.25-.25-.25h-1.38c-.13,0-.25.13-.25.13l-1.87,2.75-.75-2.63c0-.13-.25-.25-.37-.25h-1.25c-.13,0-.25.13-.25.25s1.38,4,1.5,4.37c-.13.25-1.38,2-1.38,2.25,0,.13.13.25.25.25h1.38c0-.25.12-.25.25-.37h0Zm11-7.5c0-1.5-1.12-2-2.37-2h-2.75c-.13,0-.37.13-.37.37l-1.12,7.12c0,.13.13.25.25.25h1.38c.13,0,.25-.13.25-.25l.25-2c.13-.5.88-.37,1.25-.37,2,.13,3.25-1.12,3.25-3.12h0Zm5.88.62h-1.38c-.25,0-.25.37-.25.62-.37-.62-1-.75-1.62-.75-1.75,0-3,1.5-3,3.12,0,1.38.88,2.25,2.25,2.25.62,0,1.38-.37,1.87-.88,0,.13-.13.37-.13.37,0,.13.13.25.25.25h1.25c.25,0,.37-.25.37-.37l.75-4.5c-.13,0-.25-.12-.37-.12h0Zm3.25-2.25c0-.13-.12-.25-.25-.25h-1.25c-.12,0-.25.13-.25.13l-1.12,7.25h0c0,.13.13.25.25.25h1.13c.12,0,.37-.25.37-.37l1.13-7h0Zm-6.25,3.62c-.88,0-1.5.62-1.5,1.5,0,.62.5,1,1.12,1,.88,0,1.5-.62,1.5-1.5,0-.62-.5-1-1.12-1Z"/>
</svg>