<?xml version="1.0" encoding="UTF-8"?>
<svg id="Capa_1" data-name="Capa 1" xmlns="http://www.w3.org/2000/svg" viewBox="0 0 40 40">
  <defs>
    <style>
      .cls-1 {
        fill: none;
      }
    </style>
  </defs>
  <rect class="cls-1" y="0" width="40" height="40"/>
  <path d="m32.63,18.25s.5,2.63.62,3.12h-2.37c.25-.62,1.12-3,1.12-3,0,0,.25-.62.37-1l.25.87h0Zm7.37-10.5v24.5c0,1.87-1.5,3.38-3.38,3.38H3.38c-1.87,0-3.38-1.5-3.38-3.38V7.75c0-1.87,1.5-3.37,3.38-3.37h33.38c1.75.12,3.25,1.5,3.25,3.37ZM10.63,25.25l4.37-10.75h-3l-2.75,7.37-.25-1.5-1-5c-.13-.75-.62-.87-1.25-.87H2.25v.25c1.13.25,2.12.62,2.88,1.12l2.5,9.37h3Zm6.5,0l1.75-10.75h-2.75l-1.75,10.75h2.75Zm9.75-3.5c0-1.25-.75-2.13-2.37-3-1-.5-1.62-.88-1.62-1.38s.5-.88,1.62-.88c.88,0,1.62.25,2.13.37l.25.13.37-2.37c-.5-.25-1.38-.5-2.5-.5-2.75,0-4.75,1.5-4.75,3.62,0,1.5,1.38,2.37,2.5,2.87s1.5.88,1.5,1.38c0,.75-.88,1-1.62,1-1.12,0-1.75-.13-2.63-.62l-.37-.13-.37,2.37c.62.25,1.87.62,3.12.62,2.75.13,4.75-1.25,4.75-3.5h0Zm9.75,3.5l-2.25-10.75h-2.13c-.62,0-1.12.25-1.5.88l-4.12,9.87h2.87s.5-1.38.62-1.62h3.63c.13.37.37,1.62.37,1.62h2.5Z"/>
</svg>