<?xml version="1.0" encoding="UTF-8"?>
<svg id="Capa_1" data-name="Capa 1" xmlns="http://www.w3.org/2000/svg" viewBox="0 0 40 40">
  <defs>
    <style>
      .cls-1 {
        fill: none;
      }
    </style>
  </defs>
  <rect class="cls-1" y="0" width="40" height="40"/>
  <path d="m6.51,35.2c-.34,0-.57-.11-.8-.34s-.34-.57-.34-.8v-1.94h-.8c-1.26,0-2.29-.46-3.2-1.37-.91-.91-1.37-1.94-1.37-3.2v-10.51c0-1.37.46-2.51,1.37-3.2.91-.8,1.94-1.14,3.09-1.14v-3.54c0-1.26.46-2.29,1.26-3.09.8-.8,1.83-1.26,3.09-1.26h22.51c1.26,0,2.29.46,3.09,1.26s1.26,1.83,1.26,3.09v3.54c1.14,0,2.17.34,3.09,1.14s1.26,1.83,1.26,3.2v10.51c0,1.26-.46,2.29-1.37,3.2s-1.94,1.37-3.2,1.37h-.8v1.94c0,.34-.11.57-.34.8s-.46.34-.8.34-.57-.11-.8-.34-.34-.57-.34-.8v-1.94H7.77v1.94c0,.34-.11.57-.34.8s-.57.34-.91.34Zm-1.94-5.49h30.97c.57,0,1.14-.23,1.49-.57.46-.46.57-.91.57-1.49v-10.51c0-.57-.23-1.03-.57-1.49-.34-.34-.8-.57-1.49-.57s-1.03.23-1.49.57c-.34.34-.57.8-.57,1.49v7.54H6.4v-7.54c0-.57-.23-1.03-.57-1.49-.34-.34-.8-.57-1.49-.57s-1.03.23-1.49.57c-.34.34-.57.8-.57,1.49v10.51c0,.57.23,1.14.57,1.49.57.34,1.14.57,1.71.57Zm4.23-7.54h22.4v-5.14c0-.8.23-1.6.57-2.17s.91-1.14,1.37-1.49v-4.34c0-.57-.23-1.03-.57-1.49-.34-.34-.8-.46-1.37-.46H8.8c-.57,0-1.03.11-1.49.46-.34.34-.57.8-.57,1.49v4.34c.57.34,1.03.8,1.37,1.49.34.57.57,1.37.57,2.17.11,0,.11,5.14.11,5.14Z"/>
</svg>