<?xml version="1.0" encoding="UTF-8"?>
<svg id="Capa_1" data-name="Capa 1" xmlns="http://www.w3.org/2000/svg" viewBox="0 0 40 40">
  <defs>
    <style>
      .cls-1 {
        fill: none;
      }
    </style>
  </defs>
  <rect class="cls-1" width="40" height="40"/>
  <g>
    <path d="m36.78,0H3.37C1.5.09,0,1.64,0,3.54v.24s0,32.57,0,32.57v.11c0,1.95,1.58,3.54,3.54,3.54,0,0,0,0,0,0,0,0,0,0,0,0h33.02c1.85-.06,3.34-1.53,3.43-3.37V3.39C39.94,1.6,38.54.16,36.78,0Zm.27,32.97v3.26c0,.46-.38.83-.84.83H3.8c-.46,0-.83-.37-.83-.83v-3.26s-.01-25.91-.01-25.91v-3.29c0-.46.38-.83.84-.83h29.18s3.24,0,3.24,0c.46,0,.83.37.83.83v3.26s0,25.94,0,25.94Z"/>
    <path d="m31.54,11.55s-.01,0-.02,0h-.02s-.02,0-.02,0h0s-6.74,0-6.74,0c-.42,0-.71.14-.99.42-.28.28-.42.7-.42.99,0,.42.14.7.42.99.28.28.57.42.99.42h3.39l-7.07,7.18-3.39-3.38c-.42-.42-.85-.56-1.27-.56-.57,0-.87.16-1.27.56l-6.93,6.9c-.28.28-.42.7-.42,1.13s.14.7.42.99c.28.28.71.42.99.42.42,0,.71-.14.99-.42l6.22-6.2,3.39,3.38c.28.28.79.56,1.35.56s.81-.19,1.19-.56l7.92-7.89v3.52c0,.42.14.7.42.99.28.28.57.42.99.42s.71-.14.99-.42c.28-.28.42-.56.42-.99v-6.62c0-.29-.04-.54-.13-.75-.26-.73-.85-1.05-1.4-1.07Z"/>
  </g>
</svg>