<?xml version="1.0" encoding="UTF-8"?>
<svg id="Capa_1" data-name="Capa 1" xmlns="http://www.w3.org/2000/svg" viewBox="0 0 40 40">
  <defs>
    <style>
      .cls-1 {
        fill: none;
      }
    </style>
  </defs>
  <rect class="cls-1" width="40" height="40"/>
  <path d="m0,11.45v24.73c0,.42.28.99.57,1.27.36.36.88.58,1.3.58,0,0,36,.11,36.3.12.42,0,1.02-.32,1.27-.57.14-.13.57-.71.57-1.27V11.73c0-.42-.28-.99-.57-1.27-.28-.42-.71-.57-1.27-.57h-6.78l-9.39-7.46c-.54-.46-.83-.71-1.4-.71-.86,0-1.32.52-2.04,1.56h0l-10.07,14.1L1.27,12.01s-.61-.53-1.27-.57Zm37.17,21.77l-15.41-12.01c-.42-.28-.83-.47-1.41-.42-.57,0-1.08.48-1.27.71l-8.34,11.45s-7.77-6.22-7.63-6.22v-9.89l6.22,4.66L20.92,5.09l9.47,7.63h6.78v20.49Zm-16.82-12.44c-.57,0-1.08.48-1.27.71"/>
</svg>