<?xml version="1.0" encoding="UTF-8"?>
<svg id="Capa_1" data-name="Capa 1" xmlns="http://www.w3.org/2000/svg" viewBox="0 0 40 40">
  <defs>
    <style>
      .cls-1 {
        fill: none;
      }
    </style>
  </defs>
  <rect class="cls-1" y="0" width="40" height="40"/>
  <path d="m9.83,34.78l4.89-7.78h-2.94v-5.83l-4.83,7.78h2.89v5.83ZM3.33,16h14.94V3.33H3.33v12.67Zm0,20.67h14.94v-17.33H3.33v17.33Zm14.94,0H3.33h14.94Zm1.67,3.33H1.67c-.47,0-.87-.16-1.19-.48s-.48-.72-.48-1.19V3.33c0-.89.33-1.67,1-2.33S2.44,0,3.33,0h14.94C19.17,0,19.94.33,20.61,1s1,1.44,1,2.33v16h3.61c.77,0,1.42.27,1.96.81.54.54.81,1.2.81,1.96v12.17c0,.81.32,1.49.97,2.03s1.4.81,2.25.81,1.65-.27,2.39-.81,1.11-1.21,1.11-2.03V12.78h-.83c-.47,0-.87-.16-1.19-.48s-.48-.72-.48-1.19v-4.17c0-.22.08-.42.25-.58s.36-.25.58-.25h.28v-1.94c0-.22.08-.42.25-.58s.36-.25.58-.25.42.08.58.25.25.36.25.58v1.94h2.22v-1.94c0-.22.08-.42.25-.58s.36-.25.58-.25.42.08.58.25.25.36.25.58v1.94h.28c.22,0,.42.08.58.25s.25.36.25.58v4.17c0,.47-.16.87-.48,1.19s-.72.48-1.19.48h-.83v21.48c0,1.6-.63,2.96-1.89,4.07s-2.73,1.67-4.4,1.67-3.04-.56-4.22-1.67-1.77-2.46-1.77-4.06v-12.17h-3.61v16.22c0,.47-.16.87-.48,1.19s-.72.48-1.19.48Z"/>
</svg>