<?xml version="1.0" encoding="UTF-8"?>
<svg id="Capa_1" data-name="Capa 1" xmlns="http://www.w3.org/2000/svg" viewBox="0 0 40 40">
  <defs>
    <style>
      .cls-1 {
        fill: none;
      }
    </style>
  </defs>
  <rect class="cls-1" width="40" height="40"/>
  <g>
    <path d="m10.74,16.34c-.42,0-.71.14-.99.42-.28.28-.42.56-.42.99v12.11c0,.42.14.7.42.99.28.28.57.42.99.42s.71-.14.99-.42c.28-.28.42-.56.42-.99v-12.11c0-.42-.14-.7-.42-.99-.28-.28-.71-.42-.99-.42Z"/>
    <path d="m20.07,8.73c-.42,0-.71.14-.99.42-.28.28-.42.56-.42.99v19.58c0,.42.14.7.42.99.28.42.57.56.99.56s.71-.14.99-.42.42-.56.42-.99V10.28c0-.42-.14-.7-.42-.99-.28-.42-.57-.56-.99-.56Z"/>
    <path d="m29.26,23.52c-.42,0-.71.14-.99.42-.28.28-.42.7-.42.99v4.93c0,.42.14.7.42.99.42.28.71.42,1.13.42s.71-.14.99-.42c.28-.28.42-.56.42-.99v-4.93c0-.42-.14-.7-.42-.99-.28-.28-.71-.42-1.13-.42Z"/>
    <path d="m36.85,0H3.44C1.57.09.07,1.64.07,3.54v.24s0,32.57,0,32.57v.11c0,1.95,1.58,3.54,3.54,3.54,0,0,0,0,0,0,0,0,0,0,0,0h33.02c1.85-.06,3.34-1.53,3.43-3.37V3.39C40.01,1.6,38.61.16,36.85,0Zm.27,32.97v3.26c0,.46-.38.83-.84.83H3.88c-.46,0-.83-.37-.83-.83v-3.26s-.01-25.91-.01-25.91v-3.29c0-.46.38-.83.84-.83h29.18s3.24,0,3.24,0c.46,0,.83.37.83.83v3.26s0,25.94,0,25.94Z"/>
  </g>
</svg>