<?xml version="1.0" encoding="UTF-8"?>
<svg id="Capa_1" data-name="Capa 1" xmlns="http://www.w3.org/2000/svg" viewBox="0 0 40 40">
  <defs>
    <style>
      .cls-1 {
        fill: none;
      }
    </style>
  </defs>
  <rect class="cls-1" width="40" height="40"/>
  <path d="m21.27,18.73h16.08c-.38-4.3-2.03-7.97-5.06-11.01-3.04-3.04-6.71-4.68-11.01-4.94,0-.13,0,15.95,0,15.95Zm-2.53,18.61V2.66c-4.56.25-8.35,2.15-11.39,5.44s-4.68,7.34-4.68,11.9,1.52,8.48,4.68,11.9,6.84,5.19,11.39,5.44Zm2.53,0c4.3-.25,7.97-1.9,11.01-4.94s4.68-6.71,5.06-11.01h-16.08c0-.13,0,15.95,0,15.95Zm-1.27,2.66c-2.78,0-5.32-.51-7.85-1.52-2.41-1.01-4.56-2.53-6.33-4.3-1.77-1.77-3.29-3.92-4.3-6.33s-1.52-5.06-1.52-7.85.51-5.32,1.52-7.85c1.01-2.41,2.53-4.56,4.3-6.33,1.77-1.77,3.92-3.29,6.33-4.3S17.22,0,20,0s5.32.51,7.85,1.52c2.41,1.01,4.56,2.53,6.33,4.3,1.77,1.77,3.29,3.92,4.3,6.33,1.01,2.41,1.52,5.06,1.52,7.85s-.51,5.32-1.52,7.85c-1.01,2.41-2.53,4.56-4.3,6.33-1.77,1.77-3.92,3.29-6.33,4.3-2.41,1.01-5.06,1.52-7.85,1.52Z"/>
</svg>