<?xml version="1.0" encoding="UTF-8"?>
<svg id="Capa_1" data-name="Capa 1" xmlns="http://www.w3.org/2000/svg" viewBox="0 0 40 40">
  <defs>
    <style>
      .cls-1 {
        fill: none;
      }
    </style>
  </defs>
  <rect class="cls-1" width="40" height="40"/>
  <g>
    <path d="m30.53,11.27c-.42,0-.71.14-.99.42l-12.86,12.96-5.8-5.77c-.28-.28-.57-.42-.99-.42s-.71.14-1.13.42c-.28.28-.42.7-.42.99,0,.42.14.7.42.99l6.64,6.62c.42.42.85.56,1.27.56s.85-.14,1.27-.56l13.71-13.66c.28-.28.42-.56.42-.99s-.14-.7-.42-1.13c-.28-.28-.71-.42-1.13-.42Z"/>
    <path d="m36.78-.06H3.37C1.5.03,0,1.58,0,3.47v.24s0,32.57,0,32.57v.11c0,1.95,1.58,3.54,3.54,3.54,0,0,0,0,0,0,0,0,0,0,0,0h33.02c1.85-.06,3.34-1.53,3.43-3.37V3.33c-.06-1.79-1.46-3.24-3.22-3.39Zm.27,32.97v3.26c0,.46-.38.83-.84.83H3.8c-.46,0-.83-.37-.83-.83v-3.26s-.01-25.91-.01-25.91v-3.29c0-.46.38-.83.84-.83h29.18s3.24,0,3.24,0c.46,0,.83.37.83.83v3.26s0,25.94,0,25.94Z"/>
  </g>
</svg>