<?xml version="1.0" encoding="UTF-8"?>
<svg id="Capa_1" data-name="Capa 1" xmlns="http://www.w3.org/2000/svg" viewBox="0 0 40 40">
  <defs>
    <style>
      .cls-1 {
        fill: none;
      }
    </style>
  </defs>
  <rect class="cls-1" width="40" height="40"/>
  <path d="m39.52,6.27c-.32-.32-.64-.48-1.12-.48-.32,0-.8.16-1.12.48L13.33,30.2,2.73,19.6c-.32-.32-.64-.48-1.12-.48-.32,0-.8.16-1.12.48S0,20.4,0,20.88s.16.96.48,1.29l11.41,11.41s.11.1.14.13c.03,0,.69.6,1.49.6.73,0,1.39-.7,1.39-.7,0,0,.02-.02.03-.03l24.58-24.9c.32-.48.48-.8.48-1.29,0-.32-.16-.8-.48-1.12Z"/>
</svg>