<?xml version="1.0" encoding="UTF-8"?>
<svg id="Capa_1" data-name="Capa 1" xmlns="http://www.w3.org/2000/svg" viewBox="0 0 40 40">
  <defs>
    <style>
      .cls-1 {
        fill: none;
      }
    </style>
  </defs>
  <rect class="cls-1" x="0" width="40" height="40"/>
  <path d="m16.93,25.01l-5.19-5.2c-.26-.25-.58-.38-.96-.39-.37,0-.7.13-.98.41-.27.27-.4.59-.4.96s.13.69.4.96l5.98,6c.33.34.71.51,1.15.51s.83-.17,1.15-.51l12.05-12.03c.27-.28.41-.6.41-.98,0-.37-.13-.7-.41-.98-.28-.27-.61-.4-.99-.39-.38,0-.7.14-.97.41,0,0-11.24,11.24-11.24,11.24Zm3.07,14.99c-2.75,0-5.34-.52-7.77-1.57-2.43-1.05-4.55-2.48-6.36-4.29-1.81-1.81-3.24-3.93-4.29-6.36-1.05-2.43-1.58-5.02-1.58-7.77s.52-5.37,1.57-7.8c1.05-2.43,2.48-4.55,4.29-6.35,1.81-1.8,3.93-3.23,6.36-4.28,2.43-1.05,5.02-1.58,7.77-1.58s5.37.52,7.8,1.57c2.43,1.05,4.55,2.47,6.35,4.27,1.8,1.8,3.23,3.92,4.28,6.35,1.05,2.43,1.58,5.03,1.58,7.8s-.52,5.34-1.57,7.77-2.47,4.55-4.27,6.36c-1.8,1.81-3.92,3.24-6.35,4.29-2.43,1.05-5.03,1.58-7.8,1.58Zm0-2.65c4.83,0,8.94-1.69,12.3-5.06,3.37-3.37,5.05-7.47,5.05-12.29,0-4.83-1.68-8.94-5.05-12.3-3.37-3.37-7.47-5.05-12.3-5.05-4.82,0-8.92,1.68-12.29,5.05-3.37,3.37-5.06,7.47-5.06,12.3s1.69,8.92,5.06,12.29c3.37,3.37,7.47,5.06,12.29,5.06Z"/>
</svg>