<?xml version="1.0" encoding="UTF-8"?>
<svg id="Capa_1" data-name="Capa 1" xmlns="http://www.w3.org/2000/svg" viewBox="0 0 40 40">
  <defs>
    <style>
      .cls-1 {
        fill: none;
      }
    </style>
  </defs>
  <rect class="cls-1" width="40" height="40"/>
  <path d="m36.78,30.13c-.66-.66-1.45-1.05-2.37-1.05h-3.16l-1.45-9.87h4.08c.39,0,.66-.13.92-.39s.39-.53.39-.92-.13-.79-.39-1.05c-.26-.26-.53-.39-.92-.39h-4.05L33.49.13c-1.18.92-2.37,1.58-3.42,2.11-1.05.39-2.24.66-3.42.66s-2.37-.26-3.55-.79S20.86.92,19.93,0c-1.05.92-2.11,1.58-3.16,2.11s-2.24.79-3.55.79c-1.18,0-2.37-.26-3.55-.79C8.62,1.58,7.43.92,6.38,0l3.55,16.45h-3.95c-.39,0-.66.13-.92.39s-.39.53-.39.92.13.79.39,1.05c.26.26.53.39.92.39h4.21l-1.45,9.87h-3.16c-.92,0-1.71.39-2.37,1.05s-1.05,1.45-1.05,2.37v5.79c0,.39,0,.75.39,1.23.53.49.79.49,1.32.49h32.24c.39,0,.82.1,1.28-.36.43-.47.43-.82.43-1.35v-5.79c0-.92-.39-1.71-1.05-2.37Zm-8.29-1.05H11.51l1.32-9.87h14.21l1.45,9.87ZM10.46,5.13c.39.13.92.13,1.45.26.53.13,1.05.13,1.58.13,1.18,0,2.24-.13,3.42-.53,1.05-.39,2.11-.79,3.03-1.45.92.66,1.97,1.18,3.03,1.45,1.18.39,2.24.53,3.42.53h1.45c.53,0,1.05-.13,1.58-.26l-2.47,11.18h-13.95l-2.53-11.32Zm24.61,32.11H4.93v-4.74c0-.26,0-.39.13-.53.13-.13.39-.13.53-.13h28.83c.26,0,.4,0,.52.13.13.13.13.39.13.53v4.74Z"/>
</svg>