<?xml version="1.0" encoding="UTF-8"?>
<svg id="Capa_1" data-name="Capa 1" xmlns="http://www.w3.org/2000/svg" viewBox="0 0 40 40">
  <defs>
    <style>
      .cls-1 {
        fill: none;
      }
    </style>
  </defs>
  <rect class="cls-1" width="40" height="40"/>
  <g>
    <path d="m26.71,16.58c-.38,0-.63.13-.89.38l-5.82,5.7-5.7-5.7c-.25-.25-.51-.38-.89-.38s-.63.13-.89.38-.38.63-.38.89c0,.38.13.63.38,1.01l6.46,6.46h0l.17.17h0c.26.23.59.38.97.38.35,0,.67-.13.92-.34h0s.09-.08.09-.08l.42-.44,6.03-6.27c.25-.25.38-.63.38-.89,0-.38-.13-.63-.38-.89s-.63-.38-.89-.38Z"/>
    <path d="m38.48,12.15c-1.01-2.41-2.53-4.56-4.3-6.33s-3.92-3.29-6.33-4.3C25.32.51,22.78,0,20,0s-5.44.51-7.85,1.52c-2.41,1.01-4.56,2.53-6.33,4.3s-3.29,3.92-4.3,6.33C.51,14.68,0,17.22,0,20s.51,5.44,1.52,7.85c1.01,2.41,2.53,4.56,4.3,6.33,1.77,1.77,3.8,3.29,6.33,4.3s5.06,1.52,7.85,1.52,5.44-.51,7.85-1.52c2.41-1.01,4.56-2.53,6.33-4.3s3.29-3.92,4.3-6.33c1.01-2.53,1.52-5.06,1.52-7.85s-.51-5.44-1.52-7.85Zm-6.2,20.13c-3.29,3.42-7.47,5.06-12.28,5.06s-8.99-1.65-12.28-5.06c-3.42-3.29-5.06-7.47-5.06-12.28s1.65-8.86,5.06-12.28c3.29-3.42,7.47-5.06,12.28-5.06s8.86,1.65,12.28,5.06c3.42,3.29,5.06,7.47,5.06,12.28s-1.65,8.86-5.06,12.28Z"/>
  </g>
</svg>