<?xml version="1.0" encoding="UTF-8"?>
<svg id="Capa_1" data-name="Capa 1" xmlns="http://www.w3.org/2000/svg" viewBox="0 0 40 40">
  <defs>
    <style>
      .cls-1 {
        fill: none;
      }
    </style>
  </defs>
  <rect class="cls-1" width="40" height="40"/>
  <path d="m20,17.34l5.7,5.7c.25.25.51.38.89.38s.63-.13.89-.38c.25-.25.38-.63.38-.89,0-.38-.13-.63-.38-1.01l-6.46-6.46c-.38-.38-.76-.51-1.14-.51s-.89.13-1.14.51l-6.33,6.58c-.25.25-.38.63-.38.89,0,.38.13.63.38.89s.63.38.89.38.63-.13.89-.38l5.82-5.7Zm0,22.66c-2.78,0-5.32-.51-7.85-1.52-2.41-1.01-4.56-2.53-6.33-4.3-1.77-1.77-3.29-3.92-4.3-6.33s-1.52-5.06-1.52-7.85.51-5.32,1.52-7.85c1.01-2.41,2.53-4.56,4.3-6.33,1.77-1.77,3.92-3.29,6.33-4.3S17.22,0,20,0s5.32.51,7.85,1.52,4.56,2.53,6.33,4.3c1.77,1.77,3.29,3.92,4.3,6.33s1.52,5.06,1.52,7.85-.51,5.32-1.52,7.85c-1.01,2.41-2.53,4.56-4.3,6.33-1.77,1.77-3.92,3.29-6.33,4.3-2.53,1.01-5.06,1.52-7.85,1.52Zm0-2.66c4.81,0,8.99-1.65,12.28-5.06,3.42-3.42,5.06-7.47,5.06-12.28s-1.65-8.99-5.06-12.28c-3.42-3.42-7.47-5.06-12.28-5.06s-8.99,1.65-12.28,5.06c-3.42,3.42-5.06,7.47-5.06,12.28s1.65,8.99,5.06,12.28c3.29,3.42,7.47,5.06,12.28,5.06Z"/>
</svg>