<?xml version="1.0" encoding="UTF-8"?>
<svg id="Capa_1" data-name="Capa 1" xmlns="http://www.w3.org/2000/svg" viewBox="0 0 40 40">
  <defs>
    <style>
      .cls-1 {
        fill: none;
      }
    </style>
  </defs>
  <rect class="cls-1" width="40" height="40"/>
  <path d="m17.34,20l5.7-5.7c.25-.25.38-.51.38-.89s-.13-.63-.38-.89c-.25-.25-.63-.38-.89-.38-.38,0-.63.13-1.01.38l-6.46,6.46c-.38.38-.51.76-.51,1.14s.13.89.51,1.14l6.58,6.33c.25.25.63.38.89.38.38,0,.63-.13.89-.38.25-.25.38-.63.38-.89,0-.38-.13-.63-.38-.89l-5.7-5.82ZM20,0C22.78,0,25.32.51,27.85,1.52c2.41,1.01,4.56,2.53,6.33,4.3,1.77,1.77,3.29,3.92,4.3,6.33,1.01,2.41,1.52,5.06,1.52,7.85s-.51,5.32-1.52,7.85c-1.01,2.41-2.53,4.56-4.3,6.33-1.77,1.77-3.92,3.29-6.33,4.3-2.41,1.01-5.06,1.52-7.85,1.52s-5.32-.51-7.85-1.52c-2.41-1.01-4.56-2.53-6.33-4.3s-3.29-3.92-4.3-6.33-1.52-5.06-1.52-7.85.51-5.32,1.52-7.85,2.53-4.56,4.3-6.33,3.92-3.29,6.33-4.3C14.68.51,17.22,0,20,0Zm0,2.66c-4.81,0-8.99,1.65-12.28,5.06-3.42,3.42-5.06,7.47-5.06,12.28s1.65,8.99,5.06,12.28c3.42,3.42,7.47,5.06,12.28,5.06s8.99-1.65,12.28-5.06c3.42-3.42,5.06-7.47,5.06-12.28s-1.65-8.99-5.06-12.28c-3.29-3.42-7.47-5.06-12.28-5.06Z"/>
</svg>