<?xml version="1.0" encoding="UTF-8"?>
<svg id="Capa_1" data-name="Capa 1" xmlns="http://www.w3.org/2000/svg" viewBox="0 0 40 40">
  <defs>
    <style>
      .cls-1 {
        fill: none;
      }
    </style>
  </defs>
  <circle cx="1.89" cy="33.7" r="1.89"/>
  <g>
    <rect class="cls-1" x="0" width="40" height="40"/>
    <g>
      <path d="m14.97,21.12c-3.65-3.65-8.46-5.68-13.62-6.05v.02s-.06-.02-.09-.02c-.7,0-1.26.56-1.26,1.26,0,.35.14.66.37.89h0c.25.25.5.38.88.38,4.4.25,8.56,2.01,11.71,5.16,3.02,3.14,4.78,7.04,5.16,11.45,0,.03.01.05.01.07,0,.03,0,.05,0,.08,0,.76.62,1.38,1.38,1.38s1.38-.62,1.38-1.38c0,0,0-.02,0-.03h0c-.38-5.16-2.26-9.56-5.91-13.21Z"/>
      <path d="m39,5.27c-.63-.63-1.38-1.01-2.26-1.01H3.4c-.88,0-1.64.38-2.26,1.01S.13,6.65.13,7.53v2.39h1.38c.38,0,.88.13,1.26.13v-2.64c0-.13,0-.38.13-.5s.38-.13.5-.13h33.21c.25,0,.38,0,.5.13s.13.38.13.5v25.03c0,.25,0,.38-.13.5s-.38.13-.5.13h-11.07c0,.38.13.75.13,1.26v1.26h10.94c1.01,0,1.76-.38,2.39-.88.63-.63,1.01-1.38,1.01-2.26V7.53c0-.88-.38-1.64-1.01-2.26Z"/>
      <path d="m12.33,34.32c-.25-2.89-1.51-5.41-3.52-7.54-2.14-2.14-4.54-3.4-7.43-3.65h0s-.04,0-.06,0C.59,23.13,0,23.72,0,24.45c0,.67.51,1.2,1.16,1.29v.02c2.26.25,4.38,1.14,5.89,2.77,1.51,1.63,2.51,3.52,2.77,5.78,0,0,0,0,0,0,0,.7.56,1.26,1.26,1.26s1.26-.56,1.26-1.26h0s0,0,0,0c0,0,0,0,0,0,0,0,0,0,0,0Z"/>
    </g>
  </g>
</svg>