<?xml version="1.0" encoding="UTF-8"?>
<svg id="Capa_1" data-name="Capa 1" xmlns="http://www.w3.org/2000/svg" viewBox="0 0 40 40">
  <defs>
    <style>
      .cls-1 {
        fill: none;
      }
    </style>
  </defs>
  <rect class="cls-1" width="40" height="40"/>
  <path d="m3.56,39.88c-.7,0-1.28-.23-1.75-.7-.47-.47-.7-1.05-.7-1.75v-10.61c0-.47.12-.93.35-1.28.23-.35.58-.7,1.05-.93l6.41-2.8v-4.9c0-.47.12-.93.35-1.28s.58-.7.93-.93l8.75-4.2v-4.2h-2.68c-.35,0-.58-.12-.82-.35-.23-.23-.35-.58-.35-.93s.12-.58.35-.82c.23-.23.47-.35.82-.35h2.68V1.17c0-.35.12-.58.35-.82.23-.23.47-.35.82-.35s.58.12.82.35c.23.23.35.47.35.82v2.68h2.68c.35,0,.58.12.82.35.23.23.35.58.35.82,0,.35-.12.58-.35.82-.23.23-.47.35-.82.35h-2.68v4.31l8.51,4.31c.35.23.7.47.93.93.23.35.35.82.35,1.28v4.9l6.41,2.8c.47.23.82.47,1.05.93.23.35.35.82.35,1.28v10.61c0,.7-.23,1.28-.7,1.75-.47.47-1.05.7-1.75.7h-13.64v-7.35c0-.7-.23-1.4-.82-1.87-.47-.47-1.17-.82-1.87-.82s-1.4.23-1.87.82c-.47.47-.82,1.17-.82,1.87v7.35l-13.88-.12h0Zm0-2.33h11.43v-5.01c0-1.4.47-2.68,1.52-3.62,1.05-1.05,2.22-1.52,3.62-1.52s2.68.47,3.62,1.52c1.05,1.05,1.52,2.22,1.52,3.62v5.01h11.43v-10.73l-7.93-3.5v-6.53l-8.63-4.43-8.63,4.43v6.53l-7.93,3.5v10.73Zm16.56-14.11c.7,0,1.28-.23,1.75-.7s.7-1.05.7-1.75-.23-1.28-.7-1.75-1.05-.7-1.75-.7-1.28.23-1.75.7-.7,1.05-.7,1.75.23,1.28.7,1.75,1.05.7,1.75.7Z"/>
</svg>