<?xml version="1.0" encoding="UTF-8"?>
<svg id="Capa_1" data-name="Capa 1" xmlns="http://www.w3.org/2000/svg" viewBox="0 0 40 40">
  <defs>
    <style>
      .cls-1 {
        fill: none;
      }

      .cls-2 {
        fill: #010101;
      }
    </style>
  </defs>
  <rect class="cls-1" x="0" width="40" height="40"/>
  <g>
    <path class="cls-2" d="m4.92,15.79c.75-.42,1.67-.58,2.58-.58,1.42,0,2.67.5,3.67,1.58l1.67-1.58c-.58-.75-1.42-1.33-2.33-1.75-.92-.42-1.92-.58-3.08-.58-1.33,0-2.58.25-3.75.92-1.17.67-2,1.5-2.67,2.58-.67,1.08-1,2.33-1,3.67s.33,2.58.92,3.58c.67,1.08,1.5,2,2.67,2.58,1.17.67,2.42.92,3.75.92,1.08,0,2.17-.17,3.08-.58,1-.42,1.75-1,2.42-1.75l-1.67-1.58c-1,1.08-2.17,1.67-3.67,1.67-1,0-1.83-.17-2.58-.58-.75-.42-1.33-1-1.75-1.75s-.67-1.58-.67-2.5.25-1.75.67-2.5,1-1.33,1.75-1.75Z"/>
    <rect class="cls-2" x="15.33" y="13.12" width="2.58" height="13.83"/>
    <rect class="cls-2" x="21.67" y="13.12" width="2.58" height="13.83"/>
    <path class="cls-2" d="m37.5,13.12v7.75c0,2.75-1.17,4.08-3.5,4.08s-3.5-1.33-3.5-4.08v-7.75h-2.58v7.83c0,2,.5,3.5,1.58,4.58,1.08,1.08,2.5,1.58,4.42,1.58s3.42-.5,4.5-1.58c1.08-1,1.58-2.58,1.58-4.58v-7.83h-2.5Z"/>
  </g>
</svg>