<?xml version="1.0" encoding="UTF-8"?>
<svg id="Capa_1" data-name="Capa 1" xmlns="http://www.w3.org/2000/svg" viewBox="0 0 40 40">
  <defs>
    <style>
      .cls-1 {
        fill: none;
      }
    </style>
  </defs>
  <rect class="cls-1" width="40" height="40"/>
  <path d="m25.76,6.08v13.59h8.8c.78,0,1.42.26,1.94.78s.78,1.17.78,1.94v14.89c0,.78-.26,1.42-.78,1.94-.52.52-1.17.78-1.94.78H5.44c-.78,0-1.42-.26-1.94-.78-.52-.52-.78-1.17-.78-1.94V13.59c0-.78.26-1.42.78-1.94s1.17-.78,1.94-.78h8.8v-5.31s0-.65.39-1.04c.13-.13.26-.26.39-.39l3.75-3.62c.39-.26.69-.51,1.08-.51.52,0,.83.16,1.25.51l3.75,3.62s.91.6.91,1.94ZM5.44,37.28h6.08v-6.08h-6.08v6.08Zm0-8.8h6.08v-6.08h-6.08v6.08Zm0-8.8h6.08v-6.08h-6.08s0,6.08,0,6.08Zm11.52,17.61h6.08v-6.08h-6.08v6.08Zm0-8.8h6.08v-6.08h-6.08v6.08Zm0-8.8h6.08v-6.08h-6.08v6.08Zm0-8.8h6.08v-6.08h-6.08v6.08Zm11.39,26.41h6.08v-6.08h-6.08v6.08Zm0-8.8h6.08v-6.08h-6.08v6.08ZM18.77.51c.39-.26.5-.51,1.23-.51.52,0,.68.15,1.1.51"/>
</svg>