<?xml version="1.0" encoding="UTF-8"?>
<svg id="Capa_1" data-name="Capa 1" xmlns="http://www.w3.org/2000/svg" viewBox="0 0 40 40">
  <defs>
    <style>
      .cls-1 {
        fill: none;
      }
    </style>
  </defs>
  <rect class="cls-1" width="40" height="40"/>
  <g>
    <path d="m36.84-.13H3.32C1.44-.04-.07,1.52-.07,3.42v.24s0,32.68,0,32.68v.11c0,1.96,1.59,3.55,3.55,3.55,0,0,0,0,0,0,0,0,0,0,0,0h33.14c1.85-.06,3.35-1.54,3.44-3.38V3.28c-.06-1.79-1.46-3.25-3.23-3.4Zm.27,33.08v3.27c0,.46-.38.84-.84.84H3.75c-.46,0-.84-.37-.84-.84v-3.27s-.01-26-.01-26v-3.3c0-.46.38-.84.84-.84h29.28s3.25,0,3.25,0c.46,0,.84.37.84.84v3.27s0,26.03,0,26.03Z"/>
    <path d="m29.06,17.75s0,0,0,0c0,0,0,0,0,0h-6.78v-6.76c0-.13-.02-.27-.05-.4-.19-1.05-1.11-1.85-2.21-1.85,0,0,0,0,0,0h0c-1.11,0-2.03.8-2.21,1.86-.03.13-.05.26-.05.39v6.76h-6.78s0,0,0,0c0,0,0,0,0,0-1.24,0-2.25,1.01-2.25,2.25s1.01,2.25,2.25,2.25c0,0,0,0,0,0,0,0,0,0,0,0h6.78v6.76s0,.05,0,.07c0,0,0,0,0,0,0,1.24,1.01,2.25,2.25,2.25s2.25-1.01,2.25-2.25c0,0,0,0,0,0,0-.02,0-.05,0-.07v-6.76h6.78s0,0,0,0c0,0,0,0,0,0,1.24,0,2.25-1.01,2.25-2.25s-1.01-2.25-2.25-2.25Z"/>
  </g>
</svg>