<?xml version="1.0" encoding="UTF-8"?>
<svg id="Capa_1" data-name="Capa 1" xmlns="http://www.w3.org/2000/svg" viewBox="0 0 40 40">
  <defs>
    <style>
      .cls-1 {
        fill: none;
      }
    </style>
  </defs>
  <rect class="cls-1" x="0" width="40" height="40"/>
  <path d="m29.61,40c-2.46,0-4.56-.86-6.28-2.59-1.72-1.72-2.59-3.82-2.59-6.28s.86-4.56,2.59-6.28c1.72-1.72,3.82-2.59,6.27-2.59s4.56.86,6.29,2.59c1.72,1.72,2.59,3.82,2.59,6.27s-.86,4.56-2.59,6.29c-1.72,1.72-3.82,2.59-6.28,2.59Zm.68-9.09v-4.73c0-.24-.09-.45-.26-.62-.18-.17-.38-.26-.61-.26s-.45.09-.63.27c-.18.18-.27.39-.27.63v4.76c0,.19.04.39.11.58.07.19.19.38.34.54l3.17,3.21c.17.18.37.27.61.28.24,0,.46-.09.65-.28.18-.18.27-.39.27-.62,0-.23-.09-.45-.27-.64,0,0-3.12-3.12-3.12-3.12Zm-25.59,7.06c-.87,0-1.61-.31-2.24-.94-.63-.63-.94-1.37-.94-2.24V6.61c0-.9.31-1.65.92-2.26s1.36-.92,2.26-.92h9.82c.21-.99.71-1.81,1.51-2.46.8-.65,1.72-.98,2.76-.98s1.99.33,2.78.98c.79.65,1.29,1.47,1.5,2.46h9.81c.9,0,1.65.31,2.26.92s.92,1.36.92,2.26v13.89c-.43-.24-.85-.44-1.25-.62-.41-.18-.84-.34-1.3-.48V6.61c0-.16-.07-.3-.2-.43-.13-.13-.27-.2-.43-.2h-3.96v2.98c0,.45-.15.83-.45,1.13-.3.3-.68.46-1.13.46H10.24c-.45,0-.82-.15-1.13-.46-.3-.3-.45-.68-.45-1.13v-2.98h-3.96c-.16,0-.3.07-.43.2-.13.13-.2.27-.2.43v28.18c0,.18.06.33.18.45.12.12.27.18.45.18h13.28c.14.45.31.88.51,1.29.19.41.43.83.72,1.26H4.7ZM18.79,6.22c.52,0,.96-.18,1.31-.53.35-.35.53-.79.53-1.31s-.18-.96-.53-1.31c-.35-.35-.79-.53-1.31-.53s-.96.18-1.31.53c-.35.35-.53.79-.53,1.31,0,.52.18.96.53,1.31s.79.53,1.31.53Z"/>
</svg>