<?xml version="1.0" encoding="UTF-8"?>
<svg id="Capa_1" data-name="Capa 1" xmlns="http://www.w3.org/2000/svg" viewBox="0 0 40 40">
  <defs>
    <style>
      .cls-1 {
        fill: none;
      }
    </style>
  </defs>
  <rect class="cls-1" width="40" height="40"/>
  <path d="m25.93,34.28l11.53-11.53c.26-.26.57-.39.94-.39s.69.14.96.41.41.59.41.96-.14.69-.41.95l-12.25,12.25c-.34.33-.73.5-1.17.5s-.84-.17-1.17-.5l-5.97-5.97c-.26-.26-.39-.57-.39-.95s.14-.7.41-.97c.27-.27.59-.41.96-.41s.69.14.96.41l5.21,5.23Zm-22.33,5.72c-.94,0-1.74-.32-2.38-.97s-.97-1.44-.97-2.38V6.97c0-.94.32-1.74.97-2.38s1.44-.97,2.38-.97h10.35c.22-1.04.75-1.91,1.59-2.59.84-.69,1.81-1.03,2.91-1.03s2.09.34,2.93,1.03c.83.69,1.36,1.55,1.58,2.59h10.34c.94,0,1.74.32,2.38.97s.97,1.44.97,2.38v8.88c0,.38-.13.7-.39.96-.26.26-.58.39-.96.39s-.7-.13-.96-.39c-.25-.26-.38-.58-.38-.96V6.97c0-.16-.07-.32-.21-.45-.14-.14-.29-.21-.45-.21h-4.17v3.14c0,.47-.16.87-.48,1.19-.32.32-.71.48-1.19.48H9.43c-.47,0-.87-.16-1.19-.48-.32-.32-.48-.72-.48-1.19v-3.14H3.59c-.16,0-.32.07-.45.21-.14.14-.21.29-.21.45v29.68c0,.16.07.32.21.45.14.14.29.21.45.21h11.12c.38,0,.7.13.96.39.26.26.39.58.39.96,0,.38-.13.7-.39.96-.26.25-.58.38-.96.38,0,0-11.12,0-11.12,0ZM18.44,6.56c.55,0,1.01-.19,1.38-.56.37-.37.55-.83.55-1.38s-.19-1.01-.56-1.38c-.37-.37-.83-.55-1.38-.55s-1.01.19-1.38.56c-.37.37-.55.83-.55,1.38,0,.55.19,1.01.56,1.38s.83.55,1.38.55Z"/>
</svg>