<?xml version="1.0" encoding="UTF-8"?>
<svg id="Capa_1" data-name="Capa 1" xmlns="http://www.w3.org/2000/svg" viewBox="0 0 40 40">
  <defs>
    <style>
      .cls-1 {
        fill: none;
      }
    </style>
  </defs>
  <rect class="cls-1" width="40" height="40"/>
  <path d="m5.4,40c-.9,0-1.67-.32-2.32-.97-.65-.65-.97-1.42-.97-2.32V7.5c0-.9.32-1.67.97-2.32.65-.65,1.42-.97,2.32-.97h10.32c0-1.15.41-2.13,1.24-2.96.83-.83,1.85-1.25,3.05-1.25s2.23.42,3.05,1.25c.83.83,1.24,1.82,1.22,2.96h10.32c.9,0,1.67.32,2.32.97.65.65.97,1.42.97,2.32v29.2c0,.9-.32,1.67-.97,2.32-.65.65-1.42.97-2.32.97H5.4Zm0-2.65h29.2c.16,0,.31-.07.45-.2.13-.13.2-.28.2-.45V7.5c0-.16-.07-.31-.2-.45-.13-.13-.28-.2-.45-.2H5.4c-.16,0-.31.07-.45.2-.13.13-.2.28-.2.45v29.2c0,.16.07.31.2.45.13.13.28.2.45.2Zm5.92-5.49h10.86c.37,0,.69-.13.94-.38.25-.25.38-.57.38-.95s-.13-.69-.38-.94c-.25-.25-.57-.38-.94-.38h-10.86c-.37,0-.69.13-.94.38s-.38.57-.38.95.13.69.38.94c.25.25.57.38.94.38Zm0-8.43h17.35c.37,0,.69-.13.94-.38.25-.25.38-.57.38-.95s-.13-.69-.38-.94c-.25-.25-.57-.38-.94-.38H11.32c-.37,0-.69.13-.94.38-.25.25-.38.57-.38.95s.13.69.38.94.57.38.94.38Zm0-8.43h17.35c.37,0,.69-.13.94-.38.25-.25.38-.57.38-.95s-.13-.69-.38-.94c-.25-.25-.57-.38-.94-.38H11.32c-.37,0-.69.13-.94.38-.25.25-.38.57-.38.95s.13.69.38.94c.25.25.57.38.94.38Zm8.67-9.18c.47,0,.87-.17,1.21-.5.34-.33.51-.73.51-1.21s-.17-.88-.51-1.21c-.34-.33-.74-.5-1.21-.5s-.87.17-1.2.5c-.33.33-.5.73-.5,1.21,0,.48.17.88.5,1.21.33.33.73.5,1.2.5Zm-15.25,31.54V6.86s0,30.5,0,30.5Z"/>
</svg>