<?xml version="1.0" encoding="UTF-8"?>
<svg id="Capa_1" data-name="Capa 1" xmlns="http://www.w3.org/2000/svg" viewBox="0 0 40 40">
  <defs>
    <style>
      .cls-1 {
        fill: none;
      }
    </style>
  </defs>
  <rect class="cls-1" width="40" height="40"/>
  <path d="m6.62,40c-.91,0-1.69-.39-2.34-1.04s-1.04-1.43-1.04-2.34V9.35c0-.39.13-.65.39-.91.26-.26.65-.39.91-.39.39,0,.65.13.91.39s.39.52.39.91v27.27c0,.13.13.26.26.52.13.13.26.26.52.26h20.52c.39,0,.65.13.91.39s.39.65.39.91c0,.39-.13.65-.39.91-.26.26-.52.39-.91.39,0,0-20.52,0-20.52,0Zm6.49-6.49c-.91,0-1.69-.39-2.34-1.04s-1.04-1.43-1.04-2.34V3.38c0-.91.39-1.69,1.04-2.34s1.43-1.04,2.34-1.04h20.26c.91,0,1.69.39,2.34,1.04s1.04,1.43,1.04,2.34v26.75c0,.91-.39,1.69-1.04,2.34s-1.43,1.04-2.34,1.04H13.12Zm0-2.73h20.26c.13,0,.26-.13.52-.26.13-.13.26-.26.26-.52V3.38c0-.13-.13-.26-.26-.52-.13-.13-.26-.26-.52-.26H13.12c-.13,0-.26.13-.52.26-.13.13-.26.26-.26.52v26.75c0,.13.13.26.26.52.26,0,.39.13.52.13Zm-.65,0V2.73v28.05Z"/>
</svg>