<?xml version="1.0" encoding="UTF-8"?>
<svg id="Capa_1" data-name="Capa 1" xmlns="http://www.w3.org/2000/svg" viewBox="0 0 40 40">
  <defs>
    <style>
      .cls-1 {
        fill: none;
      }
    </style>
  </defs>
  <rect class="cls-1" width="40" height="40"/>
  <path d="m3.68,37.65c-1.01,0-1.88-.36-2.6-1.08-.72-.72-1.08-1.59-1.08-2.6V6.03c0-1.01.36-1.88,1.08-2.6s1.59-1.08,2.6-1.08h32.64c1.01,0,1.88.36,2.6,1.08s1.08,1.59,1.08,2.6v27.93c0,1.01-.36,1.88-1.08,2.6-.72.72-1.59,1.08-2.6,1.08H3.68Zm0-2.96h32.64c.18,0,.35-.08.5-.23.15-.15.23-.32.23-.5V6.03c0-.18-.08-.35-.23-.5-.15-.15-.32-.23-.5-.23H3.68c-.18,0-.35.08-.5.23-.15.15-.23.32-.23.5v27.93c0,.18.08.35.23.5.15.15.32.23.5.23Zm5.17-8.02h6.79c.6,0,1.11-.21,1.53-.63.42-.42.63-.93.63-1.53v-.72c0-.31-.1-.57-.31-.77-.2-.2-.46-.31-.76-.31h-.39c-.31,0-.56.1-.76.31-.2.2-.3.46-.3.76,0,.09-.04.17-.11.25-.08.08-.16.11-.25.11h-5.34c-.09,0-.17-.04-.25-.11-.08-.08-.11-.16-.11-.25v-7.58c0-.09.04-.17.11-.25.08-.08.16-.11.25-.11h5.34c.09,0,.17.04.25.11.08.08.11.16.11.25,0,.31.1.56.3.77.2.2.45.3.76.3h.39c.3,0,.56-.1.76-.31.21-.2.31-.46.31-.77v-.72c0-.6-.21-1.11-.63-1.53-.42-.42-.93-.63-1.53-.63h-6.79c-.6,0-1.11.21-1.53.63-.42.42-.63.93-.63,1.53v9.03c0,.6.21,1.11.63,1.53.42.42.93.63,1.53.63Zm22.32-13.35h-6.78c-.6,0-1.11.21-1.53.63-.42.42-.63.93-.63,1.53v9.03c0,.6.21,1.11.63,1.53.42.42.93.63,1.53.63h6.78c.6,0,1.11-.21,1.53-.63.42-.42.63-.93.63-1.53v-.72c0-.31-.1-.57-.31-.77-.2-.2-.45-.31-.75-.31h-.39c-.3,0-.56.1-.76.31-.2.2-.31.46-.31.76,0,.09-.04.17-.11.25-.08.08-.16.11-.25.11h-5.33c-.09,0-.17-.04-.25-.11-.08-.08-.11-.16-.11-.25v-7.58c0-.09.04-.17.11-.25.08-.08.16-.11.25-.11h5.33c.09,0,.17.04.25.11.08.08.11.16.11.25,0,.31.1.56.31.77.21.2.46.3.76.3h.39c.29,0,.54-.1.75-.31.2-.2.31-.46.31-.77v-.72c0-.6-.21-1.11-.63-1.53-.42-.42-.93-.63-1.53-.63ZM2.96,34.69V5.31v29.38Z"/>
</svg>