<?xml version="1.0" encoding="UTF-8"?>
<svg id="Capa_1" data-name="Capa 1" xmlns="http://www.w3.org/2000/svg" viewBox="0 0 40 40">
  <defs>
    <style>
      .cls-1 {
        fill: none;
      }
    </style>
  </defs>
  <rect class="cls-1" x="0" width="40" height="40"/>
  <path d="m19.98,8.64c-.34,0-.63-.11-.85-.34-.23-.23-.34-.51-.34-.86V3.02c0-.34.12-.63.35-.86.23-.23.52-.34.86-.34s.63.11.85.34c.23.23.34.51.34.86v4.42c0,.34-.12.63-.35.86-.23.23-.52.34-.86.34Zm9.33,3.88c-.24-.24-.36-.53-.36-.86s.12-.62.36-.86l3.09-3.1c.25-.25.54-.37.87-.37.33,0,.62.12.87.37.24.24.36.52.36.84s-.12.6-.36.84l-3.14,3.14c-.24.24-.52.36-.84.36s-.6-.12-.84-.36Zm5.08,10.52c-.34,0-.63-.12-.86-.35-.23-.23-.34-.52-.34-.86s.11-.63.34-.85c.23-.23.51-.34.86-.34h4.42c.34,0,.63.12.86.35.23.23.34.52.34.86s-.11.63-.34.85c-.23.23-.51.34-.86.34h-4.42Zm-1.95,12.95l-3.11-3.1c-.23-.24-.35-.53-.35-.86s.12-.62.35-.86c.24-.24.53-.36.87-.36s.63.12.87.36l3.09,3.09c.25.25.37.54.37.87s-.13.62-.38.87c-.24.25-.53.37-.86.37-.33,0-.62-.12-.86-.37ZM8.99,12.53l-3.16-3.16c-.24-.24-.36-.53-.36-.85s.12-.61.36-.84c.24-.25.53-.37.85-.37.32,0,.6.12.85.37l3.13,3.14c.24.24.37.53.37.85,0,.33-.11.61-.35.85-.24.24-.52.36-.84.36s-.6-.12-.84-.36Zm.08,23.25h8.23c1.05,0,1.95-.37,2.69-1.11.74-.74,1.11-1.64,1.11-2.69,0-1.05-.36-1.95-1.08-2.7-.72-.75-1.61-1.12-2.66-1.12h-1.98l-.78-1.82c-.49-1.14-1.26-2.05-2.29-2.72-1.03-.67-2.18-1.01-3.43-1.01-1.81,0-3.34.63-4.6,1.89-1.26,1.26-1.89,2.79-1.89,4.59s.65,3.44,1.94,4.74c1.29,1.3,2.87,1.94,4.73,1.94Zm0,2.4c-2.51,0-4.65-.89-6.42-2.66C.89,33.76,0,31.62,0,29.11c0-2.47.86-4.57,2.59-6.3,1.73-1.73,3.83-2.59,6.3-2.59,1.78,0,3.41.51,4.88,1.52,1.47,1.01,2.54,2.35,3.2,4.03,1.76,0,3.28.59,4.56,1.76s1.92,2.72,1.93,4.62c-.09,1.68-.71,3.1-1.89,4.27s-2.59,1.76-4.27,1.76c0,0-8.23,0-8.23,0Zm14.35-6.4c-.09-.4-.18-.8-.27-1.18-.09-.38-.18-.78-.27-1.18,1.57-.63,2.83-1.63,3.78-3,.95-1.37,1.43-2.9,1.43-4.58,0-2.25-.79-4.16-2.37-5.74-1.58-1.58-3.49-2.37-5.73-2.37-2.06,0-3.85.67-5.39,2.01-1.53,1.34-2.41,3.03-2.62,5.06-.41-.1-.82-.18-1.24-.26-.42-.08-.83-.16-1.24-.26.37-2.61,1.56-4.75,3.55-6.44,2-1.68,4.31-2.53,6.93-2.53,2.91,0,5.39,1.02,7.44,3.07,2.04,2.04,3.07,4.53,3.07,7.45,0,2.26-.65,4.29-1.94,6.09-1.29,1.81-3,3.09-5.12,3.84Z"/>
</svg>