<?xml version="1.0" encoding="UTF-8"?>
<svg id="Capa_1" data-name="Capa 1" xmlns="http://www.w3.org/2000/svg" viewBox="0 0 40 40">
  <defs>
    <style>
      .cls-1 {
        fill: none;
      }
    </style>
  </defs>
  <rect class="cls-1" width="40" height="40"/>
  <path d="m9.37,34.17c-2.63,0-4.8-.91-6.63-2.74-1.83-1.83-2.74-4-2.74-6.63,0-2.4.8-4.46,2.29-6.17,1.6-1.83,3.43-2.74,5.83-3.09.34-2.51,1.6-4.8,3.77-6.74,2.06-2.06,4.46-2.97,6.97-2.97.69,0,1.26.23,1.71.57.46.46.69.91.69,1.6v13.94l3.09-3.09c.23-.23.46-.34.8-.34s.57.11.91.34c.23.23.34.57.34.91s-.11.57-.34.8l-4.91,4.91c-.11.11-.34.23-.46.34-.11.11-.34.11-.57.11s-.34,0-.57-.11-.34-.23-.46-.34l-4.91-4.91c-.23-.23-.34-.46-.34-.8s.11-.57.34-.91c.23-.23.57-.34.8-.34.34,0,.57.11.8.34l3.09,3.09v-13.83c-2.51.23-4.69,1.37-6.29,3.31-1.6,2.06-2.4,4.11-2.4,6.4h-.91c-1.94,0-3.54.69-4.8,2.06-1.37,1.37-2.06,2.97-2.06,4.91s.69,3.54,2.06,4.91c1.37,1.37,2.97,1.94,4.91,1.94h23.31c1.37,0,2.51-.46,3.54-1.49.91-.91,1.49-2.17,1.49-3.54s-.46-2.51-1.49-3.54c-.91-.91-2.17-1.49-3.54-1.49h-2.97v-3.89c0-1.83-.46-3.54-1.26-4.91-.91-1.49-1.94-2.63-3.43-3.54v-2.51c2.17.91,3.89,2.4,5.14,4.46,1.26,2.06,1.94,4.23,1.94,6.63v1.49h.57c2.06,0,3.77.69,5.14,2.06,1.37,1.37,2.17,3.2,2.17,5.26s-.69,3.77-2.17,5.26c-1.49,1.49-3.2,2.17-5.26,2.17.23.11-23.2.11-23.2.11Z"/>
</svg>