<?xml version="1.0" encoding="UTF-8"?>
<svg id="Capa_1" data-name="Capa 1" xmlns="http://www.w3.org/2000/svg" viewBox="0 0 40 40">
  <defs>
    <style>
      .cls-1 {
        fill: none;
      }
    </style>
  </defs>
  <rect class="cls-1" width="40" height="40"/>
  <path d="m22.25,38.1h-5.3l.46-.35c.35-.23.69-.58,1.04-.81.35-.35.81-.58,1.04-.81l.46-.35h2.31c2.88,0,5.65-.81,8.18-2.42,2.54-1.61,4.5-3.69,5.88-6.34-2.77-.23-5.53-.92-8.07-2.07s-4.84-2.65-6.8-4.61c-1.96-1.96-3.57-4.27-4.61-6.8-1.15-2.54-1.73-5.19-2.07-7.95-2.65,1.5-4.73,3.46-6.34,5.99-1.61,2.54-2.42,5.3-2.42,8.3v.92c.35,0,.35.35.35.58l-.35.12c-.23.12-.46.23-.81.35-.35.12-.58.23-.81.35l-.35.12c0-.46-.12-.92-.12-1.38v-1.27c0-4.15,1.27-7.95,3.8-11.3,2.54-3.34,5.88-5.42,9.91-6.46-.35,3.11,0,6.11.92,8.99,1.04,2.88,2.54,5.42,4.84,7.61,2.19,2.19,4.73,3.8,7.61,4.84,2.88,1.04,5.88,1.27,8.99.92-1.04,4.03-3.11,7.38-6.46,9.91-3.34,2.65-7.03,3.92-11.3,3.92h0Zm-13.6-2.42h8.65c.92,0,1.73-.35,2.42-.92.69-.69.92-1.38.92-2.42,0-.92-.35-1.73-.92-2.42s-1.38-1.04-2.31-1.04h-2.19l-.81-1.96c-.46-1.15-1.27-2.07-2.31-2.77s-2.19-1.04-3.46-1.04c-1.73,0-3.23.58-4.38,1.84-1.27,1.15-1.84,2.65-1.84,4.38s.58,3.23,1.84,4.38c1.15,1.38,2.65,1.96,4.38,1.96Zm0,2.42c-2.42,0-4.5-.92-6.11-2.54-1.73-1.73-2.54-3.69-2.54-6.11s.81-4.38,2.54-6.11,3.69-2.54,6.11-2.54c1.73,0,3.34.46,4.73,1.38,1.38.92,2.54,2.19,3.23,3.8l.23.58h.58c1.61,0,2.88.58,4.03,1.73s1.61,2.42,1.61,4.03-.58,3-1.73,4.03c-1.15,1.15-2.54,1.73-4.03,1.73h-8.65Z"/>
</svg>