<?xml version="1.0" encoding="UTF-8"?>
<svg id="Capa_1" data-name="Capa 1" xmlns="http://www.w3.org/2000/svg" viewBox="0 0 40 40">
  <defs>
    <style>
      .cls-1 {
        fill: none;
      }
    </style>
  </defs>
  <rect class="cls-1" width="40" height="40"/>
  <path d="m9.37,34.34c-2.63,0-4.8-.91-6.63-2.74-1.83-1.83-2.74-4-2.74-6.63,0-2.29.8-4.34,2.29-6.17,1.49-1.83,3.43-2.86,5.83-3.09.57-2.97,1.94-5.37,4.11-7.2,2.29-1.83,4.8-2.86,7.77-2.86,3.31,0,6.17,1.26,8.57,3.66,2.29,2.4,3.54,5.26,3.54,8.69v1.49h.57c2.06,0,3.77.69,5.14,2.17,1.37,1.37,2.17,3.2,2.17,5.26s-.69,3.77-2.17,5.26c-1.49,1.49-3.2,2.17-5.26,2.17.23,0-23.2,0-23.2,0Zm0-2.4h23.31c1.37,0,2.51-.46,3.54-1.49.91-.91,1.49-2.17,1.49-3.54s-.46-2.51-1.49-3.54c-.91-.91-2.17-1.49-3.54-1.49h-2.97v-3.89c0-2.74-.91-5.14-2.86-6.97-1.94-1.94-4.23-2.86-6.97-2.86s-5.03.91-6.97,2.86c-1.94,1.94-2.86,4.23-2.86,6.97h-.91c-1.94,0-3.54.69-4.8,2.06-1.37,1.37-1.94,2.97-1.94,4.91s.69,3.54,2.06,4.91c1.37,1.37,3.09,2.06,4.91,2.06Z"/>
</svg>