<?xml version="1.0" encoding="UTF-8"?>
<svg id="Capa_1" data-name="Capa 1" xmlns="http://www.w3.org/2000/svg" viewBox="0 0 40 40">
  <defs>
    <style>
      .cls-1 {
        fill: none;
      }
    </style>
  </defs>
  <rect class="cls-1" width="40" height="40"/>
  <path d="m23.68,39.83c-.37.12-.61.25-.98.12-.37-.12-.61-.37-.74-.61l-3.44-6.98c-.12-.37-.12-.61-.12-.98.12-.37.37-.61.61-.74.37-.12.61-.12.98,0s.61.37.74.61l3.44,6.98c.12.37.12.61,0,.98.12.12-.12.37-.49.61h0Zm12.39,0c-.37.12-.61.12-.98,0s-.61-.37-.74-.61l-3.44-6.98c-.12-.37-.12-.61-.12-.98.12-.37.37-.61.61-.74.37-.12.61-.25.98-.12s.61.37.74.61l3.44,6.98c.12.37.12.61,0,.98,0,.37-.25.61-.49.86Zm-24.66,0c-.37.12-.61.12-.98.12-.37-.12-.61-.37-.74-.61l-3.44-6.98c-.12-.37-.12-.61,0-.98s.37-.61.61-.74c.37-.12.61-.12.98-.12.37.12.61.37.74.61l3.44,6.98c.12.37.12.61,0,.98,0,.25-.25.49-.61.74Zm-.98-12.87c-2.94,0-5.4-.98-7.36-3.06-2.09-2.08-3.07-4.53-3.07-7.35s.98-5.02,2.82-6.98c1.72-2.08,4.05-3.19,6.87-3.43,1.1-1.96,2.45-3.43,4.29-4.53,1.72-1.1,3.8-1.59,6.01-1.59,3.07,0,5.52.98,7.73,2.94,2.09,1.96,3.31,4.41,3.8,7.23,2.58.12,4.66.98,6.13,2.7,1.47,1.59,2.33,3.55,2.33,5.76,0,2.33-.86,4.29-2.45,6-1.6,1.59-3.68,2.45-6.01,2.45H10.43v-.12Zm0-2.45h20.98c1.6,0,3.07-.61,4.17-1.72s1.72-2.57,1.72-4.17-.61-3.06-1.72-4.17c-1.1-1.1-2.58-1.72-4.17-1.72h-2.58v-1.23c0-2.45-.86-4.53-2.58-6.37-1.84-1.72-3.93-2.7-6.38-2.7-1.84,0-3.44.49-4.91,1.47-1.47.98-2.58,2.33-3.31,3.92l-.37.74h-.98c-2.21.12-4.05.86-5.52,2.45-1.47,1.47-2.33,3.31-2.33,5.51s.74,4.04,2.33,5.64c1.6,1.47,3.44,2.33,5.64,2.33Z"/>
</svg>