<?xml version="1.0" encoding="UTF-8"?>
<svg id="Capa_1" data-name="Capa 1" xmlns="http://www.w3.org/2000/svg" viewBox="0 0 40 40">
  <defs>
    <style>
      .cls-1 {
        fill: none;
      }
    </style>
  </defs>
  <rect class="cls-1" width="40" height="40"/>
  <path d="m9.31,34.31c-2.53,0-4.83-.92-6.55-2.76s-2.76-4.02-2.76-6.55.8-4.48,2.3-6.21c1.61-1.84,3.45-2.76,5.75-3.1.57-2.99,1.95-5.4,4.14-7.24,2.3-1.84,4.83-2.87,7.82-2.87,3.45,0,6.32,1.26,8.62,3.68s3.45,5.29,3.45,8.74v1.49h.57c2.07,0,3.79.69,5.17,2.18,1.38,1.38,2.18,3.22,2.18,5.29s-.69,3.79-2.18,5.29c-1.38,1.49-3.22,2.18-5.17,2.18h-10.92c-.8,0-1.49-.34-2.07-.92s-.92-1.26-.92-2.07v-11.84l-3.22,3.22c-.23.23-.46.34-.8.34s-.57-.11-.8-.34c-.23-.23-.34-.46-.34-.8s.11-.57.34-.8l4.94-4.94c.11-.11.34-.23.46-.34.23-.11.34-.11.57-.11s.34,0,.57.11c.11.11.34.23.46.34l5.06,5.06c.23.23.34.46.34.8s-.11.57-.34.8-.57.34-.92.34-.57-.11-.8-.34l-2.99-3.33v11.72c0,.11.11.23.23.46.11.11.23.23.46.23h10.92c1.38,0,2.53-.46,3.56-1.49.92-.92,1.49-2.18,1.49-3.56s-.46-2.53-1.49-3.56c-.92-.92-2.18-1.49-3.56-1.49h-2.99v-3.91c0-2.76-.92-5.06-2.87-7.01-1.95-1.95-4.25-2.99-7.01-2.99s-5.06,1.03-7.01,2.99-2.87,4.25-2.87,7.01h-.92c-1.84,0-3.45.69-4.83,2.07-1.38,1.38-2.07,2.99-2.07,4.94s.69,3.56,2.07,4.94c1.38,1.38,2.99,2.07,4.94,2.07h4.48c.34,0,.57.11.8.34.23.23.34.57.34.8,0,.34-.11.57-.34.8s-.46.34-.8.34c.11,0-4.48,0-4.48,0Z"/>
</svg>