<?xml version="1.0" encoding="UTF-8"?>
<svg id="Capa_1" data-name="Capa 1" xmlns="http://www.w3.org/2000/svg" viewBox="0 0 40 40">
  <defs>
    <style>
      .cls-1 {
        fill: none;
      }
    </style>
  </defs>
  <rect class="cls-1" x="0" width="40" height="40"/>
  <path d="m9.33,32.21v-10.84L.3,7.68c-.37-.53-.39-1.08-.07-1.65.32-.57.8-.86,1.43-.86h17.98c.64,0,1.12.29,1.43.86s.29,1.12-.07,1.65l-9.05,13.7v10.84h2.97c.36,0,.67.13.93.38.25.25.38.56.38.94s-.13.68-.38.93c-.25.25-.56.37-.93.37H6.38c-.37,0-.68-.13-.93-.38-.25-.25-.38-.56-.38-.94s.13-.68.38-.93c.25-.25.56-.37.93-.37,0,0,2.95,0,2.95,0Zm-3.24-20.11h9.09l2.85-4.32H3.26s2.84,4.32,2.84,4.32Zm21.82,22.73c-1.6,0-2.93-.53-4-1.6-1.07-1.07-1.6-2.4-1.6-4s.53-2.92,1.6-3.99c1.07-1.07,2.4-1.6,4-1.6.52,0,1.03.07,1.52.22.49.14.98.37,1.46.68V6.8c0-.46.16-.85.47-1.16.31-.31.7-.47,1.16-.47h5.28c.61,0,1.13.21,1.56.64.43.42.65.94.65,1.56s-.22,1.13-.65,1.57c-.43.44-.95.66-1.56.66h-4.29v19.62c0,1.6-.53,2.93-1.6,4s-2.4,1.6-3.99,1.6Z"/>
</svg>