<?xml version="1.0" encoding="UTF-8"?>
<svg id="Capa_1" data-name="Capa 1" xmlns="http://www.w3.org/2000/svg" viewBox="0 0 40 40">
  <defs>
    <style>
      .cls-1 {
        fill: none;
      }
    </style>
  </defs>
  <rect class="cls-1" width="40" height="40"/>
  <path d="m25.36,38.19c-.91,0-1.67-.32-2.31-.95-.63-.63-.95-1.4-.95-2.31,0-.68.19-1.29.56-1.84.37-.55.85-.94,1.44-1.18v-12.24c-.59-.24-1.07-.63-1.44-1.16-.37-.53-.56-1.13-.56-1.8,0-.92.32-1.69.95-2.32s1.4-.95,2.31-.95,1.67.32,2.31.95c.63.63.95,1.4.95,2.31,0,.68-.19,1.28-.56,1.82-.37.53-.85.92-1.44,1.16v7.06l8.45-2.82c.13-.04.23-.11.31-.21.08-.1.12-.22.12-.37v-3.67c-.59-.24-1.07-.63-1.44-1.16s-.56-1.13-.56-1.8c0-.92.32-1.69.95-2.32s1.4-.95,2.31-.95,1.67.32,2.31.95c.63.63.95,1.4.95,2.31,0,.68-.19,1.28-.56,1.82-.37.53-.85.92-1.44,1.16v3.66c0,.68-.19,1.29-.58,1.84-.39.55-.91.93-1.56,1.14l-9.24,3.06v2.55c.59.24,1.07.63,1.44,1.18.37.55.56,1.16.56,1.82,0,.92-.32,1.69-.95,2.32-.63.63-1.4.95-2.31.95ZM2.51,29.29V4.32v24.97Zm.62,2.51c-.86,0-1.6-.31-2.21-.93C.31,30.26,0,29.53,0,28.68V4.94C0,4.09.31,3.35.92,2.74c.61-.62,1.35-.93,2.21-.93h10.68c.43,0,.84.08,1.22.25.39.17.72.39,1.01.67l2.57,2.58h16.87c.68,0,1.27.25,1.77.74.5.5.74,1.09.74,1.77h-20.41l-3.51-3.51H3.13c-.18,0-.33.06-.44.17-.12.12-.17.26-.17.44v23.74c0,.18.06.33.17.44.12.12.26.17.44.17h13.82c.36,0,.66.12.9.36.24.24.36.54.36.9s-.12.66-.36.89c-.24.24-.54.36-.9.36,0,0-13.82,0-13.82,0Z"/>
</svg>