<?xml version="1.0" encoding="UTF-8"?>
<svg id="Capa_1" data-name="Capa 1" xmlns="http://www.w3.org/2000/svg" viewBox="0 0 40 40">
  <defs>
    <style>
      .cls-1 {
        fill: none;
      }
    </style>
  </defs>
  <rect class="cls-1" width="40" height="40"/>
  <path d="m29.45,31.25c-.26.26-.51.39-.9.39s-.64-.13-.9-.39c-.26-.26-.39-.64-.39-1.03s.13-.64.39-.9l9.26-9.26-9.26-9.26c-.26-.26-.39-.51-.39-.9s.13-.64.39-.9c.26-.26.64-.39.9-.39s.64.13.9.39l10.03,10.03c.39.39.51.77.51,1.16s-.13.77-.51,1.16l-10.03,9.9Zm-18.91-.13L.51,21.09c-.39-.39-.51-.77-.51-1.16s.13-.9.51-1.16l10.03-10.03c.26-.26.51-.39.9-.39s.64.13.9.39.39.64.39.9c0,.39-.13.64-.39.9L3.22,20.06l9.26,9.26c.26.26.39.51.39.9s-.13.64-.39.9-.64.39-.9.39c-.39,0-.77-.13-1.03-.39Z"/>
</svg>