<?xml version="1.0" encoding="UTF-8"?>
<svg id="Capa_1" data-name="Capa 1" xmlns="http://www.w3.org/2000/svg" viewBox="0 0 40 40">
  <defs>
    <style>
      .cls-1 {
        fill: none;
      }
    </style>
  </defs>
  <rect class="cls-1" width="40" height="40"/>
  <path d="m1.84,40c-.43,0-.71-.14-.99-.43s-.43-.71-.43-1.13.14-.71.43-.99c.28-.28.71-.43.99-.43h31.91c.43,0,.71.14.99.43s.43.71.43.99c0,.43-.14.71-.43.99-.28.28-.57.43-.99.43.14.14-31.91.14-31.91.14Zm6.52-8.09c-2.27,0-4.11-.71-5.67-2.27-1.56-1.56-2.27-3.4-2.27-5.67V3.69c0-.99.43-1.84,1.13-2.55.71-.71,1.56-1.13,2.55-1.13h31.77c.99,0,1.84.43,2.55,1.13s1.13,1.56,1.13,2.55v7.09c0,.99-.43,1.84-1.13,2.55s-1.56,1.13-2.55,1.13h-4.68v9.5c0,2.27-.71,4.11-2.27,5.67-1.56,1.56-3.4,2.27-5.67,2.27h-14.89Zm0-2.98h14.89c1.42,0,2.55-.57,3.55-1.56.99-.99,1.56-2.13,1.56-3.55V2.98H4.26c-.14,0-.43,0-.57.14-.28.28-.28.43-.28.57v20.14c0,1.28.57,2.55,1.56,3.55.99,1.13,2.13,1.56,3.4,1.56ZM31.21,11.49h4.68c.14,0,.43,0,.57-.14.14-.14.14-.28.14-.57V3.69c0-.14,0-.43-.14-.57-.14,0-.28-.14-.57-.14h-4.68v8.51Z"/>
</svg>