<?xml version="1.0" encoding="UTF-8"?>
<svg id="Capa_1" data-name="Capa 1" xmlns="http://www.w3.org/2000/svg" viewBox="0 0 40 40">
  <defs>
    <style>
      .cls-1 {
        fill: none;
      }
    </style>
  </defs>
  <rect class="cls-1" width="40" height="40"/>
  <path d="m22.73,40h-5.93c-.38,0-.76-.13-1.01-.38-.25-.25-.5-.63-.5-1.01l-.76-4.92c-.63-.25-1.39-.5-2.15-1.01-.76-.38-1.39-.88-2.02-1.39l-4.42,2.15c-.38.13-.76.13-1.14,0-.38-.13-.76-.38-.88-.76l-2.9-5.17c-.25-.38-.25-.76-.13-1.14s.25-.76.63-1.01l4.04-3.03c0-.38-.13-.76-.13-1.14v-2.27c0-.38.13-.76.13-1.14l-4.04-3.03c-.38-.25-.5-.63-.63-1.01s0-.76.13-1.14l2.78-5.17c.25-.38.5-.63.88-.76s.76-.13,1.14,0l4.54,2.02c.63-.5,1.26-.88,2.02-1.39.76-.38,1.39-.76,2.15-1.01l.76-4.92c.13-.38.25-.76.5-1.01.25-.25.63-.38,1.01-.38h5.93c.38,0,.76.13,1.14.38.25.25.5.63.63,1.01l.76,4.92c.76.25,1.39.63,2.15,1.01.63.38,1.26.88,1.89,1.39l4.67-2.02c.38-.13.76-.13,1.14-.13.38.13.63.38.88.76l2.9,5.17c.25.38.25.76.25,1.14-.13.38-.25.76-.63,1.01l-4.16,3.03c.13.38.13.76.13,1.14v2.15c0,.38-.13.76-.13,1.14l4.16,3.03c.38.25.5.5.63,1.01.13.38,0,.76-.25,1.14l-3.03,5.43c-.25.38-.5.63-.88.76s-.76.13-1.14,0l-4.54-2.02c-.63.5-1.26,1.01-1.89,1.39s-1.39.76-2.15,1.01l-.76,4.92c-.13.38-.25.76-.63,1.01-.38.13-.63.25-1.14.25Zm-2.9-13.88c1.64,0,3.15-.63,4.29-1.77s1.77-2.65,1.77-4.29-.63-3.15-1.77-4.29-2.65-1.77-4.29-1.77-3.15.63-4.29,1.77c-1.14,1.14-1.77,2.65-1.77,4.29s.63,3.15,1.77,4.29c1.14,1.14,2.52,1.77,4.29,1.77Zm0-2.65c-.88,0-1.77-.38-2.4-1.01s-1.01-1.51-1.01-2.4.38-1.77,1.01-2.4,1.51-1.01,2.4-1.01c1.01,0,1.77.38,2.4,1.01s1.01,1.51,1.01,2.4-.38,1.77-1.01,2.4c-.63.63-1.51,1.01-2.4,1.01Zm-2.15,13.88h4.42l.76-5.8c1.14-.25,2.15-.63,3.03-1.26.88-.5,1.89-1.26,2.65-2.02l5.43,2.27,2.15-3.66-4.79-3.53c.13-.63.25-1.14.38-1.77.13-.5.13-1.14.13-1.64,0-.63,0-1.14-.13-1.64s-.13-1.14-.38-1.64l4.79-3.53-2.15-3.66-5.43,2.27c-.76-.76-1.64-1.51-2.65-2.15-1.01-.63-2.02-1.01-3.15-1.14l-.76-5.8h-4.42l-.76,5.8c-1.14.25-2.15.63-3.15,1.14s-1.89,1.26-2.65,2.15l-5.43-2.27-2.15,3.66,4.79,3.53c-.13.5-.25,1.14-.38,1.64s-.13,1.14-.13,1.77,0,1.14.13,1.64.25,1.14.38,1.64l-4.79,3.53,2.15,3.66,5.43-2.27c.88.88,1.77,1.51,2.65,2.02,1.01.5,2.02,1.01,3.15,1.26.13.13.88,5.8.88,5.8Z"/>
</svg>