<?xml version="1.0" encoding="UTF-8"?>
<svg id="Capa_1" data-name="Capa 1" xmlns="http://www.w3.org/2000/svg" viewBox="0 0 40 40">
  <defs>
    <style>
      .cls-1 {
        fill: none;
      }
    </style>
  </defs>
  <rect class="cls-1" width="40" height="40"/>
  <path d="m25.72,34.29c-3.99,0-7.37-1.38-10.13-4.15-2.77-2.77-4.15-6.14-4.15-10.13s1.38-7.37,4.15-10.13c2.77-2.77,6.14-4.15,10.13-4.15s7.37,1.38,10.13,4.15c2.77,2.77,4.15,6.14,4.15,10.13s-1.38,7.37-4.15,10.13c-2.77,2.77-6.14,4.15-10.13,4.15Zm-16.4-.96c-2.83-.89-5.09-2.57-6.78-5.04-1.69-2.47-2.54-5.23-2.54-8.29s.85-5.83,2.54-8.29c1.69-2.47,3.95-4.15,6.78-5.04.39-.15.74-.1,1.04.13s.45.58.45,1.03c0,.23-.08.44-.24.65-.16.2-.35.35-.57.43-2.31.79-4.15,2.21-5.53,4.25-1.38,2.04-2.07,4.32-2.07,6.84,0,2.52.69,4.8,2.07,6.84,1.38,2.04,3.22,3.46,5.53,4.25.22.09.41.23.57.43.16.2.24.42.24.68,0,.43-.15.76-.45,1-.3.24-.64.28-1.04.13Zm16.4-1.44c3.28,0,6.08-1.16,8.41-3.48,2.32-2.32,3.48-5.13,3.48-8.41s-1.16-6.08-3.48-8.41c-2.32-2.32-5.13-3.48-8.41-3.48s-6.08,1.16-8.41,3.48c-2.32,2.32-3.48,5.13-3.48,8.41s1.16,6.08,3.48,8.41c2.32,2.32,5.13,3.48,8.41,3.48Z"/>
</svg>