<?xml version="1.0" encoding="UTF-8"?>
<svg id="Capa_1" data-name="Capa 1" xmlns="http://www.w3.org/2000/svg" viewBox="0 0 40 40">
  <defs>
    <style>
      .cls-1 {
        fill: none;
      }
    </style>
  </defs>
  <rect class="cls-1" width="40" height="40"/>
  <g>
    <path d="m24.25,20.87c-.17-.13-.35-.2-.56-.2-.14,0-.26.03-.38.1h0c-.12.07-.2.18-.27.31l-1.69,3.72-1.7-3.72c-.06-.14-.15-.24-.27-.31-.12-.07-.25-.1-.38-.1-.21,0-.4.07-.58.21-.17.14-.26.3-.26.5,0,.11.02.21.07.31l2.27,4.76c.07.16.19.28.34.36.15.08.31.13.48.13s.33-.04.48-.13c.15-.08.26-.21.34-.36l2.27-4.76c.05-.1.08-.21.08-.31,0-.2-.08-.37-.25-.51Z"/>
    <path d="m25.82,20.67c-.24,0-.43.07-.57.21-.14.14-.21.33-.21.57v4.68c0,.25.07.44.21.58.14.14.33.21.57.21s.44-.07.59-.21c.14-.14.21-.34.21-.58v-4.68c0-.24-.07-.43-.21-.57-.14-.14-.34-.21-.59-.21Z"/>
    <path d="m31.89,21.05c-.48-.25-1.06-.38-1.73-.38h-1.74c-.24,0-.42.07-.54.2-.13.13-.19.32-.19.56v4.76c0,.24.06.43.19.56h0c.13.13.31.2.54.2h1.74c.68,0,1.26-.12,1.74-.37s.85-.61,1.11-1.08c.26-.47.38-1.04.38-1.68s-.13-1.2-.39-1.67c-.26-.47-.63-.83-1.11-1.08Zm-.52,4.13c-.3.3-.74.45-1.33.45h-.77v-3.64h.77c.59,0,1.03.15,1.33.44.3.3.44.75.44,1.37s-.15,1.07-.44,1.37Z"/>
    <path d="m37.65,21.16c-.07-.16-.19-.28-.34-.36-.15-.08-.3-.13-.48-.13s-.34.04-.49.13c-.15.09-.26.21-.33.36l-2.27,4.76c-.05.11-.08.22-.08.32,0,.19.08.36.24.49.16.13.33.2.53.2.13,0,.25-.04.37-.11.11-.07.2-.18.26-.32l.4-.89h2.79l.39.89c.06.14.15.25.26.32.11.07.23.11.36.11.2,0,.37-.07.52-.2.15-.13.23-.3.23-.49h0c0-.11-.03-.21-.08-.32l-2.27-4.76Zm-1.66,3.26l.86-1.96.86,1.96h-1.72Z"/>
    <path d="m18.92,16.01h0c.23.13.5.19.81.19.37,0,.7-.1.98-.29.05-.04.09-.07.11-.12.02-.04.03-.09.03-.16,0-.09-.03-.17-.08-.23-.05-.06-.11-.09-.19-.09-.04,0-.08,0-.11.02-.03.01-.07.03-.14.07-.13.06-.23.1-.31.13-.08.03-.17.04-.25.04-.26,0-.45-.08-.58-.23-.13-.16-.19-.4-.19-.71s.06-.55.19-.71c.13-.16.32-.23.58-.23.1,0,.19.01.28.04.09.03.19.07.29.13.05.03.09.05.12.06.03.01.07.02.12.02.07,0,.13-.03.19-.09.05-.06.08-.14.08-.23,0-.06-.01-.12-.03-.16-.02-.04-.06-.08-.11-.11-.28-.2-.61-.29-.98-.29-.31,0-.58.06-.81.19-.23.13-.41.31-.54.55s-.19.51-.19.84.06.6.19.84.31.42.54.55Z"/>
    <path d="m21.59,16.01c.23.13.51.19.82.19s.58-.06.82-.19c.23-.13.41-.31.54-.55.12-.24.19-.52.19-.84s-.06-.6-.19-.84c-.12-.24-.3-.42-.53-.55-.23-.13-.51-.19-.82-.19s-.59.06-.82.19c-.23.13-.41.31-.54.55-.12.24-.19.52-.19.84s.06.6.19.84c.13.24.3.42.54.55Zm.27-2.11c.13-.16.32-.24.55-.24s.41.08.54.24c.13.16.2.4.2.72s-.07.55-.2.72h0c-.13.17-.31.25-.55.25s-.42-.08-.55-.24c-.13-.16-.2-.4-.2-.72s.07-.56.2-.72Z"/>
    <polygon points="24.31 16.11 24.31 16.11 24.31 16.11 24.31 16.11"/>
    <path d="m24.58,16.21h1.44c.13,0,.22-.03.29-.08s.09-.14.09-.25c0-.22-.13-.33-.38-.33h-1.01v-2.1c0-.12-.04-.22-.11-.29s-.18-.11-.3-.11-.22.04-.29.11c-.07.07-.11.17-.11.29v2.38c0,.12.03.22.1.28.06.07.16.1.28.1Z"/>
    <path d="m28.59,16.01c.23-.13.41-.31.54-.55.12-.24.19-.52.19-.84s-.06-.6-.19-.84c-.12-.24-.3-.42-.53-.55-.23-.13-.51-.19-.82-.19s-.59.06-.82.19c-.23.13-.41.31-.54.55-.12.24-.19.52-.19.84s.06.6.19.84c.13.24.3.42.54.55h0c.23.13.51.19.82.19s.58-.06.82-.19Zm-1.36-.67c-.13-.16-.2-.4-.2-.72s.07-.56.2-.72c.13-.16.32-.24.55-.24s.41.08.54.24c.13.16.2.4.2.72s-.07.55-.2.72h0c-.13.17-.31.25-.55.25s-.42-.08-.55-.24Z"/>
    <path d="m29.93,16.21c.11,0,.19-.03.26-.1.07-.07.1-.15.1-.26v-1.27l.49.9c.05.09.1.16.16.2s.12.06.2.06.14-.02.2-.06c.06-.04.11-.11.16-.2l.5-.93v1.3c0,.11.03.2.1.27.07.06.15.1.25.1s.19-.03.25-.1c.06-.06.1-.15.1-.27v-2.4c0-.12-.04-.21-.11-.29h0c-.07-.07-.16-.11-.27-.11-.15,0-.28.09-.37.27l-.8,1.53-.8-1.53c-.04-.09-.1-.15-.16-.2-.06-.05-.14-.07-.21-.07-.11,0-.2.04-.27.11-.07.07-.11.17-.11.29v2.4c0,.11.03.2.1.27.07.06.15.1.25.1Z"/>
    <path d="m33.41,16.21h1.16c.22,0,.41-.04.58-.11.16-.07.29-.17.38-.3s.13-.28.13-.46c0-.19-.05-.36-.14-.49h0c-.1-.13-.23-.23-.42-.28.15-.06.27-.15.35-.27.08-.12.13-.27.13-.43,0-.25-.1-.45-.29-.6-.19-.15-.45-.22-.77-.22h-1.12c-.12,0-.21.03-.28.1-.06.07-.1.16-.1.28v2.4c0,.12.03.22.1.28.06.07.16.1.28.1Zm.41-2.54h.57c.15,0,.26.03.33.08s.11.13.11.24c0,.1-.04.18-.11.23-.07.05-.18.07-.33.07h-.57v-.62Zm0,1.24h.65c.16,0,.27.03.34.08s.1.14.1.26-.03.21-.1.26h0c-.07.05-.18.08-.34.08h-.65v-.67Z"/>
    <path d="m36.26,16.21c.12,0,.22-.04.3-.11.07-.07.11-.17.11-.29v-2.37c0-.12-.04-.22-.11-.29-.07-.07-.18-.11-.3-.11s-.22.04-.29.11c-.07.07-.11.17-.11.29v2.37c0,.12.04.22.11.29.07.07.17.11.29.11Z"/>
    <path d="m36.9,16.11c.08.07.17.1.27.1.07,0,.13-.02.19-.05.06-.04.1-.09.13-.16l.2-.45h1.42l.2.45c.03.07.08.12.13.16s.12.05.18.05c.1,0,.19-.03.26-.1s.12-.15.12-.25h0c0-.05-.01-.11-.04-.16l-1.15-2.4c-.04-.08-.09-.14-.17-.18s-.15-.06-.24-.06-.17.02-.25.06c-.07.04-.13.1-.17.18l-1.15,2.4c-.03.06-.04.11-.04.16,0,.1.04.18.12.25Zm1.5-2.16l.44.99h-.87l.44-.99Z"/>
    <path d="m18.36,19.56s.07-.01.09-.03c.02-.02.03-.05.03-.09v-.72h.57c.21,0,.37-.05.49-.16.12-.11.18-.25.18-.44s-.06-.34-.18-.44c-.12-.1-.28-.15-.49-.15h-.68s-.07.01-.09.03c-.02.02-.03.05-.03.08v1.8s.01.07.03.09h0s.05.03.09.03Zm.12-1.84h.54c.31,0,.46.13.46.4s-.15.4-.46.4h0s-.54,0-.54,0v-.8Z"/>
    <path d="m21.34,17.65c-.14-.08-.3-.12-.49-.12s-.35.04-.49.12c-.14.08-.25.2-.32.35s-.11.34-.11.54.04.39.11.54c.07.15.18.27.32.35h0c.14.08.3.12.49.12s.35-.04.49-.12c.14-.08.25-.2.32-.36.07-.15.11-.33.11-.54s-.04-.39-.11-.54c-.07-.15-.18-.27-.32-.35Zm0,1.5c-.12.14-.29.21-.5.21s-.38-.07-.5-.21c-.12-.14-.18-.35-.18-.61s.06-.46.18-.61c.12-.14.28-.21.5-.21s.38.07.5.21c.12.14.18.34.18.61s-.06.47-.18.61Z"/>
    <path d="m22.6,19.56s.07-.01.09-.03c.02-.02.03-.05.03-.09v-1.72h.62s.06,0,.08-.03c.02-.02.03-.04.03-.07s0-.06-.03-.07c-.02-.02-.05-.03-.08-.03h-1.47s-.06,0-.08.03c-.02.02-.03.04-.03.07s0,.06.03.07c.02.02.05.03.08.03h.62v1.72s.01.07.03.09h0s.05.03.09.03Z"/>
    <path d="m24.83,17.72s.06,0,.08-.03.03-.04.03-.07,0-.05-.03-.07c-.02-.02-.05-.03-.08-.03h-1.07s-.07.01-.09.03c-.02.02-.03.05-.03.08v1.81s.01.06.03.08h0s.05.03.09.03h1.07s.06,0,.08-.03.03-.04.03-.07c0-.03,0-.06-.03-.07-.02-.02-.05-.02-.08-.02h-.96v-.74h.9s.06,0,.08-.03.03-.04.03-.07,0-.05-.03-.07c-.02-.02-.05-.03-.08-.03h-.9v-.71h.96Z"/>
    <path d="m26.75,17.52s-.06.01-.08.03c-.02.02-.03.05-.03.09v1.51l-1.19-1.58s-.06-.05-.1-.05-.06.01-.08.03c-.02.02-.03.05-.03.09v1.8s0,.07.03.09c.02.02.05.03.08.03s.06-.01.08-.03c.02-.02.03-.05.03-.09v-1.51l1.19,1.58s.06.05.09.05.06-.01.08-.03c.02-.02.03-.05.03-.09v-1.8s0-.07-.03-.09c-.02-.02-.05-.03-.08-.03Z"/>
    <path d="m28.5,19.5c.11-.04.21-.1.3-.17.03-.03.05-.06.05-.1,0-.03,0-.05-.02-.07s-.03-.03-.05-.03c-.02,0-.05.01-.08.03-.1.08-.19.13-.27.16-.08.03-.17.05-.27.05-.22,0-.39-.07-.51-.21-.12-.14-.18-.35-.18-.61s.06-.46.18-.61c.12-.14.29-.21.51-.21.1,0,.19.02.27.04.08.03.17.08.27.16.03.02.06.03.08.03.02,0,.04,0,.05-.03.02-.02.02-.04.02-.07,0-.04-.02-.07-.05-.1-.08-.08-.18-.13-.3-.17-.11-.04-.23-.06-.36-.06-.19,0-.36.04-.5.12s-.25.2-.32.35c-.08.15-.11.33-.11.54s.04.39.11.54c.08.15.18.27.32.35h0c.14.08.3.12.5.12.13,0,.25-.02.36-.06Z"/>
    <path d="m29.18,17.56s-.03.05-.03.09v1.8s.01.07.03.09c.02.02.05.03.09.03s.07-.01.09-.03c.02-.02.03-.05.03-.09v-1.8s-.01-.07-.03-.09c-.02-.02-.05-.03-.09-.03s-.07.01-.09.03Z"/>
    <path d="m30.74,17.6s-.03-.04-.05-.06c-.02-.01-.05-.02-.08-.02-.03,0-.05,0-.07.02-.02.01-.04.03-.05.06l-.82,1.81s-.01.03-.01.05c0,.03.01.05.03.07.02.02.05.03.08.03.05,0,.08-.02.1-.07l.21-.46h1.08l.2.46s.05.07.1.07c.03,0,.06,0,.08-.03.02-.02.03-.04.03-.07,0-.02,0-.03-.01-.05l-.82-1.81Zm-.58,1.24l.45-1.02.46,1.02h-.91Z"/>
    <polygon points="31.57 19.46 31.57 19.46 31.57 19.46 31.57 19.46"/>
    <path d="m32.62,19.56h.56c.32,0,.57-.09.75-.27.18-.18.27-.43.27-.75s-.09-.58-.27-.75-.43-.26-.75-.26h-.56s-.07.01-.09.03c-.02.02-.03.05-.03.08v1.81s.01.06.03.08h0s.05.03.09.03Zm.12-1.84h.43c.52,0,.79.27.79.82s-.26.82-.79.82h-.43v-1.63Z"/>
    <path d="m34.58,17.56s-.03.05-.03.08v1.81s.01.06.03.08h0s.05.03.09.03h1.07s.06,0,.08-.03.03-.04.03-.07c0-.03,0-.06-.03-.07-.02-.02-.05-.02-.08-.02h-.96v-.74h.9s.06,0,.08-.03.03-.04.03-.07,0-.05-.03-.07c-.02-.02-.05-.03-.08-.03h-.9v-.71h.96s.06,0,.08-.03.03-.04.03-.07,0-.05-.03-.07c-.02-.02-.05-.03-.08-.03h-1.07s-.07.01-.09.03Z"/>
    <polygon points="40 19.46 40 19.46 40 19.46 40 19.46"/>
    <path d="m39.17,17.6s-.03-.04-.05-.06c-.02-.01-.05-.02-.08-.02-.03,0-.05,0-.07.02-.02.01-.04.03-.05.06l-.82,1.81s0,.02,0,.03c0-.02-.01-.04-.03-.06-.02-.02-.05-.03-.08-.03h-.93v-1.72s-.01-.07-.03-.09c-.02-.02-.05-.03-.09-.03s-.07.01-.09.03c-.02.02-.03.05-.03.09v1.81s.01.06.03.08h0s.05.03.08.03h1.05s.06,0,.08-.03c.02-.01.02-.03.03-.06,0,.02.02.04.03.05.02.02.05.03.08.03.05,0,.08-.02.1-.07l.21-.46h1.08l.2.46s.05.07.1.07c.03,0,.06,0,.08-.03.02-.02.03-.04.03-.07,0-.02,0-.03-.01-.05l-.82-1.81Zm-.58,1.24l.45-1.02.46,1.02h-.91Z"/>
    <path d="m13.71,17.66c.1-.04.16-.13.16-.24v-.76c0-.12-.14-.2-.24-.13-.6.41-1.24.76-1.85,1.16-.83.55-1.56,1.27-1.63,2.28h0c-.15,2.15,1.62,3.58,3.42,4.6.13.08.3-.02.3-.18v-.85c0-.12-.07-.23-.18-.27-1.21-.46-2.09-1.68-2.03-2.92.06-1.17.9-2.29,2.05-2.71Z"/>
    <path d="m13.68,26.31h0c-1.14-.58-2.27-1.23-3.19-2.11-1.59-1.5-2.48-3.87-1.39-5.88.94-1.73,3.04-2.27,4.42-3.57.02-.01.03-.03.05-.04.21-.17.32-.43.32-.7v-.78c0-.11-.09-.19-.19-.19-.09,0-.18.03-.25.09-1.02.82-2.01,1.66-2.97,2.53-1.16,1.04-2.48,2.11-3.25,3.46-.35.6-.57,1.3-.49,1.98.07.66.44,1.27.87,1.78.93,1.11,2.16,2.06,3.4,2.85.72.45,1.46.85,2.24,1.2,0,0,.05.01.08.02.03,0,.05,0,.08,0l.18-.02c.17,0,.32-.14.32-.32,0-.13-.08-.26-.19-.32Z"/>
    <path d="m9.83,26.74c-.08-.06-.17-.11-.25-.17-1.37-.94-2.78-2.06-3.67-3.43h0c-.98-1.5-.89-3.23-.02-4.75,1.07-1.87,3-3.36,4.53-4.71.18-.16.36-.29.55-.43.09-.07.04-.2-.07-.2H2.19c-1.21,0-2.19.98-2.19,2.19v9.53c0,1.21.98,2.18,2.18,2.18h7.58c.11,0,.15-.14.06-.2Z"/>
    <circle cx="14.01" cy="20.36" r="1.05"/>
  </g>
</svg>