<?xml version="1.0" encoding="UTF-8"?>
<svg id="Capa_1" data-name="Capa 1" xmlns="http://www.w3.org/2000/svg" viewBox="0 0 40 40">
  <defs>
    <style>
      .cls-1 {
        fill: none;
      }
    </style>
  </defs>
  <rect class="cls-1" width="40" height="40"/>
  <g>
    <path d="m27,19.85c-.4,5.7,4.3,9.5,9.1,12.2.4.2.8-.1.8-.5v-2.3c0-.3-.2-.6-.5-.7-3.2-1.2-5.6-4.5-5.4-7.8.2-3.1,2.4-6.1,5.4-7.2.3-.1.4-.3.4-.6v-2c0-.3-.4-.5-.6-.3-1.6,1.1-3.3,2-4.9,3.1-2.2,1.5-4.1,3.5-4.3,6.1Z"/>
    <path d="m19.1,17.65c-.9,1.6-1.5,3.4-1.3,5.3.2,1.8,1.2,3.4,2.3,4.7,2.5,3,5.7,5.5,9,7.6,1.9,1.2,3.9,2.3,5.9,3.2,0,0,.1,0,.2.1h.7c.5,0,.8-.4.8-.8h0c0-.4-.2-.7-.5-.8h0c-3-1.5-6-3.3-8.5-5.6-4.2-4-6.6-10.3-3.7-15.6,2.5-4.6,8.1-6,11.7-9.5l.1-.1c.6-.5.9-1.1.9-1.9V1.95c0-.3-.2-.5-.5-.5h0c-.2,0-.5.1-.7.2-2.7,2.2-5.3,4.4-7.9,6.7-2.9,2.8-6.4,5.7-8.5,9.3Z"/>
    <path d="m15.7,28.25c-2.6-4-2.4-8.6,0-12.6,2.8-5,8-8.9,12-12.5.5-.4,1-.8,1.5-1.2.2-.2.1-.5-.2-.5H5.8c-3.2,0-5.8,2.6-5.8,5.8v25.3c0,3.2,2.6,5.8,5.8,5.8h20.1c.3,0,.4-.4.2-.5-.2-.1-.4-.3-.7-.5-3.6-2.5-7.3-5.4-9.7-9.1Z"/>
    <path d="m35,20.85v-.1q.1-.1,0,.1Z"/>
    <circle cx="37.2" cy="20.95" r="2.8"/>
  </g>
</svg>