<?xml version="1.0" encoding="UTF-8"?>
<svg id="Capa_1" data-name="Capa 1" xmlns="http://www.w3.org/2000/svg" viewBox="0 0 40 40">
  <defs>
    <style>
      .cls-1 {
        fill: none;
      }
    </style>
  </defs>
  <path d="m3.28,33.12h9.09V6.88H3.28c-.13,0-.38,0-.5.13-.13.13-.13.38-.13.5v24.98c0,.13,0,.38.13.5s.25.13.5.13Zm11.74,0h9.72V6.88h-9.72v26.25Zm12.49,0h9.21c.13,0,.38,0,.5-.13.13-.13.13-.25.13-.5V7.51c0-.13,0-.38-.13-.5s-.25-.13-.5-.13h-9.21v26.25Zm-24.23,2.65c-.88,0-1.64-.38-2.27-1.01s-1.01-1.39-1.01-2.27V7.51c0-.88.38-1.64,1.01-2.27s1.39-1.01,2.27-1.01h33.44c.88,0,1.64.38,2.27,1.01s1.01,1.39,1.01,2.27v24.98c0,.88-.38,1.64-1.01,2.27-.63.63-1.39,1.01-2.27,1.01H3.28Z"/>
  <rect id="Rectangle_9971" data-name="Rectangle 9971" class="cls-1" width="40" height="40"/>
</svg>