<?xml version="1.0" encoding="UTF-8"?>
<svg id="Capa_1" data-name="Capa 1" xmlns="http://www.w3.org/2000/svg" viewBox="0 0 40 40">
  <defs>
    <style>
      .cls-1 {
        fill: none;
      }
    </style>
  </defs>
  <rect class="cls-1" width="40" height="40"/>
  <path d="m14.99,32.67H3.29c-.9,0-1.68-.32-2.33-.97s-.97-1.42-.97-2.33V4.38c0-.9.32-1.68.97-2.33s1.42-.97,2.33-.97h33.41c.9,0,1.68.32,2.33.97s.97,1.42.97,2.33v24.99c0,.9-.32,1.68-.97,2.33s-1.42.97-2.33.97h-11.7l-3.64,5.5c-.34.5-.8.75-1.38.75s-1.04-.25-1.37-.75l-3.64-5.5Zm-11.7-2.65h33.41c.16,0,.31-.07.45-.2.13-.13.2-.28.2-.45V4.38c0-.16-.07-.31-.2-.45-.13-.13-.28-.2-.45-.2H3.29c-.16,0-.31.07-.45.2-.13.13-.2.28-.2.45v24.99c0,.16.07.31.2.45.13.13.28.2.45.2Zm-.65,0V3.73v26.29Z"/>
</svg>