<?xml version="1.0" encoding="UTF-8"?>
<svg id="Capa_1" data-name="Capa 1" xmlns="http://www.w3.org/2000/svg" viewBox="0 0 40 40">
  <defs>
    <style>
      .cls-1 {
        fill: none;
      }
    </style>
  </defs>
  <rect class="cls-1" width="40" height="40"/>
  <path d="m11.14,23.3c-.48,0-.96-.12-1.2-.48-.36-.36-.48-.72-.48-1.32s.12-.96.48-1.32c.36-.36.72-.48,1.2-.48s.96.12,1.2.48c.36.36.48.72.48,1.32,0,.48-.12.96-.48,1.32-.36.24-.72.48-1.2.48Zm26.11,7.21l-2.4-2.52h2.04c.12,0,.36,0,.48-.12.12-.12.12-.24.12-.48V3.72c0-.12,0-.36-.12-.48s-.24-.12-.48-.12H9.94L7.43.6h29.46c.84,0,1.56.36,2.16.96s.96,1.32.96,2.16v23.78c0,.84-.24,1.56-.84,2.04-.48.6-1.08.96-1.92.96Zm-13.65-13.69l-2.51-2.52h10.42c.36,0,.6.12.84.36s.36.6.36.84-.12.6-.36.84c-.24.24-.48.36-.84.36h-7.9v.12Zm-14.37,13.81l-4.43,4.44c-.48.48-1.08.6-1.68.24s-.96-.72-.96-1.44V3.84L.36,2.04c-.24-.24-.36-.48-.36-.84S.12.6.36.36s.48-.36.84-.36.6.12.84.36l37.49,37.6c.24.24.36.48.36.84s-.12.6-.36.84-.6.36-.84.36c-.36,0-.6-.12-.84-.36l-9.1-9.13-19.52.12h0ZM4.67,6.25v23.18l1.44-1.44h20.36c-.12.12-21.8-21.74-21.8-21.74Zm6.47,11.05c-.48,0-.96-.12-1.2-.48-.36-.36-.48-.72-.48-1.32,0-.48.12-.96.48-1.32.36-.36.72-.48,1.2-.48s.96.12,1.2.48c.36.36.48.72.48,1.32,0,.48-.12.96-.48,1.32-.36.24-.72.48-1.2.48Zm6.47-6.49l-.96-.96v-.24c0-.36.12-.6.36-.84.24-.24.48-.36.84-.36h13.65c.36,0,.6.12.84.36s.36.6.36.84c0,.36-.12.6-.36.84-.24.24-.48.36-.84.36h-13.89Z"/>
</svg>