<?xml version="1.0" encoding="UTF-8"?>
<svg id="Capa_1" data-name="Capa 1" xmlns="http://www.w3.org/2000/svg" viewBox="0 0 40 40">
  <defs>
    <style>
      .cls-1 {
        fill: none;
      }
    </style>
  </defs>
  <rect class="cls-1" width="40" height="40"/>
  <path d="m9.22,25.32h21.57c.38,0,.69-.13.94-.38.25-.25.38-.57.38-.95s-.13-.69-.38-.94c-.25-.25-.57-.38-.94-.38H9.22c-.38,0-.69.13-.94.38-.25.25-.38.57-.38.95s.13.69.38.94c.25.25.57.38.94.38Zm0-6.57h21.57c.38,0,.69-.13.94-.38.25-.25.38-.57.38-.95s-.13-.69-.38-.94c-.25-.25-.57-.38-.94-.38H9.22c-.38,0-.69.13-.94.38-.25.25-.38.57-.38.95s.13.69.38.94c.25.25.57.38.94.38Zm0-6.57h21.57c.38,0,.69-.13.94-.38.25-.25.38-.57.38-.95s-.13-.69-.38-.94c-.25-.25-.57-.38-.94-.38H9.22c-.38,0-.69.13-.94.38-.25.25-.38.57-.38.95s.13.69.38.94c.25.25.57.38.94.38Zm-5.92,21.04c-.9,0-1.68-.32-2.33-.97s-.97-1.42-.97-2.33V4.93c0-.9.32-1.68.97-2.33s1.42-.97,2.33-.97h33.41c.9,0,1.68.32,2.33.97s.97,1.42.97,2.33v31.77c0,.73-.34,1.24-1.01,1.52s-1.27.16-1.79-.36l-4.65-4.65s-29.26,0-29.26,0Zm0-2.65h32.6l1.46,1.46V4.93c0-.16-.07-.31-.2-.45-.13-.13-.28-.2-.45-.2H3.29c-.16,0-.31.07-.45.2-.13.13-.2.28-.2.45v24.99c0,.16.07.31.2.45.13.13.28.2.45.2Zm-.65,0V4.28v26.29Z"/>
</svg>