<?xml version="1.0" encoding="UTF-8"?>
<svg id="Capa_1" data-name="Capa 1" xmlns="http://www.w3.org/2000/svg" viewBox="0 0 40 40">
  <defs>
    <style>
      .cls-1 {
        fill: none;
      }
    </style>
  </defs>
  <rect class="cls-1" width="40" height="40"/>
  <path d="m9.09,25.25h2.02c.25,0,.38,0,.63-.13s.38-.25.5-.38l12.11-11.99c.25-.13.25-.38.25-.63s-.13-.5-.25-.76l-2.4-2.27c-.13-.13-.38-.13-.63-.13s-.5.13-.63.25l-11.99,12.11c-.13.13-.25.38-.38.5-.13.25-.13.38-.13.63v1.89c0,.25.13.38.25.63.25.25.38.25.63.25Zm8.2,0h13.5c.38,0,.63-.13.88-.38.25-.25.38-.63.38-1.01s-.13-.63-.38-.88c-.25-.25-.5-.38-.88-.38h-10.85l-2.65,2.65Zm-9.84,7.95l-4.67,4.67c-.5.5-1.14.63-1.77.25s-1.01-.76-1.01-1.51V4.94c0-.88.38-1.64,1.01-2.27s1.39-1.01,2.27-1.01h33.44c.88,0,1.64.38,2.27,1.01s1.01,1.39,1.01,2.27v24.98c0,.88-.38,1.64-1.01,2.27s-1.39,1.01-2.27,1.01c-.13,0-29.27,0-29.27,0Zm-3.41-2.65h32.56c.13,0,.25-.13.5-.25.13-.13.25-.25.25-.5V4.94c0-.13-.13-.25-.25-.5-.13-.13-.25-.25-.5-.25H3.28c-.13,0-.25.13-.5.25-.13.13-.13.25-.13.5v27.13c0-.13,1.39-1.51,1.39-1.51Zm-1.39,0V4.31v26.25Z"/>
</svg>