<?xml version="1.0" encoding="UTF-8"?>
<svg id="Capa_1" data-name="Capa 1" xmlns="http://www.w3.org/2000/svg" viewBox="0 0 40 40">
  <defs>
    <style>
      .cls-1 {
        fill: none;
      }
    </style>
  </defs>
  <rect class="cls-1" width="40" height="40"/>
  <path d="m9.55,33.03c-.52,0-.9-.26-1.29-.65s-.65-.9-.65-1.29v-3.74h26.06l.65.65V9.16h3.74c.52,0,.9.26,1.29.65s.65.9.65,1.42v25.42c0,.77-.39,1.29-1.03,1.55-.65.26-1.29.13-1.81-.39l-4.77-4.77H9.55Zm-1.94-9.42l-4.77,4.77c-.52.52-1.16.65-1.81.39-.65-.26-1.03-.77-1.03-1.55V3.61c0-.52.26-.9.65-1.29s.77-.65,1.29-.65h26.84c.52,0,.9.26,1.29.65s.65.9.65,1.42v18.06c0,.52-.26.9-.65,1.29s-.77.65-1.29.65H7.61v-.13Zm20.26-2.71V4.39H2.71v18.06l1.55-1.55c-.13,0,23.61,0,23.61,0Zm-25.16,0V4.39v16.52Z"/>
</svg>