<?xml version="1.0" encoding="UTF-8"?>
<svg id="Capa_1" data-name="Capa 1" xmlns="http://www.w3.org/2000/svg" viewBox="0 0 40 40">
  <defs>
    <style>
      .cls-1 {
        fill: none;
      }
    </style>
  </defs>
  <rect class="cls-1" x="0" width="40" height="40"/>
  <path d="m19.97,40c-.35,0-.64-.12-.87-.35-.23-.23-.35-.52-.35-.87v-6.59l-3.09,3.07c-.22.22-.48.33-.81.32-.32,0-.61-.13-.87-.38-.24-.24-.37-.53-.37-.85s.12-.61.37-.86l4.91-4.89c.3-.29.66-.44,1.07-.44s.76.14,1.05.44l4.91,4.94c.22.22.33.48.33.81s-.13.61-.38.87c-.24.24-.53.37-.87.37s-.62-.12-.85-.37l-2.99-3.01v6.64c0,.33-.12.6-.35.83-.24.23-.52.34-.87.34Zm-13.83-15.98c-.33,0-.6-.12-.83-.35-.23-.23-.34-.52-.34-.87s.12-.64.35-.87c.23-.23.52-.35.87-.35h27.67c.33,0,.6.12.83.35.23.23.34.52.34.87s-.12.64-.35.87c-.23.23-.52.35-.87.35H6.14Zm0-5.62c-.33,0-.6-.12-.83-.35-.23-.24-.34-.52-.34-.87s.12-.64.35-.87c.23-.23.52-.35.87-.35h27.67c.33,0,.6.12.83.35.23.23.34.52.34.87s-.12.64-.35.87c-.23.23-.52.35-.87.35,0,0-27.67,0-27.67,0Zm12.76-7l-4.94-4.94c-.22-.22-.33-.48-.32-.81,0-.32.13-.61.38-.87.24-.24.53-.37.86-.37s.62.12.85.37l2.99,3.02V1.17c0-.33.12-.6.35-.83.24-.23.52-.34.87-.34.35,0,.64.12.87.35.23.23.35.52.35.87v6.59l3.09-3.07c.22-.22.49-.33.81-.32.33,0,.61.13.86.38.24.24.37.53.37.85s-.12.61-.37.86l-4.88,4.89c-.31.3-.67.45-1.07.45s-.75-.15-1.06-.45Z"/>
</svg>