<?xml version="1.0" encoding="UTF-8"?>
<svg id="Capa_1" data-name="Capa 1" xmlns="http://www.w3.org/2000/svg" viewBox="0 0 40 40">
  <defs>
    <style>
      .cls-1 {
        fill: none;
      }
    </style>
  </defs>
  <rect class="cls-1" width="40" height="40"/>
  <path d="m10.45,29.55H1.79c-.51,0-.93-.17-1.28-.52-.34-.35-.52-.77-.52-1.29s.17-.94.52-1.28.77-.51,1.28-.51h10.01c.63,0,1.16.21,1.59.64.43.43.64.96.64,1.59v10.01c0,.51-.17.93-.52,1.28-.35.34-.77.52-1.29.52s-.94-.17-1.28-.52c-.34-.34-.51-.77-.51-1.28,0,0,0-8.66,0-8.66Zm19.09,0v8.66c0,.51-.17.93-.52,1.28-.35.34-.77.52-1.29.52s-.94-.17-1.28-.52c-.34-.34-.51-.77-.51-1.28v-10.01c0-.63.21-1.16.64-1.59.43-.43.96-.64,1.59-.64h10.01c.51,0,.93.17,1.28.52.34.35.52.77.52,1.29s-.17.94-.52,1.28c-.34.34-.77.51-1.28.51,0,0-8.66,0-8.66,0ZM10.45,10.45V1.79c0-.51.17-.93.52-1.28C11.32.17,11.75,0,12.26,0s.94.17,1.28.52c.34.34.51.77.51,1.28v10.01c0,.63-.21,1.16-.64,1.59-.43.43-.96.64-1.59.64H1.79c-.51,0-.93-.17-1.28-.52-.34-.35-.52-.77-.52-1.29s.17-.94.52-1.28.77-.51,1.28-.51c0,0,8.66,0,8.66,0Zm19.09,0h8.66c.51,0,.93.17,1.28.52.34.35.52.77.52,1.29s-.17.94-.52,1.28c-.34.34-.77.51-1.28.51h-10.01c-.63,0-1.16-.21-1.59-.64-.43-.43-.64-.96-.64-1.59V1.79c0-.51.17-.93.52-1.28C26.82.17,27.25,0,27.76,0s.94.17,1.28.52c.34.34.51.77.51,1.28,0,0,0,8.66,0,8.66Z"/>
</svg>