<?xml version="1.0" encoding="UTF-8"?>
<svg id="Capa_1" data-name="Capa 1" xmlns="http://www.w3.org/2000/svg" viewBox="0 0 40 40">
  <defs>
    <style>
      .cls-1 {
        fill: none;
      }
    </style>
  </defs>
  <rect class="cls-1" width="40" height="40"/>
  <path d="m1.4,34.2c-.38,0-.76-.13-1.02-.38s-.38-.51-.38-1.02c0-.38.13-.76.38-.89s.51-.38,1.02-.38h37.2c.38,0,.76.13,1.02.38s.38.51.38.89-.13.76-.38,1.02-.51.38-1.02.38H1.4Zm.25-5.73v-.76c0-4.84,1.53-8.79,4.46-12.1,2.93-3.18,6.75-5.22,11.21-5.99v-1.27c0-.76.25-1.4.76-1.91.51-.38,1.15-.64,1.91-.64s1.4.25,1.91.76c.51.51.76,1.15.76,1.91v1.27c4.46.76,8.15,2.8,11.21,5.99,3.06,3.18,4.46,7.26,4.46,12.1v.76c0-.13-36.69-.13-36.69-.13Zm2.8-2.68h30.96c-.38-3.95-2.17-7.26-5.1-9.81s-6.5-3.82-10.45-3.82-7.39,1.27-10.45,3.82-4.46,5.86-4.97,9.81Z"/>
</svg>