<?xml version="1.0" encoding="UTF-8"?>
<svg id="Capa_1" data-name="Capa 1" xmlns="http://www.w3.org/2000/svg" viewBox="0 0 40 40">
  <defs>
    <style>
      .cls-1 {
        fill: none;
      }
    </style>
  </defs>
  <rect class="cls-1" width="40" height="40"/>
  <path d="m.18,32.15c-.37.62-.12,1.37.37,1.75l8.23,5.11c.62.37,1.37.25,1.75-.37h0c5.24-8.73,6.23-7.48,21.94,0,.62.25,1.37,0,1.75-.62h0l3.99-8.85c.25-.62,0-1.37-.62-1.62-1.75-.87-5.11-2.49-8.23-3.86C10.03,13.95,3.55,26.92.18,32.15ZM39.82,7.85c.37-.62.12-1.37-.37-1.75L31.22.99c-.62-.37-1.37-.25-1.75.37v.12c-5.24,8.73-6.36,7.48-21.81.12-.87-.37-1.62-.12-1.87.5h0L1.8,10.96c-.25.62,0,1.37.62,1.62,1.75.87,5.11,2.49,8.23,3.99,19.32,9.35,25.8-3.49,29.17-8.73h0Z"/>
</svg>