<?xml version="1.0" encoding="UTF-8"?>
<svg id="Capa_1" data-name="Capa 1" xmlns="http://www.w3.org/2000/svg" viewBox="0 0 40 40">
  <defs>
    <style>
      .cls-1 {
        fill: none;
      }
    </style>
  </defs>
  <rect class="cls-1" width="40" height="40"/>
  <path d="m16.98,15.91c.86,0,1.48-.25,2.09-.86s.86-1.23.86-2.09-.25-1.47-.86-2.09-1.23-.86-2.09-.86-1.48.25-2.09.86c-.62.61-.86,1.23-.86,2.09s.25,1.47.86,2.09c.62.49,1.23.86,2.09.86Zm-4.06,10.2c.86,0,1.48-.25,2.09-.86s.86-1.23.86-2.09-.25-1.47-.86-2.09c-.62-.61-1.23-.86-2.09-.86s-1.48.25-2.09.86-.86,1.23-.86,2.09.25,1.47.86,2.09c.62.61,1.23.86,2.09.86Zm13.29,1.97c.49,0,.98-.12,1.35-.49.37-.37.49-.74.49-1.35,0-.49-.12-.98-.49-1.35-.37-.37-.74-.49-1.35-.49-.49,0-.98.12-1.35.49-.37.37-.49.74-.49,1.35,0,.49.12.98.49,1.35.37.37.86.49,1.35.49Zm-6.15,11.92c-2.71,0-5.29-.49-7.75-1.6-2.46-1.11-4.55-2.46-6.4-4.3-1.85-1.72-3.2-3.81-4.31-6.27S0,22.8,0,20.09s.62-5.41,1.72-7.99c1.11-2.46,2.58-4.67,4.55-6.51,1.85-1.84,4.06-3.32,6.65-4.3C15.51.31,18.09-.18,20.92.06c.74,0,1.23.25,1.72.61.37.37.74.86.74,1.6.25,2.21,1.11,4.18,2.58,5.65,1.48,1.47,3.45,2.33,5.78,2.58.49.12.98.25,1.23.61.37.37.49.86.62,1.47.12,1.35.62,2.46,1.48,3.44.86.98,1.85,1.72,3.08,2.21.74.37,1.23.74,1.48,1.23.25.49.37,1.11.37,1.72-.12,2.58-.74,5.04-1.85,7.37-1.11,2.33-2.58,4.3-4.31,6.02-1.85,1.72-3.82,3.07-6.15,4.06-2.46.86-4.92,1.35-7.63,1.35Zm0-2.46c4.68,0,8.62-1.6,11.94-4.79s5.17-7.13,5.54-11.92c-1.85-.74-3.32-1.72-4.31-3.07-1.11-1.35-1.72-2.95-1.97-4.67-2.83-.37-5.17-1.35-7.02-3.32-1.85-1.84-2.95-4.18-3.2-7-2.58-.12-4.92.25-7.26,1.11-2.22.86-4.18,2.21-5.78,3.81s-2.95,3.56-3.94,5.65c-.98,2.21-1.35,4.42-1.35,6.76,0,4.79,1.72,8.97,5.05,12.29s7.51,5.16,12.31,5.16Z"/>
</svg>