<?xml version="1.0" encoding="UTF-8"?>
<svg id="Capa_1" data-name="Capa 1" xmlns="http://www.w3.org/2000/svg" viewBox="0 0 40 40">
  <defs>
    <style>
      .cls-1 {
        fill: none;
      }
    </style>
  </defs>
  <rect class="cls-1" x="0" width="40" height="40"/>
  <path d="m34.16,33.31H12.53c-.82,0-1.52-.29-2.1-.88-.58-.58-.88-1.28-.88-2.1V2.98c0-.82.29-1.52.88-2.1.58-.58,1.28-.88,2.1-.88h13.56c.41,0,.8.08,1.17.24.37.16.69.37.96.64l8.04,8.04c.27.27.48.58.64.96s.24.76.24,1.17v19.28c0,.82-.29,1.52-.88,2.1-.58.58-1.28.88-2.1.88Zm.59-22.4h-6.66c-.55,0-1.01-.19-1.39-.57-.38-.38-.57-.84-.57-1.39V2.39h-13.6c-.15,0-.28.06-.4.18-.12.12-.18.26-.18.4v27.35c0,.15.06.28.18.4.12.12.26.18.4.18h21.64c.15,0,.28-.06.4-.18.12-.12.18-.26.18-.4,0,0,0-19.42,0-19.42ZM5.84,40c-.82,0-1.52-.29-2.1-.88-.58-.58-.88-1.28-.88-2.1V11.72c0-.34.12-.62.35-.85.23-.23.52-.34.86-.34s.63.11.85.34c.23.23.34.51.34.85v25.3c0,.15.06.28.18.4.12.12.26.18.4.18h19.56c.34,0,.62.12.85.35.23.23.34.52.34.86s-.11.63-.34.85c-.23.23-.51.34-.85.34H5.84ZM11.94,2.39v8.52V2.39v28.52V2.39Z"/>
</svg>