<?xml version="1.0" encoding="UTF-8"?>
<svg id="Capa_1" data-name="Capa 1" xmlns="http://www.w3.org/2000/svg" viewBox="0 0 40 40">
  <defs>
    <style>
      .cls-1 {
        fill: none;
      }
    </style>
  </defs>
  <rect class="cls-1" width="40" height="40"/>
  <path d="m20,33.67c.63,0,1.14-.25,1.52-.63.38-.38.63-.89.63-1.52v-6.96h2.15c.25,0,.38-.13.63-.25.13-.13.25-.38.25-.63v-8.1c0-.76-.38-1.39-1.27-1.77-.76-.38-2.15-.63-3.92-.63s-3.04.25-3.92.63c-.76.38-1.27,1.01-1.27,1.77v8.1c0,.25.13.38.25.63.13.13.38.25.63.25h2.15v6.96c0,.63.25,1.14.63,1.52.38.38.89.63,1.52.63Zm0,6.33c-2.78,0-5.32-.51-7.85-1.52-2.41-1.01-4.56-2.41-6.33-4.3-1.77-1.77-3.29-3.92-4.3-6.33-1.01-2.41-1.52-5.06-1.52-7.85s.51-5.44,1.52-7.85c1.01-2.41,2.53-4.56,4.3-6.33s3.92-3.29,6.33-4.3S17.22,0,20,0s5.44.51,7.85,1.52c2.41,1.01,4.56,2.53,6.33,4.3,1.77,1.77,3.29,3.92,4.3,6.33,1.01,2.41,1.52,5.06,1.52,7.85s-.51,5.32-1.52,7.85c-1.01,2.41-2.53,4.56-4.3,6.33-1.77,1.77-3.92,3.29-6.33,4.3-2.41,1.01-5.06,1.52-7.85,1.52Zm0-2.66c4.94,0,8.99-1.65,12.41-5.06,3.42-3.42,5.06-7.47,5.06-12.41s-1.65-8.99-5.06-12.41c-3.42-3.42-7.47-5.06-12.41-5.06s-8.99,1.65-12.41,5.06c-3.42,3.42-5.06,7.47-5.06,12.41s1.65,8.99,5.06,12.41c3.42,3.42,7.47,5.06,12.41,5.06Zm0-25.57c.76,0,1.39-.25,1.9-.76.51-.51.76-1.14.76-1.9s-.25-1.39-.76-1.9-1.14-.76-1.9-.76-1.39.25-1.9.76c-.51.51-.76,1.14-.76,1.9s.25,1.39.76,1.9c.51.51,1.14.76,1.9.76Z"/>
</svg>