<?xml version="1.0" encoding="UTF-8"?>
<svg id="Capa_1" data-name="Capa 1" xmlns="http://www.w3.org/2000/svg" viewBox="0 0 40 40">
  <defs>
    <style>
      .cls-1 {
        fill: none;
      }
    </style>
  </defs>
  <rect class="cls-1" width="40" height="40"/>
  <path d="m40,7.47v25.06c0,.89-.38,1.65-1.01,2.28-.63.63-1.39,1.01-2.28,1.01H3.29c-.89,0-1.65-.38-2.28-1.01s-1.01-1.39-1.01-2.28V7.47c0-.89.38-1.65,1.01-2.28s1.39-1.01,2.28-1.01h33.54c.89,0,1.65.38,2.28,1.01s.89,1.39.89,2.28ZM2.66,12.66h34.81v-5.19c0-.13-.13-.25-.25-.51-.13-.13-.25-.25-.51-.25H3.29c-.13,0-.25.13-.51.25-.13.25-.13.38-.13.51v5.19Zm0,5.95v13.92c0,.13.13.25.25.51.13.13.25.25.51.25h33.54c.13,0,.25-.13.51-.25.13-.13.25-.25.25-.51v-13.92H2.66Zm0,14.56V6.84v26.33Z"/>
</svg>