<?xml version="1.0" encoding="UTF-8"?>
<svg id="Capa_1" data-name="Capa 1" xmlns="http://www.w3.org/2000/svg" viewBox="0 0 40 40">
  <defs>
    <style>
      .cls-1 {
        fill: none;
      }
    </style>
  </defs>
  <rect class="cls-1" x="0" width="40" height="40"/>
  <path d="m30.1,27.76V10.46c0-.14-.06-.27-.18-.39s-.25-.18-.39-.18H12.23v-2.34h17.3c.79,0,1.48.29,2.05.86.57.57.86,1.26.86,2.05v17.3s-2.34,0-2.34,0Zm1.16,12.24c-.33,0-.6-.11-.83-.34-.22-.22-.33-.5-.33-.83v-6.39H10.46c-.8,0-1.48-.29-2.05-.86-.57-.57-.86-1.26-.86-2.05V9.89H1.16c-.33,0-.61-.11-.83-.34-.22-.23-.34-.5-.34-.84s.11-.6.34-.83c.22-.23.5-.34.83-.34h6.39V1.17c0-.33.11-.61.34-.83C8.11.11,8.39,0,8.73,0s.6.11.83.34c.22.22.34.5.34.83v28.36c0,.15.06.28.17.4.12.12.25.17.4.17h28.36c.33,0,.61.11.83.34s.34.51.34.84-.11.6-.34.83-.5.33-.83.33h-6.38v6.39c0,.33-.11.61-.34.83s-.51.34-.84.34h0Z"/>
  <path d="m11.19,30.51l-9.1,9.13c-.24.24-.48.36-.84.36-.24,0-.6-.12-.84-.36s-.36-.48-.36-.84.12-.6.36-.84L37.91.36C38.15.12,38.39,0,38.75,0s.6.12.84.36c.24.24.36.48.36.84s-.12.6-.36.84l-1.8,1.8m-2.51,2.41S13.6,28.11,13.48,27.99"/>
</svg>