<?xml version="1.0" encoding="UTF-8"?>
<svg id="Capa_1" data-name="Capa 1" xmlns="http://www.w3.org/2000/svg" viewBox="0 0 40 40">
  <defs>
    <style>
      .cls-1 {
        fill: none;
      }
    </style>
  </defs>
  <rect class="cls-1" width="40" height="40"/>
  <path d="m20,23.83c-1.07,0-1.97-.37-2.71-1.12-.74-.75-1.11-1.65-1.11-2.72,0-1.07.37-1.97,1.12-2.71.75-.74,1.65-1.11,2.72-1.11s1.97.37,2.71,1.12c.74.75,1.11,1.65,1.11,2.72s-.37,1.97-1.12,2.71c-.75.74-1.65,1.11-2.72,1.11Zm0-13.24c-.42,0-.77-.14-1.05-.42s-.42-.63-.42-1.05V1.48c0-.42.14-.77.43-1.05C19.23.14,19.59,0,20.01,0s.77.14,1.05.42c.28.28.42.63.42,1.05v7.63c0,.42-.14.77-.43,1.05-.28.28-.64.42-1.06.42Zm0,29.41c-.42,0-.77-.14-1.05-.43-.28-.28-.42-.63-.42-1.05v-7.63c0-.42.14-.77.43-1.05.28-.28.64-.42,1.06-.42s.77.14,1.05.42.42.63.42,1.05v7.63c0,.42-.14.77-.43,1.05-.28.28-.64.43-1.06.42Zm10.9-18.52c-.42,0-.77-.14-1.05-.43-.28-.28-.42-.64-.42-1.06s.14-.77.42-1.05c.28-.28.63-.42,1.05-.42h7.63c.42,0,.77.14,1.05.43.28.28.42.64.42,1.06s-.14.77-.42,1.05c-.28.28-.63.42-1.05.42h-7.63Zm-29.41,0c-.42,0-.77-.14-1.05-.43-.28-.28-.43-.64-.43-1.06s.14-.77.43-1.05c.28-.28.63-.42,1.05-.42h7.63c.42,0,.77.14,1.05.43.28.28.42.64.42,1.06s-.14.77-.42,1.05-.63.42-1.05.42H1.48Z"/>
</svg>