<?xml version="1.0" encoding="UTF-8"?>
<svg id="Capa_1" data-name="Capa 1" xmlns="http://www.w3.org/2000/svg" viewBox="0 0 40 40">
  <defs>
    <style>
      .cls-1 {
        fill: none;
      }
    </style>
  </defs>
  <rect class="cls-1" width="40" height="40"/>
  <path d="m18.68,36.7v-15.95L4.73,12.69v15.59c0,.11.03.21.08.3.05.09.14.18.24.24,0,0,13.62,7.88,13.62,7.88Zm2.65,0l13.62-7.88c.11-.07.19-.15.24-.24.05-.09.08-.2.08-.3v-15.61l-13.94,8.08s0,15.96,0,15.96Zm-1.32-18.2l13.76-7.99-13.44-7.78c-.11-.06-.22-.09-.32-.09-.11,0-.22.03-.32.09l-13.46,7.78,13.79,7.99ZM3.73,31.13c-.52-.3-.93-.71-1.22-1.22s-.43-1.05-.43-1.64V11.73c0-.59.14-1.13.43-1.64s.69-.91,1.22-1.22L18.35.44C18.88.15,19.43,0,20.01,0s1.12.15,1.64.44l14.62,8.43c.52.3.93.71,1.22,1.22.29.51.43,1.05.43,1.64v16.54c0,.59-.14,1.13-.43,1.64-.29.51-.69.91-1.22,1.22l-14.62,8.43c-.53.29-1.08.44-1.65.44-.58,0-1.12-.15-1.64-.44,0,0-14.62-8.43-14.62-8.43Z"/>
</svg>