<?xml version="1.0" encoding="UTF-8"?>
<svg id="Capa_1" data-name="Capa 1" xmlns="http://www.w3.org/2000/svg" viewBox="0 0 40 40">
  <defs>
    <style>
      .cls-1 {
        fill: none;
      }
    </style>
  </defs>
  <rect class="cls-1" width="40" height="40"/>
  <path d="m35.5,38.38l-15.38-15.33-6.25,6.23c.38.5.62,1.12.75,1.62.13.62.13,1.12.13,1.74,0,2.12-.75,3.74-2.12,5.23s-3.12,2.12-5.25,2.12-3.75-.75-5.25-2.12c-1.5-1.37-2.13-2.99-2.13-5.11s.75-3.74,2.12-5.23c1.37-1.37,3.12-2.12,5.25-2.12.62,0,1.25.12,1.88.25s1.12.37,1.75.75l6.25-6.23-6.25-6.23c-.5.25-1.12.5-1.75.62s-1.25.12-1.88.12c-2.12,0-3.75-.75-5.25-2.12-1.5-1.5-2.12-3.12-2.12-5.23S.75,3.61,2.12,2.12C3.5.75,5.25,0,7.37,0s3.75.75,5.25,2.12c1.38,1.37,2.12,3.12,2.12,5.23,0,.62,0,1.25-.13,1.87s-.38,1.12-.62,1.62l26,26.04v1.5h-4.5Zm-9.63-20.93l-3-2.99L35.5,1.74h4.5v1.5l-14.12,14.21ZM7.37,12.09c1.38,0,2.37-.5,3.37-1.37.87-.87,1.38-1.99,1.38-3.36s-.5-2.37-1.38-3.36c-1-.87-2.12-1.37-3.37-1.37-1.37,0-2.5.5-3.37,1.37-1,1-1.37,1.99-1.37,3.36s.5,2.37,1.37,3.36c.88.87,2,1.37,3.37,1.37Zm12.75,8.6c.13,0,.25,0,.37-.12.13-.12.13-.25.13-.37s0-.25-.13-.37c-.13-.12-.25-.12-.37-.12s-.25,0-.37.12c-.13.12-.13.25-.13.37s0,.25.13.37c.12,0,.25.12.37.12Zm-12.75,16.82c1.38,0,2.37-.5,3.37-1.37.87-.87,1.38-1.99,1.38-3.36s-.5-2.37-1.38-3.36c-.87-.87-2-1.37-3.37-1.37s-2.38.5-3.37,1.37c-.87.87-1.37,1.99-1.37,3.36s.5,2.37,1.37,3.36c.88.87,2,1.37,3.37,1.37Z"/>
</svg>