<?xml version="1.0" encoding="UTF-8"?>
<svg id="Capa_1" data-name="Capa 1" xmlns="http://www.w3.org/2000/svg" viewBox="0 0 40 40">
  <defs>
    <style>
      .cls-1 {
        fill: none;
      }
    </style>
  </defs>
  <rect class="cls-1" width="40" height="40"/>
  <path d="m20,40c-5.65,0-10.46-.85-14.28-2.4S.07,33.92.07,31.52V8.2C.07,5.94,2.05,3.96,5.87,2.4,9.82.85,14.49,0,20,0s10.32.85,14.13,2.4c3.96,1.55,5.8,3.53,5.8,5.8v23.32c0,2.4-1.84,4.38-5.65,6.08-3.82,1.55-8.62,2.4-14.28,2.4Zm0-27.56c3.39,0,6.78-.42,10.32-1.41s5.65-2.12,6.5-3.25c-.85-1.27-2.97-2.26-6.5-3.39-3.53-.99-6.93-1.55-10.32-1.55s-6.93.42-10.32,1.41c-3.53.99-5.65,2.12-6.5,3.25.85,1.27,2.97,2.4,6.5,3.39,3.25,1.13,6.78,1.55,10.32,1.55Zm0,12.3c1.7,0,3.25-.14,4.81-.28s3.11-.42,4.66-.71c1.41-.28,2.83-.71,4.1-1.27,1.27-.42,2.4-.99,3.53-1.55v-9.47c-.99.57-2.26,1.13-3.53,1.7-1.27.42-2.69.85-4.1,1.27-1.41.28-2.97.57-4.52.71s-3.25.28-4.81.28c-1.7,0-3.25-.14-4.95-.28-1.55-.14-3.11-.42-4.66-.71-1.41-.28-2.83-.71-4.1-1.27-1.27-.42-2.4-.99-3.39-1.7v9.33c.99.57,2.12,1.13,3.39,1.55,1.27.42,2.69.85,4.1,1.27,1.41.28,2.97.57,4.66.71,1.41.28,3.11.42,4.81.42Zm0,12.3c1.98,0,3.82-.14,5.8-.42,1.98-.28,3.67-.71,5.23-1.13s2.83-.99,3.96-1.7c1.13-.57,1.84-1.27,2.12-1.98v-7.92c-.99.57-2.12,1.13-3.53,1.55-1.27.42-2.69.85-4.1,1.27-1.41.28-2.97.57-4.52.71s-3.25.28-4.81.28c-1.7,0-3.39-.14-4.95-.28s-3.11-.42-4.66-.71c-1.41-.28-2.83-.71-4.1-1.27-1.27-.42-2.4-.99-3.39-1.55v7.92c.28.71.99,1.41,2.12,1.98s2.4,1.13,3.96,1.7c1.55.42,3.25.85,5.23,1.13,1.7.28,3.67.42,5.65.42Z"/>
</svg>