<?xml version="1.0" encoding="UTF-8"?>
<svg id="Capa_1" data-name="Capa 1" xmlns="http://www.w3.org/2000/svg" viewBox="0 0 40 40">
  <defs>
    <style>
      .cls-1 {
        fill: none;
      }
    </style>
  </defs>
  <rect class="cls-1" x="0" width="40" height="40"/>
  <path d="m16.87,20.31c0,1.21-.98,2.19-2.19,2.19s-2.19-.98-2.19-2.19c0-3.45,2.8-6.25,6.25-6.25s6.25,2.8,6.25,6.25c0,1.21-.98,2.19-2.19,2.19s-2.19-.98-2.19-2.19c0-1.03-.84-1.88-1.88-1.88s-1.88.84-1.88,1.88Zm1.88-13.75c-7.58,0-13.75,6.17-13.75,13.75,0,1.21.98,2.19,2.19,2.19s2.19-.98,2.19-2.19c0-5.17,4.21-9.38,9.38-9.38s9.38,4.21,9.38,9.38c0,5.87-5.55,5.49-5.62,11.22v.03c0,2.24-1.82,4.06-4.06,4.06-1.21,0-2.19.98-2.19,2.19s.98,2.19,2.19,2.19c4.65,0,8.43-3.78,8.44-8.42.05-2.69,5.63-3.77,5.63-11.27s-6.17-13.75-13.75-13.75Zm20.98-4.08l-2.21-2.21c-.37-.37-.96-.37-1.33,0l-6.8,6.8c-.37.37-.37.96,0,1.33l2.21,2.21c.37.37.96.37,1.33,0l6.8-6.8c.37-.37.37-.96,0-1.33h0ZM13.2,24.59c-.37-.37-.96-.37-1.33,0L.27,36.19c-.37.37-.37.96,0,1.33l2.21,2.21c.37.37.96.37,1.33,0l11.6-11.6c.37-.37.37-.96,0-1.33l-2.21-2.21Z"/>
</svg>