<?xml version="1.0" encoding="UTF-8"?>
<svg id="Capa_1" data-name="Capa 1" xmlns="http://www.w3.org/2000/svg" viewBox="0 0 40 40">
  <defs>
    <style>
      .cls-1 {
        fill: none;
      }
    </style>
  </defs>
  <rect class="cls-1" width="40" height="40"/>
  <path d="m17.29,35.33v-4.67H3.28c-.88,0-1.64-.38-2.27-1.01s-1.01-1.39-1.01-2.27V5.43c0-.88.38-1.64,1.01-2.27s1.39-1.01,2.27-1.01h33.44c.88,0,1.64.38,2.27,1.01s1.01,1.39,1.01,2.27v21.83c0,.88-.38,1.64-1.01,2.27s-1.39,1.01-2.27,1.01h-14.13v4.67h3.03c.38,0,.63.13.88.38s.38.63.38,1.01-.13.63-.38.88c-.25.25-.5.38-.88.38h-11.36c-.38,0-.63-.13-.88-.38s-.38-.63-.38-.88.13-.63.38-.88.5-.38.88-.38h3.03Zm-14.01-7.44h33.44c.13,0,.25-.13.5-.25.13-.13.25-.25.25-.5V5.43c0-.13-.13-.25-.25-.5-.13-.13-.25-.25-.5-.25H3.28c-.25.13-.38.25-.5.38-.13.13-.13.25-.13.38v21.83c0,.13.13.25.25.5,0,.13.13.13.38.13Zm-.63,0V4.79v23.09Z"/>
</svg>