<?xml version="1.0" encoding="UTF-8"?>
<svg id="Capa_1" data-name="Capa 1" xmlns="http://www.w3.org/2000/svg" viewBox="0 0 40 40">
  <defs>
    <style>
      .cls-1 {
        fill: none;
      }
    </style>
  </defs>
  <rect class="cls-1" width="40" height="40"/>
  <path d="m10.1,32.47c.71,0,1.32-.25,1.81-.75.5-.5.74-1.11.74-1.82,0-.71-.25-1.32-.75-1.81-.5-.5-1.11-.74-1.82-.74-.71,0-1.32.25-1.81.75-.5.5-.74,1.11-.74,1.82s.25,1.32.75,1.81c.5.5,1.11.74,1.82.74Zm0-19.82c.71,0,1.32-.25,1.81-.75.5-.5.74-1.11.74-1.82,0-.71-.25-1.32-.75-1.81-.5-.5-1.11-.74-1.82-.74s-1.32.25-1.81.75c-.5.5-.74,1.11-.74,1.82s.25,1.32.75,1.81c.5.5,1.11.74,1.82.74Zm9.91,9.91c.71,0,1.32-.25,1.81-.75.5-.5.74-1.11.74-1.82s-.25-1.32-.75-1.81c-.5-.5-1.11-.74-1.82-.74s-1.32.25-1.81.75-.74,1.11-.74,1.82.25,1.32.75,1.81c.5.5,1.11.74,1.82.74Zm9.91,9.91c.71,0,1.32-.25,1.81-.75.5-.5.74-1.11.74-1.82s-.25-1.32-.75-1.81-1.11-.74-1.82-.74c-.71,0-1.32.25-1.81.75-.5.5-.74,1.11-.74,1.82s.25,1.32.75,1.81c.5.5,1.11.74,1.82.74Zm0-19.82c.71,0,1.32-.25,1.81-.75.5-.5.74-1.11.74-1.82s-.25-1.32-.75-1.81c-.5-.5-1.11-.74-1.82-.74s-1.32.25-1.81.75c-.5.5-.74,1.11-.74,1.82s.25,1.32.75,1.81c.5.5,1.11.74,1.82.74ZM3.68,40c-1.01,0-1.88-.36-2.6-1.08s-1.08-1.59-1.08-2.6V3.68c0-1.01.36-1.88,1.08-2.6S2.67,0,3.68,0h32.64C37.33,0,38.2.36,38.92,1.08s1.08,1.59,1.08,2.6v32.64c0,1.01-.36,1.88-1.08,2.6s-1.59,1.08-2.6,1.08H3.68Zm0-2.96h32.64c.18,0,.35-.08.5-.23.15-.15.23-.32.23-.5V3.68c0-.18-.08-.35-.23-.5-.15-.15-.32-.23-.5-.23H3.68c-.18,0-.35.08-.5.23-.15.15-.23.32-.23.5v32.64c0,.18.08.35.23.5.15.15.32.23.5.23ZM2.96,2.96v34.09V2.96Z"/>
</svg>