<?xml version="1.0" encoding="UTF-8"?>
<svg id="Capa_1" data-name="Capa 1" xmlns="http://www.w3.org/2000/svg" viewBox="0 0 40 40">
  <defs>
    <style>
      .cls-1 {
        fill: none;
      }
    </style>
  </defs>
  <rect class="cls-1" width="40" height="40"/>
  <path d="m29.54,32.68c.99,0,1.7-.28,2.26-.99.57-.56.99-1.41.99-2.25s-.28-1.69-.99-2.25c-.57-.56-1.41-.99-2.26-.99s-1.7.28-2.26.99c-.57.56-.99,1.41-.99,2.25s.28,1.69.99,2.25c.57.7,1.41.99,2.26.99Zm-9.47-9.44c.99,0,1.7-.28,2.26-.99.57-.56.99-1.41.99-2.25s-.28-1.69-.99-2.25c-.57-.56-1.41-.99-2.26-.99s-1.7.28-2.26.99c-.57.56-.99,1.41-.99,2.25s.28,1.69.99,2.25c.57.7,1.27.99,2.26.99Zm-9.47-9.44c.85,0,1.7-.28,2.26-.99.57-.56.99-1.41.99-2.25s-.28-1.69-.99-2.25c-.57-.56-1.41-.99-2.26-.99-.99,0-1.7.28-2.26.99-.57.56-.99,1.41-.99,2.25s.28,1.69.99,2.25c.57.7,1.41.99,2.26.99Zm-6.93,26.2c-.99,0-1.84-.42-2.54-1.13s-1.13-1.55-1.13-2.54V3.66c0-.99.42-1.83,1.13-2.54S2.69,0,3.67,0h32.65c.99,0,1.84.42,2.54,1.13s1.13,1.55,1.13,2.54v32.54c0,.99-.42,1.83-1.13,2.54s-1.55,1.13-2.54,1.13H3.67v.14Zm0-2.96h32.65c.14,0,.28-.14.57-.28.14-.14.28-.28.28-.56V3.66c0-.14-.14-.28-.28-.56-.14-.14-.28-.28-.57-.28H3.67c-.14.14-.28.28-.42.42-.14.14-.28.28-.28.42v32.54c0,.14.14.28.28.56.14.14.28.28.42.28ZM2.97,2.96v33.94V2.96Z"/>
</svg>