<?xml version="1.0" encoding="UTF-8"?>
<svg id="Capa_1" data-name="Capa 1" xmlns="http://www.w3.org/2000/svg" viewBox="0 0 40 40">
  <defs>
    <style>
      .cls-1 {
        fill: none;
      }
    </style>
  </defs>
  <rect class="cls-1" width="40" height="40"/>
  <path d="m14.56,19.24h9.62v2.28c0,.38.13.63.51.76s.63.13.89-.13l3.16-3.16c.25-.25.38-.63.38-1.01s-.13-.76-.38-1.01l-3.16-3.29c-.25-.25-.51-.25-.89-.13-.38.13-.51.38-.51.76v2.28h-10.51c-.51,0-.89.13-1.14.51-.25.25-.51.76-.51,1.14v6.2c0,.38.13.63.38.89s.63.38.89.38c.38,0,.63-.13.89-.38.25-.25.38-.51.38-.89v-5.19Zm5.32,20.63c-.38,0-.89-.13-1.27-.25-.38-.13-.76-.38-1.14-.76L1.01,22.28c-.25-.25-.51-.63-.76-1.14-.13-.38-.25-.89-.25-1.27s.13-.89.25-1.27.38-.76.76-1.14L17.59,1.14c.25-.25.63-.51,1.14-.76.38-.13.89-.25,1.27-.25s.89.13,1.27.25.76.38,1.14.76l16.58,16.58c.25.25.51.63.76,1.14.13.38.25.89.25,1.27s-.13.89-.25,1.27c-.13.38-.38.76-.76,1.14l-16.84,16.33c-.25.25-.63.51-1.14.76-.25.13-.76.25-1.14.25Zm-8.73-11.14l8.35,8.35c.13.13.25.13.51.13.13,0,.38,0,.51-.13l16.58-16.58c.13-.13.13-.25.13-.51,0-.13,0-.38-.13-.51L20.38,2.91c-.13-.13-.25-.13-.51-.13-.13,0-.38,0-.51.13L2.78,19.49c-.13.13-.13.25-.13.51s0,.38.13.51l8.35,8.23Z"/>
</svg>