<?xml version="1.0" encoding="UTF-8"?>
<svg id="Capa_1" data-name="Capa 1" xmlns="http://www.w3.org/2000/svg" viewBox="0 0 40 40">
  <defs>
    <style>
      .cls-1 {
        fill: none;
      }
    </style>
  </defs>
  <rect class="cls-1" x="0" width="40" height="40"/>
  <path d="m25.72,19c0,1.22-.9,2.22-2.04,2.22s-2.04-1-2.04-2.22.9-2.22,2.04-2.22,2.04,1,2.04,2.22Zm-9.34-2.22c-1.14,0-2.04,1-2.04,2.22s.92,2.22,2.04,2.22,2.04-1,2.04-2.22c.02-1.22-.9-2.22-2.04-2.22Zm21.12-12.66v35.88c-5.04-4.45-3.43-2.98-9.28-8.42l1.06,3.7H6.6c-2.26,0-4.1-1.84-4.1-4.12V4.12C2.5,1.84,4.34,0,6.6,0h26.8c2.26,0,4.1,1.84,4.1,4.12Zm-5.7,18.96c0-6.44-2.88-11.66-2.88-11.66-2.88-2.16-5.62-2.1-5.62-2.1l-.28.32c3.4,1.04,4.98,2.54,4.98,2.54-4.75-2.6-10.33-2.6-14.94-.58-.74.34-1.18.58-1.18.58,0,0,1.66-1.58,5.26-2.62l-.2-.24s-2.74-.06-5.62,2.1c0,0-2.88,5.22-2.88,11.66,0,0,1.68,2.9,6.1,3.04,0,0,.74-.9,1.34-1.66-2.54-.76-3.5-2.36-3.5-2.36.29.21.78.47.82.5,3.38,1.89,8.17,2.51,12.48.7.7-.26,1.48-.64,2.3-1.18,0,0-1,1.64-3.62,2.38.6.76,1.32,1.62,1.32,1.62,4.42-.14,6.12-3.04,6.12-3.04h0Z"/>
</svg>