<?xml version="1.0" encoding="UTF-8"?>
<svg id="Capa_1" data-name="Capa 1" xmlns="http://www.w3.org/2000/svg" viewBox="0 0 40 40">
  <defs>
    <style>
      .cls-1 {
        fill: none;
      }
    </style>
  </defs>
  <rect class="cls-1" x="0" width="40" height="40"/>
  <path d="m10.12,18.33c.23.22.48.34.77.34s.54-.11.76-.34l1.51-1.51,1.54,1.54c.21.21.46.31.76.31.29,0,.55-.12.78-.35.22-.23.34-.48.34-.77s-.11-.54-.34-.76l-1.53-1.51,1.53-1.54c.21-.21.32-.46.33-.76,0-.29-.1-.55-.33-.77-.23-.22-.48-.34-.77-.34s-.54.11-.76.34l-1.54,1.54-1.53-1.54c-.21-.21-.45-.32-.74-.33-.29,0-.54.1-.77.33-.22.23-.34.48-.34.77s.11.54.34.76l1.51,1.54-1.53,1.53c-.21.21-.32.46-.32.74,0,.29.11.54.34.76Zm13.67,0c.23.22.48.34.77.34s.55-.11.77-.34l1.51-1.51,1.53,1.54c.21.21.46.31.76.31s.55-.12.77-.35c.22-.23.34-.48.34-.77s-.11-.54-.34-.76l-1.53-1.51,1.53-1.54c.21-.21.32-.46.33-.76,0-.29-.1-.55-.33-.77-.22-.22-.47-.34-.76-.34s-.55.11-.77.34l-1.53,1.54-1.54-1.54c-.21-.21-.45-.32-.74-.33-.29,0-.54.1-.77.33-.22.23-.34.48-.34.77s.11.54.34.76l1.51,1.54-1.53,1.53c-.21.21-.32.46-.32.74,0,.29.11.54.34.76Zm-3.79,21.67c-2.77,0-5.36-.53-7.78-1.58-2.42-1.05-4.54-2.48-6.35-4.29s-3.24-3.93-4.29-6.36c-1.05-2.42-1.58-5.02-1.58-7.79s.53-5.35,1.58-7.78c1.05-2.43,2.48-4.54,4.29-6.34,1.81-1.8,3.93-3.23,6.36-4.28C14.65.53,17.25,0,20.02,0s5.35.53,7.78,1.58c2.43,1.05,4.54,2.48,6.34,4.28,1.8,1.8,3.23,3.92,4.28,6.35,1.05,2.43,1.58,5.03,1.58,7.79s-.53,5.36-1.58,7.78c-1.05,2.42-2.48,4.54-4.28,6.35-1.8,1.81-3.92,3.24-6.35,4.29-2.43,1.06-5.03,1.58-7.79,1.58Zm0-2.65c4.81,0,8.9-1.69,12.28-5.08,3.37-3.38,5.06-7.48,5.06-12.29,0-4.81-1.69-8.9-5.06-12.28-3.37-3.37-7.47-5.06-12.28-5.06-4.81,0-8.91,1.69-12.29,5.06-3.38,3.37-5.08,7.47-5.08,12.28s1.69,8.91,5.08,12.29c3.38,3.38,7.48,5.08,12.29,5.08Zm-8.43-7.61h16.82c.43,0,.74-.14.93-.42.19-.28.16-.61-.08-.97-1.02-1.66-2.36-2.93-4.01-3.8-1.66-.87-3.41-1.31-5.25-1.31-1.84,0-3.59.44-5.23,1.31-1.65.87-2.98,2.14-4.01,3.8-.24.37-.27.69-.09.97.18.28.49.42.92.42Z"/>
</svg>