<?xml version="1.0" encoding="UTF-8"?>
<svg id="Capa_1" data-name="Capa 1" xmlns="http://www.w3.org/2000/svg" viewBox="0 0 40 40">
  <defs>
    <style>
      .cls-1 {
        fill: none;
      }
    </style>
  </defs>
  <rect class="cls-1" width="40" height="40"/>
  <path d="m8,38.11c0-4.33.89-7.78,2.78-10.22,1.89-2.56,4.33-5.11,7.44-7.89-3.11-2.78-5.56-5.33-7.44-7.89-1.89-2.56-2.78-6-2.78-10.22v-.78c0-.33.11-.67.33-.78.11-.22.44-.33.78-.33s.67.11.78.33c.22.22.33.44.33.78v2c0,.44.11.89.11,1.22h19.11c.11-.44.11-.89.11-1.22V1.11c0-.33.11-.67.33-.78.33-.22.67-.33,1-.33s.67.11.78.33c.22.22.33.44.33.78v.67c0,4.33-.89,7.78-2.78,10.22-1.89,2.56-4.33,5.11-7.44,7.89,3.11,2.78,5.56,5.33,7.44,7.89s2.78,6,2.78,10.22v.89c0,.33-.11.67-.33.78-.22.22-.44.33-.78.33s-.67-.11-.78-.33c-.22-.22-.33-.44-.33-.78v-2c0-.44-.11-.89-.11-1.22H10.44c-.11.44-.11.89-.11,1.22v2c0,.33-.11.67-.33.78-.22.22-.44.33-.89.33-.33,0-.67-.11-.78-.33-.22-.22-.33-.44-.33-.78v-.78Zm5.33-26.44h13.33c.56-.78,1-1.56,1.44-2.33.44-.78.78-1.67,1-2.56H10.89c.22.89.56,1.78,1,2.56.44.78.89,1.56,1.44,2.33Zm6.67,6.78c.89-.78,1.78-1.56,2.56-2.22.78-.78,1.56-1.44,2.22-2.22h-9.56c.67.78,1.44,1.44,2.22,2.22.78.67,1.67,1.44,2.56,2.22Zm-4.78,7.56h9.56c-.67-.78-1.44-1.44-2.22-2.22s-1.67-1.44-2.56-2.22c-.89.78-1.78,1.56-2.56,2.22-.78.78-1.56,1.44-2.22,2.22Zm-4.33,7.22h18.11c-.22-.89-.56-1.78-1-2.56-.44-.78-.89-1.56-1.44-2.33h-13.22c-.56.78-1,1.56-1.44,2.33-.33.78-.67,1.56-1,2.56Z"/>
</svg>