<?xml version="1.0" encoding="UTF-8"?>
<svg id="Capa_1" data-name="Capa 1" xmlns="http://www.w3.org/2000/svg" viewBox="0 0 40 40">
  <defs>
    <style>
      .cls-1 {
        fill: none;
      }
    </style>
  </defs>
  <rect class="cls-1" width="40" height="40"/>
  <path d="m34.86,8.28c-.75-1.76-1.76-3.26-3.01-4.51L28.09,0l-8.03,8.03h-8.65l-2.62,2.88-3.66,3.89c-.25.25-.43.51-.57.76l-.05.05h.03c-.06.1-.13.21-.16.32-.13.38-.25.75-.25,1.25,0,.38.13.88.25,1.25.25.5.38.75.75,1.13l.75.75v19.69h21.44v-12.16l4.51-4.51c1.38-1.38,2.38-2.88,3.01-4.51.63-1.63,1-3.39,1-5.27,0-1.76-.38-3.64-1-5.27Zm-2.38,9.53c-.63,1.38-1.38,2.51-2.51,3.64l-5.27,5.27v10.66H8.53v-14.42l6.9,6.9c.75-.88,1.38-1.88,1.76-2.88.38-1.13.63-2.26.63-3.39,0-1.25-.25-2.51-.75-3.64-.5-1.13-1.25-2.26-2.13-3.13l-4.12-4.12,2.11-2.03h8.4l6.9-6.9,1.88,1.88c1,1.13,1.76,2.26,2.38,3.64.63,1.38.88,2.76.88,4.26s-.25,2.88-.88,4.26Z"/>
</svg>