<?xml version="1.0" encoding="UTF-8"?>
<svg id="Capa_1" data-name="Capa 1" xmlns="http://www.w3.org/2000/svg" viewBox="0 0 40 40">
  <defs>
    <style>
      .cls-1 {
        fill: none;
      }
    </style>
  </defs>
  <rect class="cls-1" width="40" height="40"/>
  <path d="m19.64,40c-.41,0-.82-.14-1.1-.41-.27-.27-.41-.55-.41-.96v-3.3c-1.79-.27-3.44-.82-4.67-1.79-1.24-.96-2.34-2.2-3.02-3.85-.14-.41-.14-.69,0-1.1s.41-.69.82-.82.69-.14,1.1,0,.69.41.82.82c.69,1.37,1.65,2.34,2.61,3.02,1.1.69,2.47,1.1,4.12,1.1,1.79,0,3.3-.41,4.67-1.37,1.37-.82,1.92-2.2,1.92-3.99,0-1.65-.55-3.02-1.51-3.85-1.1-.96-3.02-1.92-5.91-2.89-2.89-.96-4.95-2.06-6.19-3.3-1.24-1.37-1.92-3.02-1.92-5.09s.69-3.85,2.2-5.22,3.16-2.06,5.09-2.2V1.37c0-.41.14-.82.41-.96.27-.27.55-.41,1.1-.41.41,0,.82.14.96.41.27.27.41.55.41.96v3.3c1.37.14,2.61.55,3.71,1.1s1.92,1.37,2.75,2.47c.27.27.27.69.14,1.1s-.41.69-.69.82c-.41.14-.69.14-1.1.14-.41-.14-.69-.41-.96-.69-.55-.69-1.24-1.24-2.06-1.65s-1.79-.55-3.02-.55c-1.79,0-3.16.41-4.26,1.24-1.1.82-1.65,2.06-1.65,3.44s.55,2.61,1.65,3.44,3.16,1.79,6.19,2.75c2.75.82,4.67,2.06,5.91,3.44,1.24,1.51,1.92,3.3,1.92,5.5,0,2.34-.82,4.26-2.34,5.64s-3.57,2.2-6.05,2.61v3.3c0,.41-.14.82-.41.96-.41.14-.82.27-1.24.27Z"/>
</svg>