<?xml version="1.0" encoding="UTF-8"?>
<svg id="Capa_1" data-name="Capa 1" xmlns="http://www.w3.org/2000/svg" viewBox="0 0 40 40">
  <defs>
    <style>
      .cls-1 {
        fill: none;
      }
    </style>
  </defs>
  <rect class="cls-1" width="40" height="40"/>
  <path d="m38.72,30.13H8.08c-.9,0-1.67-.38-2.31-1.03s-1.03-1.41-1.03-2.31V4.1c0-.13,0-.38-.13-.51-.13,0-.38-.13-.51-.13H1.28c-.38,0-.64-.13-.9-.38-.26-.26-.38-.51-.38-.9s.13-.64.38-.9c.26-.26.51-.38.9-.38h2.82c.9,0,1.67.38,2.31,1.03s1.03,1.41,1.03,2.31v22.69c0,.13,0,.38.13.51s.26.13.51.13h30.64c.38,0,.64.13.9.38.26.26.38.64.38.9,0,.38-.13.64-.38.9-.26.26-.64.38-.9.38Zm-30.9,8.97c-.9,0-1.67-.26-2.18-.9-.64-.64-.9-1.41-.9-2.31s.26-1.67.9-2.18c.64-.64,1.41-.9,2.31-.9s1.67.26,2.31.9.9,1.41.9,2.31-.26,1.67-.9,2.18c-.77.64-1.54.9-2.44.9Zm5-15.38c-.51,0-.9-.13-1.15-.51-.26-.26-.51-.77-.51-1.15v-7.31c0-.51.13-.9.51-1.15.26-.26.77-.51,1.15-.51h7.31c.51,0,.9.13,1.15.51.26.26.51.77.51,1.15v7.31c0,.51-.13.9-.51,1.15-.26.26-.77.51-1.15.51h-7.31Zm1.03-2.69h5.26v-5.26h-5.26v5.26Zm13.97,2.69c-.51,0-.9-.13-1.15-.51-.26-.26-.51-.77-.51-1.15v-7.31c0-.51.13-.9.51-1.15.26-.26.77-.51,1.15-.51h7.31c.51,0,.9.13,1.15.51.26.26.51.77.51,1.15v7.31c0,.51-.13.9-.51,1.15-.26.26-.77.51-1.15.51h-7.31Zm1.03-2.69h5.26v-5.26h-5.26v5.26Zm7.95,18.08c-.9,0-1.67-.26-2.18-.9-.64-.64-.9-1.41-.9-2.31s.26-1.67.9-2.18c.64-.64,1.41-.9,2.18-.9.9,0,1.67.26,2.31.9s.9,1.41.9,2.31-.26,1.67-.9,2.18c-.64.64-1.41.9-2.31.9ZM13.85,21.03h5.26-5.26Zm15,0h5.26-5.26Z"/>
</svg>