<?xml version="1.0" encoding="UTF-8"?>
<svg id="Capa_1" data-name="Capa 1" xmlns="http://www.w3.org/2000/svg" viewBox="0 0 40 40">
  <defs>
    <style>
      .cls-1 {
        fill: none;
      }
    </style>
  </defs>
  <rect class="cls-1" width="40" height="40"/>
  <path d="m25.84,9.61c-.54-.8-1.2-1.41-2-1.86-.8-.44-1.72-.66-2.76-.66-.91,0-1.78.16-2.6.48-.82.32-1.52.81-2.1,1.48l-2-2c.67-.75,1.46-1.35,2.39-1.8.93-.45,1.86-.73,2.81-.85V1.51c0-.41.13-.74.4-1.01s.6-.4,1.01-.4.74.13,1.01.4c.27.27.4.6.4,1.01v2.85c1.19.13,2.33.53,3.42,1.18,1.09.65,2,1.61,2.74,2.87.21.34.25.7.11,1.08-.14.38-.41.66-.8.84-.35.14-.71.15-1.09,0-.38-.14-.69-.38-.94-.73Zm11.73,29.96l-9.09-9.06c-.72.82-1.62,1.48-2.72,1.97-1.09.49-2.21.76-3.36.81v2.81c0,.41-.13.74-.4,1.01-.27.27-.6.4-1.01.4s-.74-.13-1.01-.4c-.27-.27-.4-.6-.4-1.01v-2.9c-1.75-.29-3.22-.95-4.4-1.99-1.19-1.04-2.13-2.36-2.82-3.96-.16-.35-.15-.71.02-1.1.17-.39.45-.66.86-.81.36-.14.72-.12,1.08.06.36.17.63.45.81.83.59,1.34,1.4,2.39,2.44,3.16,1.04.77,2.32,1.16,3.84,1.16,1.02,0,1.97-.18,2.85-.53.88-.36,1.61-.87,2.17-1.55L.42,2.44C.15,2.17,0,1.84,0,1.45c0-.39.13-.73.42-1.02C.7.15,1.04,0,1.42,0s.72.14,1.01.43l37.15,37.15c.15.14.26.29.32.45.06.16.1.34.1.53,0,.19-.03.37-.1.53-.06.16-.17.32-.32.47-.28.29-.61.43-1,.43-.39,0-.73-.14-1.01-.43Z"/>
</svg>