<?xml version="1.0" encoding="UTF-8"?>
<svg id="Capa_1" data-name="Capa 1" xmlns="http://www.w3.org/2000/svg" viewBox="0 0 40 40">
  <defs>
    <style>
      .cls-1 {
        fill: none;
      }
    </style>
  </defs>
  <rect class="cls-1" width="40" height="40"/>
  <path d="m2.33,20c0,2.23.53,4.14,1.7,5.94s2.65,3.08,4.46,4.03c.32.11.53.32.64.64.11.32.11.53,0,.85s-.32.53-.64.64-.53.11-.85,0c-2.55-1.17-4.46-2.86-5.73-5.09-1.27-2.23-1.91-4.56-1.91-6.9s.64-4.67,1.91-6.9c1.27-2.23,3.08-3.93,5.62-5.09.32-.11.64-.21.85-.11.42.11.64.32.74.64.11.32.11.53,0,.85s-.32.53-.64.64c-1.8.85-3.29,2.23-4.46,4.03-1.17,1.7-1.7,3.71-1.7,5.84Zm21.64,13.26c-3.61,0-6.79-1.27-9.34-3.93-2.55-2.55-3.93-5.73-3.93-9.34s1.27-6.79,3.93-9.34c2.55-2.55,5.73-3.93,9.34-3.93,1.38,0,2.76.21,4.14.64,1.38.42,2.65,1.06,3.71,2.02.21.21.32.42.42.74,0,.32-.11.53-.32.74-.21.21-.42.32-.74.32s-.64-.11-.85-.21c-.95-.64-1.91-1.17-3.08-1.49-1.06-.32-2.23-.53-3.4-.53-3.08,0-5.62,1.06-7.85,3.18-2.12,2.12-3.18,4.77-3.18,7.85s1.06,5.62,3.18,7.85c2.12,2.12,4.77,3.18,7.85,3.18,1.17,0,2.23-.21,3.4-.53,1.06-.32,2.12-.85,3.08-1.49.32-.21.53-.32.85-.21.32,0,.53.11.74.32.21.21.32.42.32.74s-.11.53-.42.74c-1.17.85-2.44,1.59-3.71,2.02-1.38.42-2.76.64-4.14.64Zm12.52-12.31h-13.16c-.32,0-.53-.11-.74-.32-.21-.21-.32-.42-.32-.74s.11-.53.32-.74c.21-.21.42-.32.74-.32h13.05l-2.86-2.86c-.21-.21-.32-.42-.32-.74s.11-.53.32-.74.53-.32.74-.32.53.11.74.32l4.56,4.56c.32.32.42.64.42.95s-.11.64-.42.95l-4.56,4.56c-.21.21-.42.32-.74.32s-.53-.11-.74-.32c-.21-.21-.32-.53-.32-.74,0-.32.11-.53.32-.74l2.97-3.08Z"/>
</svg>