<?xml version="1.0" encoding="UTF-8"?>
<svg id="Capa_1" data-name="Capa 1" xmlns="http://www.w3.org/2000/svg" viewBox="0 0 40 40">
  <defs>
    <style>
      .cls-1 {
        fill: none;
      }
    </style>
  </defs>
  <rect class="cls-1" width="40" height="40"/>
  <g>
    <path d="m17.66,18.37c-.48,0-.9.17-1.25.51s-.53.76-.53,1.27.18.9.53,1.25.77.53,1.26.53.93-.18,1.26-.53.51-.77.51-1.26-.17-.93-.51-1.26c-.34-.34-.76-.51-1.27-.51Z"/>
    <path d="m38.89,37.49c-.28-.28-.63-.42-1.05-.42h-2.66V3.65c0-1.03-.35-1.9-1.05-2.6S32.56,0,31.53,0H8.47C7.47,0,6.61.35,5.9,1.05s-1.08,1.57-1.08,2.6v33.41h-2.66c-.42,0-.77.14-1.05.42-.28.28-.42.63-.42,1.04s.14.77.42,1.05c.28.28.63.42,1.05.42h35.69c.42,0,.77-.14,1.05-.42.28-.28.42-.63.42-1.04s-.14-.77-.42-1.05ZM7.75,3.63c0-.21.07-.38.2-.52.13-.13.31-.2.52-.2l13.28,1.72c.68.08,1.24.38,1.67.91.43.53.65,1.15.65,1.87v26.78c0,.19-.06.36-.18.49-.12.13-.28.2-.47.21l-15.67,2.19V3.63Zm24.49,33.44h-6.75c.21-.16.42-.33.6-.54.6-.69.91-1.48.91-2.38V7.34c0-1.36-.45-2.55-1.34-3.59-.28-.32-.59-.59-.91-.83h6.77c.21,0,.38.07.52.21.13.13.2.31.2.52v33.41Z"/>
  </g>
</svg>