<?xml version="1.0" encoding="UTF-8"?>
<svg id="Capa_1" data-name="Capa 1" xmlns="http://www.w3.org/2000/svg" viewBox="0 0 40 40">
  <defs>
    <style>
      .cls-1 {
        fill: none;
      }
    </style>
  </defs>
  <rect class="cls-1" width="40" height="40"/>
  <g>
    <path d="m39.51,37.32c-.28-.28-.56-.42-.99-.42h-3.24V3.66c0-.99-.42-1.83-1.13-2.54C33.45.42,32.61,0,31.62,0H8.38C7.39,0,6.55.42,5.85,1.13s-1.13,1.55-1.13,2.54v33.52H1.48c-.42,0-.7.14-.99.42-.28.28-.42.7-.42.99s.14.7.42.99c.28.28.56.42.99.42,0,0,36.9,0,37.04-.14.42,0,.7-.14.99-.42s.42-.56.42-.99-.14-.85-.42-1.13Zm-7.32-.28s-24.51,0-24.65-.14V2.96h23.94c.28,0,.42,0,.56.14.14.14.14.42.14.56v33.38Z"/>
    <path d="m25.14,17.89c-.56,0-.99.14-1.41.56-.42.42-.56.85-.56,1.41s.14.99.56,1.41c.42.42.85.56,1.41.56s.99-.14,1.41-.56c.42-.42.56-.85.56-1.41s-.14-.99-.56-1.41c-.42-.42-.84-.56-1.41-.56Z"/>
  </g>
</svg>