<?xml version="1.0" encoding="UTF-8"?>
<svg id="Capa_1" data-name="Capa 1" xmlns="http://www.w3.org/2000/svg" viewBox="0 0 40 40">
  <defs>
    <style>
      .cls-1 {
        fill: none;
      }
    </style>
  </defs>
  <rect class="cls-1" width="40" height="40"/>
  <path d="m19.99,29.16c-.28,0-.53-.05-.76-.15-.23-.1-.46-.25-.67-.47l-8.42-8.42c-.32-.32-.48-.71-.48-1.17,0-.46.17-.86.5-1.19s.73-.5,1.19-.51c.46,0,.85.16,1.19.5l5.81,5.84V1.66c0-.47.16-.86.48-1.18C19.14.16,19.54,0,20.01,0c.47,0,.87.16,1.18.48.31.32.47.71.47,1.18v21.93l5.84-5.84c.32-.32.71-.48,1.17-.48s.86.16,1.2.5c.33.33.5.73.5,1.18s-.17.84-.5,1.18l-8.42,8.42c-.22.22-.44.37-.68.47-.24.1-.49.15-.77.15Zm-15.64,10.84c-1.13,0-2.1-.4-2.91-1.21-.81-.81-1.21-1.78-1.21-2.91v-6.18c0-.47.16-.86.48-1.18.32-.32.71-.48,1.19-.48s.87.16,1.18.48c.31.32.47.71.47,1.18v6.18c0,.2.08.39.25.56.17.17.35.25.56.25h31.3c.2,0,.39-.08.56-.25.17-.17.25-.35.25-.56v-6.18c0-.47.16-.86.48-1.18.32-.32.71-.48,1.19-.48s.87.16,1.18.48c.31.32.47.71.47,1.18v6.18c0,1.13-.4,2.1-1.21,2.91s-1.78,1.21-2.91,1.21c0,0-31.3,0-31.3,0Z"/>
</svg>