<?xml version="1.0" encoding="UTF-8"?>
<svg id="Capa_1" data-name="Capa 1" xmlns="http://www.w3.org/2000/svg" viewBox="0 0 40 40">
  <defs>
    <style>
      .cls-1 {
        fill: none;
      }
    </style>
  </defs>
  <rect class="cls-1" width="40" height="40"/>
  <path d="m17.04,20.55l-6.47,17.85s-.1.15-.24.32l-1.11,1.05c-.23.22-.48.27-.74.16-.26-.11-.43-.3-.49-.58l-.24-1.44s0-.16.06-.44l6.66-18.33c.38.34.78.63,1.21.85.43.23.89.41,1.37.55Zm5.92.04c.47-.15.93-.34,1.37-.56.44-.22.85-.51,1.21-.86l6.68,18.31c.04.09.05.24.03.44l-.21,1.44c-.06.27-.23.47-.49.58-.26.11-.51.05-.74-.16l-1.11-1.05c-.06-.06-.14-.17-.24-.32,0,0-6.49-17.81-6.49-17.81Zm-2.93-2.46c-1.79,0-3.3-.63-4.56-1.88-1.25-1.25-1.88-2.77-1.88-4.56,0-1.58.48-2.94,1.43-4.08.95-1.14,2.13-1.85,3.54-2.13V1.47c0-.42.14-.77.42-1.05.28-.28.63-.42,1.05-.42s.77.14,1.05.42c.28.28.42.63.42,1.05v4.02c1.41.28,2.59.98,3.54,2.13.95,1.14,1.43,2.51,1.43,4.08,0,1.79-.63,3.3-1.88,4.56-1.25,1.25-2.77,1.88-4.56,1.88Zm0-2.94c.97,0,1.8-.34,2.48-1.02.68-.68,1.02-1.5,1.02-2.48,0-.97-.34-1.8-1.02-2.48-.68-.68-1.5-1.02-2.48-1.02-.97,0-1.8.34-2.48,1.02-.68.68-1.02,1.5-1.02,2.48s.34,1.8,1.02,2.48c.68.68,1.5,1.02,2.48,1.02Z"/>
</svg>