<?xml version="1.0" encoding="UTF-8"?>
<svg id="Capa_1" data-name="Capa 1" xmlns="http://www.w3.org/2000/svg" viewBox="0 0 40 40">
  <defs>
    <style>
      .cls-1 {
        fill: none;
      }
    </style>
  </defs>
  <rect class="cls-1" width="40" height="40"/>
  <path d="m29.72,39.88c-.74,0-1.35-.25-1.85-.74-.49-.49-.74-1.11-.74-1.85v-2.22l-15.88-8c-.12.12-.37.12-.49.12h-6.15c-.74,0-1.35-.25-1.85-.74s-.74-.98-.74-1.6v-5.66c0-.74.25-1.35.74-1.85s1.11-.74,1.85-.74h5.91l6.52-7.38c-.12-.12-.12-.25-.12-.49,0-.12-.12-.37-.12-.62V2.46c0-.74.25-1.35.74-1.85.62-.37,1.23-.62,1.97-.62h5.66c.74,0,1.35.25,1.85.74s.74,1.11.74,1.85v5.66c0,.74-.25,1.35-.74,1.85s-1.11.74-1.85.74h-5.78l-6.77,7.38c.12.12.12.37.12.49v6.4l14.52,7.14v-.74c0-.62.37-1.23.74-1.6.49-.49,1.11-.74,1.72-.74h5.66c.74,0,1.35.25,1.85.74s.74,1.11.74,1.85v5.66c0,.74-.25,1.35-.74,1.85-.49.49-1.11.74-1.85.74l-5.66-.12h0Zm-10.22-31.75h5.66V2.46h-5.66v5.66ZM4.62,24.86h5.66v-5.66h-5.66v5.66Zm25.11,12.55h5.66v-5.66h-5.66v5.66Z"/>
</svg>