<?xml version="1.0" encoding="UTF-8"?>
<svg id="Capa_1" data-name="Capa 1" xmlns="http://www.w3.org/2000/svg" viewBox="0 0 40 40">
  <defs>
    <style>
      .cls-1 {
        fill: none;
      }
    </style>
  </defs>
  <rect class="cls-1" x="0" width="40" height="40"/>
  <path d="m20,0C8.97,0,0,8.97,0,20s8.97,20,20,20,20-8.97,20-20S31.03,0,20,0Zm13.22,9.22c2.38,2.91,3.82,6.61,3.86,10.64-.56-.12-6.21-1.26-11.9-.55-.46-1.13-.9-2.13-1.5-3.36,6.32-2.58,9.18-6.25,9.54-6.74h0Zm-1.9-1.98c-.31.44-2.88,3.89-8.95,6.17-2.8-5.14-5.9-9.37-6.37-10,5.42-1.31,11.13.1,15.33,3.83Zm-18.59-2.68c.45.62,3.5,4.85,6.33,9.88-7.99,2.12-15.03,2.09-15.79,2.08,1.11-5.3,4.68-9.71,9.46-11.96ZM2.92,20.03c0-.17,0-.35,0-.52.75.02,9.03.12,17.56-2.43.49.96.96,1.93,1.39,2.9-6.18,1.74-11.79,6.74-14.56,11.48-2.73-3.03-4.39-7.03-4.39-11.42Zm6.6,13.48c1.78-3.65,6.63-8.36,13.51-10.71,2.4,6.23,3.39,11.46,3.64,12.95-5.49,2.34-12.1,1.7-17.16-2.25Zm20.03.68c-.18-1.04-1.08-6.04-3.32-12.18,5.35-.86,10.06.55,10.64.73-.76,4.75-3.49,8.86-7.32,11.45Z"/>
</svg>