<?xml version="1.0" encoding="UTF-8"?>
<svg id="Capa_1" data-name="Capa 1" xmlns="http://www.w3.org/2000/svg" viewBox="0 0 40 40">
  <defs>
    <style>
      .cls-1 {
        fill: none;
      }
    </style>
  </defs>
  <rect class="cls-1" x="0" width="40" height="40"/>
  <path d="m28.54,7.32c-1.99-1.25-3.89-1.74-5.79-3-1.16-.79-2.8-2.68-4.16-4.32-.24,2.62-1.03,3.69-1.97,4.43-1.91,1.52-3.11,1.99-4.79,2.89-1.41.74-9.02,5.98-9.02,15.73s8.21,16.95,17.34,16.95,17.02-6.62,17.02-16.64-7.43-15.3-8.63-16.04Zm.22,29.13c-1.8,1.8-8.06,2.57-10.44.38-.43-.43.03-1.07.58-1.07,0,0,1.52,1.19,4.61,1.19,2.42,0,4.12-.69,4.88-1.25.55-.41.75.38.38.76Zm-4.88-4.71c.78-.32,2.59-.34,3.29.12.37.25,1.44,1.68.55,2.12-.75.38-.11-1.4-2.37-1.4-1.32,0-1.74.47-2.39.98-.63.54-.88.72-1.09.42-.54-.73,1.42-2,2-2.24Zm8.28,1.55c-1.36-.09-4.07-4.37-5.82-4.43-2.76-.08-9.31,7.22-14.43,3.76-3.47-2.38-1.31-9.38,4.63-9.41,4.43-.04,7.5,4.38,9.71,4.34,1.91-.03,5.53-3.74,7.32-3.74,4.36,0,2.08,9.78-1.41,9.48Z"/>
</svg>