<?xml version="1.0" encoding="UTF-8"?>
<svg id="Capa_1" data-name="Capa 1" xmlns="http://www.w3.org/2000/svg" viewBox="0 0 40 40">
  <defs>
    <style>
      .cls-1 {
        fill: none;
      }
    </style>
  </defs>
  <rect class="cls-1" x="0" width="40" height="40"/>
  <path d="m38.22,10.2C34.91,3.72,27.76,0,19.99,0,10.41,0,2.38,6.75.44,15.78c2.1-3.75,6.95-6.38,12.05-6.38,6.39,0,9.76,3.95,9.86,4.05,1.77,1.92,2.66,4.06,2.66,6.7,0,.84-.43,2.08-1.22,3.11-.13.16-.52.39-.52.89,0,.41.27.8.74,1.13,2.25,1.56,6.48,1.36,6.49,1.36,1.66,0,3.3-.46,4.73-1.3,2.94-1.72,4.75-4.86,4.75-8.26.04-3.5-1.25-5.83-1.77-6.86Zm-21.7,27.51c-1.5-.93-2.78-2.17-3.76-3.63-2.66-3.82-2.76-7.71-1.62-10.97.81-2.56,2.42-4.79,4.59-6.36,4.76-3.64,7.65-.46,7.99-.08-.11-.28-.24-.55-.39-.82-.75-1.28-1.94-2.94-4.56-4.32-2.72-1.43-5.69-1.5-6.26-1.5-3.12,0-6.28,1.05-8.67,2.88-1.59,1.22-3.44,3.27-3.78,6.03-.09.99-.22,5.06,1.85,9.54,3.59,7.66,11.61,12.23,20.02,11.42-3.07-.53-5.31-2.15-5.41-2.19Zm20.22-7.93c-.19-.12-.44-.13-.64-.02-.53.28-1.08.52-1.65.74-1.79.67-3.69,1.01-5.61,1.01-7.39,0-13.83-5.09-13.83-11.61,0-.75.19-1.49.53-2.16-1.29,1.13-2.35,2.5-3.13,4.03-1.2,2.37-2.66,7.11,1.07,12.23.52.72,1.85,2.42,4.52,3.84,1.9,1.02,3.95,1.58,5.78,1.58,2.83,0,9.31-2.7,13.14-8.78.19-.29.1-.68-.19-.86,0,0,0,0,0,0h0Z"/>
</svg>