<?xml version="1.0" encoding="UTF-8"?>
<svg id="Capa_1" data-name="Capa 1" xmlns="http://www.w3.org/2000/svg" viewBox="0 0 40 40">
  <defs>
    <style>
      .cls-1 {
        fill: none;
      }
    </style>
  </defs>
  <rect class="cls-1" x="0" width="40" height="40"/>
  <path d="m1.43,17.75l.03-.04s0,.03,0,.04h-.02Zm37.14,1.25c0-3.55-.63-6.81-2.32-9.87C32.94,3.22,27.09,0,20.23,0,8.95-.02,2.63,8.48,1.46,17.72c3.42-4.94,9.44-9.79,17.77-10.08,0,0,8.84,0,8.02,8.47h-14.18c.51-3.02,1.5-4.76,2.77-6.36-6.05,2.81-9.83,7.75-9.74,15.19.07,5.76,4.04,11.68,9.74,13.87,6.72,2.57,15.54.58,19.36-1.72v-8.42c-6.52,4.56-21.84,4.91-21.96-5.45h25.33v-4.2h0Z"/>
</svg>