<?xml version="1.0" encoding="UTF-8"?>
<svg id="Capa_1" data-name="Capa 1" xmlns="http://www.w3.org/2000/svg" viewBox="0 0 40 40">
  <defs>
    <style>
      .cls-1 {
        fill: none;
      }
    </style>
  </defs>
  <rect class="cls-1" width="40" height="40"/>
  <path d="m38.1,22.45l-3.67-3.67,1.63-1.63c.27-.27.54-.41.95-.41s.68.14.95.41l1.63,1.63c.27.27.41.68.41.95,0,.41-.14.68-.41.95l-1.5,1.77Zm-17.69,14.01v-3.67l11.97-11.97,3.67,3.67-11.97,11.97h-3.67ZM0,24.76v-2.72h16.46v2.72H0Zm0-9.12v-2.86h25.71v2.86c.14,0-25.71,0-25.71,0ZM0,6.39v-2.86h25.71v2.86c.14,0-25.71,0-25.71,0Z"/>
</svg>