<?xml version="1.0" encoding="UTF-8"?>
<svg id="Capa_1" data-name="Capa 1" xmlns="http://www.w3.org/2000/svg" viewBox="0 0 40 40">
  <defs>
    <style>
      .cls-1 {
        fill: none;
      }
    </style>
  </defs>
  <rect class="cls-1" width="40" height="40"/>
  <path d="m20,40c-4.23,0-7.89-1.55-10.85-4.51-2.96-2.96-4.51-6.62-4.51-10.99,0-2.82.42-5.63,1.41-8.59s2.11-5.49,3.66-7.89c1.55-2.39,3.1-4.23,4.93-5.77,1.83-1.55,3.52-2.25,5.35-2.25s3.52.7,5.35,2.25,3.38,3.38,4.93,5.77,2.68,4.93,3.66,7.89c.99,2.96,1.41,5.77,1.41,8.59,0,4.37-1.55,7.89-4.51,10.99-2.96,3.1-6.62,4.51-10.85,4.51Zm0-2.39c3.52,0,6.62-1.27,9.15-3.8,2.54-2.54,3.8-5.63,3.8-9.3,0-2.39-.42-4.93-1.27-7.61-.85-2.54-1.83-4.93-3.1-7.18-1.27-2.11-2.68-3.94-4.23-5.35-1.55-1.27-2.96-1.97-4.37-1.97s-2.82.7-4.37,2.11-2.96,3.24-4.23,5.35-2.25,4.51-3.1,7.18c-.85,2.68-1.27,5.07-1.27,7.61,0,3.66,1.27,6.76,3.8,9.3,2.54,2.39,5.49,3.66,9.15,3.66Zm1.97-4.65c.28,0,.56-.14.85-.28.28-.28.28-.56.28-.85s-.14-.56-.28-.85c-.28-.28-.56-.28-.85-.28-2.25,0-4.23-.85-5.77-2.39s-2.39-3.52-2.39-5.77c0-.28-.14-.56-.28-.85-.28-.28-.56-.28-.85-.28s-.56.14-.85.28c-.28.28-.28.56-.28.85,0,2.96.99,5.35,3.1,7.46,1.83,1.83,4.37,2.96,7.32,2.96Z"/>
</svg>