<?xml version="1.0" encoding="UTF-8"?>
<svg id="Capa_1" data-name="Capa 1" xmlns="http://www.w3.org/2000/svg" viewBox="0 0 40 40">
  <defs>
    <style>
      .cls-1 {
        fill: none;
      }
    </style>
  </defs>
  <rect class="cls-1" width="40" height="40"/>
  <path d="m1.87,39.35c-.56,0-.93-.19-1.31-.56s-.56-.75-.56-1.31.19-.93.56-1.31.75-.56,1.31-.56h36.26c.56,0,.93.19,1.31.56s.56.75.56,1.31-.19.93-.56,1.31c-.37.37-.75.56-1.31.56H1.87Zm3.36-11.59c-.93,0-1.68-.37-2.24-1.31s-.37-1.68.19-2.43L17.94,1.78c.56-.75,1.12-1.12,2.06-1.12s1.5.37,2.06,1.12l14.95,22.24c.56.75.56,1.68.19,2.43-.56.93-1.12,1.31-2.24,1.31H5.23Zm2.43-3.93h24.49L20,5.7,7.66,23.83Z"/>
</svg>