<?xml version="1.0" encoding="UTF-8"?>
<svg id="Capa_1" data-name="Capa 1" xmlns="http://www.w3.org/2000/svg" viewBox="0 0 40 40">
  <defs>
    <style>
      .cls-1 {
        fill: none;
      }
    </style>
  </defs>
  <rect class="cls-1" width="40" height="40"/>
  <path d="m3.04,23.05c-.84,0-1.56-.3-2.15-.9C.3,21.55,0,20.83,0,19.99c0-.84.3-1.56.9-2.15.6-.59,1.32-.89,2.16-.89s1.56.3,2.16.9c.6.6.9,1.32.9,2.16s-.3,1.56-.9,2.15c-.6.59-1.32.89-2.17.89Zm16.95,0c-.84,0-1.56-.3-2.15-.9-.59-.6-.89-1.32-.89-2.16s.3-1.56.9-2.15c.6-.59,1.32-.89,2.16-.89s1.56.3,2.15.9c.59.6.89,1.32.89,2.16s-.3,1.56-.9,2.15c-.6.59-1.32.89-2.16.89Zm16.95,0c-.84,0-1.56-.3-2.16-.9-.6-.6-.9-1.32-.9-2.16s.3-1.56.9-2.15c.6-.59,1.32-.89,2.17-.89s1.56.3,2.15.9c.59.6.89,1.32.89,2.16,0,.84-.3,1.56-.9,2.15-.6.59-1.32.89-2.16.89Z"/>
</svg>