<?xml version="1.0" encoding="UTF-8"?>
<svg id="Capa_1" data-name="Capa 1" xmlns="http://www.w3.org/2000/svg" viewBox="0 0 40 40">
  <defs>
    <style>
      .cls-1 {
        fill: none;
      }
    </style>
  </defs>
  <rect class="cls-1" x="0" width="40" height="40"/>
  <path d="m3.29,39.63c-.9,0-1.68-.32-2.33-.97s-.97-1.42-.97-2.33V13.39c0-.45.11-.9.32-1.34.21-.44.53-.8.96-1.06L18.3.81c.26-.17.53-.29.82-.35.29-.06.58-.09.88-.09s.6.03.88.09c.29.06.56.18.82.35l17.02,10.18c.45.27.77.62.97,1.06.2.44.3.89.3,1.34v22.94c0,.9-.32,1.68-.97,2.33s-1.42.97-2.33.97c0,0-33.41,0-33.41,0Zm16.7-16.8c.13,0,.27-.02.41-.05.14-.04.28-.09.43-.17l16.2-9.57L20.83,3.32c-.14-.08-.28-.13-.42-.17-.14-.04-.27-.05-.41-.05-.13,0-.27.02-.41.05-.14.04-.28.09-.42.17L2.97,13.03l16.22,9.57c.13.08.27.13.41.17.14.04.27.05.41.05ZM3.29,36.98h33.41c.19,0,.34-.06.47-.18s.18-.28.18-.47V15.82l-15.68,9.28c-.26.17-.53.29-.8.36-.28.06-.57.1-.87.1s-.6-.04-.87-.11c-.27-.07-.55-.19-.81-.34L2.65,15.82v20.51c0,.19.06.34.18.47.12.12.28.18.47.18Zm0,0h-.65,34.71H3.29Z"/>
</svg>