<?xml version="1.0" encoding="UTF-8"?>
<svg id="Capa_1" data-name="Capa 1" xmlns="http://www.w3.org/2000/svg" viewBox="0 0 40 40">
  <defs>
    <style>
      .cls-1 {
        fill: none;
      }
    </style>
  </defs>
  <rect class="cls-1" width="40" height="40"/>
  <path d="m3.29,35.79c-.9,0-1.68-.32-2.33-.97-.65-.65-.97-1.42-.97-2.33V7.5c0-.9.32-1.68.97-2.33s1.42-.97,2.33-.97h33.41c.9,0,1.68.32,2.33.97s.97,1.42.97,2.33v24.99c0,.9-.32,1.68-.97,2.33-.65.65-1.42.97-2.33.97H3.29ZM37.35,9.24l-16.45,10.77c-.15.08-.29.14-.44.19-.14.05-.3.08-.47.08s-.32-.03-.47-.08c-.14-.05-.29-.12-.42-.19L2.65,9.24v23.25c0,.19.06.34.18.47s.28.18.47.18h33.41c.19,0,.34-.06.47-.18.12-.12.18-.28.18-.47,0,0,0-23.25,0-23.25Zm-17.35,8.59l16.93-10.98H3.1l16.9,10.98ZM2.65,9.24v.42-1.9.06-.96.94-.07,1.93-.42,23.9V9.24Z"/>
</svg>