<?xml version="1.0" encoding="UTF-8"?>
<svg id="Capa_1" data-name="Capa 1" xmlns="http://www.w3.org/2000/svg" viewBox="0 0 40 40">
  <defs>
    <style>
      .cls-1 {
        fill: none;
      }
    </style>
  </defs>
  <rect class="cls-1" width="40" height="40"/>
  <path d="m2.91,31.3c-.81,0-1.5-.28-2.06-.85-.57-.57-.85-1.25-.85-2.06s.28-1.5.85-2.06c.57-.56,1.25-.85,2.06-.85h34.18c.81,0,1.5.28,2.06.85.57.57.85,1.25.85,2.06s-.28,1.5-.85,2.06c-.57.56-1.25.85-2.06.85,0,0-34.18,0-34.18,0Zm0-16.77c-.81,0-1.5-.28-2.06-.85-.57-.57-.85-1.25-.85-2.06s.28-1.5.85-2.06c.57-.56,1.25-.85,2.06-.85h34.18c.81,0,1.5.28,2.06.85.57.57.85,1.25.85,2.06s-.28,1.5-.85,2.06c-.57.56-1.25.85-2.06.85,0,0-34.18,0-34.18,0Z"/>
</svg>