<?xml version="1.0" encoding="UTF-8"?>
<svg id="Capa_1" data-name="Capa 1" xmlns="http://www.w3.org/2000/svg" viewBox="0 0 40 40">
  <defs>
    <style>
      .cls-1 {
        fill: none;
      }
    </style>
  </defs>
  <rect class="cls-1" width="40" height="40"/>
  <path d="m29.97,33.81h8.79c.37,0,.62.12.87.37.25.25.37.62.37.87,0,.37-.12.62-.37.87-.25.25-.5.37-.87.37h-11.39l2.6-2.48Zm-24.77,2.6c-.25,0-.37,0-.62-.12s-.37-.25-.5-.37l-3.1-3.1c-.62-.62-.99-1.36-.99-2.23s.25-1.61.87-2.23L23.16,4.58c.62-.74,1.36-.99,2.23-.99s1.61.37,2.23.99l9.54,9.78c.62.62.99,1.36.99,2.23s-.25,1.61-.87,2.23l-16.35,17.09c-.12.12-.37.25-.5.37-.25.12-.37.12-.62.12H5.2Zm14.24-2.6l15.98-16.97c.12-.12.12-.25.12-.5s0-.37-.12-.5l-9.54-9.78c-.12,0-.25,0-.37,0s-.37,0-.5.12L2.85,29.97c-.12.12-.25.25-.25.5s0,.37.12.5l2.85,2.85h13.87Z"/>
</svg>