<?xml version="1.0" encoding="UTF-8"?>
<svg id="Capa_1" data-name="Capa 1" xmlns="http://www.w3.org/2000/svg" viewBox="0 0 40 40">
  <defs>
    <style>
      .cls-1 {
        fill: none;
      }
    </style>
  </defs>
  <rect class="cls-1" width="40" height="40"/>
  <path d="m4.95,40c-.33,0-.61-.11-.83-.34-.22-.22-.33-.5-.33-.83v-6.55c-1.07-.34-1.97-.94-2.7-1.81-.73-.86-1.09-1.85-1.09-2.97V10.86c0-.4.14-.75.42-1.03.28-.28.62-.42,1.04-.42h2.34V1.17c0-.35.11-.63.32-.85C4.33.11,4.61,0,4.96,0s.63.11.85.32c.21.21.32.5.32.85v8.24h2.34c.4,0,.75.14,1.03.42.28.28.42.63.42,1.03v16.65c0,1.11-.36,2.1-1.08,2.97-.72.86-1.62,1.47-2.71,1.81v6.59c0,.31-.11.58-.34.8-.23.22-.51.33-.84.33h0Zm15.04,0c-.33,0-.61-.11-.83-.34-.22-.22-.33-.5-.33-.83v-6.55c-1.06-.34-1.96-.94-2.69-1.81-.73-.86-1.1-1.85-1.1-2.97V10.86c0-.4.14-.75.42-1.03.28-.28.62-.42,1.04-.42h2.34V1.17c0-.35.11-.63.32-.85C19.37.11,19.65,0,20,0s.63.11.85.32c.21.21.32.5.32.85v8.24h2.34c.41,0,.76.14,1.04.42.28.28.42.63.42,1.03v16.65c0,1.11-.36,2.1-1.08,2.97-.72.86-1.62,1.47-2.71,1.81v6.59c0,.31-.11.58-.34.8-.23.22-.51.33-.84.33h0Zm15.04,0c-.33,0-.61-.11-.83-.34-.22-.22-.33-.5-.33-.83v-6.55c-1.06-.34-1.96-.94-2.69-1.81s-1.1-1.85-1.1-2.97V10.86c0-.4.14-.75.42-1.03s.63-.42,1.03-.42h2.34V1.17c0-.35.11-.63.32-.85C34.41.11,34.69,0,35.04,0s.63.11.85.32c.21.21.32.5.32.85v8.24h2.34c.41,0,.76.14,1.04.42.28.28.42.63.42,1.03v16.65c0,1.11-.36,2.1-1.09,2.97-.73.86-1.63,1.47-2.7,1.81v6.59c0,.31-.11.58-.34.8-.23.22-.51.33-.84.33h0ZM2.34,11.75v8.93h5.24v-8.93s-5.24,0-5.24,0Zm15.04,0v8.93h5.24v-8.93s-5.24,0-5.24,0Zm15.04,0v8.93h5.24v-8.93h-5.24ZM4.96,30.06c.73,0,1.34-.26,1.86-.77.51-.51.77-1.13.77-1.86v-4.43H2.34v4.43c0,.73.26,1.34.77,1.86.51.51,1.13.77,1.86.77Zm15.04,0c.73,0,1.34-.26,1.86-.77.51-.51.77-1.13.77-1.86v-4.43h-5.24v4.43c0,.73.26,1.34.77,1.86.51.51,1.13.77,1.86.77Zm15.04,0c.73,0,1.34-.26,1.86-.77.51-.51.77-1.13.77-1.86v-4.43h-5.24v4.43c0,.73.26,1.34.77,1.86.51.51,1.13.77,1.86.77ZM2.34,20.67h5.24s-5.24,0-5.24,0Zm15.04,0h5.24-5.24Zm15.04,0h5.24-5.24Zm-27.46,2.34h-2.62,5.24s-2.62,0-2.62,0Zm15.04,0h-2.62,5.24s-2.62,0-2.62,0Zm15.04,0h-2.62,5.24s-2.62,0-2.62,0Z"/>
</svg>