<?xml version="1.0" encoding="UTF-8"?>
<svg id="Capa_1" data-name="Capa 1" xmlns="http://www.w3.org/2000/svg" viewBox="0 0 40 40">
  <defs>
    <style>
      .cls-1 {
        fill: none;
      }
    </style>
  </defs>
  <rect class="cls-1" width="40" height="40"/>
  <path d="m27.93,39.39c-4.25,0-8.05-1.2-11.4-3.61-3.35-2.41-5.63-5.72-6.85-9.93H1.43c-.41,0-.76-.14-1.03-.41C.14,25.17,0,24.83,0,24.41s.14-.76.41-1.03c.27-.27.61-.41,1.03-.41h7.59c-.09-.46-.16-.95-.2-1.46-.04-.52-.06-1.01-.06-1.49s.01-.96.04-1.46c.03-.49.09-.99.18-1.5H1.43c-.41,0-.76-.14-1.03-.41S0,16.05,0,15.63s.14-.76.41-1.03.61-.41,1.03-.41h8.2c1.23-4.18,3.49-7.48,6.78-9.93,3.29-2.44,7.13-3.66,11.51-3.66,2.15,0,4.17.31,6.05.93,1.88.62,3.68,1.56,5.38,2.81.4.29.61.68.63,1.16.02.49-.15.91-.5,1.27-.28.28-.64.45-1.05.48-.42.04-.81-.07-1.17-.31-1.36-.97-2.83-1.71-4.42-2.24s-3.23-.79-4.92-.79c-3.59,0-6.69.95-9.3,2.85-2.61,1.9-4.41,4.37-5.42,7.42h14.89c.4,0,.74.14,1.02.41.28.27.41.61.41,1.03s-.14.76-.41,1.03c-.28.27-.62.41-1.02.41h-15.72c-.14.5-.22,1-.25,1.5-.03.49-.05.98-.05,1.46s.02.98.07,1.51c.05.53.12,1.01.23,1.44h15.72c.4,0,.74.14,1.02.41.28.27.41.61.41,1.03s-.14.76-.41,1.03c-.28.27-.62.41-1.02.41h-14.87c1.05,3.25,2.93,5.77,5.67,7.55,2.73,1.78,5.74,2.67,9.03,2.67,1.68,0,3.31-.25,4.9-.74s3.04-1.21,4.35-2.14c.36-.24.75-.34,1.17-.32.42.03.78.18,1.07.46.37.37.54.81.49,1.3-.04.49-.27.88-.68,1.17-1.64,1.14-3.4,2.02-5.29,2.65-1.89.63-3.9.94-6.02.94Z"/>
</svg>