<?xml version="1.0" encoding="UTF-8"?>
<svg id="Capa_1" data-name="Capa 1" xmlns="http://www.w3.org/2000/svg" viewBox="0 0 40 40">
  <defs>
    <style>
      .cls-1 {
        fill: none;
      }
    </style>
  </defs>
  <rect class="cls-1" width="40" height="40"/>
  <path d="m29.94,22.22c-.27-.27-.41-.59-.41-.95s.14-.68.41-.95l5.6-5.59h-15.54c-.39,0-.71-.13-.96-.38-.25-.25-.38-.58-.38-.96s.13-.71.38-.96c.25-.25.58-.38.96-.38h15.54l-5.62-5.62c-.27-.27-.4-.58-.4-.93,0-.35.15-.66.42-.93s.59-.41.95-.41.68.14.95.41l7.67,7.67c.18.18.3.36.38.55.08.19.12.4.12.63,0,.22-.04.43-.12.62-.08.19-.21.38-.38.55l-7.69,7.69c-.27.27-.58.4-.94.39-.35-.01-.66-.15-.94-.42Zm-21.78,13.22L.49,27.78c-.18-.18-.3-.36-.38-.55-.08-.19-.11-.4-.11-.63s.04-.43.11-.62c.08-.19.2-.38.38-.55l7.69-7.69c.27-.27.58-.4.94-.4.35,0,.66.15.94.42s.41.59.41.95-.14.68-.41.95l-5.6,5.59h15.54c.39,0,.71.13.96.38s.38.58.38.96-.13.71-.38.96c-.25.25-.58.38-.96.38H4.45l5.62,5.62c.27.27.4.58.4.94,0,.35-.15.66-.42.92-.27.27-.59.41-.95.41-.36,0-.68-.13-.95-.4Z"/>
</svg>