<?xml version="1.0" encoding="UTF-8"?>
<svg id="Capa_1" data-name="Capa 1" xmlns="http://www.w3.org/2000/svg" viewBox="0 0 40 40">
  <defs>
    <style>
      .cls-1 {
        fill: none;
      }
    </style>
  </defs>
  <g>
    <path d="m20,26.98c.56,0,.93-.19,1.3-.56s.56-.74.56-1.3V2.16c0-.56-.19-1.42-.37-1.6C21.12.19,20.74,0,20.19,0S19.11,0,18.7.56c-.37.37-.56.74-.56,1.3v23.26c0,.56.19.93.56,1.3s.74.56,1.3.56Z"/>
    <path d="m21.49,36.41c-.4-.39-.9-.59-1.49-.59s-1.09.2-1.49.59c-.4.39-.6.88-.6,1.46s.2,1.12.6,1.52c.4.4.9.61,1.49.61s1.1-.2,1.5-.61c.4-.41.59-.91.59-1.51s-.2-1.07-.6-1.47Z"/>
  </g>
  <rect class="cls-1" width="40" height="40"/>
</svg>