<?xml version="1.0" encoding="UTF-8"?>
<svg id="Capa_1" data-name="Capa 1" xmlns="http://www.w3.org/2000/svg" viewBox="0 0 40 40">
  <defs>
    <style>
      .cls-1 {
        fill: none;
      }
    </style>
  </defs>
  <rect class="cls-1" width="40" height="40"/>
  <path d="m20,29.96c.44,0,.8-.14,1.09-.43.29-.29.43-.65.43-1.09s-.14-.8-.43-1.09c-.29-.29-.65-.43-1.09-.43s-.8.14-1.09.43c-.29.29-.43.65-.43,1.09s.14.8.43,1.09c.29.29.65.43,1.09.43Zm.09-7.51c.38,0,.69-.13.94-.38.25-.25.38-.57.38-.94v-10.32c0-.37-.13-.69-.38-.94-.25-.25-.57-.38-.95-.38s-.69.13-.94.38c-.25.25-.38.57-.38.94v10.32c0,.37.13.69.38.94.25.25.57.38.95.38Zm-.07,17.55c-2.77,0-5.37-.52-7.79-1.57-2.42-1.05-4.54-2.48-6.35-4.29-1.81-1.81-3.24-3.93-4.29-6.35C.53,25.35,0,22.76,0,19.99c0-2.76.52-5.36,1.57-7.79,1.05-2.43,2.48-4.55,4.29-6.35,1.81-1.8,3.93-3.23,6.35-4.28C14.65.53,17.24,0,20.01,0s5.36.52,7.79,1.57c2.43,1.05,4.55,2.47,6.35,4.27,1.8,1.8,3.23,3.92,4.28,6.35,1.05,2.43,1.58,5.03,1.58,7.79s-.52,5.37-1.57,7.79-2.47,4.54-4.27,6.35c-1.8,1.81-3.92,3.24-6.35,4.29-2.43,1.05-5.03,1.58-7.79,1.58Zm0-2.65c4.82,0,8.92-1.69,12.29-5.06,3.37-3.37,5.05-7.48,5.05-12.31,0-4.82-1.68-8.92-5.04-12.29-3.36-3.37-7.47-5.05-12.31-5.05-4.82,0-8.92,1.68-12.29,5.04-3.37,3.36-5.06,7.47-5.06,12.31s1.69,8.92,5.06,12.29c3.37,3.37,7.48,5.06,12.31,5.06Z"/>
</svg>