<?xml version="1.0" encoding="UTF-8"?>
<svg id="Capa_1" data-name="Capa 1" xmlns="http://www.w3.org/2000/svg" viewBox="0 0 40 40">
  <defs>
    <style>
      .cls-1 {
        fill: none;
      }
    </style>
  </defs>
  <rect class="cls-1" width="40" height="40"/>
  <path d="m1.65,37.47c-.32,0-.6-.08-.84-.23-.24-.15-.44-.35-.57-.6-.14-.23-.22-.49-.24-.78-.01-.29.06-.57.23-.85L18.59,3.34c.17-.27.37-.48.62-.61.24-.13.51-.2.79-.2s.55.07.79.2c.24.13.45.34.62.61l18.36,31.67c.17.28.25.57.23.85-.01.29-.09.55-.24.78-.14.25-.33.45-.57.6-.24.15-.53.23-.84.23,0,0-36.69,0-36.69,0Zm1.71-2.63h33.28L20,6.15S3.36,34.84,3.36,34.84Zm16.74-2.92c.41,0,.75-.14,1.02-.41.27-.28.41-.62.41-1.03s-.14-.75-.41-1.02c-.28-.27-.62-.41-1.03-.41s-.75.14-1.02.41c-.27.28-.41.62-.41,1.03s.14.75.41,1.02c.28.27.62.41,1.03.41Zm0-5.23c.37,0,.68-.13.93-.38.25-.25.37-.56.37-.94v-8.44c0-.37-.13-.68-.38-.94-.25-.25-.57-.38-.94-.38s-.68.13-.93.38c-.25.25-.37.56-.37.94v8.44c0,.37.13.68.38.94.25.25.57.38.94.38Z"/>
</svg>