<?xml version="1.0" encoding="UTF-8"?>
<svg id="Capa_1" data-name="Capa 1" xmlns="http://www.w3.org/2000/svg" viewBox="0 0 40 40">
  <defs>
    <style>
      .cls-1 {
        fill: none;
      }
    </style>
  </defs>
  <rect class="cls-1" width="40" height="40"/>
  <path d="m5.07,36.97h6.06c.42,0,.7.14.99.42s.42.7.42.99c0,.42-.14.7-.42.99s-.56.42-.99.42H1.83c-.56,0-.99-.14-1.27-.56-.28-.28-.56-.85-.56-1.27v-9.3c0-.42.14-.7.42-.99s.7-.42,1.13-.42.7.14.99.42c.28.28.42.56.42.99v6.06l7.46-7.46c.28-.28.56-.42.99-.42s.7.14.99.42c.28.28.42.7.42.99,0,.42-.14.7-.42,1.13l-7.32,7.61ZM37.04,5l-7.46,7.46c-.28.28-.7.42-1.13.42s-.7-.14-.99-.42c-.28-.28-.42-.56-.42-.99s.14-.7.42-.99l7.46-7.46h-6.06c-.42,0-.7-.14-.99-.42-.28-.28-.42-.7-.42-.99,0-.42.14-.7.42-.99.28-.28.56-.42.99-.42h9.3c.56,0,.99.14,1.27.56.28.28.56.85.56,1.27v9.3c0,.42-.14.7-.42.99s-.7.42-1.13.42-.7-.14-.99-.42-.42-.56-.42-.99c0-.14,0-6.34,0-6.34Z"/>
</svg>