<?xml version="1.0" encoding="UTF-8"?>
<svg id="Capa_1" data-name="Capa 1" xmlns="http://www.w3.org/2000/svg" viewBox="0 0 40 40">
  <defs>
    <style>
      .cls-1 {
        fill: none;
      }
    </style>
  </defs>
  <rect class="cls-1" width="40" height="40"/>
  <path d="m3.86,33.54l8.6-8.56c.35-.35.88-.52,1.23-.52.53,0,.88.17,1.23.52s.53.87.53,1.22c0,.52-.18.87-.53,1.22l-8.6,8.56h7.54c.53,0,.88.17,1.4.52s.53.87.53,1.4-.18,1.05-.53,1.4-.88.52-1.4.52H2.28c-.7,0-1.23-.17-1.58-.7S0,38.25,0,37.55v-11.53C0,25.5.18,25.15.53,24.63c.35-.52.88-.52,1.4-.52s1.05.17,1.4.52c.35.35.53.87.53,1.4v7.51h0Zm0-27.25v7.16c0,.52-.18.87-.53,1.4-.35.35-.88.52-1.4.52s-1.05-.17-1.4-.52-.53-.87-.53-1.4V2.27c0-.7.35-1.22.7-1.57S1.75,0,2.28,0h11.4C14.21,0,14.56.17,15.09.52c.35.35.53.87.53,1.4s-.18,1.05-.53,1.4-.88.52-1.4.52h-7.37l8.6,8.56c.35.35.53.87.53,1.22s-.18.87-.53,1.22-.88.52-1.23.52c-.53,0-.88-.17-1.23-.52L3.86,6.29h0Zm29.82,29.69l-8.6-8.56c-.35-.35-.53-.87-.53-1.22,0-.52.18-.87.53-1.22.35-.35.88-.52,1.23-.52s.88.17,1.23.52l8.6,8.56v-7.16c0-.52.18-.87.53-1.4.35-.35.88-.52,1.4-.52s.88.17,1.4.52.53.87.53,1.4v11.35c0,.7-.18,1.22-.7,1.57s-.88.7-1.58.7h-11.4c-.53,0-.88-.17-1.4-.52-.35-.35-.53-.87-.53-1.4s.18-1.05.53-1.4.88-.52,1.4-.52l7.37-.17h0Zm0-32.14h-7.37c-.53,0-.88-.17-1.4-.52s-.53-.87-.53-1.4.18-1.05.53-1.4.88-.52,1.4-.52h11.4c.7,0,1.23.17,1.58.7s.7,1.05.7,1.57v11.35c0,.52-.18.87-.53,1.4-.35.35-.88.52-1.4.52s-.88-.17-1.4-.52-.53-.87-.53-1.4v-7.34l-8.6,8.56c-.35.35-.88.52-1.23.52-.53,0-.88-.17-1.23-.52s-.53-.87-.53-1.22c0-.52.18-.87.53-1.22l8.6-8.56h0Z"/>
</svg>