<?xml version="1.0" encoding="UTF-8"?>
<svg id="Capa_1" data-name="Capa 1" xmlns="http://www.w3.org/2000/svg" viewBox="0 0 40 40">
  <defs>
    <style>
      .cls-1 {
        fill: none;
      }
    </style>
  </defs>
  <rect class="cls-1" width="40" height="40"/>
  <path d="m15.51,28.17h8.98c.47,0,.87-.16,1.19-.48.32-.32.48-.72.48-1.19v-6.84c0-.47-.16-.87-.48-1.19-.32-.32-.72-.48-1.19-.48h-.44v-2.13c0-1.12-.39-2.07-1.17-2.85-.78-.78-1.73-1.17-2.85-1.17s-2.07.39-2.85,1.17c-.78.78-1.17,1.73-1.17,2.85v2.13h-.49c-.47,0-.87.16-1.19.48-.32.32-.48.72-.48,1.19v6.84c0,.47.16.87.48,1.19.32.32.72.48,1.19.48Zm2.11-10.18v-2.13c0-.66.23-1.21.7-1.65.47-.44,1.03-.66,1.69-.66s1.22.22,1.69.67c.47.44.7.99.7,1.65v2.13s-4.79,0-4.79,0Zm2.37,22.01c-.2,0-.39-.02-.58-.05-.19-.04-.36-.09-.54-.16-4.58-1.63-8.21-4.49-10.88-8.57-2.68-4.08-4.01-8.52-4.01-13.33v-9.79c0-.71.2-1.35.6-1.92.4-.57.92-.98,1.56-1.24L18.83.22c.4-.15.79-.22,1.17-.22s.77.07,1.17.22l12.67,4.72c.64.26,1.16.67,1.56,1.24.4.57.6,1.21.6,1.92v9.79c0,4.81-1.34,9.25-4.01,13.33-2.68,4.08-6.3,6.94-10.88,8.57-.17.07-.35.12-.54.16-.19.04-.38.05-.58.05Zm0-2.6c3.89-1.26,7.08-3.7,9.58-7.34,2.5-3.64,3.75-7.69,3.75-12.17v-9.81c0-.14-.04-.26-.11-.37-.08-.11-.18-.19-.32-.25l-12.67-4.75c-.07-.03-.14-.04-.23-.04s-.16.01-.23.04L7.1,7.46c-.14.05-.24.14-.32.25-.08.11-.11.23-.11.37v9.81c0,4.48,1.25,8.53,3.75,12.17,2.5,3.64,5.69,6.08,9.58,7.34Z"/>
</svg>