<?xml version="1.0" encoding="UTF-8"?>
<svg id="Capa_1" data-name="Capa 1" xmlns="http://www.w3.org/2000/svg" viewBox="0 0 40 40">
  <defs>
    <style>
      .cls-1 {
        fill: none;
      }
    </style>
  </defs>
  <rect class="cls-1" width="40" height="40"/>
  <path d="m34.72,33.9h-9.6c-.39,0-.72-.13-.99-.4-.27-.27-.4-.6-.4-.99s.13-.72.4-.98c.27-.26.59-.39.99-.39h9.62l-3.72-3.75c-.24-.27-.37-.59-.39-.98-.02-.38.12-.71.4-.98.27-.27.6-.41.98-.4.38,0,.7.15.97.42l5.85,5.85c.34.35.52.75.52,1.21s-.17.86-.52,1.21l-5.85,5.85c-.27.27-.6.41-.97.42-.37,0-.7-.13-.98-.42-.29-.29-.43-.62-.43-.99s.14-.7.43-.99l3.69-3.69Zm-30.62,3.58c-.94,0-1.75-.34-2.43-1.02-.68-.68-1.02-1.49-1.02-2.43v-7.08c0-.39.13-.72.4-.99s.6-.4.99-.4c.39,0,.72.13.98.4.26.27.39.59.39.99v7.08c0,.2.06.36.19.49.13.13.29.19.49.19h7.08c.39,0,.72.13.99.4.27.27.4.6.4.99,0,.39-.13.72-.4.98-.27.26-.59.39-.99.39,0,0-7.08,0-7.08,0ZM2.03,11.92c-.39,0-.72-.13-.98-.4-.26-.27-.39-.59-.39-.99V3.45c0-.94.34-1.75,1.02-2.43.68-.68,1.49-1.02,2.43-1.02h7.08c.39,0,.72.13.99.4.27.27.4.6.4.99,0,.39-.13.72-.4.98-.27.26-.59.39-.99.39h-7.08c-.2,0-.36.06-.49.19-.13.13-.19.29-.19.49v7.08c0,.39-.13.72-.4.99-.27.27-.6.4-.99.4Zm34.71,0c-.39,0-.72-.13-.98-.4-.26-.27-.39-.59-.39-.99V3.45c0-.2-.06-.36-.19-.49s-.29-.19-.49-.19h-7.08c-.39,0-.72-.13-.99-.4-.27-.27-.4-.6-.4-.99s.13-.72.4-.98C26.88.13,27.21,0,27.6,0h7.08C35.63,0,36.44.34,37.11,1.02c.68.68,1.02,1.49,1.02,2.43v7.08c0,.39-.13.72-.4.99-.27.27-.6.4-.99.4Z"/>
</svg>