<?xml version="1.0" encoding="UTF-8"?>
<svg id="Capa_1" data-name="Capa 1" xmlns="http://www.w3.org/2000/svg" viewBox="0 0 40 40">
  <defs>
    <style>
      .cls-1 {
        fill: none;
      }
    </style>
  </defs>
  <rect class="cls-1" width="40" height="40"/>
  <path d="m1.84,40c-.57,0-.99-.14-1.28-.57s-.57-.85-.57-1.28v-6.38c0-.28,0-.43.14-.71.14-.14.28-.43.43-.57L21.42,9.65l-3.26-3.12c-.28-.28-.43-.57-.43-.99s.14-.71.43-.99c.28-.28.57-.43.99-.43s.71.14.99.43l4.4,4.4L32.77.57C33.19.28,33.62,0,34.04,0s.85.14,1.28.57l4.11,4.11c.43.43.57.71.57,1.28s-.14.85-.57,1.28l-8.23,8.23,4.4,4.4c.28.28.43.57.43.99s-.14.71-.43.99c-.28.28-.57.43-.99.43s-.71-.14-.99-.43l-3.26-3.26-20.85,20.85c-.14.14-.43.28-.57.43-.14.14-.43.14-.71.14H1.84Zm1.13-2.98h4.82l20.28-20.28-4.82-4.82L2.98,32.06v4.96ZM29.08,13.33l7.38-7.38-2.41-2.41-7.38,7.38,2.41,2.41Zm0,0l-2.41-2.41,2.41,2.41Z"/>
</svg>