<?xml version="1.0" encoding="UTF-8"?>
<svg id="Capa_1" data-name="Capa 1" xmlns="http://www.w3.org/2000/svg" viewBox="0 0 40 40">
  <defs>
    <style>
      .cls-1 {
        fill: none;
      }
    </style>
  </defs>
  <rect class="cls-1" width="40" height="40"/>
  <path d="m26.97,21.38l-1.85-1.85c.56-1.99.1-3.68-1.38-5.05s-3.13-1.81-4.97-1.3l-1.85-1.85c.44-.24.91-.41,1.43-.53.52-.12,1.06-.17,1.65-.17,2.14,0,3.95.74,5.44,2.23,1.49,1.49,2.23,3.3,2.23,5.44,0,.58-.06,1.14-.18,1.67-.12.53-.3,1-.52,1.4Zm6.19,6.11l-1.72-1.64c1.4-1.05,2.63-2.21,3.7-3.48,1.07-1.27,1.91-2.63,2.53-4.06-1.62-3.42-3.99-6.14-7.12-8.14s-6.57-3-10.32-3c-1.14,0-2.29.1-3.45.29-1.16.19-2.16.44-3,.74l-1.88-1.9c1.13-.47,2.43-.85,3.89-1.14,1.46-.29,2.91-.43,4.33-.43,4.19,0,8.05,1.13,11.59,3.39,3.53,2.26,6.22,5.28,8.06,9.04.08.15.14.32.18.52.03.2.05.41.05.63s-.02.43-.05.64c-.04.21-.09.38-.17.53-.77,1.57-1.7,3.03-2.81,4.38-1.11,1.35-2.37,2.56-3.8,3.63Zm1.58,9.86l-6.97-6.88c-1,.42-2.16.76-3.51,1.02-1.34.26-2.77.4-4.27.4-4.26,0-8.16-1.13-11.7-3.39-3.53-2.26-6.23-5.28-8.08-9.04-.08-.16-.14-.34-.18-.53s-.05-.4-.05-.62.02-.44.06-.64c.04-.21.09-.38.17-.52.73-1.49,1.64-2.91,2.73-4.25,1.09-1.34,2.31-2.55,3.65-3.63L1.7,4.36c-.23-.23-.35-.52-.36-.84,0-.33.12-.62.37-.87.25-.25.54-.37.87-.37s.62.12.87.37l33.02,33.02c.22.22.33.49.34.81,0,.32-.11.6-.34.86-.23.26-.52.39-.85.39s-.62-.12-.87-.37ZM8.29,10.98c-1.15.84-2.29,1.93-3.42,3.28-1.13,1.35-1.99,2.7-2.56,4.04,1.63,3.42,4.03,6.14,7.2,8.14,3.17,2,6.73,3,10.68,3,1.1,0,2.18-.09,3.26-.26,1.08-.17,1.89-.38,2.44-.61l-3.11-3.13c-.34.16-.77.29-1.3.39-.53.1-1.02.15-1.47.15-2.13,0-3.94-.74-5.43-2.22-1.49-1.48-2.24-3.3-2.24-5.45,0-.45.05-.94.15-1.44.1-.51.23-.95.39-1.33l-4.57-4.55Z"/>
</svg>