<?xml version="1.0" encoding="UTF-8"?>
<svg id="Capa_1" data-name="Capa 1" xmlns="http://www.w3.org/2000/svg" viewBox="0 0 40 40">
  <defs>
    <style>
      .cls-1 {
        fill: none;
      }
    </style>
  </defs>
  <rect class="cls-1" width="40" height="40"/>
  <path d="m20,20.06c0-2.71.94-5.06,2.94-7.06s4.24-2.94,7.06-2.94,5.06.94,7.06,2.94,2.94,4.24,2.94,7.06h-20Zm-10,10c-2.71,0-5.06-.94-7.06-2.94-2-2-2.94-4.24-2.94-7.06h20c0,2.71-.94,5.06-2.94,7.06-1.88,1.88-4.24,2.94-7.06,2.94Zm10-10c-2.71,0-5.06-.94-7.06-2.94-2-2-2.94-4.24-2.94-7.06s.94-5.06,2.94-7.06C14.94,1,17.18.06,20,.06v20Zm0,19.88v-19.88c2.71,0,5.06.94,7.06,2.94s2.94,4.24,2.94,7.06-.94,5.06-2.94,7.06-4.35,2.82-7.06,2.82Z"/>
</svg>