<?xml version="1.0" encoding="UTF-8"?>
<svg id="Capa_1" data-name="Capa 1" xmlns="http://www.w3.org/2000/svg" viewBox="0 0 40 40">
  <defs>
    <style>
      .cls-1 {
        fill: none;
      }
    </style>
  </defs>
  <rect class="cls-1" width="40" height="40"/>
  <path d="m3,30.74c-.57.43-1.29.43-2,.14-.71-.43-1-.86-1-1.71V10.89c0-.71.29-1.29,1-1.71s1.29-.29,2,.14l13.43,9.14c.57.43.86.86.86,1.57s-.29,1.14-.86,1.57L3,30.74Zm22.71,0c-.57.43-1.29.43-2,.14-.71-.43-1-.86-1-1.71V10.89c0-.71.29-1.29,1-1.71s1.29-.29,2,.14l13.43,9.14c.57.43.86.86.86,1.57s-.29,1.14-.86,1.57l-13.43,9.14Zm-22.57-3.71l10.29-7L3.14,13.03v14Zm22.57,0l10.29-7-10.29-7v14Z"/>
</svg>