<?xml version="1.0" encoding="UTF-8"?>
<svg id="Capa_1" data-name="Capa 1" xmlns="http://www.w3.org/2000/svg" viewBox="0 0 40 40">
  <defs>
    <style>
      .cls-1 {
        fill: none;
      }
    </style>
  </defs>
  <rect class="cls-1" x="0" width="40" height="40"/>
  <path d="m37.07,30.75l-13.5-9.18c-.56-.39-.83-.91-.83-1.57s.28-1.18.83-1.57l13.5-9.18c.62-.45,1.27-.5,1.93-.14.67.36,1,.92,1,1.68v18.42c0,.76-.33,1.32-1,1.68-.67.36-1.31.31-1.93-.14Zm-22.75,0L.83,21.57c-.56-.39-.83-.91-.83-1.57s.28-1.18.83-1.57l13.48-9.18c.63-.45,1.28-.5,1.95-.14.67.36,1,.92,1,1.68v18.42c0,.76-.33,1.32-1,1.68-.67.36-1.32.31-1.95-.14Zm-.07-3.73v-14.06l-10.37,7.04s10.37,7.02,10.37,7.02Zm22.74,0v-14.06l-10.36,7.04s10.36,7.02,10.36,7.02Z"/>
</svg>