<?xml version="1.0" encoding="UTF-8"?>
<svg id="Capa_1" data-name="Capa 1" xmlns="http://www.w3.org/2000/svg" viewBox="0 0 40 40">
  <defs>
    <style>
      .cls-1 {
        fill: none;
      }
    </style>
  </defs>
  <rect class="cls-1" width="40" height="40"/>
  <path d="m39.62,24.3c-.25-.25-.56-.38-.94-.38h-9.15v-3.26c0-.19.06-.34.18-.46s.28-.18.46-.18h4.12c.37,0,.68-.12.94-.37s.38-.56.38-.93-.13-.69-.38-.94-.56-.38-.94-.38h-4.12c-.89,0-1.66.32-2.31.97-.64.64-.97,1.41-.97,2.31v3.26h-5.59v-15.07c0-1.44.5-2.66,1.51-3.66,1.01-1.01,2.23-1.51,3.68-1.51.95,0,1.84.26,2.66.77.82.52,1.45,1.21,1.89,2.07l1.45,2.93c.17.33.43.55.78.66.35.12.69.1,1.02-.06.32-.17.54-.43.66-.77s.09-.68-.08-1.01l-1.46-2.95c-.66-1.32-1.61-2.36-2.84-3.12-1.23-.76-2.59-1.15-4.08-1.15-2.16-.01-4.01.74-5.54,2.25-1.53,1.51-2.29,3.36-2.29,5.55v15.07h-5.59v-3.26c0-.89-.32-1.66-.97-2.31s-1.41-.97-2.31-.97h-4.12c-.37,0-.68.12-.94.37s-.38.56-.38.93.13.69.38.94.56.38.94.38h4.12c.19,0,.34.06.46.18s.18.28.18.46v3.26H1.31c-.37,0-.68.12-.94.37S0,24.85,0,25.22s.13.69.38.94c.25.25.56.38.94.38h2.87v9.13c0,.89.32,1.66.97,2.31s1.41.97,2.31.97h24.95c.95,0,1.75-.33,2.41-.99.66-.66.99-1.47.99-2.41v-9h2.87c.37,0,.68-.12.94-.37.25-.25.38-.56.38-.93s-.13-.69-.38-.94Zm-6.44,11.38c0,.19-.06.34-.18.46-.12.12-.27.18-.46.18H7.46c-.19,0-.34-.06-.46-.18-.12-.12-.18-.28-.18-.46v-9.13h26.37v9.13Z"/>
</svg>