<?xml version="1.0" encoding="UTF-8"?>
<svg id="Capa_1" data-name="Capa 1" xmlns="http://www.w3.org/2000/svg" viewBox="0 0 40 40">
  <defs>
    <style>
      .cls-1 {
        fill: none;
      }
    </style>
  </defs>
  <rect class="cls-1" x="0" width="40" height="40"/>
  <path d="m5.64,36.75c-1.56,0-2.9-.55-3.99-1.65s-1.65-2.43-1.65-3.99v-14.36c0-1.56.55-2.9,1.65-3.99,1.1-1.1,2.43-1.65,3.99-1.65.88,0,1.69.19,2.43.56.74.38,1.38.87,1.92,1.49h2.32v-7.32c0-.7.25-1.31.76-1.81.51-.51,1.11-.76,1.81-.76h14.33c.7,0,1.31.25,1.81.76.51.51.76,1.11.76,1.81v7.32h3.06c1.43,0,2.64.5,3.64,1.5,1,1,1.5,2.21,1.5,3.64v13.82c0,.7-.25,1.31-.76,1.81s-1.11.76-1.81.76H9.99c-.54.62-1.18,1.11-1.92,1.49-.74.38-1.55.56-2.43.56Zm0-2.58c.86,0,1.59-.29,2.18-.88.59-.59.88-1.32.88-2.18v-14.36c0-.86-.29-1.59-.88-2.18-.59-.59-1.32-.88-2.18-.88s-1.59.29-2.18.88c-.59.59-.88,1.32-.88,2.18v14.36c0,.86.29,1.59.88,2.18.59.59,1.32.88,2.18.88ZM14.88,13.16h14.33v-7.32h-14.33s0,7.32,0,7.32Zm-3.6,18.96h26.14v-13.82c0-.71-.25-1.32-.75-1.82-.5-.5-1.1-.75-1.82-.75H11.28s0,16.38,0,16.38Zm14.87-9.22c.58,0,1.07-.2,1.46-.59s.59-.88.59-1.46-.2-1.07-.59-1.46-.88-.59-1.46-.59-1.07.2-1.46.59-.59.88-.59,1.46.2,1.07.59,1.46.88.59,1.46.59Zm6.15,0c.58,0,1.07-.2,1.46-.59s.59-.88.59-1.46-.2-1.07-.59-1.46-.88-.59-1.46-.59-1.07.2-1.46.59-.59.88-.59,1.46.2,1.07.59,1.46.88.59,1.46.59Zm-6.15,6.15c.58,0,1.07-.2,1.46-.59s.59-.88.59-1.46-.2-1.07-.59-1.46-.88-.59-1.46-.59-1.07.2-1.46.59-.59.88-.59,1.46.2,1.07.59,1.46.88.59,1.46.59Zm6.15,0c.58,0,1.07-.2,1.46-.59s.59-.88.59-1.46-.2-1.07-.59-1.46-.88-.59-1.46-.59-1.07.2-1.46.59-.59.88-.59,1.46.2,1.07.59,1.46.88.59,1.46.59Zm-17.96,0h7.71v-10.26h-7.71v10.26Zm-3.06,3.06V15.73v16.38Z"/>
</svg>