<?xml version="1.0" encoding="UTF-8"?>
<svg id="Capa_1" data-name="Capa 1" xmlns="http://www.w3.org/2000/svg" viewBox="0 0 40 40">
  <defs>
    <style>
      .cls-1 {
        fill: none;
      }
    </style>
  </defs>
  <rect class="cls-1" x="0" width="40" height="40"/>
  <path d="m36.62,21.77l3.33-3.74h-3.9l-1.36,1.55-1.41-1.55h-7.42v-1h3.51v-3.01h-9.45v4.72h-.03c-.6-.69-1.34-.93-2.21-.93-1.77,0-3.11,1.21-3.58,2.81-1.12-3.71-6.09-3.6-7.62-.88v-1.51h-3.42v-1.64h3.75v-2.57H0v11.52h3.06v-4.84h3.06c-.09.36-.14.74-.14,1.14,0,4.57,6.41,5.71,8.14,1.48h-2.62c-.92,1.31-2.86.56-2.86-.91h5.34c.23,1.91,1.71,3.56,3.76,3.56.88,0,1.69-.43,2.18-1.16h.03v.74h13.26l1.38-1.56,1.39,1.56h4.03l-3.38-3.78Zm-27.92-1.04c.38-1.64,2.61-1.6,2.91,0h-2.91Zm9.59,3.06c-2.16,0-2.12-3.93,0-3.93s2.16,3.93,0,3.93Zm10.49,1.19h-5.9v-10.41h5.94v1.89h-3.51v2.12h3.47v1.76h-3.51v2.79h3.51v1.85h0Zm-2.87-2.49v-1.52h3.51v-2.75l3.17,3.56-3.17,3.56v-2.85h-3.51Zm8.66.64l-1.63,1.84h-2.38l2.85-3.2-2.85-3.2h2.48l1.66,1.83,1.6-1.83h2.41l-2.84,3.19,2.88,3.21h-2.53l-1.64-1.84h0Z"/>
</svg>