<?xml version="1.0" encoding="UTF-8"?>
<svg id="Capa_1" data-name="Capa 1" xmlns="http://www.w3.org/2000/svg" viewBox="0 0 40 40">
  <defs>
    <style>
      .cls-1 {
        fill: none;
      }
    </style>
  </defs>
  <rect class="cls-1" x="0" width="40" height="40"/>
  <path d="m20.07.02C9.04,0,.07,8.91.04,19.95L0,35.14c-.01,2.64,2.11,4.79,4.75,4.81,0,0,.02,0,.03,0l15.18.04c11.03.03,20.01-8.89,20.04-19.93C40.03,9.02,31.11.04,20.07.02Zm15.15,14.02l-5.51-5.58c.21-.42.34-.82.34-1.28v-.14l4.92,5c.16.65.24,1.32.25,2h0Zm-5.69-8.47c2.47,1.07,4.37,3.14,5.22,5.69l-4.84-4.87c-.07-.3-.2-.57-.37-.82Zm-18.99,13.64c-.28.31-.51.65-.69,1.02l-.76-.76c.47-.13.96-.22,1.45-.26h0Zm-1.88.37l1.05,1.06-.08.71c0,.38.07.76.21,1.12l-2.41-2.43c.39-.19.8-.35,1.22-.46h0Zm-1.62.66l3.41,3.43c-.44.08-.86.22-1.26.42l-3.15-3.2c.32-.23.65-.45,1-.64Zm-1.36.87l3.15,3.17c-.34.22-.65.47-.94.76l-3.11-3.09c.27-.31.57-.59.9-.84h0Zm-1.19,1.1l3.11,3.12c-.27.31-.5.65-.69,1.02l-3.19-3.2c.25-.34.51-.64.77-.94Zm-.98,1.28l3.25,3.26c-.18.43-.29.89-.32,1.36l-3.52-3.55c.17-.37.37-.73.6-1.07h0Zm-.79,1.45l3.68,3.73c.03.81.23,1.61.6,2.34l-4.7-4.77c.12-.44.26-.86.42-1.29h0Zm-.7,3.84l5.52,5.55c-.21.39-.32.83-.32,1.28v.1l-4.94-4.97c-.17-.64-.25-1.29-.26-1.95Zm.47,2.74l4.84,4.87c.07.29.2.57.37.82-2.47-1.07-4.36-3.14-5.22-5.69h0Zm-.47-3.3c0-.51.07-1.02.19-1.52l6.44,6.47c-.34.2-.64.47-.88.78l-5.74-5.73Zm22.6-4.62h-3.8s0,4.99,0,4.99c-.02,6.18-5.74,10.33-11.21,9.18-.51,0-1.78-.78-1.78-2.16.01-1.2.98-2.18,2.19-2.19.56,0,.56.14,1.4.14,2.75,0,5-2.22,5-4.97,0,0,0-.01,0-.02v-4.19c0-.4-.39-.8-.79-.8h-3c-2.91-.02-2.9-4.42,0-4.41h3.8s0-4.99,0-4.99c0-5.18,4.22-9.38,9.4-9.37,0,0,.01,0,.02,0,.61,0,1.21.07,1.8.21,1,.16,1.78,1.06,1.78,2.14,0,1.38-1.33,2.48-2.7,2.13-2.44-.53-5.88,1.28-5.89,4.9v4.19c-.01.44.34.8.78.8,0,0,0,0,0,0h3c2.9.03,2.89,4.42-.02,4.42h0Zm2.1-.03c.29-.29.52-.64.68-1.02l.76.76c-.47.12-.95.21-1.44.26Zm1.87-.37l-1.05-1.06.08-.72c0-.38-.07-.76-.21-1.12l2.41,2.43c-.39.2-.8.36-1.22.47h0Zm1.61-.66l-3.39-3.43c.44-.1.86-.21,1.22-.42l3.23,3.2c-.34.22-.7.45-1.06.64h0Zm1.38-.87l-3.15-3.17c.34-.22.65-.47.94-.76l3.11,3.12c-.29.28-.59.55-.9.8Zm1.18-1.1l-3.11-3.12c.27-.31.5-.65.69-1.02l3.19,3.2c-.24.33-.5.64-.77.94Zm.98-1.28l-3.25-3.26c.18-.43.29-.89.32-1.36l3.52,3.55c-.17.37-.37.73-.6,1.07h0Zm1.2-2.76c-.12.43-.26.86-.42,1.28l-3.68-3.7c-.02-.82-.24-1.62-.63-2.34l4.74,4.76Zm.09-.5l-6.41-6.43c.35-.21.65-.49.88-.82l5.74,5.77c-.02.5-.09.99-.21,1.48h0Z"/>
</svg>