<?xml version="1.0" encoding="UTF-8"?>
<svg id="Capa_1" data-name="Capa 1" xmlns="http://www.w3.org/2000/svg" viewBox="0 0 40 40">
  <defs>
    <style>
      .cls-1 {
        fill: none;
      }
    </style>
  </defs>
  <rect class="cls-1" width="40" height="40"/>
  <path d="m18.25,40c-.49,0-.86-.12-1.11-.49-.25-.25-.49-.74-.49-1.11v-10.34h-3.69c-.49,0-.98-.25-1.35-.74s-.37-.98-.25-1.48l4.8-13.54c.37-.74.86-1.48,1.48-1.85.74-.49,1.48-.74,2.34-.74s1.6.25,2.34.74c.74.49,1.23,1.11,1.48,1.85l4.8,13.54c.25.49.12.98-.25,1.48-.37.49-.74.74-1.35.74h-3.69v10.34c0,.49-.12.86-.49,1.11s-.74.49-1.11.49h-3.45Zm1.85-32.74c-.98,0-1.85-.37-2.58-1.11-.74-.74-1.11-1.6-1.11-2.58s.37-1.85,1.11-2.58c.74-.62,1.6-.98,2.58-.98s1.85.37,2.58,1.11,1.11,1.6,1.11,2.58-.37,1.85-1.11,2.58c-.74.62-1.6.98-2.58.98Z"/>
</svg>