<?xml version="1.0" encoding="UTF-8"?>
<svg id="Capa_1" data-name="Capa 1" xmlns="http://www.w3.org/2000/svg" viewBox="0 0 40 40">
  <defs>
    <style>
      .cls-1 {
        fill: none;
      }
    </style>
  </defs>
  <rect class="cls-1" x="0" width="40" height="40"/>
  <path d="m26.67,13.34c3.68,0,6.67-2.99,6.67-6.67S30.35,0,26.67,0h-13.34c-3.68,0-6.66,2.98-6.66,6.66s2.98,6.66,6.66,6.66c-3.68,0-6.67,2.99-6.67,6.67,0,3.68,2.98,6.66,6.67,6.67-3.68,0-6.67,2.98-6.67,6.66,0,3.68,2.98,6.67,6.66,6.67,3.68,0,6.67-2.98,6.67-6.66V13.34h6.67Zm0,0c-3.68,0-6.66,2.98-6.66,6.66s2.98,6.66,6.66,6.66,6.66-2.98,6.66-6.66h0c0-3.68-2.98-6.66-6.66-6.66Z"/>
</svg>