<?xml version="1.0" encoding="UTF-8"?>
<svg id="Capa_1" data-name="Capa 1" xmlns="http://www.w3.org/2000/svg" viewBox="0 0 40 40">
  <defs>
    <style>
      .cls-1 {
        fill: none;
      }
    </style>
  </defs>
  <rect class="cls-1" width="40" height="40"/>
  <path d="m3.49,40c-.86,0-1.6-.31-2.22-.93-.62-.62-.93-1.36-.93-2.22V4.83c0-.86.31-1.6.93-2.22.62-.62,1.36-.93,2.22-.93h15.92c.36,0,.66.12.9.37.24.24.36.55.36.91,0,.36-.12.66-.36.9-.24.24-.54.36-.9.36H3.49c-.18,0-.33.06-.45.17-.12.12-.17.27-.17.45v32.01c0,.18.06.33.17.45.12.12.27.17.45.17h21.93c.18,0,.33-.06.45-.17.12-.12.17-.27.17-.45v-4.15c0-.36.12-.66.37-.9s.55-.36.91-.36.66.12.9.36.36.54.36.9v4.15c0,.86-.31,1.6-.93,2.22-.62.62-1.36.93-2.22.93,0,0-21.93,0-21.93,0Zm5.68-7.81c-.36,0-.66-.12-.9-.37-.24-.24-.36-.55-.36-.91s.12-.66.36-.9c.24-.24.54-.36.9-.36h10.58c.36,0,.66.12.9.37.24.24.36.55.36.91s-.12.66-.36.9-.54.36-.9.36c0,0-10.58,0-10.58,0Zm0-5.82c-.36,0-.66-.12-.9-.37-.24-.24-.36-.55-.36-.91s.12-.66.36-.9c.24-.24.54-.36.9-.36h6.54c.36,0,.66.12.9.37.24.24.36.55.36.91s-.12.66-.36.9-.54.36-.9.36c0,0-6.54,0-6.54,0Zm15-1.88l-5.98-5.98h-4.67c-.45,0-.82-.15-1.12-.45-.3-.3-.45-.67-.45-1.12v-5.94c0-.44.15-.82.45-1.12.3-.3.68-.45,1.12-.45h4.67l5.98-5.98c.25-.25.54-.31.87-.19.33.12.5.36.5.71v20c0,.35-.17.58-.5.71-.33.12-.62.06-.87-.19Zm4.91-3.35V6.56c1.45.69,2.56,1.75,3.34,3.18.78,1.43,1.17,2.84,1.17,4.23s-.42,2.78-1.26,4.16c-.84,1.38-1.92,2.39-3.26,3.01Zm8.05-7.17c0-2.56-.66-4.86-1.97-6.9-1.32-2.04-2.95-3.58-4.89-4.64-.3-.15-.53-.4-.68-.73-.15-.33-.15-.65-.01-.96.15-.33.39-.56.72-.67.33-.11.66-.09.99.06,2.46,1.28,4.48,3.15,6.04,5.63,1.57,2.47,2.35,5.21,2.35,8.21s-.78,5.74-2.35,8.21c-1.57,2.47-3.58,4.35-6.04,5.63-.33.15-.66.17-.99.06-.33-.11-.57-.34-.72-.67-.14-.31-.14-.63.01-.96.15-.33.37-.57.68-.73,1.95-1.05,3.58-2.6,4.89-4.64,1.32-2.04,1.97-4.34,1.97-6.9Z"/>
</svg>