<?xml version="1.0" encoding="UTF-8"?>
<svg id="Capa_1" data-name="Capa 1" xmlns="http://www.w3.org/2000/svg" viewBox="0 0 40 40">
  <defs>
    <style>
      .cls-1 {
        fill: none;
      }
    </style>
  </defs>
  <rect class="cls-1" width="40" height="40"/>
  <path d="m4.34,39.83c-.9,0-1.67-.32-2.31-.96-.64-.64-.96-1.41-.96-2.31V3.28c0-.9.32-1.67.96-2.31.64-.64,1.41-.96,2.31-.96h15.79c.45,0,.88.09,1.29.27.41.18.76.41,1.07.7l9.05,9.05c.29.3.53.66.7,1.07.18.41.27.84.27,1.29v11.7c0,.37-.13.69-.38.94-.25.25-.57.38-.94.38s-.69-.13-.94-.38c-.25-.25-.37-.56-.37-.94v-11.5h-8.3c-.47,0-.86-.16-1.17-.47-.31-.31-.47-.7-.47-1.17V2.63H4.34c-.16,0-.31.07-.44.2-.13.13-.2.28-.2.44v33.27c0,.16.07.31.2.44.13.13.28.2.44.2h18.7c.37,0,.69.13.94.38.25.25.38.57.38.94s-.13.69-.38.94c-.25.25-.56.37-.94.37,0,0-18.7,0-18.7,0Zm26.34-6.23v5.03c0,.37-.13.69-.38.94-.25.25-.57.38-.94.38s-.69-.13-.94-.38c-.25-.25-.37-.56-.37-.94v-7.92c0-.47.16-.86.47-1.17.31-.31.7-.47,1.17-.47h7.92c.37,0,.69.13.94.38.25.25.38.57.38.94s-.13.69-.38.94c-.25.25-.56.37-.94.37h-5.09l6.06,6.06c.25.25.38.56.38.91s-.12.67-.37.93c-.27.27-.59.4-.96.39-.37,0-.68-.14-.94-.4l-6-6Zm-26.98,3.6V2.63v34.56Z"/>
</svg>