<?xml version="1.0" encoding="UTF-8"?>
<svg id="Capa_1" data-name="Capa 1" xmlns="http://www.w3.org/2000/svg" viewBox="0 0 40 40">
  <defs>
    <style>
      .cls-1 {
        fill: none;
      }
    </style>
  </defs>
  <rect class="cls-1" width="40" height="40"/>
  <g>
    <path d="m35.52,10.58c-.18-.4-.42-.76-.71-1.06L26.26.97c-.3-.29-.66-.53-1.06-.71-.4-.18-.83-.27-1.29-.27H7.51c-.91,0-1.68.33-2.32.97-.64.64-.97,1.41-.97,2.32v33.41c0,.91.33,1.68.97,2.32s1.41.97,2.32.97h-.01s25-.01,25-.01c.91,0,1.68-.33,2.32-.97.64-.64.97-1.41.97-2.32V11.87c0-.45-.09-.88-.27-1.29Zm-2.37,26.12c0,.16-.06.3-.2.44-.13.14-.28.2-.44.2H7.51c-.16,0-.3-.06-.44-.2-.14-.13-.2-.28-.2-.44V3.3c0-.16.06-.3.2-.44.13-.14.28-.2.44-.2h16.44v7.46h-.01c0,.47.16.86.48,1.17.33.32.71.48,1.17.48h7.55v24.93Z"/>
    <path d="m24.61,22.34c-.24-.44-.58-.82-1.02-1.11-.37-.24-.8-.43-1.28-.54-.48-.11-1.07-.18-1.77-.18h-4.67v11.01h2.84v-3.59h1.77c.81,0,1.49-.1,2.02-.33s1.02-.56,1.47-.99c.33-.32.57-.71.75-1.19.18-.48.27-.96.27-1.45h-.01c0-.64-.11-1.2-.35-1.64Zm-2.59,1.72c0,.32-.05.58-.13.8-.08.23-.21.42-.39.57-.2.18-.47.29-.78.35s-.72.09-1.2.09h-.81v-3.3h.49c.47,0,.83,0,1.12.01.29.01.58.09.87.2.21.09.42.25.58.47s.25.48.25.8h-.01Z"/>
  </g>
</svg>