<?xml version="1.0" encoding="UTF-8"?>
<svg id="Capa_1" data-name="Capa 1" xmlns="http://www.w3.org/2000/svg" viewBox="0 0 40 40">
  <defs>
    <style>
      .cls-1 {
        fill: none;
      }
    </style>
  </defs>
  <rect class="cls-1" y="-.58" width="40" height="41.15"/>
  <g>
    <path d="m38.16,25.9l-2.96-2.96c-.32-.32-.69-.48-1.15-.48s-.85.16-1.16.48l-2.83,2.83v.03s-5.44,5.46-5.44,5.46c-.31-.05-.61-.23-.76-.53h.04c-1.07-2.13-4.14-2.72-5.92-1.28l-1.25-3.74c-.29-.88-1.11-1.48-2.05-1.48s-1.74.59-2.05,1.48l-1.63,4.9c-.14.42-.52.68-.96.68h-1.11c-.8,0-1.44.64-1.44,1.44s.64,1.44,1.44,1.44h1.11c1.67,0,3.14-1.06,3.68-2.65l.95-2.85,1.52,4.52c.4,1.21,2.07,1.34,2.64.19l.68-1.38c.25-.51.71-.56.9-.56s.64.05.91.58c.36.72.72,1.11,1.21,1.33l-.91.91c-.18.16-.3.35-.38.54-.08.19-.11.39-.11.59v3.75c0,.24.09.43.25.59.16.16.35.24.58.24h3.8c.2,0,.4-.04.59-.11.19-.09.37-.2.54-.38l8.44-8.46h-.01s.01-.01.01-.01l2.83-2.8c.32-.33.48-.71.48-1.16s-.16-.83-.48-1.15Zm-12.6,12.07h-2.45v-2.45l8.36-8.35,2.45,2.44-8.36,8.36Z"/>
    <path d="m4.23,37.15c-.14-.13-.2-.28-.2-.44V3.3c0-.16.06-.3.2-.44.13-.14.28-.2.44-.2h15.65v8.34c0,.47.15.86.47,1.17s.71.47,1.17.47h8.34v6.32h2.64v-6.52c0-.44-.09-.87-.27-1.29-.18-.42-.42-.77-.71-1.07L22.87.97c-.3-.29-.66-.53-1.07-.71-.4-.18-.83-.27-1.29-.27H4.66c-.91,0-1.68.33-2.32.97-.64.64-.97,1.41-.97,2.32v33.41c0,.91.33,1.68.97,2.32.64.64,1.41.97,2.32.97h.01s12.76-.01,12.76-.01v-2.64H4.67c-.16,0-.3-.06-.44-.2Z"/>
  </g>
</svg>