<?xml version="1.0" encoding="UTF-8"?>
<svg id="Capa_1" data-name="Capa 1" xmlns="http://www.w3.org/2000/svg" viewBox="0 0 40 40">
  <defs>
    <style>
      .cls-1 {
        fill: none;
      }
    </style>
  </defs>
  <rect class="cls-1" width="40" height="40"/>
  <g>
    <path d="m35.52,10.58c-.18-.4-.42-.76-.71-1.06L26.26.97c-.3-.29-.66-.53-1.06-.71-.4-.18-.83-.27-1.29-.27H7.51c-.91,0-1.68.33-2.32.97s-.97,1.41-.97,2.32v33.41c0,.91.33,1.68.97,2.32s1.41.97,2.32.97h-.01s25-.01,25-.01c.91,0,1.68-.33,2.32-.97s.97-1.41.97-2.32V11.87c0-.45-.09-.88-.27-1.29Zm-2.37,26.12c0,.16-.06.3-.2.44-.13.14-.28.2-.44.2H7.51c-.16,0-.3-.06-.44-.2-.14-.13-.2-.28-.2-.44V3.3c0-.16.06-.3.2-.44.13-.14.28-.2.44-.2h16.44v7.46h-.01c0,.47.16.86.48,1.17.33.32.71.48,1.17.48h7.55v24.93Z"/>
    <path d="m24.22,19.07c-.18,0-.33.06-.47.2-.13.13-.2.28-.2.47-.01.19.05.34.18.47l4.55,4.55-4.55,4.55c-.14.13-.2.29-.2.47s.06.33.2.47c.13.13.28.2.45.2.18.01.33-.05.45-.18l4.94-4.94c.16-.16.24-.35.24-.57s-.08-.42-.24-.58l-4.89-4.9c-.13-.14-.29-.2-.47-.2Z"/>
    <path d="m16.51,19.73c0-.18-.08-.34-.2-.47-.13-.14-.28-.2-.47-.2s-.34.06-.47.19l-4.94,4.93c-.16.16-.24.37-.24.58s.08.4.24.57l4.9,4.89c.13.14.29.2.47.2s.33-.06.47-.2c.13-.13.2-.28.2-.45.01-.18-.05-.33-.18-.45l-4.55-4.55,4.56-4.56c.14-.13.2-.29.2-.47Z"/>
  </g>
</svg>