<?xml version="1.0" encoding="UTF-8"?>
<svg id="Capa_1" data-name="Capa 1" xmlns="http://www.w3.org/2000/svg" viewBox="0 0 40 40">
  <defs>
    <style>
      .cls-1 {
        fill: none;
      }
    </style>
  </defs>
  <rect class="cls-1" x="0" width="40" height="40"/>
  <path d="m26.66,26.6c.27-.27.4-.58.39-.93,0-.35-.14-.66-.41-.93l-5.49-5.41c-.17-.17-.35-.29-.55-.37-.19-.07-.4-.11-.61-.11s-.41.04-.6.11c-.19.07-.37.2-.54.37l-5.46,5.47c-.26.26-.39.57-.4.92,0,.35.13.67.39.96.27.25.59.38.94.38.35,0,.66-.13.92-.39,0,0,3.48-3.48,3.48-3.48v8.88c0,.38.13.69.38.94.25.25.57.38.95.38s.69-.13.94-.38c.25-.25.38-.57.38-.94v-8.88l3.42,3.43s.9.81,1.86-.01Zm-19.16,13.4c-.9,0-1.68-.32-2.33-.97-.65-.65-.97-1.42-.97-2.33V3.29c0-.9.32-1.68.97-2.33.65-.65,1.42-.97,2.33-.97h16.41c.45,0,.88.09,1.29.27.41.18.76.41,1.06.71l8.56,8.56c.29.3.53.66.71,1.06.18.41.27.84.27,1.29v24.83c0,.9-.32,1.68-.97,2.33s-1.42.97-2.33.97c0,0-24.99,0-24.99,0ZM23.95,10.12V2.65H7.5c-.16,0-.31.07-.45.2-.13.13-.2.28-.2.45v33.41c0,.16.07.31.2.45.13.13.28.2.45.2h24.99c.16,0,.31-.07.45-.2.13-.13.2-.28.2-.45V11.76h-7.55c-.46,0-.85-.16-1.17-.48-.32-.32-.48-.71-.48-1.17ZM6.86,2.65v9.12V2.65v34.71V2.65Z"/>
</svg>