<?xml version="1.0" encoding="UTF-8"?>
<svg id="Capa_1" data-name="Capa 1" xmlns="http://www.w3.org/2000/svg" viewBox="0 0 40 40">
  <defs>
    <style>
      .cls-1 {
        fill: none;
      }
    </style>
  </defs>
  <rect class="cls-1" width="40" height="40"/>
  <g>
    <path d="m35.52,10.58c-.18-.4-.42-.76-.71-1.06L26.26.97c-.3-.29-.66-.53-1.06-.71-.4-.18-.83-.27-1.29-.27H7.51c-.91,0-1.68.33-2.32.97-.64.64-.97,1.41-.97,2.32v33.41c0,.91.33,1.68.97,2.32.64.64,1.41.97,2.32.97h-.01s25-.01,25-.01c.91,0,1.68-.33,2.32-.97.64-.64.97-1.41.97-2.32V11.87c0-.45-.09-.88-.27-1.29Zm-2.37,26.12c0,.16-.06.3-.2.44-.13.14-.28.2-.44.2H7.51c-.16,0-.3-.06-.44-.2-.14-.13-.2-.28-.2-.44V3.3c0-.16.06-.3.2-.44.13-.14.28-.2.44-.2h16.44v7.46h-.01c0,.47.16.86.48,1.17.33.32.71.48,1.17.48h7.55v24.93Z"/>
    <path d="m13.42,22.78s.08-.05.11-.05h2.17c.18,0,.32-.06.43-.18.11-.11.16-.25.16-.43s-.05-.32-.16-.43c-.11-.11-.25-.16-.43-.16h-2.48c-.3,0-.56.1-.76.32-.2.21-.32.47-.32.77v4.32c0,.3.1.56.32.76.2.2.45.32.76.32v-.03h2.48c.18,0,.32-.06.43-.18.11-.11.16-.27.16-.43s-.05-.32-.16-.43c-.11-.11-.25-.16-.43-.16h-2.17s-.09-.01-.11-.05c-.04-.04-.05-.08-.05-.11v-3.73s.01-.09.05-.11Z"/>
    <path d="m18.9,22.78s.08-.05.11-.05h2.31c.18,0,.32-.06.43-.18.11-.11.16-.25.16-.43s-.05-.32-.16-.43c-.11-.11-.25-.16-.43-.16h-2.61c-.3,0-.56.1-.76.32-.2.2-.32.45-.32.76v1.6c0,.3.1.56.32.77.2.21.45.32.76.32h1.83s.09.01.11.05c.04.04.05.08.05.11v1.16s-.01.09-.05.11c-.04.04-.08.05-.11.05h-2.3c-.18,0-.32.06-.43.18-.11.11-.18.25-.18.43s.06.32.18.43c.11.11.25.16.43.16h2.6c.3,0,.56-.1.76-.32.2-.21.3-.45.3-.76v-1.6c0-.29-.1-.54-.3-.75-.2-.21-.45-.32-.76-.32h-1.83s-.09-.01-.11-.05c-.04-.04-.05-.08-.05-.11v-1.19s.01-.09.05-.11Z"/>
    <path d="m24.19,21.62c-.1-.08-.21-.11-.35-.11-.2,0-.35.08-.48.24-.11.16-.15.33-.1.52l1.48,5.22c.04.15.13.28.27.37.13.09.28.14.44.14h.39c.16,0,.3-.05.43-.14.13-.09.2-.21.25-.37l1.57-5.23c.06-.19.03-.35-.09-.51-.11-.15-.28-.23-.47-.23-.14,0-.25.04-.35.11-.1.08-.18.18-.21.3l-1.3,4.53h-.03s-1.23-4.53-1.23-4.53c-.04-.13-.11-.23-.21-.32Z"/>
  </g>
</svg>