<?xml version="1.0" encoding="UTF-8"?>
<svg id="Capa_1" data-name="Capa 1" xmlns="http://www.w3.org/2000/svg" viewBox="0 0 40 40">
  <defs>
    <style>
      .cls-1 {
        fill: none;
      }
    </style>
  </defs>
  <rect class="cls-1" width="40" height="40"/>
  <path d="m3.56,2.55v13.82-.11,19.72V2.55v8.78V2.55Zm6.31,19.77h7.03c.28-.48.59-.93.92-1.36.34-.42.71-.82,1.12-1.19h-9.07c-.36,0-.66.12-.91.37-.24.25-.37.55-.37.91s.12.66.37.91c.24.24.55.36.91.36Zm0,8.36h5.58c-.08-.42-.14-.84-.18-1.27-.04-.43-.04-.85-.01-1.27h-5.39c-.36,0-.66.12-.91.37-.24.25-.37.55-.37.91s.12.66.37.91c.24.24.55.36.91.36Zm-5.69,7.85c-.87,0-1.61-.31-2.24-.93-.62-.62-.93-1.37-.93-2.24V3.17c0-.87.31-1.62.93-2.24s1.37-.93,2.24-.93h15.8c.44,0,.86.09,1.24.26.39.17.73.4,1.02.68l8.24,8.24c.28.29.51.63.68,1.02s.26.8.26,1.24v5.62c-.4-.17-.81-.31-1.24-.42-.43-.11-.86-.2-1.31-.27v-5.04h-7.28c-.44,0-.81-.15-1.12-.46-.31-.31-.46-.68-.46-1.12V2.55H4.19c-.16,0-.3.07-.43.2-.13.13-.2.27-.2.43v32.19c0,.16.07.3.2.43.13.13.27.2.43.2h13.79c.47.55.99,1.04,1.55,1.46.57.42,1.18.79,1.84,1.09,0,0-17.19,0-17.19,0Zm23.2-4.51c1.59,0,2.92-.54,4-1.63,1.08-1.08,1.62-2.42,1.62-4.01,0-1.59-.54-2.92-1.63-4-1.08-1.08-2.42-1.62-4.01-1.62s-2.92.54-4,1.63c-1.08,1.08-1.62,2.42-1.62,4.01s.54,2.92,1.63,4c1.08,1.08,2.42,1.62,4.01,1.62Zm11.24,5.61c-.24.24-.54.37-.9.37s-.65-.12-.9-.37l-4.64-4.66c-.68.5-1.43.89-2.24,1.17-.81.28-1.67.42-2.57.42-2.27,0-4.2-.8-5.79-2.39-1.59-1.59-2.39-3.52-2.39-5.8s.8-4.2,2.39-5.79c1.59-1.59,3.52-2.38,5.8-2.38s4.2.8,5.79,2.39c1.59,1.59,2.38,3.52,2.38,5.79,0,.9-.14,1.75-.42,2.57-.28.81-.67,1.56-1.17,2.24l4.66,4.64c.24.24.37.54.37.9,0,.35-.12.65-.37.9Z"/>
</svg>