<?xml version="1.0" encoding="UTF-8"?>
<svg id="Capa_1" data-name="Capa 1" xmlns="http://www.w3.org/2000/svg" viewBox="0 0 40 40">
  <defs>
    <style>
      .cls-1 {
        fill: none;
      }
    </style>
  </defs>
  <rect class="cls-1" width="40" height="40"/>
  <path d="m13.61,32.23h8.8c.43,0,.8-.16,1.11-.47s.47-.68.47-1.11v-2.97l2.84,1.56c.28.15.55.15.81-.01.26-.16.4-.4.4-.71v-4.39c0-.31-.13-.54-.39-.71-.26-.16-.53-.17-.82-.02l-2.84,1.56v-2.98c0-.42-.16-.79-.47-1.1-.31-.31-.68-.47-1.11-.47h-8.8c-.43,0-.8.16-1.11.47-.31.31-.47.68-.47,1.1v8.68c0,.43.16.8.47,1.11.31.31.68.47,1.11.47Zm-6.1,7.77c-.9,0-1.68-.32-2.33-.97-.65-.65-.97-1.42-.97-2.33V3.29c0-.9.32-1.68.97-2.33.65-.65,1.42-.97,2.33-.97h16.41c.45,0,.88.09,1.29.27.41.18.76.41,1.06.71l8.56,8.56c.29.3.53.66.71,1.06.18.41.27.84.27,1.29v24.83c0,.9-.32,1.68-.97,2.33s-1.42.97-2.33.97c0,0-24.99,0-24.99,0ZM23.95,10.12V2.65H7.5c-.16,0-.31.07-.45.2-.13.13-.2.28-.2.45v33.41c0,.16.07.31.2.45.13.13.28.2.45.2h24.99c.16,0,.31-.07.45-.2.13-.13.2-.28.2-.45V11.76h-7.55c-.46,0-.85-.16-1.17-.48-.32-.32-.48-.71-.48-1.17ZM6.86,2.65v9.12V2.65v34.71V2.65Z"/>
</svg>