<?xml version="1.0" encoding="UTF-8"?>
<svg id="Capa_1" data-name="Capa 1" xmlns="http://www.w3.org/2000/svg" viewBox="0 0 40 40">
  <defs>
    <style>
      .cls-1 {
        fill: none;
      }
    </style>
  </defs>
  <rect class="cls-1" width="40" height="40"/>
  <g>
    <path d="m35.52,10.58c-.18-.4-.42-.76-.71-1.06L26.26.97c-.3-.29-.66-.53-1.06-.71s-.83-.27-1.29-.27H7.51c-.91,0-1.68.33-2.32.97-.64.64-.97,1.41-.97,2.32v33.41c0,.91.33,1.68.97,2.32.64.64,1.41.97,2.32.97h-.01s25-.01,25-.01c.91,0,1.68-.33,2.32-.97s.97-1.41.97-2.32V11.87c0-.45-.09-.88-.27-1.29Zm-2.37,26.12c0,.16-.06.3-.2.44-.13.14-.28.2-.44.2H7.51c-.16,0-.3-.06-.44-.2-.14-.13-.2-.28-.2-.44V3.3c0-.16.06-.3.2-.44.13-.14.28-.2.44-.2h16.44v7.46h-.01c0,.47.16.86.48,1.17.33.32.71.48,1.17.48h7.55v24.93Z"/>
    <polygon points="24.85 19.69 21.79 19.69 20.04 22.66 18.29 19.69 15.19 19.69 18.41 24.74 15.12 29.81 18.17 29.81 19.99 26.78 21.77 29.81 24.88 29.81 24.89 29.81 21.62 24.68 24.85 19.69"/>
  </g>
</svg>