<?xml version="1.0" encoding="UTF-8"?>
<svg id="Capa_1" data-name="Capa 1" xmlns="http://www.w3.org/2000/svg" viewBox="0 0 40 40">
  <defs>
    <style>
      .cls-1 {
        fill: none;
      }
    </style>
  </defs>
  <rect class="cls-1" width="40" height="40"/>
  <path d="m13.41,31.85h13.19c.37,0,.69-.13.94-.38.25-.25.38-.57.38-.95s-.13-.69-.38-.94c-.25-.25-.57-.38-.94-.38h-13.19c-.37,0-.69.13-.94.38-.25.25-.38.57-.38.95s.13.69.38.94c.25.25.57.38.94.38Zm0-8.68h13.19c.37,0,.69-.13.94-.38.25-.25.38-.57.38-.95s-.13-.69-.38-.94c-.25-.25-.57-.38-.94-.38h-13.19c-.37,0-.69.13-.94.38-.25.25-.38.57-.38.95s.13.69.38.94c.25.25.57.38.94.38Zm-5.9,16.83c-.9,0-1.68-.32-2.33-.97-.65-.65-.97-1.42-.97-2.33V3.29c0-.9.32-1.68.97-2.33.65-.65,1.42-.97,2.33-.97h16.41c.46,0,.89.09,1.29.27.4.18.76.41,1.06.71l8.56,8.56c.29.3.53.66.71,1.06s.27.83.27,1.29v24.83c0,.9-.32,1.68-.97,2.33s-1.42.97-2.33.97c0,0-24.99,0-24.99,0ZM23.95,10.12V2.65H7.5c-.16,0-.31.07-.45.2-.13.13-.2.28-.2.45v33.41c0,.16.07.31.2.45.13.13.28.2.45.2h24.99c.16,0,.31-.07.45-.2.13-.13.2-.28.2-.45V11.76h-7.56c-.46,0-.84-.16-1.16-.48-.32-.32-.48-.71-.48-1.16ZM6.86,2.65v9.12V2.65v34.71V2.65Z"/>
</svg>