<?xml version="1.0" encoding="UTF-8"?>
<svg id="Capa_1" data-name="Capa 1" xmlns="http://www.w3.org/2000/svg" viewBox="0 0 40 40">
  <defs>
    <style>
      .cls-1 {
        fill: none;
      }
    </style>
  </defs>
  <rect class="cls-1" width="40" height="40"/>
  <path d="m18.68,30v1.32c0,.21.08.39.24.55.16.16.34.24.55.24h1.04c.22,0,.41-.08.58-.25.16-.17.25-.36.25-.58v-1.28h3.14c.38,0,.69-.13.94-.38.25-.25.38-.57.38-.94v-6.57c0-.38-.13-.69-.38-.94-.25-.25-.57-.38-.94-.38h-7.61v-3.93h7.61c.38,0,.69-.13.94-.38.25-.25.38-.57.38-.95s-.13-.69-.38-.94c-.25-.25-.57-.38-.94-.38h-3.14v-1.33c0-.2-.08-.38-.24-.54-.16-.16-.34-.23-.54-.23h-1.03c-.22,0-.42.08-.58.24-.17.16-.25.35-.25.57v1.29h-3.14c-.38,0-.69.13-.94.38-.25.25-.38.57-.38.94v6.57c0,.38.13.69.38.94.25.25.57.38.94.38h7.61v3.93h-7.61c-.38,0-.69.13-.94.38-.25.25-.38.57-.38.95s.13.69.38.94c.25.25.57.38.94.38,0,0,3.14,0,3.14,0Zm-11.17,10c-.9,0-1.68-.32-2.33-.97s-.97-1.42-.97-2.33V3.29c0-.9.32-1.68.97-2.33s1.42-.97,2.33-.97h14.92c.45,0,.88.09,1.29.27.41.18.76.41,1.06.71l10.04,10.04c.29.3.53.66.71,1.06.18.41.27.84.27,1.29v23.34c0,.9-.32,1.68-.97,2.33s-1.42.97-2.33.97c0,0-24.99,0-24.99,0Zm0-2.65h24.99c.16,0,.31-.07.45-.2.13-.13.2-.28.2-.45V13.17L22.62,2.65H7.5c-.16,0-.31.07-.45.2-.13.13-.2.28-.2.45v33.41c0,.16.07.31.2.45.13.13.28.2.45.2Zm-.65,0V2.65s0,34.71,0,34.71Z"/>
</svg>