<?xml version="1.0" encoding="UTF-8"?>
<svg id="Capa_1" data-name="Capa 1" xmlns="http://www.w3.org/2000/svg" viewBox="0 0 40 40">
  <defs>
    <style>
      .cls-1 {
        fill: none;
      }
    </style>
  </defs>
  <rect class="cls-1" width="40" height="40"/>
  <path d="m4.34,39.84c-.91,0-1.67-.33-2.31-.97-.64-.64-.97-1.41-.97-2.31V3.28c0-.91.33-1.67.97-2.31s1.41-.97,2.31-.97h15.79c.45,0,.88.09,1.28.26.42.18.77.42,1.07.7l9.06,9.06c.29.3.53.65.7,1.07s.26.84.26,1.28v11.71c0,.38-.13.69-.38.94-.25.25-.57.38-.94.38s-.69-.13-.93-.38c-.25-.25-.38-.57-.38-.94v-11.51h-8.3c-.47,0-.86-.15-1.17-.47s-.47-.7-.47-1.17V2.64H4.34c-.16,0-.31.06-.44.2-.14.14-.2.28-.2.44v33.27c0,.16.06.31.2.44.14.14.28.2.44.2h18.7c.38,0,.69.13.94.38s.38.57.38.94-.13.69-.38.93c-.25.25-.57.38-.94.38H4.34Zm31.97-4.35v-5.03c0-.38.13-.69.38-.94s.57-.38.94-.38.69.13.93.38c.25.25.38.57.38.94v7.91c0,.47-.15.86-.47,1.17s-.7.47-1.17.47h-7.91c-.38,0-.69-.13-.94-.38s-.38-.57-.38-.94.13-.69.38-.93c.25-.25.57-.38.94-.38h5.08l-6.06-6.06c-.25-.25-.38-.55-.38-.92s.13-.67.36-.93c.26-.26.59-.4.96-.39.36,0,.68.14.94.4l6,6h.01Zm-32.62,1.71V2.64v34.57h0Z"/>
</svg>