<?xml version="1.0" encoding="UTF-8"?>
<svg id="Capa_1" data-name="Capa 1" xmlns="http://www.w3.org/2000/svg" viewBox="0 0 40 40">
  <defs>
    <style>
      .cls-1 {
        fill: none;
      }
    </style>
  </defs>
  <rect class="cls-1" width="40" height="40"/>
  <g>
    <path d="m35.52,10.58c-.18-.4-.42-.76-.71-1.06L26.26.97c-.3-.29-.66-.53-1.06-.71s-.83-.27-1.29-.27H7.51c-.91,0-1.68.33-2.32.97s-.97,1.41-.97,2.32v33.41c0,.91.33,1.68.97,2.32s1.41.97,2.32.97h-.01s25-.01,25-.01c.91,0,1.68-.33,2.32-.97s.97-1.41.97-2.32V11.87c0-.45-.09-.88-.27-1.29Zm-2.37,26.12c0,.16-.06.3-.2.44-.13.14-.28.2-.44.2h-12.82v-3.74h-4.52v3.74h-7.65c-.16,0-.3-.06-.44-.2-.14-.13-.2-.28-.2-.44V3.3c0-.16.06-.3.2-.44.13-.14.28-.2.44-.2h3.13v3.88h4.52v-3.88h8.79v7.46h-.01c0,.47.16.86.48,1.17.33.32.71.48,1.17.48h7.55v24.93Z"/>
    <rect x="10.64" y="29.09" width="4.52" height="4.52"/>
    <rect x="15.16" y="24.58" width="4.52" height="4.51"/>
    <rect x="15.16" y="6.53" width="4.52" height="4.51"/>
    <rect x="15.16" y="15.55" width="4.52" height="4.52"/>
    <rect x="10.64" y="11.04" width="4.52" height="4.51"/>
    <rect x="10.64" y="20.07" width="4.52" height="4.51"/>
  </g>
</svg>