<?xml version="1.0" encoding="UTF-8"?>
<svg id="Capa_1" data-name="Capa 1" xmlns="http://www.w3.org/2000/svg" viewBox="0 0 40 40">
  <defs>
    <style>
      .cls-1 {
        fill: none;
      }
    </style>
  </defs>
  <rect class="cls-1" width="40" height="40"/>
  <path d="m20.01,33.39c1.99,0,3.67-.72,5.04-2.15,1.37-1.43,2.05-3.14,2.05-5.13v-7.45c0-.31-.1-.57-.3-.77-.2-.2-.45-.3-.77-.3s-.57.1-.77.3c-.2.2-.3.46-.3.77v7.45c0,1.41-.47,2.62-1.42,3.63-.95,1.01-2.13,1.51-3.54,1.51s-2.57-.5-3.53-1.51c-.96-1.01-1.44-2.22-1.44-3.63v-11.54c0-.59.18-1.08.55-1.48.37-.39.84-.59,1.4-.59s1.05.2,1.41.59c.36.39.54.89.54,1.48v9.96c0,.31.1.57.3.77s.45.3.77.3c.31,0,.57-.1.77-.3.2-.2.3-.46.3-.77v-9.96c0-1.15-.39-2.14-1.18-2.97s-1.75-1.24-2.9-1.24-2.12.41-2.91,1.24c-.79.82-1.18,1.81-1.18,2.97v11.54c0,1.99.69,3.7,2.07,5.13,1.38,1.43,3.06,2.15,5.04,2.15Zm-12.51,6.61c-.9,0-1.68-.32-2.33-.97-.65-.65-.97-1.42-.97-2.33V3.29c0-.9.32-1.68.97-2.33.65-.65,1.42-.97,2.33-.97h18.04l10.25,10.25v26.46c0,.9-.32,1.68-.97,2.33s-1.42.97-2.33.97c0,0-24.99,0-24.99,0Zm0-2.65h24.99c.16,0,.31-.07.45-.2.13-.13.2-.28.2-.45V11.49h-7.2c-.46,0-.85-.16-1.17-.48-.32-.32-.48-.71-.48-1.17V2.65H7.5c-.16,0-.31.07-.45.2-.13.13-.2.28-.2.45v33.41c0,.16.07.31.2.45.13.13.28.2.45.2ZM6.86,2.65v8.85V2.65v34.71S6.86,2.65,6.86,2.65Z"/>
</svg>