<?xml version="1.0" encoding="UTF-8"?>
<svg id="Capa_1" data-name="Capa 1" xmlns="http://www.w3.org/2000/svg" viewBox="0 0 40 40">
  <defs>
    <style>
      .cls-1 {
        fill: none;
      }
    </style>
  </defs>
  <rect class="cls-1" width="40" height="40"/>
  <path d="m26.67,25.64c.27.28.39.58.39.93s-.14.66-.4.93l-5.49,5.41c-.18.18-.35.29-.54.37-.19.08-.39.11-.61.11s-.42-.04-.61-.11-.37-.2-.54-.37l-5.46-5.47c-.27-.27-.39-.57-.39-.92s.13-.67.39-.96c.28-.25.58-.38.93-.38s.66.13.92.39l3.47,3.47h0s0-8.87,0-8.87c0-.38.13-.69.38-.95.25-.25.57-.38.95-.38s.69.13.93.38c.25.25.38.57.38.95v8.88l3.42-3.44s.95-.78,1.87.01Zm-19.16,14.36c-.91,0-1.68-.33-2.32-.97-.64-.64-.97-1.41-.97-2.32V3.3c0-.91.33-1.68.97-2.32.64-.64,1.41-.97,2.32-.97h16.41c.45,0,.88.09,1.29.27s.76.42,1.06.71l8.55,8.55c.29.3.53.66.71,1.06.18.4.27.83.27,1.29v24.82c0,.91-.33,1.68-.97,2.32s-1.41.97-2.32.97H7.5h.01ZM23.95,10.12V2.65H7.51c-.16,0-.32.06-.44.2-.14.14-.2.28-.2.44v33.41c0,.16.06.32.2.44.14.14.28.2.44.2h25c.16,0,.32-.06.44-.2.14-.14.2-.28.2-.44V11.77h-7.55c-.47,0-.85-.16-1.17-.48-.32-.32-.48-.71-.48-1.17h.01ZM6.86,2.65v9.12V2.65v34.71S6.86,2.65,6.86,2.65Z"/>
</svg>