<?xml version="1.0" encoding="UTF-8"?>
<svg id="Capa_1" data-name="Capa 1" xmlns="http://www.w3.org/2000/svg" viewBox="0 0 40 40">
  <defs>
    <style>
      .cls-1 {
        fill: none;
      }
    </style>
  </defs>
  <rect class="cls-1" width="40" height="40"/>
  <g>
    <path d="m35.52,10.58c-.18-.4-.42-.76-.71-1.06L26.26.97c-.3-.29-.66-.53-1.06-.71-.4-.18-.83-.27-1.29-.27H7.51c-.91,0-1.68.33-2.32.97s-.97,1.41-.97,2.32v33.41c0,.91.33,1.68.97,2.32s1.41.97,2.32.97h-.01s25-.01,25-.01c.91,0,1.68-.33,2.32-.97s.97-1.41.97-2.32V11.87c0-.45-.09-.88-.27-1.29Zm-2.37,26.12c0,.16-.06.3-.2.44-.13.14-.28.2-.44.2H7.51c-.16,0-.3-.06-.44-.2-.14-.13-.2-.28-.2-.44V3.3c0-.16.06-.3.2-.44.13-.14.28-.2.44-.2h16.44v7.46h-.01c0,.47.16.86.48,1.17.33.32.71.48,1.17.48h7.55v24.93Z"/>
    <path d="m14.68,21.08h-2.85c-.19,0-.37.08-.52.21-.15.14-.23.32-.23.53v7.15c0,.21.08.39.23.53.15.14.33.21.53.21.21,0,.38-.08.52-.23.14-.15.2-.33.2-.53v-2.8h2.12c.42,0,.77-.14,1.05-.43.28-.28.43-.63.43-1.05v-2.12c0-.42-.14-.77-.43-1.05-.28-.28-.63-.43-1.05-.43Zm0,3.6h-2.12v-2.12h2.12v2.12Z"/>
    <path d="m21.53,21.08h-2.75c-.19,0-.37.08-.52.21-.15.14-.23.32-.23.53v7.12c0,.21.08.39.23.54.15.15.33.23.53.23h2.75-.01c.42-.01.76-.15,1.05-.44.29-.29.43-.63.43-1.05v-5.67c0-.42-.14-.77-.43-1.05-.29-.28-.63-.43-1.05-.43Zm0,7.15h-2.02v-5.67h2.02v5.67Z"/>
    <path d="m25.14,21.83v7.15c0,.21.08.39.23.53.15.14.33.21.53.21.21,0,.38-.08.52-.23.14-.15.2-.33.2-.53v-2.8h1.58c.21,0,.38-.08.52-.23s.2-.33.2-.53-.06-.38-.2-.52-.32-.2-.52-.2h-1.57v-2.12h1.57c.21,0,.38-.08.52-.23s.2-.33.2-.52c0-.2-.06-.38-.2-.52-.14-.14-.32-.21-.52-.21h-2.3c-.2,0-.38.08-.53.21-.15.14-.23.32-.23.53Z"/>
  </g>
</svg>