<?xml version="1.0" encoding="UTF-8"?>
<svg id="Capa_1" data-name="Capa 1" xmlns="http://www.w3.org/2000/svg" viewBox="0 0 40 40">
  <defs>
    <style>
      .cls-1 {
        fill: none;
      }
    </style>
  </defs>
  <rect class="cls-1" width="40" height="40"/>
  <path d="m35.79,25.53s-.01-.05-.01-.07v-13.58c0-.45-.09-.88-.27-1.29s-.42-.76-.71-1.06L26.26.97c-.3-.29-.66-.53-1.06-.71s-.83-.27-1.29-.27H7.5c-.91,0-1.68.33-2.32.97-.64.64-.97,1.41-.97,2.32v33.41c0,.91.33,1.68.97,2.32.64.64,1.41.97,2.32.97h-.01s25-.01,25-.01c.91,0,1.68-.33,2.32-.97s.97-1.41.97-2.32v-11.09s.01-.04.01-.07Zm-2.85,11.62c-.13.14-.28.2-.44.2H7.5c-.16,0-.3-.06-.44-.2-.14-.13-.2-.28-.2-.44V3.3c0-.16.06-.3.2-.44.13-.14.28-.2.44-.2h16.44v7.46h-.01c0,.47.16.86.48,1.17.33.32.71.48,1.17.48h7.55v12.92h-3.16l-2.98-7.15c-.1-.27-.27-.47-.51-.64-.24-.16-.49-.25-.8-.25s-.57.08-.8.25-.39.39-.49.64l-5.95,14.7-2.85-6.91c-.08-.19-.2-.35-.37-.47s-.35-.18-.57-.18h-5.43c-.24,0-.43.09-.59.24-.16.16-.24.35-.24.59s.08.43.24.59.35.24.59.24h4.98l2.96,7.16c.09.27.25.49.49.66s.51.25.8.25.57-.09.8-.25c.24-.18.4-.39.49-.66l5.95-14.7,2.88,6.9c.09.19.2.35.37.47.16.11.35.18.57.18h3.62v10.34c0,.16-.06.3-.2.44Z"/>
</svg>