<?xml version="1.0" encoding="UTF-8"?>
<svg id="Capa_1" data-name="Capa 1" xmlns="http://www.w3.org/2000/svg" viewBox="0 0 40 40">
  <defs>
    <style>
      .cls-1 {
        fill: none;
      }
    </style>
  </defs>
  <rect class="cls-1" width="40" height="40"/>
  <path d="m17.21,27.05c-.42,0-.74-.11-1.16-.21s-.74-.42-1.05-.63l-7.37-7.37c-.32-.32-.53-.63-.74-1.05s-.21-.74-.21-1.16.11-.84.21-1.26c.21-.42.42-.74.74-1.05l8-8L11.11,1.79c-.21-.21-.32-.42-.32-.74s.11-.53.32-.84c.32-.11.53-.21.84-.21s.53.11.74.32l14,14c.32.32.53.63.74,1.05.11.42.21.84.21,1.26s-.11.84-.21,1.16c-.11.42-.42.74-.74,1.05l-7.37,7.37c-.32.32-.63.53-1.05.63-.32.11-.74.21-1.05.21Zm0-19.16l-8.21,8.21q-.11.11-.11.21v.21h16.63v-.21c0-.11-.11-.11-.11-.21l-8.21-8.21Zm14.63,20.42c-.84,0-1.47-.32-2-.84s-.84-1.26-.84-2.11c0-.53.11-1.05.42-1.58.21-.53.53-1.05.95-1.58.21-.32.53-.74.74-1.05.32-.32.53-.74.84-1.05.32.32.53.74.84,1.05.32.32.53.74.74,1.05.32.53.63,1.05.95,1.58.21.53.42,1.05.42,1.58,0,.84-.32,1.47-.84,2.11-.74.53-1.47.84-2.21.84Zm-27.16,11.68c-.63,0-1.16-.21-1.58-.63-.42-.42-.63-.95-.63-1.58s.21-1.16.63-1.58c.42-.42.95-.63,1.58-.63h30.63c.63,0,1.16.21,1.58.63.42.42.63.95.63,1.58s-.21,1.16-.63,1.58c-.42.42-.95.63-1.58.63.11,0-30.63,0-30.63,0Z"/>
</svg>