<?xml version="1.0" encoding="UTF-8"?>
<svg id="Capa_1" data-name="Capa 1" xmlns="http://www.w3.org/2000/svg" viewBox="0 0 40 40">
  <defs>
    <style>
      .cls-1 {
        fill: none;
      }
    </style>
  </defs>
  <rect class="cls-1" width="40" height="40"/>
  <path d="m13.04,37.7L.95,25.61c-.31-.32-.55-.67-.71-1.06-.16-.39-.24-.79-.24-1.21s.08-.82.24-1.2c.16-.38.4-.74.71-1.06l12.41-12.4-5.05-4.98c-.27-.27-.41-.59-.41-.96,0-.37.13-.69.4-.97.28-.28.61-.42,1-.42s.71.14,1,.42l19.32,19.34c.33.32.58.68.73,1.06.15.38.23.78.23,1.2s-.08.81-.23,1.21c-.15.39-.4.75-.73,1.06l-12.05,12.06c-.32.31-.68.55-1.06.71-.38.16-.78.24-1.2.24s-.81-.08-1.21-.24c-.39-.16-.75-.4-1.06-.71Zm2.26-27.08L3.01,22.92c-.08.08-.13.16-.16.24-.03.08-.04.16-.04.24h25c0-.08-.01-.16-.04-.24s-.08-.16-.16-.24c0,0-12.3-12.3-12.3-12.3Zm20.79,28.03c-1.07,0-1.98-.38-2.72-1.14s-1.11-1.68-1.11-2.77c0-.84.17-1.65.51-2.41.34-.76.78-1.47,1.32-2.13l1.06-1.36c.25-.32.57-.47.96-.47.39,0,.71.16.97.46l1.09,1.37c.52.66.95,1.37,1.31,2.13.35.76.53,1.56.53,2.41,0,1.1-.38,2.02-1.15,2.77-.76.75-1.69,1.13-2.77,1.13Z"/>
</svg>