<?xml version="1.0" encoding="UTF-8"?>
<svg id="Capa_1" data-name="Capa 1" xmlns="http://www.w3.org/2000/svg" viewBox="0 0 40 40">
  <defs>
    <style>
      .cls-1 {
        fill: none;
      }
    </style>
  </defs>
  <rect class="cls-1" width="40" height="40"/>
  <rect id="Rectangle_1" data-name="Rectangle 1" class="cls-1" width="40" height="40"/>
  <path id="theaters_FILL0_wght300_GRAD0_opsz48" data-name="theaters FILL0 wght300 GRAD0 opsz48" d="m4.88,36.26v2.45c0,.35-.13.68-.38.92-.25.24-.58.37-.93.36-.35.01-.68-.13-.92-.37-.24-.25-.38-.58-.36-.93V1.3c0-.35.13-.68.38-.92C2.91.13,3.25,0,3.59,0c.35-.01.68.13.92.37.24.25.37.58.37.92v2.44h7.38V1.64c-.01-.44.16-.86.47-1.17C13.05.16,13.48-.01,13.91,0h12.17c.44-.01.86.16,1.17.47.31.31.48.73.47,1.17v2.09h7.38V1.29c0-.35.13-.68.38-.92.25-.24.58-.37.93-.36.35-.01.68.13.92.37.24.25.37.58.37.92v37.4c0,.35-.13.68-.38.92-.25.25-.58.38-.93.37-.35.01-.68-.13-.92-.37-.24-.25-.37-.58-.37-.92v-2.44h-7.38v2.1c.01.44-.16.86-.47,1.17-.31.31-.74.48-1.17.47h-12.17c-.44.01-.86-.16-1.17-.47-.31-.31-.48-.73-.47-1.17v-2.09h-7.39Zm0-2.59h7.38v-7.38h-7.38v7.38Zm0-9.98h7.38v-7.38h-7.38v7.38Zm0-9.98h7.38v-7.38h-7.38v7.38Zm22.86,19.96h7.38v-7.38h-7.38v7.38Zm0-9.98h7.38v-7.38h-7.38v7.38Zm0-9.98h7.38v-7.38h-7.38v7.38Zm-12.88,23.69h10.29V2.59h-10.29v34.81Zm0-34.81h0Z"/>
</svg>