<?xml version="1.0" encoding="UTF-8"?>
<svg id="Capa_1" data-name="Capa 1" xmlns="http://www.w3.org/2000/svg" viewBox="0 0 40 40">
  <defs>
    <style>
      .cls-1 {
        fill: none;
      }
    </style>
  </defs>
  <rect class="cls-1" width="40" height="40"/>
  <path d="m18.36,40c-.67,0-1.23-.23-1.68-.68-.45-.45-.68-1.01-.68-1.68v-15.44L.73,2.79c-.49-.57-.55-1.18-.2-1.82.35-.65.87-.97,1.57-.97h35.81c.69,0,1.22.32,1.57.97.35.65.28,1.26-.2,1.82l-15.27,19.41v15.44c0,.67-.23,1.23-.68,1.68-.45.45-1.01.68-1.68.68h-3.28Zm1.64-17.63L35.26,3.03H4.74l15.26,19.34Z"/>
</svg>