<?xml version="1.0" encoding="UTF-8"?>
<svg id="Capa_1" data-name="Capa 1" xmlns="http://www.w3.org/2000/svg" viewBox="0 0 40 40">
  <defs>
    <style>
      .cls-1 {
        fill: none;
      }
    </style>
  </defs>
  <rect class="cls-1" width="40" height="40"/>
  <path d="m2.07,14.76c-.11-.07-.17-.17-.18-.32,0-.14.03-.28.1-.4,2.08-2.86,4.69-5.07,7.84-6.65,3.15-1.58,6.51-2.36,10.09-2.36s6.97.77,10.15,2.3c3.18,1.54,5.82,3.74,7.94,6.61.1.17.14.31.11.42-.03.11-.1.22-.21.32-.1.09-.23.13-.39.12-.16,0-.3-.09-.42-.26-1.96-2.74-4.46-4.83-7.5-6.29-3.03-1.46-6.26-2.18-9.67-2.18s-6.59.74-9.58,2.22c-2.98,1.48-5.47,3.56-7.45,6.25-.15.18-.29.28-.42.3-.13.02-.26,0-.4-.09Zm23.77,25.19c-3.4-.87-6.21-2.59-8.42-5.16s-3.32-5.69-3.32-9.36c0-1.58.57-2.9,1.72-3.96,1.15-1.07,2.53-1.6,4.14-1.6s2.97.53,4.11,1.6c1.14,1.07,1.71,2.39,1.71,3.96,0,1.27.49,2.33,1.46,3.18s2.1,1.28,3.39,1.28,2.38-.43,3.32-1.29c.94-.86,1.4-1.92,1.4-3.18,0-4.09-1.52-7.52-4.55-10.29-3.03-2.77-6.66-4.16-10.88-4.16s-7.84,1.38-10.87,4.15c-3.03,2.77-4.54,6.2-4.54,10.3,0,.81.1,1.85.3,3.13.2,1.27.58,2.73,1.16,4.37.07.17.07.3,0,.39-.06.09-.15.18-.28.26-.15.07-.29.08-.44.04-.14-.04-.25-.14-.32-.31-.46-1.33-.82-2.64-1.07-3.93-.25-1.3-.38-2.61-.38-3.94,0-4.33,1.63-8.02,4.88-11.05,3.25-3.04,7.1-4.55,11.55-4.55s8.4,1.5,11.65,4.51c3.25,3,4.87,6.7,4.87,11.1,0,1.54-.57,2.85-1.7,3.92-1.14,1.07-2.51,1.61-4.11,1.61s-3.01-.54-4.17-1.61c-1.17-1.07-1.75-2.38-1.75-3.92,0-1.28-.47-2.35-1.4-3.22-.94-.86-2.05-1.3-3.35-1.3-1.31,0-2.43.43-3.39,1.29-.95.86-1.43,1.94-1.43,3.22,0,3.46,1.04,6.34,3.13,8.65,2.09,2.31,4.69,3.93,7.82,4.85.2.07.32.15.38.26s.07.23.04.37c-.05.17-.12.29-.23.37-.11.08-.25.09-.43.02ZM8.22,4.01c-.13.04-.24.04-.35,0-.1-.04-.18-.12-.24-.22-.05-.08-.08-.19-.08-.33s.05-.24.15-.31c1.88-1.04,3.87-1.82,5.95-2.35C15.74.26,17.84,0,19.95,0c2.15,0,4.26.26,6.32.78,2.07.52,4.05,1.28,5.94,2.26.18.08.29.19.32.33.03.14.01.27-.06.38-.07.1-.16.18-.29.25-.12.07-.26.07-.42,0-1.82-.96-3.73-1.68-5.72-2.18-2-.5-4.03-.75-6.1-.75s-4.07.25-6.03.75c-1.96.5-3.86,1.23-5.68,2.19Zm6.72,35.39c-1.92-2.01-3.42-4.12-4.5-6.32-1.08-2.21-1.62-4.75-1.62-7.64s1.09-5.47,3.27-7.51c2.18-2.04,4.8-3.06,7.86-3.06s5.69,1.02,7.89,3.06c2.2,2.04,3.3,4.54,3.3,7.51,0,.17-.04.3-.13.39s-.22.13-.39.13c-.14,0-.27-.04-.38-.13-.11-.09-.17-.22-.17-.39,0-2.69-1-4.95-2.99-6.78-2-1.83-4.37-2.75-7.13-2.75s-5.12.92-7.1,2.75c-1.97,1.83-2.96,4.09-2.96,6.78,0,2.84.49,5.25,1.48,7.23.99,1.99,2.44,3.98,4.34,5.99.15.15.21.29.18.42-.03.13-.09.24-.18.33-.08.08-.2.14-.35.18-.15.04-.29-.02-.43-.18Zm15.25-3.65c-2.92,0-5.46-.98-7.61-2.93-2.15-1.96-3.22-4.42-3.22-7.38,0-.16.04-.3.13-.4.09-.1.22-.15.39-.15.17,0,.3.05.39.15.09.1.14.24.14.4,0,2.7.98,4.92,2.94,6.66,1.96,1.74,4.24,2.61,6.84,2.61.31,0,.65-.02,1.02-.05.38-.03.77-.08,1.18-.15.14-.02.26,0,.36.08.1.07.17.17.2.3.05.14.03.26-.03.36s-.19.17-.36.2c-.49.14-.95.23-1.39.26-.44.03-.77.04-.98.04Z"/>
</svg>