<?xml version="1.0" encoding="UTF-8"?>
<svg id="Capa_1" data-name="Capa 1" xmlns="http://www.w3.org/2000/svg" viewBox="0 0 40 40">
  <defs>
    <style>
      .cls-1 {
        fill: none;
      }
    </style>
  </defs>
  <rect class="cls-1" width="40" height="40"/>
  <path d="m19.94,40c-4.92,0-9.03-1.76-12.43-5.16-3.4-3.4-5.16-7.5-5.16-12.43,0-4.1,1.17-7.97,3.63-11.96S11.73,3.18,15.95.37c.59-.47,1.29-.47,1.88-.12s.94,1.06.94,1.76v2.81c0,1.41.59,2.7,1.76,3.75,1.17,1.06,2.58,1.64,4.1,1.64.7,0,1.41-.12,2.11-.35.7-.23,1.29-.7,1.76-1.17.35-.23.7-.47,1.06-.59.35-.12.7,0,1.06.23,2.23,1.64,3.87,3.75,5.16,6.21,1.29,2.46,1.88,5.16,1.88,7.97,0,4.92-1.76,9.03-5.16,12.43-3.52,3.28-7.62,5.04-12.55,5.04ZM5.05,22.41c0,2.7.7,5.16,1.99,7.39,1.29,2.35,3.17,4.1,5.51,5.39-.23-.59-.47-1.06-.59-1.64s-.23-1.17-.23-1.64c0-1.06.23-2.11.59-3.05s1.06-1.88,1.76-2.58l5.75-5.75,5.86,5.75c.82.82,1.41,1.64,1.76,2.58s.59,1.99.59,3.05c0,.59-.12,1.17-.23,1.64-.12.59-.35,1.17-.59,1.64,2.35-1.29,4.1-3.17,5.51-5.39,1.29-2.35,1.99-4.81,1.99-7.39,0-2.11-.47-4.1-1.29-5.98-.82-1.88-2.11-3.75-3.63-5.28-.82.59-1.64,1.06-2.58,1.29-.94.35-1.76.47-2.7.47-2.35,0-4.46-.82-5.98-2.46-1.64-1.64-2.46-3.63-2.58-6.1v-.82c-3.52,2.58-6.21,5.51-8.21,8.91-1.76,3.4-2.7,6.68-2.7,9.97Zm14.89,1.88l-3.99,3.87c-.47.47-.94,1.06-1.17,1.76-.23.59-.47,1.29-.47,1.99,0,1.52.59,2.81,1.64,3.87,1.06,1.06,2.35,1.52,3.99,1.52s2.81-.47,3.99-1.52c1.06-1.06,1.64-2.35,1.64-3.87,0-.7-.12-1.41-.47-2.11-.23-.59-.7-1.17-1.17-1.76l-3.99-3.75Z"/>
</svg>