<?xml version="1.0" encoding="UTF-8"?>
<svg id="Capa_1" data-name="Capa 1" xmlns="http://www.w3.org/2000/svg" viewBox="0 0 40 40">
  <defs>
    <style>
      .cls-1 {
        fill: none;
      }
    </style>
  </defs>
  <rect class="cls-1" width="40" height="40"/>
  <path d="m39.96,18.83c0-.13-.02-.25-.02-.38h0s-.03-.39-.03-.39h0c-.1-1.13-.3-2.24-.59-3.33t0-.02l-.09-.32s0-.04-.02-.05c-.03-.1-.06-.2-.09-.3,0-.02,0-.05-.02-.07-.03-.1-.06-.19-.09-.28,0-.03-.02-.05-.03-.08-.03-.1-.06-.18-.1-.28l-.03-.09c-.03-.09-.07-.18-.1-.27,0-.03-.02-.05-.03-.08-.04-.09-.07-.18-.11-.27,0-.02-.02-.05-.03-.07-.04-.1-.08-.18-.12-.28,0,0,0-.02,0-.03-.13-.31-.26-.62-.4-.92l-.03-.06c-.04-.08-.07-.15-.11-.21-.02-.04-.04-.09-.06-.13-.03-.07-.07-.13-.1-.19-.03-.05-.05-.1-.08-.15s-.07-.12-.1-.18c-.03-.05-.06-.11-.09-.15s-.07-.12-.1-.17c-.03-.06-.06-.11-.1-.16-.03-.06-.07-.11-.1-.16s-.07-.11-.1-.16-.07-.11-.1-.15-.07-.12-.11-.17c-.03-.05-.06-.1-.1-.15l-.12-.17c-.03-.05-.06-.1-.1-.15-.04-.06-.09-.13-.13-.18-.03-.04-.06-.09-.09-.13l-.15-.2s-.05-.07-.08-.11c-.08-.11-.15-.2-.22-.3-.58-.76-1.21-1.48-1.9-2.15-.46-.48-.95-.93-1.48-1.35-.32-.28-.66-.54-1.01-.79-.62-.46-1.29-.87-1.98-1.22-.19-.11-.39-.2-.58-.3-1.42-.7-2.92-1.23-4.47-1.58-.15-.03-.31-.07-.45-.1h0c-.08,0-.15-.03-.22-.04-1.01-.19-2.04-.3-3.06-.32h-.86c-1.23.01-2.46.15-3.67.4-2.71.57-5.1,1.71-6.69,3.15-.09.08-.15.14-.19.17l-.04.04h.01,0s0,0,0,0c0,0,0,0,0,0h0s.01,0,.02,0c1.18-.71,2.82-1.29,3.99-1.58l.47-.12s.07,0,.1-.02c.14-.03.27-.06.42-.09.02,0,.05,0,.07,0,5.18-.94,10.69.61,14.54,4.27.83.79,1.56,1.68,2.17,2.64,2.45,3.97,2.22,8.96.31,11.9-2.78,4.27-8.98,5.75-12.82,2-1.29-1.25-2.03-2.96-2.06-4.76-.01-.86.16-1.71.5-2.5.14-.31,1.05-2.07,1.47-1.98-1.05-.22-3.03.21-4.41,2.27-1.24,1.85-1.17,4.69-.4,6.72-.49-1-.82-2.07-.98-3.16-.99-6.66,3.49-12.34,7.61-13.75-2.22-1.94-7.78-1.8-11.91,1.24-2.41,1.77-4.13,4.29-5.04,7.29.14-1.68.77-4.2,2.08-6.77-1.38.72-3.15,2.98-4.02,5.07C.18,15.49-.25,19.1.14,22.54c.03.26.06.51.09.77,1.61,9.45,9.84,16.65,19.74,16.65,11.06,0,20.03-8.97,20.03-20.04,0-.36-.02-.73-.04-1.09Z"/>
</svg>