<?xml version="1.0" encoding="UTF-8"?>
<svg id="Capa_1" data-name="Capa 1" xmlns="http://www.w3.org/2000/svg" viewBox="0 0 40 40">
  <defs>
    <style>
      .cls-1 {
        fill: none;
      }
    </style>
  </defs>
  <rect class="cls-1" width="40" height="40"/>
  <path d="m15.79,40c-1.16,0-2.11-.42-2.95-1.26s-1.26-1.79-1.26-2.95v-2.11h21.05v2.11c0,1.16-.42,2.11-1.26,2.95s-1.79,1.26-2.95,1.26h-12.63Zm-4.21-7.89v-11.58h21.05v11.58H11.58Zm.21-13.16c.32-1.58,1.05-3.16,2.21-4.53,1.16-1.37,2.53-2.42,4.21-3.16l-.95-.95c-.32-.32-.53-.74-.74-1.05l-9.16-2.21v-1.58l9.26-2.11c.53-1.05,1.26-1.79,2.21-2.42.95-.63,2-.95,3.26-.95.74,0,1.47.11,2.11.32.63.21,1.26.63,1.79.95l6.63-1.26v12.63l-6.63-1.37h-.11c1.68.63,3.05,1.68,4.21,3.05s1.89,2.95,2.32,4.63H11.79Zm10.32-9.47c.95,0,1.68-.32,2.21-.95.63-.63.95-1.37.95-2.21,0-.95-.32-1.68-.95-2.21-.63-.63-1.37-.95-2.21-.95s-1.58.32-2.21.95c-.63.53-.95,1.26-.95,2.21s.32,1.68.95,2.21c.53.63,1.26.95,2.21.95Z"/>
</svg>