<?xml version="1.0" encoding="UTF-8"?>
<svg id="Capa_1" data-name="Capa 1" xmlns="http://www.w3.org/2000/svg" viewBox="0 0 40 40">
  <defs>
    <style>
      .cls-1 {
        fill: none;
      }
    </style>
  </defs>
  <rect class="cls-1" width="40" height="40"/>
  <path d="m10.04,9.81s0,0,0,0h0Zm27.92,3.6c-.84-2.03-2.55-4.21-3.89-4.9,1.09,2.14,1.72,4.28,1.96,5.88,0,0,0,.01,0,.03-2.19-5.46-5.91-7.66-8.94-12.46-.15-.24-.31-.49-.46-.74-.08-.13-.15-.27-.21-.4-.13-.24-.22-.5-.29-.76,0-.03-.02-.05-.04-.05-.01,0-.02,0-.04,0h0s-.01.01-.01.01h0c-4.31,2.51-6.1,6.93-6.55,9.74-1.33.08-2.64.41-3.84.98-.23.11-.33.38-.25.62.09.25.36.39.62.3l.04-.02c1.05-.5,2.19-.79,3.35-.87h.11c.16-.02.32-.02.48-.03.94,0,1.88.12,2.78.38.05.02.1.03.16.05.15.05.3.1.45.15.11.04.22.08.32.13.09.03.17.07.26.11.13.06.27.12.4.19.06.03.12.06.18.09.13.07.25.14.38.21.08.05.16.09.24.14,1.4.87,2.57,2.07,3.39,3.51-1.03-.73-2.89-1.45-4.67-1.13,6.97,3.48,5.1,15.49-4.56,15.03-.86-.04-1.71-.2-2.52-.49-.19-.07-.38-.15-.57-.23-.11-.05-.22-.1-.33-.16-2.37-1.22-4.33-3.53-4.57-6.34,0,0,.89-3.33,6.41-3.33.6,0,2.3-1.66,2.33-2.15,0-.16-3.38-1.5-4.69-2.8-.7-.69-1.04-1.03-1.33-1.28-.16-.14-.33-.26-.5-.38-.44-1.55-.46-3.18-.05-4.74-1.99.91-3.54,2.34-4.66,3.6h0c-.77-.97-.72-4.18-.67-4.85,0-.04-.57.29-.65.34-.68.48-1.31,1.03-1.89,1.62-.66.67-1.27,1.4-1.81,2.17h0c-1.25,1.77-2.13,3.76-2.6,5.87,0,.02-.19.81-.32,1.79-.02.15-.04.3-.06.46-.05.29-.08.61-.11,1.11,0,.02,0,.04,0,.06-.01.22-.03.43-.04.65v.1c0,10.7,8.68,19.38,19.38,19.38,9.59,0,17.54-6.96,19.1-16.1.03-.25.06-.5.09-.75.39-3.32-.04-6.82-1.26-9.74h0Z"/>
</svg>