<?xml version="1.0" encoding="UTF-8"?>
<svg id="Capa_1" data-name="Capa 1" xmlns="http://www.w3.org/2000/svg" viewBox="0 0 40 40">
  <defs>
    <style>
      .cls-1 {
        fill: none;
      }
    </style>
  </defs>
  <rect class="cls-1" width="40" height="40"/>
  <path d="m18.81,24.88v5.12c0,.34.12.62.35.85.23.23.52.34.86.34s.62-.11.85-.34c.22-.23.34-.51.34-.85v-5.12h5.12c.34,0,.62-.12.85-.35.23-.23.34-.52.34-.86s-.11-.62-.34-.85c-.23-.22-.51-.34-.85-.34h-5.12v-5.12c0-.34-.12-.62-.35-.85-.23-.23-.52-.34-.86-.34s-.62.11-.85.34c-.22.23-.34.51-.34.85v5.12h-5.12c-.34,0-.62.12-.85.35-.23.23-.34.52-.34.86s.11.62.34.85c.23.22.51.34.85.34h5.12Zm-15.77,14.6c-.83,0-1.54-.3-2.14-.9-.6-.6-.9-1.31-.9-2.14V10.43c0-.83.3-1.54.9-2.14.6-.6,1.31-.9,2.14-.9h9.98v-3.83c0-.81.3-1.51.9-2.12.6-.61,1.31-.91,2.14-.91h7.89c.83,0,1.54.3,2.14.91.6.61.9,1.32.9,2.12v3.83h9.98c.83,0,1.54.3,2.14.9.6.6.9,1.31.9,2.14v26.01c0,.83-.3,1.54-.9,2.14-.6.6-1.31.9-2.14.9,0,0-33.93,0-33.93,0ZM15.4,7.39h9.19v-3.83c0-.19-.06-.34-.18-.47-.12-.12-.28-.18-.47-.18h-7.89c-.19,0-.34.06-.47.18-.12.12-.18.28-.18.47v3.83ZM3.04,37.08h33.93c.19,0,.34-.06.47-.18.12-.12.18-.28.18-.47V10.43c0-.18-.06-.33-.18-.46-.12-.13-.28-.19-.47-.19H3.04c-.19,0-.34.06-.47.19-.12.13-.18.28-.18.46v26.01c0,.19.06.34.18.47s.28.18.47.18Zm-.65,0V9.78v27.3Z"/>
</svg>