<?xml version="1.0" encoding="UTF-8"?>
<svg id="Capa_1" data-name="Capa 1" xmlns="http://www.w3.org/2000/svg" viewBox="0 0 40 40">
  <defs>
    <style>
      .cls-1 {
        fill: none;
      }
    </style>
  </defs>
  <rect class="cls-1" width="40" height="40"/>
  <path d="m4.31,40c-.44,0-.81-.15-1.1-.44s-.44-.66-.44-1.1V1.93c0-.55.18-1,.55-1.37.37-.37.83-.55,1.37-.55h15.93c.44,0,.84.14,1.21.42.36.28.59.66.68,1.12l.76,3.56h12.04c.55,0,1,.18,1.37.55.37.37.55.82.55,1.36v17.42c0,.53-.18.98-.55,1.36-.37.37-.83.56-1.37.56h-10.78c-.45,0-.86-.14-1.22-.41-.36-.27-.58-.64-.67-1.11l-.77-3.56H5.86v17.17c0,.44-.15.81-.45,1.1-.3.3-.67.44-1.11.44Zm21.26-16.73h8.57v-15.07h-13.5l-1.08-5.11H5.86v15.09h18.63l1.08,5.08Z"/>
</svg>