<?xml version="1.0" encoding="UTF-8"?>
<svg id="Capa_1" data-name="Capa 1" xmlns="http://www.w3.org/2000/svg" viewBox="0 0 40 40">
  <defs>
    <style>
      .cls-1 {
        fill: none;
      }
    </style>
  </defs>
  <rect class="cls-1" width="40" height="40"/>
  <path d="m14.3,21.77h5.95l1.65,3.29c.13.25.38.51.63.63s.51.25.89.25h7.34c.51,0,.89-.13,1.14-.51.25-.25.51-.76.51-1.14v-8.73c0-.51-.13-.89-.51-1.14-.25-.25-.76-.51-1.14-.51h-4.56l-1.65-3.29c-.13-.25-.38-.51-.63-.63s-.51-.25-.89-.25h-9.49c-.51,0-.89.13-1.14.51-.25.25-.51.76-.51,1.14v19.75c0,.38.13.63.38.89s.51.38.89.38.63-.13.89-.38c.25-.25.38-.51.38-.89-.13,0-.13-9.37-.13-9.37Zm9.49,1.9l-2.15-4.18h-7.47v-7.22h8.35l2.15,4.18h5.32v7.22s-6.2,0-6.2,0Zm-3.8,16.33c-2.78,0-5.32-.51-7.85-1.52s-4.56-2.53-6.33-4.3c-1.77-1.77-3.29-3.92-4.3-6.33-1.01-2.41-1.52-5.06-1.52-7.85s.51-5.32,1.52-7.85c1.01-2.41,2.53-4.56,4.3-6.33,1.77-1.77,3.92-3.29,6.33-4.3C14.56.51,17.22,0,20,0s5.32.51,7.85,1.52c2.41,1.01,4.56,2.53,6.33,4.3,1.77,1.77,3.29,3.92,4.3,6.33,1.01,2.41,1.52,5.06,1.52,7.85s-.51,5.32-1.52,7.85c-1.01,2.41-2.53,4.56-4.3,6.33-1.77,1.77-3.92,3.29-6.33,4.3-2.41,1.01-5.06,1.52-7.85,1.52Zm0-2.66c4.81,0,8.99-1.65,12.28-5.06,3.42-3.42,5.06-7.47,5.06-12.28s-1.65-8.99-5.06-12.28c-3.42-3.42-7.47-5.06-12.28-5.06s-8.99,1.65-12.28,5.06c-3.42,3.42-5.06,7.47-5.06,12.28s1.65,8.99,5.06,12.28c3.29,3.42,7.47,5.06,12.28,5.06Z"/>
</svg>