<?xml version="1.0" encoding="UTF-8"?>
<svg id="Capa_1" data-name="Capa 1" xmlns="http://www.w3.org/2000/svg" viewBox="0 0 40 40">
  <defs>
    <style>
      .cls-1 {
        fill: none;
      }
    </style>
  </defs>
  <rect class="cls-1" width="40" height="40"/>
  <path d="m13.48,3.96h3.96V0h-3.96v3.96Zm7.92,0V0h3.96v3.96h-3.96Zm-7.92,15.97v-3.96h3.96v3.96h-3.96Zm15.97-7.92v-3.96h3.96v3.96h-3.96Zm0,7.92v-3.96h3.96v3.96h-3.96Zm-8.05,0v-3.96h3.96v3.96h-3.96ZM29.46,3.96V0h3.96v3.96h-3.96Zm-12.01,4.09v-3.96h3.96v3.96h-3.96Zm-9.46,31.95c-.38,0-.77-.13-1.02-.38s-.38-.64-.38-1.02V1.53c0-.38.13-.77.38-1.02s.64-.38,1.02-.38.77.13,1.02.38.38.64.38,1.02v2.56h3.96v3.96h-3.96v3.96h3.96v3.96h-3.96v22.49c0,.38-.13.77-.38,1.02s-.51.51-1.02.51ZM25.37,15.97v-3.96h3.96v3.96h-3.96Zm-7.92,0v-3.96h3.96v3.96h-3.96Zm-3.96-3.96v-3.96h3.96v3.96h-3.96Zm7.92,0v-3.96h3.96v3.96h-3.96Zm3.96-3.96v-3.96h3.96v3.96h-3.96Z"/>
</svg>