<?xml version="1.0" encoding="UTF-8"?>
<svg id="Capa_1" data-name="Capa 1" xmlns="http://www.w3.org/2000/svg" viewBox="0 0 40 40">
  <defs>
    <style>
      .cls-1 {
        fill: none;
      }
    </style>
  </defs>
  <rect class="cls-1" width="40" height="40"/>
  <path d="m3.1,39.58c-1.3,0-2.23-.59-2.78-1.78-.55-1.19-.39-2.28.48-3.28l13.78-16.14V3.31h-3.09c-.41,0-.75-.14-1.03-.42-.28-.28-.42-.62-.42-1.04s.14-.76.42-1.03c.28-.27.62-.41,1.03-.41h17.01c.41,0,.75.14,1.03.42.28.28.42.62.42,1.04s-.14.76-.42,1.03c-.28.27-.62.41-1.03.41h-3.09v15.06l13.78,16.14c.87,1,1.03,2.09.48,3.28-.55,1.19-1.48,1.78-2.78,1.78,0,0-33.81,0-33.81,0Zm-.34-2.89h34.49l-14.72-17.27V3.31h-5.04v16.1S2.75,36.69,2.75,36.69Z"/>
</svg>