<?xml version="1.0" encoding="UTF-8"?>
<svg id="Capa_1" data-name="Capa 1" xmlns="http://www.w3.org/2000/svg" viewBox="0 0 40 40">
  <defs>
    <style>
      .cls-1 {
        fill: none;
      }
    </style>
  </defs>
  <rect class="cls-1" width="40" height="40"/>
  <path d="m26.33,21.01c1.01,0,1.77-.38,2.53-1.01.63-.63,1.01-1.52,1.01-2.53s-.38-1.77-1.01-2.53c-.63-.63-1.52-1.01-2.53-1.01s-1.77.38-2.53,1.01c-.63.63-1.01,1.52-1.01,2.53s.38,1.77,1.01,2.53c.76.76,1.52,1.01,2.53,1.01Zm-7.72,8.48h15.44v-.63c0-1.39-.63-2.41-2.03-3.16s-3.29-1.14-5.7-1.14-4.3.38-5.7,1.14-2.03,1.77-2.03,3.16c0-.13,0,.63,0,.63Zm-15.32,5.95c-.89,0-1.65-.38-2.28-1.01s-1.01-1.39-1.01-2.28V7.85c0-.89.38-1.65,1.01-2.28s1.39-1.01,2.28-1.01h12.53c.51,0,.89.13,1.27.25.38.13.76.38,1.01.76l1.9,1.9h16.71c.89,0,1.65.38,2.28,1.01s1.01,1.39,1.01,2.28v21.39c0,.89-.38,1.65-1.01,2.28-.63.63-1.39,1.01-2.28,1.01H3.29Zm-.63-27.59v24.18c0,.13,0,.38.13.51s.25.13.51.13h33.54c.13,0,.38,0,.51-.13.13-.13.13-.25.13-.51V10.76c0-.13,0-.38-.13-.51-.13-.13-.25-.13-.51-.13h-17.85l-2.91-2.91H3.29c-.13,0-.38,0-.51.13-.13.25-.13.38-.13.51Zm0,0v-.63,25.57V7.85Z"/>
</svg>