<?xml version="1.0" encoding="UTF-8"?>
<svg id="Capa_1" data-name="Capa 1" xmlns="http://www.w3.org/2000/svg" viewBox="0 0 40 40">
  <defs>
    <style>
      .cls-1 {
        fill: none;
      }
    </style>
  </defs>
  <rect class="cls-1" width="40" height="40"/>
  <path d="m3.01,36.04c-.8,0-1.5-.3-2.11-.9-.6-.6-.9-1.3-.9-2.11V6.97c0-.8.3-1.5.9-2.11s1.2-.9,2.11-.9h12.83c.4,0,.8.1,1.2.2.4.2.7.4,1,.7l2.11,2.11h17.04c.8,0,1.5.3,2.11.9s.7,1.3.7,2.11v23.06c0,.8-.3,1.5-.9,2.11-.6.6-1.3.9-2.11.9H3.01Zm0-29.07v26.07h34.09V9.97h-18.35l-3.01-3.01H3.01Zm0,0v26.07V6.97Z"/>
</svg>