<?xml version="1.0" encoding="UTF-8"?>
<svg id="Capa_1" data-name="Capa 1" xmlns="http://www.w3.org/2000/svg" viewBox="0 0 40 40">
  <defs>
    <style>
      .cls-1 {
        fill: none;
      }
    </style>
  </defs>
  <rect class="cls-1" width="40" height="40"/>
  <path d="m2.84,35.15c-.76,0-1.42-.28-1.99-.85C.28,33.73,0,33.07,0,32.31V7.69C0,6.93.28,6.27.85,5.7s1.23-.85,1.99-.85h12.12c.38,0,.76.09,1.14.19.38.19.66.38.95.66l1.99,1.99h16c.76,0,1.42.28,1.99.85s.85,1.23.85,1.99h-20.08l-2.84-2.84H2.84v24.62L7.1,15.45c.19-.66.47-1.14,1.04-1.52s1.14-.57,1.8-.57h27.18c.95,0,1.7.38,2.27,1.04s.76,1.52.47,2.46l-4.17,16.1c-.19.76-.57,1.33-1.04,1.7-.47.38-1.14.47-1.89.47H2.84Zm3.03-2.84h27.08l3.98-16.1H9.85l-3.98,16.1Zm0,0l3.98-16.1-3.98,16.1ZM2.84,13.37v-5.68,5.68Z"/>
</svg>