<?xml version="1.0" encoding="UTF-8"?>
<svg id="Capa_1" data-name="Capa 1" xmlns="http://www.w3.org/2000/svg" viewBox="0 0 40 40">
  <defs>
    <style>
      .cls-1 {
        fill: none;
      }
    </style>
  </defs>
  <rect class="cls-1" width="40" height="40"/>
  <path d="m3,36c-.8,0-1.5-.3-2.1-.9-.6-.6-.9-1.3-.9-2.1V7c0-.8.3-1.5.9-2.1s1.3-.9,2.1-.9h12.8c.4,0,.8.1,1.2.2.4.2.7.4,1,.7l2.1,2.1h16.9c.8,0,1.5.3,2.1.9s.9,1.3.9,2.1v23c0,.8-.3,1.5-.9,2.1-.6.6-1.3.9-2.1.9H3Zm0-3h34V10h-18.2l-3-3H3v26Zm0,0V7v26Zm23.5-9.5h3c.4,0,.8-.1,1.1-.4s.4-.6.4-1.1c0-.4-.1-.8-.4-1.1-.3-.3-.6-.4-1.1-.4h-9c-.4,0-.8.1-1.1.4-.3.3-.4.7-.4,1.1s.1.8.4,1.1c.3.3.6.4,1.1.4h6Z"/>
</svg>