<?xml version="1.0" encoding="UTF-8"?>
<svg id="Capa_1" data-name="Capa 1" xmlns="http://www.w3.org/2000/svg" viewBox="0 0 40 40">
  <defs>
    <style>
      .cls-1 {
        fill: none;
      }
    </style>
  </defs>
  <rect class="cls-1" width="40" height="40"/>
  <path d="m13,36c-.7,0-1.3-.2-1.8-.7s-.7-1.1-.7-1.8V9H2.5c-.7,0-1.3-.2-1.8-.7s-.7-1.1-.7-1.8.2-1.3.7-1.8,1.1-.7,1.8-.7h21c.7,0,1.3.2,1.8.7s.7,1.1.7,1.8-.2,1.3-.7,1.8-1.1.7-1.8.7h-8v24.5c0,.7-.2,1.3-.7,1.8s-1.1.7-1.8.7Zm18,0c-.7,0-1.3-.2-1.8-.7s-.7-1.1-.7-1.8v-14.5h-4c-.7,0-1.3-.2-1.8-.7s-.7-1.1-.7-1.8.2-1.3.7-1.8,1.1-.7,1.8-.7h13c.7,0,1.3.2,1.8.7s.7,1.1.7,1.8-.2,1.3-.7,1.8-1.1.7-1.8.7h-4v14.5c0,.7-.2,1.3-.7,1.8s-1.1.7-1.8.7Z"/>
</svg>