<?xml version="1.0" encoding="UTF-8"?>
<svg id="Capa_1" data-name="Capa 1" xmlns="http://www.w3.org/2000/svg" viewBox="0 0 40 40">
  <defs>
    <style>
      .cls-1 {
        fill: none;
      }
    </style>
  </defs>
  <rect class="cls-1" width="40" height="40"/>
  <g id="Group_23993" data-name="Group 23993">
    <g id="Aumentar_letra" data-name="Aumentar letra">
      <path id="Subtraction_22" data-name="Subtraction 22" d="m5.48,37.31H0L13.45,7.6h4.43l13.45,29.72h-5.4l-2.99-6.95h-14.46l-2.99,6.96h0ZM15.68,13.5h0l-5.44,12.64h10.88l-5.44-12.64h0Zm16.88,4.02c-1.37,0-2.48-1.11-2.48-2.48v-2.48h-2.48c-1.37,0-2.48-1.11-2.48-2.48,0-1.37,1.11-2.48,2.48-2.48h2.48v-2.48c.03-1.37,1.16-2.46,2.53-2.43,1.33.03,2.4,1.1,2.43,2.43v2.48h2.48c1.37,0,2.48,1.11,2.48,2.48,0,1.37-1.11,2.48-2.48,2.48h-2.48v2.48c0,1.37-1.11,2.47-2.48,2.48h0Z"/>
    </g>
  </g>
</svg>