<?xml version="1.0" encoding="UTF-8"?>
<svg id="Capa_1" data-name="Capa 1" xmlns="http://www.w3.org/2000/svg" viewBox="0 0 40 40">
  <defs>
    <style>
      .cls-1 {
        fill: none;
      }
    </style>
  </defs>
  <rect class="cls-1" x="0" width="40" height="40"/>
  <path d="m14.14,36.75L3.23,25.84c-.28,1.59-.39,3.44-.33,5.54.06,2.1.23,3.77.53,5.01,1.1.33,2.77.54,5.01.64,2.24.1,4.14,0,5.7-.28Zm3.61-.56c2.39-.43,4.66-1.19,6.81-2.26,2.15-1.07,3.99-2.36,5.5-3.88,1.46-1.46,2.72-3.24,3.78-5.33,1.06-2.09,1.84-4.4,2.35-6.92L22.2,3.82c-2.35.47-4.6,1.25-6.74,2.33-2.14,1.08-3.93,2.34-5.39,3.79-1.45,1.45-2.71,3.24-3.77,5.39-1.06,2.14-1.89,4.46-2.5,6.94,0,0,13.93,13.93,13.93,13.93Zm-4.52-9.4c-.3-.3-.45-.65-.45-1.05,0-.4.15-.74.45-1.04l11.55-11.53c.26-.27.59-.4.98-.4s.73.15,1.03.45c.3.3.45.65.45,1.05s-.15.74-.45,1.03l-11.53,11.55c-.28.27-.61.4-1,.4s-.73-.15-1.03-.45Zm23.55-12.57c.29-1.67.4-3.55.35-5.65-.05-2.1-.24-3.75-.55-4.95-1.11-.33-2.78-.54-5.02-.64-2.24-.1-4.14,0-5.68.29l10.91,10.96Zm-26.97,25.79c-2.01,0-3.85-.13-5.52-.4-1.67-.26-2.68-.57-3.04-.92-.34-.38-.64-1.37-.88-2.98C.12,34.09,0,32.32,0,30.39,0,25.74.68,21.43,2.04,17.47c1.36-3.96,3.28-7.19,5.76-9.67,2.48-2.48,5.71-4.4,9.69-5.76,3.98-1.36,8.3-2.04,12.97-2.04,1.98,0,3.74.13,5.29.38,1.55.25,2.51.55,2.88.9.4.39.73,1.38.98,2.97.25,1.59.38,3.37.38,5.33,0,4.69-.68,9.03-2.03,13-1.35,3.98-3.26,7.2-5.73,9.67-2.47,2.47-5.69,4.38-9.65,5.73s-8.23,2.03-12.79,2.03Z"/>
</svg>