<?xml version="1.0" encoding="UTF-8"?>
<svg id="Capa_1" data-name="Capa 1" xmlns="http://www.w3.org/2000/svg" viewBox="0 0 40 40">
  <defs>
    <style>
      .cls-1 {
        fill: none;
      }
    </style>
  </defs>
  <rect class="cls-1" width="40" height="40"/>
  <path d="m20,40c-2.78,0-5.32-.51-7.85-1.52-2.41-1.01-4.56-2.53-6.33-4.3-1.77-1.77-3.29-3.92-4.3-6.33-1.01-2.41-1.52-5.06-1.52-7.85s.51-5.32,1.52-7.85c1.01-2.41,2.53-4.56,4.3-6.33,1.77-1.77,3.92-3.29,6.33-4.3C14.56.51,17.22,0,20,0s5.32.51,7.85,1.52c2.41,1.01,4.56,2.53,6.33,4.3,1.77,1.77,3.29,3.92,4.3,6.33,1.01,2.41,1.52,5.06,1.52,7.85s-.51,5.32-1.52,7.85c-1.01,2.41-2.53,4.56-4.3,6.33-1.77,1.77-3.92,3.29-6.33,4.3-2.53,1.01-5.06,1.52-7.85,1.52Zm10.38-24.43l3.67-1.27,1.01-3.42c-1.14-1.9-2.66-3.42-4.3-4.68-1.77-1.27-3.67-2.28-5.82-2.91l-3.67,2.28v3.67l9.11,6.33Zm-20.63,0l8.99-6.33v-3.67l-3.42-2.41c-2.15.63-4.18,1.65-5.82,2.91-1.77,1.27-3.16,2.91-4.3,4.68l1.14,3.42c-.13.13,3.42,1.39,3.42,1.39Zm-2.78,16.08l3.29-.38,2.03-3.42-3.16-9.75-3.8-1.27-2.66,2.03c0,2.53.25,4.81.89,6.84.51,2.03,1.65,3.92,3.42,5.95Zm13.04,5.7c.89,0,1.9-.13,2.78-.25,1.01-.13,1.9-.38,2.91-.63l1.77-3.8-1.77-3.04h-11.52l-1.65,3.04,1.77,3.8c.89.25,1.9.51,2.91.63.89.25,1.9.25,2.78.25Zm-5.32-10.38h10.63l3.16-9.49-8.48-5.95-8.48,5.95,3.16,9.49Zm18.48,4.68c1.65-1.9,2.78-3.92,3.42-5.95.63-2.03.89-4.3.89-6.84l-2.53-1.77-3.8,1.01-3.16,9.87,2.03,3.42c-.13-.13,3.16.25,3.16.25Z"/>
</svg>