<?xml version="1.0" encoding="UTF-8"?>
<svg id="Capa_1" data-name="Capa 1" xmlns="http://www.w3.org/2000/svg" viewBox="0 0 40 40">
  <defs>
    <style>
      .cls-1 {
        fill: none;
      }
    </style>
  </defs>
  <rect class="cls-1" width="40" height="40"/>
  <path d="m3.59,33.52c-1.2,0-2.13-.41-2.8-1.24s-.91-1.87-.73-3.12L2.43,12.55c.25-1.7,1.02-3.13,2.32-4.31,1.3-1.17,2.8-1.76,4.51-1.76h21.52c1.7,0,3.2.59,4.49,1.76,1.3,1.17,2.07,2.61,2.33,4.31l2.34,16.61c.18,1.25-.07,2.29-.73,3.12-.66.83-1.59,1.24-2.78,1.24-.63,0-1.18-.1-1.64-.3-.46-.2-.88-.48-1.24-.84l-5.35-5.35H11.81l-5.35,5.35c-.36.36-.77.64-1.24.84-.46.2-1.01.3-1.63.3Zm.87-2.87l6.24-6.24h18.6l6.24,6.24c.12.11.4.24.85.38.34,0,.61-.13.8-.4.19-.27.25-.57.19-.91l-2.39-16.81c-.16-1.1-.65-2.01-1.46-2.73-.81-.72-1.73-1.08-2.74-1.08H9.22c-1.02,0-1.93.36-2.74,1.08-.81.72-1.29,1.63-1.45,2.73l-2.41,16.81c-.06.34,0,.65.19.91.19.27.46.4.81.4.18,0,.45-.13.83-.38Zm26.44-8.77c.51,0,.95-.19,1.32-.56.37-.37.56-.81.56-1.32s-.19-.95-.56-1.32c-.37-.37-.81-.56-1.32-.56s-.95.19-1.32.56c-.37.37-.56.81-.56,1.32s.19.95.56,1.32c.37.37.81.56,1.32.56Zm-4.28-6.49c.5,0,.94-.19,1.31-.56.38-.37.57-.81.57-1.32s-.19-.95-.57-1.32c-.38-.37-.81-.56-1.31-.56s-.95.19-1.32.56c-.37.37-.56.81-.56,1.32s.19.95.56,1.32c.37.37.81.56,1.32.56Zm-14.27,6.24c.32,0,.58-.11.79-.32.21-.21.31-.47.31-.79v-2.65h2.65c.32,0,.58-.11.8-.32.21-.21.32-.48.32-.81s-.11-.58-.32-.79c-.21-.21-.48-.31-.8-.31h-2.65v-2.65c0-.32-.11-.58-.32-.8-.21-.21-.48-.32-.79-.32s-.59.11-.8.32c-.21.21-.31.48-.31.8v2.65h-2.65c-.32,0-.58.11-.79.32-.21.21-.32.48-.32.79s.11.59.32.8c.21.21.47.31.79.31h2.65v2.65c0,.32.11.58.32.79.21.21.48.32.81.32Z"/>
</svg>