<?xml version="1.0" encoding="UTF-8"?>
<svg id="Capa_1" data-name="Capa 1" xmlns="http://www.w3.org/2000/svg" viewBox="0 0 40 40">
  <defs>
    <style>
      .cls-1 {
        fill: none;
      }
    </style>
  </defs>
  <rect class="cls-1" width="40" height="40"/>
  <path d="m3.87,40c-.52,0-.95-.18-1.3-.53-.35-.35-.53-.79-.53-1.31V3.68c0-1.01.36-1.88,1.08-2.6s1.59-1.08,2.6-1.08h13.51c1.01,0,1.88.36,2.6,1.08.72.72,1.08,1.59,1.08,2.6v15.52h2.97c.93,0,1.72.33,2.39,1,.67.67,1,1.47,1,2.39v11.79c0,.85.3,1.57.9,2.16.6.58,1.33.88,2.19.88.86,0,1.59-.29,2.19-.88s.9-1.3.9-2.15v-16.69c-.4.23-.81.4-1.24.51-.43.11-.87.17-1.31.17-1.4,0-2.57-.48-3.54-1.45s-1.45-2.14-1.45-3.54c0-1.15.34-2.18,1.01-3.08.67-.9,1.56-1.48,2.67-1.75l-4.71-4.72c-.25-.24-.38-.54-.39-.88,0-.35.12-.66.39-.94.24-.25.53-.37.88-.36.34,0,.65.14.92.4l7.64,7.62c.5.5.9,1.07,1.2,1.7s.45,1.3.45,2.01v21c0,1.57-.54,2.9-1.62,3.98-1.08,1.08-2.41,1.63-3.97,1.63s-2.89-.54-3.99-1.63c-1.09-1.08-1.64-2.41-1.64-3.98v-11.95c0-.2-.07-.37-.2-.51-.14-.14-.31-.21-.52-.21h-3.12v16.44c0,.52-.18.96-.53,1.31-.36.35-.79.53-1.3.53,0,0-17.2,0-17.2,0Zm1.13-23.89h14.95V3.68c0-.18-.08-.35-.23-.5-.15-.15-.32-.23-.5-.23H5.72c-.18,0-.35.08-.5.23-.15.15-.23.32-.23.5v12.43Zm27.9-.25c.68,0,1.26-.24,1.74-.72.48-.48.72-1.06.72-1.74s-.24-1.26-.72-1.74c-.48-.48-1.06-.72-1.74-.72s-1.26.24-1.74.72c-.48.48-.72,1.06-.72,1.74s.24,1.26.72,1.74c.48.48,1.06.72,1.74.72ZM4.99,37.04h14.95v-17.98H4.99s0,17.98,0,17.98Zm14.95,0H4.99h14.95Z"/>
</svg>