<?xml version="1.0" encoding="UTF-8"?>
<svg id="Capa_1" data-name="Capa 1" xmlns="http://www.w3.org/2000/svg" viewBox="0 0 40 40">
  <defs>
    <style>
      .cls-1 {
        fill: none;
      }
    </style>
  </defs>
  <rect class="cls-1" width="40" height="40"/>
  <path d="m1.51,40c-.41,0-.68-.14-.96-.41s-.41-.68-.41-.96c0-.41.14-.82.41-1.1.27-.27.55-.41.96-.41h23.42c.41,0,.68.14.96.41s.41.68.41.96c0,.41-.14.82-.41.96-.27.27-.55.41-.96.41,0,.14-23.42.14-23.42.14Zm9.18-14.79l-6.99-6.99c-.68-.68-1.1-1.51-1.1-2.47s.27-1.78.96-2.47l1.37-1.37,12.05,12.05-1.51,1.37c-.68.68-1.51.96-2.47.96-.82-.14-1.64-.41-2.33-1.1Zm15.89-10.82L14.52,2.33l1.37-1.37c.68-.68,1.51-.96,2.47-.96s1.78.41,2.47,1.1l6.99,6.99c.68.68.96,1.51.96,2.47s-.27,1.78-.96,2.47c.14-.14-1.23,1.37-1.23,1.37Zm10.68,22.05L8.9,8.08l2.05-2.05,28.49,28.49c.27.27.41.55.41.96s-.14.68-.41.96-.68.41-.96.41c-.68,0-.96-.14-1.23-.41Z"/>
</svg>