<?xml version="1.0" encoding="UTF-8"?>
<svg id="Capa_1" data-name="Capa 1" xmlns="http://www.w3.org/2000/svg" viewBox="0 0 40 40">
  <defs>
    <style>
      .cls-1 {
        fill: none;
      }
    </style>
  </defs>
  <rect class="cls-1" width="40" height="40"/>
  <path d="m20.1,37.65c-.41,0-.93-.1-1.23-.21-.41-.21-.82-.41-1.03-.82L.76,16.24c-.41-.51-.62-1.03-.72-1.65s0-1.13.31-1.75L4.77,4c.31-.51.62-.93,1.13-1.23s1.03-.41,1.65-.41h25c.62,0,1.13.1,1.65.41s.93.72,1.13,1.23l4.32,8.85c.31.51.41,1.13.31,1.75s-.31,1.13-.72,1.65l-16.77,20.27c-.31.41-.72.62-1.13.82-.31.21-.82.31-1.23.31Zm-6.28-24.49h12.55l-3.81-7.72h-4.84l-3.91,7.72Zm4.73,19.55v-16.46H4.87l13.68,16.46Zm3.09,0l13.79-16.46h-13.79v16.46Zm8.23-19.55h6.48l-3.91-7.72h-6.38l3.81,7.72Zm-26.03,0h6.48l3.91-7.72h-6.48l-3.91,7.72Z"/>
</svg>