<?xml version="1.0" encoding="UTF-8"?>
<svg id="Capa_1" data-name="Capa 1" xmlns="http://www.w3.org/2000/svg" viewBox="0 0 40 40">
  <defs>
    <style>
      .cls-1 {
        fill: none;
      }
    </style>
  </defs>
  <rect class="cls-1" width="40" height="40"/>
  <path d="m2.65,30.6v4.42c0,.13.13.25.25.5.13.13.25.25.5.25h33.44c.13,0,.25-.13.5-.25.13-.13.25-.25.25-.5v-4.42H2.65Zm.63-21.58h6.81c-.13-.25-.38-.63-.38-1.14-.13-.38-.13-.76-.13-1.14,0-1.39.5-2.65,1.51-3.66.76-1.01,2.02-1.51,3.41-1.51.88,0,1.77.25,2.52.63.76.5,1.39,1.01,1.89,1.77l1.01,1.64,1.14-1.51c.5-.76,1.14-1.26,1.89-1.77s1.39-.76,2.27-.76c1.39,0,2.65.5,3.66,1.51,1.01,1.01,1.51,2.15,1.51,3.66,0,.38,0,.76-.13,1.14-.13.38-.25.76-.38,1.14h6.81c.88,0,1.64.38,2.27,1.01s1.01,1.39,1.01,2.27v22.84c0,.88-.38,1.64-1.01,2.27s-1.39,1.01-2.27,1.01H3.28c-.88,0-1.64-.38-2.27-1.01s-1.01-1.39-1.01-2.27V12.3c0-.88.38-1.64,1.01-2.27.5-.76,1.39-1.01,2.27-1.01Zm-.63,16.53h34.7v-13.25c0-.13-.13-.25-.25-.5-.13-.13-.25-.13-.5-.13h-12.62l3.91,5.43c.25.25.25.63.25,1.01s-.25.63-.5.88c-.25.25-.63.25-1.01.25s-.63-.25-.88-.5l-5.8-8.2-5.93,8.08c-.25.25-.5.5-.88.5s-.63,0-1.01-.25c-.25-.25-.5-.5-.5-.88s0-.63.25-1.01l3.91-5.43H3.28c-.13,0-.25.13-.5.25-.13.13-.25.25-.25.5v13.25h.13ZM14.51,9.15c.63,0,1.26-.25,1.77-.76.5-.5.76-1.01.76-1.77,0-.63-.25-1.26-.76-1.77s-1.01-.76-1.77-.76c-.63,0-1.26.25-1.77.76s-.76,1.01-.76,1.77c0,.63.25,1.26.76,1.77.5.5,1.01.76,1.77.76Zm10.73,0c.63,0,1.26-.25,1.77-.76.5-.5.76-1.01.76-1.77,0-.63-.25-1.26-.76-1.77s-1.01-.76-1.77-.76c-.63,0-1.26.25-1.64.76-.5.5-.76,1.01-.76,1.77,0,.63.25,1.26.76,1.77.5.5,1.01.76,1.64.76Z"/>
</svg>