<?xml version="1.0" encoding="UTF-8"?>
<svg id="Capa_1" data-name="Capa 1" xmlns="http://www.w3.org/2000/svg" viewBox="0 0 40 40">
  <defs>
    <style>
      .cls-1 {
        fill: none;
      }
    </style>
  </defs>
  <rect class="cls-1" width="40" height="40"/>
  <path d="m39.27,18.32L21.81.87c-1-1-2.62-1-3.62,0l-3.62,3.62,4.61,4.61c2.37-.87,4.74,1.5,3.86,3.86l4.36,4.36c2.99-1,5.48,2.74,3.12,4.99-2.37,2.37-6.23-.25-4.99-3.37l-4.11-4.11v10.85c2.24,1.12,1.99,3.74.75,4.86-1.25,1.25-3.12,1.25-4.36,0-1.62-1.62-1-4.24,1-4.99v-10.97c-1.87-.75-2.24-2.74-1.62-3.99l-4.49-4.49L.75,18.07c-1,1-1,2.62,0,3.62l17.45,17.45c1,1,2.62,1,3.62,0l17.33-17.33c1.12-.87,1.12-2.49.12-3.49h0Z"/>
</svg>