<?xml version="1.0" encoding="UTF-8"?>
<svg id="Capa_1" data-name="Capa 1" xmlns="http://www.w3.org/2000/svg" viewBox="0 0 40 40">
  <defs>
    <style>
      .cls-1 {
        fill: none;
      }
    </style>
  </defs>
  <rect class="cls-1" width="40" height="40"/>
  <path d="m16.88,12.37h-6.25c-3.12-.87-10.25-.62-10.25,5.87,0,2.37,1.13,4,2.75,4.75-2,1.75-2.88,2.63-2.88,3.88,0,.88.38,1.62,1.37,2.13-1,1-1.62,1.75-1.62,3.13,0,2.5,2.25,4,8,4s8.75-2.13,8.75-5.75c0-4.63-3.5-4.38-11.88-4.87l1-1.75c2.12.62,9.25.75,9.25-5.25,0-1.5-.62-2.5-1.12-3.25l2.87-.25v-2.62Zm-4.87,18.88c0,2.5-8.25,2.5-8.25.25,0-.62.38-1.12.87-1.62,6,.37,7.38.12,7.38,1.37Zm-4-10.5c-4.13,0-4-5.5.13-5.5,3.75,0,3.88,5.5-.13,5.5Zm10.38,7.87v-2.5c2.13-.25,2.13-.13,2.13-.88v-9.38c0-.62-.13-.62-2.13-1.25l.37-2.63h6.62v13.12c0,.5,0,.62.5.62l1.62.25v2.5l-9.12.13Zm4.12-19.12c-1.75,0-2.87-1-2.87-2.88s1-2.75,2.87-2.75,2.87,1,2.87,2.75-1,2.88-2.87,2.88Zm17.5,17.87c-1.37.62-3.38,1.25-5.13,1.25-3.75,0-5.25-1.5-5.25-5.13v-8.38c0-.38.13-.38-2.5-.38v-2.88c2.75-.38,3.88-1.75,4.25-5.13h3c0,5.13-.13,4.87.25,4.87h4.5v3.12h-4.75v7.75c0,.5-.37,4,4.75,2.13l.88,2.75Z"/>
</svg>