<?xml version="1.0" encoding="UTF-8"?>
<svg id="Capa_1" data-name="Capa 1" xmlns="http://www.w3.org/2000/svg" viewBox="0 0 40 40">
  <defs>
    <style>
      .cls-1 {
        fill: none;
      }
    </style>
  </defs>
  <rect class="cls-1" width="40" height="40"/>
  <path d="m15.42,26.08c0,1.76-.88,4.64-3.01,4.64s-3.01-2.88-3.01-4.64.88-4.64,3.01-4.64,3.01,3.01,3.01,4.64Zm24.58-4.14c0,2.63-.25,5.52-1.5,7.9-3.13,6.39-11.91,6.27-18.06,6.27s-15.55.25-18.81-6.27c-1.25-2.38-1.63-5.27-1.63-7.9,0-3.51,1.13-6.77,3.51-9.53-.38-1.38-.63-2.76-.63-4.14,0-1.76.38-2.76,1.25-4.39,3.76,0,6.27.75,9.15,3.01,2.38-.63,4.89-.88,7.4-.88,2.26,0,4.51.25,6.77.75,2.51-2.01,5.02-2.76,8.65-2.76.88,1.63,1.25,2.51,1.25,4.39,0,1.38-.25,2.76-.63,4.01,2.26,2.63,3.26,6.02,3.26,9.53h0Zm-5.39,4.14c0-3.64-2.26-6.9-6.14-6.9-1.63,0-3.13.25-4.64.5-1.25.25-2.51.25-3.76.25s-2.51-.13-3.76-.25c-1.5-.25-3.13-.5-4.64-.5-3.89,0-6.14,3.26-6.14,6.9,0,7.4,6.77,8.53,12.54,8.53h4.01c5.89,0,12.54-1.13,12.54-8.53Zm-6.9-4.51c-2.13,0-3.01,2.88-3.01,4.64s.88,4.64,3.01,4.64,3.01-2.88,3.01-4.64-.88-4.64-3.01-4.64Z"/>
</svg>