<?xml version="1.0" encoding="UTF-8"?>
<svg id="Capa_1" data-name="Capa 1" xmlns="http://www.w3.org/2000/svg" viewBox="0 0 40 40">
  <defs>
    <style>
      .cls-1 {
        fill: none;
      }
    </style>
  </defs>
  <rect class="cls-1" width="40" height="40"/>
  <path d="m8.33,2c-.25-.75-1.25-.75-1.5,0L2.34,15.6h10.23c.12,0-4.24-13.6-4.24-13.6ZM.1,22.46c-.25.62,0,1.37.5,1.75l19.47,14.35L2.34,15.6.1,22.46Zm12.6-6.86l7.36,22.96,7.36-22.96h-14.72Zm27.2,6.86l-2.25-6.86-17.59,22.96,19.34-14.35c.5-.37.75-1.12.5-1.75Zm-6.61-20.46c-.25-.75-1.25-.75-1.5,0l-4.37,13.6h10.23l-4.37-13.6Z"/>
</svg>