<?xml version="1.0" encoding="UTF-8"?>
<svg id="Capa_1" data-name="Capa 1" xmlns="http://www.w3.org/2000/svg" viewBox="0 0 40 40">
  <defs>
    <style>
      .cls-1 {
        fill: none;
      }
    </style>
  </defs>
  <rect class="cls-1" width="40" height="40"/>
  <path d="m10.38,26.43c1.06,0,2.12-.35,2.95-.94.94-.71,1.53-1.53,1.89-2.6l.71-2.12c.59-1.77.47-3.42-.35-4.96-.83-1.53-2.12-2.24-3.78-2.24h-7.43l.94,8.38c.12,1.3.71,2.36,1.65,3.19.94.94,2.12,1.3,3.42,1.3Zm19.35,0c1.3,0,2.48-.47,3.42-1.3.94-.83,1.53-1.89,1.65-3.19l.94-8.26h-7.43c-1.65,0-2.95.71-3.78,2.24s-1.06,3.19-.35,4.96l.71,2.01c.35,1.06,1.06,1.89,1.89,2.6.83.71,1.89.94,2.95.94Zm-19.35,2.48c-1.89,0-3.54-.59-5.07-1.89-1.42-1.3-2.24-2.83-2.48-4.84l-1.06-8.61h-.47c-.35,0-.71-.12-.94-.35-.24-.12-.35-.47-.35-.83s.12-.71.35-.94.47-.35.94-.35h10.5c1.18,0,2.36.35,3.42,1.06,1.06.71,2.01,1.65,2.71,2.83h4.25c.71-1.18,1.65-2.12,2.71-2.83,1.06-.71,2.24-1.06,3.42-1.06h10.38c.35,0,.71.12.94.35s.35.47.35.94c0,.35-.12.71-.35.83-.24.24-.47.35-.94.35h-.47l-1.06,8.61c-.24,2.01-1.06,3.54-2.48,4.84-1.42,1.3-3.07,1.89-4.96,1.89-1.65,0-3.07-.47-4.37-1.42-1.3-.94-2.24-2.24-2.83-3.78l-.71-2.01c-.12-.24-.12-.59-.24-.94s-.12-.83-.24-1.42h-2.6c-.12.47-.12.94-.24,1.3-.12.35-.12.71-.24.94l-.71,2.01c-.59,1.53-1.53,2.83-2.83,3.78-1.3,1.06-2.71,1.53-4.37,1.53h0Z"/>
</svg>