<?xml version="1.0" encoding="UTF-8"?>
<svg id="Capa_1" data-name="Capa 1" xmlns="http://www.w3.org/2000/svg" viewBox="0 0 40 40">
  <defs>
    <style>
      .cls-1 {
        fill: none;
      }
    </style>
  </defs>
  <rect class="cls-1" x="0" width="40" height="40"/>
  <path d="m8.33,40c-.44,0-.89-.11-1.22-.44s-.44-.78-.44-1.22.11-.89.44-1.22.67-.44,1.22-.44h10v-13.56L.78,4.11c-.22-.22-.44-.44-.56-.89-.11-.33-.22-.67-.22-1,0-.67.22-1.11.67-1.56s.89-.67,1.56-.67h35.56c.67,0,1.11.22,1.56.67.44.44.67.89.67,1.56,0,.33-.11.67-.22,1-.11.44-.33.67-.44.89l-17.67,18.89v13.67h10c.44,0,.89.11,1.22.44s.44.67.44,1.22-.11.89-.44,1.22-.78.44-1.22.44H8.33Zm.67-32h22.11l4.67-4.44H4.33l4.67,4.44Zm11,12l8-8.67H12l8,8.67Z"/>
</svg>