<?xml version="1.0" encoding="UTF-8"?>
<svg id="Capa_1" data-name="Capa 1" xmlns="http://www.w3.org/2000/svg" viewBox="0 0 40 40">
  <defs>
    <style>
      .cls-1 {
        fill: none;
      }
    </style>
  </defs>
  <rect class="cls-1" width="40" height="40"/>
  <path d="m20,40c-2.78,0-5.32-.51-7.85-1.52-2.41-1.01-4.56-2.53-6.33-4.3-1.77-1.77-3.29-3.92-4.3-6.33s-1.52-5.06-1.52-7.85.51-5.32,1.52-7.85c1.01-2.41,2.53-4.56,4.3-6.33,1.77-1.77,3.92-3.29,6.33-4.3C14.56.51,17.22,0,20,0s5.32.51,7.85,1.52c2.41,1.01,4.56,2.53,6.33,4.3,1.77,1.77,3.29,3.92,4.3,6.33,1.01,2.41,1.52,5.06,1.52,7.85s-.51,5.32-1.52,7.85c-1.01,2.41-2.53,4.56-4.3,6.33-1.77,1.77-3.92,3.29-6.33,4.3-2.41,1.01-5.06,1.52-7.85,1.52Zm-2.15-2.66v-4.18c-1.14,0-2.28-.38-3.04-1.27-.89-.89-1.27-1.9-1.27-3.04v-2.15L3.04,16.2c-.13.63-.25,1.27-.38,2.03-.13.63-.13,1.27-.13,2.03,0,4.43,1.39,8.23,4.3,11.52,2.91,3.29,6.58,5.06,11.01,5.57Zm14.94-5.57c.76-.76,1.39-1.65,1.9-2.53.63-.89,1.01-1.9,1.39-2.91s.63-2.03.89-3.04.25-2.15.25-3.16c0-3.54-1.01-6.84-2.91-9.87-2.03-2.91-4.56-5.06-7.97-6.46v.89c0,1.14-.38,2.28-1.27,3.04-.89.89-1.9,1.27-3.04,1.27h-4.43v4.43c0,.63-.25,1.14-.63,1.52-.38.38-1.01.63-1.52.63h-4.3v4.43h13.16c.63,0,1.14.25,1.52.63.38.38.63.89.63,1.52v6.46h2.15c1.01,0,1.77.25,2.53.89.89.63,1.39,1.39,1.65,2.28Z"/>
</svg>