<?xml version="1.0" encoding="UTF-8"?>
<svg id="Capa_1" data-name="Capa 1" xmlns="http://www.w3.org/2000/svg" viewBox="0 0 40 40">
  <defs>
    <style>
      .cls-1 {
        fill: none;
      }
    </style>
  </defs>
  <rect class="cls-1" width="40" height="40"/>
  <path d="m20,37c.6,0,1.3,0,1.9-.1s1.2-.2,1.8-.3l-2.5-3.8h-7.4v-2.1c0-1.2.4-2.2,1.2-3,.8-.8,1.8-1.2,3-1.2h4.2v-6.5h-4.2c-.6,0-1.1-.2-1.5-.6s-.6-.9-.6-1.5v-4.2h-.9c-.9,0-1.7-.3-2.3-.9-.7-.6-1-1.4-1-2.3,0-.3.1-.6.2-1,.1-.3.2-.6.4-.9l3.3-4.8c-3.6,1-6.5,3-8.8,6s-3.7,6.3-3.7,10.2h2.1v-2.1c0-.6.2-1.1.6-1.5.4-.4.9-.6,1.5-.6h4.2c.6,0,1.1.2,1.5.6s.6.9.6,1.5v2.1c0,.6-.2,1.1-.6,1.5s-.9.6-1.5.6v2.1c0,1.2-.4,2.2-1.2,3s-1.8,1.2-3,1.2h-2c1.5,2.6,3.5,4.6,6.1,6.2,2.6,1.6,5.5,2.4,8.6,2.4Zm16.1-11.8c.3-.8.5-1.7.6-2.5.1-.9.2-1.8.2-2.7,0-4-1.2-7.4-3.6-10.5-2.4-3-5.4-5-9.1-6v5.8c1.2,0,2.2.4,3,1.2s1.2,1.8,1.2,3v4.2c.7,0,1.3.1,1.8.3s1.1.5,1.5,1l4.4,6.2Zm-16.1,14.8c-2.8,0-5.3-.5-7.8-1.6s-4.5-2.5-6.4-4.3-3.2-3.9-4.3-6.4C.5,25.3,0,22.7,0,20s.5-5.4,1.6-7.8c1-2.4,2.5-4.5,4.3-6.3,1.8-1.8,3.9-3.2,6.4-4.3,2.4-1.1,5-1.6,7.7-1.6s5.4.5,7.8,1.6c2.4,1.1,4.5,2.5,6.3,4.3s3.2,3.9,4.3,6.3c1.1,2.4,1.6,5,1.6,7.8s-.5,5.3-1.6,7.8c-1,2.4-2.5,4.5-4.3,6.4-1.8,1.8-3.9,3.2-6.4,4.3s-4.9,1.5-7.7,1.5Z"/>
</svg>