<?xml version="1.0" encoding="UTF-8"?>
<svg id="Capa_1" data-name="Capa 1" xmlns="http://www.w3.org/2000/svg" viewBox="0 0 40 40">
  <defs>
    <style>
      .cls-1 {
        fill: none;
      }
    </style>
  </defs>
  <rect class="cls-1" width="40" height="40"/>
  <path d="m20,40c-2.78,0-5.44-.51-7.85-1.52s-4.56-2.53-6.33-4.3c-1.77-1.77-3.29-3.92-4.3-6.33-1.01-2.41-1.52-5.06-1.52-7.85s.51-5.44,1.52-7.85c1.01-2.41,2.53-4.56,4.3-6.33s3.92-3.29,6.33-4.3C14.56.51,17.22,0,20,0s5.44.51,7.85,1.52c2.41,1.01,4.56,2.41,6.33,4.3,1.77,1.77,3.29,3.92,4.3,6.33,1.01,2.41,1.52,5.06,1.52,7.85s-.51,5.44-1.52,7.85c-1.01,2.41-2.53,4.56-4.3,6.33-1.77,1.77-3.92,3.29-6.33,4.3-2.41,1.01-5.06,1.52-7.85,1.52Zm0-2.53c1.27-1.39,2.28-2.91,3.04-4.56.76-1.65,1.52-3.42,2.03-5.44h-10.13c.51,2.03,1.14,3.92,2.03,5.44.76,1.65,1.77,3.16,3.04,4.56Zm-3.54-.51c-.89-1.27-1.77-2.66-2.53-4.3-.76-1.65-1.27-3.42-1.65-5.19h-7.97c1.27,2.53,2.91,4.56,4.94,6.2,2.03,1.65,4.3,2.66,7.22,3.29Zm7.22,0c2.66-.63,4.94-1.65,7.09-3.29,2.15-1.65,3.8-3.67,5.06-6.08h-7.97c-.51,1.9-1.14,3.54-1.77,5.19-.76,1.52-1.65,2.91-2.41,4.18ZM3.29,24.81h8.48c-.13-.89-.25-1.77-.25-2.53s-.13-1.52-.13-2.28c0-.89,0-1.65.13-2.41,0-.76.13-1.52.25-2.41H3.29c-.25.76-.38,1.52-.51,2.28s-.13,1.65-.13,2.53,0,1.77.13,2.53.25,1.52.51,2.28Zm11.14,0h11.14c.13-1.01.25-1.77.25-2.53s.13-1.52.13-2.28,0-1.52-.13-2.28c0-.76-.13-1.52-.25-2.53h-11.14c-.13,1.01-.25,1.77-.25,2.53s-.13,1.52-.13,2.28,0,1.52.13,2.28c0,.76.13,1.52.25,2.53Zm13.8,0h8.48c.25-.76.38-1.65.51-2.41.13-.76.13-1.65.13-2.53s0-1.65-.13-2.41-.25-1.52-.51-2.28h-8.48c.13,1.01.25,1.9.25,2.66s.13,1.39.13,2.15,0,1.52-.13,2.28c0,.76-.13,1.65-.25,2.53Zm-.51-12.28h7.97c-1.27-2.53-2.78-4.56-4.94-6.2-2.03-1.65-4.43-2.78-7.22-3.29.89,1.27,1.77,2.78,2.41,4.3s1.39,3.29,1.77,5.19Zm-12.78,0h10.13c-.51-1.9-1.14-3.67-2.03-5.32s-1.9-3.16-3.04-4.56c-1.14,1.14-2.15,2.53-2.91,4.18-.76,1.39-1.52,3.42-2.15,5.7Zm-10.63,0h7.97c.38-1.77,1.01-3.54,1.65-5.06.63-1.52,1.52-3.04,2.41-4.43-2.66.51-5.06,1.65-7.22,3.29-2.03,1.52-3.67,3.67-4.81,6.2Z"/>
</svg>