<?xml version="1.0" encoding="UTF-8"?>
<svg id="Capa_1" data-name="Capa 1" xmlns="http://www.w3.org/2000/svg" viewBox="0 0 40 40">
  <defs>
    <style>
      .cls-1 {
        fill: none;
      }
    </style>
  </defs>
  <rect class="cls-1" width="40" height="40"/>
  <path d="m20,37.22c-1.14,0-2.28-.38-3.04-1.27-.89-.89-1.27-1.9-1.27-3.04s.38-2.28,1.27-3.04c.89-.89,1.9-1.27,3.04-1.27l1.27-1.27c.25-.25.63-.51,1.01-.63s.76-.25,1.14-.25c.89,0,1.52.25,2.15.89s.89,1.39.89,2.15v.89c0,.76.25,1.27.76,1.77s1.14.76,1.77.76c.51,0,1.01-.13,1.52-.51.38-.38.76-.76.89-1.27l.63-1.77c.25-.89.89-1.65,1.52-2.15.76-.51,1.52-.89,2.53-.89.38-1.01.76-2.03.89-3.16.25-1.14.38-2.15.38-3.29,0-3.16-.76-6.2-2.41-8.73-1.65-2.66-3.67-4.68-6.33-6.2v2.03c0,1.14-.38,2.15-1.27,3.04s-1.9,1.27-3.04,1.27h-2.15v4.3c0,.63-.25,1.14-.63,1.52-.38.38-.89.63-1.52.63h-2.15v3.67c0,.76-.25,1.52-.76,2.03s-1.27.76-2.03.76c-.51,0-.89-.13-1.39-.38-.38-.25-.76-.51-1.01-.89l-3.42-5.19h-2.28v2.28c0,1.14-.38,2.03-1.14,2.91-.76.76-1.65,1.27-2.66,1.39,1.01,3.8,3.04,6.84,6.08,9.37,3.16,2.41,6.71,3.54,10.76,3.54Zm4.3-12.91c-.63,0-1.14-.25-1.52-.63-.38-.38-.63-.89-.63-1.52s.25-1.14.63-1.52c.38-.38.89-.63,1.52-.63h2.15c.63,0,1.14.25,1.52.63.38.38.63.89.63,1.52s-.25,1.14-.63,1.52c-.38.38-.89.63-1.52.63h-2.15Zm5.06-6.46c-.76,0-1.27-.25-1.77-.89-.38-.51-.51-1.14-.38-1.9l.76-2.41c.13-.51.38-.76.76-1.01.38-.25.76-.38,1.14-.38.76,0,1.27.25,1.77.89.38.51.51,1.14.38,1.9l-.76,2.28c-.13.51-.38.76-.76,1.01-.38.38-.76.51-1.14.51Zm-9.37,22.15c-2.78,0-5.32-.51-7.85-1.52-2.41-1.01-4.56-2.53-6.33-4.3-1.77-1.77-3.29-3.92-4.3-6.33-1.01-2.41-1.52-5.06-1.52-7.85s.51-5.32,1.52-7.85c1.01-2.41,2.53-4.56,4.3-6.33s3.92-3.29,6.33-4.3C14.56.51,17.22,0,20,0s5.32.51,7.85,1.52,4.56,2.53,6.33,4.3c1.77,1.77,3.29,3.92,4.3,6.33,1.01,2.41,1.52,5.06,1.52,7.85s-.51,5.32-1.52,7.85c-1.01,2.41-2.53,4.56-4.3,6.33-1.77,1.77-3.92,3.29-6.33,4.3-2.53,1.01-5.06,1.52-7.85,1.52Z"/>
</svg>