<?xml version="1.0" encoding="UTF-8"?>
<svg id="Capa_1" data-name="Capa 1" xmlns="http://www.w3.org/2000/svg" viewBox="0 0 40 40">
  <defs>
    <style>
      .cls-1 {
        fill: none;
      }
    </style>
  </defs>
  <rect class="cls-1" width="40" height="40"/>
  <path d="m19.94,27.34c-3.8,0-7.09-1.39-9.75-4.05-2.66-2.53-3.92-5.82-3.92-9.62s1.39-7.09,4.05-9.75c2.53-2.66,5.82-3.92,9.62-3.92s7.09,1.39,9.75,4.05c2.66,2.66,4.05,5.95,4.05,9.75s-1.39,7.09-4.05,9.75c-2.66,2.53-5.95,3.8-9.75,3.8Zm0-2.66c3.04,0,5.7-1.01,7.85-3.16s3.16-4.81,3.16-7.85-1.01-5.7-3.16-7.85-4.81-3.16-7.85-3.16-5.7,1.01-7.85,3.16c-2.15,2.15-3.16,4.81-3.16,7.85s1.01,5.7,3.16,7.85c2.15,2.15,4.81,3.16,7.85,3.16Zm-4.3-11.39c.51,0,.89-.13,1.27-.51.38-.38.51-.76.51-1.27s-.13-.89-.51-1.27-.76-.51-1.27-.51-.89.13-1.27.51c-.38.38-.51.76-.51,1.27s.13.89.51,1.27c.25.38.76.51,1.27.51Zm8.61,0c.51,0,.89-.13,1.27-.51.38-.38.51-.76.51-1.27s-.13-.89-.51-1.27-.76-.51-1.27-.51-.89.13-1.27.51c-.38.38-.51.76-.51,1.27s.13.89.51,1.27c.38.38.76.51,1.27.51Zm-4.3-4.43c.51,0,.89-.13,1.27-.51.38-.38.51-.76.51-1.27s-.13-.89-.51-1.27-.76-.51-1.27-.51-.89.13-1.27.51c-.38.38-.51.76-.51,1.27s.13.89.51,1.27c.38.25.76.51,1.27.51Zm-1.27,31.01v-2.28c0-1.39-.51-2.53-1.39-3.42s-2.03-1.39-3.42-1.39h-2.28c-.38,0-.63-.13-.89-.38-.25-.25-.38-.63-.38-.89,0-.38.13-.63.38-.89s.51-.38.89-.38h16.84c.38,0,.63.13.89.38.25.25.38.63.38,1.01s-.13.63-.38.89c-.25.25-.51.38-.89.38h-2.28c-1.39,0-2.53.51-3.42,1.39s-1.39,2.03-1.39,3.42v2.28c-.13-.13-2.66-.13-2.66-.13Z"/>
</svg>