<?xml version="1.0" encoding="UTF-8"?>
<svg id="Capa_1" data-name="Capa 1" xmlns="http://www.w3.org/2000/svg" viewBox="0 0 40 40">
  <defs>
    <style>
      .cls-1 {
        fill: none;
      }
    </style>
  </defs>
  <rect class="cls-1" width="40" height="40"/>
  <path d="m6.62,17.5v2.5h3.63c-.13.88-.63,1.62-1.38,2-.63.37-1.38.63-2.25.63-1.75,0-3.13-1.12-3.75-2.75-.25-.88-.25-1.75,0-2.63h0c.5-1.62,2-2.75,3.75-2.75,1,0,1.88.38,2.5,1l1.88-1.88c-1.25-1.12-2.75-1.75-4.38-1.75-2.5,0-4.75,1.5-5.87,3.75-1,1.88-1,4.12,0,6h0c1.13,2.25,3.37,3.62,5.87,3.75,1.75,0,3.25-.63,4.38-1.62,1.25-1.12,2-2.87,2-4.87,0-.5,0-.88-.13-1.38h-6.25Zm24.37-.25c-.63-.63-1.5-.88-2.63-.88-1.38,0-2.5.5-3.13,1.5l1.25.88c.5-.75,1.12-1.12,2-1.12.5,0,1,.25,1.38.5.37.37.63.88.63,1.38v.37c-.63-.37-1.25-.5-2.13-.5-1,0-1.88.25-2.5.75s-.88,1.12-.88,2c0,.75.25,1.5.88,2s1.38.75,2.13.75c1,0,1.88-.5,2.5-1.38h0v1.12h1.38v-4.87c0-1.13-.25-2-.88-2.5Zm-1.25,5.5c-.5.5-1,.75-1.62.75-.37,0-.88-.13-1.12-.37s-.5-.63-.5-1c0-.5.25-.75.63-1.12s.88-.5,1.5-.5c.88,0,1.5.13,1.88.5,0,.75-.25,1.37-.75,1.75Zm-5.87-8.88c-.63-.63-1.62-1-2.5-1h-3.88v11.63h1.5v-4.75h2.5c1,0,1.88-.37,2.5-1l.13-.13c1.12-1.38,1.12-3.5-.25-4.75h0Zm-1,3.88c-.37.37-.88.63-1.5.63h-2.5v-4.13h2.5c.5,0,1,.25,1.38.63.88.87.88,2.12.13,2.88h0Zm15.5-1.13l-2.25,5.75h0l-2.38-5.75h-1.62l3.25,7.5-1.88,4h1.5l5-11.5h-1.62Z"/>
</svg>