<?xml version="1.0" encoding="UTF-8"?>
<svg id="Capa_1" data-name="Capa 1" xmlns="http://www.w3.org/2000/svg" viewBox="0 0 40 40">
  <defs>
    <style>
      .cls-1 {
        fill: none;
      }
    </style>
  </defs>
  <rect class="cls-1" width="40" height="40"/>
  <path d="m20,0C9,0,0,9,0,20s9,20,20,20,20-9,20-20S31,0,20,0Zm-5.75,30c-5.5,0-10-4.5-10-10s4.5-10,10-10c2.5,0,4.87.87,6.75,2.63l-2.75,2.63c-1.12-1-2.5-1.5-4-1.5-3.5,0-6.25,2.88-6.25,6.25s2.75,6.25,6.25,6.25c2.62,0,5.25-1.5,5.62-4.25h-5.62v-3.38h9.5c.13.5.13,1.12.13,1.62,0,5.63-3.88,9.75-9.63,9.75Zm18.62-8.62v2.87h-2.87v-2.87h-2.87v-2.87h2.87v-2.87h2.87v2.87h2.87v2.87h-2.87Z"/>
</svg>