<?xml version="1.0" encoding="UTF-8"?>
<svg id="Capa_1" data-name="Capa 1" xmlns="http://www.w3.org/2000/svg" viewBox="0 0 40 40">
  <defs>
    <style>
      .cls-1 {
        fill: none;
      }
    </style>
  </defs>
  <rect class="cls-1" width="40" height="40"/>
  <path d="m24.25,18.2c.13.62.25,1.24.25,2.11,0,7.09-4.75,12.19-12,12.19-6.88-.12-12.5-5.72-12.5-12.56S5.62,7.5,12.5,7.5c3.38,0,6.25,1.24,8.38,3.23l-3.38,3.23c-.88-.87-2.5-1.87-5-1.87-4.25,0-7.75,3.48-7.75,7.84s3.5,7.84,7.75,7.84c5,0,6.75-3.61,7.13-5.35h-7.13v-4.23h11.75Zm12.12.37v-3.61h-3.62v3.61h-3.62v3.61h3.62v3.61h3.62v-3.61h3.63v-3.61h-3.63Z"/>
</svg>