<?xml version="1.0" encoding="UTF-8"?>
<svg id="Capa_1" data-name="Capa 1" xmlns="http://www.w3.org/2000/svg" viewBox="0 0 40 40">
  <defs>
    <style>
      .cls-1 {
        fill: none;
      }

      .cls-2 {
        fill: #1d1d1b;
      }
    </style>
  </defs>
  <rect class="cls-1" width="40" height="40"/>
  <g id="Grupo_4376" data-name="Grupo 4376">
    <path id="Trazado_2304" data-name="Trazado 2304" class="cls-2" d="m5.93,18.08c-.58-.5-1.25-.75-2-.83-1.5,0-2.67,1.08-2.75,2.58v.25c-.08,1.42,1,2.58,2.33,2.67h.33c.67,0,1.33-.25,1.83-.67v-1.5h-2v-1.08h3.17v3c-.75.83-1.75,1.33-2.92,1.25-2,.17-3.67-1.25-3.92-3.25v-.58c-.17-2.08,1.42-3.83,3.5-3.92h.42c1,0,2,.42,2.75,1.08l-.75,1Z"/>
    <path id="Trazado_2305" data-name="Trazado 2305" class="cls-2" d="m15.34,20.08c0,2.08-1.67,3.83-3.75,3.83s-3.83-1.67-3.83-3.75c-.08-2.08,1.5-3.75,3.5-3.92h.33c2-.08,3.67,1.5,3.75,3.5,0,.08,0,.25,0,.33Zm-3.83,2.75c1.33.08,2.58-1,2.67-2.33v-.42c.08-1.42-.92-2.67-2.42-2.83h-.25c-1.5.08-2.75,1.33-2.67,2.92.17,1.42,1.25,2.58,2.67,2.67h0Z"/>
    <path id="Trazado_2306" data-name="Trazado 2306" class="cls-2" d="m20.01,23.92h-1.25l-3.17-7.67h1.42l2.42,6.25,2.42-6.25h1.33l-3.17,7.67Z"/>
    <path id="Trazado_2307" data-name="Trazado 2307" class="cls-2" d="m23.92,23.17c0,.42-.33.75-.75.83-.42,0-.75-.33-.83-.75v-.08c0-.42.42-.75.83-.75.42,0,.75.33.75.75Z"/>
    <path id="Trazado_2308" data-name="Trazado 2308" class="cls-2" d="m31.42,22.83c-.75.75-1.75,1.17-2.83,1.08-2,.17-3.75-1.33-3.92-3.33v-.42c-.08-2.08,1.5-3.83,3.5-3.92h.42c1,0,2,.42,2.75,1.17l-.83.75c-.5-.5-1.17-.75-1.92-.75-1.42-.08-2.67,1-2.75,2.5v.33c-.08,1.42,1,2.67,2.42,2.75h.33c.75,0,1.42-.33,2-.83l.83.67Z"/>
    <path id="Trazado_2309" data-name="Trazado 2309" class="cls-2" d="m40,20.08c0,2.08-1.58,3.83-3.75,3.83s-3.83-1.58-3.83-3.75v-.17c-.08-2.08,1.5-3.75,3.5-3.92h.25c2-.08,3.67,1.5,3.75,3.5.08.25.08.42.08.5Zm-3.75,2.75c1.33.08,2.5-1,2.58-2.33v-.42c.08-1.42-.92-2.67-2.33-2.83h-.25c-1.5.08-2.67,1.33-2.67,2.92.08,1.5,1.17,2.58,2.67,2.67h0Z"/>
  </g>
</svg>