<?xml version="1.0" encoding="UTF-8"?>
<svg id="Capa_1" data-name="Capa 1" xmlns="http://www.w3.org/2000/svg" viewBox="0 0 40 40">
  <defs>
    <style>
      .cls-1 {
        fill: none;
      }
    </style>
  </defs>
  <rect class="cls-1" width="40" height="40"/>
  <path d="m19.08,36.62c-.27,0-.54-.03-.81-.1-.27-.07-.53-.17-.79-.32l-10.61-5.78c-.51-.29-.93-.69-1.23-1.2-.31-.51-.46-1.08-.46-1.71v-9.4L.84,15.74c-.28-.16-.49-.36-.62-.61-.13-.25-.21-.52-.22-.82,0-.3.07-.57.21-.82.14-.24.35-.45.63-.6L17.49,3.8c.25-.13.51-.24.78-.31.27-.07.54-.11.81-.11s.55.04.81.11c.27.07.52.18.76.32l18.48,10.03c.28.17.49.38.64.63.15.26.23.53.23.83v12.71c0,.37-.13.69-.38.94-.25.25-.57.38-.94.38s-.69-.13-.94-.38c-.25-.25-.37-.57-.37-.94v-12.18l-4.39,2.28v9.4c0,.63-.15,1.2-.46,1.71-.31.51-.72.91-1.24,1.2l-10.61,5.78c-.25.15-.51.25-.77.32-.27.07-.53.1-.81.1Zm-.24-14.04c.09.05.17.08.25.08.08,0,.16-.03.26-.08l15.13-8.25-15.13-8.15c-.09-.05-.18-.08-.26-.08s-.16.03-.25.08L3.73,14.32l15.11,8.25Zm-.02,11.37c.09.05.17.08.26.08s.17-.03.27-.08l10.69-5.85c.11-.06.18-.13.23-.23.05-.09.07-.21.07-.34v-7.89l-9.67,5.24c-.25.14-.51.24-.77.3s-.54.09-.82.09-.55-.03-.81-.09-.51-.16-.76-.3l-9.69-5.29v7.95c0,.12.02.23.07.33.05.1.12.18.23.24,0,0,10.69,5.85,10.69,5.85Z"/>
</svg>