<?xml version="1.0" encoding="UTF-8"?>
<svg id="Capa_1" data-name="Capa 1" xmlns="http://www.w3.org/2000/svg" viewBox="0 0 40 40">
  <defs>
    <style>
      .cls-1 {
        fill: none;
      }
    </style>
  </defs>
  <rect class="cls-1" width="40" height="40"/>
  <path d="m27.32,17.16c.74,0,1.36-.25,1.86-.74.5-.49.74-1.11.74-1.86s-.25-1.37-.74-1.86c-.49-.49-1.11-.74-1.86-.74s-1.37.25-1.86.74c-.49.49-.74,1.11-.74,1.86s.24,1.37.73,1.86c.49.49,1.11.74,1.86.74Zm-14.64,0c.75,0,1.37-.25,1.86-.74.49-.49.74-1.11.74-1.86,0-.75-.24-1.37-.73-1.86-.49-.49-1.11-.74-1.86-.74s-1.36.25-1.86.74c-.5.49-.74,1.11-.74,1.86s.25,1.37.74,1.86c.49.49,1.11.74,1.86.74Zm7.32,13.75c1.84,0,3.59-.44,5.25-1.32,1.66-.88,3-2.14,4.01-3.8.24-.38.27-.7.08-.99-.19-.28-.5-.42-.93-.42H11.59c-.43,0-.74.14-.92.42-.18.28-.15.61.09.99,1.03,1.66,2.36,2.92,4.01,3.8,1.65.88,3.39,1.32,5.23,1.32Zm.01,9.09c-2.77,0-5.37-.52-7.79-1.57-2.43-1.05-4.54-2.48-6.35-4.29-1.81-1.81-3.24-3.93-4.29-6.35-1.05-2.42-1.58-5.02-1.58-7.79s.52-5.36,1.57-7.8c1.05-2.43,2.48-4.55,4.29-6.35,1.81-1.8,3.93-3.23,6.35-4.28C14.65.53,17.24,0,20.01,0s5.36.52,7.8,1.57c2.43,1.05,4.55,2.47,6.35,4.27,1.8,1.8,3.23,3.92,4.28,6.35,1.05,2.43,1.58,5.03,1.58,7.79s-.52,5.37-1.57,7.79c-1.05,2.43-2.47,4.54-4.27,6.35-1.8,1.81-3.92,3.24-6.35,4.29-2.43,1.05-5.03,1.58-7.79,1.58Zm0-2.65c4.81,0,8.91-1.69,12.28-5.08,3.37-3.38,5.06-7.48,5.06-12.29s-1.69-8.91-5.06-12.28c-3.37-3.37-7.46-5.06-12.28-5.06-4.81,0-8.91,1.69-12.3,5.06-3.38,3.37-5.08,7.46-5.08,12.28s1.69,8.91,5.08,12.3c3.38,3.38,7.48,5.08,12.29,5.08Z"/>
</svg>