<?xml version="1.0" encoding="UTF-8"?>
<svg id="Capa_1" data-name="Capa 1" xmlns="http://www.w3.org/2000/svg" viewBox="0 0 40 40">
  <defs>
    <style>
      .cls-1 {
        fill: none;
      }
    </style>
  </defs>
  <rect class="cls-1" width="40" height="40"/>
  <path d="m25.62,38.12c0,.5-.13,1-.5,1.37-.38.38-.88.5-1.38.5s-1-.12-1.38-.5c-.37-.37-.5-.75-.5-1.37V1.88c0-.5.13-1,.5-1.38.38-.37.88-.5,1.38-.5s1,.13,1.38.5c.37.38.5.75.5,1.38v36.25Zm-7.5,0c0,.5-.13,1-.5,1.37-.38.38-.88.5-1.38.5s-1-.12-1.38-.5c-.37-.37-.5-.75-.5-1.37V1.88c0-.5.13-1,.5-1.38.38-.37.88-.5,1.38-.5s1,.13,1.38.5c.37.38.5.75.5,1.38v36.25Z"/>
</svg>