<?xml version="1.0" encoding="UTF-8"?>
<svg id="Capa_1" data-name="Capa 1" xmlns="http://www.w3.org/2000/svg" viewBox="0 0 40 40">
  <defs>
    <style>
      .cls-1 {
        fill: none;
      }
    </style>
  </defs>
  <rect class="cls-1" width="40" height="40"/>
  <path d="m11.8,40c-1.07,0-1.99-.39-2.76-1.16-.77-.77-1.16-1.7-1.16-2.77s.39-1.99,1.16-2.76c.77-.77,1.7-1.16,2.77-1.16s1.99.39,2.76,1.16c.77.77,1.16,1.7,1.16,2.77s-.39,1.99-1.16,2.76c-.77.77-1.7,1.16-2.77,1.16Zm16.4,0c-1.07,0-1.99-.39-2.76-1.16-.77-.77-1.16-1.7-1.16-2.77s.39-1.99,1.16-2.76c.77-.77,1.7-1.16,2.77-1.16s1.99.39,2.76,1.16c.77.77,1.16,1.7,1.16,2.77s-.39,1.99-1.16,2.76c-.77.77-1.7,1.16-2.77,1.16ZM11.8,23.92c-1.07,0-1.99-.39-2.76-1.16-.77-.77-1.16-1.7-1.16-2.77s.39-1.99,1.16-2.76c.77-.77,1.7-1.16,2.77-1.16s1.99.39,2.76,1.16c.77.77,1.16,1.7,1.16,2.77s-.39,1.99-1.16,2.76c-.77.77-1.7,1.16-2.77,1.16Zm16.4,0c-1.07,0-1.99-.39-2.76-1.16-.77-.77-1.16-1.7-1.16-2.77s.39-1.99,1.16-2.76c.77-.77,1.7-1.16,2.77-1.16s1.99.39,2.76,1.16c.77.77,1.16,1.7,1.16,2.77s-.39,1.99-1.16,2.76c-.77.77-1.7,1.16-2.77,1.16ZM11.8,7.85c-1.07,0-1.99-.39-2.76-1.16-.77-.77-1.16-1.7-1.16-2.77s.39-1.99,1.16-2.76c.77-.77,1.7-1.16,2.77-1.16s1.99.39,2.76,1.16c.77.77,1.16,1.7,1.16,2.77s-.39,1.99-1.16,2.76c-.77.77-1.7,1.16-2.77,1.16Zm16.4,0c-1.07,0-1.99-.39-2.76-1.16-.77-.77-1.16-1.7-1.16-2.77s.39-1.99,1.16-2.76c.77-.77,1.7-1.16,2.77-1.16s1.99.39,2.76,1.16c.77.77,1.16,1.7,1.16,2.77s-.39,1.99-1.16,2.76c-.77.77-1.7,1.16-2.77,1.16Z"/>
</svg>