<?xml version="1.0" encoding="UTF-8"?>
<svg id="Capa_1" data-name="Capa 1" xmlns="http://www.w3.org/2000/svg" viewBox="0 0 40 40">
  <defs>
    <style>
      .cls-1 {
        fill: none;
      }
    </style>
  </defs>
  <rect class="cls-1" width="40" height="40"/>
  <path d="m0,11.88c0-1.25.38-2.25,1.25-3.12s1.88-1.25,3.12-1.25,2.25.38,3.12,1.25,1.25,1.88,1.25,3.12-.38,2.25-1.25,3.12-1.88,1.25-3.12,1.25-2.25-.37-3.12-1.25-1.25-1.88-1.25-3.12Zm0,16.25c0-1.25.38-2.25,1.25-3.12s1.88-1.25,3.12-1.25,2.25.37,3.12,1.25,1.25,1.88,1.25,3.12-.38,2.25-1.25,3.12-1.88,1.25-3.12,1.25-2.25-.37-3.12-1.25-1.25-1.88-1.25-3.12ZM15.62,11.88c0-1.25.37-2.25,1.25-3.12s1.88-1.25,3.12-1.25,2.25.38,3.12,1.25,1.25,1.88,1.25,3.12-.37,2.25-1.25,3.12-1.88,1.25-3.12,1.25-2.25-.37-3.12-1.25-1.25-1.88-1.25-3.12Zm0,16.25c0-1.25.37-2.25,1.25-3.12s1.88-1.25,3.12-1.25,2.25.37,3.12,1.25,1.25,1.88,1.25,3.12-.37,2.25-1.25,3.12-1.88,1.25-3.12,1.25-2.25-.37-3.12-1.25-1.25-1.88-1.25-3.12Zm15.62-16.25c0-1.25.37-2.25,1.25-3.12s1.88-1.25,3.12-1.25,2.25.38,3.12,1.25,1.25,1.88,1.25,3.12-.37,2.25-1.25,3.12-1.88,1.25-3.12,1.25-2.25-.37-3.12-1.25-1.25-1.88-1.25-3.12Zm0,16.25c0-1.25.37-2.25,1.25-3.12s1.88-1.25,3.12-1.25,2.25.37,3.12,1.25,1.25,1.88,1.25,3.12-.37,2.25-1.25,3.12-1.88,1.25-3.12,1.25-2.25-.37-3.12-1.25-1.25-1.88-1.25-3.12Z"/>
</svg>