<?xml version="1.0" encoding="UTF-8"?>
<svg id="Capa_1" data-name="Capa 1" xmlns="http://www.w3.org/2000/svg" viewBox="0 0 40 40">
  <defs>
    <style>
      .cls-1 {
        fill: none;
      }
    </style>
  </defs>
  <rect class="cls-1" width="40" height="40"/>
  <path d="m1.38,15.63c-.38,0-.75-.13-1-.37-.25-.25-.38-.62-.38-1v-.25c0-3.5,1.63-6.38,4.89-8.37,3.26-2.13,8.28-3.13,14.92-3.13s11.66,1,14.92,3.12c3.26,2.12,4.89,4.88,4.89,8.37v.25c0,.38-.13.75-.38,1s-.63.37-1,.37H1.38Zm1.25-2.63h34.23c-.13-2.37-1.76-4.25-4.76-5.75-3.01-1.5-7.15-2.25-12.41-2.25s-9.4.75-12.41,2.25-4.51,3.37-4.64,5.75ZM0,23c0-.25.13-.5.38-.88.25-.25.5-.5.88-.62.88-.25,1.63-.62,2.38-1.12s1.76-.75,3.26-.75c1.76,0,2.88.37,3.64,1.12.63.75,1.63,1.12,2.88,1.12s2.26-.37,3.01-1.12c.63-.75,1.88-1.12,3.64-1.12s3.01.37,3.64,1.12,1.63,1.12,3.01,1.12,2.26-.37,2.88-1.12,1.76-1.12,3.51-1.12c1.38,0,2.51.25,3.26.75s1.5.88,2.38,1.12c.38.13.63.37.88.62s.38.5.38.88-.13.75-.5,1c-.25.25-.63.37-1,.25-1.13-.25-2.01-.62-2.63-1.12s-1.5-.88-2.63-.88c-1.38,0-2.26.37-3.01,1.12-.63.75-1.88,1.12-3.64,1.12s-3.01-.37-3.64-1.12c-.88-.75-1.76-1.12-3.13-1.12s-2.26.37-3.01,1.12c-.63.75-1.88,1.12-3.64,1.12s-2.88-.37-3.64-1.12c-.63-.75-1.63-1.12-2.88-1.12-1.13,0-2.01.25-2.63.88-.63.5-1.5,1-2.63,1.12-.38.13-.75,0-1-.25-.25-.25-.38-.62-.38-1Zm3.26,14.5c-.88,0-1.63-.37-2.26-1s-1-1.37-1-2.25v-2.5c0-.88.38-1.62,1-2.25s1.38-1,2.26-1h33.23c.88,0,1.63.37,2.26,1s1,1.38,1,2.25v2.5c0,.88-.38,1.62-1,2.25s-1.38,1-2.26,1H3.26Zm0-2.63h33.23c.13,0,.38,0,.5-.13.13-.13.13-.25.13-.5v-2.5c0-.13,0-.37-.13-.5s-.25-.13-.5-.13H3.26c-.13,0-.38,0-.5.13s-.13.25-.13.5v2.5c0,.13,0,.37.13.5.13,0,.25.13.5.13Zm-.63-21.87h34.23H2.63Zm.63,18h-.63,34.48H3.26Z"/>
</svg>