<?xml version="1.0" encoding="UTF-8"?>
<svg id="Capa_1" data-name="Capa 1" xmlns="http://www.w3.org/2000/svg" viewBox="0 0 40 40">
  <defs>
    <style>
      .cls-1 {
        fill: none;
      }
    </style>
  </defs>
  <rect class="cls-1" width="40" height="40"/>
  <path d="m15.22,40c-.59,0-1.06-.25-1.39-.75s-.5-1.06-.5-1.69V11.11H2.22c0-3.07,1.08-5.69,3.25-7.86S10.26,0,13.33,0h10c.92,0,1.7.33,2.35.98s.98,1.44.98,2.35v4.56l6.94-7.06c.23-.23.55-.42.95-.59.4-.16.77-.25,1.1-.25.59,0,1.09.2,1.5.61.41.41.61.91.61,1.5v14.89c0,.59-.2,1.09-.61,1.5-.41.41-.93.61-1.56.61-.33,0-.68-.08-1.07-.25-.39-.16-.7-.36-.93-.59l-6.94-7.06v26.33c0,.67-.24,1.24-.72,1.72-.48.48-1.06.72-1.72.72h-9Zm1.44-3.33h6.67v-13.17h-6.67v13.17Zm0-16.5h6.67V3.33h-10c-1.44,0-2.83.41-4.17,1.22s-2.28,1.89-2.83,3.22h10.33v12.39Zm6.67,0V3.33v16.83Zm0,16.5v-13.17,13.17Z"/>
</svg>