<?xml version="1.0" encoding="UTF-8"?>
<svg id="Capa_1" data-name="Capa 1" xmlns="http://www.w3.org/2000/svg" viewBox="0 0 40 40">
  <defs>
    <style>
      .cls-1 {
        fill: none;
      }
    </style>
  </defs>
  <rect class="cls-1" width="40" height="40"/>
  <path d="m24.92,27.3l11.84-3.72c-.19-.29-.48-.57-.76-.95s-.67-.57-.95-.57h-11.36c-.1,0-.38,0-.86-.1-.48,0-.95-.19-1.43-.38l-3.15-.95c-.38-.1-.67-.38-.86-.76s-.19-.76-.1-1.15.38-.67.76-.86c.38-.19.76-.19,1.15-.1l4.39,1.43c-.1,0,.19,0,.67,0h2.77c0-.38-.1-.76-.19-1.15-.1-.38-.38-.57-.76-.76l-11.74-4.49h-4.01v10.21l14.61,4.3Zm-.57,2.77l-14.03-4.01c-.1.86-.38,1.53-1.05,2s-1.24.76-1.81.76H2.86c-.76,0-1.43-.29-2-.86-.57-.67-.86-1.34-.86-2.1v-13.08c0-.76.29-1.43.86-2,.57-.57,1.24-.86,2-.86h11.84c.19,0,.29.1.48.1l11.65,4.39c.86.29,1.62.86,2.2,1.53.57.76.86,1.72.86,3.05h5.44c1.34,0,2.48.48,3.34,1.43s1.34,2.2,1.34,3.82c0,.38-.1.67-.19.95-.19.29-.38.48-.76.57l-13.17,4.01c-.29.1-.57.1-.86.1-.19.29-.48.19-.67.19ZM2.86,25.86h4.49v-13.08H2.86v13.08Z"/>
</svg>