<?xml version="1.0" encoding="UTF-8"?>
<svg id="Capa_1" data-name="Capa 1" xmlns="http://www.w3.org/2000/svg" viewBox="0 0 40 40">
  <defs>
    <style>
      .cls-1 {
        fill: none;
      }
    </style>
  </defs>
  <rect class="cls-1" width="40" height="40"/>
  <path d="m28.81,19.9c-.2,0-.39-.03-.57-.09-.18-.06-.35-.16-.5-.3-2.83-2.49-5.23-4.86-7.18-7.12-1.95-2.26-2.93-4.35-2.93-6.28,0-1.6.55-2.95,1.65-4.06,1.1-1.1,2.46-1.66,4.07-1.66.96,0,1.92.26,2.87.79.95.53,1.81,1.28,2.58,2.26.77-.98,1.63-1.74,2.58-2.26.95-.53,1.91-.79,2.87-.79,1.61,0,2.97.55,4.07,1.66,1.1,1.1,1.65,2.46,1.65,4.06,0,1.93-.98,4.02-2.93,6.28-1.95,2.26-4.34,4.63-7.18,7.12-.14.14-.31.24-.5.3-.19.06-.39.09-.59.09Zm.01-2.92c2.24-1.97,4.24-3.93,6.01-5.87,1.77-1.94,2.65-3.61,2.65-5.01,0-.93-.3-1.69-.9-2.29-.6-.6-1.36-.9-2.3-.9-.55,0-1.13.15-1.73.44-.6.29-1.22.86-1.87,1.71l-1.86,2.31-1.88-2.31c-.65-.85-1.27-1.42-1.87-1.71-.6-.29-1.17-.44-1.71-.44-.94,0-1.71.3-2.31.9-.6.6-.9,1.36-.9,2.29,0,1.39.88,3.06,2.65,5.01,1.77,1.94,3.77,3.9,6.01,5.87Zm-4.34,20.08c.06.03.12.04.18.04s.11-.01.17-.04l12.03-3.74c-.12-.44-.33-.83-.65-1.17-.32-.34-.68-.51-1.07-.51h-10.69c-.46,0-1-.03-1.61-.09-.61-.06-1.22-.21-1.83-.45l-3.37-1.05c-.34-.11-.59-.34-.76-.67-.16-.34-.19-.68-.07-1.02.11-.33.33-.57.64-.73.31-.16.65-.17,1-.04l3.85,1.33c.29.11.78.17,1.45.19.67.02,1.56.03,2.65.02h.48c0-.52-.1-.97-.29-1.35-.19-.38-.48-.65-.88-.8l-11.89-4.44s-.08-.02-.11-.03c-.03,0-.06,0-.1,0h-4.2v10.18s15.07,4.4,15.07,4.4Zm-.58,2.44l-14.49-4.19c-.13.85-.52,1.52-1.18,2-.66.48-1.31.73-1.96.73h-3.15c-.86,0-1.6-.31-2.21-.92C.31,36.49,0,35.75,0,34.89v-11.8c0-.87.31-1.6.92-2.22.62-.61,1.35-.92,2.21-.92h10.42c.19,0,.37.02.55.06.18.04.36.08.53.14l11.92,4.43c.82.3,1.51.82,2.08,1.55.57.73.85,1.72.85,2.97h5.85c1.3,0,2.35.44,3.14,1.33.79.88,1.19,2.04,1.19,3.47,0,.39-.1.73-.29,1.01-.19.28-.49.49-.89.63l-12.8,3.94c-.28.08-.58.12-.89.12-.31,0-.61-.04-.9-.11h0Zm-21.39-4.6c0,.17.06.32.17.44.12.12.26.18.44.18h3.11c.18,0,.33-.05.44-.15.12-.1.17-.26.17-.47v-12.41h-3.73c-.18,0-.33.06-.44.17-.12.12-.17.26-.17.44v11.8Z"/>
</svg>