<?xml version="1.0" encoding="UTF-8"?>
<svg id="Capa_1" data-name="Capa 1" xmlns="http://www.w3.org/2000/svg" viewBox="0 0 40 40">
  <defs>
    <style>
      .cls-1 {
        fill: none;
      }
    </style>
  </defs>
  <rect class="cls-1" width="40" height="40"/>
  <path d="m19.77,35.43c.15,0,.33-.04.52-.11s.36-.17.48-.3l15.32-15.36c.39-.39.69-.84.89-1.35.2-.51.3-1.01.3-1.52s-.1-1.03-.3-1.55-.49-.97-.89-1.36l-8.18-8.18c-.39-.39-.85-.69-1.36-.89s-1.03-.3-1.55-.3-1.01.1-1.52.3c-.51.2-.95.49-1.35.89l-.82.82,3.68,3.73c.39.42.74.92,1.05,1.48s.45,1.17.45,1.84c0,1.15-.45,2.17-1.34,3.05s-1.92,1.32-3.07,1.32c-.76,0-1.39-.11-1.89-.34s-.96-.55-1.37-.97l-3.33-3.33-8.23,8.23c-.15.15-.26.31-.32.48-.06.17-.09.35-.09.54,0,.38.13.7.39.96s.58.39.96.39c.19,0,.37-.05.54-.14s.31-.2.43-.32l6.27-6.27,1.91,1.91-6.23,6.23c-.15.15-.26.32-.32.5s-.09.36-.09.55c0,.36.14.68.41.95s.59.41.95.41c.18,0,.36-.04.52-.11s.31-.17.43-.3l6.27-6.27,1.91,1.91-6.23,6.23c-.12.12-.22.28-.3.47-.08.19-.11.38-.11.58,0,.36.14.68.41.95s.59.41.95.41c.18,0,.35-.03.5-.09s.3-.17.45-.32l6.27-6.27,1.91,1.91-6.27,6.27c-.15.15-.26.32-.32.5s-.09.35-.09.5c0,.42.12.76.36,1s.58.36,1,.36Zm0,2.73c-1,0-1.9-.37-2.68-1.11s-1.26-1.66-1.41-2.76c-1.03-.15-1.89-.57-2.59-1.27s-1.12-1.56-1.27-2.59c-1.03-.15-1.89-.58-2.57-1.3s-1.1-1.57-1.25-2.57c-1.12-.15-2.05-.61-2.77-1.36s-1.09-1.67-1.09-2.73c0-.52.1-1.03.31-1.55.2-.52.5-.97.88-1.36l10.18-10.18,5,5c.24.24.51.43.79.57.28.14.57.2.85.2.39,0,.77-.17,1.11-.52s.52-.72.52-1.12c0-.18-.05-.38-.16-.61s-.28-.46-.52-.7l-6.5-6.5c-.39-.39-.85-.69-1.36-.89s-1.03-.3-1.55-.3-1.01.1-1.52.3c-.51.2-.95.49-1.35.88l-6.91,6.92c-.42.42-.72.87-.89,1.34s-.27,1-.3,1.59.08,1.17.34,1.73.57,1.07.93,1.52l-1.95,1.95c-.61-.67-1.1-1.47-1.48-2.41-.38-.94-.57-1.89-.57-2.86,0-.91.17-1.78.52-2.61s.84-1.57,1.48-2.2l6.86-6.86c.67-.67,1.42-1.16,2.26-1.48.84-.32,1.71-.48,2.59-.48s1.74.16,2.58.48,1.58.81,2.25,1.48l.82.82.82-.82c.67-.67,1.42-1.16,2.26-1.48.84-.32,1.71-.48,2.59-.48s1.74.16,2.58.48,1.58.81,2.25,1.48l8.14,8.14c.67.67,1.17,1.42,1.5,2.27.33.85.5,1.71.5,2.59s-.17,1.73-.5,2.57-.83,1.58-1.5,2.25l-15.32,15.32c-.39.39-.84.7-1.34.91s-1.02.32-1.56.32Z"/>
</svg>