<?xml version="1.0" encoding="UTF-8"?>
<svg id="Capa_1" data-name="Capa 1" xmlns="http://www.w3.org/2000/svg" viewBox="0 0 40 40">
  <defs>
    <style>
      .cls-1 {
        fill: none;
      }
    </style>
  </defs>
  <rect class="cls-1" width="40" height="40"/>
  <path d="m31.72,12.05c-1.13,0-2.13-.44-3.01-1.32-.88-.88-1.32-1.89-1.32-3.02,0-1.33.42-2.64,1.26-3.94.84-1.3,1.66-2.45,2.44-3.46.16-.21.37-.31.62-.31s.47.1.64.31c.78,1.01,1.6,2.16,2.44,3.45.84,1.3,1.26,2.61,1.26,3.95,0,1.13-.44,2.13-1.32,3.01-.88.88-1.88,1.32-3.01,1.32Zm-23.67,27.95c-2.06,0-3.8-.68-5.24-2.03-1.43-1.35-2.15-3.06-2.15-5.12v-10.52c0-.91.22-1.77.65-2.57.43-.8,1.03-1.45,1.8-1.95l15.65-10.11c.27-.19.55-.25.85-.19.3.06.56.2.78.42.5.5.76,1.07.79,1.71.03.64-.14,1.26-.51,1.86l-3.22,5.27h16.53c.36,0,.67.12.91.37.24.25.37.55.37.91s-.12.66-.37.9c-.24.25-.55.37-.91.37H15.72c-.63,0-1.09-.27-1.4-.81-.31-.54-.3-1.08.02-1.61l3.37-5.51-13.19,8.58c-.42.25-.74.58-.96.99-.23.41-.34.87-.34,1.36v10.52c0,1.33.47,2.43,1.42,3.29.95.87,2.08,1.3,3.41,1.3h23.9c.36,0,.67.12.91.37.24.25.37.55.37.91s-.12.66-.37.9c-.24.25-.55.37-.91.37,0,0-23.9,0-23.9,0Zm30.01-13.78h-15.76c-.36,0-.67-.12-.91-.37-.24-.25-.37-.55-.37-.92s.12-.67.37-.91c.24-.24.55-.36.91-.36h15.76c.36,0,.67.12.91.37.24.25.37.55.37.91s-.12.66-.37.9c-.24.25-.55.37-.91.37Zm-2.04,6.89h-13.73c-.36,0-.67-.12-.91-.37-.24-.25-.37-.55-.37-.92s.12-.67.37-.91c.24-.24.55-.36.91-.36h13.73c.36,0,.67.12.91.37.24.25.37.55.37.91s-.12.66-.37.9c-.24.25-.55.37-.91.37Z"/>
</svg>