<?xml version="1.0" encoding="UTF-8"?>
<svg id="Capa_1" data-name="Capa 1" xmlns="http://www.w3.org/2000/svg" viewBox="0 0 40 40">
  <defs>
    <style>
      .cls-1 {
        fill: none;
      }
    </style>
  </defs>
  <rect class="cls-1" width="40" height="40"/>
  <path d="m18.4,40c-.81,0-1.62-.23-2.31-.59s-1.39-.94-1.85-1.64L2.66,20.53c-.12-.23-.23-.47-.12-.7,0-.23.12-.47.35-.7.46-.47,1.04-.7,1.74-.82.46-.12,1.04.12,1.74.47l6.25,4.57V5.04c0-.35.12-.59.35-.82s.58-.35.93-.35.58.12.81.35c.23.23.35.47.35.82v20.06c0,.59-.23,1.06-.81,1.41-.58.23-1.04.23-1.62-.12l-6.02-4.34,9.61,14.31c.23.35.58.7.93.82.35.23.81.35,1.27.35h12.27c1.27,0,2.31-.47,3.24-1.29.93-.94,1.27-1.99,1.27-3.28V6.45c0-.35.12-.59.35-.82s.58-.35.81-.35c.35,0,.58.12.81.35.23.23.35.47.35.82v26.39c0,1.99-.69,3.64-2.08,5.04-1.39,1.41-3.01,2.11-4.98,2.11h-12.04ZM21.41,0c.35,0,.58.12.81.35.23.23.35.47.35.82v17.01c0,.35-.12.59-.35.82-.23.23-.58.35-.81.35-.35,0-.58-.12-.81-.35-.23-.23-.35-.47-.35-.82V1.17c0-.35.12-.59.35-.82.12-.23.46-.35.81-.35Zm7.52,1.88c.35,0,.58.12.81.35.23.23.35.47.35.82v15.13c0,.35-.12.59-.35.82-.23.23-.58.35-.93.35s-.58-.12-.81-.35c-.23-.23-.35-.47-.35-.82V3.17c0-.35.12-.59.35-.82.35-.35.58-.47.93-.47Z"/>
</svg>