<?xml version="1.0" encoding="UTF-8"?>
<svg id="Capa_1" data-name="Capa 1" xmlns="http://www.w3.org/2000/svg" viewBox="0 0 40 40">
  <defs>
    <style>
      .cls-1 {
        fill: none;
      }
    </style>
  </defs>
  <rect class="cls-1" width="40" height="40"/>
  <path d="m26.34,12.38c-.75,0-1.41-.29-1.97-.86s-.85-1.24-.85-2,.28-1.43.85-2c.56-.57,1.22-.86,1.97-.86s1.41.29,1.97.86c.56.57.85,1.24.85,2s-.28,1.43-.85,2c-.56.57-1.22.86-1.97.86Zm9.87,0c-.94,0-1.69-.29-2.35-.95s-.94-1.43-.94-2.38.28-1.71.94-2.38,1.41-.95,2.35-.95,1.69.29,2.35.95c.66.67.94,1.43.94,2.38s-.28,1.71-.94,2.38-1.41.95-2.35.95Zm-6.58-7.62c-.66,0-1.22-.19-1.69-.67s-.66-1.05-.66-1.71.19-1.24.66-1.71,1.03-.67,1.69-.67,1.22.19,1.69.67.66,1.05.66,1.71-.19,1.24-.66,1.71-1.03.67-1.69.67ZM7.55,40c-1.97,0-3.67-.67-4.98-2.1-1.32-1.43-2.07-3.05-2.07-5.05v-10.29c0-.86.19-1.71.66-2.48.38-.76,1.03-1.43,1.69-1.9l14.28-9.33c.38-.29.66-.29,1.03-.19s.66.29.85.57c.47.48.75,1.05.85,1.71s-.09,1.24-.38,1.81l-2.82,4.38h16.26c.38,0,.75.1,1.03.38s.38.57.38,1.05c0,.38-.09.76-.38.95-.28.29-.56.48-1.03.48H14.13c-.56,0-.94-.29-1.22-.76s-.28-.95,0-1.43l2.91-4.76-11.47,7.62c-.38.19-.66.48-.85.86-.09.29-.19.67-.19,1.05v10.29c0,1.14.38,2.19,1.22,3.05.85.86,1.79,1.24,3.01,1.24h23.49c.38,0,.75.1,1.03.38.28.29.38.57.38,1.05,0,.38-.09.76-.38.95-.28.29-.56.48-1.03.48H7.55Zm29.13-13.33h-15.98c-.38,0-.75-.1-1.03-.38-.28-.29-.38-.57-.38-1.05,0-.38.09-.76.38-1.05.28-.29.56-.38,1.03-.38h15.98c.38,0,.75.1,1.03.38s.38.57.38,1.05c0,.38-.09.76-.38.95-.28.38-.66.48-1.03.48Zm-1.88,6.67h-14.1c-.38,0-.75-.1-1.03-.38-.28-.29-.38-.57-.38-1.05,0-.38.09-.76.38-1.05s.56-.38,1.03-.38h14.1c.38,0,.75.1,1.03.38.28.29.38.57.38,1.05,0,.38-.09.76-.38.95-.28.29-.66.48-1.03.48Z"/>
</svg>