<?xml version="1.0" encoding="UTF-8"?>
<svg id="Capa_1" data-name="Capa 1" xmlns="http://www.w3.org/2000/svg" viewBox="0 0 40 40">
  <defs>
    <style>
      .cls-1 {
        fill: none;
      }
    </style>
  </defs>
  <rect class="cls-1" width="40" height="40"/>
  <path d="m17.56,39.6c-.84,0-1.66-.18-2.43-.55-.78-.37-1.45-.89-2.01-1.58L0,21.48l1.19-1.18c.54-.54,1.2-.83,1.96-.86.76-.03,1.46.17,2.1.62l6.43,4.17V1.77c0-.39.13-.71.4-.97.26-.26.59-.39.98-.39s.71.13.97.39c.26.26.39.59.39.97v24.47c0,.67-.3,1.17-.9,1.5-.6.33-1.18.31-1.75-.08l-6.88-4.53,10.42,12.65c.29.35.64.62,1.02.81.39.19.8.29,1.23.29h14.53c1.45,0,2.67-.5,3.67-1.5,1-1,1.5-2.22,1.5-3.67v-15.25c0-.39.13-.71.4-.97.26-.26.59-.39.98-.39s.71.13.97.39c.26.26.39.59.39.97v15.25c0,2.19-.77,4.06-2.3,5.6-1.53,1.54-3.4,2.31-5.6,2.31,0,0-14.53,0-14.53,0Zm2.66-17.43v-13.3c0-.39.13-.71.4-.97.26-.26.59-.39.98-.39s.71.13.97.39c.26.26.39.59.39.97v13.3h-2.74Zm8.54,0v-10.38c0-.39.13-.71.4-.97.26-.26.59-.39.98-.39s.71.13.97.39c.26.26.39.59.39.97v10.38h-2.74Z"/>
</svg>