<?xml version="1.0" encoding="UTF-8"?>
<svg id="Capa_1" data-name="Capa 1" xmlns="http://www.w3.org/2000/svg" viewBox="0 0 40 40">
  <defs>
    <style>
      .cls-1 {
        fill: none;
      }
    </style>
  </defs>
  <rect class="cls-1" width="40" height="40"/>
  <path d="m8.38,39.27c-.56,0-1.02-.22-1.38-.66s-.46-.94-.3-1.51l2.05-8.07H1.82c-.56,0-1.03-.23-1.41-.69s-.49-.97-.33-1.54c.08-.4.28-.73.6-.99s.7-.39,1.14-.39h7.83l2.71-10.84H4.23c-.56,0-1.03-.23-1.41-.69s-.49-.97-.33-1.54c.08-.4.28-.73.6-.99s.7-.39,1.14-.39h9.03l2.23-8.91c.08-.4.27-.72.57-.96s.65-.36,1.05-.36c.56,0,1.01.22,1.35.66s.45.94.33,1.51l-1.99,8.07h10.9l2.23-8.91c.08-.4.27-.72.57-.96s.65-.36,1.05-.36c.56,0,1.01.22,1.35.66s.45.94.33,1.51l-1.99,8.07h6.92c.56,0,1.03.23,1.41.69s.49.97.33,1.54c-.08.4-.28.73-.6.99s-.7.39-1.14.39h-7.83l-2.71,10.84h8.13c.56,0,1.03.23,1.41.69s.49.97.33,1.54c-.08.4-.28.73-.6.99s-.7.39-1.14.39h-9.03l-2.23,8.91c-.08.32-.25.62-.51.9s-.65.42-1.17.42c-.56,0-1.02-.22-1.38-.66s-.46-.94-.3-1.51l2.05-8.07h-10.9l-2.23,8.91c-.08.32-.25.62-.51.9s-.65.42-1.17.42Zm4.82-13.85h10.9l2.71-10.84h-10.9l-2.71,10.84Z"/>
</svg>