<?xml version="1.0" encoding="UTF-8"?>
<svg id="Capa_1" data-name="Capa 1" xmlns="http://www.w3.org/2000/svg" viewBox="0 0 40 40">
  <defs>
    <style>
      .cls-1 {
        fill: none;
      }
    </style>
  </defs>
  <rect class="cls-1" width="40" height="40"/>
  <g>
    <path d="m33,6.9c-.3-.3-.6-.5-1-.7-.4-.1-.8-.2-1.2-.2H9.3c-.4,0-.8,0-1.2.2-.4.2-.7.4-1,.7L0,14v17C0,31.8.3,32.5.9,33.1c.6.6,1.3.9,2.1.9h34c.8,0,1.5-.3,2.1-.9.6-.6.9-1.3.9-2.1V14l-7-7.1Zm-23.8,2.1h21.6l5,5H4.2l5-5Zm27.8,22H3v-14h34v14Z"/>
    <path d="m30,26.5c.7,0,1.3-.2,1.8-.7s.7-1.1.7-1.8-.2-1.3-.7-1.8-1.1-.7-1.8-.7-1.3.2-1.8.7-.7,1.1-.7,1.8.2,1.3.7,1.8,1.1.7,1.8.7Z"/>
  </g>
</svg>