<?xml version="1.0" encoding="UTF-8"?>
<svg id="Capa_1" data-name="Capa 1" xmlns="http://www.w3.org/2000/svg" viewBox="0 0 40 40">
  <defs>
    <style>
      .cls-1 {
        fill: none;
      }
    </style>
  </defs>
  <rect class="cls-1" width="40" height="40"/>
  <path d="m20,40c-.85,0-1.58-.25-2.19-.88s-.85-1.37-.85-2.25V6.25H6.04c-.85,0-1.58-.25-2.19-.87s-.85-1.38-.85-2.25.24-1.63.85-2.25,1.34-.87,2.19-.87h27.93c.85,0,1.58.25,2.19.87s.85,1.38.85,2.25-.24,1.63-.85,2.25-1.34.87-2.19.87h-10.93v30.62c0,.88-.24,1.62-.85,2.25s-1.34.88-2.19.88Z"/>
</svg>