<?xml version="1.0" encoding="UTF-8"?>
<svg id="Capa_1" data-name="Capa 1" xmlns="http://www.w3.org/2000/svg" viewBox="0 0 40 40">
  <defs>
    <style>
      .cls-1 {
        fill: none;
      }
    </style>
  </defs>
  <polygon class="cls-1" points="40.11 40 .11 40 0 0 40 0 40.11 40"/>
  <path d="m21.62,40c-.38,0-.76-.1-1.04-.38-.28-.29-.49-.57-.49-1.05,0-.38.09-.76.38-1.05s.57-.38,1.04-.38h12.66v-2.57h-4.16c-.76,0-1.42-.29-1.98-.86-.57-.57-.85-1.24-.85-2v-8.38c0-.76.28-1.43.85-2,.57-.57,1.23-.86,1.98-.86h4.16v-3.24c0-3.9-1.42-7.33-4.06-10.19-2.74-2.86-6.04-4.29-10.01-4.29s-7.27,1.43-10.11,4.29c-2.83,2.86-4.16,6.29-4.16,10.19v3.24h4.16c.76,0,1.42.29,1.98.86s.85,1.24.85,2v8.38c0,.76-.28,1.43-.85,2s-1.23.86-1.98.86h-4.16c-.76,0-1.42-.29-1.98-.86-.57-.57-.85-1.24-.85-2v-14.48c0-2.38.47-4.57,1.32-6.67.85-2.1,2.08-3.9,3.68-5.52,1.51-1.52,3.4-2.76,5.48-3.71s4.34-1.33,6.61-1.33,4.53.48,6.61,1.33,3.87,2.1,5.38,3.71c1.51,1.52,2.74,3.43,3.59,5.52.85,2.1,1.32,4.38,1.32,6.67v19.9c0,.76-.28,1.43-.85,2-.57.57-1.23.86-1.98.86h-12.55Zm-15.79-8.29h4.16v-8.38h-4.16v8.38Zm24.18,0h4.16v-8.38h-4.16v8.38Zm-24.18,0h4.16-4.16Zm24.18,0h4.16-4.16Zm-9.54,5.81c.23-.19.57-.38,1.04-.38h12.66m-13.69.38c.32-.3.57-.38,1.04-.38m-1.04.38c.32-.3.6-.4,1.04-.38"/>
</svg>