<?xml version="1.0" encoding="UTF-8"?>
<svg id="Capa_1" data-name="Capa 1" xmlns="http://www.w3.org/2000/svg" viewBox="0 0 40 40">
  <defs>
    <style>
      .cls-1 {
        fill: none;
      }
    </style>
  </defs>
  <rect class="cls-1" width="40" height="40"/>
  <path d="m20,32.57c-1.91,0-3.82-.09-5.82-.27-1.91-.18-3.82-.36-5.73-.63-.91-.09-1.64-.54-2.18-1.17-.55-.72-.82-1.53-.82-2.42v-.99c-1.64-.45-2.91-1.35-3.91-2.69s-1.55-2.78-1.55-4.4.55-3.05,1.55-4.31,2.36-2.15,3.91-2.6v-2.06c0-.99.36-1.8,1-2.51.73-.72,1.55-1.08,2.55-1.08.91,0,1.73.09,2.64.27s1.73.27,2.64.36c.91.09,1.91.09,2.82.18.91,0,1.91.09,2.82.09s1.91,0,2.82-.09,1.91-.09,2.82-.18c.91-.09,1.73-.18,2.64-.36s1.82-.27,2.73-.27c1,0,1.82.36,2.55,1.08s1.09,1.53,1.09,2.51v2.06c1.55.54,2.91,1.35,3.91,2.6,1,1.26,1.55,2.69,1.55,4.31s-.55,3.05-1.55,4.4c-1,1.26-2.36,2.15-3.91,2.6v1.08c0,.9-.27,1.71-.91,2.33-.55.72-1.27,1.08-2.18,1.17-1.91.27-3.82.54-5.73.72-1.91.18-3.82.27-5.73.27Zm0-2.69c2,0,3.91-.09,5.91-.27,2-.18,3.91-.45,5.91-.81h0V9.95c-2,.27-3.91.54-5.91.72-2,.18-3.91.27-5.91.27s-4-.09-6-.27c-2-.18-3.91-.36-5.82-.72h0v18.85c2,.36,3.91.63,5.91.81,1.91.18,3.91.27,5.91.27Zm0-4.04c1.27,0,2.55-.09,3.82-.18,1.27-.18,2.55-.36,3.82-.72.36-.09.64-.27.82-.63.18-.36.18-.72.18-.99-.09-.36-.27-.63-.64-.81-.36-.18-.73-.18-1-.09-1.18.27-2.27.54-3.45.63s-2.27.18-3.45.18-2.27-.09-3.45-.18-2.27-.36-3.45-.72c-.36-.09-.73-.09-1,.09-.36.18-.55.45-.64.81-.09.36,0,.72.18.99.18.27.45.54.82.63,1.27.36,2.55.63,3.82.81,1.09.09,2.36.18,3.64.18Zm-14.55-1.53v-8.53c-.82.36-1.55.9-2,1.71-.45.81-.73,1.62-.73,2.51s.27,1.8.73,2.6c.45.72,1.18,1.35,2,1.71Zm29.09,0c.82-.36,1.45-.99,2-1.71.45-.81.73-1.71.73-2.6s-.27-1.71-.73-2.51c-.55-.81-1.18-1.35-2-1.8v8.62Zm-14.55-5.66c1.27,0,2.55-.09,3.82-.18s2.55-.36,3.82-.72c.36-.09.64-.27.82-.63.18-.36.18-.72.18-.99-.09-.36-.27-.63-.64-.81-.36-.18-.73-.18-1-.09-1.18.27-2.27.54-3.45.63s-2.27.18-3.45.18-2.27-.09-3.45-.18-2.27-.36-3.45-.63c-.36-.09-.73-.09-1,.09s-.55.45-.64.81c-.09.36-.09.72.09.99.18.36.45.54.82.63,1.27.36,2.55.54,3.82.72,1.18.09,2.45.18,3.73.18Zm-11.82,10.23V9.95v18.94Z"/>
</svg>