<?xml version="1.0" encoding="UTF-8"?>
<svg id="Capa_1" data-name="Capa 1" xmlns="http://www.w3.org/2000/svg" viewBox="0 0 40 40">
  <defs>
    <style>
      .cls-1 {
        fill: none;
      }
    </style>
  </defs>
  <rect class="cls-1" width="40" height="40"/>
  <path d="m20,38c-.6,0-1.2-.1-1.7-.3s-1-.5-1.5-1L3.4,23.2c-1.2-1.2-2-2.5-2.6-4s-.8-3-.8-4.7c0-3.4,1.1-6.4,3.3-8.8,2.2-2.4,5-3.7,8.4-3.7,1.6,0,3.1.3,4.5.9s2.7,1.5,3.8,2.7c1.1-1.1,2.3-2,3.7-2.7,1.4-.7,2.9-.9,4.5-.9,3.3,0,6.1,1.2,8.4,3.7s3.4,5.4,3.4,8.8c0,1.6-.3,3.2-.8,4.7s-1.4,2.8-2.5,4l-13.6,13.5c-.4.4-.9.8-1.4,1s-1.1.3-1.7.3Zm2-25.5c.3,0,.5.1.7.2s.4.3.5.5l3.6,5.3h9.4c.3-.6.5-1.3.6-2s.2-1.3.2-2c0-2.6-.8-4.8-2.5-6.7s-3.7-2.8-6.2-2.8c-1.2,0-2.3.2-3.4.7s-2,1.2-2.8,2l-1.4,1.5c-.1.1-.2.2-.3.2-.1.1-.2.1-.4.1s-.3,0-.4-.1-.2-.1-.3-.3l-1.4-1.5c-.8-.9-1.8-1.5-2.8-2-1.1-.4-2.2-.6-3.4-.6-2.5,0-4.6.9-6.2,2.8-1.7,1.9-2.5,4.1-2.5,6.7,0,.7.1,1.4.2,2,.1.7.3,1.3.6,2h10.2c.3,0,.5.1.7.2s.4.3.5.5l2.3,3.5,3-9.1c.1-.3.3-.5.6-.8.3-.2.6-.3.9-.3Zm.5,4.9l-3.1,9.1c-.1.3-.3.6-.6.8-.3.2-.6.3-.9.3s-.5-.1-.7-.2-.4-.3-.5-.5l-3.5-5.3h-7.3l13.1,13c.2.2.3.3.5.4h.5c.2,0,.4,0,.6-.1s.3-.2.5-.4l13-13h-8c-.3,0-.5-.1-.7-.2s-.4-.3-.6-.5l-2.3-3.4Z"/>
</svg>