<?xml version="1.0" encoding="UTF-8"?>
<svg id="Capa_1" data-name="Capa 1" xmlns="http://www.w3.org/2000/svg" viewBox="0 0 40 40">
  <defs>
    <style>
      .cls-1 {
        fill: none;
      }
    </style>
  </defs>
  <rect class="cls-1" width="40" height="40"/>
  <path d="m17.95,37.2c-3.8-3.77-6.88-6.89-9.23-9.38s-4.17-4.6-5.45-6.35c-1.28-1.75-2.15-3.27-2.6-4.55S0,14.3,0,12.9C0,9.83,1.07,7.23,3.2,5.1c2.13-2.13,4.73-3.2,7.8-3.2,1.5,0,2.95.28,4.35.83s2.65,1.34,3.75,2.38l-2.55,8.9c-.17.47-.09.9.23,1.3s.73.6,1.23.6h4.05l-1.75,14.53c-.03.28.08.44.33.47s.41-.07.48-.3l4.45-14.75c.17-.47.1-.91-.21-1.33-.31-.42-.72-.63-1.24-.63h-4.1l3.55-10.6c.83-.47,1.71-.82,2.63-1.05s1.86-.35,2.83-.35c3.07,0,5.67,1.07,7.8,3.2s3.2,4.73,3.2,7.8c0,1.4-.23,2.75-.68,4.05s-1.32,2.83-2.6,4.58-3.09,3.86-5.43,6.33-5.38,5.58-9.15,9.35c-.27.27-.58.48-.95.65s-.75.25-1.15.25-.78-.08-1.15-.25-.68-.38-.95-.65ZM3,12.9c0,1.1.19,2.16.58,3.18s1.08,2.2,2.08,3.55,2.38,2.97,4.13,4.85,3.99,4.23,6.73,7.03c.13.13.28.18.43.13s.24-.16.28-.33l1.45-12.4h-.75c-1.4,0-2.6-.48-3.6-1.45-1-.97-1.22-2.43-.65-4.4l2-6.85c-.73-.37-1.48-.68-2.25-.93s-1.57-.38-2.4-.38c-2.21,0-4.1.78-5.66,2.34-1.56,1.56-2.34,3.45-2.34,5.66Zm34,0c0-2.21-.78-4.1-2.34-5.66-1.56-1.56-3.45-2.34-5.66-2.34-.51,0-1.02.05-1.53.15-.51.1-1,.23-1.47.4l-1.8,5.45h.25c1.37,0,2.48.54,3.33,1.63s1.01,2.53.48,4.33l-3.6,12.4c-.07.17,0,.31.18.43s.36.09.53-.08c2.33-2.27,4.25-4.21,5.75-5.83s2.69-3.06,3.58-4.33c.88-1.27,1.49-2.42,1.83-3.45s.5-2.07.5-3.1Z"/>
</svg>