<?xml version="1.0" encoding="UTF-8"?>
<svg id="Capa_1" data-name="Capa 1" xmlns="http://www.w3.org/2000/svg" viewBox="0 0 40 40">
  <defs>
    <style>
      .cls-1 {
        fill: none;
      }
    </style>
  </defs>
  <rect class="cls-1" width="40" height="40"/>
  <path d="m37,5.03c-2-2.02-4.5-3.03-7.5-3.03-1.7,0-3.3.4-4.9,1.21-1.6.81-3.1,2.12-4.6,4.03-1.3-1.82-2.7-3.23-4.4-4.03s-3.4-1.21-5.1-1.21c-3,0-5.5,1.01-7.5,3.03C1,7.04,0,9.56,0,12.59,0,16.42,1.4,20.15,4.5,23.68c3.1,3.53,6.7,7.26,10.8,11.09l2.6,2.42c.3.3.6.5,1,.61.4.1.7.2,1.1.2s.7-.1,1.1-.2c.4-.1.7-.3,1-.61l2.6-2.52c4.2-3.93,7.8-7.56,10.8-11.09s4.5-7.16,4.5-10.99c0-3.03-1-5.55-3-7.56Zm-2.1,13.82c-1.3,2.12-2.8,4.24-4.6,6.25s-3.7,3.93-5.6,5.65c-1.9,1.71-3.5,3.23-4.8,4.34-1.3-1.11-2.9-2.62-4.8-4.34-1.9-1.71-3.8-3.63-5.6-5.65-1.8-2.02-3.3-4.13-4.6-6.25-1.3-2.22-1.9-4.24-1.9-6.15,0-2.22.7-4.24,2.1-5.65,1.4-1.41,3.2-2.12,5.4-2.12,1.6,0,3.1.6,4.6,1.61,1.5,1.01,2.7,2.42,3.6,4.03.02.03.06.07.09.11.41.63.76.98,1.21.98s.74-.32,1.09-.88c0,0,0,0,.01-.01.9-1.61,2.1-3.03,3.6-4.03s3-1.51,4.7-1.51c2.2,0,4,.71,5.4,2.12,1.4,1.41,2.1,3.23,2.1,5.45,0,1.92-.7,3.93-2,6.05Z"/>
</svg>