<?xml version="1.0" encoding="UTF-8"?>
<svg id="Capa_1" data-name="Capa 1" xmlns="http://www.w3.org/2000/svg" viewBox="0 0 40 40">
  <defs>
    <style>
      .cls-1 {
        fill: none;
      }
    </style>
  </defs>
  <rect class="cls-1" x="0" width="40" height="40"/>
  <path d="m6.18,13.52c-1.09,1.08-1.91,2.25-2.55,3.69-.64,1.44-.91,2.97-.91,4.59v.45h12.27v-12.15h-.45c-1.64,0-3.18.27-4.64.9-1.45.63-2.64,1.44-3.73,2.52Zm-3.45,16.38h20V10.1h-5v12.15c0,.72-.27,1.35-.82,1.89s-1.18.81-1.91.81H2.73v4.95Zm22.73-5.67l11.82-1.26v-3.87h-11.82v5.13Zm-20.45,13.77c-.36,0-.73-.09-1-.36-.27-.27-.36-.63-.36-.99s.09-.72.36-.99.64-.36,1-.36h15.45c.36,0,.73.09,1,.36.27.27.36.54.36.99,0,.36-.09.72-.36.99s-.64.36-1,.36H5Zm-2.27-5.4c-.73,0-1.36-.27-1.91-.81C.27,31.25,0,30.62,0,29.9v-8.1C0,17.75,1.36,14.42,4.27,11.54s6.18-4.14,10.27-4.14h8.18c.73,0,1.36.27,1.91.81.55.54.82,1.17.82,1.89v6.3h9.09l1.36-2.61c.18-.36.36-.54.73-.72s.64-.27.91-.27h.64c.55,0,.91.18,1.27.54.36.36.55.72.55,1.26v8.37c0,.72-.27,1.26-.73,1.8s-1.09.81-1.73.9l-12.09,1.26v2.97c0,.72-.27,1.35-.82,1.89-.55.54-1.18.81-1.91.81H2.73ZM5,4.7c-.36,0-.73-.09-1-.36-.27-.27-.36-.63-.36-.99s.09-.72.36-.99.64-.36,1-.36h26.36c.36,0,.73.09,1,.36.27.27.36.63.36.99s-.09.72-.36.99c-.27.27-.64.36-1,.36H5Zm20.45,19.53v-5.13,5.13Zm0,0v-5.13,5.13Z"/>
</svg>