<?xml version="1.0" encoding="UTF-8"?>
<svg id="Capa_1" data-name="Capa 1" xmlns="http://www.w3.org/2000/svg" viewBox="0 0 40 40">
  <defs>
    <style>
      .cls-1 {
        fill: none;
      }
    </style>
  </defs>
  <rect class="cls-1" width="40" height="40"/>
  <g>
    <path d="m37.19,35.36c-.54-.55-1.17-.82-1.89-.82H4.78c-.81,0-1.44.18-1.98.82-.54.55-.81,1.18-.81,1.91s.27,1.36.81,1.91c.54.55,1.17.82,1.89.82h30.52c.72,0,1.35-.27,1.98-.82.54-.55.81-1.18.81-1.91s-.27-1.36-.81-1.91Z"/>
    <path d="m6.22,29.64h4.22c.36,0,.72,0,1.08-.18.36-.18.63-.36.9-.64l1.08-1.09.54.45c.54.64,1.35.91,2.33.91s1.8-.36,2.33-.91l8.57-8.77.04.05,9.25-9.36c.54-.55.81-1.27.81-2.09,0-.91-.18-1.55-.72-2.09L31.63.82C31.18.27,30.55,0,29.74,0s-1.44.27-1.89.73l-9.52,9.55-8.53,8.64c-.63.73-.99,1.55-.99,2.55s.36,1.91.99,2.55l.18.18-4.22,4.27c-.27.18-.27.45-.18.73s.36.45.63.45ZM29.65,2.82l5.21,5.27-8.35,8.45-5.21-5.27L29.65,2.82Zm-10.32,10.36l5.21,5.27-8.17,8.27-5.21-5.27,8.17-8.27Z"/>
  </g>
</svg>