<?xml version="1.0" encoding="UTF-8"?>
<svg id="Capa_1" data-name="Capa 1" xmlns="http://www.w3.org/2000/svg" viewBox="0 0 40 40">
  <defs>
    <style>
      .cls-1 {
        fill: none;
      }
    </style>
  </defs>
  <rect class="cls-1" width="40" height="40"/>
  <path d="m22.79,6.79c-.92,0-1.76-.37-2.4-1.02s-1.02-1.49-1.02-2.42.37-1.77,1.02-2.42,1.48-.93,2.4-.93,1.76.37,2.4,1.02,1.02,1.49,1.02,2.42-.37,1.77-1.02,2.42-1.48.93-2.4.93Zm-9.62,33.21c-.46,0-.92-.19-1.2-.47-.28-.37-.37-.74-.28-1.3l5.18-27.07c.18-.74.55-1.3,1.11-1.67.55-.37,1.11-.65,1.76-.65s1.2.19,1.76.47c.55.28,1.02.65,1.29,1.21l1.85,2.98c.55,1.02,1.39,1.86,2.4,2.7,1.02.74,2.22,1.4,3.61,1.86v-2.6c0-.28.09-.47.28-.65s.37-.28.65-.28.46.09.65.28c.18.19.28.37.28.65v23.63c0,.28-.09.47-.28.65s-.37.28-.65.28-.46-.09-.65-.28-.28-.37-.28-.65v-18.33c-1.57-.37-3.05-.93-4.44-1.77s-2.59-1.95-3.7-3.26l-1.39,6.7,3.05,2.88c.28.28.46.56.65.93s.18.74.18,1.12v11.16c0,.37-.09.74-.37,1.02s-.55.47-.92.47-.74-.09-1.02-.37c-.28-.28-.37-.56-.37-1.02v-9.95l-4.62-4.47-3.14,14.7c-.09.28-.18.56-.46.84s-.65.28-.92.28Zm-1.11-18.7l2.31-11.81-1.66-.37c-.92-.19-1.76,0-2.5.47s-1.2,1.21-1.29,2.05l-1.39,7.35c-.09.37,0,.65.28,1.02s.46.56.83.56l3.42.74Z"/>
</svg>