<?xml version="1.0" encoding="UTF-8"?>
<svg id="Capa_1" data-name="Capa 1" xmlns="http://www.w3.org/2000/svg" viewBox="0 0 40 40">
  <defs>
    <style>
      .cls-1 {
        fill: none;
      }
    </style>
  </defs>
  <rect class="cls-1" width="40" height="40"/>
  <path d="m19.83,40c-5.24,0-9.81-1.78-13.59-5.33C2.45,31.11.33,26.78,0,21.56c0-.44.11-.89.45-1.11s.67-.56,1.23-.56c.45,0,.78.11,1.11.44.22.44.45.78.56,1.22.45,4.22,2.12,7.89,5.35,10.67,3.01,3,6.8,4.44,11.14,4.44,4.68,0,8.69-1.67,12.03-5,3.34-3.33,4.79-7.22,4.79-11.89s-1.67-8.44-5.01-11.67c-3.34-3.22-7.24-4.78-11.81-4.78-2.56,0-4.9.56-7.13,1.78-2.23,1.22-4.12,2.67-5.79,4.56h4.23c.45,0,.89.11,1.23.44.33.33.45.67.45,1.22s-.11.89-.45,1.22c-.33.33-.67.44-1.23.44H2.79c-.45,0-.89-.11-1.23-.44-.33-.33-.45-.67-.45-1.22V3c0-.44.11-.89.45-1.22.33-.33.67-.44,1.23-.44s.89.11,1.23.44c.33.44.45.78.45,1.22v4.22c1.89-2.22,4.23-4,6.91-5.33,2.67-1.33,5.46-1.89,8.47-1.89,2.79,0,5.46.56,7.8,1.56,2.45,1,4.57,2.44,6.46,4.22,1.89,1.78,3.34,3.89,4.35,6.33,1,2.44,1.56,5,1.56,7.78s-.56,5.44-1.56,7.78c-1.11,2.44-2.45,4.56-4.35,6.44-1.78,1.78-4.01,3.22-6.46,4.33-2.45,1-5.01,1.56-7.8,1.56Zm1.89-20.78l6.46,6.22c.33.33.45.78.45,1.22s-.11.89-.45,1.22c-.33.33-.78.44-1.23.44s-.89-.11-1.11-.44l-7.02-6.78c-.22-.22-.33-.33-.45-.56s-.11-.44-.11-.67v-9.56c0-.44.11-.89.45-1.22s.67-.44,1.23-.44c.45,0,.89.11,1.23.44.33.33.45.67.45,1.22v8.89h.11Z"/>
</svg>