<?xml version="1.0" encoding="UTF-8"?>
<svg id="Capa_1" data-name="Capa 1" xmlns="http://www.w3.org/2000/svg" viewBox="0 0 40 40">
  <defs>
    <style>
      .cls-1 {
        fill: none;
      }
    </style>
  </defs>
  <rect class="cls-1" width="40" height="40"/>
  <path d="m5.37,36.6h8.44v-14.16h12.38v14.16h8.44V14.5L20,3.4,5.37,14.5v22.1Zm0,3.4c-.9,0-1.69-.34-2.36-1.02-.67-.68-1.01-1.47-1.01-2.38V14.5c0-.57.11-1.02.34-1.59.22-.45.56-.91,1.01-1.13L17.98.68c.34-.23.68-.34,1.01-.45s.68-.23,1.01-.23.68,0,1.01.23c.34.11.68.23,1.01.45l14.62,11.1c.45.34.79.68,1.01,1.13s.34,1.02.34,1.59v22.1c0,.91-.34,1.7-1.01,2.38-.67.68-1.46,1.02-2.36,1.02h-11.81v-14.16h-5.62v14.16H5.37Z"/>
</svg>