<?xml version="1.0" encoding="UTF-8"?>
<svg id="Capa_1" data-name="Capa 1" xmlns="http://www.w3.org/2000/svg" viewBox="0 0 40 40">
  <defs>
    <style>
      .cls-1 {
        fill: none;
      }
    </style>
  </defs>
  <rect class="cls-1" width="40" height="40"/>
  <path d="m17.19,24.67v2.81c0,.79.23,1.46.79,2.02s1.24.79,2.02.79,1.46-.23,2.02-.79.79-1.24.79-2.02v-2.81h2.81c.79,0,1.46-.23,2.02-.79s.79-1.24.79-2.02-.23-1.46-.79-2.02-1.24-.79-2.02-.79h-2.81v-2.81c0-.79-.23-1.46-.79-2.02s-1.24-.79-2.02-.79-1.46.23-2.02.79-.79,1.24-.79,2.02v2.81h-2.81c-.79,0-1.46.23-2.02.79s-.79,1.24-.79,2.02.23,1.46.79,2.02,1.24.79,2.02.79h2.81Zm-11.81,15.19c-.9,0-1.69-.34-2.36-1.01-.67-.67-1.01-1.46-1.01-2.36V14.54c0-.56.11-1.01.34-1.57.22-.45.56-.9,1.01-1.12L17.98.82c.56-.45,1.24-.67,2.02-.67s1.46.22,2.02.67l14.62,11.03c.45.34.79.68,1.01,1.12s.34,1.01.34,1.57v21.94c0,.9-.34,1.69-1.01,2.36-.67.68-1.46,1.01-2.36,1.01H5.38Zm0-3.38h29.25V14.32L20,3.63,5.38,14.21v22.27Z"/>
</svg>