<?xml version="1.0" encoding="UTF-8"?>
<svg id="Capa_1" data-name="Capa 1" xmlns="http://www.w3.org/2000/svg" viewBox="0 0 40 40">
  <defs>
    <style>
      .cls-1 {
        fill: none;
      }
    </style>
  </defs>
  <rect class="cls-1" width="40" height="40"/>
  <path d="m11.8,37h16.4v-6.35c0-2.33-.79-4.34-2.38-6.02s-3.53-2.53-5.83-2.53-4.24.84-5.83,2.53-2.38,3.69-2.38,6.02v6.35Zm8.2-19.1c2.3,0,4.24-.84,5.83-2.53s2.38-3.71,2.38-6.07V3H11.8v6.3c0,2.36.79,4.39,2.38,6.07,1.58,1.68,3.53,2.53,5.83,2.53Zm-14.5,22.1c-.43,0-.78-.14-1.07-.43-.29-.29-.43-.65-.43-1.08s.14-.78.43-1.07c.29-.28.64-.43,1.07-.43h3.3v-6.35c0-2.33.61-4.48,1.83-6.43s2.91-3.36,5.08-4.23c-2.17-.87-3.86-2.28-5.08-4.25s-1.83-4.12-1.83-6.45V3h-3.3c-.43,0-.78-.14-1.07-.43-.29-.29-.43-.65-.43-1.08s.14-.78.43-1.07S5.07,0,5.5,0h29C34.93,0,35.28.14,35.57.43c.29.29.43.65.43,1.08s-.14.78-.43,1.07-.64.43-1.07.43h-3.3v6.3c0,2.33-.61,4.48-1.83,6.45s-2.91,3.38-5.08,4.25c2.17.87,3.86,2.28,5.08,4.23s1.83,4.09,1.83,6.43v6.35h3.3c.43,0,.78.14,1.07.43.29.29.43.65.43,1.08s-.14.78-.43,1.07-.64.43-1.07.43H5.5Z"/>
</svg>