<?xml version="1.0" encoding="UTF-8"?>
<svg id="Capa_1" data-name="Capa 1" xmlns="http://www.w3.org/2000/svg" viewBox="0 0 40 40">
  <defs>
    <style>
      .cls-1 {
        fill: none;
      }
    </style>
  </defs>
  <rect class="cls-1" width="40" height="40"/>
  <path d="m20,17.9c2.3,0,4.2-.8,5.8-2.5s2.4-3.7,2.4-6.1V3H11.8v6.3c0,2.4.8,4.4,2.4,6.1,1.6,1.7,3.5,2.5,5.8,2.5Zm-14.5,22.1c-.4,0-.8-.1-1.1-.4-.3-.3-.4-.7-.4-1.1s.1-.8.4-1.1c.3-.3.7-.4,1.1-.4h3.3v-6.3c0-2.3.6-4.5,1.8-6.4,1.2-1.9,2.9-3.4,5.1-4.2-2.2-.9-3.9-2.3-5.1-4.2s-1.8-4.1-1.8-6.5V3h-3.3c-.4,0-.8-.1-1.1-.4-.3-.3-.4-.7-.4-1.1s.1-.8.4-1.1c.3-.3.7-.4,1.1-.4h29c.4,0,.8.1,1.1.4.3.3.4.7.4,1.1s-.1.8-.4,1.1c-.3.3-.7.4-1.1.4h-3.3v6.3c0,2.3-.6,4.5-1.8,6.5s-2.9,3.4-5.1,4.2c2.2.9,3.9,2.3,5.1,4.2,1.2,1.9,1.8,4.1,1.8,6.4v6.4h3.3c.4,0,.8.1,1.1.4.3.3.4.6.4,1.1,0,.4-.1.8-.4,1.1-.3.3-.6.4-1.1.4H5.5Z"/>
</svg>