<?xml version="1.0" encoding="UTF-8"?>
<svg id="Capa_1" data-name="Capa 1" xmlns="http://www.w3.org/2000/svg" viewBox="0 0 40 40">
  <defs>
    <style>
      .cls-1 {
        fill: none;
      }
    </style>
  </defs>
  <rect class="cls-1" width="40" height="40"/>
  <path d="m0,38V14L16.08,2l12.06,9c-.7,0-1.31.1-2.01.2s-1.31.4-1.91.6l-8.14-6.1L3.02,15.5v19.5h10.05v3H0Zm16.08,0v-3.8c0-.7.2-1.4.5-2,.4-.6.8-1.1,1.41-1.5,1.51-.9,3.12-1.6,4.82-2,1.71-.5,3.42-.7,5.23-.7s3.52.2,5.23.7,3.32,1.1,4.82,2c.6.4,1.11.9,1.41,1.5.3.6.5,1.3.5,2v3.8h-23.92Zm3.02-3h18.09v-1.5c-1.41-.8-2.91-1.4-4.42-1.9-1.51-.4-3.02-.6-4.62-.6s-3.12.2-4.62.7-3.02,1.1-4.42,1.9v1.4Zm9.05-9c-1.71,0-3.12-.6-4.22-1.8-1.21-1.1-1.81-2.5-1.81-4.2s.6-3.1,1.81-4.2,2.51-1.8,4.22-1.8,3.12.6,4.22,1.8c1.21,1.2,1.81,2.6,1.81,4.2s-.6,3.1-1.81,4.2c-1.11,1.2-2.51,1.8-4.22,1.8Zm0-3c.9,0,1.61-.3,2.11-.9.6-.6.9-1.3.9-2.1s-.3-1.6-.9-2.1c-.5-.6-1.21-.9-2.11-.9s-1.61.3-2.11.9c-.6.5-.9,1.2-.9,2.1s.3,1.6.9,2.1c.5.6,1.21.9,2.11.9Z"/>
</svg>