<?xml version="1.0" encoding="UTF-8"?>
<svg id="Capa_1" data-name="Capa 1" xmlns="http://www.w3.org/2000/svg" viewBox="0 0 40 40">
  <defs>
    <style>
      .cls-1 {
        fill: none;
      }
    </style>
  </defs>
  <rect class="cls-1" width="40" height="40"/>
  <path d="m20.93,16.43c-1.99,1.88-3.11,4.51-3.11,7.4,0,2.26.75,4.39,1.99,6.14l-3.86,3.89c-.37-.13-.75-.13-1.12-.13-.87,0-1.62.38-2.24.88-.62.63-.87,1.38-.87,2.26s.37,1.63.87,2.26c.62.63,1.37.88,2.24.88s1.62-.25,2.24-.88.87-1.38.87-2.26c0-.38,0-.63-.12-1l3.86-3.89c1.74,1.38,3.86,2.13,6.23,2.13,5.61,0,10.09-4.51,10.09-10.16,0-5.14-3.74-9.28-8.6-10.03v-4.76c1.37-.63,2.24-1.88,2.24-3.39,0-2.01-1.62-3.76-3.61-3.76s-3.61,1.76-3.61,3.76c0,1.5.87,2.76,2.24,3.39v4.76c-1.25.13-2.37.5-3.36,1.13-2.12-1.63-9.09-6.77-13.2-9.78.12-.38.12-.75.12-1.13C10.22,1.89,8.35,0,6.11,0,3.87-.12,2,1.76,2,4.02s1.87,4.14,4.11,4.14c.75,0,1.49-.25,2.12-.63l12.71,8.9Zm6.98,12.91c-2.99,0-5.36-2.38-5.36-5.39s2.37-5.39,5.36-5.39,5.36,2.38,5.36,5.39-2.49,5.39-5.36,5.39Z"/>
</svg>