<?xml version="1.0" encoding="UTF-8"?>
<svg id="Capa_1" data-name="Capa 1" xmlns="http://www.w3.org/2000/svg" viewBox="0 0 40 40">
  <defs>
    <style>
      .cls-1 {
        fill: none;
      }
    </style>
  </defs>
  <rect class="cls-1" width="40" height="40"/>
  <path d="m19.95,40c-.28,0-.47-.09-.75-.19-.19-.09-.38-.38-.57-.57l-7.25-14.88c-2.17.38-4.14-.09-5.84-1.42-1.7-1.42-2.54-3.22-2.54-5.69,0-1.42.47-2.84,1.32-4.17s2.17-2.27,3.77-2.75c.47-3.13,1.88-5.69,4.14-7.58,2.26-1.9,4.9-2.75,7.72-2.75s5.46.95,7.72,2.84c2.26,1.9,3.67,4.45,4.24,7.58,1.7.47,2.92,1.42,3.77,2.75s1.32,2.75,1.32,4.17c0,2.37-.85,4.17-2.64,5.59-1.79,1.33-3.67,1.8-5.65,1.42l-7.44,14.88c-.19.28-.38.47-.57.57-.28.09-.57.19-.75.19Zm-10.08-18.39c.57,0,1.13-.09,1.6-.19.47-.19.85-.38,1.13-.66l1.22-1.33,1.04.95c.75.57,1.6.85,2.54,1.04.94.09,1.79.19,2.54.19s1.6-.09,2.45-.19,1.6-.47,2.35-1.04l1.13-.95,1.13,1.33c.28.28.66.47,1.22.66.47.19,1.04.19,1.6.19,1.04,0,1.98-.47,2.83-1.33.85-.85,1.22-1.9,1.22-2.94,0-.95-.28-1.8-.94-2.56-.57-.76-1.41-1.14-2.54-1.33l-1.7-.28-.09-1.8c-.38-2.46-1.32-4.55-2.92-6.07-1.32-1.71-3.3-2.46-5.75-2.46s-4.52.76-6.03,2.37c-1.6,1.52-2.54,3.6-2.92,6.07l-.09,1.8-1.7.38c-.94.28-1.79.66-2.45,1.33s-.94,1.52-.94,2.46c0,1.14.38,2.09,1.22,2.94.85.95,1.79,1.42,2.83,1.42Zm10.08,13.65l6.03-11.94-.28-.28c-.85.47-1.79.85-2.83,1.04-1.04.19-1.88.38-2.73.38-1.04,0-1.98-.09-3.01-.38-1.04-.19-1.98-.57-2.73-1.04l-.28.19,5.84,12.04Z"/>
</svg>