<?xml version="1.0" encoding="UTF-8"?><svg id="Layer_1" xmlns="http://www.w3.org/2000/svg" viewBox="0 0 40 40"><defs><style>.cls-1{fill:none;}</style></defs><rect class="cls-1" x="0" y="0" width="40" height="40"/><path d="m1.7,17.62c-.64,0-1.16-.26-1.41-.77-.39-.51-.39-1.16,0-1.67L7.36,2.71c.13-.26.39-.51.64-.64s.51-.26.77-.26.51.13.77.26c.26.13.51.39.64.64l7.07,12.47c.26.51.26,1.16,0,1.67-.39.51-.77.77-1.41.77H1.7Zm7.07,21.46c-2.18,0-4.11-.77-5.65-2.31s-2.31-3.47-2.31-5.65c0-2.31.77-4.11,2.31-5.78,1.54-1.54,3.47-2.31,5.65-2.31s4.11.77,5.65,2.31c1.54,1.54,2.31,3.47,2.31,5.65s-.77,4.11-2.31,5.65c-1.54,1.67-3.34,2.44-5.65,2.44Zm0-2.7c1.54,0,2.7-.51,3.86-1.54,1.03-1.03,1.54-2.31,1.54-3.86s-.51-2.7-1.54-3.86c-1.03-1.03-2.31-1.54-3.86-1.54s-2.7.51-3.86,1.54c-1.03,1.03-1.54,2.31-1.54,3.86s.51,2.7,1.54,3.86c1.16,1.03,2.44,1.54,3.86,1.54ZM3.5,14.92h10.67l-5.4-9.38c0-.13-5.27,9.38-5.27,9.38Zm20.31,24.16c-.51,0-.9-.13-1.16-.51-.26-.26-.51-.77-.51-1.16v-12.72c0-.51.13-.9.51-1.16.26-.26.77-.51,1.16-.51h12.72c.51,0,.9.13,1.16.51.26.26.51.77.51,1.16v12.72c0,.51-.13.9-.51,1.16-.26.26-.77.51-1.16.51h-12.72Zm1.03-2.7h10.67v-10.67h-10.67v10.67Zm5.4-19.66c-.26,0-.39,0-.64-.13-.26,0-.39-.13-.64-.26-1.8-1.29-3.21-2.44-4.24-3.47-1.16-1.03-1.93-1.93-2.57-2.7-.64-.77-1.03-1.54-1.29-2.18s-.39-1.41-.39-2.06c0-1.41.51-2.7,1.41-3.6,1.03-1.03,2.18-1.41,3.73-1.41.9,0,1.67.26,2.57.64.77.39,1.54,1.03,2.18,1.93.64-.77,1.29-1.41,2.18-1.93.77-.39,1.67-.64,2.57-.64,1.41,0,2.7.51,3.73,1.54.64.9,1.16,2.06,1.16,3.6,0,.64-.13,1.29-.39,1.93s-.64,1.41-1.29,2.18c-.64.77-1.54,1.67-2.57,2.7-1.16,1.03-2.57,2.18-4.24,3.47-.13.13-.39.26-.64.26-.26.13-.51.13-.64.13Zm0-2.7c2.7-2.18,4.63-3.86,5.65-5.01s1.54-2.18,1.54-2.96-.26-1.29-.64-1.8c-.51-.51-1.16-.64-1.8-.64-.51,0-.9.13-1.29.39-.39.26-1.03.77-1.8,1.41l-1.67,1.54-1.67-1.54c-.77-.77-1.29-1.16-1.8-1.41-.39-.26-.9-.39-1.29-.39-.77,0-1.29.26-1.8.64-.39.39-.64,1.03-.64,1.8,0,.9.51,1.93,1.54,3.08,1.03,1.03,2.83,2.7,5.65,4.88Z"/></svg>