<?xml version="1.0" encoding="UTF-8"?>
<svg id="Capa_1" data-name="Capa 1" xmlns="http://www.w3.org/2000/svg" viewBox="0 0 40 40">
  <defs>
    <style>
      .cls-1 {
        fill: none;
      }
    </style>
  </defs>
  <rect class="cls-1" width="40" height="40"/>
  <path d="m3.33,40c-.89,0-1.67-.33-2.33-1-.67-.67-1-1.44-1-2.33V3.33c0-.89.33-1.67,1-2.33S2.44,0,3.33,0h33.33c.89,0,1.67.33,2.33,1,.67.67,1,1.44,1,2.33v33.33c0,.89-.33,1.67-1,2.33-.67.67-1.44,1-2.33,1H3.33Zm0-3.33h33.33V3.33H3.33v33.33Zm0,0V3.33v33.33Zm4.78-5.33h23.89c.33,0,.56-.11.67-.44s.11-.56,0-.89l-6.56-8.67c-.22-.22-.44-.33-.67-.33s-.44.11-.67.33l-6.67,8.67-4.56-6.22c-.22-.22-.44-.33-.67-.33s-.44.11-.67.33l-4.67,6.22c-.22.33-.22.56-.11.89.11.22.33.44.67.44Z"/>
</svg>