<?xml version="1.0" encoding="UTF-8"?>
<svg id="Capa_1" data-name="Capa 1" xmlns="http://www.w3.org/2000/svg" viewBox="0 0 40 40">
  <defs>
    <style>
      .cls-1 {
        fill: none;
      }
    </style>
  </defs>
  <rect class="cls-1" width="40" height="40"/>
  <path d="m21.3,23.4l-2.8-3.6c-.2-.2-.4-.3-.6-.3s-.4.1-.6.3l-3.2,4.1c-.2.3-.2.5-.1.8s.3.4.7.4h16.5c.3,0,.5-.1.7-.4.1-.3.1-.5-.1-.8l-4.9-6.5c-.2-.2-.4-.3-.6-.3s-.4.1-.6.3l-4.4,6Zm-12.3,10.6c-.8,0-1.5-.3-2.1-.9-.6-.6-.9-1.3-.9-2.1V3c0-.8.3-1.5.9-2.1.6-.6,1.3-.9,2.1-.9h28c.8,0,1.5.3,2.1.9.6.6.9,1.3.9,2.1v28c0,.8-.3,1.5-.9,2.1-.6.6-1.3.9-2.1.9H9Zm0-3h28V3H9v28Zm-6,9c-.8,0-1.5-.3-2.1-.9-.6-.6-.9-1.3-.9-2.1V7.5c0-.4.1-.8.4-1.1.3-.3.7-.4,1.1-.4s.8.1,1.1.4c.3.3.4.7.4,1.1v29.5h29.5c.4,0,.8.1,1.1.4.3.3.4.6.4,1.1,0,.4-.1.8-.4,1.1-.3.3-.6.4-1.1.4H3ZM9,3v28V3Z"/>
</svg>