<?xml version="1.0" encoding="UTF-8"?>
<svg id="Capa_1" data-name="Capa 1" xmlns="http://www.w3.org/2000/svg" viewBox="0 0 40 40">
  <defs>
    <style>
      .cls-1 {
        fill: none;
      }
    </style>
  </defs>
  <rect class="cls-1" x="0" width="40" height="40"/>
  <path d="m3.33,40c-.89,0-1.67-.33-2.33-1-.67-.67-1-1.44-1-2.33V3.33c0-.89.33-1.67,1-2.33S2.44,0,3.33,0h33.33c.89,0,1.67.33,2.33,1,.67.67,1,1.44,1,2.33v33.33c0,.89-.33,1.67-1,2.33-.67.67-1.44,1-2.33,1H3.33Zm0-3.33h33.33v-7.56h-8.11c-1,1.44-2.22,2.67-3.78,3.44-1.56.78-3.11,1.22-4.78,1.22s-3.22-.44-4.78-1.22c-1.56-.78-2.78-1.89-3.78-3.44H3.33v7.56Zm16.67-6.33c1.33,0,2.44-.33,3.56-1,1.11-.67,2-1.56,2.56-2.67.22-.33.56-.67,1-.78s.89-.22,1.33-.22h8.22V3.33H3.33v22.44h8.22c.44,0,.89.11,1.33.22.44.11.78.33,1,.78.67,1.11,1.44,2,2.56,2.67,1.11.67,2.22.89,3.56.89Zm-16.67,6.33h33.33H3.33Z"/>
</svg>