<?xml version="1.0" encoding="UTF-8"?>
<svg id="Capa_1" data-name="Capa 1" xmlns="http://www.w3.org/2000/svg" viewBox="0 0 40 40">
  <defs>
    <style>
      .cls-1 {
        fill: none;
      }
    </style>
  </defs>
  <rect class="cls-1" width="40" height="40"/>
  <path d="m1.67,40c-.44,0-.89-.11-1.22-.44-.33-.33-.44-.78-.44-1.22s.11-.89.44-1.22.78-.44,1.22-.44h36.67c.44,0,.89.11,1.22.44.33.33.44.67.44,1.22,0,.44-.11.89-.44,1.22-.33.33-.67.44-1.22.44H1.67Zm17.78-9.11c-.44,0-.82-.22-1.15-.56-.33-.44-.52-.67-.52-1.22,0-.44.11-.89.44-1.22.33-.33.67-.44,1.22-.44h18.89c.44,0,.89.11,1.22.44s.44.67.44,1.22c0,.44-.11.89-.44,1.22-.33.33-.67.44-1.22.44l-18.89.11h0Zm0-9.22c-.44,0-.89-.11-1.22-.44-.33-.33-.44-.78-.44-1.22s.11-.89.44-1.22c.33-.33.67-.44,1.22-.44h18.89c.44,0,.89.11,1.22.44s.44.67.44,1.22c0,.44-.11.89-.44,1.22-.33.33-.67.44-1.22.44h-18.89Zm0-9.22c-.44,0-.89-.11-1.22-.44-.33-.33-.44-.67-.44-1.22,0-.44.11-.89.44-1.22s.67-.44,1.22-.44h18.89c.44,0,.89.11,1.22.44.33.33.44.67.44,1.22,0,.44-.11.89-.44,1.22-.33.33-.67.44-1.22.44h-18.89ZM1.67,3.33c-.44,0-.89-.11-1.22-.44-.33-.33-.44-.78-.44-1.22S.11.78.44.44c.33-.33.78-.44,1.22-.44h36.67c.44,0,.89.11,1.22.44.33.33.44.78.44,1.22s-.11.89-.44,1.22c-.33.33-.78.44-1.22.44H1.67Zm-.33,22.89c-.33.22-.56.33-.89.22s-.44-.44-.44-.89v-11.33c0-.33.22-.67.56-.78s.67-.11.89.22l5.78,5.78c.22.22.22.33.22.56s-.11.44-.22.56l-5.89,5.67Z"/>
</svg>