<?xml version="1.0" encoding="UTF-8"?>
<svg id="Capa_1" data-name="Capa 1" xmlns="http://www.w3.org/2000/svg" viewBox="0 0 40 40">
  <defs>
    <style>
      .cls-1 {
        fill: none;
      }
    </style>
  </defs>
  <rect class="cls-1" width="40" height="40"/>
  <g>
    <path d="m12,24c-.4,0-.8.1-1.1.4s-.4.6-.4,1.1v5c0,.4.1.8.4,1.1.3.3.7.4,1.1.4s.8-.1,1.1-.4c.3-.3.4-.6.4-1.1v-5c0-.4-.1-.8-.4-1.1-.3-.3-.7-.4-1.1-.4Z"/>
    <path d="m28,32c.4,0,.8-.1,1.1-.4.3-.3.4-.6.4-1.1v-5c0-.4-.1-.8-.4-1.1-.3-.3-.7-.4-1.1-.4s-.8.1-1.1.4-.4.6-.4,1.1v5c0,.4.1.8.4,1.1.3.3.7.4,1.1.4Z"/>
    <path d="m18.9,24.4c-.3.3-.4.6-.4,1.1v5c0,.4.1.8.4,1.1.3.3.7.4,1.1.4s.8-.1,1.1-.4c.3-.3.4-.6.4-1.1v-5c0-.4-.1-.8-.4-1.1-.3-.3-.7-.4-1.1-.4s-.8.1-1.1.4Z"/>
    <path d="m38.1,1.3c-.1-.3-.2-.7-.5-.9C37.4.1,37.1,0,36.7,0h-2.4c-.4,0-.7.1-.9.4-.3.2-.4.5-.5.9l-1.9,14.7h-7v-3.8c0-.5-.2-.9-.6-1.2-.4-.3-.9-.4-1.4-.2l-8,3.2v-1.7c0-.6-.3-1-.7-1.3-.4-.3-.9-.3-1.4-.1L1.8,15.2c-.5.2-1,.6-1.3,1.1S0,17.4,0,18v19C0,37.8.3,38.5.9,39.1c.6.6,1.3.9,2.1.9h34c.8,0,1.5-.3,2.1-.9.6-.6.9-1.3.9-2.1V16l-1.9-14.7Zm-1.1,35.7H3v-19l8-3.6v4l10-4v4.6h16v18Z"/>
  </g>
</svg>