<?xml version="1.0" encoding="UTF-8"?>
<svg id="Capa_1" data-name="Capa 1" xmlns="http://www.w3.org/2000/svg" viewBox="0 0 40 40">
  <defs>
    <style>
      .cls-1 {
        fill: none;
      }
    </style>
  </defs>
  <rect class="cls-1" width="40" height="40"/>
  <path d="m8.81,29c-2.49,0-4.57-.9-6.32-2.69s-2.49-3.91-2.49-6.35.83-4.56,2.58-6.27c1.75-1.71,3.74-2.61,6.24-2.61,1,0,2,.16,2.91.49s1.75.81,2.49,1.55l3.83,3.67-1.75,1.63-3.66-3.58c-.5-.49-1.08-.81-1.75-1.06s-1.33-.24-2.08-.24c-1.75,0-3.24.65-4.49,1.87-1.25,1.3-1.83,2.77-1.83,4.56s.58,3.34,1.83,4.64c1.16,1.3,2.74,1.95,4.49,1.95.67,0,1.33-.08,2-.33.67-.24,1.25-.57,1.75-.98l13.22-12.22c.75-.65,1.58-1.22,2.49-1.55s1.91-.49,2.83-.49c2.49,0,4.57.9,6.32,2.61s2.58,3.83,2.58,6.27-.83,4.56-2.58,6.35c-1.66,1.79-3.83,2.69-6.32,2.69-1,0-1.91-.16-2.91-.49-.91-.33-1.75-.81-2.49-1.47l-3.83-3.67,1.75-1.71,3.66,3.58c.5.49,1,.81,1.66.98.67.24,1.33.33,2.08.33,1.83,0,3.33-.65,4.49-1.95,1.25-1.3,1.83-2.85,1.83-4.64s-.58-3.26-1.83-4.56c-1.25-1.22-2.74-1.87-4.49-1.87-.67,0-1.33.08-2,.33-.67.24-1.25.57-1.75,1.06l-13.06,12.3c-.75.65-1.58,1.14-2.49,1.47-1,.24-1.91.41-2.91.41Z"/>
</svg>