<?xml version="1.0" encoding="UTF-8"?>
<svg id="Capa_1" data-name="Capa 1" xmlns="http://www.w3.org/2000/svg" viewBox="0 0 40 40">
  <defs>
    <style>
      .cls-1 {
        fill: none;
      }
    </style>
  </defs>
  <rect class="cls-1" width="40" height="40"/>
  <path d="m20,7.78c-1.07,0-1.99-.38-2.75-1.14-.76-.76-1.14-1.68-1.14-2.75s.38-1.99,1.14-2.75c.76-.76,1.68-1.14,2.75-1.14s1.99.38,2.75,1.14c.76.76,1.14,1.68,1.14,2.75s-.38,1.99-1.14,2.75c-.76.76-1.68,1.14-2.75,1.14Zm0,32.22c-.77,0-1.43-.27-1.97-.81-.54-.54-.81-1.2-.81-1.97v-21.11c0-.77.27-1.43.81-1.97.54-.54,1.2-.81,1.97-.81s1.43.27,1.97.81c.54.54.81,1.2.81,1.97v21.11c0,.77-.27,1.43-.81,1.97-.54.54-1.2.81-1.97.81Z"/>
</svg>