<?xml version="1.0" encoding="UTF-8"?>
<svg id="Capa_1" data-name="Capa 1" xmlns="http://www.w3.org/2000/svg" viewBox="0 0 40 40">
  <defs>
    <style>
      .cls-1 {
        fill: none;
      }
    </style>
  </defs>
  <rect class="cls-1" width="40" height="40"/>
  <path d="m20.05,9.73c-5.62,0-10.24,4.63-10.24,10.27s4.62,10.27,10.24,10.27,10.24-4.63,10.24-10.27-4.62-10.27-10.24-10.27Zm0,16.9c-3.62,0-6.62-3-6.62-6.64s3-6.64,6.62-6.64,6.62,3,6.62,6.64-3,6.64-6.62,6.64h0Zm12.99-17.28c0,1.38-1.12,2.38-2.37,2.38-1.37,0-2.37-1.13-2.37-2.38s1.12-2.38,2.37-2.38c1.25-.13,2.37,1,2.37,2.38Zm6.75,2.38c-.12-3.26-.87-6.01-3.25-8.39C34.17.97,31.42.22,28.17.09c-3.25-.13-13.12-.13-16.37,0-3.25.13-6,.88-8.37,3.26C1.06,5.73.31,8.48.19,11.74c-.25,3.26-.25,13.27,0,16.53.12,3.26.87,6.01,3.25,8.39,2.37,2.38,5.12,3.13,8.37,3.26,3.25.13,13.24.13,16.49,0,3.25-.13,6-.88,8.37-3.26,2.37-2.38,3.12-5.13,3.25-8.39.12-3.26.12-13.27-.12-16.53h0Zm-4.25,20.03c-.75,1.75-2,3.13-3.75,3.76-2.62,1-8.87.75-11.74.75s-9.12.25-11.74-.75c-1.75-.75-3.12-2-3.75-3.76-1-2.63-.75-8.89-.75-11.77s-.25-9.14.75-11.77c.75-1.75,2-3.13,3.75-3.76,2.62-1,8.87-.75,11.74-.75s9.12-.25,11.74.75c1.75.75,3.12,2,3.75,3.76,1,2.63.75,8.89.75,11.77s.37,9.14-.75,11.77Z"/>
</svg>