<?xml version="1.0" encoding="UTF-8"?>
<svg id="Capa_1" data-name="Capa 1" xmlns="http://www.w3.org/2000/svg" viewBox="0 0 40 40">
  <defs>
    <style>
      .cls-1 {
        fill: none;
      }
    </style>
  </defs>
  <rect class="cls-1" width="40" height="40"/>
  <path d="m37.71,12.46c.87-1.88,1.62-4.76,1.62-6.88,0-5.63-6.24-7.63-16.36-3C14.61,1.94,6.49,8.33,4.5,17.09c2.37-2.75,6.12-6.38,9.49-7.88-4.25,3.75-7.87,8.51-10.61,13.52-1.5,3-3.37,7.76-3.37,11.39,0,7.76,7.24,6.76,14.11,3.25,2.5,1.25,5.24,1.25,7.99,1.25,7.62,0,14.36-4.25,16.98-11.39h-9.49c-4.12,6.88-15.36,4.13-15.36-3.75h25.6c.5-3.38-.12-7.51-2.12-11.01h0ZM5,27.1c1.37,4,4.25,7.51,7.87,9.64-6.87,3.75-13.49,2.25-7.87-9.64Zm9.12-8.51c.12-4.25,3.87-7.38,8.12-7.38s7.99,3.13,8.12,7.38H14.11ZM28.47,3.82c1.62-.75,3.75-1.75,5.62-1.75,2.5,0,4.25,1.75,4.25,4.25,0,1.63-.62,3.88-1.12,5.26-2-3.25-5.12-6.26-8.74-7.76Z"/>
</svg>