<?xml version="1.0" encoding="UTF-8"?>
<svg id="Capa_1" data-name="Capa 1" xmlns="http://www.w3.org/2000/svg" viewBox="0 0 40 40">
  <defs>
    <style>
      .cls-1 {
        fill: none;
      }
    </style>
  </defs>
  <rect class="cls-1" width="40" height="40"/>
  <path d="m5.75,40c-.83,0-1.38-.28-1.93-.84-.55-.56-.83-1.26-.83-1.96s.28-1.4.83-1.96c.55-.56,1.24-.84,1.93-.84h6.47L21.86,5.61h-8.26c-.83,0-1.38-.28-1.93-.84-.55-.56-.83-1.26-.83-1.96,0-.84.28-1.4.83-1.96s1.24-.84,1.93-.84h20.65c.83,0,1.38.28,1.93.84.55.56.83,1.26.83,1.96,0,.84-.28,1.4-.83,1.96-.55.56-1.24.84-1.93.84h-6.47l-9.64,28.77h8.26c.83,0,1.38.28,1.93.84.55.56.83,1.26.83,1.96s-.28,1.4-.83,1.96-1.24.84-1.93.84H5.75Z"/>
</svg>