<?xml version="1.0" encoding="UTF-8"?>
<svg id="Capa_1" data-name="Capa 1" xmlns="http://www.w3.org/2000/svg" viewBox="0 0 40 40">
  <defs>
    <style>
      .cls-1 {
        fill: none;
      }
    </style>
  </defs>
  <rect class="cls-1" width="40" height="40"/>
  <path d="m26.73,24.57c.75-.5,1.88-1,1.88-1,0,0-3.01.5-6.02.75-3.63.25-7.65.38-9.65.13-4.76-.63,2.63-2.38,2.63-2.38,0,0-2.88-.13-6.27,1.5-4.26,2.01,10.03,2.88,17.42,1Zm-6.77-2.51c-1.5-3.38-6.52-6.27,0-11.41C28.11,4.14,23.97,0,23.97,0c1.63,6.64-5.89,8.65-8.65,12.79-1.88,2.76.88,5.77,4.64,9.28Zm9.02-13.91s-13.66,3.38-7.14,11.03c1.88,2.26-.5,4.26-.5,4.26,0,0,4.89-2.51,2.63-5.77-2.13-2.88-3.76-4.39,5.01-9.53Zm-.5,21.18c0,.13-.13.13-.13.25,10.03-2.63,6.39-9.28,1.5-7.65-.25.13-.5.25-.63.5.25-.13.63-.13.88-.25,2.38-.5,5.89,3.26-1.63,7.14h0Zm3.76,4.89s1.13.88-1.25,1.63c-4.51,1.38-18.8,1.75-22.81,0-1.38-.63,1.25-1.5,2.13-1.63.88-.13,1.38-.13,1.38-.13-1.63-1.13-10.28,2.26-4.39,3.13,15.92,2.63,29.08-1.13,24.94-3.01Zm-17.55-3.13c-6.14,1.75,3.76,5.26,11.66,1.88-.75-.25-1.5-.63-2.26-1.13-3.51.63-5.14.75-8.27.38-2.63-.25-1.13-1.13-1.13-1.13Zm14.04,7.52c-6.14,1.13-13.79,1-18.3.25,0,0,.88.75,5.64,1,7.27.5,18.3-.25,18.55-3.63.13.13-.38,1.38-5.89,2.38h0Zm-3.38-10.9c-4.64.88-7.27.88-10.65.5-2.63-.25-.88-1.5-.88-1.5-6.77,2.26,3.76,4.76,13.29,2.01-.75-.25-1.25-.63-1.75-1Z"/>
</svg>