<?xml version="1.0" encoding="UTF-8"?>
<svg id="Capa_1" data-name="Capa 1" xmlns="http://www.w3.org/2000/svg" viewBox="0 0 40 40">
  <defs>
    <style>
      .cls-1 {
        fill: none;
      }
    </style>
  </defs>
  <rect class="cls-1" width="40" height="40"/>
  <path d="m0,5.25C0,2.37,2.5,0,5.38,0c2.62,0,4.88,2,5.25,4.5,2.87-.62,6,0,8.62,2.62l-4,4c-1.87-1.87-3.75-1.5-5-.25s-1.25,3.37,0,4.62l8.87,8.87-3.88,4c-7.87-7.75-4.37-4.37-8.87-8.87-2.37-2.37-3.12-5.75-2.25-8.87C1.88,10,0,7.87,0,5.25Zm11.62,10.5l4,4c.88-.88,8-8,8.87-8.87,1.25-1.25,3.38-1.25,4.63,0,1.12,1.12,1.5,3.12-.25,5l3.88,4c2.75-2.75,3.38-6,2.62-9,2.62-.38,4.63-2.62,4.63-5.25-.12-3.25-2.5-5.63-5.37-5.63s-5,2-5.25,4.62c-3-.87-6.37-.12-8.75,2.25-1.75,1.63-6.5,6.25-9,8.87Zm23.75,13.5c.75-2.87-.12-6.12-2.37-8.37-1-1.12.5.37-8.87-8.87l-4,4,8.87,8.87c1.25,1.25,1.25,3.38,0,4.63-1.12,1.12-3.12,1.5-5-.25l-3.88,4c2.5,2.75,6.12,3.5,9.12,2.5.5,2.5,2.63,4.25,5.25,4.25,3,0,5.37-2.38,5.37-5.37.13-2.75-1.87-5-4.5-5.38h0Zm-7.5-4.75l-3.88-4c-7.75,7.75-4.5,4.5-8.87,8.87-1.25,1.25-3.37,1.25-4.62,0-1.12-1.25-1.5-3.12.25-5l-3.88-4c-2.75,2.75-3.37,5.88-2.62,8.75C1.75,29.87,0,32,0,34.62,0,37.5,2.38,40,5.38,40c2.5,0,4.62-1.75,5.25-4.12,2.87.75,6.12,0,8.37-2.37,2.87-2.88,1.12-1.13,8.87-9h0Z"/>
</svg>