<?xml version="1.0" encoding="UTF-8"?>
<svg id="Capa_1" data-name="Capa 1" xmlns="http://www.w3.org/2000/svg" viewBox="0 0 40 40">
  <defs>
    <style>
      .cls-1 {
        fill: none;
      }
    </style>
  </defs>
  <rect class="cls-1" x="0" width="40" height="40"/>
  <path d="m0,0v40h40V0H0Zm21.77,31.2c0,3.89-2.29,5.67-5.62,5.67-3.01,0-4.75-1.55-5.64-3.44l3.06-1.85c.59,1.04,1.13,1.93,2.42,1.93s2.02-.48,2.02-2.37v-12.78h3.76v12.83h0Zm8.89,5.67c-3.49,0-5.75-1.66-6.85-3.84l3.06-1.77c.8,1.31,1.86,2.29,3.71,2.29,1.55,0,2.55-.78,2.55-1.86,0-1.29-1.02-1.74-2.74-2.5l-.94-.4c-2.71-1.15-4.51-2.61-4.51-5.67,0-2.82,2.15-4.96,5.5-4.96,2.39,0,4.11.83,5.34,3.01l-2.93,1.87c-.64-1.15-1.34-1.61-2.42-1.61s-1.79.7-1.79,1.61c0,1.13.7,1.58,2.31,2.29l.94.4c3.2,1.37,4.99,2.77,4.99,5.91,0,3.37-2.66,5.23-6.22,5.23h0Z"/>
</svg>