<?xml version="1.0" encoding="UTF-8"?>
<svg id="Capa_1" data-name="Capa 1" xmlns="http://www.w3.org/2000/svg" viewBox="0 0 40 40">
  <defs>
    <style>
      .cls-1 {
        fill: none;
      }
    </style>
  </defs>
  <rect class="cls-1" x="0" width="40" height="40"/>
  <path d="m10.2,22.72c-.75,0-1.39-.27-1.92-.8-.53-.53-.8-1.17-.8-1.92s.27-1.39.8-1.92c.53-.53,1.17-.8,1.92-.8s1.39.27,1.92.8c.53.53.8,1.17.8,1.92s-.27,1.39-.8,1.92c-.53.53-1.17.8-1.92.8Zm0,7.48c-2.83,0-5.24-.99-7.23-2.97C.99,25.24,0,22.84,0,20c0-2.83.99-5.24,2.98-7.23,1.98-1.99,4.39-2.98,7.23-2.98,2.06,0,3.89.52,5.5,1.56,1.61,1.04,2.82,2.5,3.65,4.38h16.21c.19,0,.36.03.53.1.17.07.33.18.48.33l3.01,3.01c.15.15.26.31.33.49.06.17.1.35.1.55,0,.2-.04.38-.11.54-.07.16-.18.32-.34.48l-4.87,4.61c-.12.13-.26.23-.43.3-.17.07-.33.11-.5.11-.17,0-.33-.01-.48-.05-.15-.04-.31-.11-.46-.22l-2.67-1.96-2.88,2.1c-.13.1-.27.17-.41.2-.14.03-.29.05-.44.05-.15,0-.3-.02-.45-.07-.15-.05-.28-.11-.4-.2l-2.53-1.87h-3.69c-.74,1.74-1.91,3.16-3.51,4.28-1.59,1.11-3.47,1.67-5.64,1.67Zm0-2.33c1.8,0,3.41-.57,4.81-1.72,1.4-1.14,2.3-2.55,2.71-4.23h6.13l2.58,1.94s-.03,0,0,0c.02,0,.02,0,0,0h0,0l3.76-2.7,3.39,2.58h0,0s0,0,0,0l3.69-3.56s0,0,0,.02c0,.01,0,0,0-.02h0,0l-2.1-2.1h0s0,0,0,0h-17.45c-.37-1.62-1.25-3.01-2.64-4.19-1.39-1.17-3.01-1.76-4.87-1.76-2.18,0-4.04.77-5.57,2.3-1.53,1.53-2.3,3.39-2.3,5.57s.77,4.04,2.3,5.57c1.53,1.53,3.39,2.3,5.57,2.3Z"/>
</svg>