<?xml version="1.0" encoding="UTF-8"?>
<svg id="Capa_1" data-name="Capa 1" xmlns="http://www.w3.org/2000/svg" viewBox="0 0 40 40">
  <defs>
    <style>
      .cls-1 {
        fill: none;
      }
    </style>
  </defs>
  <rect class="cls-1" x="0" width="40" height="40"/>
  <path d="m3.29,33.68c-.9,0-1.68-.33-2.33-.98s-.97-1.42-.97-2.32V9.61c0-.9.32-1.68.97-2.33s1.42-.97,2.33-.97h33.41c.9,0,1.68.32,2.33.97s.97,1.42.97,2.33v20.78c0,.89-.32,1.66-.97,2.32s-1.42.98-2.33.98H3.29Zm0-2.65h33.41c.16,0,.31-.07.45-.2.13-.13.2-.28.2-.45V9.61c0-.16-.07-.31-.2-.45-.13-.13-.28-.2-.45-.2H3.29c-.16,0-.31.07-.45.2-.13.13-.2.28-.2.45v20.78c0,.16.07.31.2.45.13.13.28.2.45.2Zm9.62-3h14.17c.44,0,.82-.15,1.14-.46.31-.31.47-.69.47-1.15s-.16-.82-.47-1.13c-.31-.31-.69-.47-1.14-.47h-14.17c-.44,0-.82.16-1.14.47-.31.31-.47.69-.47,1.14s.16.83.47,1.14c.31.31.69.46,1.14.46Zm-10.27,3V8.96v22.08Zm2.94-9.43h3.21v-3.21h-3.21s0,3.21,0,3.21Zm6.42,0h3.21v-3.21h-3.21v3.21Zm6.39,0h3.21v-3.21h-3.21v3.21Zm6.42,0h3.21v-3.21h-3.21v3.21Zm6.39,0h3.21v-3.21h-3.21v3.21ZM5.58,15.16h3.21v-3.21h-3.21v3.21Zm6.42,0h3.21v-3.21h-3.21v3.21Zm6.39,0h3.21v-3.21h-3.21v3.21Zm6.42,0h3.21v-3.21h-3.21v3.21Zm6.39,0h3.21v-3.21h-3.21v3.21Z"/>
</svg>