<?xml version="1.0" encoding="UTF-8"?>
<svg id="Capa_1" data-name="Capa 1" xmlns="http://www.w3.org/2000/svg" viewBox="0 0 40 40">
  <defs>
    <style>
      .cls-1 {
        fill: none;
      }
    </style>
  </defs>
  <rect class="cls-1" x="0" width="40" height="40"/>
  <path d="m6.98,32.23v-14.86c0-.38.13-.7.39-.96.26-.26.58-.39.96-.39s.7.13.95.39.38.58.38.96v14.86c0,.38-.13.7-.39.96s-.58.39-.96.39-.7-.13-.95-.39c-.25-.26-.38-.58-.38-.96Zm11.78,0v-14.86c0-.38.13-.7.39-.96.26-.26.58-.39.96-.39s.7.13.95.39c.25.26.38.58.38.96v14.86c0,.38-.13.7-.39.96-.26.26-.58.39-.96.39s-.7-.13-.95-.39-.38-.58-.38-.96ZM1.64,40c-.38,0-.7-.13-.96-.39-.26-.26-.39-.58-.39-.96s.13-.7.39-.95c.26-.25.58-.38.96-.38h36.72c.38,0,.7.13.96.39.26.26.39.58.39.96s-.13.7-.39.95c-.26.25-.58.38-.96.38,0,0-36.72,0-36.72,0Zm28.7-7.77v-14.86c0-.38.13-.7.39-.96s.58-.39.96-.39.7.13.95.39.38.58.38.96v14.86c0,.38-.13.7-.39.96s-.58.39-.96.39-.7-.13-.95-.39-.38-.58-.38-.96Zm8.2-19.95H1.33c-.28,0-.52-.1-.72-.3-.2-.2-.3-.44-.3-.72v-.71c0-.19.05-.36.15-.52.1-.16.24-.28.41-.37L18.46.37c.48-.25.99-.37,1.53-.37s1.05.12,1.54.37l17.56,9.22c.19.11.33.26.44.44.11.18.16.38.16.61v.45c0,.34-.11.62-.33.85-.22.22-.49.33-.83.33Zm-31.82-2.68h26.55H6.73Zm0,0h26.55l-12.99-6.84c-.1-.04-.19-.06-.29-.06s-.19.02-.29.06l-12.99,6.84Z"/>
</svg>