<?xml version="1.0" encoding="UTF-8"?>
<svg id="Capa_1" data-name="Capa 1" xmlns="http://www.w3.org/2000/svg" viewBox="0 0 40 40">
  <defs>
    <style>
      .cls-1 {
        fill: none;
      }
    </style>
  </defs>
  <rect class="cls-1" x="0" width="40" height="40"/>
  <path d="m26.02,32.74l-1.67,4.57c-.14.34-.35.62-.66.84-.3.22-.64.33-1.01.33-.63,0-1.12-.26-1.47-.77-.35-.51-.41-1.07-.18-1.67l7.02-18.58c.15-.34.36-.61.65-.83.29-.21.62-.32.99-.32h1.39c.37,0,.7.1.99.31.29.21.51.48.66.82l7.11,18.62c.25.6.19,1.15-.17,1.66-.36.51-.85.76-1.46.76-.41,0-.77-.12-1.08-.35-.31-.24-.53-.55-.67-.94l-1.51-4.45s-8.93,0-8.93,0Zm1.07-3.23h6.59l-3.23-9.04h-.12s-3.23,9.04-3.23,9.04Zm-12.32-5.81l-7.95,7.95c-.35.35-.78.53-1.28.52-.5,0-.93-.19-1.28-.54-.35-.35-.53-.79-.53-1.29s.18-.94.53-1.29l8.09-8.07c-1.16-1.33-2.19-2.68-3.08-4.05-.89-1.37-1.67-2.81-2.33-4.31h3.93c.55,1.06,1.14,2.04,1.76,2.93s1.36,1.83,2.2,2.79c1.38-1.47,2.52-2.98,3.43-4.53s1.68-3.18,2.3-4.9H1.85c-.52,0-.96-.18-1.31-.53-.35-.35-.53-.79-.53-1.32s.18-.96.53-1.32c.35-.35.79-.53,1.32-.53h11.08v-1.85c0-.52.18-.96.53-1.31.35-.35.79-.53,1.32-.53s.96.18,1.32.53c.35.35.53.79.53,1.32v1.85h11.09c.52,0,.96.18,1.31.53.35.35.53.79.53,1.32s-.18.96-.53,1.32c-.35.35-.79.53-1.32.53h-3.46c-.66,2.14-1.55,4.24-2.66,6.29-1.11,2.05-2.48,4-4.12,5.82l4.47,4.55-1.39,3.76s-5.78-5.65-5.78-5.65Z"/>
</svg>