<?xml version="1.0" encoding="UTF-8"?>
<svg id="Capa_1" data-name="Capa 1" xmlns="http://www.w3.org/2000/svg" viewBox="0 0 40 40">
  <defs>
    <style>
      .cls-1 {
        fill: none;
      }
    </style>
  </defs>
  <rect class="cls-1" x="0" width="40" height="40"/>
  <path d="m2.35,34.03c-.64,0-1.2-.24-1.66-.71-.46-.48-.69-1.04-.69-1.71h6.22c-.75,0-1.39-.27-1.92-.8-.53-.53-.8-1.17-.8-1.92V8.69c0-.75.27-1.39.8-1.92.53-.53,1.17-.8,1.92-.8h27.57c.75,0,1.39.27,1.92.8.53.53.8,1.17.8,1.92v20.2c0,.75-.27,1.39-.8,1.92-.53.53-1.17.8-1.92.8h6.22c0,.67-.24,1.24-.71,1.71s-1.04.71-1.71.71c0,0-35.23,0-35.23,0Zm17.65-.93c.37,0,.67-.12.91-.36.24-.24.36-.54.36-.91s-.12-.67-.36-.91c-.24-.25-.55-.37-.91-.37s-.67.12-.91.37c-.24.25-.36.55-.36.9s.12.67.36.91c.24.24.55.36.91.36Zm-13.78-3.68h27.57c.13,0,.26-.06.37-.17.11-.11.17-.23.17-.37V8.69c0-.13-.06-.26-.17-.37-.11-.11-.23-.17-.37-.17H6.22c-.13,0-.26.06-.37.17-.11.11-.17.23-.17.37v20.2c0,.13.06.26.17.37.11.11.23.17.37.17Zm-.54,0V8.15v21.27Z"/>
</svg>