<?xml version="1.0" encoding="UTF-8"?>
<svg id="Capa_1" data-name="Capa 1" xmlns="http://www.w3.org/2000/svg" viewBox="0 0 40 40">
  <defs>
    <style>
      .cls-1 {
        fill: none;
      }
    </style>
  </defs>
  <rect class="cls-1" x="0" width="40" height="40"/>
  <path d="m11.9,20.32v3.89c0,2.23.79,4.14,2.37,5.72s3.49,2.37,5.72,2.37,4.14-.79,5.72-2.37c1.58-1.58,2.37-3.49,2.37-5.72v-2.24c0-.47-.16-.86-.47-1.17-.32-.32-.71-.47-1.17-.47,0,0-14.55,0-14.55,0Zm8.1,9.47c-1.55,0-2.87-.54-3.96-1.63-1.09-1.09-1.63-2.4-1.63-3.96v-1.38h11.17v1.38c0,1.55-.54,2.87-1.63,3.96s-2.4,1.63-3.96,1.63Zm-7.37-20c-1.12,0-2.12.36-2.97,1.09-.86.72-1.51,1.61-1.96,2.65-.13.3-.12.6.06.87.17.28.43.46.76.55.3.09.61.06.93-.1.32-.16.55-.39.68-.7.27-.51.62-.94,1.04-1.3.42-.36.91-.54,1.47-.55.56.01,1.05.2,1.47.57.42.37.77.81,1.04,1.32.14.31.37.53.67.67.31.14.61.16.92.07.33-.09.58-.27.77-.54.18-.27.2-.56.07-.86-.45-1.04-1.11-1.93-1.97-2.65s-1.85-1.09-2.98-1.09Zm14.74,0c-1.12,0-2.12.36-2.97,1.09-.86.72-1.51,1.61-1.96,2.65-.13.3-.12.6.06.87.17.28.43.46.76.55.3.09.61.06.93-.1.32-.16.55-.39.68-.7.26-.51.6-.95,1.03-1.31s.92-.54,1.48-.54,1.05.19,1.48.56.77.82,1.03,1.33c.14.31.37.53.67.67.31.14.61.16.92.07.33-.09.58-.27.77-.54.18-.27.2-.56.07-.86-.45-1.04-1.11-1.93-1.97-2.65s-1.85-1.09-2.98-1.09Zm-7.36,30.2c-2.77,0-5.37-.52-7.8-1.57-2.43-1.05-4.55-2.47-6.35-4.27-1.8-1.8-3.23-3.92-4.28-6.35C.53,25.37,0,22.77,0,20c0-2.77.52-5.37,1.57-7.8,1.05-2.43,2.47-4.55,4.27-6.35,1.8-1.8,3.92-3.23,6.35-4.28C14.63.53,17.23,0,20,0s5.37.52,7.8,1.57c2.43,1.05,4.55,2.47,6.35,4.27,1.8,1.8,3.23,3.92,4.28,6.35,1.05,2.43,1.58,5.03,1.58,7.8s-.52,5.37-1.57,7.8c-1.05,2.43-2.47,4.55-4.27,6.35-1.8,1.8-3.92,3.23-6.35,4.28-2.43,1.05-5.03,1.58-7.8,1.58Zm0-2.65c4.84,0,8.95-1.68,12.31-5.04,3.36-3.36,5.04-7.47,5.04-12.31,0-4.84-1.68-8.95-5.04-12.31-3.36-3.36-7.47-5.04-12.31-5.04-4.84,0-8.95,1.68-12.31,5.04-3.36,3.36-5.04,7.47-5.04,12.31s1.68,8.95,5.04,12.31c3.36,3.36,7.47,5.04,12.31,5.04Z"/>
</svg>