<?xml version="1.0" encoding="UTF-8"?>
<svg id="Capa_1" data-name="Capa 1" xmlns="http://www.w3.org/2000/svg" viewBox="0 0 40 40">
  <defs>
    <style>
      .cls-1 {
        fill: none;
      }
    </style>
  </defs>
  <rect class="cls-1" width="40" height="40"/>
  <path d="m20,40c-.35,0-.71-.12-1.18-.24s-.71-.35-1.06-.59L.71,25.88C.24,25.53,0,25.06,0,24.47s.24-1.06.71-1.41c.35-.24.71-.35,1.06-.35s.71.12,1.06.35l17.18,13.41,17.18-13.41c.35-.24.71-.35,1.06-.35s.71.12,1.06.35c.47.35.71.82.71,1.41s-.24,1.06-.71,1.41l-17.06,13.29c-.35.24-.71.47-1.06.59-.47.12-.82.24-1.18.24Zm0-8.94c-.35,0-.71-.12-1.18-.24s-.71-.35-1.06-.59L.59,16.94c-.24-.24-.35-.47-.47-.71S0,15.76,0,15.53,0,15.06.12,14.82s.24-.47.47-.71L17.76.71c.35-.24.71-.35,1.06-.47s.71-.24,1.18-.24.71.12,1.18.24c.35.12.71.35,1.06.59l17.18,13.29c.24.24.35.47.47.71.12.24.12.47.12.71s0,.47-.12.71-.24.47-.47.71l-17.18,13.41c-.35.24-.71.47-1.06.59-.47,0-.82.12-1.18.12Zm0-3.53l15.41-12L20,3.53,4.59,15.53l15.41,12Z"/>
</svg>