<?xml version="1.0" encoding="UTF-8"?>
<svg id="Capa_1" data-name="Capa 1" xmlns="http://www.w3.org/2000/svg" viewBox="0 0 40 40">
  <defs>
    <style>
      .cls-1 {
        fill: none;
      }
    </style>
  </defs>
  <rect class="cls-1" width="40" height="40"/>
  <path d="m20,40c-2.5,0-4.75-.37-6.88-1.25s-4.13-2-5.87-3.38l-3.87,3.87c-.38.37-.85.75-1.35.75-.36.06-.97-.07-1.34-.44-.38-.37-.57-.89-.57-1.39s.39-1.05.77-1.42l3.75-3.87c-1.5-1.75-2.63-3.75-3.37-5.88-.75-2.13-1.25-4.5-1.25-6.88,0-5.63,2-10.25,5.87-14.13C9.75,2.12,14.37,0,20,0h20v20c0,5.63-1.88,10.25-5.75,14.25-4,3.75-8.63,5.75-14.25,5.75Zm0-3.75c4.5,0,8.38-1.62,11.5-4.75,3.13-3.13,4.75-7,4.75-11.5V3.75h-16.25c-4.5,0-8.38,1.63-11.5,4.75-3.13,3.12-4.75,7-4.75,11.5,0,1.88.25,3.75,1,5.5s1.5,3.25,2.62,4.63l13.5-13.5c.37-.37.75-.63,1.25-.63s.88.13,1.25.63c.37.37.5.75.5,1.25s-.13,1-.5,1.38l-13.5,13.5c1.38,1.13,2.87,1.88,4.63,2.5,1.75.63,3.62,1,5.5,1Z"/>
</svg>