<?xml version="1.0" encoding="UTF-8"?>
<svg id="Capa_1" data-name="Capa 1" xmlns="http://www.w3.org/2000/svg" viewBox="0 0 40 40">
  <defs>
    <style>
      .cls-1 {
        fill: none;
      }
    </style>
  </defs>
  <rect class="cls-1" width="40" height="40"/>
  <path d="m19.95,40c-2.79,0-5.39-.5-7.78-1.6s-4.59-2.5-6.38-4.3c-1.8-1.8-3.19-3.9-4.29-6.4s-1.5-4.9-1.5-7.7.5-5.4,1.6-7.8,2.49-4.5,4.29-6.3c1.8-1.8,3.89-3.2,6.38-4.3s4.89-1.6,7.68-1.6,5.39.5,7.78,1.6c2.39,1.1,4.59,2.5,6.38,4.3s3.19,3.9,4.29,6.3c1.1,2.4,1.6,5,1.6,7.8s-.5,5.4-1.6,7.8c-1,2.4-2.49,4.5-4.29,6.4-1.8,1.8-3.89,3.2-6.38,4.3s-4.99,1.5-7.78,1.5Zm-5.99-4l3.09-7.5c-1.3-.4-2.39-1.1-3.39-2.1-1-.9-1.7-2.1-2.19-3.5l-7.48,3c1,2.4,2.39,4.4,4.09,6.1,1.7,1.8,3.69,3.1,5.89,4Zm-2.59-18.9c.5-1.4,1.3-2.5,2.29-3.5s2.09-1.7,3.39-2.1l-2.99-7.5c-2.49,1-4.59,2.4-6.38,4.2-1.8,1.8-2.99,3.7-3.69,5.9l7.38,3Zm8.58,8.9c1.7,0,3.09-.6,4.19-1.8,1.2-1.2,1.8-2.6,1.8-4.2s-.6-3.1-1.8-4.2-2.49-1.8-4.19-1.8-3.09.6-4.19,1.8c-1.2,1.1-1.8,2.5-1.8,4.2s.6,3.1,1.8,4.2c1.1,1.2,2.49,1.8,4.19,1.8Zm6.08,10c2.29-.9,4.29-2.3,5.99-4,1.7-1.7,2.99-3.7,3.99-6l-7.48-3.1c-.5,1.4-1.2,2.6-2.19,3.5s-2.09,1.6-3.39,2l3.09,7.6Zm2.39-19l7.48-3.1c-.9-2.3-2.29-4.3-3.99-6-1.7-1.7-3.69-3-5.99-4l-2.99,7.6c1.3.4,2.39,1.1,3.29,2.1.9.9,1.7,2.1,2.19,3.4Z"/>
</svg>