<?xml version="1.0" encoding="UTF-8"?>
<svg id="Capa_1" data-name="Capa 1" xmlns="http://www.w3.org/2000/svg" viewBox="0 0 40 40">
  <defs>
    <style>
      .cls-1 {
        fill: none;
      }
    </style>
  </defs>
  <rect class="cls-1" width="40" height="40"/>
  <path d="m20,40c-1.06,0-2.03-.39-2.8-1.17s-1.06-1.66-1.06-2.74h7.83c0,1.08-.39,2.05-1.16,2.84s-1.74,1.08-2.8,1.08Zm-6.38-7.04c-.39,0-.77-.1-1.06-.39-.29-.29-.39-.59-.39-1.08,0-.39.1-.78.39-1.08s.58-.39,1.06-.39h12.76c.39,0,.77.1,1.06.39.29.29.39.59.39,1.08,0,.39-.1.78-.39,1.08s-.58.39-1.06.39h-12.76Zm-1.26-5.87c-2.13-1.37-3.77-3.13-5.03-5.28s-1.84-4.4-1.84-7.14c0-4.01,1.45-7.43,4.25-10.37C12.56,1.37,16.04,0,20,0s7.35,1.47,10.15,4.3c2.8,2.84,4.35,6.45,4.35,10.37,0,2.64-.58,4.99-1.84,7.14-1.26,2.05-2.9,3.81-5.12,5.28h-15.18Zm1.06-2.93h13.05c1.55-1.08,2.8-2.44,3.67-4.11.87-1.66,1.35-3.42,1.35-5.38,0-3.23-1.16-5.97-3.38-8.31-2.32-2.25-5.03-3.42-8.22-3.42s-5.9,1.17-8.22,3.42c-2.32,2.25-3.29,5.09-3.29,8.31,0,1.96.48,3.72,1.35,5.38.87,1.66,2.13,3.03,3.67,4.11Z"/>
</svg>