<?xml version="1.0" encoding="UTF-8"?>
<svg id="Capa_1" data-name="Capa 1" xmlns="http://www.w3.org/2000/svg" viewBox="0 0 40 40">
  <defs>
    <style>
      .cls-1 {
        fill: none;
      }
    </style>
  </defs>
  <rect class="cls-1" width="40" height="40"/>
  <path d="m37.13,0H2.88C1.25,0,0,1.25,0,2.88v34.25c0,1.62,1.25,2.87,2.88,2.87h34.25c1.62,0,2.87-1.25,2.87-2.87V2.88c0-1.63-1.25-2.88-2.87-2.88ZM12.12,34.25h-6V15.25h6v19h0Zm-3-21.62c-1.88,0-3.5-1.5-3.5-3.5s1.5-3.5,3.5-3.5c1.88,0,3.5,1.5,3.5,3.5,0,1.88-1.63,3.5-3.5,3.5Zm25.12,21.62h-5.87v-9.25c0-2.25,0-5-3.12-5s-3.62,2.37-3.62,4.87v9.5h-5.87V15.25h5.75v2.63h.13c.75-1.5,2.75-3.12,5.62-3.12,6,0,7.13,4,7.13,9.13v10.37h-.13Z"/>
</svg>