<?xml version="1.0" encoding="UTF-8"?>
<svg id="Capa_1" data-name="Capa 1" xmlns="http://www.w3.org/2000/svg" viewBox="0 0 40 40">
  <defs>
    <style>
      .cls-1 {
        fill: none;
      }
    </style>
  </defs>
  <rect class="cls-1" width="40" height="40"/>
  <path d="m10,30c-2.8,0-5.1-1-7.1-2.9-1.9-2-2.9-4.3-2.9-7.1s1-5.1,2.9-7.1,4.3-2.9,7.1-2.9h7c.4,0,.8.1,1.1.4.3.3.4.6.4,1.1,0,.4-.1.8-.4,1.1-.3.3-.7.4-1.1.4h-7c-1.9,0-3.6.7-5,2-1.4,1.4-2,3-2,5s.7,3.6,2,5c1.4,1.4,3,2.1,5,2.1h7c.4,0,.8.1,1.1.4.3.3.4.6.4,1.1,0,.4-.1.8-.4,1.1s-.7.3-1.1.3h-7Zm3.8-8.5c-.4,0-.8-.1-1.1-.4-.3-.3-.4-.6-.4-1.1,0-.4.1-.8.4-1.1.3-.3.6-.4,1.1-.4h12.5c.4,0,.8.1,1.1.4.3.3.4.6.4,1.1,0,.4-.1.8-.4,1.1s-.6.4-1.1.4h-12.5Zm9.2,8.5c-.4,0-.8-.1-1.1-.4-.3-.3-.4-.6-.4-1.1,0-.4.1-.8.4-1.1.3-.3.6-.4,1.1-.4h7c1.9,0,3.6-.7,5-2,1.4-1.4,2-3,2-4.9s-.7-3.6-2-5c-1.4-1.4-3-2-5-2h-7c-.4,0-.8-.1-1.1-.4-.3-.3-.4-.6-.4-1.1,0-.4.1-.8.4-1.1s.6-.4,1.1-.4h7c2.8,0,5.1,1,7.1,2.9s2.9,4.2,2.9,7-1,5.1-2.9,7.1c-2,2-4.3,2.9-7.1,2.9h-7Z"/>
</svg>