<?xml version="1.0" encoding="UTF-8"?>
<svg id="Capa_1" data-name="Capa 1" xmlns="http://www.w3.org/2000/svg" viewBox="0 0 40 40">
  <defs>
    <style>
      .cls-1 {
        fill: none;
      }
    </style>
  </defs>
  <rect class="cls-1" width="40" height="40"/>
  <path d="m19.8,9.53c.12,0,.12.13.25.13s.25,0,.25-.13-.12-.13-.25-.25c-.12,0-.25-.13-.37,0v.13c-.12.13,0,.13.12.13h0Zm-1.74.13c.12,0,.12-.13.25-.13s.25,0,.25-.13v-.13c-.12-.13-.25,0-.37,0s-.25.13-.25.25c0,.13.12.13.12.13Zm17.2,21.93c-.25-.38-.37-1-.5-1.63s-.25-1.25-.87-1.75c-.12-.13-.25-.13-.25-.25-.12,0-.25-.13-.37-.13.75-2.13.37-4.26-.25-6.14-.87-2.38-2.49-4.39-3.61-5.77-1.37-1.63-2.62-3.26-2.62-5.64,0-3.63.37-10.28-5.86-10.28-7.98,0-5.98,8.15-6.11,10.53-.12,1.88-.5,3.26-1.74,5.01-1.5,1.75-3.49,4.64-4.49,7.52-.5,1.38-.62,2.88-.5,4.14-.5.5-.87,1.13-1.25,1.63-.37.38-.75.5-1.37.63-.5.25-1.12.5-1.5,1.25-.12.25-.25.63-.25,1,0,.25,0,.63.12.88.12.63.25,1.25,0,1.63-.37,1.13-.5,1.88-.12,2.51.25.63.87.88,1.62,1,1.37.25,3.12.25,4.61,1,1.5.75,3.12,1.13,4.36.75.87-.25,1.62-.75,1.99-1.63,1,0,1.99-.38,3.74-.5,1.12-.13,2.62.38,4.24.38,0,.13.12.38.25.5h0c.62,1.25,1.87,1.88,3.12,1.75,1.25-.13,2.62-.88,3.74-2.13,1-1.25,2.74-1.75,3.99-2.51.62-.38,1-.75,1.12-1.38,0-.75-.37-1.5-1.25-2.38h0ZM20.05,6.77c.75-1.75,2.62-1.75,3.36,0,.5,1.13.25,2.38-.37,3.13-.12,0-.5-.25-1-.38.12-.13.25-.25.25-.38.37-.88,0-2.13-.75-2.13-.62,0-1.12.88-.87,1.75-.37-.13-.75-.25-1-.38,0-.5.12-1.13.37-1.63Zm-3.24-.88c.75,0,1.62,1.13,1.5,2.63l-.75.38c.12-.75-.25-1.63-.75-1.5-.62,0-.75,1.63-.12,2.26q.12,0-.5.38c-1.25-1.25-.87-4.14.62-4.14Zm-1,4.76c.5-.38,1-.75,1.12-.88.37-.38,1-1.13,2.12-1.13.5,0,1.25.13,1.99.75.5.38.87.38,1.74.75.62.25,1.12.75.87,1.38-.25.5-.87,1.13-1.74,1.38-.87.25-1.5,1.25-2.99,1.13-.25,0-.5-.13-.75-.13-.62-.25-1-.75-1.5-1.13-.62-.38-1-.75-1.12-1.25-.25-.38-.12-.63.25-.88h0Zm.25,26.07c-.25,2.76-3.36,2.63-5.86,1.38-2.37-1.25-5.36-.5-5.98-1.75-.12-.38-.12-1,.25-2.01h0c.12-.63,0-1.25,0-1.88-.12-.63-.12-1.13.12-1.5.25-.5.62-.75,1.12-.88.75-.25.87-.25,1.5-.75.37-.5.75-1,1.12-1.38.37-.38.75-.63,1.37-.5s1.12.5,1.74,1.25l1.5,2.76c.62,1.5,3.24,3.63,3.12,5.26h0Zm-.12-2.01c-.37-.5-.75-1-1.12-1.5.5,0,1.12-.13,1.25-.75.12-.5,0-1.13-.62-2.01-1-1.38-2.99-2.51-2.99-2.51-1-.63-1.62-1.5-1.87-2.38-.25-.88-.25-1.88,0-2.76.37-1.75,1.5-3.51,2.12-4.64.12-.13,0,.25-.62,1.63-.62,1.25-1.87,4.14-.25,6.39,0-1.63.37-3.26,1.12-4.76.87-2.13,2.87-5.89,3.12-8.77.12,0,.37.25.5.38.37.25.62.5,1,.75,1,.75,2.24.75,3.24.13.5-.25.87-.63,1.25-.75.75-.25,1.37-.63,1.74-1.13.62,2.38,1.99,5.77,2.87,7.52.5.88,1.37,2.76,1.87,5.01.25,0,.5,0,.87.13,1.12-2.76-.87-5.77-1.87-6.64-.37-.38-.37-.5-.25-.5,1,.88,2.24,2.63,2.74,4.64.25.88.25,1.88,0,2.76,1.25.5,2.74,1.38,2.37,2.76h-.37c.25-.75-.25-1.38-1.74-2.01-1.5-.75-2.74-.75-2.87.88-1,.38-1.37,1.13-1.62,2.13-.25.88-.25,1.88-.37,3.13,0,.63-.25,1.38-.5,2.26-2.62,1.88-6.11,2.63-8.97.63h0Zm20.06-.88c-.12,1.25-3.24,1.5-4.86,3.63-1,1.25-2.24,1.88-3.36,2.01-1.12.13-2.12-.38-2.62-1.5-.37-.88-.12-1.75.12-2.88.25-1.13.75-2.26.75-3.13,0-1.13.12-2.26.37-3.01.25-.75.5-1.38,1.12-1.63h.12c0,1,.62,2.13,1.5,2.26,1,.25,2.37-.63,2.99-1.25.75,0,1.25-.13,1.74.38.75.63.5,2.38,1.37,3.26.5.88.75,1.5.75,1.88h0ZM16.06,11.53c.12.13.37.38.62.5.5.38,1.25.88,2.12.88s1.74-.5,2.49-.88c.37-.25.87-.5,1.12-.75.25-.25.5-.5.25-.5s-.25.25-.5.38c-.37.25-.75.63-1.12.75-.62.38-1.5.75-2.37.75-.75,0-1.5-.38-1.99-.75-.25-.25-.5-.38-.62-.5-.12-.13-.12-.38-.37-.38.12,0,.12.25.37.5h0Z"/>
</svg>