<?xml version="1.0" encoding="UTF-8"?>
<svg id="Capa_1" data-name="Capa 1" xmlns="http://www.w3.org/2000/svg" viewBox="0 0 40 40">
  <defs>
    <style>
      .cls-1 {
        fill: none;
      }
    </style>
  </defs>
  <rect class="cls-1" x="0" width="40" height="40"/>
  <path d="m15.69,40c-.43,0-.87-.11-1.19-.44s-.43-.67-.43-1.22v-10.78l-4.56,2.89c-.54.33-1.09.33-1.63,0s-.87-.67-.87-1.33c0-.33.11-.56.22-.78s.33-.44.54-.67l6.3-4v-6.56l-4.67,2.89c-.54.33-1.09.33-1.63,0s-.76-.78-.76-1.44c0-.33.11-.56.22-.78.11-.22.33-.44.54-.56l6.3-4V1.67c0-.44.11-.89.43-1.22.33-.33.76-.44,1.19-.44s.87.11,1.19.44c.33.33.43.67.43,1.22v9.33l6.73-4.33c.54-.33,1.09-.33,1.63,0s.87.78.87,1.44c0,.33-.11.56-.22.78s-.33.44-.54.56l-8.47,5.44v6.56l6.73-4.33c.54-.33,1.09-.33,1.63,0s.87.78.87,1.44c0,.33-.11.56-.22.78s-.33.44-.54.56l-8.47,5.44v11.33h1.09c2.93,0,5.43-.89,7.6-2.78,2.06-1.78,3.37-4.11,3.8-6.89.11-.44.22-.78.54-1.11s.65-.44,1.09-.44c.54,0,.87.22,1.19.56s.43.78.33,1.22c-.54,3.67-2.17,6.67-4.89,9.11-2.72,2.33-5.97,3.56-9.67,3.56h-2.72v.11Z"/>
</svg>