<?xml version="1.0" encoding="UTF-8"?>
<svg id="Capa_1" data-name="Capa 1" xmlns="http://www.w3.org/2000/svg" viewBox="0 0 40 40">
  <defs>
    <style>
      .cls-1 {
        fill: none;
      }
    </style>
  </defs>
  <rect class="cls-1" width="40" height="40"/>
  <path d="m11.11,12.3c-.44,0-.89-.11-1.22-.44s-.44-.66-.44-1.21c0-.44.11-.88.44-1.21.33-.33.67-.44,1.22-.44h27.22c.44,0,.89.11,1.22.44.33.33.44.66.44,1.21,0,.44-.11.88-.44,1.21-.33.33-.67.44-1.22.44H11.11Zm0,9.35c-.44,0-.89-.11-1.22-.44s-.44-.66-.44-1.21c0-.44.11-.88.44-1.21.33-.33.67-.44,1.22-.44h27.22c.44,0,.89.11,1.22.44s.44.66.44,1.21c0,.44-.11.88-.44,1.21-.33.33-.67.44-1.22.44H11.11Zm0,9.35c-.44,0-.89-.11-1.22-.44-.33-.33-.44-.66-.44-1.21,0-.44.11-.88.44-1.21.33-.33.67-.44,1.22-.44h27.22c.44,0,.89.11,1.22.44s.44.66.44,1.21c0,.44-.11.88-.44,1.21-.33.33-.67.44-1.22.44H11.11ZM1.67,12.3c-.44,0-.89-.11-1.11-.55-.33-.33-.56-.66-.56-1.1s.22-.88.56-1.21c.33-.33.67-.44,1.11-.44s.89.11,1.11.44c.44.33.56.77.56,1.21s-.11.88-.44,1.21c-.33.33-.78.44-1.22.44Zm0,9.35c-.44,0-.89-.11-1.11-.55-.33-.22-.56-.66-.56-1.1s.22-.88.56-1.21c.33-.33.78-.44,1.22-.44s.89.11,1.11.44c.33.33.44.77.44,1.21s-.11.88-.44,1.1c-.33.44-.78.55-1.22.55Zm0,9.35c-.44,0-.89-.22-1.11-.55-.33-.33-.56-.66-.56-1.1s.22-.88.56-1.1c.33-.44.67-.55,1.11-.55s.89.11,1.11.44c.44.33.56.77.56,1.21s-.11.88-.44,1.1c-.33.33-.78.55-1.22.55Z"/>
</svg>