<?xml version="1.0" encoding="UTF-8"?>
<svg id="Capa_1" data-name="Capa 1" xmlns="http://www.w3.org/2000/svg" viewBox="0 0 40 40">
  <defs>
    <style>
      .cls-1 {
        fill: none;
      }
    </style>
  </defs>
  <rect class="cls-1" width="40" height="40"/>
  <path d="m3.5,40c-.4,0-.8-.1-1.1-.4s-.4-.7-.4-1.1.1-.8.4-1.1.7-.4,1.1-.4h3.5v-1.5h-1.5c-.4,0-.8-.1-1.1-.4s-.4-.7-.4-1.1.1-.8.4-1.1.6-.4,1.1-.4h1.5v-1.5h-3.5c-.4,0-.8-.1-1.1-.4s-.4-.7-.4-1.1.1-.8.4-1.1.7-.4,1.1-.4h4.5c.6,0,1,.2,1.4.6.4.4.6.8.6,1.4v2c0,.6-.2,1-.6,1.4-.4.4-.8.6-1.4.6.6,0,1,.2,1.4.6.4.4.6.8.6,1.4v2c0,.6-.2,1-.6,1.4-.4.4-.8.6-1.4.6H3.5Zm-.3-14c-.3,0-.6-.1-.8-.4-.3-.2-.4-.5-.4-.7v-4.4c0-.6.2-1,.6-1.4s.8-.6,1.4-.6h3v-1.5h-3.5c-.4,0-.8-.1-1.1-.4-.3-.3-.4-.7-.4-1.1s.1-.8.4-1.1.7-.4,1.1-.4h4.5c.6,0,1,.2,1.4.6.4.4.6.8.6,1.4v3.5c0,.6-.2,1-.6,1.4s-.9.6-1.4.6h-3v1.5h3.5c.4,0,.8.1,1.1.4s.4.6.4,1.1-.1.8-.4,1.1-.7.4-1.1.4H3.2Zm3.3-14c-.4,0-.8-.1-1.1-.4-.3-.3-.4-.7-.4-1.1V3h-1.5c-.4,0-.8-.1-1.1-.4s-.4-.7-.4-1.1.1-.8.4-1.1.7-.4,1.1-.4h3.4c.3,0,.6.1.8.3s.3.5.3.8v9.4c0,.4-.1.8-.4,1.1-.3.3-.7.4-1.1.4Zm9.5,21.5c-.4,0-.8-.1-1.1-.4-.3-.3-.4-.6-.4-1.1,0-.4.1-.8.4-1.1s.6-.4,1.1-.4h20.5c.4,0,.8.1,1.1.4.3.3.4.6.4,1.1,0,.4-.1.8-.4,1.1-.3.3-.6.4-1.1.4h-20.5Zm0-12.1c-.4,0-.8-.1-1.1-.4-.3-.3-.4-.6-.4-1.1,0-.4.1-.8.4-1.1s.6-.4,1.1-.4h20.5c.4,0,.8.1,1.1.4s.4.6.4,1.1c0,.4-.1.8-.4,1.1-.3.3-.6.4-1.1.4h-20.5Zm0-12.2c-.4,0-.8-.1-1.1-.4-.3-.3-.4-.6-.4-1.1,0-.4.1-.8.4-1.1s.6-.4,1.1-.4h20.5c.4,0,.8.1,1.1.4.3.3.4.6.4,1.1,0,.4-.1.8-.4,1.1-.3.3-.6.4-1.1.4h-20.5Z"/>
</svg>