<?xml version="1.0" encoding="UTF-8"?>
<svg id="Capa_1" data-name="Capa 1" xmlns="http://www.w3.org/2000/svg" viewBox="0 0 40 40">
  <defs>
    <style>
      .cls-1 {
        fill: none;
      }
    </style>
  </defs>
  <rect class="cls-1" width="40" height="40"/>
  <path d="m16,35.42c-.44,0-.89-.11-1.22-.44-.33-.33-.44-.66-.44-1.2,0-.44.11-.87.44-1.2s.67-.44,1.22-.44h22.33c.44,0,.89.11,1.22.44.33.33.44.66.44,1.2,0,.44-.11.87-.44,1.2-.33.33-.67.44-1.22.44H16Zm0-13.78c-.44,0-.89-.11-1.22-.44-.33-.33-.44-.66-.44-1.2,0-.44.11-.87.44-1.2s.67-.44,1.22-.44h22.33c.44,0,.89.11,1.22.44s.44.66.44,1.2c0,.44-.11.87-.44,1.2-.33.33-.67.44-1.22.44H16Zm0-13.89c-.44,0-.89-.11-1.22-.44-.33-.33-.44-.66-.44-1.2,0-.44.11-.88.44-1.2s.67-.44,1.22-.44h22.33c.44,0,.89.11,1.22.44.33.33.44.66.44,1.2,0,.44-.11.88-.44,1.2-.33.33-.67.44-1.22.44H16ZM3.78,37.5c-1,0-1.89-.33-2.67-1.09s-1.11-1.53-1.11-2.63.33-1.97,1.11-2.63c.78-.66,1.67-1.09,2.67-1.09s1.89.33,2.67,1.09,1,1.64,1,2.63-.33,1.86-1.11,2.52c-.67.77-1.44,1.2-2.56,1.2Zm0-13.78c-1,0-1.89-.33-2.67-1.09s-1.11-1.53-1.11-2.62.33-1.86,1.11-2.62c.78-.77,1.67-1.09,2.67-1.09s1.89.33,2.56,1.09,1.11,1.53,1.11,2.62-.33,1.86-1.11,2.62c-.67.66-1.44,1.09-2.56,1.09Zm0-13.89c-1,0-1.89-.33-2.67-1.09-.78-.77-1.11-1.53-1.11-2.63s.44-1.86,1.11-2.52c.78-.77,1.56-1.09,2.67-1.09,1,0,1.89.33,2.67,1.09s1.11,1.53,1.11,2.62-.33,1.86-1.11,2.62c-.78.66-1.67.98-2.67.98Z"/>
</svg>