<?xml version="1.0" encoding="UTF-8"?>
<svg id="Capa_1" data-name="Capa 1" xmlns="http://www.w3.org/2000/svg" viewBox="0 0 40 40">
  <defs>
    <style>
      .cls-1 {
        fill: none;
      }
    </style>
  </defs>
  <rect class="cls-1" width="40" height="40"/>
  <path d="m10,30.78c.44,0,.89-.22,1.22-.56.33-.33.44-.78.44-1.11,0-.44-.11-.89-.44-1.22-.33-.33-.78-.56-1.22-.56s-.89.22-1.22.56-.44.67-.44,1.22c0,.44.22.89.44,1.11.33.33.78.56,1.22.56Zm0-9.11c.44,0,.89-.11,1.22-.56.33-.33.44-.67.44-1.11s-.11-.89-.44-1.22c-.33-.33-.78-.44-1.22-.44s-.89.11-1.22.44-.44.78-.44,1.22.22.89.44,1.11c.33.44.78.56,1.22.56Zm0-9.11c.44,0,.89-.11,1.22-.44.33-.33.44-.78.44-1.22s-.11-.89-.44-1.22c-.33-.33-.78-.44-1.22-.44s-.89.22-1.22.44c-.33.33-.44.78-.44,1.22s.22.89.44,1.22c.33.22.78.44,1.22.44Zm9,18.22h10.22c.44,0,.89-.11,1.22-.44.33-.33.44-.67.44-1.22,0-.44-.11-.89-.44-1.22-.33-.33-.67-.44-1.22-.44h-10.22c-.44,0-.89.11-1.22.44-.33.33-.44.67-.44,1.22,0,.44.11.89.44,1.22s.78.44,1.22.44Zm0-9.11h10.22c.44,0,.89-.11,1.22-.44s.44-.67.44-1.22c0-.44-.11-.89-.44-1.22-.33-.33-.67-.44-1.22-.44h-10.22c-.44,0-.89.11-1.22.44-.33.33-.44.67-.44,1.22,0,.44.11.89.44,1.22s.78.44,1.22.44Zm0-9.11h10.22c.44,0,.89-.11,1.22-.44s.44-.67.44-1.22c0-.44-.11-.89-.44-1.22-.33-.33-.67-.44-1.22-.44h-10.22c-.44,0-.89.11-1.22.44-.33.33-.44.67-.44,1.22,0,.44.11.89.44,1.22s.78.44,1.22.44ZM3.33,40c-.89,0-1.67-.33-2.33-1-.67-.67-1-1.44-1-2.33V3.33c0-.89.33-1.67,1-2.33S2.44,0,3.33,0h33.33c.89,0,1.67.33,2.33,1,.67.67,1,1.44,1,2.33v33.33c0,.89-.33,1.67-1,2.33-.67.67-1.44,1-2.33,1H3.33Zm0-3.33h33.33V3.33H3.33v33.33ZM3.33,3.33v33.33V3.33Z"/>
</svg>