<?xml version="1.0" encoding="UTF-8"?>
<svg id="Capa_1" data-name="Capa 1" xmlns="http://www.w3.org/2000/svg" viewBox="0 0 40 40">
  <defs>
    <style>
      .cls-1 {
        fill: none;
      }
    </style>
  </defs>
  <rect class="cls-1" width="40" height="40"/>
  <path d="m16.76,23.24L1.03,17.08c-.34-.11-.68-.34-.8-.68S0,15.82,0,15.37C0,15.02.11,14.68.23,14.45c.23-.23.46-.46.8-.68L37.63.09c.34-.11.68-.11,1.03,0s.57.23.8.46c.23.23.34.46.46.8.11.34.11.68,0,1.03l-13.8,36.61c-.11.34-.34.68-.68.8-.23.23-.57.23-.91.23s-.68-.11-1.03-.23-.57-.46-.68-.8l-6.04-15.74Zm7.53,10.15l10.95-28.62L6.61,15.71l12.89,4.79,4.79,12.89Z"/>
</svg>