<?xml version="1.0" encoding="UTF-8"?><svg id="Layer_1" xmlns="http://www.w3.org/2000/svg" viewBox="0 0 40 40"><defs><style>.cls-1{fill:none;}</style></defs><rect class="cls-1" x="0" y="0" width="40" height="40"/><path d="m7.62,40c-.76,0-1.43-.29-2-.86-.57-.57-.86-1.24-.86-2v-20.67c0-.76.29-1.43.86-2,.57-.57,1.24-.86,2-.86h3.33v-4.57c0-2.48.86-4.67,2.67-6.38,1.71-1.81,3.9-2.67,6.38-2.67s4.67.86,6.38,2.67c1.81,1.81,2.67,3.9,2.67,6.38v4.57h3.33c.76,0,1.43.29,2,.86s.86,1.24.86,2v20.67c0,.76-.29,1.43-.86,2-.57.57-1.24.86-2,.86H7.62Zm0-2.86h24.76v-20.67H7.62v20.67Zm12.38-6.67c1.05,0,1.9-.38,2.57-1.05s1.05-1.52,1.05-2.48-.38-1.81-1.05-2.57-1.62-1.14-2.57-1.14-1.9.38-2.57,1.14-1.05,1.62-1.05,2.67.38,1.81,1.05,2.48c.67.57,1.52.95,2.57.95Zm-6.19-16.86h12.38v-4.57c0-1.71-.57-3.14-1.81-4.38-1.24-1.24-2.67-1.81-4.38-1.81s-3.14.57-4.38,1.81c-1.24,1.24-1.81,2.67-1.81,4.38v4.57Zm-6.19,23.52v-20.67,20.67Z"/></svg>