<?xml version="1.0" encoding="UTF-8"?><svg id="Layer_1" xmlns="http://www.w3.org/2000/svg" viewBox="0 0 40 40"><defs><style>.cls-1{fill:none;}</style></defs><rect class="cls-1" x="0" y="0" width="40" height="40"/><path d="m7.62,40c-.76,0-1.43-.29-2-.86-.57-.57-.86-1.24-.86-2v-20.67c0-.76.29-1.43.86-2,.57-.57,1.24-.86,2-.86h18.57v-4.57c0-1.71-.57-3.14-1.81-4.38-1.24-1.24-2.67-1.81-4.38-1.81-1.52,0-2.86.48-4,1.43s-1.81,2.1-2.1,3.52c-.1.38-.19.67-.48.86s-.57.29-.95.29-.76-.19-1.05-.48-.38-.67-.29-1.05c.38-2.1,1.33-3.9,3.05-5.33s3.52-2.1,5.81-2.1c2.48,0,4.67.86,6.38,2.67,1.81,1.81,2.67,3.9,2.67,6.38v4.57h3.33c.76,0,1.43.29,2,.86s.86,1.24.86,2v20.67c0,.76-.29,1.43-.86,2-.57.57-1.24.86-2,.86H7.62Zm0-2.86h24.76v-20.67H7.62v20.67Zm12.38-6.67c1.05,0,1.9-.38,2.57-1.05s1.05-1.52,1.05-2.48-.38-1.81-1.05-2.57-1.62-1.14-2.57-1.14-1.9.38-2.57,1.14-1.05,1.62-1.05,2.67.38,1.81,1.05,2.48c.67.57,1.52.95,2.57.95Zm-12.38,6.67v-20.67,20.67Z"/></svg>