<?xml version="1.0" encoding="UTF-8"?><svg id="Layer_1" xmlns="http://www.w3.org/2000/svg" viewBox="0 0 40 40"><defs><style>.cls-1{fill:none;}</style></defs><rect class="cls-1" x="0" y="0" width="40" height="40"/><path d="m21.55,5.55v32.85c0,.43-.11.85-.43,1.17s-.64.43-1.17.43-.85-.11-1.17-.43-.43-.64-.43-1.17V5.44l-4.48,4.59c-.32.32-.64.43-1.17.43-.43,0-.85-.21-1.07-.43-.32-.32-.53-.75-.53-1.17s.21-.85.53-1.17L18.88.43c.32-.32.75-.43,1.17-.43s.85.21,1.07.43l7.25,7.25c.32.32.53.64.53,1.17,0,.43-.11.85-.53,1.17-.32.32-.75.43-1.17.43s-.85-.21-1.17-.43l-4.48-4.48Z"/></svg>