<?xml version="1.0" encoding="UTF-8"?><svg id="Layer_1" xmlns="http://www.w3.org/2000/svg" viewBox="0 0 40 40"><defs><style>.cls-1{fill:none;}</style></defs><rect class="cls-1" x="0" y="0" width="40" height="40"/><path d="m5.55,18.4h32.85c.43,0,.85.11,1.17.43s.43.64.43,1.17-.11.85-.43,1.17c-.32.32-.64.43-1.17.43H5.44l4.48,4.48c.32.32.43.64.43,1.17,0,.43-.11.85-.43,1.07-.32.32-.75.43-1.17.43s-.85-.11-1.17-.43L.32,21.07c-.11-.21-.32-.64-.32-1.07s.21-.85.53-1.07l7.25-7.25c.32-.32.75-.43,1.17-.43s.85.21,1.17.43c.32.32.43.75.43,1.17s-.11.85-.43,1.17l-4.59,4.37Z"/></svg>