<?xml version="1.0" encoding="UTF-8"?><svg id="Layer_1" xmlns="http://www.w3.org/2000/svg" viewBox="0 0 40 40"><defs><style>.cls-1{fill:none;}</style></defs><rect class="cls-1" x="0" y="0" width="40" height="40"/><path d="m18.56,34.55V1.6c0-.43.11-.86.43-1.18.32-.32.64-.43,1.18-.43s.86.11,1.18.43c.32.32.43.64.43,1.18v32.94l4.49-4.49c.32-.32.64-.53,1.07-.53s.86.11,1.07.53c.32.32.53.64.53,1.07s-.11.86-.53,1.07l-7.27,7.27c-.32.32-.64.53-1.07.53s-.86-.21-1.18-.53l-7.27-7.27c-.32-.32-.53-.75-.53-1.07,0-.43.21-.86.53-1.07.32-.32.75-.53,1.18-.53s.86.11,1.18.53l4.6,4.49Z"/></svg>