<?xml version="1.0" encoding="UTF-8"?><svg id="Layer_1" xmlns="http://www.w3.org/2000/svg" viewBox="0 0 40 40"><defs><style>.cls-1{fill:none;}</style></defs><rect class="cls-1" x="0" y="0" width="40" height="40"/><path d="m9,38c-.8,0-1.5-.3-2.1-.9-.6-.6-.9-1.3-.9-2.1V11.5c0-1,.3-1.8,1-2.5s1.5-1,2.5-1h4.5V2c0-.6.2-1,.6-1.4s.8-.6,1.4-.6h8c.6,0,1,.2,1.4.6s.6.8.6,1.4v6h5c.8,0,1.5.3,2.1.9.6.6.9,1.3.9,2.1v24c0,.8-.3,1.5-.9,2.1-.6.6-1.3.9-2.1.9,0,.6-.2,1-.6,1.4-.4.4-.8.6-1.4.6s-1-.2-1.4-.6c-.4-.4-.6-.8-.6-1.4h-14c0,.6-.2,1-.6,1.4-.4.4-.8.6-1.4.6s-1-.2-1.4-.6c-.4-.4-.6-.8-.6-1.4Zm0-3h22V11H9v24Zm4.5-3c.3,0,.5-.1.7-.3s.3-.4.3-.7V15c0-.3-.1-.5-.3-.7-.2-.2-.4-.3-.7-.3s-.5.1-.7.3c-.2.2-.3.4-.3.7v16c0,.3.1.5.3.7.2.2.4.3.7.3Zm6.5,0c.3,0,.5-.1.7-.3s.3-.4.3-.7V15c0-.3-.1-.5-.3-.7-.2-.2-.4-.3-.7-.3s-.5.1-.7.3c-.2.2-.3.4-.3.7v16c0,.3.1.5.3.7.2.2.4.3.7.3Zm6.5,0c.3,0,.5-.1.7-.3s.3-.4.3-.7V15c0-.3-.1-.5-.3-.7-.2-.2-.4-.3-.7-.3s-.5.1-.7.3c-.2.2-.3.4-.3.7v16c0,.3.1.5.3.7.2.2.4.3.7.3Zm-10.5-24h8V2h-8v6Z"/></svg>