<?xml version="1.0" encoding="UTF-8"?><svg id="Layer_1" xmlns="http://www.w3.org/2000/svg" viewBox="0 0 40 40"><defs><style>.cls-1{fill:none;}</style></defs><rect class="cls-1" x="0" y="0" width="40" height="40"/><path d="m19.98,19.1l-4.1,4.1c-.3.3-.6.4-1,.4s-.8-.2-1.1-.5c-.3-.3-.4-.7-.4-1.1s.1-.8.4-1.1l4.79-4.69V2.52c0-.4.1-.8.4-1.1.2-.3.6-.4,1-.4s.8.1,1.1.4c.3.3.4.6.4,1.1v13.88l4.79,4.79c.3.3.5.6.5,1s-.2.8-.5,1.1c-.3.3-.7.4-1.1.4s-.8-.1-1.1-.4l-4.1-4.2Zm-14.48,19.88c-1.5,0-2.8-.5-3.9-1.6-1.1-1.1-1.6-2.4-1.6-3.9v-8.69c0-.2,0-.3.1-.5s.1-.4.2-.5l5.19-13.49c.4-1,1.1-1.8,2-2.4.9-.6,1.9-.9,3-.9,1.4,0,2.6.5,3.6,1.5s1.5,2.2,1.5,3.6v1.5c0,.4-.1.8-.4,1.1-.4.2-.8.3-1.2.3s-.8-.1-1.1-.4c-.3-.3-.4-.6-.4-1.1v-1.5c0-.6-.2-1.1-.6-1.5s-.9-.6-1.5-.6c-.5,0-.9.1-1.3.3-.4.2-.7.5-.9,1l-5.19,13.58v8.79c0,.7.2,1.3.7,1.8s1.1.6,1.8.6h6.99c.7,0,1.3-.2,1.8-.7s.7-1.1.7-1.8v-2c0-.4.1-.8.4-1.1s.6-.4,1.1-.4c.4,0,.8.1,1.1.4.3.3.4.6.4,1.1v2c0,1.5-.5,2.8-1.6,3.9-1.1,1.1-2.4,1.6-3.9,1.6h-6.99Zm28.97,0h-6.99c-1.5,0-2.8-.5-3.9-1.6-1.1-1.1-1.6-2.4-1.6-3.9v-2c0-.4.1-.8.4-1.1s.6-.4,1.1-.4c.4,0,.8.1,1.1.4.3.3.4.6.4,1.1v2c0,.7.2,1.3.7,1.8s1.1.7,1.8.7h6.99c.7,0,1.3-.2,1.8-.7s.7-1.1.7-1.8v-8.79l-5.19-13.49c-.2-.4-.4-.8-.8-1-.4-.2-.8-.3-1.3-.3-.6,0-1.1.2-1.5.6-.4.4-.7.9-.7,1.5v1.5c0,.4-.1.8-.4,1.1-.3.3-.7.4-1.1.4s-.8-.1-1.1-.4c-.3-.3-.4-.6-.4-1.1v-1.5c0-1.4.5-2.6,1.5-3.6s2.2-1.5,3.6-1.5c1.1,0,2.1.3,3,.9.9.6,1.6,1.4,2,2.4l5.19,13.49c.1.2.1.3.2.5s0,.4,0,.5v8.69c0,1.5-.5,2.8-1.6,3.9-1.1,1.2-2.4,1.7-3.9,1.7Z"/></svg>