<?xml version="1.0" encoding="UTF-8"?><svg id="Layer_1" xmlns="http://www.w3.org/2000/svg" viewBox="0 0 40 40"><defs><style>.cls-1{fill:none;}</style></defs><rect class="cls-1" x="0" y="0" width="40" height="40"/><path d="m29.45,18.83h.87c.12-.37.12-.87,0-1.62-.25-1-.5-1.5-1-1.37s-.62.75-.37,1.75c.12.5.25,1,.5,1.25h0Zm-4.75.75c.37.12.62.25.75.25.12-.12-.25-.87-1.12-1.12-.87-.37-2-.25-2.75.37-.25.25-.5.5-.5.62.12.37.87-.25,2-.25.62-.25,1.25,0,1.62.12h0Zm-.87.5c-.75.12-1.37.62-1.25.87.12,0,.12.12.5-.12.5-.25,1.12-.25,1.62-.12h.5c.12-.25-.5-.75-1.37-.62h0Zm4.87,1.5c.25-.62-1-1.25-1.25-.62-.37.62,1,1.25,1.25.62h0Zm1.37-1.87c-.62,0-.75,1.37,0,1.37s.75-1.25,0-1.37h0Zm-19.49,7.12c-.12,0-.5.12-.75-.25-.5-.75,1-1.87.25-3.12-.75-1.5-2.5-1.25-3.12-.5-.75.75-.75,2-.37,2.12.37,0,.37-.62.62-1,.37-.5,1-.62,1.62-.37h0c1,.62.12,1.62.25,2.5.12,1.5,1.62,1.5,1.87.75v-.25c0,.25,0,0-.37.12h0Zm26.73-1.5c-.25-1-.25-.87-.62-1.87.25-.37,1.37-2.12-.25-3.87-.87-1-3-1.5-3.62-1.62-.12-1,.37-5.25-1.87-7.37,1.87-1.87,3-4,3-5.87,0-3.5-4.25-4.5-9.62-2.37l-1.12.5-2-2C15.09-4.41-3.65,16.45,2.35,21.57l1.37,1.12c-.37,1-.5,2-.37,3,.25,3,3.25,5.37,6,5.37,5.12,11.87,23.86,11.87,28.73.25.12-.37.75-2.25.75-3.75s-1-2.25-1.5-2.25h0Zm-28.11,4.25c-2,0-4.25-1.87-4.5-4-.5-5.5,6.62-6.75,7.49-1.12.37,2.62-.37,5.12-3,5.12h0Zm-1.75-10.24c-1.37.25-2.5,1-3.25,2.12-.37-.37-1.25-1.12-1.37-1.37-1.12-2.25,1.25-6.5,3-8.87C10.09,5.21,16.59.71,19.71,1.46c.5.12,2.12,2,2.12,2,0,0-3,1.62-5.87,4-3.87,3-6.75,7.37-8.49,11.87h0Zm21.36,9.12s-3.12.5-6.25-.62c.5-1.75,2.37.5,8.62-1.25,1.37-.37,3.12-1.12,4.5-2.25.25.75.5,1.37.62,2.12.37,0,1.25,0,1,1.62-.25,1.75-1,3.25-2.25,4.5-.75.87-1.75,1.5-2.75,2.12-.62.25-1.25.5-1.75.75-4.75,1.5-9.62-.12-11.24-3.87-.12-.25-.25-.62-.37-.87-.62-2.37-.12-5.37,1.62-7.12.12-.12.25-.25.25-.37s-.12-.25-.12-.37c-.62-.87-2.75-2.5-2.37-5.37.25-2.12,2.12-3.62,3.87-3.5h.5c.75,0,1.37.12,2,.12,1,0,2-.12,3.12-1,.37-.25.62-.62,1.12-.62.37-.12.87,0,1.25.25.87.62,1,2,1,3.12,0,.62.12,2,.12,2.5,0,1,.25,1.12.75,1.25.25.12.5.12.87.25,1.12.37,1.87.62,2.37,1.12.25.25.37.5.37.87.12,1-.75,2.25-3.25,3.37-4.12,1.87-8.37,1.25-8.99,1.25-1.75-.25-2.87,2.12-1.75,3.62,2,3,10.87,1.75,13.49-1.87q0-.12-.12-.12c-3.75,2.5-8.62,3.37-11.49,2.37-.37-.12-1.25-.62-1.37-1.5,3.87,1.25,6.37.12,6.37.12,0,0,.5-.75.25-.62h0ZM15.21,11.21c1.5-1.75,3.37-3.25,5-4.12h.12v.12c-.12.25-.37.75-.5,1.12v.12h0c1-.75,2.75-1.5,4.37-1.5,0,0,.12,0,.12.12h0c-.25.25-.5.37-.62.75v.12h0c1.12,0,2.62.37,3.62,1,.12,0,0,.12,0,.12-6.25-1.62-10.99,1.5-12.12,2.12q.12.12,0,0h0Z"/></svg>