<?xml version="1.0" encoding="UTF-8"?><svg id="Layer_1" xmlns="http://www.w3.org/2000/svg" viewBox="0 0 40 40"><defs><style>.cls-1{fill:none;}</style></defs><rect class="cls-1" x="0" y="0" width="40" height="40"/><path d="m18.5,40c-.4,0-.8-.1-1.1-.4-.3-.3-.4-.6-.4-1.1v-12.5h-2.5c-.4,0-.8-.1-1.1-.4-.3-.3-.4-.6-.4-1.1v-11.1c0-.8.3-1.5.9-2.1s1.3-.9,2.1-.9h8c.8,0,1.5.3,2.1.9.6.6.9,1.3.9,2.1v11.1c0,.4-.1.8-.4,1.1-.3.3-.6.4-1.1.4h-2.5v12.5c0,.4-.1.8-.4,1.1s-.6.4-1.1.4h-3Zm1.5-32.7c-1,0-1.9-.4-2.6-1.1-.7-.7-1.1-1.6-1.1-2.6s.4-1.9,1.1-2.6c.7-.6,1.6-1,2.6-1s1.9.4,2.6,1.1,1.1,1.6,1.1,2.6-.4,1.9-1.1,2.6c-.7.6-1.6,1-2.6,1Z"/></svg>