<?xml version="1.0" encoding="UTF-8"?><svg id="Layer_1" xmlns="http://www.w3.org/2000/svg" viewBox="0 0 40 40"><defs><style>.cls-1{fill:none;}</style></defs><rect class="cls-1" x="0" width="40" height="40"/><path d="m19.95,40c-.4,0-.8-.1-1.1-.4-.3-.3-.4-.6-.4-1.1v-7.5h-10.1c-.3,0-.6-.1-.8-.2-.3-.1-.5-.3-.7-.5l-3.3-3.3c-.2-.2-.4-.5-.5-.7-.1-.3-.2-.5-.2-.8s.1-.5.2-.8.3-.5.5-.7l3.3-3.3c.2-.2.4-.3.7-.5.3-.1.6-.2.8-.2h10.1v-4.5H5.95c-.6,0-1.1-.2-1.6-.6-.4-.4-.6-.9-.6-1.6v-6.6c0-.6.2-1.1.6-1.6.5-.4,1-.6,1.6-.6h12.5V1.5c0-.4.1-.8.4-1.1.3-.3.7-.4,1.1-.4s.8.1,1.1.4c.3.3.4.6.4,1.1v3h10.1c.3,0,.6.1.8.2.3.1.6.3.8.4l3.3,3.3c.2.2.4.5.5.7.1.3.2.5.2.8s-.1.5-.2.8c-.1.3-.3.5-.5.7l-3.3,3.3c-.2.2-.4.3-.7.5-.3.1-.6.2-.8.2h-10.2v4.6h12.5c.6,0,1.1.2,1.6.6.4.4.6.9.6,1.6v6.6c0,.6-.2,1.1-.6,1.6-.5.4-1,.6-1.6.6h-12.5v7.5c0,.4-.1.8-.4,1.1-.3.3-.7.4-1.1.4ZM6.75,12.5h24.5l2.5-2.5-2.5-2.5H6.75v5Zm2,15.5h24.5v-5H8.75l-2.5,2.5,2.5,2.5Zm-2-15.5v-5,5Zm26.4,15.5v-5,5Z"/></svg>