<?xml version="1.0" encoding="UTF-8"?><svg id="Layer_1" xmlns="http://www.w3.org/2000/svg" viewBox="0 0 40 40"><defs><style>.cls-1{fill:none;}</style></defs><rect class="cls-1" x="0" y="0" width="40" height="40"/><path d="m19.95,29.1c3.5-2.8,6.1-5.5,7.8-8.1,1.8-2.6,2.7-5,2.7-7.2,0-2-.4-3.6-1.1-5-.7-1.4-1.6-2.5-2.7-3.3-1.1-.9-2.2-1.5-3.4-1.9-1.2-.4-2.3-.6-3.3-.6s-2.1.2-3.4.6c-1.2.4-2.4,1-3.4,1.9-1.1.9-1.9,2-2.7,3.3s-1.1,3-1.1,5c0,2.2.9,4.6,2.7,7.2,1.8,2.6,4.4,5.3,7.9,8.1Zm0,3.2c-.3,0-.5,0-.7-.1s-.5-.2-.7-.4c-2.7-2.1-5.4-4.7-8.1-7.8s-4-6.5-4-10.2c0-2.3.4-4.3,1.2-6s1.9-3.2,3.2-4.3c1.3-1.1,2.7-2,4.3-2.6,1.6-.6,3.2-.9,4.8-.9s3.2.3,4.8.9,3.1,1.5,4.4,2.6c1.3,1.2,2.4,2.6,3.2,4.3s1.2,3.7,1.2,6c0,3.7-1.3,7.1-4,10.2s-5.4,5.7-8.1,7.8c-.2.2-.4.3-.7.4-.3.1-.5.1-.8.1Zm0-15.3c1,0,1.8-.3,2.5-1s1-1.5,1-2.5-.3-1.8-1-2.5-1.5-1-2.5-1-1.8.3-2.5,1-1,1.5-1,2.5.3,1.8,1,2.5,1.5,1,2.5,1Zm-12,23c-.4,0-.8-.1-1.1-.4-.3-.3-.4-.6-.4-1.1,0-.4.1-.8.4-1.1.3-.3.6-.4,1.1-.4h24c.4,0,.8.1,1.1.4.3.3.4.6.4,1.1,0,.4-.1.8-.4,1.1-.3.3-.7.4-1.1.4H7.95Z"/></svg>