<?xml version="1.0" encoding="UTF-8"?><svg id="Layer_1" xmlns="http://www.w3.org/2000/svg" viewBox="0 0 40 40"><defs><style>.cls-1{fill:none;}</style></defs><rect class="cls-1" x="0" y="0" width="40" height="40"/><path d="m20,36.92c4.51-4.1,7.9-7.9,10.05-11.28s3.28-6.36,3.28-8.92c0-4-1.33-7.28-3.9-9.85-2.56-2.46-5.74-3.79-9.44-3.79s-6.87,1.33-9.44,3.9c-2.56,2.56-3.9,5.85-3.9,9.85,0,2.56,1.13,5.54,3.28,8.92,2.15,3.38,5.64,7.08,10.05,11.18Zm0,3.08c-.41,0-.72-.1-1.13-.21-.41-.1-.72-.31-.92-.62-1.44-1.33-2.97-2.77-4.62-4.51s-3.28-3.49-4.72-5.44c-1.44-1.95-2.67-4-3.59-6.05-.92-2.15-1.44-4.21-1.44-6.36,0-5.13,1.64-9.23,4.92-12.21S15.69,0,20,0s8.21,1.54,11.49,4.62,4.92,7.08,4.92,12.21c0,2.15-.51,4.21-1.44,6.36s-2.15,4.1-3.59,6.05-2.97,3.79-4.72,5.44c-1.64,1.74-3.28,3.18-4.72,4.51-.31.31-.62.51-.92.62-.31.1-.72.21-1.03.21Zm0-20c1.03,0,1.85-.31,2.56-1.03s1.03-1.54,1.03-2.56-.31-1.85-1.03-2.56-1.54-1.03-2.56-1.03-1.85.31-2.56,1.03-1.03,1.54-1.03,2.56.31,1.85,1.03,2.56,1.54,1.03,2.56,1.03Z"/></svg>