<?xml version="1.0" encoding="UTF-8"?><svg id="Layer_1" xmlns="http://www.w3.org/2000/svg" viewBox="0 0 40 40"><defs><style>.cls-1{fill:none;}</style></defs><rect class="cls-1" x="0" width="40" height="40"/><path d="m26.22,39.75l-13.44-4.78-10,4c-.67.33-1.22.33-1.89-.11-.56-.44-.89-1-.89-1.78V6.09c0-.44.11-.89.44-1.33.22-.22.67-.56,1-.78L11.56.42c.33-.11.78-.22,1.11-.22s.78.11,1.11.22l13.44,4.67,10-3.89c.67-.33,1.22-.22,1.89.11.56.33.89.89.89,1.67v31.33c0,.44-.11.78-.44,1.11s-.67.56-1,.67l-10.11,3.56c-.33.11-.78.11-1.11.11s-.78.11-1.11,0Zm-.78-3.89V7.86l-10.89-3.67v28.11l10.89,3.56Zm3.33,0l7.89-2.56V4.86l-7.89,3v28Zm-25.44-.56l7.89-3V4.2l-7.89,2.56v28.56ZM28.78,7.86v28V7.86Zm-17.56-3.67v28.11V4.2Z"/></svg>