<?xml version="1.0" encoding="UTF-8"?><svg id="Layer_1" xmlns="http://www.w3.org/2000/svg" viewBox="0 0 40 40"><defs><style>.cls-1{fill:none;}</style></defs><rect class="cls-1" x="0" width="40" height="40"/><path d="m8.55,39.25l-2.1-2.1-2.21,2.1c-.53.53-1.05.74-1.79.74s-1.26-.21-1.79-.74-.74-1.05-.63-1.79c0-.74.32-1.26.74-1.68l2.21-2.21-2.1-2.1L31.79.64c.42-.42.84-.63,1.47-.63s1.05.21,1.47.63l4.73,4.73c.42.42.53.84.53,1.47s-.21,1.05-.53,1.47l-30.93,30.93Zm10.2-21.14l-13.36,13.36,3.16,3.16,13.36-13.36-3.16-3.16Z"/></svg>