<?xml version="1.0" encoding="UTF-8"?><svg id="Layer_1" xmlns="http://www.w3.org/2000/svg" viewBox="0 0 40 40"><defs><style>.cls-1{fill:none;}</style></defs><rect class="cls-1" x="0" width="40" height="40"/><path d="m13.75,40c-3.88,0-7.12-1.37-9.75-4-2.62-2.62-4-5.88-4-9.75s1.38-7.13,4-9.75,5.87-4,9.75-4c1.5,0,3,.25,4.38.75s2.75,1.12,3.88,2l11.5-11.5h-5.5c-.5,0-1-.13-1.38-.5-.25-.38-.37-.88-.37-1.38s.13-1,.5-1.38c.38-.37.88-.5,1.38-.5h10c.5,0,1,.13,1.37.5.38.38.5.88.5,1.38v10c0,.5-.12,1-.5,1.38-.37.37-.75.5-1.37.5-.5,0-1-.13-1.37-.5s-.5-.75-.5-1.38v-5.5l-11.5,11.38c.88,1.25,1.5,2.5,2,4,.5,1.38.75,2.87.75,4.38,0,3.87-1.38,7.13-4,9.75-2.62,2.75-5.87,4.12-9.75,4.12Zm0-23.75c-2.75,0-5.13,1-7.12,2.87s-2.88,4.38-2.88,7.13,1,5.12,2.88,7.13c2,2,4.25,2.87,7.12,2.87s5.13-1,7.13-2.87c2-2,3-4.25,3-7s-1-5.13-2.87-7.12-4.5-3-7.25-3Z"/></svg>