<?xml version="1.0" encoding="UTF-8"?><svg id="Layer_1" xmlns="http://www.w3.org/2000/svg" viewBox="0 0 40 40"><defs><style>.cls-1{fill:none;}</style></defs><rect class="cls-1" x="0" width="40" height="40"/><path d="m12.34,30.88c-1.54,0-2.99-.27-4.44-.82-1.45-.54-2.63-1.36-3.81-2.36-1.45-1.36-2.54-2.99-3.17-4.81s-.91-3.9-.91-5.8c0-2.36.54-4.26,1.72-5.71s2.81-2.27,4.99-2.27c.45,0,.82,0,1.18.09.36.09.73.18,1.18.36l10.88,3.99,10.88-3.99c.36-.18.82-.27,1.18-.36s.82-.09,1.18-.09c2.18,0,3.9.73,5.08,2.18,1.18,1.45,1.72,3.36,1.72,5.71,0,2-.36,3.9-1,5.8-.63,1.81-1.72,3.45-3.17,4.81-1.09,1.09-2.36,1.81-3.81,2.36-1.36.54-2.9.82-4.44.82-2,0-3.72-.45-5.08-1.36l-2.09-1.27h-.91l-2.09,1.36c-1.36.91-3.08,1.36-5.08,1.36Zm0-2.72c1.18,0,2.36-.27,3.36-.73,1-.54,2-1.18,2.81-2h2.9c.91.82,1.81,1.45,2.81,2,1,.54,2.09.73,3.36.73,1.18,0,2.36-.18,3.45-.63s2.18-1.09,2.99-1.9c1.09-1.09,1.9-2.45,2.36-3.99.54-1.54.73-3.08.73-4.54s-.36-2.72-1-3.72c-.54-1.09-1.63-1.54-2.99-1.54-.27,0-.73.09-1.36.27l-11.79,4.44-11.79-4.44c-.18-.09-.45-.18-.63-.18-.27-.09-.45-.09-.73-.09-1.45,0-2.54.54-3.08,1.54s-1,2.18-1,3.72.27,3.08.73,4.63,1.27,2.81,2.45,3.99c.91.82,1.9,1.45,2.99,1.9,1.09.45,2.27.54,3.45.54Zm2.27-3.63c1.09,0,2-.27,2.63-.73.63-.45.91-1.18.91-2.09,0-1.45-1-2.9-2.9-4.26s-3.99-2-6.17-2c-1.09,0-2,.27-2.63.73-.63.54-1,1.18-1,2.09,0,1.45,1,2.9,2.9,4.26s4.08,2,6.26,2Zm-.27-2.54c-1.18,0-2.45-.45-3.9-1.27-1.45-.73-2.27-1.63-2.54-2.54.27-.09.45-.18.73-.18s.45-.09.73-.09c1.18,0,2.45.45,3.9,1.27s2.27,1.72,2.54,2.54c-.27.09-.45.18-.73.18-.27.09-.54.09-.73.09Zm11.07,2.54c2.18,0,4.26-.73,6.17-2,1.9-1.36,2.9-2.81,2.9-4.26,0-.91-.27-1.54-.91-2.09s-1.54-.82-2.63-.82c-2.18,0-4.26.73-6.17,2s-2.99,2.9-2.99,4.35c0,.91.36,1.54,1,2.09.63.54,1.45.73,2.63.73Zm.18-2.54c-.27,0-.45,0-.63-.09-.18,0-.45-.09-.63-.18.27-.91,1.09-1.72,2.54-2.54,1.36-.82,2.72-1.27,3.9-1.27.27,0,.45,0,.73.09.18.09.45.09.73.18-.27.91-1.09,1.72-2.54,2.54-1.54.91-2.9,1.27-4.08,1.27Z"/></svg>