<?xml version="1.0" encoding="UTF-8"?><svg id="Layer_1" xmlns="http://www.w3.org/2000/svg" viewBox="0 0 40 40"><defs><style>.cls-1{fill:none;}</style></defs><rect class="cls-1" x="0" width="40" height="40"/><path d="m17.2,21.25l2.8-2.03,2.8,2.03c.29.19.58.19.87,0s.39-.48.29-.87l-1.06-3.38,2.9-2.32c.29-.19.29-.48.19-.87-.1-.29-.39-.48-.68-.48h-3.48l-1.06-3.57c-.1-.39-.29-.48-.68-.48-.29,0-.58.19-.68.48l-1.16,3.57h-3.48c-.39,0-.58.19-.68.48s0,.58.19.87l2.99,2.32-1.16,3.48c-.1.39,0,.68.29.87.29.1.48.1.77-.1Zm-6.67,18.65c-.48.19-.87.1-1.26-.19-.39-.29-.68-.68-.68-1.16v-12.66c-1.45-1.55-2.51-3.19-3.09-4.93-.68-1.84-.97-3.67-.97-5.41,0-4.35,1.45-8.02,4.44-11.01S15.65,0,20,0s8.02,1.45,11.01,4.44,4.44,6.67,4.44,11.01c0,1.84-.29,3.67-.97,5.41-.68,1.84-1.64,3.48-3.09,4.93v12.66c0,.48-.19.87-.58,1.16-.39.29-.87.39-1.35.19l-9.47-3.09-9.47,3.19Zm9.47-11.88c3.48,0,6.47-1.26,8.89-3.67s3.67-5.41,3.67-8.89-1.26-6.47-3.67-8.89-5.41-3.67-8.89-3.67-6.47,1.26-8.89,3.67-3.67,5.41-3.67,8.89,1.26,6.47,3.67,8.89c2.42,2.42,5.41,3.67,8.89,3.67Zm-8.5,8.5l8.5-2.71,8.5,2.71v-8.21c-1.26.97-2.71,1.64-4.15,2.03-1.45.39-2.9.58-4.35.58s-2.9-.19-4.35-.68c-1.45-.39-2.9-1.06-4.15-2.03v8.31Z"/></svg>