<?xml version="1.0" encoding="UTF-8"?><svg id="Layer_1" xmlns="http://www.w3.org/2000/svg" viewBox="0 0 40 40"><defs><style>.cls-1{fill:none;}</style></defs><rect class="cls-1" x="0" width="40" height="40"/><path d="m27.23,17.41c.7,0,1.4-.3,1.9-.8s.8-1.2.8-1.9-.3-1.4-.8-1.9-1.2-.8-1.9-.8c-.8,0-1.4.3-1.9.8s-.8,1.2-.8,1.9.3,1.4.8,1.9,1.2.8,1.9.8Zm-14.56,0c.8,0,1.4-.3,1.9-.8s.8-1.2.8-1.9-.3-1.4-.8-1.9-1.2-.8-1.9-.8c-.8,0-1.4.3-1.9.8s-.8,1.2-.8,1.9.3,1.4.8,1.9c.5.5,1.1.8,1.9.8Zm2.29,9.58h10.17c.3,0,.6-.1.9-.4.2-.2.3-.5.3-.9s-.1-.7-.3-.9-.5-.3-.9-.3h-10.27c-.3,0-.6.1-.9.3-.2.2-.3.5-.3.9s.1.7.4.9c.2.3.5.4.9.4Zm4.99,12.97c-2.79,0-5.39-.5-7.78-1.6s-4.59-2.49-6.38-4.29c-1.8-1.8-3.19-3.89-4.29-6.38s-1.5-4.89-1.5-7.68.5-5.39,1.6-7.78,2.49-4.49,4.29-6.28,3.89-3.19,6.38-4.29S17.16.05,19.95.05s5.39.5,7.78,1.6c2.39,1.1,4.59,2.49,6.38,4.29s3.19,3.89,4.29,6.28c1.1,2.39,1.6,4.99,1.6,7.78s-.5,5.39-1.6,7.78c-1,2.39-2.49,4.49-4.29,6.38-1.8,1.8-3.89,3.19-6.38,4.29s-4.99,1.5-7.78,1.5Zm0-2.99c4.69,0,8.78-1.6,12.07-4.89,3.29-3.29,4.89-7.38,4.89-12.07s-1.6-8.78-4.89-12.07c-3.29-3.29-7.38-4.89-12.07-4.89s-8.78,1.6-12.07,4.89c-3.29,3.29-4.89,7.38-4.89,12.07s1.6,8.78,4.89,12.07c3.29,3.29,7.38,4.89,12.07,4.89Z"/></svg>