<?xml version="1.0" encoding="UTF-8"?><svg id="Layer_1" xmlns="http://www.w3.org/2000/svg" viewBox="0 0 40 40"><defs><style>.cls-1{fill:none;}</style></defs><rect class="cls-1" x="0" width="40" height="40"/><path d="m10,25.5c.4,0,.8-.1,1.1-.4s.4-.6.4-1.1v-8c0-.4-.1-.8-.4-1.1-.3-.3-.6-.4-1.1-.4-.4,0-.8.1-1.1.4s-.4.6-.4,1.1v8c0,.4.1.8.4,1.1.3.3.7.4,1.1.4Zm10,0c.4,0,.8-.1,1.1-.4.3-.3.4-.6.4-1.1v-8c0-.4-.1-.8-.4-1.1-.3-.3-.6-.4-1.1-.4-.4,0-.8.1-1.1.4s-.4.6-.4,1.1v8c0,.4.1.8.4,1.1.3.3.7.4,1.1.4Zm10,0c.4,0,.8-.1,1.1-.4s.4-.6.4-1.1v-8c0-.4-.1-.8-.4-1.1-.3-.3-.6-.4-1.1-.4-.4,0-.8.1-1.1.4s-.4.6-.4,1.1v8c0,.4.1.8.4,1.1.3.3.7.4,1.1.4ZM3,31h34V9H3v22Zm0,0V9v22Zm0,3c-.8,0-1.5-.3-2.1-.9-.6-.6-.9-1.3-.9-2.1V9c0-.8.3-1.5.9-2.1.6-.6,1.3-.9,2.1-.9h3.5v-2.5c0-.4.1-.8.4-1.1.3-.3.7-.4,1.1-.4s.8.1,1.1.4.4.6.4,1.1v2.5h9v-2.5c0-.4.1-.8.4-1.1.3-.3.7-.4,1.1-.4s.8.1,1.1.4c.3.3.4.6.4,1.1v2.5h9v-2.5c0-.4.1-.8.4-1.1.3-.3.7-.4,1.1-.4s.8.1,1.1.4.4.6.4,1.1v2.5h3.5c.8,0,1.5.3,2.1.9.6.6.9,1.3.9,2.1v22c0,.8-.3,1.5-.9,2.1-.6.6-1.3.9-2.1.9h-3.5v2.5c0,.4-.1.8-.4,1.1-.3.3-.7.4-1.1.4s-.8-.1-1.1-.4c-.3-.3-.4-.6-.4-1.1v-2.5h-9v2.5c0,.4-.1.8-.4,1.1-.3.3-.7.4-1.1.4s-.8-.1-1.1-.4c-.3-.3-.4-.6-.4-1.1v-2.5h-9v2.5c0,.4-.1.8-.4,1.1-.3.3-.7.4-1.1.4s-.8-.1-1.1-.4c-.3-.3-.4-.6-.4-1.1v-2.5h-3.5Z"/></svg>