<?xml version="1.0" encoding="UTF-8"?><svg id="Layer_1" xmlns="http://www.w3.org/2000/svg" viewBox="0 0 40 40"><defs><style>.cls-1{fill:none;}</style></defs><rect class="cls-1" width="40" height="40"/><path d="m16,25.67c-.44,0-.89-.11-1.22-.44s-.44-.67-.44-1.22v-8c0-.44.11-.89.44-1.22s.67-.44,1.22-.44h8c.44,0,.89.11,1.22.44s.44.67.44,1.22v8c0,.44-.11.89-.44,1.22s-.67.44-1.22.44c0,0-8,0-8,0Zm-1,14.33c-.44,0-.89-.11-1.22-.44-.33-.33-.44-.67-.44-1.22v-2.78h-5.56c-.89,0-1.67-.33-2.33-1-.67-.67-1-1.44-1-2.33v-5.56H1.67c-.44,0-.89-.11-1.22-.44-.33-.33-.44-.78-.44-1.22s.11-.89.44-1.22.78-.44,1.22-.44h2.78v-6.89H1.67c-.44,0-.89-.11-1.22-.44-.33-.33-.44-.78-.44-1.22s.11-.89.44-1.22c.33-.33.67-.44,1.22-.44h2.78v-5.56c0-.89.33-1.67,1-2.33.67-.67,1.44-1,2.33-1h5.56V1.67c0-.44.11-.89.44-1.22.33-.33.78-.44,1.22-.44s.89.11,1.22.44c.33.33.44.78.44,1.22v2.56h6.89V1.67c0-.44.11-.89.44-1.22.33-.33.78-.44,1.22-.44s.89.11,1.22.44c.33.33.44.67.44,1.22v2.56h5.56c.89,0,1.67.33,2.33,1,.67.67,1,1.44,1,2.33v5.56h2.56c.44,0,.89.11,1.22.44s.44.67.44,1.22c0,.44-.11.89-.44,1.22-.33.33-.67.44-1.22.44h-2.56v6.89h2.56c.44,0,.89.11,1.22.44s.44.67.44,1.22c0,.44-.11.89-.44,1.22-.33.33-.67.44-1.22.44h-2.56v5.56c0,.89-.33,1.67-1,2.33-.67.67-1.44,1-2.33,1h-5.56v2.78c0,.44-.11.89-.44,1.22s-.67.44-1.22.44c-.44,0-.89-.11-1.22-.44-.33-.33-.44-.67-.44-1.22v-2.78h-6.89v2.78c0,.44-.11.89-.44,1.22-.33.33-.78.44-1.22.44Zm-7.22-7.78h24.67V7.56H7.78v24.67Zm9.89-9.89h4.67v-4.67h-4.67s0,4.67,0,4.67Z"/></svg>