<?xml version="1.0" encoding="UTF-8"?><svg id="Layer_1" xmlns="http://www.w3.org/2000/svg" viewBox="0 0 40 40"><defs><style>.cls-1{fill:none;}</style></defs><rect class="cls-1" width="40" height="40"/><path d="m19.96,24.11c-1.47,0-2.74-.53-3.79-1.58s-1.47-2.42-1.47-4V5.26c0-1.47.53-2.74,1.58-3.68,1.05-1.05,2.32-1.58,3.79-1.58s2.74.53,3.79,1.58,1.58,2.32,1.58,3.68v13.26c0,1.58-.53,2.84-1.58,4-1.16.95-2.42,1.58-3.89,1.58Zm0,15.89c-.42,0-.84-.11-1.16-.42-.32-.32-.42-.63-.42-1.16v-5.58c-3.47-.42-6.42-1.79-8.84-4.11s-3.89-5.26-4.21-8.53c-.11-.42.11-.84.42-1.16s.74-.53,1.26-.53c.32,0,.74.11.95.42.32.32.42.63.53,1.05.42,2.84,1.68,5.16,3.79,7.05,2.21,1.89,4.74,2.84,7.58,2.84s5.47-.95,7.68-2.84,3.47-4.21,3.89-7.05c.11-.42.32-.74.53-1.05.32-.32.63-.42,1.05-.42.53,0,.95.21,1.26.53s.42.74.42,1.16c-.42,3.37-1.79,6.21-4.21,8.53-2.42,2.32-5.37,3.79-8.84,4.11v5.58c0,.42-.11.84-.42,1.16-.42.32-.84.42-1.26.42Zm0-19.05c.63,0,1.16-.21,1.58-.74.42-.42.63-1.05.63-1.68V5.26c0-.63-.21-1.05-.63-1.47s-.95-.63-1.58-.63-1.16.21-1.58.63-.53.84-.53,1.47v13.26c0,.63.21,1.26.63,1.68.32.42.84.74,1.47.74Z"/></svg>