<?xml version="1.0" encoding="UTF-8"?><svg id="Layer_1" xmlns="http://www.w3.org/2000/svg" viewBox="0 0 40 40"><defs><style>.cls-1{fill:none;}</style></defs><rect class="cls-1" width="40" height="40"/><path d="m31.37,25.49l-2.06-2.06c.59-.69.98-1.47,1.27-2.25s.49-1.67.59-2.55c.1-.39.29-.69.49-.98.29-.29.59-.39.98-.39.49,0,.88.2,1.18.49s.39.69.39,1.08c-.2,1.18-.49,2.35-.98,3.53-.49,1.18-1.08,2.25-1.86,3.14Zm-6.27-6.27l-2.55-2.55V5c0-.59-.2-1.08-.59-1.47-.39-.29-.88-.49-1.47-.49s-1.08.2-1.47.59c-.39.39-.59.88-.59,1.37v7.65l-2.94-2.94v-4.71c0-1.37.49-2.55,1.47-3.53s2.16-1.47,3.53-1.47,2.55.49,3.53,1.47,1.47,2.16,1.47,3.53v12.25c0,.29,0,.59-.1.98s-.2.78-.29.98Zm12.35,20.39L.49,2.55c-.29-.29-.39-.59-.39-.98s.1-.69.39-.98c.29-.29.59-.39.98-.39s.69.1.98.39l37.06,37.16c.29.29.39.59.39.88,0,.39-.1.69-.39.98s-.59.39-.98.39c-.49,0-.78-.1-1.08-.39Zm-18.43-3.73v-5.2c-3.24-.39-5.98-1.67-8.24-3.82s-3.63-4.9-3.92-7.94c-.1-.39.1-.78.39-1.08s.69-.49,1.18-.49c.29,0,.69.1.88.39.29.29.39.59.49.98.39,2.65,1.57,4.8,3.53,6.57,1.96,1.76,4.41,2.65,7.06,2.65,1.27,0,2.45-.2,3.63-.59s2.16-.98,3.14-1.67l2.06,2.06c-.98.88-2.16,1.57-3.43,2.06s-2.55.88-3.92.98v5.2c0,.39-.1.78-.39,1.08-.2.2-.59.29-.98.29s-.78-.1-1.08-.39c-.29-.29-.39-.69-.39-1.08Z"/></svg>