<?xml version="1.0" encoding="UTF-8"?><svg id="Layer_1" xmlns="http://www.w3.org/2000/svg" viewBox="0 0 40 40"><defs><style>.cls-1{fill:none;}</style></defs><rect class="cls-1" width="40" height="40"/><path d="m6.68,40c-.43,0-.85-.11-1.17-.43-.32-.32-.43-.64-.43-1.17,0-.43.11-.85.43-1.17.32-.32.64-.43,1.17-.43h9.48v-5.54h-.85c-2.88,0-5.33-.96-7.24-2.98-2.02-2.02-2.98-4.37-2.98-7.35,0-2.13.64-4.15,1.81-5.86,1.17-1.81,2.88-2.98,5.01-3.73.11-1.38.75-2.45,1.92-3.41,1.17-.96,2.34-1.28,3.83-1.28l-.64-1.6c-.21-.43-.21-.85,0-1.17.21-.43.53-.64.96-.85l.64-.32-.11-.21c-.11-.53-.11-.96,0-1.38s.53-.75.96-.96.96-.21,1.38,0,.75.53,1.07,1.07l.21.21.64-.21c.43-.21.85-.21,1.17,0s.64.53.85.85l4.9,12.68c.21.43.21.85,0,1.28-.21.43-.53.64-.96.85l-.75.21.11.21c.21.43.21.85,0,1.28-.21.43-.53.75-.96.96-.53.21-.96.21-1.38,0s-.75-.53-1.07-1.07l-.11-.21-.75.43c-.43.21-.85.21-1.28,0-.43-.21-.64-.53-.75-.85l-.85-2.13c-.53.64-1.17,1.07-1.92,1.28s-1.49.43-2.34.32c-.85,0-1.7-.32-2.56-.85s-1.49-1.17-1.92-2.02c-1.38.64-2.34,1.49-3.09,2.66-.64,1.17-.96,2.45-.96,3.83,0,2.02.64,3.62,2.02,5.01s3.09,2.02,5.01,2.02h16.94c.43,0,.85.11,1.17.43s.43.64.43,1.17c0,.43-.11.85-.43,1.17-.32.32-.64.43-1.17.43h-10.65v5.65h11.82c.43,0,.85.11,1.17.43.32.32.43.64.43,1.17,0,.43-.11.85-.43,1.17-.32.32-.64.43-1.17.43H6.68ZM24.05,15.93l2.77-1.07-4.26-10.97-2.77.96,4.26,11.08Zm-6.92-1.28c.75,0,1.38-.21,1.92-.75s.75-1.17.75-1.92-.21-1.38-.75-1.92-1.17-.75-1.92-.75-1.38.21-1.92.75-.75,1.17-.75,1.92.21,1.38.75,1.92,1.17.75,1.92.75Z"/></svg>