<?xml version="1.0" encoding="UTF-8"?><svg id="Layer_1" xmlns="http://www.w3.org/2000/svg" viewBox="0 0 40 40"><defs><style>.cls-1{fill:none;}</style></defs><rect class="cls-1" width="40" height="40"/><path d="m10,40c-.73,0-1.36-.27-1.91-.82-.55-.55-.82-1.18-.82-1.91V2.73c0-.73.27-1.36.82-1.91.55-.55,1.18-.82,1.91-.82h20c.73,0,1.36.27,1.91.82.55.55.82,1.18.82,1.91v34.55c0,.73-.27,1.36-.82,1.91-.55.55-1.18.82-1.91.82H10Zm0-6.82v4.09h20v-4.09H10Zm10,3.36c.36,0,.73-.09,1-.36.27-.27.36-.55.36-1,0-.36-.09-.73-.36-1s-.55-.36-1-.36c-.36,0-.73.09-1,.36-.27.27-.36.55-.36,1,0,.36.09.73.36,1,.27.27.64.36,1,.36Zm-10-6.09h20V6.82H10v23.64Zm0-26.36h20v-1.36H10v1.36Zm0,29.09v4.09-4.09Zm0-29.09v-1.36,1.36Z"/></svg>