<?xml version="1.0" encoding="UTF-8"?><svg id="Layer_1" xmlns="http://www.w3.org/2000/svg" viewBox="0 0 40 40"><defs><style>.cls-1{fill:none;}</style></defs><rect class="cls-1" width="40" height="40"/><path d="m22.8,25h-7c-.4,0-.8.1-1.1.4-.3.3-.4.6-.4,1.1,0,.4.1.8.4,1.1.3.3.6.4,1.1.4h2.9v.8c0,.4.1.8.4,1.1s.6.4,1.1.4c.4,0,.8-.1,1.1-.4.3-.3.4-.6.4-1.1v-.8h2.4c.5,0,.9-.2,1.2-.6.3-.4.5-.8.5-1.4v-5.7c0-.5-.2-1-.5-1.4s-.7-.6-1.2-.6h-6.8v-3.5h7c.4,0,.8-.1,1.1-.4.3-.3.4-.6.4-1.1,0-.4-.1-.8-.4-1.1s-.6-.4-1.1-.4h-2.6v-.8c0-.4-.1-.8-.4-1.1s-.6-.4-1.1-.4c-.4,0-.8.1-1.1.4s-.4.6-.4,1.1v.8h-2.4c-.6,0-1,.2-1.4.6-.4.4-.6.9-.6,1.4v5.7c0,.5.2.9.6,1.2.4.3.8.5,1.4.5h6.5v3.8ZM3,36c-.8,0-1.5-.3-2.1-.9-.6-.6-.9-1.3-.9-2.1V7c0-.8.3-1.5.9-2.1.6-.6,1.3-.9,2.1-.9h34c.8,0,1.5.3,2.1.9.6.6.9,1.3.9,2.1v26c0,.8-.3,1.5-.9,2.1-.6.6-1.3.9-2.1.9H3Zm0-3h34V7H3v26Zm0,0V7v26Z"/></svg>