<?xml version="1.0" encoding="UTF-8"?><svg id="Layer_1" xmlns="http://www.w3.org/2000/svg" viewBox="0 0 40 40"><defs><style>.cls-1{fill:none;}</style></defs><rect class="cls-1" width="40" height="40"/><path d="m3,34c-.8,0-1.5-.3-2.1-.9-.6-.6-.9-1.3-.9-2.1V9c0-.8.3-1.5.9-2.1.6-.6,1.3-.9,2.1-.9h34c.8,0,1.5.3,2.1.9.6.6.9,1.3.9,2.1v22c0,.8-.3,1.5-.9,2.1-.6.6-1.3.9-2.1.9H3Zm0-3h34V9H3v22Zm29-5h-4.2c-.4,0-.7.1-.9.4-.2.2-.4.5-.4.9s.1.7.4.9c.2.2.5.3.9.3h5.2c.4,0,.8-.1,1.1-.4.3-.3.4-.6.4-1.1v-5.2c0-.4-.1-.7-.4-.9-.2-.2-.5-.4-.9-.4s-.7.1-.9.4c-.2.2-.4.5-.4.9v4.2h.1Zm-12-.2c1.6,0,3-.6,4.1-1.7s1.7-2.5,1.7-4.1-.6-3-1.7-4.1-2.5-1.7-4.1-1.7-3,.6-4.1,1.7-1.7,2.5-1.7,4.1.6,3,1.7,4.1c1.1,1.1,2.5,1.7,4.1,1.7Zm-12-11.6h4.2c.4,0,.7-.1.9-.4.2-.2.4-.5.4-.9s-.1-.7-.4-.9c-.2-.2-.5-.4-.9-.4h-5.2c-.4,0-.8.1-1.1.4s-.4.6-.4,1.1v5.2c0,.4.1.7.4.9.2.2.5.4.9.4s.7-.1.9-.4c.2-.2.3-.5.3-.9,0,0,0-4.1,0-4.1ZM3,31V9v22Z"/></svg>