<?xml version="1.0" encoding="UTF-8"?><svg id="Layer_1" xmlns="http://www.w3.org/2000/svg" viewBox="0 0 40 40"><defs><style>.cls-1{fill:none;}</style></defs><rect class="cls-1" width="40" height="40"/><path d="m20.28,40c-5.62,0-10.33-2.02-14.38-5.84S.06,25.4.06,19.78C.06,14.73,1.52,10.46,4.56,6.87S11.41,1.14,16.24.13c1.57-.34,2.58,0,3.14.79s.56,1.91-.11,3.37c-.34.9-.56,1.68-.79,2.58s-.22,1.8-.22,2.7c0,3.37,1.12,6.29,3.48,8.65s5.17,3.48,8.54,3.48c.9,0,1.8-.11,2.7-.22.9-.11,1.68-.45,2.58-.67,1.57-.56,2.81-.56,3.59.11s1.01,1.8.56,3.37c-1.01,4.49-3.26,8.31-6.74,11.23-3.37,3.03-7.64,4.49-12.69,4.49Zm0-3.37c4.04,0,7.64-1.24,10.67-3.82,3.03-2.58,4.94-5.5,5.62-8.87-.9.45-1.91.67-3.03.9-1.12.22-2.13.34-3.26.34-4.27,0-7.97-1.46-11.01-4.49-3.03-3.03-4.49-6.63-4.49-11.01,0-.9.11-1.91.22-2.92.22-1.01.56-2.25,1.01-3.48-3.71,1.01-6.74,3.03-9.1,6.18-2.36,3.14-3.48,6.51-3.48,10.33,0,4.72,1.68,8.65,4.94,11.9s7.19,4.94,11.9,4.94Z"/></svg>