<?xml version="1.0" encoding="UTF-8"?><svg id="Layer_1" xmlns="http://www.w3.org/2000/svg" viewBox="0 0 40 40"><defs><style>.cls-1{fill:none;}</style></defs><rect class="cls-1" width="40" height="40"/><path d="m1.67,33.92V15.17c-.5-.33-.92-.67-1.25-1.08-.25-.42-.42-.92-.42-1.5s.25-1.25.83-2c.58-.75,1.25-1.67,2.08-2.42.83.75,1.5,1.58,2.08,2.33.58.83.83,1.5.83,2s-.17,1.08-.42,1.5c-.33.42-.75.83-1.25,1.08v8h4.58v-4.25c0-.67.25-1.25.75-1.75.5-.5,1.17-.83,2-.83-.33-.58-.67-1.17-.83-1.75-.17-.58-.25-1.17-.25-1.67,0-1,.25-2,.75-2.92s1.17-1.67,2-2.17l5.5-3.67c.42-.33.83-.5,1.33-.5s1,.17,1.42.5l5.5,3.67c.83.58,1.5,1.25,2,2.17.5.92.75,1.83.75,2.92,0,.58-.08,1.08-.25,1.67-.17.58-.42,1.17-.83,1.75.83,0,1.5.25,2,.83.5.5.75,1.17.75,1.75v4.25h4.5v-7.92c-.5-.33-.92-.67-1.25-1.08s-.42-.92-.42-1.5.25-1.25.83-2,1.25-1.58,2.08-2.33c.83.75,1.5,1.58,2.08,2.33s.83,1.5.83,2-.17,1.08-.42,1.5c-.33.42-.67.83-1.25,1.08v18.75c0,.67-.25,1.25-.75,1.75-.5.5-1.08.75-1.75.75h-12.5c-.33,0-.67-.08-.92-.33-.25-.25-.33-.5-.33-.92v-5.42c0-.58-.17-1.08-.58-1.5s-.92-.58-1.5-.58-1.08.17-1.5.58-.58.92-.58,1.5v5.42c0,.33-.08.67-.33.92-.25.25-.58.33-.92.33H4.17c-.67,0-1.25-.25-1.75-.75-.5-.5-.75-1.08-.75-1.75Zm14.83-17.58h7c1,0,1.83-.33,2.58-1,.67-.67,1-1.5,1-2.5,0-.67-.17-1.17-.42-1.75s-.67-.92-1.17-1.25l-5.5-3.75-5.5,3.67c-.5.33-.83.75-1.17,1.25-.25.5-.42,1.08-.42,1.75,0,1,.33,1.83,1,2.5.75.75,1.58,1.08,2.58,1.08Zm-12.33,17.58h11.25v-4.17c0-1.25.42-2.33,1.33-3.25s2-1.33,3.25-1.33,2.33.42,3.25,1.33,1.33,2,1.33,3.25v4.17h11.25v-8.33h-4.58c-.67,0-1.25-.25-1.75-.75s-.75-1.08-.75-1.75v-4.25H11.25v4.25c0,.67-.25,1.25-.75,1.75-.5.5-1.08.75-1.75.75h-4.58v8.33Z"/></svg>