<?xml version="1.0" encoding="UTF-8"?><svg id="Layer_1" xmlns="http://www.w3.org/2000/svg" viewBox="0 0 40 40"><defs><style>.cls-1{fill:none;}</style></defs><rect class="cls-1" width="40" height="40"/><path d="m18.63,17.51h-4.32,8.9-4.57Zm-10.31,14.14c-2.33,0-4.24-.83-5.9-2.41s-2.41-3.58-2.41-5.9.83-4.24,2.41-5.9,3.58-2.41,5.9-2.41h19.71l-4.16-4.16h-5.07c-.33,0-.67-.08-.91-.33-.25-.25-.33-.5-.33-.91,0-.33.08-.67.33-.91s.5-.33.91-.33h5.07c.33,0,.67.08,1,.17.33.17.58.33.83.58l5.9,5.9c2.49,0,4.49.83,6.07,2.49,1.5,1.66,2.33,3.66,2.33,5.82,0,2.33-.83,4.24-2.41,5.9s-3.66,2.41-5.99,2.41-4.24-.83-5.9-2.41-2.41-3.58-2.41-5.9c0-.5,0-1,.08-1.5.08-.5.17-1,.42-1.41l-4.16,4.16c-.17.17-.25.25-.42.33s-.33.08-.5.08h-2.25c-.42,1.91-1.33,3.49-2.91,4.82s-3.24,1.83-5.24,1.83Zm23.28-2.49c1.58,0,2.99-.58,4.16-1.66,1.16-1.16,1.66-2.49,1.66-4.16s-.58-2.99-1.66-4.16c-1.16-1.16-2.49-1.66-4.16-1.66s-2.99.58-4.16,1.66c-1.16,1.16-1.66,2.49-1.66,4.16s.58,2.99,1.66,4.16c1.16,1.08,2.49,1.66,4.16,1.66Zm-23.28,0c1.25,0,2.41-.42,3.49-1.16s1.83-1.91,2.25-3.41h-3.66c-.33,0-.67-.08-.91-.33-.25-.25-.33-.58-.33-.91s.08-.67.33-.91c.25-.25.5-.33.91-.33h3.66c-.42-1.5-1.16-2.66-2.25-3.41s-2.25-1.16-3.49-1.16c-1.58,0-2.99.58-4.16,1.66-1.16,1.16-1.66,2.49-1.66,4.16s.58,2.99,1.66,4.16c1.16,1.08,2.58,1.66,4.16,1.66Zm8.23-7.07h2.08l4.57-4.57h-8.98c.58.58,1,1.25,1.5,2,.42.83.67,1.66.83,2.58Z"/></svg>