<?xml version="1.0" encoding="UTF-8"?><svg id="Layer_1" xmlns="http://www.w3.org/2000/svg" viewBox="0 0 40 40"><defs><style>.cls-1{fill:none;}</style></defs><rect class="cls-1" width="40" height="40"/><path d="m1.44,31.24c-.58,0-1.07-.29-1.27-.78-.29-.49-.19-1.07.1-1.56l8.76-11.68c.29-.39.68-.58,1.17-.58s.88.19,1.17.58l8.37,11.1h15.77l-11.68-15.57-6.03,8.08-1.85-2.43,6.81-9.05c.29-.39.68-.58,1.17-.58s.88.19,1.17.58l14.6,19.47c.39.49.39.97.1,1.56-.29.58-.78.88-1.36.88H1.44Zm2.92-2.92h11.68l-5.84-7.79-5.84,7.79Zm0,0h11.68H4.36Z"/></svg>