<?xml version="1.0" encoding="UTF-8"?><svg id="Layer_1" xmlns="http://www.w3.org/2000/svg" viewBox="0 0 40 40"><defs><style>.cls-1{fill:none;}</style></defs><rect class="cls-1" width="40" height="40"/><path d="m20,40c-3.8,0-7.02-1.27-9.66-3.9s-4-5.85-4-9.76v-12.68c0-3.8,1.37-7.12,4-9.76S16.2,0,20,0s7.02,1.27,9.76,3.9,3.9,5.85,3.9,9.76v12.68c0,3.8-1.27,7.02-3.9,9.76s-5.95,3.9-9.76,3.9Zm1.46-26.34h9.27c0-2.63-.88-4.98-2.54-7.02-1.76-2.05-4-3.22-6.73-3.61,0,0,0,10.63,0,10.63Zm-12.2,0h9.27V3.02c-2.73.39-4.98,1.56-6.63,3.61s-2.63,4.39-2.63,7.02Zm10.73,23.41c2.93,0,5.46-1.07,7.61-3.12,2.15-2.05,3.12-4.68,3.12-7.61v-9.76H9.27v9.76c0,2.93,1.07,5.46,3.12,7.61s4.59,3.12,7.61,3.12Z"/></svg>