<?xml version="1.0" encoding="UTF-8"?><svg id="Layer_1" xmlns="http://www.w3.org/2000/svg" viewBox="0 0 40 40"><defs><style>.cls-1{fill:none;}</style></defs><rect class="cls-1" width="40" height="40"/><path d="m9.8,26.7l5.88-8.12h11.65L9.8,4.79v21.91Zm16.25,13.04c-.64.32-1.39.32-2.03.11s-1.18-.75-1.5-1.39l-6.84-14.54-6.31,8.87c-.43.64-1.07.86-1.82.53-.75-.21-1.07-.75-1.07-1.6V1.58c0-.64.32-1.18.96-1.39.64-.32,1.18-.21,1.71.11l23.73,18.6c.64.53.75,1.07.53,1.82s-.75,1.07-1.5,1.07h-11.22l6.63,14.43c.32.64.32,1.39.11,2.03-.21.64-.64,1.18-1.39,1.5Z"/></svg>