<?xml version="1.0" encoding="UTF-8"?><svg id="Layer_1" xmlns="http://www.w3.org/2000/svg" viewBox="0 0 40 40"><defs><style>.cls-1{fill:none;}</style></defs><rect class="cls-1" width="40" height="40"/><path d="m15.67,33.22c-4.22,0-7.89-1.56-11-4.56S0,22.11,0,17.89V3.33c0-.89.33-1.67,1-2.33C1.67.33,2.44,0,3.33,0h29.44c2,0,3.78.67,5.11,2,1.44,1.33,2.11,3.11,2.11,5.11s-.67,3.67-2.11,5c-1.44,1.33-3.11,2.11-5.11,2.11h-1.33v3.78c0,4.11-1.56,7.78-4.67,10.78-3.11,3-6.89,4.44-11.11,4.44ZM3.33,10.89h24.67V3.33H3.33v7.56Zm12.33,19c3.33,0,6.22-1.22,8.67-3.56s3.67-5.11,3.67-8.44v-3.78H3.33v3.78c0,3.22,1.22,6.11,3.67,8.44s5.33,3.56,8.67,3.56Zm15.67-19h1.33c1.11,0,2-.33,2.78-1.11s1.11-1.67,1.11-2.67-.33-2-1.11-2.67-1.67-1.11-2.78-1.11h-1.33v7.56ZM1.67,40c-.44,0-.89-.11-1.22-.44-.33-.33-.44-.78-.44-1.22s.11-.89.44-1.22c.33-.33.78-.44,1.22-.44h31.89c.44,0,.89.11,1.22.44.33.33.44.67.44,1.22,0,.44-.11.89-.44,1.22-.33.33-.78.44-1.22.44H1.67Z"/></svg>