<?xml version="1.0" encoding="UTF-8"?><svg id="Layer_1" xmlns="http://www.w3.org/2000/svg" viewBox="0 0 40 40"><defs><style>.cls-1{fill:none;}</style></defs><rect class="cls-1" width="40" height="40"/><path d="m15.11,40c-2.33,0-4.33-.78-5.89-2.44s-2.44-3.56-2.44-5.89.78-4.33,2.44-5.89,3.56-2.44,5.89-2.44c1,0,2,.11,2.78.44s1.56.67,2.22,1.22V3.33c0-.89.33-1.67,1-2.33s1.44-1,2.33-1h6c1,0,1.89.33,2.67,1.11s1.11,1.56,1.11,2.67-.33,1.89-1.11,2.67c-.67.78-1.56,1.11-2.67,1.11h-6v24.22c0,2.33-.78,4.33-2.44,5.89s-3.44,2.33-5.89,2.33Z"/></svg>