<?xml version="1.0" encoding="UTF-8"?><svg id="Layer_1" xmlns="http://www.w3.org/2000/svg" viewBox="0 0 40 40"><defs><style>.cls-1{fill:none;}</style></defs><rect class="cls-1" x="0" y="0" width="40" height="40"/><path d="m3.94,40c-.44,0-.89-.11-1.22-.44s-.44-.78-.44-1.22v-2.78h0c-.67,0-1.11-.22-1.56-.56-.44-.44-.67-1-.67-1.67v-6.11c0-.44.11-.89.44-1.22s.78-.44,1.22-.44h2.78V8.33c0-2.33.89-4.33,2.67-5.89S10.94,0,13.39,0s4.33.78,5.89,2.44c1.56,1.56,2.44,3.56,2.44,5.89v23.33c0,1.44.44,2.56,1.44,3.56s2.11,1.44,3.56,1.44c1.56,0,2.78-.44,3.89-1.44,1.11-.89,1.67-2.11,1.67-3.56V14.44h-2.78c-.44,0-.89-.11-1.22-.44-.33-.33-.44-.67-.44-1.22v-6.22c0-.67.22-1.11.67-1.56s.89-.67,1.56-.67h0V1.67c0-.44.11-.89.44-1.22.33-.33.78-.44,1.22-.44h4.44c.44,0,.89.11,1.22.44.33.33.44.78.44,1.22v2.78h0c.67,0,1.11.22,1.56.67s.56.89.56,1.56v6.22c0,.44-.11.89-.44,1.22-.33.33-.67.44-1.22.44h-2.67v17.22c0,2.33-.89,4.33-2.56,5.89-1.78,1.56-3.89,2.33-6.33,2.33s-4.33-.78-5.89-2.44c-1.67-1.67-2.44-3.56-2.44-5.89V8.33c0-1.44-.44-2.56-1.44-3.56s-2.11-1.44-3.56-1.44c-1.56,0-2.78.44-3.89,1.44-1.11.89-1.67,2.11-1.67,3.56v17.22h2.78c.44,0,.89.11,1.22.44s.44.67.44,1.22v6.11c0,.67-.22,1.11-.56,1.56-.44.44-.89.56-1.56.56h-.11v2.78c0,.44-.11.89-.44,1.22s-.78.56-1.22.56H3.94Z"/></svg>