<?xml version="1.0" encoding="UTF-8"?><svg id="Layer_1" xmlns="http://www.w3.org/2000/svg" viewBox="0 0 40 40"><defs><style>.cls-1{fill:none;}</style></defs><rect class="cls-1" x="0" y="0" width="40" height="40"/><path d="m3,37.8c-.8,0-1.5-.3-2.1-.9-.6-.6-.9-1.3-.9-2.1V2.7c0-.2.1-.3.2-.4.2-.1.3,0,.4.1l2.2,2.1c.2.3.3.3.5.3s.4,0,.6-.2l2.2-2.2c.2-.2.3-.2.5-.2s.4.1.6.2l2.2,2.2c.2.2.4.2.6.2s.4-.1.6-.2l2.3-2.2c.2-.2.3-.2.5-.2s.4.1.6.2l2.2,2.2c.1.2.2.2.4.2s.4,0,.6-.2l2.2-2.2c.2-.2.3-.2.5-.2s.4.1.6.2l2.2,2.2c.3.2.4.2.6.2s.4-.1.6-.2l2.2-2.2c.2-.2.3-.2.5-.2s.4.1.6.2l2.2,2.2c.2.2.4.2.6.2s.4-.1.6-.2l2.2-2.2c.2-.2.3-.2.5-.2s.4.1.6.2l2.2,2.2c.2.2.3.2.5.2s.4,0,.6-.2l2.2-2.1c.1-.1.3-.2.4-.1.1,0,.2.1.2.3v32.1c0,.8-.3,1.5-.9,2.1-.6.6-1.3.9-2.1.9H3Zm0-3h15.5v-14H3v14Zm18.5,0h15.5v-5.5h-15.5v5.5Zm0-8.5h15.5v-5.5h-15.5v5.5ZM3,17.8h34v-6H3v6Z"/></svg>