<?xml version="1.0" encoding="UTF-8"?><svg id="Layer_1" xmlns="http://www.w3.org/2000/svg" viewBox="0 0 40 40"><defs><style>.cls-1{fill:none;}</style></defs><rect class="cls-1" x="0" y="0" width="40" height="40"/><path d="m20.19,40c-.5,0-1.12-.12-1.5-.37l-4.87-2.87c-.75-.37-.38-.5-.13-.63,1-.37,1.12-.37,2.25-1,.13-.12.25,0,.37,0l3.75,2.25c.13.12.37.12.5,0l14.5-8.5c.12-.13.25-.25.25-.37V11.5c0-.13-.12-.38-.25-.38L20.44,2.75c-.13-.12-.37-.12-.5,0L5.31,11.12c-.12.13-.25.25-.25.5v16.87c0,.13.13.37.25.37l4,2.37c2.12,1.12,3.5-.25,3.5-1.5V13c0-.25.25-.38.38-.38h1.88c.25,0,.37.13.37.38v16.75c0,2.87-1.63,4.63-4.38,4.63-.87,0-1.5,0-3.37-.88l-3.87-2.25c-1-.5-1.5-1.62-1.5-2.63V11.5c0-1.12.63-2.12,1.5-2.62L18.44.38c.88-.5,2.13-.5,3.13,0l14.62,8.5c1,.5,1.5,1.63,1.5,2.63v16.88c0,1.12-.63,2.13-1.5,2.63l-14.63,8.5c-.25.37-.87.5-1.37.5Zm11.88-16.62c0-3.13-2.13-4-6.63-4.63s-5-.88-5-2c0-.88.37-2,3.75-2,3,0,4.12.63,4.63,2.63,0,.25.25.37.37.37h1.88c.13,0,.25,0,.25-.13.13-.13.13-.25.13-.37-.25-3.5-2.63-5.13-7.37-5.13-4.12,0-6.62,1.75-6.62,4.75,0,3.25,2.5,4.12,6.5,4.5,4.75.5,5.13,1.12,5.13,2.13,0,1.62-1.38,2.37-4.38,2.37-3.88,0-4.75-1-5-2.87,0-.25-.25-.37-.37-.37h-1.88c-.25,0-.37.25-.37.37,0,2.5,1.38,5.38,7.75,5.38,4.5,0,7.25-1.88,7.25-5h0Z"/></svg>