<?xml version="1.0" encoding="UTF-8"?><svg id="Layer_1" xmlns="http://www.w3.org/2000/svg" viewBox="0 0 40 40"><defs><style>.cls-1{fill:none;}</style></defs><rect class="cls-1" x="0" y="0" width="40" height="40"/><path d="m28.07,25.76c-1.7,0-3.11-.6-4.21-1.8-1.2-1.2-1.8-2.61-1.8-4.21,0-1.7.6-3.11,1.8-4.21s2.61-1.8,4.21-1.8c1.7,0,3.11.6,4.21,1.8,1.2,1.2,1.8,2.61,1.8,4.21,0,1.7-.6,3.11-1.8,4.21-1.1,1.2-2.51,1.8-4.21,1.8Zm0-3.01c.9,0,1.6-.3,2.11-.9.6-.6.9-1.3.9-2.11s-.3-1.6-.9-2.11c-.6-.6-1.3-.9-2.11-.9s-1.6.3-2.11.9c-.6.6-.9,1.3-.9,2.11s.3,1.6.9,2.11c.5.6,1.3.9,2.11.9Zm-10.53,17.04c-.4,0-.8-.1-1.1-.4-.3-.3-.4-.7-.4-1.1v-4.31c0-.7.2-1.4.5-2.01s.8-1.1,1.4-1.5c.9-.6,1.7-1,2.41-1.2.7-.3,1.5-.5,2.61-.8.3-.1.6-.1,1,0,.3,0,.6.2.8.5l3.31,4.31,3.41-4.41c.2-.3.5-.4.8-.5s.6,0,1,0c1.1.3,1.9.5,2.51.8s1.4.7,2.31,1.2c.6.4,1.1.9,1.4,1.5.3.6.5,1.3.5,2.01v4.41c0,.4-.1.8-.4,1.1-.3.3-.6.4-1.1.4h-20.95Zm1.5-3.01h7.92l-4.11-5.31c-.7.3-1.3.6-1.9.9-.6.3-1.2.7-1.8,1v3.41h-.1Zm10.23,0h7.82v-3.41c-.6-.4-1.2-.7-1.8-1s-1.3-.6-1.9-.9l-4.11,5.31Zm-26.27-3.51V3.21v9.02-1.5,22.56Zm0,3.01c-.8,0-1.5-.3-2.11-.9-.6-.6-.9-1.3-.9-2.11V3.21c0-.8.3-1.5.9-2.11S2.21.2,3.01.2h30.08c.8,0,1.5.3,2.11.9.6.6.9,1.3.9,2.11v12.43c-.4-.7-.8-1.3-1.3-1.9s-1.1-1.1-1.7-1.5V3.21H3.01v30.08h10.03v3.01H3.01Zm6.52-25.06h15.64c.5-.2.9-.3,1.4-.4s1-.1,1.5-.1v-2.51H9.52c-.4,0-.8.1-1.1.4-.3.3-.4.6-.4,1.1,0,.4.1.8.4,1.1.3.3.7.4,1.1.4Zm0,8.52h9.52c0-.5,0-1,.1-1.5s.2-1,.4-1.5h-10.03c-.4,0-.8.1-1.1.4-.3.3-.4.7-.4,1.1s.1.8.4,1.1c.3.3.7.4,1.1.4Zm0,8.52h6.42c.6-.4,1.2-.8,1.8-1.1s1.3-.6,1.9-.8c-.1-.4-.3-.6-.5-.8s-.6-.3-1-.3h-8.62c-.4,0-.8.1-1.1.4s-.4.6-.4,1.1c0,.4.1.8.4,1.1.3.3.7.4,1.1.4Z"/></svg>