<?xml version="1.0" encoding="UTF-8"?><svg id="Layer_1" xmlns="http://www.w3.org/2000/svg" viewBox="0 0 40 40"><defs><style>.cls-1{fill:none;}</style></defs><rect class="cls-1" x="0" y="0" width="40" height="40"/><path d="m25.38,2.62c-13.75,0-20.37,18-12,28.63,3,3.62,7.12,6.13,11.88,6.13,2.87,0,5.62-.88,8-2.5-3.5,3.25-8.12,5.12-13.25,5.12h-1C8.38,39.5,0,30.75,0,20S9.01,0,20.01,0h.13c5.13,0,9.75,2,13.25,5.13-2.38-1.63-5.13-2.5-8-2.5h0Zm8.12,32.12c-3.25,2-7.37,1.88-10.62-.5,4.5-1.62,7.87-7.37,7.87-14.25s-3.38-12.63-7.87-14.25c3.38-2.38,7.37-2.5,10.75-.38,8.5,8,8.5,21.37-.13,29.37Z"/></svg>