<?xml version="1.0" encoding="UTF-8"?><svg id="Layer_1" xmlns="http://www.w3.org/2000/svg" viewBox="0 0 40 40"><defs><style>.cls-1{fill:none;}</style></defs><rect class="cls-1" x="0" y="0" width="40" height="40"/><path d="m1.67,40c-.44,0-.89-.11-1.22-.44-.33-.33-.44-.78-.44-1.22s.11-.89.44-1.22.78-.44,1.22-.44h36.67c.44,0,.89.11,1.22.44.33.33.44.67.44,1.22,0,.44-.11.89-.44,1.22-.33.33-.67.44-1.22.44H1.67Zm17.78-9.11c-.44,0-.89-.11-1.22-.44-.33-.44-.44-.78-.44-1.33,0-.44.11-.89.44-1.22.33-.33.67-.44,1.22-.44h18.89c.44,0,.89.11,1.22.44s.44.67.44,1.22c0,.44-.11.89-.44,1.22-.33.33-.67.44-1.22.44h-18.89v.11Zm0-9.22c-.44,0-.89-.11-1.22-.44-.33-.33-.44-.78-.44-1.22s.11-.89.44-1.22c.33-.33.67-.44,1.22-.44h18.89c.44,0,.89.11,1.22.44s.44.67.44,1.22c0,.44-.11.89-.44,1.22-.33.33-.67.44-1.22.44h-18.89Zm0-9.22c-.44,0-.89-.11-1.22-.44-.33-.33-.44-.67-.44-1.22,0-.44.11-.89.44-1.22s.67-.44,1.22-.44h18.89c.44,0,.89.11,1.22.44.33.33.44.67.44,1.22,0,.44-.11.89-.44,1.22-.33.33-.67.44-1.22.44h-18.89ZM1.67,3.33c-.44,0-.89-.11-1.22-.44-.33-.33-.44-.78-.44-1.22S.11.78.44.44c.33-.33.78-.44,1.22-.44h36.67c.44,0,.89.11,1.22.44.33.33.44.78.44,1.22s-.11.89-.44,1.22c-.33.33-.78.44-1.22.44H1.67Zm4.78,22.89L.67,20.44c-.22-.22-.22-.33-.22-.56s.11-.44.22-.67l5.78-5.56c.33-.22.56-.33.89-.22.33.11.44.33.44.78v11.33c0,.44-.22.67-.56.78-.22.22-.56.11-.78-.11Z"/></svg>