<?xml version="1.0" encoding="UTF-8"?><svg id="Layer_1" xmlns="http://www.w3.org/2000/svg" viewBox="0 0 40 40"><defs><style>.cls-1{fill:none;}</style></defs><rect class="cls-1" x="0" y="0" width="40" height="40"/><path d="m26.76,40h-6.76c-.48,0-.86-.19-1.14-.48-.29-.29-.48-.67-.48-1.14v-11.9c0-.48.19-.86.48-1.14.29-.29.67-.48,1.14-.48h2v-6.38H5.71c-.76,0-1.43-.29-2-.86-.57-.48-.86-1.14-.86-2V6.48c0-.76.29-1.43.86-2,.57-.57,1.24-.86,2-.86h4V1.62c0-.48.19-.86.48-1.14.29-.29.67-.48,1.14-.48h24.19c.48,0,.86.19,1.14.48s.48.67.48,1.14v7.24c0,.48-.19.86-.48,1.14s-.67.48-1.14.48H11.33c-.48,0-.86-.19-1.14-.48s-.48-.67-.48-1.14v-2.38h-4v9.14h16.29c.76,0,1.43.29,2,.86s.86,1.24.86,2v6.38h2c.48,0,.86.19,1.14.48.29.29.48.67.48,1.14v11.9c0,.48-.19.86-.48,1.14-.38.29-.76.48-1.24.48ZM12.57,2.86v4.76V2.86Zm8.67,34.29h4.29v-9.43h-4.29v9.43ZM12.57,7.62h21.71V2.86H12.57v4.76Zm8.67,29.52h4.29-4.29Z"/></svg>