<?xml version="1.0" encoding="UTF-8"?>
<svg id="Capa_1" data-name="Capa 1" xmlns="http://www.w3.org/2000/svg" viewBox="0 0 40 40">
  <defs>
    <style>
      .cls-1 {
        fill: none;
      }
    </style>
  </defs>
  <rect class="cls-1" x="0" width="40" height="40"/>
  <path d="m6.25,39.49c-1.13,0-2.24-.19-3.35-.58C1.8,38.52.83,37.92,0,37.13c1.07-.48,1.89-1.15,2.46-2.03.57-.88.86-2.01.86-3.39,0-1.51.52-2.79,1.57-3.84,1.05-1.05,2.33-1.57,3.84-1.57s2.8.52,3.84,1.57c1.05,1.05,1.57,2.33,1.57,3.84,0,2.22-.77,4.07-2.3,5.56-1.54,1.49-3.4,2.23-5.59,2.23Zm0-2.94c1.32,0,2.47-.47,3.47-1.41.99-.94,1.49-2.09,1.49-3.43,0-.71-.23-1.3-.7-1.77-.47-.47-1.06-.7-1.79-.7s-1.31.23-1.78.7c-.46.47-.69,1.06-.69,1.77,0,1.2-.14,2.17-.41,2.9-.27.73-.72,1.31-1.33,1.72.2.05.49.1.86.15.37.05.67.07.88.07Zm12.4-9.97l-4.64-4.79L34.53,1.27c.48-.49,1.04-.74,1.7-.76.66-.02,1.25.23,1.77.76l1.24,1.22c.52.53.77,1.11.76,1.77,0,.65-.26,1.23-.76,1.74l-20.59,20.59Z"/>
</svg>