<?xml version="1.0" encoding="UTF-8"?><svg id="Layer_1" xmlns="http://www.w3.org/2000/svg" viewBox="0 0 40 40"><defs><style>.cls-1{fill:none;}</style></defs><rect class="cls-1" x="0" y="0" width="40" height="40"/><path d="m20,40c-2.7,0-5.3-.5-7.8-1.6s-4.6-2.5-6.4-4.3-3.2-3.9-4.3-6.4-1.5-5-1.5-7.7.5-5.5,1.6-7.9,2.5-4.6,4.4-6.4,4-3.2,6.5-4.2S17.6,0,20.5,0C23.1,0,25.6.4,28,1.3c2.4.9,4.4,2.1,6.2,3.7,1.8,1.6,3.2,3.4,4.2,5.6,1.1,2.2,1.6,4.5,1.6,7.1,0,3.6-1,6.4-3.1,8.5-2.1,2.1-4.9,3.1-8.4,3.1h-3.8c-.6,0-1.1.2-1.5.7s-.6,1-.6,1.5c0,.9.2,1.7.7,2.3s.7,1.4.7,2.2c0,1.3-.4,2.2-1,2.9-.8.8-1.7,1.1-3,1.1Zm-11.6-18.7c.7,0,1.2-.2,1.8-.8s.8-1.1.8-1.8-.2-1.2-.8-1.8-1.1-.8-1.8-.8-1.2.2-1.8.8-.8,1.1-.8,1.8.2,1.2.8,1.8,1.1.8,1.8.8Zm6.2-8.5c.7,0,1.2-.2,1.8-.8s.8-1.1.8-1.8-.2-1.2-.8-1.8-1.1-.8-1.8-.8-1.2.2-1.8.8-.8,1.1-.8,1.8.2,1.2.8,1.8c.6.6,1.2.8,1.8.8Zm10.8,0c.7,0,1.2-.2,1.8-.8s.8-1.1.8-1.8-.2-1.2-.8-1.8-1.1-.8-1.8-.8-1.2.2-1.8.8-.8,1.1-.8,1.8.2,1.2.8,1.8c.6.6,1.1.8,1.8.8Zm6.5,8.5c.7,0,1.2-.2,1.8-.8s.8-1.1.8-1.8-.2-1.2-.8-1.8-1.1-.8-1.8-.8-1.2.2-1.8.8-.8,1.1-.8,1.8.2,1.2.8,1.8,1.1.8,1.8.8Zm-11.9,15.7c.4,0,.6-.1.8-.2.2-.2.2-.4.2-.7,0-.5-.2-.9-.7-1.3-.5-.4-.7-1.3-.7-2.7,0-1.5.5-2.9,1.5-4,1-1.2,2.3-1.8,3.8-1.8h3.6c2.5,0,4.6-.7,6.2-2.2,1.6-1.5,2.3-3.6,2.3-6.4,0-4.4-1.7-7.9-5-10.6-3.3-2.7-7.2-4-11.5-4-4.9,0-9,1.6-12.4,4.9s-5.1,7.2-5.1,12,1.7,8.7,5,12,7.3,5,12,5Z"/></svg>