<?xml version="1.0" encoding="UTF-8"?><svg id="Layer_1" xmlns="http://www.w3.org/2000/svg" viewBox="0 0 40 40"><defs><style>.cls-1{fill:none;}</style></defs><rect class="cls-1" x="0" y="0" width="40" height="40"/><path d="m20,40c-3,0-5.6-1-7.8-3.1s-3.2-4.7-3.2-7.7V7.7c0-2.1.8-4,2.3-5.5s3.3-2.2,5.5-2.2,4,.8,5.5,2.3,2.2,3.3,2.2,5.5v19.7c0,1.3-.4,2.3-1.3,3.2-.9.9-1.9,1.3-3.2,1.3s-2.3-.5-3.2-1.4c-.9-1-1.3-2.1-1.3-3.4V8.6c0-.3.1-.5.3-.7.2-.2.4-.3.7-.3s.5.1.7.3.3.4.3.7v18.8c0,.7.2,1.4.7,1.9s1.1.8,1.8.8,1.3-.2,1.8-.8c.5-.5.7-1.1.7-1.8V7.7c0-1.6-.6-3-1.7-4.1s-2.4-1.6-4-1.6-3,.5-4.1,1.7-1.7,2.4-1.7,4v21.6c0,2.4.9,4.5,2.6,6.2,1.8,1.7,3.9,2.5,6.4,2.5s4.6-.8,6.4-2.5,2.6-3.8,2.6-6.2V8.6c0-.3.1-.5.3-.7s.4-.3.7-.3.5.1.7.3.3.4.3.7v20.6c0,3-1.1,5.6-3.2,7.7-2.2,2.1-4.8,3.1-7.8,3.1Z"/></svg>