<?xml version="1.0" encoding="UTF-8"?><svg id="Layer_1" xmlns="http://www.w3.org/2000/svg" viewBox="0 0 40 40"><defs><style>.cls-1{fill:none;}</style></defs><rect class="cls-1" x="0" y="0" width="40" height="40"/><path d="m18.75,40c-.5,0-1-.12-1.38-.5-.37-.37-.5-.75-.5-1.37v-14.38h-2.5c-3.25,0-6.12-1.12-8.37-3.5-2.38-2.25-3.5-5.13-3.5-8.38s1.12-6.12,3.5-8.37S11.12,0,14.38,0h21.25c.5,0,1,.13,1.37.5.38.38.5.88.5,1.38s-.12,1-.5,1.38c-.37.38-.75.5-1.37.5h-5v34.38c0,.5-.13,1-.5,1.37-.38.38-.88.5-1.38.5s-1-.12-1.38-.5c-.37-.37-.5-.75-.5-1.37V3.75h-6.25v34.38c0,.5-.13,1-.5,1.37-.38.38-.88.5-1.38.5Z"/></svg>