<?xml version="1.0" encoding="UTF-8"?><svg id="Layer_1" xmlns="http://www.w3.org/2000/svg" viewBox="0 0 40 40"><defs><style>.cls-1{fill:none;}</style></defs><rect class="cls-1" x="0" y="0" width="40" height="40"/><path d="m12.22,25.78v10.89c0,.89-.33,1.67-1,2.33-.67.67-1.44,1-2.33,1s-1.67-.33-2.33-1-1-1.44-1-2.33V3.33c0-.89.33-1.67,1-2.33s1.44-1,2.33-1h12.67c3.67,0,6.67,1.22,9.22,3.67,2.56,2.44,3.67,5.56,3.67,9.22s-1.22,6.67-3.67,9.11-5.56,3.67-9.22,3.67h-9.33v.11Zm0-6.67h9.33c1.78,0,3.22-.56,4.44-1.78s1.78-2.67,1.78-4.44-.56-3.22-1.78-4.44-2.67-1.78-4.44-1.78h-9.33v12.44Z"/></svg>