<?xml version="1.0" encoding="UTF-8"?><svg id="Layer_1" xmlns="http://www.w3.org/2000/svg" viewBox="0 0 40 40"><defs><style>.cls-1{fill:none;}</style></defs><rect class="cls-1" x="0" y="0" width="40" height="40"/><path d="m5,40c-.9,0-1.6-.3-2.2-.8-.5-.6-.8-1.3-.8-2.2V7c0-.9.3-1.6.8-2.1s1.3-.9,2.2-.9h10.1c.2-1.2.8-2.1,1.7-2.9.9-.7,2-1.1,3.2-1.1s2.3.4,3.2,1.1c.9.8,1.5,1.7,1.7,2.9h10.1c.9,0,1.6.3,2.2.8s.8,1.3.8,2.2v30c0,.9-.3,1.6-.8,2.2-.6.5-1.3.8-2.2.8H5Zm0-3h30V7h-3v3c0,.4-.1.8-.4,1.1-.3.3-.6.4-1.1.4H9.5c-.4,0-.8-.1-1.1-.4-.3-.3-.4-.7-.4-1.1v-3h-3v30ZM20,7c.6,0,1-.2,1.4-.6s.6-.8.6-1.4-.2-1-.6-1.4-.8-.6-1.4-.6-1,.2-1.4.6-.6.8-.6,1.4.2,1,.6,1.4.8.6,1.4.6Z"/></svg>