<?xml version="1.0" encoding="UTF-8"?><svg id="Layer_1" xmlns="http://www.w3.org/2000/svg" viewBox="0 0 40 40"><defs><style>.cls-1{fill:none;}</style></defs><rect class="cls-1" x="0" y="0" width="40" height="40"/><path d="m16,28c.4,0,.8-.1,1.1-.4.3-.3.4-.6.4-1.1v-13c0-.4-.1-.8-.4-1.1-.3-.3-.7-.4-1.1-.4s-.8.1-1.1.4-.4.6-.4,1.1v13c0,.4.1.8.4,1.1.3.3.7.4,1.1.4Zm8,0c.4,0,.8-.1,1.1-.4.3-.3.4-.6.4-1.1v-13c0-.4-.1-.8-.4-1.1-.3-.3-.7-.4-1.1-.4s-.8.1-1.1.4c-.3.3-.4.6-.4,1.1v13c0,.4.1.8.4,1.1.3.3.7.4,1.1.4Zm-4,12c-2.8,0-5.3-.5-7.8-1.6s-4.5-2.5-6.4-4.3-3.2-3.9-4.3-6.4C.5,25.3,0,22.7,0,20s.5-5.4,1.6-7.8c1-2.4,2.5-4.5,4.3-6.3s3.9-3.2,6.4-4.3c2.4-1.1,5-1.6,7.7-1.6s5.4.5,7.8,1.6c2.4,1.1,4.5,2.5,6.3,4.3s3.2,3.9,4.3,6.3c1.1,2.4,1.6,5,1.6,7.8s-.5,5.3-1.6,7.8c-1,2.4-2.5,4.5-4.3,6.4-1.8,1.8-3.9,3.2-6.4,4.3s-4.9,1.5-7.7,1.5Zm0-3c4.7,0,8.7-1.7,12-5s5-7.3,5-12.1-1.6-8.7-4.9-12c-3.3-3.3-7.4-4.9-12.1-4.9s-8.7,1.6-12,4.9c-3.3,3.3-5,7.4-5,12.1s1.7,8.7,5,12,7.3,5,12,5Z"/></svg>