<?xml version="1.0" encoding="UTF-8"?><svg id="Layer_1" xmlns="http://www.w3.org/2000/svg" viewBox="0 0 40 40"><defs><style>.cls-1{fill:none;}</style></defs><rect class="cls-1" x="0" y="0" width="40" height="40"/><path d="m27.43,40c-1.14,0-2.14-.43-3-1.29-.86-.86-1.29-1.86-1.29-3V4.29c0-1.14.43-2.14,1.29-3s1.86-1.29,3-1.29h8.29c1.14,0,2.14.43,3,1.29.86.86,1.29,1.86,1.29,3v31.43c0,1.14-.43,2.14-1.29,3-.86.86-1.86,1.29-3,1.29h-8.29Zm-23.14,0c-1.14,0-2.14-.43-3-1.29-.86-.86-1.29-1.86-1.29-3V4.29c0-1.14.43-2.14,1.29-3,.86-.86,1.86-1.29,3-1.29h8.29c1.14,0,2.14.43,3,1.29.86.86,1.29,1.86,1.29,3v31.43c0,1.14-.43,2.14-1.29,3s-1.86,1.29-3,1.29H4.29Zm23.14-4.29h8.29V4.29h-8.29v31.43Zm-23.14,0h8.29V4.29H4.29v31.43Zm0-31.43v31.43V4.29Zm23.14,0v31.43V4.29Z"/></svg>