<?xml version="1.0" encoding="UTF-8"?><svg id="Layer_1" xmlns="http://www.w3.org/2000/svg" viewBox="0 0 40 40"><defs><style>.cls-1{fill:none;}</style></defs><rect class="cls-1" x="0" y="0" width="40" height="40"/><path d="m4.5,18.6c-1.3,0-2.3-.4-3.2-1.3-.9-.9-1.3-2-1.3-3.3,0-1.2.4-2.3,1.3-3.2s1.9-1.3,3.2-1.3,2.3.4,3.2,1.3c.9.9,1.3,1.9,1.3,3.2s-.4,2.3-1.3,3.2c-.9.9-1.9,1.4-3.2,1.4Zm9.2-8.6c-1.3,0-2.3-.4-3.2-1.3-.9-.9-1.3-1.9-1.3-3.2s.4-2.3,1.3-3.2,1.9-1.3,3.2-1.3,2.3.4,3.2,1.3c.9.9,1.3,1.9,1.3,3.2s-.4,2.3-1.3,3.2c-.8.9-1.9,1.3-3.2,1.3Zm12.5,0c-1.3,0-2.3-.4-3.2-1.3-.9-.9-1.3-1.9-1.3-3.2s.4-2.3,1.3-3.2c.9-.9,1.9-1.3,3.2-1.3s2.3.4,3.2,1.3c.9.9,1.3,1.9,1.3,3.2s-.4,2.3-1.3,3.2c-.8.9-1.9,1.3-3.2,1.3Zm9.3,8.6c-1.3,0-2.3-.4-3.2-1.3s-1.3-1.9-1.3-3.2.4-2.3,1.3-3.2c.9-.9,1.9-1.3,3.2-1.3s2.3.4,3.2,1.3c.9.9,1.3,1.9,1.3,3.2s-.4,2.3-1.3,3.2c-.9.8-1.9,1.3-3.2,1.3Zm-26.2,20.4c-1.4,0-2.6-.5-3.4-1.6-.9-1.1-1.4-2.3-1.4-3.7s.4-2.6,1.3-3.7c.8-1.1,1.8-2.1,2.7-3.1.7-.7,1.4-1.5,2.1-2.3s1.2-1.7,1.8-2.5c1-1.5,2-2.8,3.2-4.1s2.7-1.9,4.4-1.9,3.2.6,4.4,1.9c1.2,1.3,2.3,2.6,3.3,4.1.6.9,1.2,1.7,1.8,2.5.6.8,1.3,1.6,2,2.3,1,1,1.9,2,2.7,3.1s1.3,2.3,1.3,3.7-.5,2.7-1.3,3.7c-.9,1.1-2,1.6-3.5,1.6-1.8,0-3.6-.2-5.4-.5s-3.5-.5-5.4-.5c-1.8,0-3.6.2-5.4.5-1.6.4-3.4.5-5.2.5Z"/></svg>