<?xml version="1.0" encoding="UTF-8"?><svg id="Layer_1" xmlns="http://www.w3.org/2000/svg" viewBox="0 0 40 40"><defs><style>.cls-1{fill:none;}</style></defs><rect class="cls-1" x="0" y="0" width="40" height="40"/><path d="m12.78,23.54c-.25,1.76-1.51,9.67-1.88,11.94,0,.13-.13.25-.25.25h-6.53c-.63,0-1.13-.63-1.13-1.26L8.13,1.55c.13-.88.88-1.51,1.76-1.51C23.34.05,24.47-.33,27.99,1.05c5.28,2.01,5.78,7.04,3.89,12.44-1.88,5.53-6.41,7.92-12.44,8.04-3.77-.13-6.03-.75-6.66,2.01h0Zm21.86-12.82c-.13-.13-.25-.13-.25.13-.13,1.01-.5,2.01-.75,3.02-3.52,10.05-13.32,9.17-18.09,9.17-.5,0-.88.25-1.01.88-2.01,12.44-2.39,15.08-2.39,15.08-.13.5.25,1.01.88,1.01h5.65c.75,0,1.38-.5,1.51-1.38,0-.5-.13.5,1.26-8.04.38-2.01,1.26-1.76,2.64-1.76,6.28,0,11.18-2.51,12.69-9.93.5-3.02.38-6.28-2.14-8.17h0Z"/></svg>