<?xml version="1.0" encoding="UTF-8"?><svg id="Layer_1" xmlns="http://www.w3.org/2000/svg" viewBox="0 0 40 40"><defs><style>.cls-1{fill:none;}</style></defs><rect class="cls-1" x="0" y="0" width="40" height="40"/><path d="m2.71,39.92c-.77.22-1.43,0-1.97-.55s-.88-1.32-.66-1.97l2.19-10.53,10.86,10.86-10.42,2.19Zm10.42-2.19L2.27,26.87,28.15.88c.66-.66,1.43-.88,2.3-.88s1.64.33,2.3.88l6.25,6.25c.66.66.99,1.43.99,2.3s-.33,1.64-.99,2.3l-25.88,25.99ZM30.56,3.29L6.33,27.52l6.25,6.14,24.23-24.23-6.25-6.14Z"/></svg>