<?xml version="1.0" encoding="UTF-8"?><svg id="Layer_1" xmlns="http://www.w3.org/2000/svg" viewBox="0 0 40 40"><defs><style>.cls-1{fill:none;}</style></defs><rect class="cls-1" x="0" y="0" width="40" height="40"/><path d="m20.06,17.67l2.33,2.33,13.78-13.89-2.33-2.33-13.78,13.89ZM3.39,36.67h2.33l14.33-14.33-2.33-2.33-14.33,14.33v2.33Zm20.11-13.22l-6.89-6.89,11-11-1.67-1.67-11.89,11.78c-.33.33-.67.44-1.11.44s-.89-.22-1.11-.56c-.33-.33-.56-.78-.56-1.22s.11-.89.56-1.22L23.28,1.78c.89-.89,1.89-1.44,2.78-1.44s1.89.44,2.78,1.44l1.22,1.33,2.44-2.44c.44-.44.89-.67,1.44-.67s1,.22,1.33.56l4.11,4.11c.44.44.56.89.56,1.44s-.22,1-.56,1.44l-15.89,15.89ZM1.72,40c-.44,0-.89-.11-1.22-.44s-.44-.78-.44-1.22v-3.89c0-.44.11-.89.22-1.33s.44-.78.78-1.11l15.56-15.56,6.89,6.89-15.56,15.56c-.33.33-.67.56-1.11.78s-.89.22-1.33.22H1.72v.11Z"/></svg>