<?xml version="1.0" encoding="UTF-8"?><svg id="Layer_1" xmlns="http://www.w3.org/2000/svg" viewBox="0 0 40 40"><defs><style>.cls-1{fill:none;}</style></defs><rect class="cls-1" x="0" y="0" width="40" height="40"/><path d="m3.29,36.72h2.4L29.94,12.58l-2.4-2.4L3.29,34.32v2.4ZM36.82,10.18l-6.99-6.99,2.29-2.29c.66-.66,1.42-.98,2.29-.87.87,0,1.75.33,2.29.98l2.29,2.4c.66.66.98,1.42.98,2.29s-.33,1.64-.87,2.29l-2.29,2.18ZM1.65,40c-.44,0-.87-.11-1.2-.44-.33-.33-.44-.76-.44-1.2v-4.7c0-.22,0-.44.11-.66.11-.22.22-.33.44-.55L27.65,5.37l6.99,6.99L7.55,39.45c-.22.22-.33.33-.55.44-.22.11-.44.11-.66.11H1.65ZM28.63,11.27l-1.2-1.2,2.4,2.4-1.2-1.2Z"/></svg>