<?xml version="1.0" encoding="UTF-8"?><svg id="Layer_1" xmlns="http://www.w3.org/2000/svg" viewBox="0 0 40 40"><defs><style>.cls-1{fill:none;}</style></defs><rect class="cls-1" x="0" width="40" height="40"/><path d="m33.94,14.09l-7.98-7.98,3.63-3.63c.62-.62,1.35-.83,2.18-.83s1.55.31,2.18.83l3.63,3.63c.62.62.93,1.35.93,2.18s-.31,1.55-.93,2.18l-3.63,3.63ZM1.3,38.76v-8.08l10.05-10.05L-.05,9.12,8.96,0l11.5,11.5,5.49-5.49,7.98,7.98-5.49,5.49,11.61,11.61-9.12,8.91-11.5-11.4-10.05,10.16H1.3Zm12.33-20.31l4.66-4.66-3.73-3.83-2.49,2.49-2.18-2.18,2.49-2.49-3.32-3.32-4.66,4.66,9.22,9.33Zm17.2,17.31l4.66-4.66-3.32-3.32-2.49,2.49-2.18-2.18,2.49-2.49-3.73-3.73-4.66,4.66,9.22,9.22Zm-26.42-.1h3.63L29.59,14.09l-3.63-3.63L4.4,32.02v3.63Z"/></svg>