<?xml version="1.0" encoding="UTF-8"?><svg id="Layer_1" xmlns="http://www.w3.org/2000/svg" viewBox="0 0 40 40"><defs><style>.cls-1{fill:none;}</style></defs><rect class="cls-1" x="0" width="40" height="40"/><path d="m7.73,9.4c-1.04,0-1.98-.42-2.72-1.15s-1.15-1.67-1.15-2.82c0-1.04.42-1.98,1.15-2.72s1.67-1.15,2.82-1.15c1.04,0,1.98.42,2.72,1.15.73.73,1.15,1.67,1.15,2.82,0,1.04-.42,1.98-1.15,2.72-.73.73-1.67,1.15-2.82,1.15ZM0,17.44v-.63c0-.73.21-1.36.63-1.98s.94-1.04,1.67-1.36c.84-.42,1.78-.63,2.72-.84.94-.21,1.88-.31,2.92-.31s1.98.1,2.92.31c.94.21,1.78.52,2.72.84.73.31,1.25.73,1.67,1.36.42.63.63,1.25.63,1.98v.63H0Zm31.85-8.04c-1.04,0-1.98-.42-2.72-1.15-.73-.73-1.15-1.67-1.15-2.82,0-1.04.42-1.98,1.15-2.72.73-.73,1.67-1.15,2.82-1.15,1.04,0,1.98.42,2.72,1.15.73.73,1.15,1.67,1.15,2.82,0,1.04-.42,1.98-1.15,2.72-.73.73-1.67,1.15-2.82,1.15Zm-7.73,8.04v-.63c0-.73.21-1.36.63-1.98s.94-1.04,1.67-1.36c.84-.42,1.78-.63,2.72-.84s1.88-.31,2.92-.31,1.98.1,2.92.31c.94.21,1.78.52,2.72.84.73.31,1.25.73,1.67,1.36.42.63.63,1.25.63,1.98v.63h-15.87ZM6.06,37.81L.42,32.27c-.21-.21-.31-.31-.31-.52-.1-.21-.1-.42-.1-.63s0-.42.1-.52c.1-.21.21-.31.31-.52l5.64-5.64c.31-.31.73-.52,1.25-.52s.94.21,1.25.52c.42.42.63.84.63,1.25s-.21.94-.63,1.25l-2.3,2.4h27.15l-2.3-2.3c-.31-.31-.52-.73-.52-1.25s.21-.94.52-1.36c.42-.42.84-.52,1.25-.52s.94.21,1.25.63l5.54,5.64c.21.21.31.31.31.52.21.1.21.31.21.52s0,.42-.1.52c-.1.21-.21.31-.31.52l-5.64,5.64c-.31.31-.73.52-1.25.52s-.94-.21-1.25-.52c-.42-.42-.52-.84-.52-1.25,0-.52.21-.94.52-1.25l2.3-2.3H6.27l2.3,2.3c.31.31.52.73.52,1.25,0,.42-.21.94-.52,1.25-.42.42-.84.52-1.25.52-.42,0-.84-.21-1.25-.63Z"/></svg>