<?xml version="1.0" encoding="UTF-8"?><svg id="Layer_1" xmlns="http://www.w3.org/2000/svg" viewBox="0 0 40 40"><defs><style>.cls-1{fill:none;}</style></defs><rect class="cls-1" x="0" width="40" height="40"/><path d="m8.12,16.25c-2.25,0-4.13-.75-5.75-2.37-1.62-1.63-2.37-3.5-2.37-5.75S.75,4,2.37,2.37,5.87,0,8.12,0s4.12.75,5.75,2.37c1.62,1.63,2.37,3.5,2.37,5.75s-.75,4.12-2.37,5.75c-1.63,1.62-3.5,2.37-5.75,2.37Zm0-3.75c1.25,0,2.25-.37,3.12-1.25s1.25-1.88,1.25-3.12-.37-2.25-1.25-3.12-1.88-1.25-3.12-1.25-2.25.38-3.12,1.25-1.25,1.88-1.25,3.12.38,2.25,1.25,3.12,1.88,1.25,3.12,1.25Zm23.75,27.5c-2.25,0-4.12-.75-5.75-2.38-1.62-1.62-2.37-3.5-2.37-5.75s.75-4.12,2.37-5.75c1.62-1.62,3.5-2.37,5.75-2.37s4.12.75,5.75,2.37,2.38,3.5,2.38,5.75-.75,4.12-2.38,5.75c-1.62,1.63-3.5,2.38-5.75,2.38Zm0-3.75c1.25,0,2.25-.37,3.12-1.25s1.25-1.88,1.25-3.12-.37-2.25-1.25-3.12-1.88-1.25-3.12-1.25-2.25.37-3.12,1.25-1.25,1.88-1.25,3.12.37,2.25,1.25,3.12,1.88,1.25,3.12,1.25Zm-30.5,2.5c-.38-.37-.5-.88-.5-1.25,0-.5.13-1,.5-1.37L36.13,1.25c.37-.38.75-.5,1.25-.5s1,.13,1.25.5.62.87.62,1.38-.25,1-.62,1.38L4,38.75c-.38.37-.87.62-1.38.62-.5-.12-.87-.37-1.25-.62Z"/></svg>