<?xml version="1.0" encoding="UTF-8"?><svg id="Layer_1" xmlns="http://www.w3.org/2000/svg" viewBox="0 0 40 40"><defs><style>.cls-1{fill:none;}</style></defs><rect class="cls-1" x="0" width="40" height="40"/><path d="m2.44,40c-.67,0-1.33-.22-1.78-.67-.44-.44-.67-1.11-.67-1.78v-7.56c0-.56.22-1,.56-1.44.33-.44.89-.78,1.33-.89l6.56-1.44c.44-.11,1,0,1.44.11.44.11.89.44,1.33.89l5.33,5.44c1.67-.89,3.22-1.89,4.78-3.11,1.56-1.22,3-2.44,4.33-3.89,1.33-1.22,2.44-2.56,3.56-4,1.11-1.44,2.11-2.89,3.11-4.56l-5.56-5.56c-.33-.33-.56-.67-.56-1.11-.11-.44-.11-.89,0-1.44l1.44-7c.11-.56.44-1,.78-1.33C28.78.22,29.22,0,29.78,0h7.78C38.22,0,38.89.22,39.33.67c.44.44.67,1.11.67,1.78,0,4.33-1,8.67-3.11,13.11-2.11,4.44-5,8.56-8.89,12.44s-8,6.78-12.44,8.89c-4.33,2.11-8.78,3.11-13.11,3.11Zm31.44-26c.89-2.22,1.67-4.22,2.11-5.89.44-1.78.67-3.33.67-4.78h-5.89l-1.33,6.11,4.44,4.56Zm-20.44,20.22l-4.33-4.67-5.78,1.22v5.89c1.67-.11,3.44-.33,5.22-.78,1.67-.44,3.33-1,4.89-1.67Z"/></svg>