<?xml version="1.0" encoding="UTF-8"?><svg id="Layer_1" xmlns="http://www.w3.org/2000/svg" viewBox="0 0 40 40"><defs><style>.cls-1{fill:none;}</style></defs><rect class="cls-1" x="0" width="40" height="40"/><path d="m37.31,40c-4.38,0-8.9-1.13-13.29-3.39-4.52-2.26-8.48-5.09-12.01-8.62s-6.5-7.49-8.62-12.01C1.13,11.59,0,7.07,0,2.69c0-.71.28-1.27.71-1.84C1.13.28,1.84,0,2.54,0h7.07C10.18,0,10.74.14,11.17.57s.71.85.85,1.55l1.41,6.5c.14.57.14,1.13,0,1.55s-.42.85-.71,1.13l-5.51,5.37c2.12,3.53,4.52,6.64,7.21,9.33,2.69,2.69,5.8,4.95,9.33,6.93l5.37-5.51c.42-.42.85-.71,1.27-.85.57-.14.99-.14,1.55-.14l5.94,1.27c.57.14,1.13.42,1.55.85.42.42.57.99.57,1.7v6.93c0,.71-.28,1.27-.71,1.84s-1.27.99-1.98.99ZM5.65,14.13l4.66-4.52s.14-.14.14-.28v-.28l-1.13-5.8q0-.14-.14-.28c-.14,0-.14-.14-.28-.14H3.25q-.14.14-.28.28v.28c0,1.55.28,3.25.71,5.09.42,1.7,1.13,3.53,1.98,5.65Zm30.95,22.9q.14,0,.28-.14s.14-.14.14-.28v-5.51c0-.14,0-.28-.14-.28,0-.14-.14-.14-.28-.14l-5.23-1.13h-.28s-.14,0-.28.14l-4.52,4.66c1.55.71,3.25,1.41,5.09,1.84,1.98.57,3.67.71,5.23.85Z"/></svg>