<?xml version="1.0" encoding="UTF-8"?><svg id="Layer_1" xmlns="http://www.w3.org/2000/svg" viewBox="0 0 40 40"><defs><style>.cls-1{fill:none;}</style></defs><rect class="cls-1" x="0" width="40" height="40"/><path d="m37.29,39.64l-11.15-11.04c-3.75,3.02-7.4,5.21-11.04,6.77-3.65,1.35-7.08,2.08-10.52,2.08-.83,0-1.35-.21-1.77-.62-.31-.42-.52-1.04-.52-1.67v-7.08c0-.52.21-1.04.52-1.46s.83-.73,1.25-.83l6.15-1.35c.42-.1.94-.1,1.35.1.42.1.83.42,1.15.83l5,5.1c1.04-.52,2.08-1.15,3.12-1.87,1.04-.83,2.08-1.56,2.92-2.29L.42,2.76c-.21-.31-.42-.62-.42-1.04S.21.89.52.68C.83.36,1.25.16,1.67.16s.83.21,1.15.52l36.77,36.77c.31.31.42.73.42,1.04,0,.42-.21.73-.52,1.04s-.73.42-1.04.52c-.52,0-.83-.1-1.15-.42Zm-22.4-7.6l-4.06-4.38-5.42,1.15v5.52c1.56-.1,3.23-.31,4.9-.73,1.56-.42,3.13-.94,4.58-1.56Zm15.73-8.02l-2.29-2.19c.73-.83,1.46-1.87,2.19-2.92.73-1.04,1.46-2.08,1.98-2.92l-5.21-5.21c-.31-.31-.52-.63-.63-1.04s-.1-.83,0-1.35l1.46-6.56c.1-.52.31-1.04.73-1.35.42-.31.83-.52,1.35-.52h7.29c.62,0,1.25.21,1.67.62.42.42.62,1.04.62,1.67,0,3.54-.83,7.29-2.5,11.15-1.67,3.96-3.85,7.5-6.67,10.63Zm3.44-10.94c.94-2.08,1.56-3.96,1.98-5.52s.62-3.12.62-4.48h-5.52l-1.25,5.73,4.17,4.27Z"/></svg>