<?xml version="1.0" encoding="UTF-8"?><svg id="Layer_1" xmlns="http://www.w3.org/2000/svg" viewBox="0 0 40 40"><defs><style>.cls-1{fill:none;}</style></defs><rect class="cls-1" x="0" width="40" height="40"/><path d="m20,10.5c10.75,0,19,4.5,19,9.5s-8.25,9.5-19,9.5S1,25,1,20s8.25-9.5,19-9.5m0-1C9,9.5,0,14.25,0,20s9,10.5,20,10.5,20-4.75,20-10.5-9-10.5-20-10.5Zm-6.38,9.62c-.5,2.5-2.25,2.25-4.38,2.25l.87-4.38c2.38,0,4-.25,3.5,2.13h0Zm-7.5,6.75h2.25l.5-2.75c2.62,0,4.13.13,5.62-1.25,1.63-1.5,2-4.12.87-5.5-.62-.75-1.63-1-2.88-1h-4.38l-2,10.5Zm11.63-13.38h2.25l-.5,2.75c2,0,3.75-.13,4.63.62.88.88.5,1.88-.5,7.13h-2.38c1-5,1.12-5.37.75-5.75-.37-.37-1.12-.25-3-.25l-1.12,6h-2.25l2.12-10.5h0Zm13.75,6.62c-.5,2.63-2.25,2.25-4.38,2.25l.88-4.38c2.37,0,4-.25,3.5,2.13h0Zm-7.5,6.75h2.25l.5-2.75c2.75,0,4.25.13,5.62-1.25,1.62-1.5,2-4.12.88-5.5-.62-.75-1.62-1-2.87-1h-4.38l-2,10.5Z"/></svg>