<?xml version="1.0" encoding="UTF-8"?><svg id="Layer_1" xmlns="http://www.w3.org/2000/svg" viewBox="0 0 40 40"><defs><style>.cls-1{fill:none;}</style></defs><rect class="cls-1" x="0" width="40" height="40"/><path d="m28.14,18.99c.6,0,1.01-.2,1.41-.6.4-.4.6-.8.6-1.41s-.2-1.01-.6-1.41c-.4-.4-.8-.6-1.41-.6s-1.01.2-1.41.6-.6.8-.6,1.41.2,1.01.6,1.41.8.6,1.41.6Zm-14.57-5.03h7.04c.4,0,.8-.1,1.11-.4.3-.3.4-.6.4-1.11,0-.4-.1-.8-.4-1.11s-.6-.4-1.11-.4h-7.04c-.4,0-.8.1-1.11.4-.3.3-.4.6-.4,1.11,0,.4.1.8.4,1.11.3.3.7.4,1.11.4Zm-6.03,25.13c-.7,0-1.41-.2-2.01-.7s-1.01-1.01-1.21-1.71c-.8-2.91-1.51-5.33-2.11-7.44-.6-2.11-1.01-3.92-1.31-5.53s-.6-3.02-.7-4.22c-.1-1.21-.2-2.41-.2-3.52,0-3.12,1.11-5.73,3.22-7.84,2.11-2.11,4.72-3.22,7.84-3.22h10.05c.9-1.21,2.01-2.21,3.42-2.91,1.41-.7,2.91-1.11,4.62-1.11.8,0,1.51.3,2.11.9.6.6.9,1.31.9,2.11,0,.2,0,.4-.1.6,0,.2-.1.4-.2.6-.1.4-.3.7-.4,1.11-.1.4-.2.8-.3,1.21l4.52,4.52h2.81c.4,0,.8.1,1.11.4.3.3.4.6.4,1.11v11.46c0,.3-.1.6-.3.9s-.4.4-.8.5l-4.62,1.51-2.71,9.05c-.2.7-.6,1.21-1.11,1.61-.3.4-.9.6-1.51.6h-5.83c-.8,0-1.51-.3-2.11-.9-.6-.6-.9-1.31-.9-2.11v-1.01h-4.02v1.01c0,.8-.3,1.51-.9,2.11-.6.6-1.31.9-2.11.9h-5.53Zm-.3-3.02h5.83v-4.02h10.05v4.02h5.83l3.22-10.55,5.13-1.81v-8.74h-2.61l-6.53-6.43c0-.6.1-1.31.3-2.11.1-.8.4-1.71.6-2.71-1.41.4-2.71.9-3.82,1.71-1.11.7-1.91,1.51-2.41,2.51h-11.76c-2.21,0-4.12.8-5.73,2.31-1.51,1.61-2.31,3.52-2.31,5.73,0,1.41.4,3.82,1.11,7.34.7,3.52,1.81,7.74,3.12,12.76Z"/></svg>