<?xml version="1.0" encoding="UTF-8"?><svg id="Layer_1" xmlns="http://www.w3.org/2000/svg" viewBox="0 0 40 40"><defs><style>.cls-1{fill:none;}</style></defs><rect class="cls-1" width="40" height="40"/><path d="m21,0C12.76,0,4.66,5.49,4.66,14.35c0,5.61,3.12,8.86,5.11,8.86.75,0,1.25-2.25,1.25-2.87,0-.75-1.87-2.37-1.87-5.36,0-6.49,4.87-10.98,11.23-10.98,5.49,0,9.48,3.12,9.48,8.73,0,4.24-1.75,12.22-7.24,12.22-2,0-3.74-1.5-3.74-3.49,0-2.99,2.12-5.99,2.12-9.11,0-5.24-7.48-4.37-7.48,2.12,0,1.37.12,2.87.75,4.12-1.12,4.74-3.37,11.85-3.37,16.72,0,1.5.25,2.99.37,4.49.25.25.12.25.5.12,3.99-5.49,3.87-6.61,5.74-13.85,1,1.87,3.49,2.87,5.49,2.87,8.48,0,12.35-8.23,12.35-15.72C35.34,5.11,28.48,0,21,0Z"/></svg>