<?xml version="1.0" encoding="UTF-8"?><svg id="Layer_1" xmlns="http://www.w3.org/2000/svg" viewBox="0 0 40 40"><defs><style>.cls-1{fill:none;}</style></defs><rect class="cls-1" width="40" height="40"/><path d="m20.05,38.8c-.53,0-.95-.11-1.48-.32-.42-.21-.85-.64-1.16-1.06L.57,12C.04,11.26-.07,10.42.04,9.57s.53-1.59,1.27-2.12c2.75-2.01,5.72-3.49,8.9-4.66s6.46-1.59,9.85-1.59,6.57.53,9.74,1.69,6.14,2.65,8.9,4.66c.74.53,1.16,1.16,1.27,2.12.11.95,0,1.69-.53,2.44l-16.84,25.42c-.32.53-.74.85-1.16,1.06-.42.11-.85.21-1.38.21Zm0-2.97l16.94-25.63c-2.54-1.69-5.3-3.07-8.15-4.13s-5.72-1.69-8.79-1.69-6.04.53-8.9,1.69-5.51,2.44-8.05,4.13l16.94,25.63Zm-5.82-20.02c.85,0,1.48-.32,2.01-.85s.85-1.27.85-2.01c0-.85-.32-1.48-.85-2.01s-1.27-.85-2.01-.85-1.48.32-2.01.85-.85,1.27-.85,2.01c0,.85.32,1.48.85,2.01s1.16.85,2.01.85Zm5.82,11.33c.85,0,1.48-.32,2.01-.85s.85-1.27.85-2.12-.32-1.48-.85-2.01-1.27-.85-2.12-.85-1.48.32-2.01.85-.85,1.27-.85,2.01.32,1.48.85,2.01,1.27.95,2.12.95Z"/></svg>