<?xml version="1.0" encoding="UTF-8"?><svg id="Layer_1" xmlns="http://www.w3.org/2000/svg" viewBox="0 0 40 40"><defs><style>.cls-1{fill:none;}</style></defs><rect class="cls-1" width="40" height="40"/><path d="m.9,37.14v-10c0-.57.19-1.05.48-1.52s.76-.86,1.24-1.05l6.1-2.76v-4.48c0-.57.19-1.05.38-1.52.29-.48.67-.76,1.14-1.05l8.19-4.19v-3.9h-2.29c-.38,0-.76-.1-1.05-.38-.29-.29-.38-.57-.38-1.05,0-.38.1-.76.38-1.05.29-.29.67-.38,1.05-.38h2.38V1.43c0-.38.1-.76.38-1.05.29-.29.67-.38,1.05-.38s.76.1,1.05.38.38.57.38,1.05v2.38h2.38c.38,0,.76.1,1.05.38.29.29.38.57.38,1.05,0,.38-.1.76-.38,1.05-.29.29-.67.38-1.05.38h-2.38v3.9l8.19,4.19c.48.29.86.67,1.14,1.05.29.48.48.95.48,1.52v4.48l6.19,2.76c.57.29.95.57,1.24,1.05s.48.95.48,1.52v10c0,.76-.29,1.43-.86,2-.67.57-1.33.86-2.1.86h-12.38c-.38,0-.76-.1-1.05-.38-.29-.29-.38-.57-.38-1.05v-6.19c0-.67-.19-1.24-.67-1.71s-1.05-.67-1.71-.67-1.24.19-1.71.67-.67,1.05-.67,1.71v6.19c0,.38-.1.76-.38,1.05-.29.29-.67.38-1.05.38H3.76c-.76,0-1.43-.29-2-.86-.57-.57-.86-1.24-.86-2Zm2.86,0h10.95v-4.86c0-1.43.48-2.76,1.52-3.81,1.05-1.05,2.29-1.52,3.71-1.52s2.67.57,3.71,1.52c1.05,1.05,1.52,2.29,1.52,3.81v4.86h10.95v-10.19l-7.81-3.43v-6.38l-8.38-4.38-8.38,4.38v6.29l-7.81,3.52v10.19Zm16.19-13.52c.76,0,1.33-.29,1.81-.76s.76-1.14.76-1.9-.29-1.33-.76-1.81-1.14-.76-1.9-.76-1.33.29-1.81.76-.76,1.14-.76,1.9.29,1.33.76,1.81,1.14.76,1.9.76Z"/></svg>