<?xml version="1.0" encoding="UTF-8"?><svg id="Layer_1" xmlns="http://www.w3.org/2000/svg" viewBox="0 0 40 40"><defs><style>.cls-1{fill:none;}</style></defs><rect class="cls-1" width="40" height="40"/><path d="m3.05,37.55c-.41,0-.81-.1-1.12-.41-.3-.3-.41-.61-.41-1.12s.1-.81.41-1.12c.3-.3.61-.41,1.12-.41h33.49c.41,0,.81.1,1.12.41.3.3.41.61.41,1.12s-.1.81-.41,1.12c-.41.3-.71.41-1.22.41H3.05Zm2.74-10.86c-.3.1-.71.1-1.01,0s-.61-.41-.71-.61L.21,19.58c-.2-.41-.3-.71-.1-1.01.2-.3.41-.51.91-.61.2,0,.41,0,.61.1s.41.1.51.2l3.04,2.74,11.47-3.04-7.61-12.99c-.3-.51-.41-1.01-.2-1.52s.61-.81,1.12-.91c.3-.1.61-.1.91,0s.61.2.81.41l13.7,12.38,10.96-2.94c.91-.3,1.73-.1,2.54.51.71.61,1.12,1.42,1.12,2.33,0,.61-.2,1.22-.61,1.73s-.91.81-1.52,1.01L5.79,26.69Z"/></svg>