<?xml version="1.0" encoding="UTF-8"?><svg id="Layer_1" xmlns="http://www.w3.org/2000/svg" viewBox="0 0 40 40"><defs><style>.cls-1{fill:none;}</style></defs><rect class="cls-1" width="40" height="40"/><path d="m2.4,40c-.43,0-.85-.11-1.17-.43-.32-.32-.43-.75-.43-1.17s.11-.85.43-1.17c.32-.32.64-.43,1.17-.43h35.2c.43,0,.85.11,1.17.43s.43.64.43,1.17-.11.85-.43,1.17-.75.43-1.17.43H2.4Zm32.96-11.31L1.98,19.52c-.32-.11-.64-.32-.85-.64-.21-.32-.32-.64-.32-.96v-8.32c0-.43.11-.75.43-.96s.64-.21,1.07-.11c.11.11.21.21.32.21.21.11.32.32.43.43l1.49,4.59,11.73,3.31V1.71c0-.64.21-1.07.64-1.39.43-.32.96-.43,1.6-.21.21.11.43.21.64.43.21.21.32.43.43.64l5.87,18.56,11.52,3.2c.64.21,1.17.53,1.6,1.07s.64,1.17.64,1.92c0,.96-.43,1.81-1.17,2.35s-1.71.75-2.67.43Z"/></svg>