<?xml version="1.0" encoding="UTF-8"?><svg id="Layer_1" xmlns="http://www.w3.org/2000/svg" viewBox="0 0 40 40"><defs><style>.cls-1{fill:none;}</style></defs><rect class="cls-1" width="40" height="40"/><path d="m14.9,39.77c-.4.1-.7.1-1-.1-.3-.2-.4-.5-.4-.9,0-.2.1-.4.1-.6.1-.2.2-.4.4-.5l3.4-2.6v-12.5L1.8,27.07c-.5.2-.9.1-1.3-.1-.3-.3-.5-.7-.5-1.3,0-.3.1-.5.2-.8.2-.3.3-.5.6-.6l16.7-9.8V2.67c0-.7.2-1.3.7-1.8s1.1-.7,1.8-.7,1.3.2,1.8.7.7,1.1.7,1.8v11.8l16.7,9.8c.2.1.4.3.6.6.1.3.2.6.2.9,0,.5-.2.9-.5,1.2-.4.3-.8.3-1.3.1l-15.7-4.6v12.6l3.5,2.6c.2.1.3.3.4.5s.1.4.1.6c0,.4-.1.7-.4.9s-.6.2-1,.1l-5.1-1.4-5.1,1.4Z"/></svg>