<?xml version="1.0" encoding="UTF-8"?><svg id="Layer_1" xmlns="http://www.w3.org/2000/svg" viewBox="0 0 40 40"><defs><style>.cls-1{fill:none;}</style></defs><rect class="cls-1" width="40" height="40"/><path d="m38.22,26.57l-10.96-3.36-9.48-9.38V2.47c0-.69.2-1.28.69-1.78s1.09-.69,1.78-.69,1.28.2,1.78.69.69,1.09.69,1.78v11.65l16.49,9.68c.2.1.4.3.59.59.1.3.2.59.2.89,0,.49-.2.89-.49,1.19-.4.3-.79.3-1.28.1Zm-2.96,13.14l-12.54-12.64v7.31l3.46,2.57c.2.1.3.3.4.49s.1.4.1.59c0,.4-.1.59-.4.79s-.59.2-.99.2l-5.04-1.48-5.04,1.48c-.4.1-.69.1-.99-.1-.3-.2-.4-.49-.4-.89,0-.2.1-.4.1-.59.1-.2.2-.4.4-.49l3.36-2.57v-12.25l-15.41,4.44c-.49.2-.89.1-1.28-.1-.3-.3-.49-.69-.49-1.28,0-.3.1-.49.2-.79.2-.3.3-.49.59-.59l11.36-6.72L.4,4.64c-.3-.3-.4-.59-.4-.99s.1-.79.4-.99c.3-.3.59-.49.99-.49s.79.1,1.09.4l34.96,34.96c.3.3.4.69.4,1.09s-.1.79-.4.99c-.3.3-.59.4-1.09.4s-.79-.1-1.09-.3Z"/></svg>