<?xml version="1.0" encoding="UTF-8"?><svg id="Layer_1" xmlns="http://www.w3.org/2000/svg" viewBox="0 0 40 40"><defs><style>.cls-1{fill:none;}</style></defs><rect class="cls-1" width="40" height="40"/><path d="m16.86,27.38l10.07-6.48c.4-.2.6-.5.6-.9s-.2-.7-.6-1l-10.07-6.38c-.4-.3-.8-.3-1.1-.1s-.6.6-.6,1v12.87c0,.5.2.8.6,1s.7.3,1.1,0Zm3.09,12.57c-2.69,0-5.29-.5-7.78-1.6s-4.59-2.49-6.38-4.29-3.19-3.89-4.29-6.38-1.5-4.99-1.5-7.68.5-5.39,1.6-7.78,2.49-4.49,4.29-6.28,3.89-3.19,6.38-4.29S17.26.05,19.95.05s5.39.5,7.78,1.6c2.39,1.1,4.59,2.49,6.38,4.29s3.19,3.89,4.29,6.28c1.1,2.39,1.6,4.99,1.6,7.78s-.5,5.29-1.6,7.78c-1,2.39-2.49,4.59-4.29,6.38s-3.89,3.19-6.38,4.29-4.99,1.5-7.78,1.5Zm0-2.99c4.69,0,8.78-1.7,11.97-4.99,3.29-3.29,4.99-7.28,4.99-11.97s-1.6-8.78-4.99-12.07c-3.29-3.29-7.28-4.99-11.97-4.99s-8.68,1.7-11.97,4.99-4.99,7.38-4.99,12.07,1.7,8.68,4.99,11.97,7.28,4.99,11.97,4.99Z"/></svg>