<?xml version="1.0" encoding="UTF-8"?><svg id="Layer_1" xmlns="http://www.w3.org/2000/svg" viewBox="0 0 40 40"><defs><style>.cls-1{fill:none;}</style></defs><rect class="cls-1" width="40" height="40"/><path d="m32.37,10.47c-.67-.67-1.45-1-2.34-1h-2.34V1.67c0-.56-.11-.89-.45-1.23-.33-.33-.78-.45-1.23-.45s-.89.11-1.23.45-.45.78-.45,1.23v7.8h-8.69V1.67c0-.56-.11-.89-.45-1.23-.33-.33-.78-.45-1.23-.45s-.89.11-1.23.45c-.33.33-.45.78-.45,1.23v7.91h-2.34c-.89,0-1.67.33-2.34,1-.67.67-1,1.45-1,2.34v10.7c0,.45.11.89.22,1.23.11.33.33.67.67,1l7.02,7.69v4.79c0,.56.11.89.45,1.23.33.33.78.45,1.23.45h7.58c.56,0,.89-.11,1.23-.45.33-.33.45-.78.45-1.23v-4.9l7.02-7.69c.33-.33.56-.67.67-1,.11-.45.22-.78.22-1.23v-10.7c0-.89-.33-1.67-1-2.34Zm-2.34,13.04l-7.91,8.69v4.57h-4.23v-4.57l-7.91-8.69v-10.7h20.06v10.7Z"/></svg>