<?xml version="1.0" encoding="UTF-8"?><svg id="Layer_1" xmlns="http://www.w3.org/2000/svg" viewBox="0 0 40 40"><defs><style>.cls-1{fill:none;}</style></defs><rect class="cls-1" width="40" height="40"/><path d="m20,40c-.54,0-.89-.18-1.25-.54s-.54-.71-.54-1.25v-16.43H1.79c-.54,0-.89-.18-1.25-.54-.36-.36-.54-.89-.54-1.43s.18-.89.54-1.25c.36-.18.71-.36,1.25-.36h16.43V1.79c0-.54.18-.89.54-1.25.36-.36.89-.54,1.43-.54s.89.18,1.25.54c.18.36.36.71.36,1.25v16.43h16.43c.54,0,.89.18,1.25.54.36.36.54.89.54,1.43s-.18.89-.54,1.25c-.36.36-.71.54-1.25.54h-16.43v16.43c0,.54-.18.89-.54,1.25-.36.18-.71.36-1.25.36Z"/></svg>