<?xml version="1.0" encoding="UTF-8"?><svg id="Layer_1" xmlns="http://www.w3.org/2000/svg" viewBox="0 0 40 40"><defs><style>.cls-1{fill:none;}</style></defs><rect class="cls-1" width="40" height="40"/><path d="m5.32,33.54c-1.65-1.77-2.91-3.92-3.92-6.2-1.01-2.28-1.39-4.68-1.39-7.34s.51-5.32,1.52-7.85c1.01-2.41,2.53-4.56,4.3-6.33,1.77-1.77,3.92-3.29,6.33-4.3S17.22,0,20,0s5.32.51,7.85,1.52c2.41,1.01,4.56,2.53,6.33,4.3,1.77,1.77,3.29,3.92,4.3,6.33,1.01,2.41,1.52,5.06,1.52,7.85s-.51,5.06-1.39,7.47c-.89,2.28-2.28,4.3-3.92,6.2-.25.25-.51.38-.89.38s-.63-.13-1.01-.38c-.25-.25-.38-.51-.38-.89s.13-.76.38-1.01c1.39-1.52,2.53-3.29,3.29-5.32s1.14-4.18,1.14-6.46c0-4.81-1.65-8.99-5.06-12.28-3.42-3.42-7.47-5.06-12.28-5.06s-8.99,1.65-12.28,5.06c-3.42,3.42-5.06,7.47-5.06,12.28,0,2.28.38,4.43,1.27,6.46.76,2.03,1.9,3.8,3.29,5.32.25.25.38.63.38,1.01s-.13.63-.38.89c-.25.25-.51.38-.89.25-.38,0-.63-.13-.89-.38Zm5.95-5.95c-.89-1.01-1.52-2.15-2.03-3.42-.51-1.27-.76-2.66-.76-4.18,0-3.16,1.14-5.95,3.42-8.23s4.94-3.42,8.23-3.42,5.95,1.14,8.23,3.42,3.42,4.94,3.42,8.23c0,1.52-.25,2.91-.76,4.18s-1.14,2.41-2.03,3.42c-.25.25-.51.38-.89.38s-.76-.13-1.01-.38-.38-.51-.38-.89.13-.63.38-1.01c.63-.76,1.14-1.65,1.52-2.66.38-1.01.51-2.03.51-3.04,0-2.53-.89-4.56-2.66-6.33s-3.8-2.66-6.33-2.66-4.56.89-6.33,2.66c-1.77,1.77-2.66,3.8-2.66,6.33,0,1.14.13,2.15.51,3.04.38,1.01.89,1.9,1.52,2.66.25.38.38.63.38,1.01s-.13.63-.38.89-.63.38-1.01.38-.63-.13-.89-.38Zm8.73,12.41c-.38,0-.76-.13-.89-.38-.25-.25-.38-.51-.38-.89v-15.95c-.51-.25-1.01-.63-1.39-1.14-.38-.51-.51-1.01-.51-1.65,0-.89.25-1.65.89-2.28s1.39-.89,2.28-.89,1.65.25,2.28.89.89,1.39.89,2.28c0,.63-.13,1.14-.51,1.65s-.76.89-1.39,1.14v15.82c0,.38-.13.76-.38.89-.13.38-.51.51-.89.51Z"/></svg>