<?xml version="1.0" encoding="UTF-8"?>
<svg id="Capa_1" data-name="Capa 1" xmlns="http://www.w3.org/2000/svg" viewBox="0 0 40 40">
  <defs>
    <style>
      .cls-1 {
        fill: none;
      }
    </style>
  </defs>
  <rect class="cls-1" x="0" width="40" height="40"/>
  <path d="m10.68,19.6c-.42,0-.77.14-1.05.42-.28.28-.42.63-.42,1.05v8.37c0,.42.14.77.43,1.05.28.28.64.42,1.06.42s.77-.14,1.05-.42c.28-.28.42-.63.42-1.05v-8.37c0-.42-.14-.77-.43-1.05-.28-.28-.64-.42-1.06-.42ZM29.31,7.41c-.42,0-.77.14-1.05.42-.28.28-.42.63-.42,1.05v20.56c0,.42.14.77.43,1.05.28.28.64.42,1.06.42s.77-.14,1.05-.42c.28-.28.42-.63.42-1.05V8.89c0-.42-.14-.77-.43-1.05-.28-.28-.64-.42-1.06-.42Zm-9.32,17.09c-.42,0-.77.14-1.05.43-.28.29-.42.64-.42,1.05v3.47c0,.42.14.77.43,1.05.28.28.64.42,1.06.42s.77-.14,1.05-.42c.28-.28.42-.63.42-1.05v-3.47c0-.41-.14-.76-.43-1.05-.28-.29-.64-.43-1.06-.43ZM3.68,39.66c-1.01,0-1.88-.36-2.6-1.08s-1.08-1.59-1.08-2.6V3.34C0,2.33.36,1.47,1.08.74S2.67-.34,3.68-.34h32.64c1.01,0,1.88.36,2.6,1.08s1.08,1.59,1.08,2.6v32.64c0,1.01-.36,1.88-1.08,2.6s-1.59,1.08-2.6,1.08H3.68Zm0-2.96h32.64c.18,0,.35-.08.5-.23.15-.15.23-.32.23-.5V3.34c0-.18-.08-.35-.23-.5-.15-.15-.32-.23-.5-.23H3.68c-.18,0-.35.08-.5.23-.15.15-.23.32-.23.5v32.64c0,.18.08.35.23.5.15.15.32.23.5.23ZM2.96,2.62v34.09V2.62Zm17.05,16.39c.42,0,.77-.14,1.05-.43.28-.28.42-.64.42-1.06s-.14-.77-.43-1.05c-.28-.28-.64-.42-1.06-.42s-.77.14-1.05.43c-.28.28-.42.64-.42,1.06,0,.42.14.77.43,1.05.28.28.64.42,1.06.42Z"/>
</svg>