<?xml version="1.0" encoding="UTF-8"?><svg id="Layer_1" xmlns="http://www.w3.org/2000/svg" viewBox="0 0 40 40"><defs><style>.cls-1{fill:none;}</style></defs><rect class="cls-1" width="40" height="40"/><path d="m29.96,15.19c.42,0,.71-.14.99-.42.28-.28.42-.71.42-.99,0-.42-.14-.71-.42-.99-.28-.28-.57-.42-.99-.42h-9.19c-.42,0-.71.14-.99.42s-.42.71-.42,1.13.14.71.42.99c.28.28.57.42.99.42h9.19v-.14Zm0,12.58c.42,0,.71-.14.99-.42.28-.28.42-.71.42-.99,0-.42-.14-.71-.42-.99-.28-.28-.57-.42-.99-.42h-9.19c-.42,0-.71.14-.99.42-.28.28-.42.71-.42.99,0,.42.14.71.42.99.28.28.57.42.99.42h9.19Zm-17.24-11.17c.85,0,1.55-.28,2.12-.85.57-.57.85-1.27.85-2.12s-.28-1.55-.85-2.12-1.27-.85-2.12-.85-1.55.28-2.12.85c-.57.57-.85,1.27-.85,2.12s.28,1.55.85,2.12,1.27.85,2.12.85Zm0,12.72c.85,0,1.55-.28,2.12-.85.57-.57.85-1.27.85-2.12s-.28-1.55-.85-2.12-1.27-.85-2.12-.85-1.55.28-2.12.85-.85,1.27-.85,2.12.28,1.55.85,2.12,1.27.85,2.12.85Zm-9.05,10.74c-.99,0-1.84-.42-2.54-1.13s-1.13-1.55-1.13-2.54V3.6c0-.99.42-1.84,1.13-2.54S2.69-.07,3.67-.07h32.65c.99,0,1.84.42,2.54,1.13s1.13,1.55,1.13,2.54v32.65c0,.99-.42,1.84-1.13,2.54s-1.55,1.13-2.54,1.13H3.67v.14Zm0-2.97h32.65c.14,0,.28-.14.57-.28.14-.14.28-.28.28-.57V3.6c0-.14-.14-.28-.28-.57-.14-.14-.28-.28-.57-.28H3.67c-.14.14-.28.28-.42.42-.14.14-.28.28-.28.42v32.65c0,.14.14.28.28.57.14.14.28.28.42.28ZM2.97,2.9v34.06V2.9Z"/></svg>