<?xml version="1.0" encoding="UTF-8"?><svg id="Layer_1" xmlns="http://www.w3.org/2000/svg" viewBox="0 0 40 40"><defs><style>.cls-1{fill:none;}</style></defs><rect class="cls-1" width="40" height="40"/><path d="m3.03,35.07c2.25-2.11,4.79-3.8,7.61-5.07s6.06-1.97,9.3-1.97,6.48.7,9.3,1.97,5.49,2.96,7.61,5.07V3.66c0-.14-.14-.28-.28-.56-.14-.14-.28-.28-.56-.28H3.73c-.14.14-.28.28-.42.42-.14.14-.28.28-.28.42v31.41Zm17.04-12.11c2.11,0,3.94-.7,5.35-2.25,1.41-1.41,2.25-3.24,2.25-5.35s-.7-3.94-2.25-5.35c-1.41-1.41-3.24-2.25-5.35-2.25s-3.94.7-5.35,2.25c-1.41,1.41-2.25,3.24-2.25,5.35s.7,3.94,2.25,5.35c1.55,1.55,3.24,2.25,5.35,2.25ZM3.73,40c-.99,0-1.83-.42-2.54-1.13s-1.13-1.55-1.13-2.54V3.66C.07,2.68.49,1.83,1.2,1.13S2.75,0,3.73,0h32.54c.99,0,1.83.42,2.54,1.13s1.13,1.55,1.13,2.54v32.54c0,.99-.42,1.83-1.13,2.54s-1.55,1.13-2.54,1.13H3.73v.14Zm1.97-2.96h28.73v-.42c-2.11-1.83-4.37-3.24-6.76-4.23-2.39-.99-4.93-1.41-7.61-1.41-2.54,0-5.07.42-7.61,1.41-2.39.99-4.65,2.25-6.76,4.08,0,0,0,.56,0,.56Zm14.37-17.04c-1.27,0-2.39-.42-3.24-1.41-.85-.85-1.41-1.97-1.41-3.24s.42-2.39,1.41-3.24c.85-.85,1.97-1.41,3.24-1.41s2.39.42,3.24,1.41c.85.85,1.41,1.97,1.41,3.24s-.42,2.39-1.41,3.24c-.85.99-1.97,1.41-3.24,1.41Z"/></svg>