<?xml version="1.0" encoding="UTF-8"?>
<svg id="Capa_1" data-name="Capa 1" xmlns="http://www.w3.org/2000/svg" viewBox="0 0 40 40">
  <defs>
    <style>
      .cls-1 {
        fill: none;
      }
    </style>
  </defs>
  <rect class="cls-1" x="0" width="40" height="40"/>
  <path d="m8.51,40c-.48,0-.88-.16-1.2-.48-.32-.32-.48-.72-.48-1.2v-.69c0-.28.06-.53.19-.77.13-.23.29-.44.49-.62,1.56-1.27,2.87-2.54,3.94-3.83,1.07-1.29,1.6-3.02,1.6-5.2,0-.54-.03-1.04-.09-1.52-.06-.47-.16-.95-.28-1.44h-4.41c-.41,0-.76-.14-1.03-.41s-.41-.61-.41-1.03.14-.76.41-1.03c.27-.27.61-.41,1.03-.41h2.82c-1.34-1.7-2.33-3.31-2.99-4.83-.66-1.52-.99-3.13-.99-4.82,0-3.27,1.14-6.04,3.41-8.31C12.79,1.14,15.56,0,18.83,0c2.12,0,4.05.49,5.79,1.46,1.74.97,3.15,2.27,4.22,3.9.19.33.22.67.08,1.02-.14.35-.38.61-.73.77-.35.15-.71.17-1.07.05-.36-.12-.67-.34-.92-.67-.82-1.12-1.88-2.01-3.17-2.67-1.29-.66-2.69-.99-4.19-.99-2.44,0-4.53.86-6.26,2.58-1.73,1.72-2.59,3.81-2.59,6.27,0,1.58.37,3.06,1.11,4.45s1.92,3.12,3.54,5.2h7.91c.41,0,.76.14,1.03.41.27.27.41.61.41,1.03s-.14.76-.41,1.03c-.27.27-.61.41-1.03.41h-6.91c.12.47.2.96.24,1.45.04.5.06,1,.06,1.5,0,1.97-.46,3.8-1.37,5.49-.91,1.7-2.08,3.17-3.5,4.43h13.49c1.44,0,2.66-.33,3.68-.98,1.02-.65,1.75-1.64,2.19-2.98.1-.33.26-.6.5-.81.24-.21.53-.32.88-.32.38,0,.71.14.98.41.27.27.4.59.4.97,0,1.98-1.02,3.57-3.05,4.77-2.03,1.2-3.89,1.8-5.58,1.8,0,0-16.04,0-16.04,0Z"/>
</svg>