<?xml version="1.0" encoding="UTF-8"?><svg id="Layer_1" xmlns="http://www.w3.org/2000/svg" viewBox="0 0 40 40"><defs><style>.cls-1{fill:none;}</style></defs><rect class="cls-1" width="40" height="40"/><path d="m19.93,22.46c-.42,0-.7-.14-.98-.42-.28-.28-.42-.56-.42-.98V1.4c0-.42.14-.7.42-.98C19.23.14,19.65,0,20.07,0s.7.14.98.42c.14.14.28.56.28.98v19.65c0,.42-.14.7-.42.98-.28.28-.56.42-.98.42Zm0,17.54c-2.81,0-5.33-.56-7.72-1.54s-4.49-2.53-6.32-4.21c-1.82-1.82-3.23-3.93-4.21-6.32-1.12-2.53-1.68-5.05-1.68-7.86s.56-5.19,1.54-7.58c1.12-2.39,2.53-4.63,4.49-6.46.28-.28.7-.42,1.12-.42s.84.14,1.12.42.42.56.42.98-.14.7-.56,1.12c-1.68,1.54-2.95,3.37-3.79,5.47s-1.26,4.21-1.26,6.6c0,4.77,1.68,8.7,4.91,12.07,3.23,3.23,7.3,4.91,12.07,4.91s8.7-1.68,12.07-4.91c3.23-3.23,4.91-7.3,4.91-12.07,0-2.25-.42-4.49-1.26-6.6s-2.11-3.93-3.79-5.47c-.28-.28-.42-.7-.56-.98,0-.42.14-.7.42-.98.28-.28.7-.42,1.12-.42s.84.14,1.12.56c1.96,1.82,3.37,4.07,4.35,6.46.98,2.39,1.54,4.91,1.54,7.58,0,2.81-.56,5.33-1.54,7.72-.98,2.39-2.53,4.49-4.21,6.32-1.82,1.82-3.93,3.23-6.32,4.21-2.67.84-5.19,1.4-8,1.4Z"/></svg>