<?xml version="1.0" encoding="UTF-8"?><svg id="Layer_1" xmlns="http://www.w3.org/2000/svg" viewBox="0 0 40 40"><defs><style>.cls-1{fill:none;}</style></defs><rect class="cls-1" width="40" height="40"/><path d="m30.03,21.93v4.86c0,.37-.12.75-.37.87-.25.25-.5.37-1,.37-.37,0-.75-.12-.87-.37-.25-.25-.37-.5-.37-.87v-4.24l-2.37-4.36c-.62.12-1.25.37-1.62.87-.5.5-.62,1.12-.62,1.74v11.34l4.74,7.85h-2.99l-4.49-7.1v-12.09c0-1.12.37-2.24,1-3.12s1.5-1.5,2.62-1.87l-3.36-6.36c-.62-1.25-.87-2.49-.87-3.86.12-1.37.62-2.49,1.5-3.49l1.62-1.62C22.93.12,23.3,0,23.8,0s.87.25,1.12.62l11.96,14.08c.25.25.37.5.5.87.12.25.25.62.25,1l1.99,23.43h-2.62l-1.87-23.43L23.8,3.12l-.87,1c-.5.5-.75,1.12-.87,1.74-.12.62,0,1.37.37,1.87-.12,0,7.6,14.21,7.6,14.21Zm-19.94,0l7.73-14.21c.37-.62.5-1.25.37-1.87s-.37-1.25-.87-1.74l-1-1-11.34,13.46-1.99,23.43H.37l1.99-23.43c0-.37.12-.62.25-1,.12-.25.25-.62.5-.87L15.08.62c.25-.37.75-.62,1.12-.62.5,0,.87.12,1.25.5l1.62,1.62c1,1,1.5,2.12,1.5,3.49.12,1.37-.25,2.62-.87,3.86l-3.49,6.36c1.12.37,1.99,1,2.62,1.87s1,1.99,1,3.12v12.09l-4.36,7.1h-2.99l4.74-7.85v-11.34c0-.62-.25-1.25-.62-1.74-.5-.5-1-.75-1.62-.87l-2.37,4.36v4.24c0,.37-.12.75-.37.87-.25.25-.5.37-1,.37-.37,0-.75-.12-.87-.37-.25-.25-.37-.5-.37-.87.12,0,.12-4.86.12-4.86Z"/></svg>