<?xml version="1.0" encoding="UTF-8"?><svg id="Layer_1" xmlns="http://www.w3.org/2000/svg" viewBox="0 0 40 40"><defs><style>.cls-1{fill:none;}</style></defs><rect class="cls-1" x="0" y="0" width="40" height="40"/><path d="m19.93,31.46c.57,0,1-.14,1.28-.57.43-.43.57-.85.57-1.42v-4.27h4.41c.57,0,1-.14,1.42-.57s.57-.85.57-1.42-.14-1-.57-1.42-.85-.57-1.42-.57h-4.41v-4.13c0-.57-.14-1-.57-1.28s-.85-.57-1.42-.57-1,.14-1.42.57-.57.85-.57,1.28v4.27h-4.41c-.57,0-1,.14-1.42.57s-.57.85-.57,1.42.14,1,.57,1.42c.43.43.85.57,1.42.57h4.41v4.41c0,.57.14,1,.57,1.28.57.28,1,.43,1.57.43Zm-11.67,8.54c-1,0-1.85-.43-2.56-1.14s-1.14-1.57-1.14-2.56V10.53c0-1,.43-1.85,1.14-2.56s1.57-1.14,2.56-1.14h23.49c1,0,1.85.43,2.56,1.14s1.14,1.57,1.14,2.56v25.91c0,1-.43,1.85-1.14,2.56s-1.57,1-2.56,1c0,0-23.49,0-23.49,0Zm0-2.85h23.49c.14,0,.28-.14.57-.28.14-.14.28-.28.28-.57V10.53c0-.14-.14-.28-.28-.57-.14-.14-.28-.28-.57-.28H8.26c-.14,0-.28.14-.57.28-.14.14-.28.28-.28.57v25.91c0,.14.14.43.28.57.14,0,.28.14.57.14ZM7.69,2.85c-.43,0-.71-.14-1-.43-.28-.28-.43-.71-.43-1,0-.43.14-.71.43-1s.57-.43,1-.43h24.48c.43,0,.71.14,1,.43.28.28.43.71.43,1.14s-.14.71-.43,1c-.28.14-.57.28-1,.28H7.69Zm-.14,6.83v27.33c0,.14,0-27.33,0-27.33Z"/></svg>