<?xml version="1.0" encoding="UTF-8"?><svg id="Layer_1" xmlns="http://www.w3.org/2000/svg" viewBox="0 0 40 40"><defs><style>.cls-1{fill:none;}</style></defs><rect class="cls-1" width="40" height="40"/><path d="m3.25,5.54c-.36,0-.72-.12-.96-.36-.24-.24-.36-.48-.36-.84s.12-.6.36-.84c.24-.36.6-.48.96-.48h19.52c.36,0,.6.12.84.36.24.24.36.6.36.96s-.12.6-.36.84c-.24.24-.48.36-.84.36H3.25Zm9.76,24.7c.6,0,1.2-.24,1.69-.72s.72-1.08.72-1.69v-2.65h2.65c.6,0,1.2-.24,1.69-.72s.72-1.08.72-1.69-.24-1.2-.72-1.69-1.08-.72-1.69-.72h-2.65v-2.65c0-.6-.24-1.2-.72-1.69s-1.08-.72-1.69-.72-1.2.24-1.69.72-.72,1.08-.72,1.69v2.65h-2.65c-.6,0-1.2.24-1.69.72s-.72,1.08-.72,1.69.24,1.2.72,1.69c.48.48,1.08.72,1.69.72h2.65v2.65c0,.6.24,1.2.72,1.69.48.48,1.08.72,1.69.72Zm-9.88,6.75c-.84,0-1.57-.36-2.17-.96s-.96-1.33-.96-2.17V11.93c0-.84.36-1.57.96-2.17s1.33-.96,2.17-.96h19.88c.84,0,1.57.36,2.17.96s.96,1.33.96,2.17v21.81c0,.84-.36,1.57-.96,2.17s-1.33.96-2.17.96H3.13v.12Zm0-2.53h19.88c.12,0,.36,0,.48-.12s.12-.24.12-.48V11.93c0-.12,0-.36-.12-.48-.12-.12-.24-.12-.48-.12H3.13c-.12,0-.36,0-.48.12s-.12.24-.12.48v21.81c0,.12,0,.36.12.48s.24.24.48.24Zm31.45,2.53c-.36,0-.6-.12-.84-.36s-.36-.6-.36-.84v-12.65c-1.2-.6-2.17-1.45-2.89-2.65s-1.08-2.65-1.08-4.34c0-2.05.48-3.73,1.57-5.18.96-1.45,2.29-2.05,3.73-2.05s2.77.72,3.73,2.05c.96,1.45,1.57,3.13,1.57,5.18,0,1.69-.36,3.13-1.08,4.34-.72,1.2-1.69,2.17-2.89,2.65v12.53c0,.36-.12.6-.36.84-.36.36-.72.48-1.08.48Zm0-16.14c.6,0,1.2-.48,1.81-1.33s.96-2.05.96-3.49-.36-2.65-.96-3.49-1.2-1.33-1.81-1.33-1.2.48-1.81,1.33c-.6.84-.96,2.05-.96,3.49s.36,2.65.96,3.49c.72.96,1.33,1.33,1.81,1.33Z"/></svg>