<?xml version="1.0" encoding="UTF-8"?><svg id="Layer_1" xmlns="http://www.w3.org/2000/svg" viewBox="0 0 40 40"><defs><style>.cls-1{fill:none;}</style></defs><rect class="cls-1" x="0" y="0" width="40" height="40"/><path d="m27.89,36.73l2.59-2.7-4.39-4.39-2.7,2.59c-.68.68-.9,1.35-.9,2.25s.34,1.58.9,2.25c.68.56,1.35.9,2.25.9.9.11,1.69-.23,2.25-.9Zm4.28-4.28l2.7-2.59c.68-.68.9-1.35.9-2.25s-.34-1.58-1.01-2.25c-.68-.56-1.35-.9-2.25-.9-.79,0-1.58.34-2.25.9l-2.59,2.7c.11,0,4.51,4.39,4.51,4.39Zm-2.59,5.97c-1.13,1.13-2.37,1.58-3.94,1.58-1.46,0-2.82-.56-3.94-1.58-1.13-1.13-1.58-2.37-1.58-3.94,0-1.46.56-2.82,1.58-3.94l6.99-6.99c1.13-1.13,2.37-1.58,3.94-1.58s2.82.56,3.94,1.58c1.13,1.13,1.58,2.37,1.58,3.94s-.56,2.82-1.58,3.94l-6.99,6.99Zm-25.35-5.07V6.08v27.27Zm.56,2.37c-.79,0-1.46-.34-2.03-.9s-.9-1.24-.9-2.03V6.65c0-.79.34-1.46.9-2.03s1.24-.9,2.03-.9h9.24c0-1.01.34-1.92,1.13-2.59.79-.79,1.69-1.13,2.7-1.13,1.13,0,2.03.34,2.7,1.13.79.79,1.13,1.58,1.13,2.59h9.24c.79,0,1.46.34,2.03.9s.9,1.24.9,2.03v11.49c-.34-.11-.79-.11-1.13-.11-.45,0-.79,0-1.13.11V6.65c0-.11,0-.34-.11-.45-.11-.11-.23-.11-.45-.11H4.79c-.11,0-.34,0-.45.11,0,.23-.11.34-.11.45v26.03c0,.11,0,.34.11.45.11.11.23.11.45.11h11.38c0,.34-.11.79,0,1.13,0,.45,0,.79.11,1.13,0,.23-11.49.23-11.49.23ZM17.86,5.18c.45,0,.79-.11,1.13-.45s.45-.68.45-1.13-.11-.79-.45-1.13-.68-.45-1.13-.45-.79.11-1.13.45-.45.68-.45,1.13.11.79.45,1.13.68.45,1.13.45Zm-8.9,8.23v-2.37h17.8v2.37H8.96Zm0,7.44v-2.25h17.8v1.46c-.11.11-.23.23-.45.34-.11.11-.23.23-.45.34v.11H8.96Zm0,7.55v-2.37h11.72l-1.24,1.24-.56.56c-.11.23-.34.34-.45.56h-9.46Z"/></svg>