<?xml version="1.0" encoding="UTF-8"?><svg id="Layer_1" xmlns="http://www.w3.org/2000/svg" viewBox="0 0 40 40"><defs><style>.cls-1{fill:none;}</style></defs><rect class="cls-1" x="0" y="0" width="40" height="40"/><path d="m33.09,15.77c-.52,0-1.04.13-1.3.52-.39.39-.52.78-.52,1.3s.13.91.52,1.3c.26.39.78.52,1.3.52s1.04-.13,1.3-.52c.39-.39.52-.78.52-1.3s-.13-.91-.52-1.3-.78-.52-1.3-.52Z"/><path d="m31.79,3.52c0-.39-.13-.78-.52-1.17-.26-.39-.65-.52-1.17-.52H9.77c-.39,0-.91.26-1.17.52-.39.26-.52.65-.52,1.17v7.82h2.74v-6.78h18.24v6.91s2.74,0,2.74-.13V3.52Z"/><path d="m38.57,12.9c-1.04-.91-2.21-1.43-3.65-1.43H5.08c-1.43,0-2.74.52-3.65,1.43C.52,13.94,0,15.11,0,16.55v10.81C0,27.75.26,28.27.52,28.53c.26.39.65.52,1.17.52h6.38v5.73c0,.91.39,1.69,1.04,2.35.65.65,1.43,1.04,2.35,1.04h17.07c.91,0,1.69-.39,2.35-1.04.65-.65,1.04-1.43,1.04-2.35v-5.73h6.38c.39,0,.91-.26,1.17-.52.39-.26.52-.65.52-1.17v-10.81c0-1.43-.52-2.74-1.43-3.65Zm-9.51,21.89c0,.26,0,.39-.13.52s-.39.13-.52.13H11.47c-.26,0-.39-.13-.52-.13-.13-.13-.13-.39-.13-.52v-9.51h18.24v9.51Zm8.21-8.47h-5.6v-3.78H7.95v3.78H2.61v-9.77c0-.65.26-1.3.65-1.69.52-.39,1.04-.65,1.69-.65h29.97c.65,0,1.3.26,1.69.65.39.52.65,1.04.65,1.69v9.77Z"/></svg>