<?xml version="1.0" encoding="UTF-8"?><svg id="Layer_1" xmlns="http://www.w3.org/2000/svg" viewBox="0 0 40 40"><defs><style>.cls-1{fill:none;}</style></defs><rect class="cls-1" x="0" y="0" width="40" height="40"/><path d="m33.45,17.41c-1.09,0-2.42-.36-3.64-.97-1.45-.73-2.67-1.58-3.76-2.79-1.21-1.21-2.06-2.42-2.79-3.76-.73-1.33-.97-2.55-.97-3.64,0-.48,0-.85.12-1.21s.24-.61.48-.85c.85-.85,2.42-1.45,4.97-2.06,2.42-.61,4.97-.85,7.39-.73.61,0,1.09.12,1.58.24.36.12.73.24.97.48.12,0,.24.24.36.61s.12.85.24,1.33c.12,2.42-.12,4.97-.73,7.52-.61,2.55-1.21,4.24-2.06,4.97-.24.24-.61.48-.97.61-.36.24-.85.24-1.21.24Zm1.58-5.94c.24-.97.48-2.06.61-3.39.12-1.21.24-2.67.24-4.24-1.45,0-2.79,0-4.12.12s-2.42.36-3.64.73c.85.48,1.58.85,2.18,1.33s1.21.97,1.82,1.45c.61.61,1.21,1.21,1.7,1.94.48.61.85,1.33,1.21,2.06Zm-1.33,3.39c-.12-.97-.48-1.82-1.09-2.79s-1.33-1.82-2.3-2.79-1.94-1.7-2.91-2.18c-.97-.61-1.82-.97-2.55-1.09,0,.97.36,1.94.97,3.03s1.21,2.06,2.06,2.79c.85.85,1.82,1.58,2.91,2.18.85.48,1.82.85,2.91.85Zm-4.12,8.12H10.67c-.48,0-.85-.12-1.21-.24s-.73-.36-.97-.73L.36,13.89c-.24-.24-.36-.48-.36-.85s.12-.61.36-.85c.24-.24.48-.36.85-.36s.61.12.85.36l8.36,8.36h18.91c.48,0,.85.12,1.21.24s.73.36.97.73l8.12,8.12c.24.24.36.48.36.85s-.12.61-.36.85-.48.36-.85.36-.61-.12-.85-.36c0,0-8.36-8.36-8.36-8.36Zm-15.27,15.64c-.48,0-.85-.12-1.09-.48-.36-.24-.48-.61-.48-1.09v-5.94c0-.85.36-1.58.97-2.18s1.33-.97,2.18-.97h8.36c.85,0,1.58.36,2.18.97s.97,1.33.97,2.18v5.94c0,.48-.12.85-.48,1.09-.24.24-.73.48-1.09.48-.12,0-11.52,0-11.52,0Zm.85-2.55h9.7v-4.97c0-.12,0-.36-.12-.48s-.24-.12-.48-.12h-8.36c-.12,0-.36,0-.48.12s-.12.24-.12.48c-.12.12-.12,4.97-.12,4.97Zm0,0v-5.58,5.58Z"/></svg>