<?xml version="1.0" encoding="UTF-8"?><svg id="Layer_1" xmlns="http://www.w3.org/2000/svg" viewBox="0 0 40 40"><defs><style>.cls-1{fill:none;}</style></defs><rect class="cls-1" x="0" y="0" width="40" height="40"/><path d="m6.91,39.89c-.57,0-1.13-.23-1.59-.68-.45-.45-.68-.91-.68-1.59v-4.76c0-.57.23-1.13.68-1.59s.91-.68,1.59-.68h2.15v-6.12h-2.15c-.57,0-1.13-.23-1.59-.68s-.68-.91-.68-1.59v-4.76c0-.57.23-1.13.68-1.59s.91-.68,1.59-.68h2.15v-6.12h-2.15c-.57,0-1.13-.23-1.59-.68-.45-.23-.68-.79-.68-1.36V2.27c0-.57.23-1.13.68-1.59.45-.45.91-.68,1.59-.68h6.69c.57,0,1.13.23,1.59.68.45.45.68.91.68,1.59v4.76c0,.57-.23,1.13-.68,1.59s-.91.68-1.59.68h-2.15v6.12h2.15c.57,0,1.13.23,1.59.68s.68.91.68,1.59v1.13h8.27v-1.25c0-.57.23-1.13.68-1.59s.91-.68,1.59-.68h6.69c.57,0,1.13.23,1.59.68s.68.91.68,1.59v4.76c0,.57-.23,1.13-.68,1.59-.45.45-.91.68-1.59.68h-6.69c-.57,0-1.13-.23-1.59-.68s-.68-.91-.68-1.59v-1.25h-8.27v1.25c0,.57-.23,1.13-.68,1.59s-.91.68-1.59.68h-2.15v6.12h2.15c.57,0,1.13.23,1.59.68s.68.91.68,1.59v4.76c0,.57-.23,1.13-.68,1.59s-.91.68-1.59.68c-.11-.11-6.69-.11-6.69-.11Zm.45-2.38h5.78q.11,0,.23-.11c0-.11.11-.11.11-.23v-3.85q0-.11-.11-.23c0-.11-.11-.11-.23-.11h-5.78q-.11,0-.23.11t-.11.23v3.85q0,.11.11.23c0,.11.11.11.23.11Zm0-15.3h5.78q.11,0,.23-.11c0-.11.11-.11.11-.23v-3.85q0-.11-.11-.23c0-.11-.11-.11-.23-.11h-5.78q-.11,0-.23.11-.11.11-.11.23v3.85q0,.11.11.23s.11.11.23.11Zm19.38,0h5.67q.11,0,.23-.11.11-.11.11-.23v-3.85q0-.11-.11-.23c-.11,0-.11-.11-.23-.11h-5.67q-.11,0-.23.11-.11.11-.11.23v3.85q0,.11.11.23s.11.11.23.11ZM7.37,6.8h5.78q.11,0,.23-.11c0-.11.11-.11.11-.23v-3.74q0-.11-.11-.23c0-.11-.11-.11-.23-.11h-5.78q-.11,0-.23.11c-.11,0-.11.11-.11.23v3.85q0,.11.11.23s.11,0,.23,0Z"/></svg>