<?xml version="1.0" encoding="UTF-8"?><svg id="Layer_1" xmlns="http://www.w3.org/2000/svg" viewBox="0 0 40 40"><defs><style>.cls-1{fill:none;}</style></defs><rect class="cls-1" x="0" y="0" width="40" height="40"/><path d="m26.65,20.43l-2.58-.98v-1.85c0-1.97-.74-3.57-1.97-4.92-1.35-1.35-2.95-1.97-4.92-1.97-1.72,0-3.2.49-4.31,1.48s-1.97,2.22-2.34,3.69h-2.71c.37-1.97,1.23-3.69,2.71-5.05,1.35-1.48,3.2-2.34,5.42-2.71V2.46h-1.85c-.37,0-.62-.12-.86-.37-.25-.25-.37-.62-.37-.86,0-.37.12-.62.37-.86.12-.25.49-.37.86-.37h9.23c.62,0,1.11,0,1.6.12s1.11.25,1.6.49c.37.12.74.49.74.86.12.37,0,.74-.37,1.11-.12.25-.37.37-.74.37-.25.12-.62,0-.86,0-.37-.12-.74-.25-1.11-.25-.12-.12-.49-.25-.86-.25h-4.92v5.66c2.46.37,4.43,1.48,5.91,3.32,1.48,1.85,2.22,3.82,2.22,6.15v2.83h.12Zm-1.85,16.98h.25l12.31-3.82c-.12-.49-.37-.86-.62-1.23-.37-.37-.74-.49-1.11-.49h-10.95c-.49,0-.98,0-1.6-.12s-1.23-.25-1.85-.49l-3.45-1.11c-.37-.12-.62-.37-.74-.74s-.25-.74-.12-.98c.12-.37.37-.62.62-.74.37-.12.62-.12.98,0l3.94,1.35c.25.12.74.12,1.48.25h3.2c0-.49-.12-.98-.25-1.35-.25-.37-.49-.62-.86-.86l-12.18-4.55h-4.55v10.46c.12-.12,15.51,4.43,15.51,4.43Zm-.62,2.46l-14.89-4.31c-.12.86-.49,1.6-1.23,2.09s-1.35.74-1.97.74h-3.2c-.86,0-1.6-.37-2.22-.98s-.98-1.35-.98-2.22v-12.06c0-.86.37-1.6.98-2.22s1.35-.98,2.22-.98h11.32c.25,0,.37.12.49.12l12.18,4.55c.86.25,1.6.86,2.09,1.6.62.74.86,1.72.86,3.08h6.03c1.35,0,2.46.49,3.2,1.35.86.86,1.23,2.09,1.23,3.57,0,.37-.12.74-.25.98-.25.25-.49.49-.86.62l-13.05,4.06c-.25.12-.62.12-.86.12-.49,0-.74-.12-1.11-.12h0Zm-21.91-4.68c0,.12,0,.37.12.49.25,0,.37.12.49.12h3.2c.12,0,.37,0,.49-.12s.12-.25.12-.49v-12.8h-3.82c-.12,0-.37,0-.49.12s-.12.25-.12.49v12.18ZM34.52,13.78c-.98,0-1.72-.37-2.34-.98s-.98-1.48-.98-2.46c0-.62.25-1.35.62-2.34.37-.98,1.11-2.09,2.09-3.57,0-.12.25-.25.74-.37,0,0,.25.12.74.37.98,1.48,1.6,2.58,2.09,3.57.37.98.62,1.72.62,2.34,0,.98-.37,1.72-.98,2.46-.86.74-1.72.98-2.58.98Z"/></svg>