<?xml version="1.0" encoding="UTF-8"?><svg id="Layer_1" xmlns="http://www.w3.org/2000/svg" viewBox="0 0 40 40"><defs><style>.cls-1{fill:none;}</style></defs><rect class="cls-1" x="0" y="0" width="40" height="40"/><path d="m28.12,11.3c-.65,0-1.3-.26-1.82-.78-.39-.52-.65-1.04-.65-1.82,0-.39.13-.78.39-1.43.26-.52.65-1.17,1.17-1.82.13-.13.26-.39.52-.39.13-.13.39-.13.52-.13s.39,0,.52.13.39.26.52.39c.52.65.91,1.3,1.17,1.82.26.52.39,1.04.39,1.43,0,.65-.26,1.3-.78,1.82s-1.17.78-1.95.78Zm5.45,14.03c-1.17,0-2.21-.39-3.12-1.3-.91-.91-1.3-1.95-1.3-3.12,0-.91.26-1.82.91-2.99s1.3-2.34,2.21-3.51c.13-.26.39-.39.65-.52.26-.13.39-.13.65-.13s.52,0,.65.13c.26.13.39.26.52.52.91,1.17,1.56,2.34,2.21,3.51s.91,2.21.91,2.99c0,1.17-.39,2.21-1.3,3.12-.78.91-1.82,1.3-2.99,1.3Zm-19.87,6.36c.39,0,.65-.13.91-.39.26-.26.39-.52.39-.91v-2.99h2.99c.39,0,.65-.13.91-.39.26-.26.39-.65.39-1.04s-.13-.65-.39-.91c-.26-.26-.52-.39-.91-.39h-2.99v-2.99c0-.39-.13-.65-.39-.91-.26-.26-.65-.39-.91-.39-.39,0-.65.13-.91.39-.26.26-.39.52-.39.91v2.99h-2.99c-.39,0-.65.13-.91.39-.26.26-.39.65-.39.91,0,.39.13.65.39.91s.52.39.91.39h2.99v2.99c0,.39.13.65.39.91.13.39.52.52.91.52Zm-8.18,8.18c-.91,0-1.69-.39-2.34-1.04s-1.04-1.43-1.04-2.34v-16.88c0-2.99.91-5.45,2.86-7.66s4.42-3.51,7.27-3.9V2.6h-2.99c-.39,0-.65-.13-.91-.39-.26-.26-.39-.65-.39-.91,0-.39.13-.65.39-.91s.52-.39.91-.39h10.52c.52,0,1.04,0,1.56.13.52.13,1.04.26,1.43.39.52.13.78.52,1.04,1.04.13.52,0,.91-.26,1.3-.26,0-.52.13-.78.13s-.65,0-.91-.13-.65-.26-1.04-.26c-.39-.13-.78-.13-1.17-.13h-4.81v5.71c2.99.39,5.32,1.69,7.27,3.9s2.86,4.68,2.86,7.66v16.88c0,.91-.39,1.69-1.04,2.34s-1.43,1.04-2.34,1.04c.13-.13-16.1-.13-16.1-.13Zm0-2.73h16.23c.13,0,.39,0,.52-.13s.13-.26.13-.52v-16.88c0-2.47-.91-4.55-2.6-6.23s-3.77-2.6-6.23-2.6-4.55.91-6.23,2.6-2.6,3.77-2.6,6.23v16.88c0,.13,0,.39.13.52.26,0,.39.13.65.13Zm0,0h-.78,17.66H5.52Z"/></svg>