<?xml version="1.0" encoding="UTF-8"?><svg id="Layer_1" xmlns="http://www.w3.org/2000/svg" viewBox="0 0 40 40"><defs><style>.cls-1{fill:none;}</style></defs><rect class="cls-1" x="0" y="0" width="40" height="40"/><path d="m37.13,7.07l-8.77-.75,1.25-3.01c.88-2.13-1-3.63-2.63-3.26L2.68,3.94c-1.38.25-2.38,1.63-1.88,3.26l9.4,31.2c.63,1.88,3.26,2.13,4.26.63l3.13-7.27,21.05-20.67c1.5-1.5.38-3.76-1.5-4.01ZM27.36,1.94c.5-.13.63.25.5.63l-1.63,3.51-15.91-1.38L27.36,1.94ZM2.68,6.7c-.25-.38.13-.88.5-.75l22.3,2-8.65,20.67L2.68,6.7Zm10.15,31.2c-.25.38-.75.25-.88-.13L4.56,13.21l11.4,17.67c-.63,1.38-3.13,7.02-3.13,7.02Zm24.43-28.07l-17.79,17.54,8.02-19.17,9.52.88c.38,0,.5.38.25.75Z"/></svg>