<?xml version="1.0" encoding="UTF-8"?><svg id="Layer_1" xmlns="http://www.w3.org/2000/svg" viewBox="0 0 40 40"><defs><style>.cls-1{fill:none;}</style></defs><rect class="cls-1" x="0" y="0" width="40" height="40"/><path d="m12.01,40H2.77c-.79,0-1.45-.26-1.98-.79-.53-.53-.79-1.19-.79-1.98v-9.11c1.45-.26,2.64-.92,3.7-1.98s1.45-2.24,1.45-3.83c0-1.45-.53-2.77-1.45-3.7-1.06-1.06-2.24-1.72-3.7-1.98V7.39c0-.79.26-1.45.92-1.98.53-.53,1.19-.79,1.98-.79h9.24c.4-1.32,1.06-2.51,2.11-3.3C15.31.4,16.5,0,17.82,0s2.64.4,3.56,1.32c1.06.92,1.72,1.98,2.11,3.3h9.11c.79,0,1.45.26,1.98.79.53.53.79,1.19.79,1.98v9.11c1.32.4,2.51,1.06,3.3,2.11.79,1.06,1.32,2.24,1.32,3.7,0,1.32-.4,2.51-1.32,3.56-.79,1.06-1.98,1.72-3.3,2.11v9.24c0,.79-.26,1.45-.79,1.98s-1.19.79-1.98.79h-9.11c-.26-1.58-.92-2.77-2.11-3.7-1.06-.92-2.38-1.45-3.7-1.45s-2.64.53-3.7,1.45-1.72,2.11-1.98,3.7Zm-9.24-2.77h7.13c.79-1.85,1.85-3.17,3.43-3.96,1.45-.79,2.9-1.19,4.36-1.19s2.9.4,4.36,1.19c1.45.79,2.64,2.11,3.43,3.96h7.13v-11.88h1.72c.92-.13,1.58-.4,2.11-1.06.53-.53.79-1.19.79-1.98s-.26-1.45-.79-1.98c-.53-.53-1.19-.92-2.11-1.06h-1.72V7.39h-11.88v-1.85c-.13-.92-.4-1.58-1.06-2.11-.53-.53-1.32-.79-1.98-.79-.79,0-1.45.26-1.98.79-.53.53-.92,1.19-.92,2.11v1.85H2.77v7.13c1.58.66,2.77,1.72,3.7,3.04.92,1.45,1.45,3.04,1.45,4.62,0,1.72-.53,3.17-1.45,4.62-.92,1.45-2.24,2.51-3.7,3.04,0,.26,0,7.39,0,7.39Z"/></svg>