<?xml version="1.0" encoding="UTF-8"?><svg id="Layer_1" xmlns="http://www.w3.org/2000/svg" viewBox="0 0 40 40"><defs><style>.cls-1{fill:none;}</style></defs><rect class="cls-1" x="0" y="0" width="40" height="40"/><path d="m39.27,15.03c-.62-2.75-2-4.87-4.75-4.87h-3.62v4.25c0,3.25-2.75,6-6,6h-9.5c-2.62,0-4.75,2.25-4.75,4.87v9.12c0,2.62,2.25,4.12,4.75,4.87,3,.87,5.87,1,9.5,0,2.37-.75,4.75-2.12,4.75-4.87v-3.62h-9.5v-1.25h14.24c2.75,0,3.75-1.87,4.75-4.87,1.12-2.87,1.12-5.75.12-9.62h0Zm-13.74,18.24c1,0,1.75.75,1.75,1.75s-.75,1.87-1.75,1.87-1.75-.87-1.75-1.87.87-1.75,1.75-1.75Zm-10.5-13.99h9.5c2.62,0,4.75-2.12,4.75-4.87V5.4c0-2.62-2.12-4.5-4.75-5-3.25-.5-6.62-.5-9.5,0-4,.75-4.75,2.25-4.75,5v3.62h9.5v1.25H6.65c-2.75,0-5.25,1.62-6,4.87-.87,3.62-.87,5.87,0,9.75.62,2.87,2.25,4.87,5.12,4.87h3.25v-4.37c0-3.25,2.75-6.12,6-6.12h0Zm-.62-12.62c-1,0-1.75-.75-1.75-1.75s.75-1.87,1.75-1.87,1.75.87,1.75,1.87-.75,1.75-1.75,1.75Z"/></svg>