<?xml version="1.0" encoding="UTF-8"?><svg id="Layer_1" xmlns="http://www.w3.org/2000/svg" viewBox="0 0 40 40"><defs><style>.cls-1{fill:none;}</style></defs><rect class="cls-1" x="0" y="0" width="40" height="40"/><path d="m2.96,17.89c-.85,0-1.55-.28-2.11-.85s-.85-1.27-.85-2.11V2.96c0-.85.28-1.55.85-2.11.7-.56,1.41-.85,2.11-.85h11.97c.85,0,1.55.28,2.11.85s.85,1.27.85,2.11v11.97c0,.85-.28,1.55-.85,2.11s-1.27.85-2.11.85H2.96Zm0-2.96h11.97V2.96H2.96v11.97Zm0,25.07c-.85,0-1.55-.28-2.11-.85-.56-.56-.85-1.27-.85-2.11v-11.97c0-.85.28-1.55.85-2.11s1.27-.85,2.11-.85h11.97c.85,0,1.55.28,2.11.85s.85,1.27.85,2.11v11.97c0,.85-.28,1.55-.85,2.11s-1.27.85-2.11.85H2.96Zm0-2.96h11.97v-11.97H2.96v11.97Zm22.11-19.15c-.85,0-1.55-.28-2.11-.85s-.85-1.27-.85-2.11V2.96c0-.85.28-1.55.85-2.11s1.27-.85,2.11-.85h11.97c.85,0,1.55.28,2.11.85s.85,1.27.85,2.11v11.97c0,.85-.28,1.55-.85,2.11-.56.56-1.27.85-2.11.85h-11.97Zm0-2.96h11.97V2.96h-11.97s0,11.97,0,11.97Zm11.41,25.07c-.28,0-.42-.14-.7-.28-.14-.14-.28-.42-.28-.7v-2.54c0-.28.14-.42.28-.7.14-.14.42-.28.7-.28h2.54c.28,0,.42.14.7.28.14.14.28.42.28.7v2.54c0,.28-.14.42-.28.7-.14.14-.42.28-.7.28h-2.54Zm-13.52-13.38c-.28,0-.42-.14-.7-.28-.14-.14-.28-.42-.28-.7v-2.68c0-.28.14-.42.28-.7.14-.14.42-.28.7-.28h2.68c.28,0,.42.14.7.28.14.14.28.42.28.7v2.68c0,.28-.14.42-.28.7-.14.14-.42.28-.7.28h-2.68Zm4.51,4.37c-.28,0-.42-.14-.7-.28-.14-.14-.28-.42-.28-.7v-2.54c0-.28.14-.42.28-.7.14-.14.42-.28.7-.28h2.68c.28,0,.42.14.7.28.14.14.28.42.28.7v2.54c0,.28-.14.42-.28.7-.14.14-.42.28-.7.28h-2.68Zm-4.51,4.51c-.28,0-.42-.14-.7-.28s-.28-.42-.28-.7v-2.68c0-.28.14-.42.28-.7.14-.14.42-.28.7-.28h2.68c.28,0,.42.14.7.28.14.14.28.42.28.7v2.68c0,.28-.14.42-.28.7-.28.14-.56.28-.7.28h-2.68Zm4.51,4.51c-.28,0-.42-.14-.7-.28-.14-.14-.28-.42-.28-.7v-2.54c0-.28.14-.42.28-.7.14-.14.42-.28.7-.28h2.68c.28,0,.42.14.7.28.14.14.28.42.28.7v2.54c0,.28-.14.42-.28.7-.14.14-.42.28-.7.28h-2.68Zm4.51-4.51c-.28,0-.42-.14-.7-.28-.14-.14-.28-.42-.28-.7v-2.68c0-.28.14-.42.28-.7.14-.14.42-.28.7-.28h2.68c.28,0,.42.14.7.28.14.14.28.42.28.7v2.68c0,.28-.14.42-.28.7-.14.14-.42.28-.7.28h-2.68Zm0-8.87c-.28,0-.42-.14-.7-.28-.14-.14-.28-.42-.28-.7v-2.68c0-.28.14-.42.28-.7.14-.14.42-.28.7-.28h2.68c.28,0,.42.14.7.28.14.14.28.42.28.7v2.68c0,.28-.14.42-.28.7-.14.14-.42.28-.7.28h-2.68Zm4.51,4.37c-.28,0-.42-.14-.7-.28-.14-.14-.28-.42-.28-.7v-2.54c0-.28.14-.42.28-.7.14-.14.42-.28.7-.28h2.54c.28,0,.42.14.7.28.14.14.28.42.28.7v2.54c0,.28-.14.42-.28.7-.14.14-.42.28-.7.28h-2.54Z"/></svg>