<?xml version="1.0" encoding="UTF-8"?><svg id="Layer_1" xmlns="http://www.w3.org/2000/svg" viewBox="0 0 40 40"><defs><style>.cls-1{fill:none;}</style></defs><rect class="cls-1" x="0" y="0" width="40" height="40"/><path d="m20.13,31.65c.51,0,.89-.13,1.27-.51s.51-.76.51-1.27-.13-.89-.51-1.27-.76-.51-1.27-.51-.89.13-1.27.51-.51.76-.51,1.27.13.89.51,1.27.76.51,1.27.51Zm-.13,8.35c-2.78,0-5.32-.51-7.85-1.52s-4.56-2.53-6.33-4.3-3.29-3.92-4.3-6.33-1.52-5.06-1.52-7.85.51-5.32,1.52-7.85c1.01-2.41,2.53-4.56,4.3-6.33,1.77-1.77,3.92-3.29,6.33-4.3S17.22,0,20,0s5.32.51,7.85,1.52c2.41,1.01,4.56,2.53,6.33,4.3,1.77,1.77,3.29,3.92,4.3,6.33,1.01,2.41,1.52,5.06,1.52,7.85s-.51,5.32-1.52,7.85-2.53,4.56-4.3,6.33c-1.77,1.77-3.92,3.29-6.33,4.3-2.41,1.01-5.06,1.52-7.85,1.52Zm0-2.66c4.81,0,8.99-1.65,12.28-5.06,3.42-3.42,5.06-7.47,5.06-12.28s-1.65-8.99-5.06-12.28c-3.42-3.42-7.47-5.06-12.28-5.06s-8.99,1.65-12.28,5.06c-3.42,3.42-5.06,7.47-5.06,12.28s1.65,8.99,5.06,12.28c3.29,3.42,7.47,5.06,12.28,5.06Zm.13-26.58c1.01,0,2.03.38,2.78,1.01s1.14,1.52,1.14,2.53c0,.89-.25,1.65-.76,2.28s-1.01,1.27-1.65,1.77c-.76.63-1.39,1.39-2.03,2.15-.51.76-.89,1.65-.89,2.66,0,.38.13.63.38.76.25.25.51.25.89.25s.63-.13.89-.38c.25-.25.38-.51.51-.89.13-.76.38-1.39.89-1.9.38-.63.89-1.14,1.52-1.65.76-.76,1.52-1.52,2.03-2.41.51-.89.89-1.9.89-2.91,0-1.65-.63-3.04-1.9-4.18s-2.66-1.65-4.43-1.65c-1.27,0-2.41.25-3.42.76-1.14.51-2.03,1.27-2.66,2.28-.25.25-.25.63-.25.89,0,.38.13.63.38.76.38.25.76.25,1.01.25.38-.13.63-.25.89-.63.51-.63,1.01-1.14,1.65-1.39.63-.25,1.39-.38,2.15-.38Z"/></svg>