<?xml version="1.0" encoding="UTF-8"?><svg id="Layer_1" xmlns="http://www.w3.org/2000/svg" viewBox="0 0 40 40"><defs><style>.cls-1{fill:none;}</style></defs><rect class="cls-1" x="0" y="0" width="40" height="40"/><path d="m19.56,27.19c-.66,0-1.06-.26-1.45-.66-.4-.4-.53-.92-.4-1.58.13-1.45.53-2.77,1.19-3.83.66-1.19,1.72-2.38,3.17-3.7s2.51-2.51,3.3-3.7c.79-1.19,1.06-2.38,1.06-3.7,0-1.85-.66-3.3-1.85-4.49s-2.9-1.85-5.02-1.85c-1.45,0-2.77.26-3.7.92s-1.72,1.32-2.38,2.24c-.26.4-.66.79-1.19.92-.53.13-.92.13-1.45,0-.53-.26-.92-.66-1.06-1.19s0-1.06.26-1.58c1.06-1.58,2.24-2.77,3.83-3.7,1.58-.92,3.43-1.32,5.54-1.32,3.43,0,6.07.92,8.05,2.9,1.85,1.98,2.77,4.22,2.77,7,0,1.72-.4,3.17-1.06,4.62-.79,1.32-1.85,2.77-3.3,4.09-1.45,1.45-2.51,2.51-3.17,3.43-.53.92-.92,1.85-1.06,3.04-.13.53-.26,1.06-.66,1.45-.53.4-.92.66-1.45.66Zm-.13,12.81c-.79,0-1.58-.26-2.11-.92-.66-.66-.92-1.32-.92-2.11s.26-1.58.92-2.11c.66-.66,1.32-.92,2.11-.92s1.58.26,2.11.92c.66.66.92,1.32.92,2.11s-.26,1.58-.92,2.11c-.53.66-1.32.92-2.11.92Z"/></svg>