<?xml version="1.0" encoding="UTF-8"?><svg id="Layer_1" xmlns="http://www.w3.org/2000/svg" viewBox="0 0 40 40"><defs><style>.cls-1{fill:none;}</style></defs><rect class="cls-1" x="0" y="0" width="40" height="40"/><path d="m24.62,37.62h0c-7.13,0-12.88-5.75-12.88-12.75s5.75-12.75,12.75-12.75c7.63,0,13.62,6.75,12.63,14.25.37.37.62.75.88,1.25,1.13-2.5,1.62-5,1.62-7.87.12-10.87-8.63-19.75-19.63-19.75S.37,8.88.37,19.75s8.87,19.75,19.75,19.75c1.88,0,3.88-.25,5.62-.88-.38-.25-.75-.62-1.12-1Zm0,0h0Zm6.37-13.62c-4.38,0-8,3.62-8,8s3.62,8,8,8,8-3.63,8-8h0c0-4.38-3.63-8-8-8h0Z"/></svg>