<?xml version="1.0" encoding="UTF-8"?><svg id="Layer_1" xmlns="http://www.w3.org/2000/svg" viewBox="0 0 40 40"><defs><style>.cls-1{fill:none;}</style></defs><rect class="cls-1" x="0" y="0" width="40" height="40"/><path d="m39.43,31.72h-2.63c-.13,1.25-1,2.76-3.01,2.76-1.88,0-3.13-1.25-4.39-3.26,4.01-3.01,6.65-7.77,6.65-13.67,0-10.41-8.65-17.55-17.8-17.55S.56,7.15.56,17.55c0,12.04,11.79,19.81,22.32,16.93,1.76,3.01,4.14,5.52,8.53,5.52,7.27.13,8.15-6.65,8.02-8.28Zm-12.91-5.14c-1.76-2.63-3.89-4.64-8.15-4.64-2.76,0-4.89.88-6.14,2.01l1.13,2.13c.5-.25,1.13-.38,1.76-.38,3.13,0,4.76,2.76,6.14,5.52-.88.25-1.88.38-2.88.38-6.77,0-9.65-4.76-9.65-14.04S11.59,3.39,18.36,3.39s9.78,4.76,9.78,14.17c-.13,3.76-.63,6.77-1.63,9.03Z"/></svg>