<?xml version="1.0" encoding="UTF-8"?><svg id="Layer_1" xmlns="http://www.w3.org/2000/svg" viewBox="0 0 40 40"><defs><style>.cls-1{fill:none;}</style></defs><rect class="cls-1" x="0" y="0" width="40" height="40"/><path d="m13.49,19.92H3.26v10.23h10.23s0-10.23,0-10.23Zm23.26,0h-10.23v10.23h10.23c0,.16,0-10.23,0-10.23ZM6.05,6.43c.78,0,1.4.31,1.86,1.09.47.62.47,1.4.16,2.17l-3.41,7.13h8.84c.93,0,1.71.31,2.33.93s.93,1.4.93,2.33v10.23c0,.93-.31,1.71-.93,2.33s-1.4.93-2.33.93H3.26c-.93,0-1.71-.31-2.33-.93-.62-.62-.93-1.4-.93-2.33v-12.87c0-.31,0-.62.16-.93s.16-.62.31-.78l3.88-8.06c.16-.31.47-.62.78-.93.16-.16.62-.31.93-.31Zm23.26,0c.78,0,1.4.31,1.86,1.09.47.62.47,1.4.16,2.17l-3.41,7.13h8.84c.93,0,1.71.31,2.33.93.62.62.93,1.4.93,2.33v10.23c0,.93-.31,1.71-.93,2.33s-1.4.93-2.33.93h-10.23c-.93,0-1.71-.31-2.33-.93s-.93-1.4-.93-2.33v-12.87c0-.31,0-.62.16-.93,0-.31.16-.62.31-.78l3.88-8.06c.16-.31.47-.62.78-.93.16-.16.62-.31.93-.31Z"/></svg>