<?xml version="1.0" encoding="UTF-8"?><svg id="Layer_1" xmlns="http://www.w3.org/2000/svg" viewBox="0 0 40 40"><defs><style>.cls-1{fill:none;}</style></defs><rect class="cls-1" x="0" y="0" width="40" height="40"/><path d="m26.51,20.08h10.23v-10.23h-10.23v10.23Zm-23.26,0h10.23v-10.23H3.26c0-.16,0,10.23,0,10.23Zm30.7,13.49c-.78,0-1.4-.31-1.86-1.09-.47-.62-.47-1.4-.16-2.17l3.41-7.13h-8.84c-.93,0-1.71-.31-2.33-.93s-.93-1.4-.93-2.33v-10.23c0-.93.31-1.71.93-2.33s1.4-.93,2.33-.93h10.23c.93,0,1.71.31,2.33.93.62.62.93,1.4.93,2.33v12.87c0,.31,0,.62-.16.93,0,.31-.16.62-.31.78l-3.88,8.06c-.16.31-.47.62-.78.93-.16.16-.62.31-.93.31Zm-23.26,0c-.78,0-1.4-.31-1.86-1.09-.47-.62-.47-1.4-.16-2.17l3.41-7.13H3.26c-.93,0-1.71-.31-2.33-.93-.62-.62-.93-1.4-.93-2.33v-10.23c0-.93.31-1.71.93-2.33.62-.62,1.4-.93,2.33-.93h10.23c.93,0,1.71.31,2.33.93.62.62.93,1.4.93,2.33v12.87c0,.31,0,.62-.16.93,0,.31-.16.62-.31.78l-3.88,8.06c-.16.31-.47.62-.78.93-.16.16-.62.31-.93.31Z"/></svg>