<?xml version="1.0" encoding="UTF-8"?><svg id="Layer_1" xmlns="http://www.w3.org/2000/svg" viewBox="0 0 40 40"><defs><style>.cls-1{fill:none;}</style></defs><rect class="cls-1" x="0" y="0" width="40" height="40"/><path d="m8.02,29.37c-.34,0-.69-.11-.8-.34-.23-.23-.34-.57-.34-.8.34-3.44,1.72-6.3,4.24-8.71,2.52-2.29,5.5-3.44,9.05-3.44s6.53,1.15,9.05,3.44c2.52,2.29,3.9,5.16,4.24,8.71,0,.34-.11.57-.34.8-.23.23-.46.34-.8.34s-.57-.11-.8-.34c-.23-.23-.34-.46-.46-.8-.34-2.75-1.49-5.04-3.55-6.99-2.06-1.83-4.47-2.75-7.34-2.75s-5.27.92-7.34,2.75c-2.06,1.83-3.21,4.24-3.55,6.99,0,.34-.23.57-.46.8-.23.23-.46.34-.8.34Zm-6.76,0c-.34,0-.69-.11-.92-.34-.23-.23-.34-.57-.34-.8.11-2.64.8-5.04,1.95-7.34,1.15-2.29,2.52-4.24,4.36-5.96,1.83-1.72,3.9-3.09,6.19-4.01,2.41-1.03,4.93-1.49,7.56-1.49s5.16.46,7.56,1.49c2.41,1.03,4.47,2.29,6.19,4.01,1.83,1.72,3.21,3.67,4.36,5.96s1.72,4.7,1.83,7.34c0,.34-.11.57-.34.8s-.46.34-.92.34c-.34,0-.57-.11-.8-.34-.23-.23-.34-.46-.34-.8-.34-4.58-2.18-8.48-5.5-11.69-3.32-3.21-7.45-4.81-12.15-4.81s-8.71,1.6-12.15,4.81c-3.32,3.21-5.16,7.11-5.5,11.69,0,.34-.11.69-.34.8s-.34.34-.69.34h0Z"/></svg>