<?xml version="1.0" encoding="UTF-8"?><svg id="Layer_1" xmlns="http://www.w3.org/2000/svg" viewBox="0 0 40 40"><defs><style>.cls-1{fill:none;}</style></defs><rect class="cls-1" x="0" y="0" width="40" height="40"/><path d="m13.46,15.97L.99,3.5c-.3-.3-.46-.61-.46-1.06s.15-.76.46-1.06c.3-.3.76-.46,1.22-.46s.76.15,1.06.46l12.47,12.47c0-.15-2.28,2.13-2.28,2.13Zm13.99,23.88c-.46,0-.76-.15-1.06-.46s-.46-.76-.46-1.06c0-.46.15-.76.46-1.06.3-.3.61-.46,1.06-.46h6.54l-10.65-10.65,2.28-2.28,10.65,10.65v-6.54c0-.46.15-.76.46-1.06.3-.3.76-.46,1.22-.46s.76.15,1.06.46c.3.3.46.61.46,1.06v10.04c0,.61-.15,1.06-.61,1.37-.3.3-.91.61-1.37.61,0-.15-10.04-.15-10.04-.15Zm-26.46-1.37c-.3-.3-.46-.76-.46-1.06,0-.46.15-.76.46-1.06L34.14,3.19h-6.54c-.46,0-.76-.15-1.06-.46s-.46-.76-.46-1.22.15-.76.46-1.06c.15-.3.61-.46.91-.46h10.04c.61,0,1.06.15,1.37.61.3.3.61.91.61,1.37v10.04c0,.46-.15.76-.46,1.06s-.76.46-1.06.46c-.46,0-.76-.15-1.06-.46-.46-.3-.61-.76-.61-1.06v-6.54L3.27,38.48c-.3.3-.61.46-1.06.46s-.91-.15-1.22-.46Z"/></svg>