<?xml version="1.0" encoding="UTF-8"?><svg id="Layer_1" xmlns="http://www.w3.org/2000/svg" viewBox="0 0 40 40"><defs><style>.cls-1{fill:none;}</style></defs><rect class="cls-1" x="0" y="0" width="40" height="40"/><path d="m33.13,18.25l-.25-.5c0-3.62-1.62-5.13-3.62-6.25.63-.13,1.25-.25,1.38-1,1-.25,1.25-.75,1.38-1.25.25-.13,1.12-.63,1-1.5.5-.38.75-.75.63-1.38.5-.63.63-1.12.5-1.5.63-.75.37-1.25.13-1.63.5-.87,0-1.75-1.25-1.63-.5-.75-1.75-.63-1.88-.63-.25-.25-.5-.5-1.25-.38-.5-.5-1.12-.38-1.75-.12-.75-.63-1.25-.12-1.75,0-.88-.25-1.12.12-1.5.25-1-.25-1.25.25-1.75.75h-.5c-1.5.87-2.13,2.5-2.37,3.5-.5-1.12-1.25-2.87-2.75-3.62h-.5c-.5-.5-.75-.87-1.75-.75-.38-.12-.63-.5-1.5-.25-.38-.12-.75-.37-1.12-.37-.25,0-.38.12-.63.25-.63-.25-1.25-.25-1.75.12-.87-.12-1.12.12-1.25.38-.13,0-1.38-.12-1.88.63-1.38-.12-1.75.75-1.25,1.63-.38.5-.63,1,0,1.75-.25.38,0,.87.5,1.5-.13.63.12,1.13.63,1.38-.13.87.75,1.38,1,1.5.13.5.25,1,1.38,1.25.13.75.75.87,1.38,1-2,1.12-3.63,2.63-3.63,6.25l-.25.5c-2.25,1.38-4.25,5.63-1.12,9.25.12,1.13.5,1.88.87,2.75.5,3.5,3.5,5.12,4.25,5.37,1.12.88,2.37,1.75,4.12,2.25,1.62,1.62,3.25,2.25,5,2.25h0c1.75,0,3.38-.63,5-2.25,1.62-.63,2.87-1.37,4.12-2.25.75-.25,3.75-1.88,4.25-5.37.25-.88.63-1.62.88-2.75,3.13-3.5,1.12-7.87-1.12-9.12h0Zm-1.75-.63c-.13,1.38-7.63-5.13-6.38-5.38,3.62-.5,6.5,1.5,6.38,5.38Zm-3.38,7.25c-1.88,1.25-4.63.37-6.12-1.75s-1.12-5,.75-6.25,4.63-.37,6.12,1.75c1.62,2.25,1.25,5-.75,6.25h0ZM22.75,2.38c0,.38.13.5.25.63.37-.5.75-.87,1.25-1.37,0,.25-.13.5.25.75.25-.38.63-.75,1.25-1-.25.38,0,.63.13.75.37-.5.75-.75,1.37-1-.25.25-.5.5-.13.75.38-.25.88-.5,1.75-.75-.13.25-.63.5-.38.75.5-.25,1.12-.38,1.75-.38-.25.25-.5.5-.25.63.5-.12,1.38-.38,2-.25l-.5.5h1.88c-.25.38-.5.75-.75,1.37.13.12.5,0,.75,0-.37.75-1,1-1.12,1.25.25.12.5.12.88,0-.25.5-.75.88-1.25,1.37.13.13.25.13.75.13-.37.38-.88.87-1.5,1.12.13.13.5.13.75.13-.5.5-1.25.75-1.88,1.12.25.25.5.13.75.13-.5.38-1.25.5-1.88.75.13.25.25.25.5.38-.75.38-1.75.25-2.13.38.13.25.25.38.5.5-1.25.13-4.5,0-5.13-2.5,1.25-1.38,3.5-2.88,7.38-4.88-3,1-5.75,2.38-8,4.12-2.37-1-.5-4.13.75-5.38h0Zm-2.63,8.87c1.88,0,4.25,1.38,4.25,2.75,0,1.12-1.62,2.12-4.25,2.12s-4.25-1.12-4.12-2.37c-.13-.87,2-2.5,4.12-2.5h0Zm-9.63-1c.25,0,.38-.13.5-.38-.75-.25-1.5-.38-1.88-.75.25,0,.5,0,.75-.13-.63-.38-1.25-.63-1.88-1.12.38,0,.63,0,.75-.13-.63-.38-1-.75-1.5-1.12.5,0,.63,0,.75-.13-.38-.38-1-.75-1.25-1.37.38.12.63.12.87,0-.13-.38-.75-.5-1.12-1.25.38,0,.75.12.75,0,0-.62-.25-1-.5-1.37h1.88l-.5-.5c.75-.25,1.5,0,2,.25.25-.25,0-.38-.25-.63.63.12,1.25.25,1.75.38.25-.25-.13-.5-.38-.75,1,.12,1.38.38,1.75.75.25-.25,0-.5-.13-.75.75.25,1.12.63,1.5,1,.13-.12.38-.25.13-.75.5.25.87.63,1.25,1,.37-.25.25-.5.25-.75.5.38.88.87,1.25,1.37.13,0,.13-.25.25-.63,1.25,1.25,3.13,4.38.5,5.63-2.25-1.88-5-3.13-8-4.13,3.88,2,6.12,3.5,7.38,4.87-.63,2.5-3.88,2.63-5.13,2.5.25-.13.5-.25.5-.5-.5-.38-1.5-.13-2.25-.63h0Zm4.63,1.88c1.25.25-6.25,6.75-6.38,5.25-.13-3.75,2.88-5.75,6.38-5.25h0Zm-8,14.62c-1.88-1.5-2.5-5.75,1-7.63,2-.62.63,8.38-1,7.63Zm7,7.63c-1,.63-3.63.37-5.38-2.13-1.25-2.13-1-4.25-.25-5,1.25-.75,3.25.25,4.75,2,1.37,1.63,2,4.38.87,5.13Zm-2-9.25c-1.88-1.25-2.25-4-.75-6.25s4.25-3,6.13-1.75,2.25,4,.75,6.25c-1.5,2.12-4.25,3-6.13,1.75Zm8,13.63c-2.25.12-4.5-1.88-4.5-2.5,0-1,2.75-1.75,4.63-1.75,1.88-.13,4.38.62,4.38,1.5s-2.25,2.87-4.5,2.75h0Zm4.62-9.75c0,2.37-2,4.25-4.63,4.25s-4.63-1.88-4.63-4.12h0c0-2.37,2-4.25,4.63-4.25s4.63,1.75,4.63,4.12h0Zm6.38,3.37c-2,2.75-4.63,2.75-5.63,2-1-1-.25-4,1.12-5.63,1.62-1.88,3.38-3,4.63-2.13.88.88,1.38,3.88-.13,5.75h0Zm1.75-5.75c-1.62.75-3-8.25-1-7.63,3.5,1.88,2.87,6.25,1,7.63Z"/></svg>