<?xml version="1.0" encoding="UTF-8"?><svg id="Layer_1" xmlns="http://www.w3.org/2000/svg" viewBox="0 0 40 40"><defs><style>.cls-1{fill:none;}</style></defs><rect class="cls-1" x="0" y="0" width="40" height="40"/><path d="m32.63,13.76c-.37-.13-.88-.25-1.25-.38.13-.25.13-.62.25-.87,1-4.62.37-8.37-1.75-9.62-2-1.13-5.37,0-8.75,3-.5.25-.75.62-1.13.87-.25-.25-.37-.38-.62-.62-3.5-3.12-7.12-4.5-9.25-3.25-2,1.25-2.63,4.75-1.75,9.13.13.5.13.87.25,1.25-.5.13-1,.25-1.5.5-4.13,1.5-7.13,3.75-7.13,6.12,0,2.5,3.25,4.87,7.5,6.38.38.13.75.25,1.12.37-.13.5-.25.88-.25,1.38-.87,4.38-.13,7.75,1.88,9,2.12,1.25,5.63,0,9.13-3,.25-.25.5-.5.88-.75.37.37.75.62,1.12,1,3.38,2.87,6.63,4,8.75,2.87,2.13-1.25,2.75-4.87,1.88-9.38-.13-.37-.13-.75-.25-1,.25-.13.5-.13.75-.25,4.25-1.75,7.5-4.12,7.5-6.62s-3.12-4.63-7.37-6.12h0Zm-10.5-6.63c2.87-2.5,5.62-3.5,6.88-2.88,1.38.75,1.88,3.88,1,7.88,0,.25-.13.5-.13.75-1.75-.38-3.5-.62-5.25-.87-1-1.5-2.13-2.88-3.38-4.13.25-.25.5-.5.88-.75Zm-9.13,16.75c.38.62.75,1.38,1.25,2-1.25-.13-2.37-.37-3.62-.62.38-1.12.75-2.25,1.25-3.5.38.87.75,1.5,1.12,2.12h0Zm-2.25-9.38c1.12-.25,2.37-.5,3.62-.62-.38.62-.87,1.25-1.25,2-.38.62-.75,1.38-1.12,2-.5-1.12-1-2.25-1.25-3.37h0Zm2.12,5.38c.5-1.12,1.12-2.13,1.63-3.12.5-1,1.25-2,1.88-3,1.25-.13,2.37-.13,3.62-.13s2.37,0,3.62.13c.62,1,1.25,2,1.88,3s1.12,2.13,1.75,3.12c-.5,1.12-1.12,2.13-1.75,3.12s-1.25,2-1.88,3c-1.12.13-2.37.13-3.62.13s-2.37,0-3.62-.13c-.62-1-1.38-2-1.88-3-.62-1-1.13-2-1.63-3.12h0Zm14.13,4c.37-.62.75-1.38,1.12-2.13.5,1.12,1,2.25,1.38,3.5-1.25.25-2.5.5-3.62.62.25-.62.62-1.25,1.12-2h0Zm1.12-6c-.37-.62-.75-1.38-1.12-2s-.75-1.38-1.25-2c1.25.13,2.5.38,3.62.62-.37,1.25-.88,2.38-1.25,3.38Zm-8.12-8.75c.88.87,1.62,1.88,2.37,2.75-1.5-.13-3.12-.13-4.63,0,.75-1,1.5-1.87,2.25-2.75Zm-9-4.75c1.38-.75,4.25.38,7.25,3,.25.13.37.38.62.5-1.25,1.25-2.37,2.75-3.38,4.13-1.75.13-3.5.38-5.25.87-.13-.38-.13-.75-.25-1.25-.75-3.75-.25-6.5,1-7.25h0Zm-2,20.63c-.38-.13-.62-.25-1-.25-1.63-.5-3.5-1.38-4.88-2.5-.75-.5-1.37-1.38-1.5-2.37,0-1.38,2.5-3.25,6-4.5.5-.13.87-.25,1.38-.37.5,1.75,1.12,3.38,1.88,5-.62,1.5-1.25,3.25-1.88,5Zm9.13,7.63c-1.25,1.12-2.75,2.13-4.38,2.75-.87.37-1.88.5-2.75.12-1.25-.75-1.75-3.5-1-7.25.13-.5.13-.88.25-1.25,1.75.37,3.5.62,5.25.75,1,1.5,2.13,2.87,3.38,4.12-.25.25-.5.5-.75.75h0Zm1.88-1.88c-.75-.88-1.62-1.88-2.37-2.87h4.62c-.62,1-1.37,1.87-2.25,2.87Zm10.25,2.25c-.13,1-.5,1.88-1.25,2.5-1.25.75-3.88-.25-6.75-2.63-.37-.25-.62-.62-1-.88,1.25-1.38,2.25-2.75,3.25-4.25,1.75-.13,3.62-.37,5.37-.88.13.37.13.62.25,1,.37,1.63.37,3.5.12,5.13h0Zm1.5-8.38c-.25.13-.5.13-.62.25-.5-1.75-1.25-3.38-2-5,.75-1.62,1.38-3.25,1.88-4.87.37.13.75.25,1.12.37,3.62,1.25,6.25,3.12,6.25,4.5,0,1.5-2.75,3.5-6.62,4.75Zm-11.75-1.12c2,0,3.62-1.62,3.62-3.62s-1.62-3.62-3.62-3.62-3.62,1.62-3.62,3.62,1.62,3.62,3.62,3.62h0Z"/></svg>