<?xml version="1.0" encoding="UTF-8"?>
<svg id="Capa_1" data-name="Capa 1" xmlns="http://www.w3.org/2000/svg" viewBox="0 0 40 40">
  <defs>
    <style>
      .cls-1 {
        fill: none;
      }
    </style>
  </defs>
  <rect class="cls-1" x="0" width="40" height="40"/>
  <path d="m19.96,36.69c-.22,0-.44-.03-.65-.08-.22-.05-.42-.14-.59-.26-1.39-.87-2.86-1.53-4.4-1.99-1.54-.46-3.14-.69-4.79-.69-1.16,0-2.3.13-3.42.39-1.12.26-2.2.64-3.24,1.14-.68.31-1.32.27-1.94-.14-.61-.41-.92-.98-.92-1.72V12.69c0-.41.11-.79.33-1.14.22-.35.52-.6.9-.76,1.29-.63,2.63-1.1,4.03-1.41,1.4-.31,2.82-.47,4.26-.47,1.85,0,3.66.26,5.41.79,1.76.53,3.44,1.26,5.06,2.21v22.4c1.61-1.03,3.3-1.8,5.09-2.29,1.78-.49,3.58-.74,5.39-.74,1.09,0,2.19.09,3.29.26,1.1.17,2.2.5,3.29.99.13.04.26.04.38,0,.12-.03.17-.13.17-.3V10.25c.25.08.49.17.73.27.24.1.47.22.69.35.31.17.55.41.72.71.17.3.25.62.25.97v20.75c0,.74-.32,1.31-.95,1.71s-1.3.45-2.02.15c-1.03-.49-2.09-.86-3.2-1.11-1.1-.25-2.22-.38-3.36-.38-1.66,0-3.27.23-4.84.69-1.57.46-3.05,1.12-4.44,1.99-.17.12-.37.21-.58.26-.21.05-.43.08-.65.08Zm4.66-8.16c-.26.21-.54.26-.83.13-.3-.13-.45-.36-.45-.7v-14.5c0-.09.02-.18.06-.28.04-.09.09-.18.16-.25l9.39-9.39c.25-.25.53-.3.84-.18.31.13.47.36.47.7v15.61c0,.11-.02.21-.07.3-.05.09-.1.17-.18.25,0,0-9.39,8.29-9.39,8.29Zm-7.02,4.58V13.36c-1.22-.66-2.53-1.17-3.96-1.53-1.42-.35-2.8-.53-4.12-.53-1.33,0-2.56.13-3.7.4-1.14.26-2.17.59-3.08.99-.1.04-.18.09-.25.16-.07.07-.1.15-.1.25v19.17c0,.17.06.27.17.3.12.03.24.02.38-.03.94-.4,1.96-.71,3.05-.93,1.09-.22,2.27-.33,3.55-.33,1.55,0,3.02.17,4.4.52,1.38.35,2.6.79,3.66,1.32Zm0,0V13.36v19.76Z"/>
</svg>