<?xml version="1.0" encoding="UTF-8"?><svg id="Layer_1" xmlns="http://www.w3.org/2000/svg" viewBox="0 0 40 40"><defs><style>.cls-1{fill:none;}</style></defs><rect class="cls-1" x="0" width="40" height="40"/><path d="m2.03,39.87V.13h.13c.13,0,.25.13.38.25l1.9,1.9c.25.13.38.25.51.25s.38-.13.51-.25L7.47.25c.13-.13.38-.25.51-.25s.38.13.51.25l2.03,2.03c.13.13.38.25.51.25s.38-.13.51-.25L13.54.25c.13-.13.38-.25.51-.25s.38.13.51.25l1.9,2.03c.13.13.38.25.51.25s.38-.13.51-.25l2.03-2.03c.13-.13.38-.25.51-.25s.38.13.51.25l2.03,2.03c.13.13.38.25.51.25s.38-.13.51-.25l2.03-2.03c.13-.13.38-.25.51-.25s.38.13.51.25l1.9,2.03c.13.13.38.25.51.25s.38-.13.51-.25l2.03-2.03c.13-.13.38-.25.51-.25s.38.13.51.25l2.03,2.03c.13.13.38.25.51.25s.38-.13.51-.25l1.9-2.03c.13-.13.25-.25.38-.25h.13v39.75h-.13c-.13,0-.25,0-.38-.25l-1.9-1.77c-.13-.13-.38-.25-.51-.25s-.38.13-.51.25l-2.03,2.03c-.13.13-.38.25-.51.25s-.38-.13-.51-.25l-2.03-2.03c-.13-.13-.38-.25-.51-.25s-.38.13-.51.25l-2.03,2.03c-.13.13-.38.25-.51.25s-.38-.13-.51-.25l-1.9-2.03c-.13-.13-.38-.25-.51-.25s-.38,0-.51.25l-2.03,2.03c-.13.13-.38.25-.51.25s-.38-.13-.51-.25l-2.03-2.03c-.13-.13-.38-.25-.51-.25s-.38.13-.51.25l-2.03,2.03c-.13.13-.38.25-.51.25s-.38-.13-.51-.25l-1.9-2.03c-.13-.13-.38-.25-.51-.25s-.38.13-.51.25l-2.03,2.03c-.13.13-.38.25-.51.25s-.38-.13-.51-.25l-2.03-2.03c-.13-.13-.38-.25-.51-.25s-.25.13-.51.25l-1.9,2.03c-.13.13-.25.25-.38.25,0-.13-.13-.13-.13-.13Zm7.09-10.89h21.9c.38,0,.76-.13.89-.38.25-.25.38-.51.38-.89s-.13-.76-.38-.89c-.25-.38-.51-.51-.89-.51H9.11c-.38,0-.76.13-.89.38-.25.25-.38.51-.38,1.01s.13.76.38.89c.13.25.51.38.89.38Zm0-7.72h21.9c.38,0,.76-.13.89-.38.25-.25.38-.51.38-.89s-.13-.76-.38-.89c-.25-.25-.51-.38-.89-.38H9.11c-.38,0-.76.13-.89.38-.25.25-.38.51-.38.89s.13.76.38.89c.13.25.51.38.89.38Zm0-7.59h21.9c.38,0,.76-.13.89-.38.25-.25.38-.51.38-.89s-.13-.63-.38-.89c-.25-.25-.51-.38-.89-.38H9.11c-.38,0-.76.13-.89.38-.25.25-.38.63-.38,1.01s.13.63.38.89c.13.13.51.25.89.25Zm-4.43,21.65h30.51V4.68H4.68v30.63Zm0-30.63v30.63V4.68Z"/></svg>