<?xml version="1.0" encoding="UTF-8"?><svg id="Layer_1" xmlns="http://www.w3.org/2000/svg" viewBox="0 0 40 40"><defs><style>.cls-1{fill:none;}</style></defs><rect class="cls-1" x="0" width="40" height="40"/><path d="m13.97,13.65c.26.13.39.13.64.13s.39-.13.52-.39l4-6.57-2.96-4.9c-.39-.64-.9-1.03-1.68-1.03s-1.29.39-1.68,1.03l-4.38,7.35c-.13.26-.13.39-.13.64s.26.39.39.52l5.28,3.22Zm19.98,13.92l-4-6.57c-.13-.26-.13-.39-.13-.64s.13-.39.39-.52l5.41-3.09c.26-.13.39-.13.64-.13.26.13.39.26.52.39l2.71,4.51c.39.52.52,1.16.52,1.93,0,.64-.13,1.29-.39,1.93-.39.64-.77,1.16-1.42,1.55-.64.39-1.29.64-2.06.64h-2.19Zm-7.22,12.37l-5.8-5.8c-.13-.13-.26-.39-.26-.64s.13-.39.26-.64l5.8-5.8c.26-.26.64-.39.9-.26.39.13.52.39.52.77v1.93h9.41l-2.84,5.8c-.39.64-.9,1.16-1.55,1.55s-1.29.64-2.06.64h-2.96v1.93c0,.39-.13.64-.52.77-.26.13-.64.13-.9-.26Zm-17.66-2.45c-.64,0-1.29-.13-1.8-.52-.52-.39-.9-.77-1.16-1.42-.26-.52-.39-1.03-.39-1.68,0-.52.13-1.16.52-1.55l1.68-2.84h7.73c.26,0,.39.13.64.26.13.13.26.39.26.64v6.19c0,.26-.13.39-.26.64-.13.13-.39.26-.64.26h-6.57Zm-4.9-5.67l-3.22-6.44c-.26-.64-.39-1.29-.39-1.93s.26-1.29.64-1.93l.77-1.29-1.55-.9c-.39-.26-.52-.52-.39-.9,0-.39.26-.64.64-.77l7.99-2.06c.26-.13.52,0,.64.13.26.13.39.26.39.52l1.93,7.99v.52c0,.13-.13.26-.26.39-.13.13-.26.13-.39.13s-.39,0-.52-.13l-1.8-.77-4.51,7.47ZM30.08,14.68l-7.99-2.06c-.39-.13-.64-.39-.64-.77s.13-.64.39-.9l1.68-.9L17.32-.27h6.96c.64,0,1.29.13,1.93.52s1.03.77,1.42,1.42l2.58,4.38,1.55-1.03c.13-.13.39-.13.52-.13s.26.13.39.13c.13.13.26.26.26.39.13.13.13.39,0,.52l-1.93,7.99c-.13.26-.26.39-.39.52-.13.26-.39.26-.52.26Z"/></svg>