<?xml version="1.0" encoding="UTF-8"?><svg id="Layer_1" xmlns="http://www.w3.org/2000/svg" viewBox="0 0 40 40"><defs><style>.cls-1{fill:none;}</style></defs><rect class="cls-1" x="0" width="40" height="40"/><path d="m34.26,15.72c-1.25,0-2.37.5-3.24,1.37-2.99-2.12-7.1-3.36-11.46-3.61l2.37-10.47,7.35,1.62c0,1.87,1.5,3.24,3.24,3.24,1.87,0,3.36-1.5,3.36-3.36s-1.5-3.36-3.36-3.36c-1.25,0-2.37.75-2.99,1.87l-8.22-1.87c-.37-.12-.87.12-.87.62l-2.62,11.59c-4.49.12-8.47,1.5-11.46,3.61-.87-.87-1.99-1.37-3.24-1.37-4.61,0-6.23,6.23-1.87,8.47-.12.62-.25,1.37-.25,2.12,0,7.1,7.98,12.71,17.69,12.71s17.69-5.73,17.69-12.71c0-.75-.12-1.5-.25-2.12,4.36-2.12,2.74-8.35-1.87-8.35h0Zm-26.17,8.85c0-1.87,1.5-3.36,3.36-3.36s3.24,1.5,3.24,3.36-1.5,3.24-3.24,3.24c-1.87.12-3.36-1.37-3.36-3.24Zm18.07,7.85c-3.12,3.12-11.71,3.12-14.7,0-.37-.25-.37-.87,0-1.12.25-.25.87-.25,1.12,0,2.37,2.37,10.09,2.49,12.46,0,.25-.25.87-.25,1.12,0,.37.37.37.87,0,1.12h0Zm-.12-4.49c-1.87,0-3.24-1.5-3.24-3.24,0-1.87,1.5-3.36,3.24-3.36,1.87,0,3.36,1.5,3.36,3.36,0,1.74-1.5,3.24-3.36,3.24Z"/></svg>