<?xml version="1.0" encoding="UTF-8"?><svg id="Layer_1" xmlns="http://www.w3.org/2000/svg" viewBox="0 0 40 40"><defs><style>.cls-1{fill:none;}</style></defs><rect class="cls-1" x="0" width="40" height="40"/><path d="m15.62,24c-1.12,0-2-.88-2-2s.87-2,2-2,2,.88,2,2-.88,2-2,2Zm24.38-4c0,11-9,20-20,20S0,31,0,20,9,0,20,0s20,9,20,20Zm-10.62-3.38c-.75,0-1.38.37-1.88.75-1.75-1.25-4.25-2-7-2.13l1.38-6.38,4.5,1c0,1.12.88,2,2,2s2-.87,2-2-.88-2-2-2c-.75,0-1.5.5-1.75,1.12l-4.87-1.12c-.25-.13-.5.13-.5.38l-1.5,7c-2.63.13-5.13.88-6.88,2.13-.5-.5-1.12-.88-2-.88-2.88,0-3.75,3.75-1.12,5.13-.13.37-.13.88-.13,1.25,0,4.25,4.75,7.63,10.62,7.63s10.62-3.38,10.62-7.63c0-.37,0-.88-.13-1.25,2.25-1.25,1.38-5-1.38-5h0Zm-5.62,9.38c-1.5,1.5-6.12,1.5-7.5,0-.13-.13-.5-.13-.62,0-.25.25-.25.5,0,.75,1.88,1.88,7,1.88,8.88,0,.25-.13.25-.5,0-.75-.25-.12-.5-.12-.75,0Zm.62-6c-1.12,0-2,.88-2,2s.88,2,2,2,2-.88,2-2-.88-2-2-2Z"/></svg>