<?xml version="1.0" encoding="UTF-8"?><svg id="Layer_1" xmlns="http://www.w3.org/2000/svg" viewBox="0 0 40 40"><defs><style>.cls-1{fill:none;}</style></defs><rect class="cls-1" x="0" width="40" height="40"/><path d="m25.25,28.06c.25.25.25.62,0,.88-2.25,2.25-8.38,2.25-10.62,0-.25-.25-.25-.62,0-.88s.62-.25.75,0c1.62,1.75,7.25,1.75,9,0,.37-.25.75-.25.88,0Zm-8.12-4.75c0-1.38-1.12-2.37-2.37-2.37-1.38,0-2.37,1.12-2.37,2.37s1,2.37,2.37,2.37c1.37-.13,2.37-1.12,2.37-2.37Zm8.12-2.5c-1.25,0-2.37,1.12-2.37,2.37s1,2.37,2.37,2.37,2.37-1,2.37-2.37c0-1.25-1.12-2.37-2.37-2.37Zm14.75-16.5v31.37c0,2.38-1.88,4.25-4.25,4.25H4.25c-2.38.12-4.25-1.75-4.25-4.13V4.31C0,1.93,1.88.06,4.25.06h31.37c2.5,0,4.38,1.88,4.38,4.25Zm-8.88,12.62c-.88,0-1.75.37-2.25,1-2.13-1.5-5-2.5-8.25-2.5l1.62-7.5,5.25,1.25c0,1.25,1.12,2.37,2.37,2.37,1.38,0,2.37-1.12,2.37-2.37s-1-2.62-2.37-2.62c-.88,0-1.75.5-2.13,1.38l-5.87-1.25c-.25-.13-.62.13-.62.38l-1.88,8.25c-3.12.13-6,1.12-8.25,2.63-.62-.62-1.38-1-2.25-1-3.37,0-4.5,4.5-1.38,6-.13.5-.13,1-.13,1.5,0,5,5.75,9.12,12.63,9.12s12.75-4.12,12.75-9.12c0-.5,0-1-.25-1.5,3-1.63,1.88-6-1.38-6h0Z"/></svg>