<?xml version="1.0" encoding="UTF-8"?><svg id="Layer_1" xmlns="http://www.w3.org/2000/svg" viewBox="0 0 40 40"><defs><style>.cls-1{fill:none;}</style></defs><rect class="cls-1" x="0" width="40" height="40"/><path d="m26.62,22.25c2.63,0,6.38-.5,6.38-3.62,0-.5.13-.13-1.62-7.5-.37-1.5-.62-2.12-3.25-3.5-2-1-6.5-2.75-7.75-2.75s-1.62,1.63-3,1.63-2.5-1.12-3.75-1.12-2.12.87-2.75,2.62c-2.12,6-2,5.75-2,6.12,0,1.75,7.63,8.12,17.75,8.12m6.88-2.37c.37,1.75.37,1.88.37,2.13,0,3-3.25,4.63-7.63,4.63-9.87,0-18.37-5.75-18.37-9.5,0-.5.13-1,.38-1.5-3.62,0-8.25.62-8.25,4.75,0,6.62,15.62,14.75,28.12,14.75,9.5,0,11.88-4.25,11.88-7.75,0-2.62-2.25-5.75-6.5-7.5"/></svg>