<?xml version="1.0" encoding="UTF-8"?><svg id="Layer_1" xmlns="http://www.w3.org/2000/svg" viewBox="0 0 40 40"><defs><style>.cls-1{fill:none;}</style></defs><rect class="cls-1" x="0" width="40" height="40"/><path d="m14.98,38.65c-3.98,0-7.49-1.27-10.52-3.98C1.59,31.95,0,28.61,0,24.62s1.43-7.33,4.46-10.04c2.87-2.71,6.37-3.98,10.52-3.98h19.6l-6.69-6.69c-.32-.32-.48-.64-.48-1.12s.16-.8.48-1.12c.32-.32.8-.48,1.12-.48.48,0,.8.16,1.12.48l9.24,9.24c.16.16.32.48.48.64.16.16.16.48.16.8s0,.48-.16.8c-.16.32-.32.48-.48.64l-9.24,9.24c-.32.32-.64.48-1.12.48s-.8-.16-1.12-.48c-.32-.32-.48-.8-.48-1.12,0-.48.16-.8.48-1.12l6.69-6.69H14.98c-3.19,0-5.9.96-8.13,3.03s-3.35,4.62-3.35,7.65,1.12,5.58,3.35,7.65,4.94,3.03,8.13,3.03h16.73c.48,0,.96.16,1.12.48.32.32.48.64.48,1.27,0,.48-.16.96-.48,1.12-.32.32-.64.48-1.12.48-.16-.16-16.73-.16-16.73-.16Z"/></svg>