<?xml version="1.0" encoding="UTF-8"?><svg id="Layer_1" xmlns="http://www.w3.org/2000/svg" viewBox="0 0 40 40"><defs><style>.cls-1{fill:none;}</style></defs><rect class="cls-1" width="40" height="40"/><path d="m22.69,15.47l-3.23-3.23,1.48-3.63h-5.25l-4.3-4.3h24.75c.54,0,1.08.27,1.48.67s.67.94.67,1.48-.27,1.08-.67,1.48-.94.67-1.48.67h-10.49l-2.96,6.86Zm15.06,24.21l-17.75-17.75-4.44,10.49c-.13.4-.4.67-.81.94s-.81.4-1.21.4c-.81,0-1.35-.27-1.75-.94s-.54-1.35-.13-2.02l5.11-12.11L.36,2.42C.09,2.15-.04,1.75-.04,1.48-.04,1.08.09.81.36.54.77.13,1.04,0,1.44,0s.67.13.94.4l37.26,37.26c.27.27.4.54.4.94s-.13.67-.4.94-.67.4-.94.4c-.4.13-.67,0-.94-.27Z"/></svg>