<?xml version="1.0" encoding="UTF-8"?><svg id="Layer_1" xmlns="http://www.w3.org/2000/svg" viewBox="0 0 40 40"><defs><style>.cls-1{fill:none;}</style></defs><rect class="cls-1" width="40" height="40"/><path d="m38.46,35.31c-.42,0-.84-.14-.98-.42-.28-.28-.42-.56-.42-.98v-7.69c0-2.24-.7-4.06-2.24-5.59s-3.36-2.24-5.59-2.24H4.9l8.25,8.25c.28.28.42.56.42.98s-.14.7-.42.98-.7.42-.98.42c-.42,0-.7-.14-.98-.42L.56,18.25c-.14-.14-.28-.42-.42-.56,0-.28-.14-.56-.14-.84s0-.42.14-.7c.14-.14.28-.42.42-.56L11.05,5.1c.28-.28.56-.42.98-.42s.7.14.98.42.42.7.42.98c0,.42-.14.7-.42.98L4.9,15.45h24.2c2.94,0,5.45.98,7.69,3.08,2.1,2.1,3.22,4.62,3.22,7.69v7.69c0,.42-.14.84-.42.98-.42.42-.7.42-1.12.42Z"/></svg>