<?xml version="1.0" encoding="UTF-8"?><svg id="Layer_1" xmlns="http://www.w3.org/2000/svg" viewBox="0 0 40 40"><defs><style>.cls-1{fill:none;}</style></defs><rect class="cls-1" width="40" height="40"/><path d="m10.13,28.19L.5,18.56c-.12-.13-.25-.37-.38-.5-.12-.25-.12-.37-.12-.63s0-.37.12-.63c.12-.13.25-.37.38-.5L10.13,6.69c.25-.25.5-.38.87-.38s.63.13,1,.38c.25.25.38.63.38.87,0,.38-.13.63-.38,1L3.13,17.44l8.88,8.88c.25.25.38.5.38.88s-.13.63-.38.88-.63.37-.87.37c-.38.25-.63.13-1-.25Zm28.38,5.5c-.37,0-.75-.13-.88-.37-.25-.25-.37-.5-.37-.88v-6.38c0-2-.75-3.75-2.13-5.13-1.38-1.38-3.13-2.13-5.13-2.13h-15.62l7.63,7.63c.25.25.37.5.37.88s-.13.63-.37.88c-.25.25-.63.37-.88.37-.37,0-.63-.13-.88-.37l-9.63-9.62c-.13-.13-.25-.37-.38-.5-.13-.25-.13-.37-.13-.63s0-.37.13-.63c.13-.13.25-.37.38-.5l9.63-9.63c.25-.25.5-.38.88-.38s.63.13,1,.38c.25.25.37.63.37.87,0,.38-.13.63-.37,1l-7.63,7.63h15.63c2.75,0,5.12,1,7,2.87s2.87,4.25,2.87,7v6.38c0,.37-.12.75-.37.88-.37.37-.75.37-1.12.37Z"/></svg>