<?xml version="1.0" encoding="UTF-8"?><svg id="Layer_1" xmlns="http://www.w3.org/2000/svg" viewBox="0 0 40 40"><defs><style>.cls-1{fill:none;}</style></defs><rect class="cls-1" width="40" height="40"/><path d="m8.01,39.88c-.5,0-.87-.12-1.12-.5-.25-.25-.5-.75-.5-1.12v-13.33h-1.25c-.5,0-.87-.12-1.12-.5-.25-.25-.5-.75-.5-1.12v-9.97c0-1,.37-1.74,1-2.37s1.5-1,2.37-1h5.48c1,0,1.74.37,2.37,1s1,1.5,1,2.37v9.97c0,.5-.12.87-.5,1.12-.25.25-.75.5-1.12.5h-1.25v13.46c0,.5-.12.87-.5,1.12-.25.25-.75.5-1.12.5l-3.24-.12h0Zm20.44,0c-.5,0-.87-.12-1.12-.5-.25-.25-.5-.75-.5-1.12v-10.34h-3.12c-.5,0-1-.25-1.25-.62-.37-.37-.37-.87-.25-1.37l3.74-13.83c.25-.75.62-1.25,1.25-1.74.62-.37,1.25-.62,2.12-.62.75,0,1.5.25,2.12.62s1,1,1.25,1.74l3.74,13.83c.12.5,0,1-.25,1.37s-.75.62-1.25.62h-3.12v10.34c0,.5-.12.87-.5,1.12-.25.25-.75.5-1.12.5h-1.74ZM9.63,7.35c-1,0-1.87-.37-2.62-1.12-.62-.62-1-1.5-1-2.49s.37-1.87,1.12-2.62c.75-.75,1.62-1.12,2.62-1.12s1.87.37,2.62,1.12,1.12,1.62,1.12,2.62-.37,1.87-1.12,2.62c-.87.62-1.74,1-2.74,1Zm19.69,0c-1,0-1.87-.37-2.62-1.12-.75-.62-1.12-1.5-1.12-2.49s.37-1.87,1.12-2.62,1.62-1.12,2.62-1.12,1.87.37,2.62,1.12,1.12,1.62,1.12,2.62-.37,1.87-1.12,2.62c-.75.62-1.62,1-2.62,1Z"/></svg>