<?xml version="1.0" encoding="UTF-8"?><svg id="Layer_1" xmlns="http://www.w3.org/2000/svg" viewBox="0 0 40 40"><defs><style>.cls-1{fill:none;}</style></defs><rect class="cls-1" width="40" height="40"/><path d="m30.97,40c-.39,0-.65-.13-.9-.39s-.39-.52-.39-.9v-5.16h-5.16c-.39,0-.65-.13-.9-.39s-.39-.65-.39-.9c0-.39.13-.65.39-.9.26-.26.52-.39.9-.39h5.16v-5.16c0-.39.13-.65.39-.9.26-.26.65-.39.9-.39.39,0,.65.13.9.39.26.26.39.52.39.9v5.16h5.16c.39,0,.65.13.9.39.26.26.39.65.39.9,0,.39-.13.65-.39.9s-.52.39-.9.39h-5.16v5.16c0,.39-.13.65-.39.9-.13.26-.52.39-.9.39Zm0-21.16c-.39,0-.65-.13-.9-.39-.26-.26-.39-.52-.39-.9V1.29c0-.39.13-.65.39-.9C30.32.13,30.71,0,30.97,0,31.35,0,31.61.13,31.87.39c.26.26.39.52.39.9v16.13c0,.39-.13.65-.39.9-.13.39-.52.52-.9.52ZM2.58,33.55c-.39,0-.65-.13-.9-.39s-.39-.52-.39-.9V1.29c0-.39.13-.65.39-.9.13-.26.52-.39.9-.39s.65.13.9.39c.26.26.39.52.39.9v30.84c0,.39-.13.65-.39.9-.26.39-.52.52-.9.52ZM16.77,7.35c-.39,0-.65-.13-.9-.39s-.39-.52-.39-.9V1.29c0-.39.13-.65.39-.9C16.13.13,16.52,0,16.9,0s.65.13.9.39c.13.26.26.52.26.9v4.77c0,.39-.13.65-.39.9-.26.26-.52.39-.9.39Zm0,13.16c-.39,0-.65-.13-.9-.39-.26-.26-.39-.52-.39-.9v-4.77c0-.39.13-.65.39-.9.26-.26.65-.39,1.03-.39s.65.13.9.39c.26.26.39.52.39.9v4.77c0,.39-.13.65-.39.9-.39.26-.65.39-1.03.39Zm0,13.03c-.39,0-.65-.13-.9-.39s-.39-.52-.39-.9v-4.77c0-.39.13-.65.39-.9.26-.26.65-.39,1.03-.39s.65.13.9.39c.26.26.39.52.39.9v4.77c0,.39-.13.65-.39.9-.39.26-.65.39-1.03.39Z"/></svg>