<?xml version="1.0" encoding="UTF-8"?><svg id="Layer_1" xmlns="http://www.w3.org/2000/svg" viewBox="0 0 40 40"><defs><style>.cls-1{fill:none;}</style></defs><rect class="cls-1" width="40" height="40"/><path d="m3.66,39.55c-.99,0-1.83-.42-2.54-1.13s-1.13-1.55-1.13-2.54V12.51c0-3.52,1.27-6.62,3.8-9.15C6.34.82,9.3-.45,12.96-.45h14.08c3.52,0,6.62,1.27,9.15,3.8,2.54,2.54,3.8,5.49,3.8,9.15v23.38c0,.99-.42,1.83-1.13,2.54s-1.55,1.13-2.54,1.13H3.66Zm0-2.96h32.54c.14,0,.42,0,.56-.14s.14-.28.14-.56V12.51c0-2.82-.99-5.07-2.96-7.04s-4.23-2.96-7.04-2.96h-13.94c-2.82,0-5.07.99-7.04,2.96s-2.96,4.23-2.96,7.04v23.38c0,.14,0,.42.14.56.28,0,.42.14.56.14Zm9.3-17.89c-1.13,0-1.97-.42-2.68-1.13s-1.13-1.69-1.13-2.68c0-1.13.42-1.97,1.13-2.68s1.69-1.13,2.68-1.13c1.13,0,1.97.42,2.68,1.13s1.13,1.69,1.13,2.68c0,1.13-.42,1.97-1.13,2.68s-1.55,1.13-2.68,1.13Zm14.08,0c-1.13,0-1.97-.42-2.68-1.13s-1.13-1.69-1.13-2.68c0-1.13.42-1.97,1.13-2.68s1.69-1.13,2.68-1.13c1.13,0,1.97.42,2.68,1.13s1.13,1.69,1.13,2.68c0,1.13-.42,1.97-1.13,2.68s-1.55,1.13-2.68,1.13Zm-17.89,17.89v-5.35c0-.99.42-1.83,1.13-2.54s1.55-1.13,2.54-1.13h14.37c.99,0,1.83.42,2.54,1.13s1.13,1.55,1.13,2.54v5.35h-2.96v-5.35c0-.14,0-.42-.14-.56s-.28-.14-.56-.14h-5.77v6.2h-2.82v-6.2h-5.77c-.14,0-.42,0-.56.14-.14.14-.14.28-.14.56v5.35s-2.96,0-2.96,0Zm-5.49,0h33.24H2.96h.7Z"/></svg>