<?xml version="1.0" encoding="UTF-8"?><svg id="Layer_1" xmlns="http://www.w3.org/2000/svg" viewBox="0 0 40 40"><defs><style>.cls-1{fill:none;}</style></defs><rect class="cls-1" width="40" height="40"/><path d="m9.87,19.48c.66-1.32,1.45-2.63,2.1-3.95.79-1.32,1.58-2.5,2.5-3.68l-3.68-.79h-.26c-.13,0-.26.13-.26.13l-5.66,5.66v.13s0,.13.13.13l5.13,2.37ZM36.57,2.64c-3.55.26-6.71.92-9.47,2.24s-5.39,3.29-8.02,5.79c-1.45,1.45-2.63,3.03-3.95,4.74-1.18,1.84-2.24,3.68-3.03,5.52l6.71,6.71c1.84-.92,3.81-1.84,5.52-3.16s3.42-2.5,4.74-3.95c2.5-2.5,4.47-5.26,5.79-8.02s2.1-5.92,2.24-9.47v-.26c0-.13-.13-.13-.13-.26q-.13-.13-.26-.13c0,.39,0,.26-.13.26Zm-12.36,13.15c-.66-.66-1.05-1.58-1.05-2.5,0-1.05.39-1.84,1.05-2.5s1.58-1.05,2.5-1.05c1.05,0,1.84.39,2.5,1.05s1.05,1.58,1.05,2.5c0,1.05-.39,1.84-1.05,2.5s-1.58,1.05-2.5,1.05-1.84-.39-2.5-1.05Zm-3.68,14.34l2.24,5.26s0,.13.13.13h.13l5.66-5.66q.13-.13.13-.26v-.26l-.79-3.81c-1.18.92-2.37,1.71-3.68,2.5-1.18.66-2.5,1.32-3.81,2.1ZM39.99,1.72c0,4.08-.66,7.89-2.1,11.31-1.45,3.42-3.81,6.71-6.84,9.86l-.26.26-.26.26,1.05,5.26c.13.53.13,1.18-.13,1.71-.13.53-.39,1.05-.92,1.45l-6.84,6.97c-.39.39-.92.53-1.58.53-.66-.13-1.05-.39-1.18-1.05l-3.16-7.37-8.55-8.55-7.37-3.16c-.53-.26-.92-.66-1.05-1.32-.13-.66,0-1.05.53-1.58l6.84-6.84c.39-.39.92-.66,1.45-.92.53-.13,1.05-.13,1.71-.13l5.26,1.05q.13-.13.26-.26t.26-.26c3.03-3.03,6.31-5.39,9.73-6.84C30.26.67,34.07-.12,38.15.01c.26,0,.39,0,.66.13s.39.26.66.39c.13.13.26.39.39.53.13.26.13.39.13.66ZM3.43,28.56c1.05-1.05,2.37-1.58,3.95-1.58s2.89.53,3.95,1.58c1.05,1.05,1.58,2.37,1.58,3.95s-.53,2.89-1.58,3.95c-.79.79-2.24,1.58-3.95,2.1-1.84.53-4.21,1.05-7.37,1.45.26-3.16.66-5.66,1.18-7.37.66-1.84,1.32-3.29,2.24-4.08Zm1.84,1.97c-.53.53-.92,1.32-1.32,2.37s-.66,2.24-.92,3.68c1.45-.26,2.63-.53,3.68-.92s1.84-.79,2.37-1.32c.53-.53.79-1.18.92-1.97,0-.79-.26-1.45-.79-1.97-.53-.53-1.18-.79-1.97-.79s-1.32.39-1.97.92Z"/></svg>