<?xml version="1.0" encoding="UTF-8"?><svg id="Layer_1" xmlns="http://www.w3.org/2000/svg" viewBox="0 0 40 40"><defs><style>.cls-1{fill:none;}</style></defs><rect class="cls-1" width="40" height="40"/><path d="m12.9,39.86c-2.32,0-4.37-.82-6.01-2.46s-2.46-3.69-2.46-6.01V11.88c-1.37-.55-2.46-1.23-3.28-2.32S-.07,7.37-.07,6.01C-.07,4.37.48,2.87,1.71,1.77,2.94.55,4.3,0,5.94,0s3,.55,4.23,1.77c1.23,1.23,1.77,2.59,1.77,4.23,0,1.37-.41,2.46-1.23,3.55-.82,1.09-1.91,1.77-3.28,2.32v19.66c0,1.5.55,2.87,1.64,3.96,1.09,1.09,2.46,1.64,3.96,1.64s2.87-.55,3.96-1.64,1.64-2.46,1.64-3.96V8.46c0-2.32.82-4.37,2.46-6.01,1.64-1.64,3.55-2.46,6.01-2.46s4.37.82,6.01,2.46c1.64,1.64,2.46,3.55,2.46,6.01v19.66c1.37.55,2.46,1.23,3.28,2.32.82,1.09,1.23,2.18,1.23,3.55,0,1.64-.55,3-1.77,4.23-1.23,1.23-2.59,1.77-4.23,1.77s-3-.55-4.23-1.77c-1.23-1.23-1.77-2.59-1.77-4.23,0-1.37.41-2.46,1.23-3.55s1.91-1.77,3.28-2.32V8.46c0-1.5-.55-2.87-1.64-3.96-1.09-1.09-2.32-1.64-3.96-1.64-1.5,0-2.87.55-3.96,1.64-1.09,1.09-1.64,2.32-1.64,3.96v23.07c0,2.32-.82,4.37-2.46,6.01-1.64,1.5-3.69,2.32-6.01,2.32ZM5.94,9.15c.82,0,1.64-.27,2.18-.96.55-.68.96-1.37.96-2.18s-.27-1.64-.96-2.18c-.55-.55-1.37-.96-2.18-.96s-1.64.27-2.18.96c-.68.55-.96,1.37-.96,2.18s.27,1.64.96,2.18c.55.68,1.37.96,2.18.96Zm27.85,27.85c.82,0,1.64-.27,2.18-.96s.96-1.37.96-2.18-.27-1.64-.96-2.18c-.55-.55-1.37-.96-2.18-.96s-1.64.27-2.18.96c-.68.55-.96,1.37-.96,2.18s.27,1.64.96,2.18c.55.68,1.37.96,2.18.96Z"/></svg>