<?xml version="1.0" encoding="UTF-8"?>
<svg id="Capa_1" data-name="Capa 1" xmlns="http://www.w3.org/2000/svg" viewBox="0 0 40 40">
  <defs>
    <style>
      .cls-1 {
        fill: none;
      }
    </style>
  </defs>
  <rect class="cls-1" x="0" width="40" height="40"/>
  <path d="m35.71,0H4.29C1.92,0,0,1.92,0,4.29v31.43c0,2.37,1.92,4.29,4.29,4.29h31.43c2.37,0,4.29-1.92,4.29-4.29V4.29c0-2.37-1.92-4.29-4.29-4.29ZM10,34.29c-2.37,0-4.29-1.92-4.29-4.29s1.92-4.29,4.29-4.29,4.29,1.92,4.29,4.29-1.92,4.29-4.29,4.29Zm14.07,0h-3.07c-.54,0-.99-.41-1.02-.95-.47-7.15-6.18-12.85-13.31-13.31-.54-.03-.95-.48-.95-1.02v-3.07c0-.58.49-1.05,1.07-1.02,9.87.53,17.77,8.44,18.3,18.3.03.58-.44,1.07-1.02,1.07h0Zm9.2,0h-3.07c-.55,0-1-.44-1.02-.99-.5-12.19-10.29-21.98-22.48-22.48-.55-.02-.99-.47-.99-1.02v-3.07c0-.58.48-1.04,1.05-1.02,14.98.54,26.98,12.61,27.52,27.52.02.58-.44,1.05-1.02,1.05h0Z"/>
</svg>