<?xml version="1.0" encoding="UTF-8"?><svg id="Layer_1" xmlns="http://www.w3.org/2000/svg" viewBox="0 0 40 40"><defs><style>.cls-1{fill:none;}</style></defs><rect class="cls-1" width="40" height="40"/><path d="m4.59,40c-1.19,0-2.37-.44-3.26-1.33-.89-.89-1.33-1.93-1.33-3.26s.44-2.37,1.33-3.26,1.93-1.33,3.26-1.33,2.37.44,3.26,1.33c.89.89,1.33,1.93,1.33,3.26,0,1.19-.44,2.37-1.33,3.26s-2.07,1.33-3.26,1.33Zm33.19,0c-.59,0-1.19-.15-1.63-.59-.44-.44-.74-1.04-.74-1.63-.3-4.44-1.33-8.59-3.11-12.44s-4.15-7.26-7.11-10.22c-2.96-2.96-6.37-5.33-10.22-7.11s-8-2.81-12.44-3.11c-.59,0-1.19-.3-1.63-.74-.44-.44-.59-1.04-.59-1.63s.3-1.19.74-1.63C1.19.15,1.78,0,2.37,0c5.04.3,9.78,1.48,14.22,3.56s8.3,4.74,11.7,8.15c3.41,3.41,6.07,7.26,8.15,11.7s3.26,9.19,3.56,14.22c0,.59-.15,1.19-.59,1.63-.3.44-.89.74-1.63.74Zm-14.67,0c-.59,0-1.19-.15-1.63-.59-.44-.44-.74-1.04-.89-1.63-.44-5.04-2.37-9.19-5.78-12.74-3.41-3.41-7.56-5.33-12.59-5.93-.59-.15-1.19-.3-1.63-.74C.15,17.93,0,17.33,0,16.74s.3-1.19.74-1.63c.44-.44,1.04-.59,1.63-.59,6.22.44,11.56,2.96,15.85,7.26s6.67,9.63,7.11,15.85c.15.59-.15,1.19-.59,1.63-.44.44-1.04.74-1.63.74Z"/></svg>