<?xml version="1.0" encoding="UTF-8"?><svg id="Layer_1" xmlns="http://www.w3.org/2000/svg" viewBox="0 0 40 40"><defs><style>.cls-1{fill:none;}</style></defs><rect class="cls-1" width="40" height="40"/><path d="m10.56,40c-.42,0-.7-.14-.99-.42s-.42-.56-.42-.99v-5.63h-3.52c-.42,0-.7-.14-.99-.42-.28-.28-.42-.7-.42-.99,0-.42.14-.7.42-.99.28-.56.56-.7.99-.7h3.52v-6.48h-3.52c-.42,0-.7-.14-.99-.42-.28-.28-.42-.7-.42-.99,0-.42.14-.7.42-.99s.56-.42.99-.42h3.52V1.83c0-.56.14-.99.56-1.27.28-.28.85-.56,1.27-.56h13.1c3.38,0,6.2,1.13,8.31,3.38,2.25,2.25,3.38,5.07,3.38,8.45s-1.13,6.2-3.38,8.31c-2.25,2.25-5.07,3.38-8.31,3.38h-11.97v6.34h8.17c.42,0,.7.14.99.42.28.28.42.7.42,1.13s-.14.7-.42.99-.56.42-.99.42h-8.17v5.63c0,.42-.14.7-.42.99-.28.42-.7.56-1.13.56Zm1.55-19.44h12.11c2.54,0,4.65-.85,6.34-2.54,1.69-1.69,2.54-3.8,2.54-6.34s-.85-4.65-2.54-6.34c-1.69-1.69-3.8-2.54-6.34-2.54h-12.11v17.75Z"/></svg>