<?xml version="1.0" encoding="UTF-8"?><svg id="Layer_1" xmlns="http://www.w3.org/2000/svg" viewBox="0 0 40 40"><defs><style>.cls-1{fill:none;}</style></defs><rect class="cls-1" width="40" height="40"/><path d="m8.45,3.28c0-.88.38-1.64,1.01-2.27s1.39-1.01,2.27-1.01h16.53c.88,0,1.64.38,2.27,1.01s1.01,1.39,1.01,2.27v33.44c0,.88-.38,1.64-1.01,2.27s-1.39,1.01-2.27,1.01H11.74c-.88,0-1.64-.38-2.27-1.01s-1.01-1.39-1.01-2.27c0-.13,0-33.44,0-33.44Zm2.65,0v33.44c0,.13.13.25.25.5.13.13.25.25.5.25h16.53c.13,0,.25-.13.5-.25.13-.13.25-.25.25-.5v-6.44h-8.08v-2.78h8.08v-6.31h-8.08v-2.52h8.08v-6.31h-8.08v-2.65h8.08V3.28c0-.13-.13-.25-.25-.5-.13-.13-.25-.25-.5-.25H11.74c-.13,0-.25.13-.5.25,0,.13-.13.25-.13.5Zm9.72,6.44v2.65-2.65Zm0,8.96v2.52-2.52Zm0,8.83v2.65-2.65Z"/></svg>