<?xml version="1.0" encoding="UTF-8"?><svg id="Layer_1" xmlns="http://www.w3.org/2000/svg" viewBox="0 0 40 40"><defs><style>.cls-1{fill:none;}</style></defs><rect class="cls-1" width="40" height="40"/><path d="m16.51,39.04c-.6.6-1.33.96-2.17.96s-1.57-.36-2.17-.96L.96,27.83c-.6-.6-.96-1.33-.96-2.17s.24-1.57.96-2.17L23.49.96c.6-.6,1.33-.96,2.17-.96s1.57.36,2.17.96l11.2,11.2c.6.6.96,1.33.96,2.17s-.36,1.57-.96,2.17l-22.53,22.53Zm-1.81-1.69l22.53-22.53c.12-.12.12-.24.12-.48s0-.36-.12-.48L26.02,2.65c-.12-.12-.24-.12-.48-.12s-.36,0-.48.12l-4.34,4.34,5.42,5.42-1.81,1.81-5.42-5.42-4.22,4.22,5.42,5.42-1.81,1.81-5.42-5.42-4.22,4.22,5.42,5.42-1.81,1.81-5.42-5.42-4.34,4.34c-.12.12-.12.24-.12.48s0,.36.12.48l11.2,11.2c.12.12.24.12.48.12s.48-.12.48-.12Zm-2.17-10.96l1.81-1.81-1.81,1.81Zm6.02-6.02l1.81-1.81-1.81,1.81Zm6.02-6.02l1.81-1.81-1.81,1.81Z"/></svg>