<?xml version="1.0" encoding="UTF-8"?><svg id="Layer_1" xmlns="http://www.w3.org/2000/svg" viewBox="0 0 40 40"><defs><style>.cls-1{fill:none;}</style></defs><rect class="cls-1" width="40" height="40"/><path d="m3.28,31.61c-.88,0-1.64-.38-2.27-1.01s-1.01-1.39-1.01-2.27V11.67c0-.88.38-1.64,1.01-2.27s1.39-1.01,2.27-1.01h33.44c.88,0,1.64.38,2.27,1.01s1.01,1.39,1.01,2.27v16.53c0,.88-.38,1.64-1.01,2.27s-1.39,1.01-2.27,1.01c-.13.13-33.44.13-33.44.13Zm0-2.65h33.44c.13,0,.25-.13.5-.25.13-.13.25-.25.25-.5V11.67c0-.13-.13-.25-.25-.5-.13-.13-.25-.25-.5-.25h-6.44v8.08h-2.78v-8.08h-6.31v8.08h-2.52v-8.08h-6.31v8.08h-2.65v-8.08H3.28c-.13,0-.25.13-.5.25-.13.13-.25.25-.25.5v16.53c0,.13.13.25.25.5.13.13.25.25.5.25Zm6.44-9.72h2.65-2.65Zm8.96,0h2.52-2.52Zm8.83,0h2.65-2.65Z"/></svg>