<?xml version="1.0" encoding="UTF-8"?><svg id="Layer_1" xmlns="http://www.w3.org/2000/svg" viewBox="0 0 40 40"><defs><style>.cls-1{fill:none;}</style></defs><rect class="cls-1" width="40" height="40"/><path d="m24.89,40c-.14,0-.43,0-.57-.14-.14,0-.28-.14-.57-.28l-14.04-14.61c-.14-.14-.43-.43-.57-.85-.14-.43-.14-.71-.14-.99,0-.71.28-1.28.71-1.7.43-.43.99-.71,1.7-.71h4.96c2.27,0,4.4-.71,6.24-2.27,1.84-1.42,2.84-3.55,2.98-6.24H7.87c-.43,0-.85-.14-.99-.43-.28-.28-.43-.57-.43-1.13,0-.43.14-.85.43-.99.28-.28.57-.43.99-.43h17.45c-.57-1.84-1.56-3.4-3.26-4.54-1.7-1.28-3.55-1.84-5.67-1.84H7.87c-.43,0-.85-.14-.99-.43-.28-.28-.43-.57-.43-.99s.14-.85.43-.99c.28-.28.57-.43.99-.43h24.26c.43,0,.85.14.99.43.28.28.43.57.43,1.13,0,.43-.14.85-.43.99-.28.28-.57.43-.99.43h-7.66c.99.71,1.84,1.7,2.55,2.84s1.28,2.41,1.42,3.55h3.69c.43,0,.85.14.99.43.28.28.43.57.43.99s-.14.85-.43.99c-.28.28-.57.43-.99.43h-3.55c-.14,3.4-1.42,6.24-3.83,8.37s-5.11,3.12-8.37,3.12h-3.83l13.33,13.9c.43.43.57.99.28,1.56-.14.57-.57.85-1.28.85Z"/></svg>