<?xml version="1.0" encoding="UTF-8"?>
<svg id="Capa_1" data-name="Capa 1" xmlns="http://www.w3.org/2000/svg" viewBox="0 0 40 40">
  <defs>
    <style>
      .cls-1 {
        fill: none;
      }
    </style>
  </defs>
  <rect class="cls-1" x="0" width="40" height="40"/>
  <path d="m20,27.1l2.3,2.3c.2.2.43.3.7.3s.5-.1.7-.3l2.3-2.3.9.9c.3.3.65.45,1.05.45s.75-.15,1.05-.45.45-.65.45-1.05-.15-.75-.45-1.05l-2.3-2.3c-.2-.2-.43-.3-.7-.3s-.5.1-.7.3l-2.3,2.3-2.3-2.3c-.2-.2-.43-.3-.7-.3s-.5.1-.7.3l-2.3,2.3-2.3-2.3c-.2-.2-.43-.3-.7-.3s-.5.1-.7.3l-2.3,2.3c-.3.3-.45.65-.45,1.05s.15.75.45,1.05.65.45,1.05.45.75-.15,1.05-.45l.9-.9,2.3,2.3c.2.2.43.3.7.3s.5-.1.7-.3l2.3-2.3Zm-7.05-11.1l-2.6,1.9c-.33.27-.54.6-.62,1s0,.77.27,1.1.6.54,1,.62.77,0,1.1-.27l4.85-3.55c.27-.2.4-.47.4-.8s-.13-.6-.4-.8l-4.85-3.55c-.33-.27-.7-.36-1.1-.27s-.73.29-1,.62-.37.7-.3,1.1.28.73.65,1l2.6,1.9Zm14.1,0l2.6-1.9c.33-.27.54-.6.62-1s0-.77-.27-1.1-.6-.54-1-.62-.77,0-1.1.27l-4.85,3.55c-.27.2-.4.47-.4.8s.13.6.4.8l4.85,3.55c.33.27.7.36,1.1.27s.73-.29,1-.62.37-.7.3-1.1-.28-.73-.65-1l-2.6-1.9Zm-7.05,24c-2.77,0-5.37-.52-7.8-1.57s-4.55-2.48-6.35-4.28-3.23-3.92-4.28-6.35S0,22.77,0,20s.52-5.37,1.57-7.8,2.48-4.55,4.28-6.35,3.92-3.23,6.35-4.28,5.03-1.57,7.8-1.57,5.37.52,7.8,1.57,4.55,2.48,6.35,4.28,3.23,3.92,4.28,6.35,1.57,5.03,1.57,7.8-.52,5.37-1.57,7.8-2.48,4.55-4.28,6.35-3.92,3.23-6.35,4.28-5.03,1.57-7.8,1.57Zm0-4c4.47,0,8.25-1.55,11.35-4.65s4.65-6.88,4.65-11.35-1.55-8.25-4.65-11.35-6.88-4.65-11.35-4.65-8.25,1.55-11.35,4.65-4.65,6.88-4.65,11.35,1.55,8.25,4.65,11.35,6.88,4.65,11.35,4.65Z"/>
</svg>