<?xml version="1.0" encoding="UTF-8"?><svg id="Layer_1" xmlns="http://www.w3.org/2000/svg" viewBox="0 0 40 40"><defs><style>.cls-1{fill:none;}</style></defs><rect class="cls-1" width="40" height="40"/><path d="m21.5,21.5l-3-3-5.75,8.75,8.75-5.75ZM20,0C9,0,0,9,0,20s9,20,20,20,20-9,20-20S31,0,20,0Zm12.63,14.13l1.25-.5c.37-.13.75,0,.88.38h0c.13.38,0,.75-.37.87h0l-1.25.5c-.37.13-.75,0-.88-.37h0c-.13-.38,0-.75.37-.88Zm-7.88-7.25l.5-1.25c.13-.38.5-.5.88-.38h0c.37.13.5.5.37.87l-.5,1.25c-.13.38-.5.5-.88.38h0c-.37-.12-.5-.5-.37-.87h0Zm-4.75-2.62h0c.37,0,.62.25.62.62v1.25c0,.38-.25.62-.62.62h0c-.37,0-.62-.25-.62-.62v-1.25c0-.37.25-.62.62-.62Zm-6,1.13c.38-.13.75,0,.87.38h0l.5,1.25c.13.38,0,.75-.38.87-.38.13-.75,0-.87-.38h0l-.5-1.25c-.12-.38,0-.75.38-.87Zm-5.12,3.5h0c.25-.25.62-.25.87,0l.87.87c.25.25.25.62,0,.87h0c-.25.25-.62.25-.87,0l-.87-.87c-.25-.25-.25-.62,0-.87h0Zm-4.63,11.12h0c0-.37.25-.62.62-.62h1.25c.38,0,.62.25.62.62h0c0,.37-.25.62-.62.62h-1.25c-.37,0-.62-.25-.62-.62Zm3.12,5.88l-1.25.5c-.38.13-.75,0-.87-.37h0c-.13-.37,0-.75.38-.88h0l1.25-.5c.38-.13.75,0,.87.37h0c.13.37,0,.75-.38.88Zm.38-11h0c-.13.37-.5.5-.87.37h0l-1.25-.5c-.38-.13-.5-.5-.38-.87h0c.13-.38.5-.5.87-.38l1.25.5c.38.25.5.63.38.88h0Zm7.5,18.25l-.5,1.25c-.13.37-.5.5-.87.37s-.5-.5-.38-.88l.5-1.25c.13-.37.5-.5.87-.37s.5.5.38.88q0-.13,0,0Zm5.37,2c0,.37-.25.62-.62.62h0c-.37,0-.62-.25-.62-.62v-1.25c0-.37.25-.62.62-.62h0c.37,0,.62.25.62.62v1.25Zm5.37-.5h0c-.37.13-.75,0-.88-.37h0l-.5-1.25c-.13-.37,0-.75.37-.88h0c.37-.13.75,0,.88.37l.5,1.25c.13.37,0,.75-.37.88Zm5.13-3.5h0c-.25.25-.62.25-.88,0l-.88-.88c-.25-.25-.25-.62,0-.88h0c.25-.25.62-.25.88,0l.88.88c.25.25.25.63,0,.88h0Zm-8.62-8.62l-14.13,9.25,9.13-14.25,14.12-9.25-9.12,14.25Zm12.13,3.5h0c-.13.37-.5.5-.88.37l-1.25-.5c-.37-.13-.5-.5-.37-.88h0c.13-.37.5-.5.88-.37h0l1.25.5c.37.25.5.63.37.88Zm.5-5.37h-1.25c-.37,0-.62-.25-.62-.62h0c0-.37.25-.62.62-.62h1.25c.37,0,.62.25.62.62h0c0,.37-.25.62-.62.62Z"/></svg>