<?xml version="1.0" encoding="UTF-8"?><svg id="Layer_1" xmlns="http://www.w3.org/2000/svg" viewBox="0 0 40 40"><defs><style>.cls-1{fill:none;}</style></defs><rect class="cls-1" width="40" height="40"/><path d="m15.52,19.44h-1.62c0-.37.25-.87.87-.87.37,0,.75.25.75.87Zm8.62-.87s-.87-.12-.87,1.25.87,1.25.87,1.25c.87,0,.87-.87.87-1.25,0-1.37-.87-1.25-.87-1.25h0Zm-15.24,1.5c-.12.12-.25.25-.25.5s.12.37.25.5c.25.25,1,.12,1.25,0v-1c-.25-.12-1-.25-1.25,0Zm31.1-1.5c0,5.5-5,9.62-10.37,8.49-1.12,2.12-4.37,4.37-8.24,2.62-2.62,6-11.12,5.75-13.36-.37-7.49,1.5-11.12-8.62-4.75-12.49-2.12-5,1.37-10.87,7.12-10.87,2.37,0,4.75,1.12,6.12,3,1.25-1.37,3.12-2.12,5.12-2.12,2.62,0,5,1.5,6.12,3.62,6-2.37,12.24,2,12.24,8.12Zm-32.47,2c0-.75-.75-1-1.12-1.12-.37-.12-.87-.25-.87-.5,0-.62,1.12-.37,1.62-.12h.12s.12-.37.12-.5v-.12c-.75-.5-2.5-.5-2.5.75,0,.75.75,1,1.12,1.12.25.12.87.12.87.5,0,.25-.25.5-.62.5s-.87-.12-1.25-.37h-.12l-.12.5v.12c.12.12.62.37,1.37.37.87,0,1.37-.37,1.37-1.12h0Zm2-2.62c-.62,0-1.12.25-1.37.37v.12h0l.12.5h.12s.37-.25,1-.25c.25,0,.5,0,.62.12.25.12.25.5.25.62-.25,0-1.25-.25-1.87.25-.25.25-.5.5-.5.87s.12.62.37.87c.75.5,2.25.12,2.37.12s.25,0,.25-.12v-2.12c.12-.37.12-1.37-1.37-1.37h0Zm3-1.37s-.12,0,0,0q-.12,0,0,0l-.75-.12s-.12,0-.12.12h0v5s0,.12.12.12h.62s.12,0,.12-.12h0v-5Zm3.37,1.87c-.12-.12-.37-.5-1.12-.5-.25,0-.87,0-1.25.5s-.37,1.12-.37,1.37,0,.87.5,1.37c.12.12.62.5,1.37.5.62,0,1-.12,1.12-.25v-.12l-.12-.37h-.12c-.12,0-.37.12-1,.12-1.12,0-1-.87-1-1h2.5c-.12-.12,0-1-.5-1.62h0Zm2.37,3.25c.87,0,1.37-.5,1.37-1.12,0-.75-.75-1-1.12-1.12-.25-.12-.87-.25-.87-.5s.25-.37.5-.37c.37,0,.75.12,1,.25h.12s.12-.37.12-.5v-.12c-.5-.25-1-.25-1.25-.25-.75,0-1.25.5-1.25,1.12,0,.75.75,1,1.12,1.12s.87.25.87.5-.25.5-.62.5-.87-.12-1.25-.37h-.12l-.12.5v.12c.12,0,.75.25,1.5.25h0Zm4.12-3.62s-.12,0,0,0l-.75-.12s0-.5.25-.75.75-.12.75-.12h.12l.12-.5v-.12c-.37,0-1.12-.12-1.62.37-.37.37-.5.87-.5,1.25h-.5s-.12,0-.12.12l-.12.5s0,.12.12.12h.5c-.5,3-.5,3.12-.62,3.5,0,0-.12.25-.37.25,0,0-.25.12-.62,0h-.12s-.12.37-.12.5v.12c.37.12.87.12,1.12,0,.37-.12.62-.5.75-.75.12-.5.12-.62.75-3.75h.75s.12,0,.12-.12l.12-.5Zm3.25,1c0-.12-.37-1.12-1.62-1.12-1,0-1.5.62-1.62,1.12-.12.25-.25.87,0,1.5,0,0,.25,1.12,1.62,1.12.87,0,1.37-.62,1.62-1.12.25-.62.12-1.25,0-1.5h0Zm2.87-1c-.25-.12-1-.12-1.37.37v-.25s0-.12-.12-.12h-.62s-.12,0-.12.12h0v3.5s0,.12.12.12h.62s.12,0,.12-.12h0v-1.75c0-.12,0-.75.25-1,.25-.25.75-.25.87-.25h.12c0-.25.12-.37.12-.62h0Zm2.87,3.37l-.12-.5c0-.12-.12,0-.12,0-.25.12-.62.12-.75.12-.25,0-1.12-.12-1.12-1.25,0-.37.12-1.25,1-1.25.25,0,.5,0,.75.12h.12c0-.12.12-.25.12-.5v-.12c-.75-.25-1.37-.12-1.75,0-.12,0-1,.37-1,1.75,0,.12,0,1.87,1.75,1.87.5,0,.87,0,1.12-.25h0Zm3.37-2.5c0-.12-.37-1-1.37-1s-1.5.62-1.62,1.12c-.12.25-.12.5-.12.75,0,1.62,1.12,1.87,1.87,1.87.62,0,1-.12,1.12-.25v-.12l-.12-.37h-.12c-.12,0-.37.12-1,.12-.87,0-.87-1-.87-1.12h2.5c-.12,0-.12-.5-.25-1h0Zm-1.37-.37c-.62,0-.87.62-.87.87h1.62c0-.75-.5-.87-.75-.87h0Z"/></svg>