<?xml version="1.0" encoding="UTF-8"?><svg id="Layer_1" xmlns="http://www.w3.org/2000/svg" viewBox="0 0 40 40"><defs><style>.cls-1{fill:none;}</style></defs><rect class="cls-1" width="40" height="40"/><path d="m18.96,27.65h0Zm15.35-5.45c-1.24,0-2.48.25-3.59.87-.25-.74-.74-1.36-.74-1.86-.12-.62-.12-.87-.12-1.61.12-.62.5-1.61.5-1.73s-.12-.37-.87-.37-1.49.12-1.61.37c-.12.37-.25.74-.37,1.24-.12.74-1.61,3.34-2.48,4.7-.25-.5-.5-.99-.5-1.36-.12-.62-.12-.87-.12-1.61.12-.62.5-1.61.5-1.73s-.12-.37-.87-.37-1.49.12-1.61.37c-.12.25-.12.74-.37,1.24-.12.5-2.1,4.83-2.6,5.94-.25.62-.5.99-.62,1.36v.12s0-.12,0,0c-.12.25-.25.37-.25.37h0c-.12.25-.25.37-.25.37,0,0-.12-.5,0-1.24.25-1.49.99-3.84.99-3.96,0,0,.12-.5-.5-.62-.62-.25-.74.12-.87.12s-.12.12-.12.12c0,0,.62-2.6-1.24-2.6-1.11,0-2.72,1.24-3.47,2.35-.5.25-1.61.87-2.72,1.49-.37.25-.87.5-1.24.74,0,0,0-.12-.12-.12-2.23-2.35-6.31-4.08-6.19-7.18.12-1.11.5-4.21,7.92-7.92,6.07-2.97,10.89-2.23,11.76-.37,1.24,2.6-2.6,7.55-8.91,8.29-2.35.25-3.71-.62-3.96-.99q-.37-.37-.5-.37c-.25.12-.12.5,0,.62.25.5.99,1.36,2.23,1.73,1.11.37,3.96.62,7.43-.74,3.84-1.49,6.81-5.57,5.94-9.04s-6.68-4.58-12.13-2.72c-3.22,1.11-6.81,2.97-9.28,5.32C.39,14.28-.11,16.75.02,17.74c.74,3.59,5.69,6.07,7.8,7.8-.12,0-.25.12-.25.12-.99.5-4.83,2.48-5.82,4.58-1.11,2.35.12,4.08.99,4.33,2.6.74,5.2-.62,6.68-2.72s1.24-4.95.62-6.19h0c.25-.12.5-.37.74-.5.5-.25.99-.62,1.49-.87-.25.62-.37,1.49-.5,2.6-.12,1.36.5,3.09,1.24,3.84.37.25.74.37.99.37.87,0,1.24-.74,1.61-1.61.5-.99.99-2.23.99-2.23,0,0-.62,3.22.99,3.22.62,0,1.11-.74,1.49-1.11h0v-.12l.12-.12h0c.25-.37.74-1.36,1.49-2.85.99-1.98,1.98-4.46,1.98-4.46.12.5.25,1.11.37,1.61.12.62.5,1.24.87,1.86-.25.37-.37.5-.37.5h0c-.25.25-.37.5-.62.74-.74.99-1.73,1.98-1.86,2.35s-.12.62.12.87c.25.12.62.25.99.12.74,0,1.24-.25,1.49-.37.5-.12.87-.37,1.24-.62.74-.62,1.24-1.36,1.24-2.48,0-.62-.25-1.24-.5-1.73.12-.12.12-.25.25-.37,1.24-1.73,2.23-3.71,2.23-3.71.12.5.25,1.11.37,1.61.12.5.5,1.11.74,1.61-1.11.99-1.86,1.98-2.1,2.72-.5,1.36-.12,1.86.62,2.1.25.12.74-.12,1.11-.25.5-.12.99-.37,1.36-.74.74-.62,1.49-1.36,1.49-2.48,0-.5-.12-.99-.37-1.49.99-.37,2.23-.62,3.84-.5,3.47.37,4.08,2.6,3.96,3.47s-.87,1.36-1.11,1.61c-.25.12-.37.25-.25.37,0,.12.12.12.37.12s1.86-.74,1.86-2.35c0-1.86-2.1-4.21-5.69-4.21h0ZM7.82,31.24c-1.11,1.24-2.72,1.73-3.47,1.36-.74-.37-.5-2.23.99-3.59.87-.87,1.98-1.61,2.72-1.98.12-.12.37-.25.74-.37h.12l.12-.12c.5,1.73,0,3.34-1.24,4.7h0Zm8.29-5.69c-.37.99-1.24,3.47-1.73,3.34-.5-.12-.74-1.98-.12-3.84.37-.99.99-2.1,1.36-2.48.62-.74,1.36-.87,1.49-.62.25.25-.74,2.97-.99,3.59h0Zm6.93,3.22c-.12.12-.37.12-.37.12l.12-.12s.87-.87,1.24-1.36c.25-.25.37-.5.62-.87v.12c-.12,1.11-1.24,1.86-1.61,2.1h0Zm5.2-1.11c-.12-.12-.12-.37.37-1.24.12-.37.5-.99,1.24-1.49.12.25.12.5.12.62-.12,1.36-1.11,1.86-1.73,2.1h0Z"/></svg>