<?xml version="1.0" encoding="UTF-8"?><svg id="Layer_1" xmlns="http://www.w3.org/2000/svg" viewBox="0 0 40 40"><defs><style>.cls-1{fill:none;}</style></defs><rect class="cls-1" x="0" y="0" width="40" height="40"/><path d="m25.91,40c-.32,0-.54-.11-.75-.32s-.32-.54-.32-.86.11-.54.32-.75c.22-.22.43-.32.75-.32,3.12-.22,5.81-1.51,8.06-3.76,2.26-2.26,3.44-4.95,3.76-8.06,0-.32.22-.65.43-.75.22-.22.43-.32.75-.32s.54.11.75.32c.22.22.32.54.32.75-.32,3.76-1.72,6.99-4.41,9.68s-5.91,4.09-9.68,4.41Zm.11-5.81c-.32.11-.65,0-.86-.22-.22-.22-.32-.54-.32-.86s.11-.54.32-.75c.22-.22.43-.32.75-.43,1.51-.22,2.9-.97,3.98-2.04s1.83-2.47,2.04-3.98c.11-.32.22-.54.43-.75.22-.22.43-.32.75-.32s.65.11.86.32c.22.22.32.54.22.86-.32,2.15-1.18,3.98-2.69,5.48s-3.44,2.47-5.48,2.69Zm-16.34,4.41c-.32,0-.65-.11-1.08-.22-.32-.11-.65-.32-.86-.54L.75,30.86c-.22-.22-.43-.54-.54-.86s-.22-.65-.22-1.08c0-.32.11-.75.22-1.08.11-.32.32-.65.54-.86l5.91-5.91c.54-.43,1.18-.65,1.94-.65s1.4.22,1.94.75l2.8,2.69,2.04-2.04-2.69-2.69c-.54-.54-.75-1.18-.75-1.94s.22-1.4.75-1.94l2.58-2.58c.54-.54,1.18-.75,1.94-.75s1.4.22,1.94.75l2.69,2.69,2.04-2.04-2.69-2.69c-.54-.54-.75-1.18-.75-1.94s.22-1.4.75-1.94L27.1.86c.22-.22.54-.43.86-.65S28.6,0,29.03,0C29.35,0,29.68.11,30,.22s.65.32.86.54l6.99,6.99c.22.22.43.54.54.86s.22.65.22,1.08c0,.32-.11.65-.22,1.08-.11.32-.32.65-.54.86l-5.91,5.91c-.65.65-1.29.86-1.94.86s-1.29-.32-1.94-.86l-2.69-2.69-2.04,2.04,2.69,2.69c.54.54.75,1.18.75,1.94s-.32,1.4-.75,1.94l-2.58,2.58c-.54.54-1.18.75-1.94.75s-1.4-.22-1.94-.75l-2.69-2.69-2.04,2.04,2.69,2.8c.54.54.75,1.18.75,1.94s-.22,1.4-.75,1.94l-5.91,5.91c-.22.22-.54.43-.86.54-.32,0-.65.11-1.08.11Zm-.22-2.26c.11.11.22.11.32.11s.22,0,.32-.11l2.15-2.15-7.63-7.74-2.15,2.15c-.11.11-.11.22-.11.32s0,.22.11.32l6.99,7.1h0Zm4.3-3.76l2.15-2.15c.11-.11.11-.22.11-.32s0-.22-.11-.32l-6.99-6.99c-.11-.11-.22-.22-.32-.22s-.22,0-.32.11l-2.15,2.15,7.63,7.74h0Zm7.42-8.06c.11.11.22.11.32.11s.22,0,.32-.11l2.58-2.58c.11-.11.11-.22.11-.32s0-.22-.11-.32l-6.99-6.99c-.11-.11-.22-.11-.32-.11s-.22,0-.32.11l-2.58,2.58c-.11.11-.11.22-.11.32s0,.22.11.32l6.99,6.99Zm8.49-8.6c.11.11.22.11.32.11s.22,0,.32-.11l2.15-2.15-7.63-7.63-2.15,2.15c-.11.11-.11.22-.11.32s0,.22.11.32c0,0,6.99,6.99,6.99,6.99Zm4.41-3.66l2.15-2.15c.11-.11.11-.22.11-.32s0-.22-.11-.32l-6.99-6.99c-.11-.11-.22-.11-.32-.11s-.22,0-.32.11l-2.15,2.15s7.63,7.63,7.63,7.63Z"/></svg>