<?xml version="1.0" encoding="UTF-8"?><svg id="Layer_1" xmlns="http://www.w3.org/2000/svg" viewBox="0 0 40 40"><defs><style>.cls-1{fill:none;}</style></defs><rect class="cls-1" width="40" height="40"/><path d="m6.41,18.45c3.24-.14,6.06-1.41,8.31-3.66s3.52-5.07,3.66-8.31h-2.54c-.14,2.54-1.13,4.65-2.96,6.48s-3.94,2.68-6.48,2.96c0-.14,0,2.54,0,2.54Zm0-7.32c1.27-.14,2.39-.56,3.38-1.55.99-.85,1.41-1.97,1.55-3.24h-4.93s0,4.79,0,4.79Zm-2.68,28.87c-.99,0-1.83-.42-2.54-1.13s-1.13-1.55-1.13-2.54V3.66C.07,2.68.49,1.83,1.19,1.13S2.74,0,3.73,0h32.54c.99,0,1.83.42,2.54,1.13s1.13,1.55,1.13,2.54v32.54c0,.99-.42,1.83-1.13,2.54s-1.55,1.13-2.54,1.13c.14.14-32.54.14-32.54.14Zm0-2.96h32.54c.14,0,.28-.14.56-.28.14-.14.28-.28.28-.56V3.66c0-.14-.14-.28-.28-.56-.14-.14-.28-.28-.56-.28H3.73c-.14.14-.28.28-.42.42-.14.14-.28.28-.28.42v32.54c0,.14.14.28.28.56.14.14.28.28.42.28Zm-.7,0V2.96v34.08Zm6.48-5.77h21.41c.42,0,.56-.14.85-.56.14-.28.14-.7-.14-.99l-5.77-7.75c-.14-.28-.42-.42-.7-.42s-.56.14-.7.42l-6.2,7.89-4.08-5.21c-.14-.28-.42-.42-.7-.42s-.56.14-.7.42l-3.94,5.07c-.28.28-.28.7-.14.99.14.42.42.56.85.56Z"/></svg>