<?xml version="1.0" encoding="UTF-8"?><svg id="Layer_1" xmlns="http://www.w3.org/2000/svg" viewBox="0 0 40 40"><defs><style>.cls-1{fill:none;}</style></defs><rect class="cls-1" x="0" y="0" width="40" height="40"/><path d="m3.66,40c-.99,0-1.83-.42-2.54-1.13s-1.13-1.55-1.13-2.54V3.66c0-.99.42-1.83,1.13-2.54S2.68,0,3.66,0h26.2C30.42,0,30.85.14,31.27.28s.85.42,1.13.85l6.48,6.48c.28.28.56.7.85,1.13.14.42.28.99.28,1.41v26.06c0,.99-.42,1.83-1.13,2.54s-1.55,1.13-2.54,1.13c0,.14-32.68.14-32.68.14ZM37.04,10l-7.04-7.04H3.66c-.14,0-.42,0-.56.14,0,.28-.14.42-.14.56v32.54c0,.14,0,.42.14.56.14.14.28.14.56.14h32.54c.14,0,.42,0,.56-.14s.14-.28.14-.56c.14.14.14-26.2.14-26.2Zm-17.04,22.25c1.55,0,2.82-.56,3.8-1.55,1.13-.99,1.55-2.39,1.55-3.8,0-1.55-.56-2.82-1.55-3.8s-2.25-1.69-3.8-1.69-2.82.56-3.8,1.55c-1.13.99-1.55,2.39-1.55,3.8s.56,2.82,1.55,3.8c.99,1.13,2.25,1.69,3.8,1.69ZM8.45,14.37h15.49c.56,0,.99-.14,1.27-.56.28-.42.56-.85.56-1.27v-4.08c0-.56-.14-.99-.56-1.27-.28-.28-.85-.56-1.27-.56h-15.49c-.56,0-.99.14-1.27.56-.28.28-.56.85-.56,1.27v4.08c0,.56.14.99.56,1.27.28.42.7.56,1.27.56Zm-5.49-4.37v27.04V2.96v7.04Z"/></svg>