<?xml version="1.0" encoding="UTF-8"?><svg id="Layer_1" xmlns="http://www.w3.org/2000/svg" viewBox="0 0 40 40"><defs><style>.cls-1{fill:none;}</style></defs><rect class="cls-1" x="0" y="0" width="40" height="40"/><path d="m19.18,36.53c-.25,0-.5,0-.76-.13s-.5-.13-.76-.38l-10.6-5.8c-.5-.25-.88-.63-1.26-1.26-.25-.5-.5-1.14-.5-1.77v-9.21l-4.29-2.4c-.38-.13-.63-.38-.76-.63s-.25-.5-.25-.76.13-.63.25-.76c.13-.25.38-.5.63-.63L17.54,3.72c.25-.13.5-.25.76-.25.25-.13.5-.13.76-.13s.5,0,.76.13.5.13.76.38l18.55,10.09c.25.13.5.38.63.63s.25.5.25.88v12.74c0,.38-.13.63-.38.88s-.63.38-1.01.38-.63-.13-.88-.38c-.25-.25-.38-.5-.38-.88v-12.24l-4.29,2.02v9.46c0,.63-.13,1.26-.5,1.77-.25.5-.76.88-1.26,1.26l-10.6,5.8c-.25.13-.5.25-.76.38-.25-.13-.5-.13-.76-.13Zm-.25-14.01c.13,0,.13.13.25.13s.13,0,.25-.13l15.14-8.33-15.14-8.2c-.13,0-.13-.13-.25-.13s-.13,0-.25.13L3.79,14.2l15.14,8.33Zm0,11.36c.13,0,.13.13.25.13s.13,0,.25-.13l10.73-5.8c.13,0,.13-.13.25-.25,0-.13.13-.25.13-.38v-7.95l-9.72,5.3c-.25.13-.5.25-.76.25s-.5.13-.88.13-.5,0-.76-.13c-.25,0-.5-.13-.76-.25l-9.84-5.3v7.95c0,.13,0,.25.13.38,0,.13.13.13.25.25,0-.13,10.73,5.8,10.73,5.8Z"/></svg>