<?xml version="1.0" encoding="UTF-8"?><svg id="Layer_1" xmlns="http://www.w3.org/2000/svg" viewBox="0 0 40 40"><defs><style>.cls-1{fill:none;}</style></defs><rect class="cls-1" x="0" y="0" width="40" height="40"/><path d="m7.46,19.69c-1.37-1.62-2.12-3.86-2.12-6.73C5.34,4.49,11.7,0,19.42,0c8.35-.12,13.21,4.11,15.58,5.98l-4.24,6.11-3.12-2.12,2.24-3.24c-3.12-1.99-6.73-3.12-10.34-2.99-4.24-.12-9.47,2.24-9.47,6.48,0,1.62,1,1.74,2.37,1.37,1.99-.5,3.49,0,4.73,1.12,2.24,1.99,1.99,5.73,0,7.73-2.49,2.37-7.23,2.24-9.72-.75h0Zm26.79.5c-1.25-1.62-3.24-2.49-5.36-2.37-3.24-.12-5.98,2.37-5.98,5.61,0,1.37.5,2.74,1.5,3.74,1.25,1.12,2.74,1.62,4.73,1.25,1.5-.37,2.37-.25,2.37,1.37,0,.37,0,.75-.12,1.12-1.37,3.49-4.98,5.48-10.22,5.48-4.36,0-8.6-1.37-12.21-3.99l2.87-3.36-2.99-2.37-5.11,6.11,1.25,1.12c4.49,3.99,10.22,6.11,16.07,6.11,4.36,0,7.97-.87,11.21-3.74,5.11-4.49,4.86-12.71,1.99-16.07h0Z"/></svg>