<?xml version="1.0" encoding="UTF-8"?><svg id="Layer_1" xmlns="http://www.w3.org/2000/svg" viewBox="0 0 40 40"><defs><style>.cls-1{fill:none;}</style></defs><rect class="cls-1" x="0" y="0" width="40" height="40"/><path d="m12.85,36.2c-.79,0-1.44-.26-1.97-.79s-.79-1.18-.79-1.97v-3.28c0-.52.13-.92.52-1.18.26-.26.79-.52,1.18-.52h4.72v-6.95c-1.44.13-2.75.13-4.2-.39-1.44-.39-2.62-1.18-3.67-2.1v-3.15h-2.89L.66,10.75c-.39-.39-.66-.92-.66-1.44s.26-.92.66-1.18c1.05-.79,2.23-1.44,3.67-1.97,1.44-.52,3.02-.79,4.59-.79,1.31,0,2.49.13,3.93.52,1.31.39,2.62.92,3.8,1.7v-2.1c0-.52.13-.92.52-1.18.26-.26.79-.52,1.18-.52h19.93c.52,0,.92.13,1.18.52.26.26.52.79.52,1.18v25.7c0,1.44-.52,2.62-1.44,3.54-.92.92-2.23,1.44-3.54,1.44H12.85Zm6.43-7.61h11.54c.52,0,.92.13,1.18.52.26.26.52.66.52,1.18v.92c0,.66.26,1.18.66,1.7.39.39,1.05.66,1.7.66s1.18-.26,1.7-.66c.39-.39.66-1.05.66-1.7V6.56h-17.97v3.28l11.93,11.93c.26.26.39.39.52.66.13.13.13.26.13.52,0,.39-.13.66-.39.92-.26.26-.66.39-.92.39s-.52,0-.66-.13-.39-.26-.66-.52l-6.03-6.03-1.05,1.18c-.39.52-.92.92-1.31,1.18-.39.26-.92.52-1.44.79-.13,0-.13,7.87-.13,7.87ZM6.95,13.11h4.46v4.59c.66.39,1.31.79,1.97.92s1.18.26,1.84.26c.92,0,1.84-.26,2.75-.66s1.57-.92,2.23-1.57l1.05-1.18-3.8-3.67c-1.18-1.18-2.49-2.1-3.93-2.75-1.44-.66-3.02-.92-4.59-.92-1.05,0-1.97.13-2.89.39s-1.7.66-2.62,1.05c0,0,3.54,3.54,3.54,3.54Zm5.9,20.33h17.7c-.26-.26-.39-.52-.52-.92-.13-.39-.13-.79-.13-1.18H12.85v2.1Zm0,0v-2.23,2.23Z"/></svg>