<?xml version="1.0" encoding="UTF-8"?><svg id="Layer_1" xmlns="http://www.w3.org/2000/svg" viewBox="0 0 40 40"><defs><style>.cls-1{fill:none;}</style></defs><rect class="cls-1" x="0" y="0" width="40" height="40"/><path d="m16.28,17.41c.38,0,.63-.13.88-.38.25-.25.38-.5.38-.88v-5.05c0-.38-.13-.63-.38-.88-.25-.25-.63-.38-1.01-.38s-.63.13-.88.38-.38.63-.38.88v5.05c0,.38.13.63.38.88.38.25.63.38,1.01.38Zm6.06,0c.38,0,.63-.13.88-.38.25-.25.38-.5.38-.88v-5.05c0-.38-.13-.63-.38-.88-.25-.25-.63-.38-1.01-.38s-.63.13-.88.38-.38.63-.38.88v5.05c0,.38.13.63.38.88.38.25.63.38,1.01.38Zm6.06,0c.38,0,.63-.13.88-.38.25-.25.38-.5.38-.88v-5.05c0-.38-.13-.63-.38-.88-.25-.25-.63-.38-1.01-.38s-.63.13-.88.38-.38.63-.38.88v5.05c0,.38.13.63.38.88.38.25.63.38,1.01.38ZM7.57,39.87c-.88,0-1.64-.38-2.27-1.01s-1.01-1.39-1.01-2.27V13.25c0-.5.13-.88.25-1.26s.38-.76.76-1.01L15.27,1.01c.25-.25.63-.5,1.01-.76.38-.13.88-.25,1.26-.25h14.89c.88,0,1.64.38,2.27,1.01s1.01,1.39,1.01,2.27v33.44c0,.88-.38,1.64-1.01,2.27s-1.39,1.01-2.27,1.01c.13-.13-24.86-.13-24.86-.13Zm0-2.65h24.98c.13,0,.25-.13.5-.25.13-.13.25-.25.25-.5V3.28c0-.13-.13-.25-.25-.5-.13-.13-.25-.25-.5-.25h-15.14L6.94,13v23.47c0,.13.13.25.25.5.13.25.25.25.38.25Zm0,0h-.63,26.25H7.57Z"/></svg>