<?xml version="1.0" encoding="UTF-8"?><svg id="Layer_1" xmlns="http://www.w3.org/2000/svg" viewBox="0 0 40 40"><defs><style>.cls-1{fill:none;}</style></defs><rect class="cls-1" x="0" y="0" width="40" height="40"/><path d="m14.33,28.72c-3.97,0-7.38-1.42-10.21-4.11C1.28,21.77,0,18.37,0,14.4S1.42,7.02,4.11,4.18C6.95,1.35,10.35.07,14.33.07s7.38,1.42,10.21,4.11c2.84,2.84,4.11,6.24,4.11,10.21,0,1.7-.28,3.26-.85,4.82s-1.42,2.98-2.41,4.11l14.18,14.04c.28.28.43.57.43.99s-.14.85-.43,1.13-.71.43-1.13.43-.85-.14-1.13-.43l-14.04-14.04c-1.13.99-2.55,1.84-4.11,2.41s-3.12.85-4.82.85Zm0-2.98c3.12,0,5.82-1.13,8.09-3.26,2.27-2.27,3.26-4.82,3.26-8.09s-1.13-5.82-3.26-8.09c-2.27-2.27-4.82-3.26-8.09-3.26s-5.82,1.13-8.09,3.26-3.26,4.82-3.26,8.09,1.13,5.82,3.26,8.09c2.27,2.27,4.96,3.26,8.09,3.26Z"/></svg>