<?xml version="1.0" encoding="UTF-8"?><svg id="Layer_1" xmlns="http://www.w3.org/2000/svg" viewBox="0 0 40 40"><defs><style>.cls-1{fill:none;}</style></defs><rect class="cls-1" x="0" y="0" width="40" height="40"/><path d="m0,19.98c0-2.74.5-5.23,1.5-7.73,1-2.37,2.49-4.49,4.24-6.23,1.74-1.74,3.86-3.24,6.23-4.24s4.98-1.5,7.73-1.5c4.61,0,8.72,1.37,12.21,4.24,3.49,2.74,5.73,6.36,6.85,10.59.12.37.12.75-.12,1.12-.12.37-.5.62-.87.62-.37.12-.75,0-1-.25s-.5-.5-.62-.87c-.62-2.62-1.87-4.98-3.61-7.1-1.62-1.99-3.86-3.61-6.48-4.61v.87c0,1.12-.37,2.24-1.25,2.99-.87.87-1.87,1.25-2.99,1.25h-4.36v4.36c0,.62-.25,1.12-.62,1.5s-1,.62-1.5.62h-4.24v4.36h3.12c.5,0,.87.12,1.12.5.25.25.5.75.5,1.12v4.74h-2.62L2.99,16.11c-.12.62-.25,1.25-.37,1.99-.12.62-.12,1.25-.12,1.99,0,4.36,1.5,8.22,4.36,11.46,2.87,3.24,6.6,5.11,10.97,5.48.37,0,.62.25.87.5s.37.62.37,1-.12.62-.37.87c-.25.25-.62.37-1,.25-4.98-.5-9.22-2.62-12.71-6.36C1.62,29.57,0,25.08,0,19.98Zm37.76,17.82l-6.11-6.11c-.62.5-1.37.87-2.24,1.12-.75.25-1.62.37-2.49.37-2.24,0-4.11-.75-5.73-2.37-1.62-1.62-2.37-3.49-2.37-5.73s.75-4.11,2.37-5.73c1.62-1.62,3.49-2.37,5.73-2.37s4.11.75,5.73,2.37c1.62,1.62,2.37,3.49,2.37,5.73,0,.87-.12,1.62-.37,2.49-.25.75-.62,1.5-1.12,2.24l6.11,6.11c.25.25.37.5.37.87s-.12.62-.37.87-.5.37-.87.37-.75,0-1-.25Zm-10.84-7.23c1.5,0,2.87-.5,3.86-1.62,1-1,1.62-2.37,1.62-3.86s-.5-2.87-1.62-3.86c-1-1-2.37-1.62-3.86-1.62s-2.87.5-3.86,1.62c-1,1-1.62,2.37-1.62,3.86s.5,2.87,1.62,3.86c1.12,1.12,2.37,1.62,3.86,1.62Z"/></svg>