<?xml version="1.0" encoding="UTF-8"?><svg id="Layer_1" xmlns="http://www.w3.org/2000/svg" viewBox="0 0 40 40"><defs><style>.cls-1{fill:none;}</style></defs><rect class="cls-1" x="0" y="0" width="40" height="40"/><path d="m9.24,6.34c-.69,0-1.38.28-1.79.69-.55.55-.69,1.1-.69,1.79s.28,1.38.69,1.79c.55.55,1.1.69,1.79.69s1.38-.28,1.79-.69c.55-.55.69-1.1.69-1.79s-.28-1.38-.69-1.79-.97-.69-1.79-.69Zm0,21.93c-.69,0-1.38.28-1.79.69-.55.55-.69,1.1-.69,1.79s.28,1.38.69,1.79c.55.55,1.1.69,1.79.69s1.38-.28,1.79-.69c.55-.55.69-1.1.69-1.79s-.28-1.38-.69-1.79-.97-.69-1.79-.69ZM2.34,0h35.31c.55,0,.97.14,1.38.55s.55.83.55,1.38v13.93c0,.69-.14,1.1-.55,1.52-.41.41-.83.55-1.38.55H2.34c-.55,0-.97-.14-1.38-.55s-.55-.97-.55-1.52V1.79c0-.55.14-.97.55-1.38.41-.28.83-.41,1.38-.41Zm.97,2.9v12.14h33.24V2.9H3.31Zm-.97,19.03h35.17c.55,0,1.1.28,1.52.69s.55.97.55,1.52v13.66c0,.69-.14,1.24-.55,1.66-.41.41-.83.55-1.52.55H2.48c-.55,0-1.1-.14-1.52-.55-.41-.41-.55-.97-.55-1.66v-13.66c0-.55.14-1.1.55-1.52.28-.55.83-.69,1.38-.69Zm.97,2.9v12.28h33.24v-12.28H3.31ZM3.31,2.9v12.14V2.9Zm0,21.93v12.28-12.28Z"/></svg>