<?xml version="1.0" encoding="UTF-8"?>
<svg id="Capa_1" data-name="Capa 1" xmlns="http://www.w3.org/2000/svg" viewBox="0 0 40 40">
  <defs>
    <style>
      .cls-1 {
        fill: none;
      }
    </style>
  </defs>
  <rect class="cls-1" width="40" height="40"/>
  <path d="m1.65,18.13c-.65,0-1.08-.21-1.41-.85s-.32-1.07,0-1.6L8.26,1.35c.32-.53.76-.85,1.41-.85s1.08.32,1.41.85l8.02,14.32c.32.53.32,1.07,0,1.6s-.76.85-1.3.85H1.65Zm8.12,21.37c-2.38,0-4.44-.85-6.07-2.46-1.73-1.71-2.6-3.74-2.6-6.09s.87-4.38,2.6-6.09c1.73-1.6,3.68-2.46,6.07-2.46s4.44.85,6.17,2.56c1.73,1.71,2.6,3.63,2.6,5.98s-.87,4.38-2.6,6.09c-1.84,1.6-3.9,2.46-6.17,2.46Zm0-3.21c1.52,0,2.82-.53,3.9-1.6s1.62-2.24,1.62-3.74-.54-2.78-1.62-3.85-2.49-1.5-3.9-1.5-2.82.53-3.9,1.5-1.52,2.35-1.52,3.85.54,2.78,1.52,3.74,2.38,1.6,3.9,1.6ZM4.36,14.92h10.62l-5.31-9.4-5.31,9.4Zm19.93,24.58c-.43,0-.87-.11-1.19-.43-.32-.32-.43-.64-.43-1.18v-13.89c0-.43.11-.85.43-1.18.32-.32.65-.43,1.19-.43h14.08c.43,0,.87.11,1.19.43s.43.64.43,1.18v13.89c0,.43-.11.85-.43,1.18-.32.32-.65.43-1.19.43h-14.08Zm1.62-3.21h10.83v-10.68h-10.83v10.68Zm3.14-27.78l-5.2-5.13c-.32-.32-.54-.75-.54-1.18s.11-.85.54-1.18c.32-.32.65-.43,1.08-.43s.87.21,1.08.43l5.31,5.13,5.31-5.13c.32-.32.65-.53,1.08-.53s.87.21,1.08.53c.32.32.54.75.54,1.07,0,.43-.22.85-.54,1.18l-5.2,5.24,5.31,5.24c.32.32.54.64.54,1.07s-.22.85-.54,1.18c-.32.32-.65.43-1.08.43s-.87-.11-1.08-.43l-5.42-5.24-5.31,5.24c-.32.32-.65.43-1.08.43s-.87-.11-1.19-.43c-.32-.32-.43-.64-.43-1.18,0-.43.11-.85.43-1.07l5.31-5.24Z"/>
</svg>