<?xml version="1.0" encoding="UTF-8"?><svg id="Layer_1" xmlns="http://www.w3.org/2000/svg" viewBox="0 0 40 40"><defs><style>.cls-1{fill:none;}</style></defs><rect class="cls-1" x="0" y="0" width="40" height="40"/><path d="m32.42,40c-1.47,0-2.81-.49-3.91-1.59-1.1-1.1-1.59-2.32-1.59-3.91,0-.24,0-.49.12-.86,0-.37.12-.61.24-.86l-15.66-9.17c-.49.61-1.1.98-1.83,1.35-.73.37-1.47.49-2.2.49-1.47,0-2.81-.49-3.91-1.59-1.1-1.1-1.59-2.32-1.59-3.91,0-1.47.49-2.81,1.59-3.91,1.1-1.1,2.32-1.59,3.91-1.59.73,0,1.47.12,2.2.49.73.37,1.35.73,1.83,1.35l15.66-9.05c-.12-.24-.12-.49-.24-.86,0-.24-.12-.61-.12-.86,0-1.47.49-2.81,1.59-3.91,1.1-1.1,2.32-1.59,3.91-1.59,1.47,0,2.81.49,3.91,1.59,1.1,1.1,1.59,2.32,1.59,3.91,0,1.47-.49,2.81-1.59,3.91-1.1,1.1-2.32,1.59-3.91,1.59-.73,0-1.47-.12-2.2-.37-.73-.24-1.35-.73-1.83-1.22l-15.66,8.93c.12.24.12.49.24.86,0,.37.12.61.12.86s0,.49-.12.86c0,.24-.12.49-.24.86l15.66,9.05c.49-.49,1.1-.98,1.71-1.22s1.47-.49,2.2-.49c1.47,0,2.81.49,3.91,1.59,1.1,1.1,1.59,2.32,1.59,3.91,0,1.47-.49,2.81-1.59,3.91s-2.2,1.47-3.79,1.47h0Zm0-31.31c.86,0,1.47-.24,2.08-.86.61-.61.86-1.22.86-2.08s-.24-1.47-.86-2.08-1.22-.86-2.08-.86-1.47.24-2.08.86-.86,1.22-.86,2.08.24,1.47.86,2.08c.61.49,1.35.86,2.08.86ZM7.71,23.12c.86,0,1.47-.24,2.08-.86s.86-1.22.86-2.08-.24-1.47-.86-2.08-1.22-.86-2.08-.86-1.47.24-2.08.86-.86,1.22-.86,2.08.24,1.47.86,2.08c.61.49,1.22.86,2.08.86Zm24.71,14.43c.86,0,1.47-.24,2.08-.86.61-.61.86-1.22.86-2.08s-.24-1.47-.86-2.08-1.22-.86-2.08-.86-1.47.24-2.08.86-.86,1.22-.86,2.08.24,1.47.86,2.08c.61.49,1.35.86,2.08.86Z"/></svg>