<?xml version="1.0" encoding="UTF-8"?><svg id="Layer_1" xmlns="http://www.w3.org/2000/svg" viewBox="0 0 40 40"><defs><style>.cls-1{fill:none;}</style></defs><rect class="cls-1" x="0" y="0" width="40" height="40"/><path d="m20,40h-.64c-.13,0-.38-.13-.51-.13-4.62-1.67-8.21-4.49-10.9-8.59s-3.97-8.59-3.97-13.33v-9.74c0-.77.26-1.41.64-1.92.38-.51.9-1.03,1.54-1.28L18.85.26c.38-.13.77-.26,1.15-.26s.77.13,1.15.26l12.69,4.74c.64.26,1.15.64,1.54,1.28.38.51.64,1.15.64,1.92v9.74c0,4.87-1.28,9.23-3.97,13.33s-6.28,6.92-10.9,8.59c-.13.13-.38.13-.51.13h-.64Zm0-2.56c3.85-1.28,7.05-3.72,9.62-7.31,2.56-3.59,3.72-7.69,3.72-12.18v-9.87c0-.13,0-.26-.13-.38s-.13-.13-.26-.26l-12.69-4.74h-.51L7.05,7.44c-.13,0-.26.13-.26.26-.13.13-.13.26-.13.38v9.87c0,4.49,1.28,8.59,3.72,12.18,2.56,3.59,5.77,6.03,9.62,7.31Z"/></svg>