<?xml version="1.0" encoding="UTF-8"?><svg id="Layer_1" xmlns="http://www.w3.org/2000/svg" viewBox="0 0 40 40"><defs><style>.cls-1{fill:none;}</style></defs><rect class="cls-1" x="0" y="0" width="40" height="40"/><path d="m5.13,32.28l-3.23-11.3c-.12-.35-.12-.69.12-1.04.12-.35.46-.58.81-.69l2.65-.92v-9.57c0-.81.35-1.5.92-2.07s1.27-.92,2.19-.92h6.69V1.5c0-.46.12-.81.46-1.04.23-.23.69-.46,1.04-.46h6.11c.46,0,.81.12,1.04.46.35.23.58.69.58,1.04v4.27h6.8c.81,0,1.5.35,2.07.92.58.58.92,1.27.92,2.07v9.57l2.65.92c.35.12.69.35.81.69.12.35.23.69.12,1.04l-3.23,11.3c-1.04-.23-2.07-.58-3-1.04-.92-.46-1.84-1.15-2.65-1.96-.23-.23-.46-.35-.69-.46s-.46-.12-.69-.12-.46,0-.69.12-.46.23-.69.46c-.92.92-1.84,1.61-2.88,2.19s-2.19.81-3.46.81-2.42-.23-3.46-.81-1.96-1.27-2.88-2.19c-.23-.23-.46-.35-.69-.46-.23-.12-.46-.12-.69-.12s-.46,0-.69.12c-.23.12-.46.23-.69.46-.92.81-1.73,1.38-2.65,1.96-.92.46-1.96.81-3,1.04Zm-2.77,7.72c-.35,0-.58-.12-.81-.35-.23-.23-.35-.58-.35-.92s.12-.58.35-.81c.23-.23.46-.35.81-.35h2.19c1.15,0,2.19-.12,3.34-.46,1.04-.23,2.07-.69,3.11-1.27.23-.12.35-.12.58-.23.23,0,.46-.12.69-.12s.46,0,.69.12c.23,0,.46.12.58.23,1.04.58,2.07.92,3.11,1.15,1.15.23,2.19.35,3.34.35s2.19-.12,3.34-.35,2.19-.69,3.11-1.15c.23-.12.35-.12.58-.23.23,0,.46-.12.69-.12s.46,0,.69.12c.23,0,.46.12.58.23,1.04.58,2.07.92,3.11,1.27,1.04.23,2.19.46,3.34.46h2.19c.35,0,.58.12.81.35s.35.58.35.81c0,.35-.12.58-.35.81s-.46.35-.81.35h-2.19c-1.38,0-2.65-.12-3.92-.46-1.27-.35-2.54-.81-3.8-1.5-1.27.69-2.54,1.15-3.8,1.5-1.27.35-2.65.46-3.92.46s-2.54-.12-3.92-.46c-1.27-.35-2.54-.81-3.8-1.5-1.27.69-2.54,1.15-3.8,1.5s-2.54.46-3.92.46l-2.19.12h0Zm5.53-22.48l11.07-3.57c.35-.12.58-.12.92-.12s.69,0,.92.12l11.07,3.57v-8.76c0-.12,0-.35-.12-.46-.12,0-.35-.12-.46-.12H8.47c-.12,0-.35,0-.46.12-.12.12-.12.23-.12.46v8.76Zm11.99,12.33c.92,0,1.73-.23,2.54-.69.69-.46,1.5-1.04,2.19-1.73.46-.46.92-.81,1.38-1.04.46-.23,1.04-.35,1.61-.35s1.04.12,1.61.35c.58.23,1.04.46,1.5.92s.81.81,1.15,1.04c.35.35.81.58,1.27.81l2.31-8.07-15.22-4.96h-.46l-15.33,5.07,2.31,8.07c.46-.23.81-.58,1.15-.81s.81-.58,1.15-1.04c.46-.46.92-.69,1.5-.92.58-.23,1.04-.23,1.61-.23s1.04.12,1.61.35c.46.23,1.04.58,1.38.92.69.69,1.5,1.27,2.19,1.73.81.46,1.61.58,2.54.58Z"/></svg>