<?xml version="1.0" encoding="UTF-8"?><svg id="Layer_1" xmlns="http://www.w3.org/2000/svg" viewBox="0 0 40 40"><defs><style>.cls-1{fill:none;}</style></defs><rect class="cls-1" x="0" y="0" width="40" height="40"/><path d="m8.07,34.06c-1.46,0-2.69-.45-3.7-1.46-1.01-1.01-1.46-2.24-1.46-3.7h-.11c-.78,0-1.34-.34-1.9-.9s-.9-1.34-.9-2.13V8.85c0-.78.34-1.46.9-2.02s1.23-.9,2.02-.9h22.97c.78,0,1.46.34,2.02.9s.9,1.23.9,2.02v4.37h3.92c.22,0,.45,0,.67.11.22.11.34.22.56.45l5.71,7.62c.11.11.11.22.22.45,0,.11.11.34.11.45v5.15c0,.45-.11.78-.45,1.01-.22.22-.67.45-1.01.45h-1.68c0,1.46-.56,2.69-1.57,3.7s-2.24,1.46-3.7,1.46-2.69-.45-3.7-1.46c-1.01-1.01-1.46-2.24-1.46-3.7h-13.11c0,1.46-.56,2.69-1.57,3.7-1.01.9-2.24,1.46-3.7,1.46Zm0-2.35c.78,0,1.46-.34,2.02-.9s.78-1.23.78-2.02-.22-1.46-.78-2.02-1.23-.78-2.02-.78-1.46.22-2.02.78-.78,1.23-.78,2.02.22,1.46.78,2.02c.56.56,1.23.9,2.02.9ZM2.35,8.85v17.25q0,.11.11.22l.11.11s.11.11.22.11h.67c.45-.9,1.01-1.57,1.9-2.13.78-.56,1.68-.78,2.69-.78s1.9.22,2.69.78,1.46,1.23,1.79,2.02h13.89V8.85c0-.11,0-.34-.11-.45s-.22-.11-.45-.11H3.03c-.11,0-.34,0-.45.11s-.22.34-.22.45Zm29.13,22.86c.78,0,1.46-.34,2.02-.9s.78-1.23.78-2.02-.22-1.46-.78-2.02-1.23-.78-2.02-.78-1.46.22-2.02.78-.78,1.23-.78,2.02.22,1.46.78,2.02,1.23.9,2.02.9Zm-2.69-9.08h8.74l-5.27-7.06h-3.36v7.06h-.11Z"/></svg>