<?xml version="1.0" encoding="UTF-8"?><svg id="Layer_1" xmlns="http://www.w3.org/2000/svg" viewBox="0 0 40 40"><defs><style>.cls-1{fill:none;}</style></defs><rect class="cls-1" x="0" y="0" width="40" height="40"/><path d="m12.03,30.49c-2.06,0-3.67-.8-4.81-2.41s-1.72-3.44-1.6-5.62v-.11l-1.03-1.49c-.46-.8-1.15-2.06-1.83-3.9s-1.03-4.01-1.03-6.42c0-2.98.69-5.5,2.18-7.56,1.49-1.95,3.32-2.98,5.5-2.98,2.29,0,4.13,1.03,5.62,3.21,1.38,2.18,2.06,4.58,2.06,7.34,0,1.72-.23,3.44-.8,5.04-.46,1.6-1.03,2.87-1.38,3.9l.57,1.03c.34.57.69,1.26,1.03,2.06.34.92.57,1.72.57,2.52,0,1.49-.46,2.87-1.38,3.9-1.03.92-2.18,1.49-3.67,1.49Zm-4.93-10.43l5.5-1.26c.46-1.15.92-2.41,1.38-4.01s.69-3.09.69-4.47c0-2.06-.46-4.01-1.49-5.62-.92-1.6-2.18-2.52-3.78-2.52-1.49,0-2.75.8-3.78,2.41-1.03,1.6-1.49,3.44-1.49,5.73s.34,4.13,1.03,5.85c.69,1.83,1.26,3.09,1.95,3.9Zm4.93,8.02c.8,0,1.38-.23,1.83-.8.46-.57.69-1.26.69-2.18,0-.57-.11-1.26-.46-1.95-.34-.69-.69-1.38-1.03-1.95l-5.16,1.15c0,1.49.34,2.87,1.03,4.01.69,1.15,1.72,1.72,3.09,1.72Zm15.82,11.92c-1.49,0-2.64-.46-3.55-1.49-.92-1.03-1.38-2.29-1.38-3.9,0-.8.23-1.72.57-2.52.34-.92.69-1.6,1.03-2.06l.57-1.03c-.46-1.03-.92-2.29-1.38-3.9-.57-1.6-.8-3.32-.8-5.04,0-2.75.69-5.16,2.06-7.34,1.38-2.18,3.21-3.21,5.62-3.21,2.18,0,4.01,1.03,5.5,2.98s2.18,4.47,2.18,7.56c0,2.41-.34,4.58-1.03,6.42-.69,1.83-1.26,3.21-1.83,4.01l-1.03,1.6v.23c0,2.18-.57,4.01-1.6,5.62-1.26,1.26-2.87,2.06-4.93,2.06h0Zm4.93-10.32c.69-1.15,1.38-2.52,1.95-4.13s.92-3.44.92-5.73-.46-4.24-1.49-5.73c-1.03-1.6-2.29-2.41-3.78-2.41-1.6,0-2.87.8-3.78,2.52-.92,1.6-1.49,3.55-1.49,5.62,0,1.38.23,2.87.8,4.47.46,1.6,1.03,2.87,1.38,4.01.11.11,5.5,1.38,5.5,1.38Zm-4.93,7.91c1.38,0,2.41-.57,3.09-1.72s1.03-2.41,1.03-3.9l-5.16-1.26c-.34.57-.69,1.15-1.03,1.83s-.57,1.38-.57,2.06c0,.8.23,1.6.8,2.18.46.57,1.03.8,1.83.8Z"/></svg>