<?xml version="1.0" encoding="UTF-8"?><svg id="Layer_1" xmlns="http://www.w3.org/2000/svg" viewBox="0 0 40 40"><defs><style>.cls-1{fill:none;}</style></defs><rect class="cls-1" x="0" y="0" width="40" height="40"/><path d="m7.44,40c-.88,0-1.64-.38-2.27-1.01s-1.01-1.39-1.01-2.27V11.74c0-.88.38-1.64,1.01-2.27s1.39-1.01,2.27-1.01h4.92v-.76c0-2.15.76-3.91,2.27-5.43,1.51-1.51,3.28-2.27,5.43-2.27s3.91.76,5.43,2.27c1.51,1.51,2.27,3.28,2.27,5.43v.76h4.79c.88,0,1.64.38,2.27,1.01s1.01,1.39,1.01,2.27v24.98c0,.88-.38,1.64-1.01,2.27s-1.39,1.01-2.27,1.01c-.13,0-25.11,0-25.11,0Zm0-2.65h24.98c.13,0,.25-.13.5-.25.13-.13.25-.25.25-.5V11.74c0-.13-.13-.25-.25-.5-.13-.13-.25-.25-.5-.25h-4.92v5.05c0,.38-.13.63-.38.88-.25.25-.63.38-.88.38-.38,0-.63-.13-.88-.38-.25-.25-.38-.5-.38-.88v-5.05h-10.09v5.05c0,.38-.13.63-.38.88s-.63.38-.88.38-.63-.13-.88-.38c-.25-.25-.38-.5-.38-.88v-5.05h-4.79c-.13,0-.25.13-.5.25-.13.13-.25.25-.25.5v24.98c0,.13.13.25.25.5.13.13.25.13.38.13Zm7.44-28.9h10.09v-.76c0-1.39-.5-2.52-1.39-3.53-1.14-1.01-2.27-1.39-3.66-1.39s-2.52.5-3.53,1.39c-1.01,1.01-1.51,2.15-1.51,3.53v.76Zm-8.08,28.9V11.1v26.25Z"/></svg>