<?xml version="1.0" encoding="UTF-8"?><svg id="Layer_1" xmlns="http://www.w3.org/2000/svg" viewBox="0 0 40 40"><defs><style>.cls-1{fill:none;}</style></defs><rect class="cls-1" x="0" width="40" height="40"/><path d="m7.04,36.8c-.46,0-.8-.11-1.26-.46-.34-.23-.57-.57-.69-1.03L.04,17.3c-.11-.34,0-.8.23-1.03.23-.34.69-.57,1.03-.57h9.52L18.97,3.66c.11-.11.23-.34.46-.34.11-.11.34-.11.57-.11s.34,0,.57.11c.11.11.34.23.46.34l8.03,12.04h9.63c.46,0,.8.11,1.03.46.23.34.34.69.23,1.03l-5.05,18.12c-.11.46-.34.8-.8,1.03-.34.23-.8.46-1.26.46,0,0-25.8,0-25.8,0Zm.23-2.41h25.46l4.47-16.29H2.8l4.47,16.29Zm12.73-5.73c.69,0,1.26-.23,1.72-.69s.69-1.03.69-1.72-.23-1.26-.69-1.72-1.03-.69-1.72-.69-1.26.23-1.72.69-.69,1.03-.69,1.72.23,1.26.69,1.72,1.03.69,1.72.69Zm-6.19-12.96h12.27l-6.19-9.17-6.08,9.17Zm-6.54,18.69h25.46H7.27Z"/></svg>