<?xml version="1.0" encoding="UTF-8"?><svg id="Layer_1" xmlns="http://www.w3.org/2000/svg" viewBox="0 0 40 40"><defs><style>.cls-1{fill:none;}</style></defs><rect class="cls-1" x="0" width="40" height="40"/><path d="m12.41,40c-.99,0-1.74-.37-2.36-.99s-.99-1.49-.99-2.48.37-1.74.99-2.48c.62-.62,1.49-.99,2.36-.99.99,0,1.74.37,2.48.99.62.62.99,1.49.99,2.48s-.37,1.74-.99,2.48c-.75.62-1.61.99-2.48.99Zm20,0c-.99,0-1.74-.37-2.36-.99s-.99-1.49-.99-2.48.37-1.74.99-2.48c.62-.62,1.49-.99,2.36-.99.99,0,1.74.37,2.48.99.62.62.99,1.49.99,2.48s-.37,1.74-.99,2.48-1.49.99-2.48.99ZM9.56,6.83l5.59,11.68h14.66l6.09-11.18c.12-.12.12-.25,0-.37s-.12-.12-.37-.12c.12,0-25.96,0-25.96,0Zm2.61,22.61c-1.37,0-2.36-.5-2.86-1.49-.62-.99-.62-2.11,0-3.23l3.23-5.84L4.71,2.61H1.98c-.37,0-.62-.12-.87-.37s-.37-.5-.37-.87.12-.75.37-.99C1.36.12,1.61,0,1.98,0h3.23C5.58,0,5.83.12,6.08.25c.25.12.5.37.62.62l1.49,3.23h28.7c.99,0,1.74.37,2.11.99.37.75.37,1.49-.12,2.24l-6.46,11.68c-.37.62-.75.99-1.37,1.37-.5.37-1.12.5-1.74.5h-15.16l-2.73,4.97c-.12.12-.12.37,0,.5s.25.25.5.25h22.73c.37,0,.62.12.87.37.25.25.37.62.37.87,0,.37-.12.62-.37.87-.25.25-.5.37-.87.37-.12.37-22.48.37-22.48.37Zm2.98-10.93h14.66-14.66Z"/></svg>