<?xml version="1.0" encoding="UTF-8"?><svg id="Layer_1" xmlns="http://www.w3.org/2000/svg" viewBox="0 0 40 40"><defs><style>.cls-1{fill:none;}</style></defs><rect class="cls-1" x="0" width="40" height="40"/><path d="m10.11,32.31c-.57,0-1-.14-1.28-.57-.28-.28-.57-.71-.57-1.28s.14-1,.57-1.28c.43-.28.71-.57,1.28-.57s1,.14,1.28.57c.28.28.57.71.57,1.28s-.14,1-.57,1.28c-.43.43-.85.57-1.28.57Zm9.96,0c-.57,0-1-.14-1.28-.57-.28-.28-.57-.71-.57-1.28s.14-1,.57-1.28c.28-.28.71-.57,1.28-.57s1,.14,1.28.57c.28.28.57.71.57,1.28s-.14,1-.57,1.28c-.28.43-.71.57-1.28.57Zm10.11,0c-.57,0-1-.14-1.28-.57-.28-.28-.57-.71-.57-1.28s.14-1,.57-1.28c.28-.28.71-.57,1.28-.57s1,.14,1.28.57c.28.28.57.71.57,1.28s-.14,1-.57,1.28c-.43.43-.85.57-1.28.57ZM6.55,23.2c-.57,0-1-.14-1.28-.57-.28-.28-.57-.85-.57-1.28v-1.14c0-3.99,1.28-7.4,3.99-10.39,2.7-2.85,5.98-4.56,9.82-4.98V1.42c0-.43.14-.71.43-1,.28-.28.71-.43,1.14-.43s.71.14,1,.43c.28.14.43.57.43,1v3.56c3.84.43,7.26,1.99,9.82,4.98,2.7,2.85,3.99,6.41,3.99,10.39v1.14c0,.57-.14,1-.57,1.28-.43.43-.85.57-1.28.57H6.55v-.14Zm1.14-2.99h24.91c0-3.42-1.28-6.41-3.7-8.83s-5.41-3.7-8.83-3.7-6.41,1.28-8.83,3.7c-2.42,2.56-3.56,5.41-3.56,8.83Zm2.42,19.79c-.57,0-1-.14-1.28-.57-.28-.28-.57-.71-.57-1.28s.14-1,.57-1.28c.43-.28.71-.57,1.28-.57s1,.14,1.28.57c.28.28.57.71.57,1.28s-.14,1-.57,1.28c-.43.43-.85.57-1.28.57Zm9.96,0c-.57,0-1-.14-1.28-.57-.28-.28-.57-.71-.57-1.28s.14-1,.57-1.28c.28-.28.71-.57,1.28-.57s1,.14,1.28.57c.28.28.57.71.57,1.28s-.14,1-.57,1.28c-.28.43-.71.57-1.28.57Zm10.11,0c-.57,0-1-.14-1.28-.57-.28-.28-.57-.71-.57-1.28s.14-1,.57-1.28c.28-.28.71-.57,1.28-.57s1,.14,1.28.57c.28.28.57.71.57,1.28s-.14,1-.57,1.28c-.43.43-.85.57-1.28.57Z"/></svg>