<?xml version="1.0" encoding="UTF-8"?><svg id="Layer_1" xmlns="http://www.w3.org/2000/svg" viewBox="0 0 40 40"><defs><style>.cls-1{fill:none;}</style></defs><rect class="cls-1" x="0" width="40" height="40"/><path d="m8.55,32.2c-1.27,0-2.43-.46-3.35-1.39-.92-.92-1.39-2.08-1.39-3.47h-.81c-.81,0-1.5-.35-2.08-.92-.58-.58-.92-1.27-.92-2.08v-13.87c0-.69.23-1.39.81-1.85.46-.46,1.16-.81,1.85-.81h25.2c.35,0,.81.12,1.16.23.35.12.69.35.92.58l9.13,8.79c.23.23.46.58.69.92.12.35.23.81.23,1.16v4.62c0,.81-.35,1.5-.92,2.08-.58.92-1.27,1.16-2.08,1.16h-.46c0,1.27-.46,2.43-1.39,3.35s-2.08,1.39-3.35,1.39-2.43-.46-3.35-1.39c-1.04-.81-1.5-1.97-1.5-3.35h-13.64c0,1.27-.46,2.43-1.39,3.35-.92,1.04-2.08,1.5-3.35,1.5Zm16.53-15.14h9.94l-6.94-6.59s-.12-.12-.23-.12h-2.89c.12,0,.12,6.71.12,6.71Zm-11.33,0h8.9v-6.82h-8.9c0,.12,0,6.82,0,6.82Zm-11.33,0h8.9v-6.82H2.43v6.82Zm6.13,12.95c.69,0,1.39-.23,1.85-.81.46-.46.81-1.16.81-1.85s-.23-1.39-.81-1.85c-.46-.46-1.16-.81-1.85-.81s-1.39.35-1.85.81-.81,1.16-.81,1.85.23,1.39.81,1.85,1.16.81,1.85.81Zm23.24,0c.69,0,1.39-.23,1.85-.81.46-.46.81-1.16.81-1.85s-.23-1.39-.81-1.85c-.46-.46-1.16-.81-1.85-.81s-1.39.23-1.85.81c-.46.46-.81,1.16-.81,1.85s.23,1.39.81,1.85c.46.58,1.04.81,1.85.81ZM3.01,24.91h1.39c.46-.69,1.04-1.27,1.73-1.73.69-.46,1.5-.69,2.31-.69s1.62.23,2.31.58c.69.46,1.27,1.04,1.73,1.73h15.03c.46-.69.92-1.27,1.73-1.73.69-.46,1.5-.69,2.31-.69s1.62.23,2.31.58c.69.46,1.27,1.04,1.73,1.73h1.16c.12,0,.35,0,.46-.12.12-.12.12-.23.12-.46v-4.62q0-.12-.12-.23H2.43v4.86c0,.12,0,.35.12.46.12.35.35.35.46.35Zm0-5.43h-.58,35.14H3.01Z"/></svg>