<?xml version="1.0" encoding="UTF-8"?><svg id="Layer_1" xmlns="http://www.w3.org/2000/svg" viewBox="0 0 40 40"><defs><style>.cls-1{fill:none;}</style></defs><rect class="cls-1" width="40" height="40"/><path d="m22.12,22.56c3-2,5.37-4.25,7.12-6.75,1.75-2.5,2.63-4.87,2.63-7.37,0-1.5-.25-2.62-.75-3.37-.5-.87-1.25-1.25-2.13-1.25-2,0-3.62,1.37-5,4.25-1.38,2.87-2,6.37-2,10.37,0,.75,0,1.5.13,2.13-.25.87-.25,1.5,0,2ZM2.12,29.69c-.25.25-.5.37-.87.37s-.62-.13-.87-.37c-.25-.25-.38-.5-.38-.88s.12-.62.38-.88l2.37-2.37-2.37-2.37c-.25-.25-.38-.5-.38-.88s.12-.62.38-.88c.25-.25.5-.37.87-.37s.62.13.87.37l2.37,2.37,2.37-2.37c.25-.25.5-.37.87-.37s.62.13.87.37c.25.25.38.5.38.88s-.13.62-.38.88l-2.37,2.37,2.37,2.37c.25.25.38.5.38.88s-.13.62-.38.88-.5.37-.87.37-.62-.13-.87-.37l-2.25-2.37-2.5,2.37Zm23.62-.25c-1.12,0-2-.25-2.87-.75-.88-.5-1.5-1.25-2.13-2.13-.62.37-1.38.75-2,1-.75.37-1.38.62-2.13,1-.37.13-.75.13-1,0-.37-.13-.62-.37-.75-.75-.13-.37-.13-.75,0-1,.13-.37.37-.62.75-.75.75-.25,1.38-.62,2.13-1s1.38-.62,1.87-1c-.25-.75-.37-1.62-.5-2.63s-.13-1.87-.13-3c0-5,.88-9.12,2.75-12.37,1.87-3.25,4.12-4.87,7-4.87,1.62,0,3,.62,4,2,1,1.37,1.5,3.12,1.5,5.37,0,3-1,5.87-3,8.75-2,2.87-4.75,5.5-8.25,7.75.37.5.75,1,1.25,1.25s1,.37,1.5.37c1,0,2.13-.37,3.25-1.25s2.25-2,3.12-3.62c.25-.25.5-.5.88-.62.37-.13.62-.13,1,.13.38.13.62.37.75.75.12.37.25.62.25,1.12-.12.75-.12,1.38,0,2,0,.62.12,1.12.37,1.62.37-.13.62-.37,1-.62s.62-.5,1.13-.88c.25-.25.62-.37,1-.37s.62,0,1,.25c.25.25.5.5.5.88s-.12.62-.37.88c-.75.75-1.5,1.38-2.25,1.75s-1.37.62-2.13.62-1.38-.37-1.75-1c-.5-.62-.75-1.5-1-2.63-.88,1.12-2,2-3.12,2.63-1.25.75-2.5,1.12-3.63,1.12ZM3.12,38.81c-.38,0-.75-.12-1.12-.5-.25-.25-.5-.62-.5-1.13,0-.37.12-.75.5-1.12.25-.25.62-.5,1.12-.5.38,0,.75.13,1.12.5.25.25.5.63.5,1.12s-.13.75-.5,1.13c-.37.25-.75.5-1.12.5Zm8,0c-.5,0-.87-.12-1.12-.5-.25-.25-.5-.62-.5-1.13,0-.37.13-.75.5-1.12.25-.25.62-.5,1.12-.5.38,0,.75.13,1.12.5.25.25.5.63.5,1.12s-.13.75-.5,1.13c-.25.25-.62.5-1.12.5Zm8.12,0c-.37,0-.75-.12-1.12-.5-.25-.25-.5-.62-.5-1.13,0-.37.13-.75.5-1.12.25-.25.62-.5,1.12-.5.37,0,.75.13,1.12.5.25.25.5.63.5,1.12s-.13.75-.5,1.13c-.37.25-.75.5-1.12.5Zm8.12,0c-.5,0-.88-.12-1.12-.5-.25-.25-.5-.62-.5-1.13,0-.37.13-.75.5-1.12.25-.25.62-.5,1.12-.5.37,0,.75.13,1.12.5.25.25.5.63.5,1.12s-.13.75-.5,1.13c-.37.25-.75.5-1.12.5Zm8,0c-.37,0-.75-.12-1.13-.5-.25-.25-.5-.62-.5-1.13,0-.37.13-.75.5-1.12.25-.25.62-.5,1.13-.5s.75.13,1.13.5c.25.25.5.63.5,1.12s-.12.75-.5,1.13c-.25.25-.63.5-1.13.5Z"/></svg>