<?xml version="1.0" encoding="UTF-8"?><svg id="Layer_1" xmlns="http://www.w3.org/2000/svg" viewBox="0 0 40 40"><defs><style>.cls-1{fill:none;}</style></defs><rect class="cls-1" x="0" width="40" height="40"/><path d="m12.51,4.34c-.34-.23-.46-.46-.46-.8s0-.57.23-.91.46-.46.8-.46.57,0,.91.23l9.37,6.97c.23.23.46.46.46.8s0,.57-.23.91c-.34.23-.57.46-.91.46s-.57,0-.91-.23l-9.26-6.97Zm-1.83,5.49c-.34-.23-.46-.46-.46-.8s0-.57.23-.91.46-.46.8-.46.57,0,.91.23l4.69,3.43c-.46,0-.91.11-1.26.46-.46.23-.69.57-.91.91l-4-2.86Zm8.11-7.66c-.34-.23-.46-.46-.46-.8s0-.57.23-.91.46-.46.8-.46.57,0,.91.23l10.51,7.89.57-4.91c.11-.46.23-.8.57-1.14s.69-.57,1.14-.57h.46c.34,0,.69,0,1.03.23s.46.46.57.8l3.89,13.03c.23.8.34,1.6.11,2.29-.11.8-.46,1.49-.91,2.06l-3.77,5.03c0-.46-.11-1.03-.34-1.49-.11-.46-.34-.91-.57-1.37l2.74-3.77c.23-.34.46-.69.46-1.14.11-.34,0-.8-.11-1.14l-3.09-10.63-.57,4.34c-.11.57-.34,1.03-.91,1.26-.57.23-1.03.11-1.49-.23,0,.23-11.77-8.57-11.77-8.57Zm-5.83,16.23l-2.51-1.83c-.34-.23-.46-.46-.46-.8s0-.57.23-.91.46-.46.8-.46.57,0,.91.23l1.6,1.26c0,.46,0,.91.11,1.26.11.46.23.8.46,1.26h-1.14ZM1.88,29.03c-.34,0-.57-.11-.8-.34-.23-.23-.34-.57-.34-.8,0-.34.11-.57.34-.8s.46-.34.8-.34h11.66c.34,0,.57.11.8.34.23.23.34.57.34.91s-.11.57-.34.8-.46.34-.8.34c.11-.11-11.66-.11-11.66-.11Zm1.94,5.49c-.34,0-.57-.11-.8-.34-.23-.23-.34-.57-.34-.8,0-.34.11-.57.34-.8.23-.34.46-.46.8-.46h9.71c.34,0,.57.11.8.34.23.23.34.57.34.91s-.11.57-.34.8-.46.34-.8.34H3.82Zm3.77,5.49c-.34,0-.57-.11-.8-.34s-.34-.57-.34-.91.11-.57.34-.8c.23-.23.46-.34.8-.34h19.2c.69,0,1.37-.23,1.83-.8.46-.46.8-1.14.8-1.83v-8.91c0-.46-.11-.8-.23-1.14-.23-.34-.46-.69-.8-.91l-8.91-6.63,2.17,3.89c.23.46.23,1.03,0,1.49s-.69.69-1.26.69H5.77c-.34,0-.57-.11-.8-.34-.23-.23-.34-.57-.34-.91s.11-.57.34-.8c.23-.23.46-.34.8-.34h13.14l-2.4-4.34c-.23-.34-.34-.8-.23-1.26,0-.46.23-.8.57-1.14l.34-.34c.23-.23.57-.34.91-.46.34,0,.69.11.91.34l10.86,8.11c.69.46,1.14,1.03,1.49,1.71s.57,1.49.57,2.29v8.91c0,1.37-.46,2.63-1.49,3.54-1.03,1.03-2.17,1.49-3.54,1.49-.11.11-19.31.11-19.31.11Z"/></svg>