<?xml version="1.0" encoding="UTF-8"?><svg id="Layer_1" xmlns="http://www.w3.org/2000/svg" viewBox="0 0 40 40"><defs><style>.cls-1{fill:none;}</style></defs><rect class="cls-1" x="0" width="40" height="40"/><path d="m16.15,28.04c-.27-.27-.41-.69-.41-1.1s.14-.69.41-.96l4.54-4.54H2.13c-.41,0-.69-.14-.96-.41-.27-.27-.41-.69-.41-1.1s.14-.69.41-.96c.27-.27.55-.41.96-.41h18.42l-4.54-4.67c-.27-.27-.41-.55-.41-.96s.14-.69.41-1.1c.27-.27.55-.41.96-.41s.69.14,1.1.41l6.87,6.74c.14.14.27.41.41.55.14.27.14.41.14.69s0,.41-.14.69c-.14.14-.27.41-.41.55l-6.87,6.87c-.27.27-.55.41-.96.41-.41.14-.69,0-.96-.27Zm5.22,11.96c-.41,0-.69-.14-.96-.41s-.41-.69-.41-1.1.14-.69.41-.96c.27-.27.55-.41.96-.41h14.3c.14,0,.27-.14.55-.27.14-.14.27-.27.27-.55V3.3c0-.14-.14-.27-.27-.55-.14-.14-.27-.27-.55-.27h-14.3c-.41,0-.69-.14-.96-.41-.27,0-.41-.27-.41-.69s.14-.69.41-.96c.27-.27.55-.41.96-.41h14.3c.96,0,1.79.41,2.47,1.1.82.55,1.1,1.37,1.1,2.34v32.99c0,.96-.41,1.79-1.1,2.47s-1.51,1.1-2.47,1.1h-14.3Z"/></svg>