<?xml version="1.0" encoding="UTF-8"?><svg id="Layer_1" xmlns="http://www.w3.org/2000/svg" viewBox="0 0 40 40"><defs><style>.cls-1{fill:none;}</style></defs><rect class="cls-1" x="0" width="40" height="40"/><path d="m34.88,40c-.78,0-1.4-.31-1.86-.78-.47-.47-.78-1.09-.78-1.86V2.64c0-.78.31-1.4.78-1.86.47-.47,1.09-.78,1.86-.78s1.4.31,1.86.78c.47.47.78,1.09.78,1.86v34.73c0,.78-.31,1.4-.78,1.86-.47.47-1.09.78-1.86.78Zm-29.61,0c-.31,0-.78,0-1.09-.16s-.62-.31-.93-.62c-.31-.31-.47-.47-.62-.93-.16-.31-.16-.62-.16-1.09v-8.84c0-.78.31-1.4.78-1.86.47-.47,1.09-.78,1.86-.78s1.4.31,1.86.78.78,1.09.78,1.86v8.84c0,.31,0,.78-.16,1.09s-.31.62-.62.93c-.31.31-.47.47-.78.62-.31,0-.62.16-.93.16Zm14.73,0c-.78,0-1.4-.31-1.86-.78-.47-.47-.78-1.09-.78-1.86V15.5c0-.78.31-1.4.78-1.86s1.09-.78,1.86-.78,1.4.31,1.86.78c.47.47.78,1.09.78,1.86v21.86c0,.78-.31,1.4-.78,1.86-.47.47-1.09.78-1.86.78Z"/></svg>