<?xml version="1.0" encoding="UTF-8"?><svg id="Layer_1" xmlns="http://www.w3.org/2000/svg" viewBox="0 0 40 40"><defs><style>.cls-1{fill:none;}</style></defs><rect class="cls-1" x="0" width="40" height="40"/><path d="m29.59,28.08c-.27-.27-.41-.68-.41-1.1s.14-.68.41-.96l4.52-4.52H15.62c-.41,0-.68-.14-.96-.41-.27-.27-.41-.68-.41-1.1s.14-.68.41-.96.55-.41.96-.41h18.49l-4.66-4.66c-.27-.27-.41-.55-.41-.96s.14-.68.41-1.1c.27-.27.55-.41.96-.41s.68.14.96.41l6.85,6.71c.14.14.27.41.41.55.14.27.14.41.14.68s0,.41-.14.68c-.14.14-.27.41-.41.55l-6.71,6.85c-.27.27-.55.41-.96.41-.41.14-.68,0-.96-.27Zm-24.79,11.92c-.96,0-1.78-.41-2.47-1.1-.82-.68-1.1-1.51-1.1-2.47V3.56c0-.96.41-1.78,1.1-2.47s1.51-1.1,2.47-1.1h14.25c.41,0,.68.14.96.41.27.27.41.68.41,1.1s-.14.68-.41.96c-.27.27-.55.41-.96.41H4.79c-.14,0-.27.14-.55.27-.14.14-.14.27-.14.41v32.88c0,.14.14.27.27.55.14.14.27.27.55.27h14.11c.41,0,.68.14.96.41s.41.68.41.96-.14.68-.41.96c-.27.27-.55.41-.96.41H4.79Z"/></svg>