<?xml version="1.0" encoding="UTF-8"?><svg id="Layer_1" xmlns="http://www.w3.org/2000/svg" viewBox="0 0 40 40"><defs><style>.cls-1{fill:none;}</style></defs><rect class="cls-1" width="40" height="40"/><path d="m5.87,35.9c-.55,0-.96-.14-1.23-.55-.27-.27-.55-.82-.55-1.23v-15.29H1.37c-.41,0-.68-.14-.96-.41-.27-.27-.41-.68-.41-.96,0-.41.14-.68.41-.96.14-.41.55-.55.96-.55h6.42c-.96,0-1.77-.41-2.46-1.09s-1.09-1.5-1.09-2.46v-6.42c0-.55.14-.96.55-1.23.27-.27.82-.55,1.23-.55h7.92c.55,0,.96.14,1.23.55.41.27.68.68.68,1.23v6.42c0,.96-.41,1.77-1.09,2.46-.68.68-1.5,1.09-2.46,1.09h16.25v-6.14c0-.82-.27-1.5-.82-1.91-.55-.55-1.23-.82-2.05-.82-.55,0-.96.14-1.37.27-.41.27-.68.55-.96.96-.14.27-.41.55-.55.55-.41.27-.55.27-.82.27-.55,0-.96-.27-1.23-.68-.27-.41-.14-.96.14-1.5.55-.82,1.23-1.5,2.05-2.05s1.77-.82,2.87-.82c1.64,0,2.87.55,3.96,1.64s1.64,2.46,1.64,3.96v6.28h7.24c.41,0,.68.14.96.41.27.27.41.68.41.96,0,.41-.14.68-.41.96s-.55.41-.96.41h-2.73v15.29c0,.55-.14.96-.55,1.23-.27.27-.82.55-1.23.55-.14.14-28.26.14-28.26.14Zm1.23-22.8h5.87v-6.01h-5.87v6.01Zm-.14,19.93h11.6v-14.2H6.96v14.2Zm14.33,0h11.6v-14.2h-11.6v14.2ZM7.1,13.11h5.87-5.87Z"/></svg>