<?xml version="1.0" encoding="UTF-8"?><svg id="Layer_1" xmlns="http://www.w3.org/2000/svg" viewBox="0 0 40 40"><defs><style>.cls-1{fill:none;}</style></defs><rect class="cls-1" width="40" height="40"/><path d="m8.49,26.7c-.78,0-1.45-.34-2.01-.89s-.89-1.23-.89-2.01V2.91c0-.78.34-1.45.89-2.01.56-.67,1.23-.89,2.01-.89h10.06c.78,0,1.45.34,2.01.89.56.56.78,1.23.78,2.01v5.03c0,1.01.22,1.9.78,2.68.56.78,1.23,1.34,2.23,1.56l5.14,1.34c1.45.34,2.57,1.12,3.58,2.35.89,1.23,1.34,2.57,1.34,4.13v3.8c0,.78-.34,1.45-.89,2.01-.56.67-1.23.89-2.01.89H8.49Zm6.03-16.98c0-.22.11-.34.22-.45s.34-.22.45-.22h3.91c-.11-.34-.11-.78-.11-1.12v-1.23h-3.8c-.22,0-.34-.11-.45-.22-.11-.11-.22-.34-.22-.45,0-.22.11-.34.22-.45.11-.11.34-.22.45-.22h3.8v-2.46c0-.11,0-.34-.11-.45s-.22-.11-.45-.11h-10.06c-.11,0-.34,0-.45.11,0,.11,0,.22,0,.45v21.01c0,.11,0,.34.11.45.11,0,.22.11.45.11h23.02c.11,0,.34,0,.45-.11s.11-.22.11-.45v-3.91c0-1.01-.34-1.9-.89-2.68s-1.34-1.23-2.35-1.56l-5.14-1.34c-1.12-.34-1.9-.78-2.57-1.45-.67-.67-1.23-1.45-1.56-2.46h-4.36c-.22,0-.34-.11-.45-.22-.11-.22-.22-.34-.22-.56Zm-7.82,30.28c-1.34,0-2.46-.45-3.46-1.45-1.01-1.01-1.45-2.12-1.45-3.46s.45-2.46,1.45-3.46,2.12-1.45,3.46-1.45,2.46.45,3.46,1.45c1.01,1.01,1.45,2.12,1.45,3.46s-.45,2.46-1.45,3.46c-.89,1.01-2.12,1.45-3.46,1.45Zm0-2.35c.67,0,1.34-.22,1.79-.78.45-.56.78-1.12.78-1.79s-.22-1.34-.78-1.79c-.45-.45-1.12-.78-1.79-.78s-1.34.22-1.79.78c-.56.45-.78,1.12-.78,1.79s.22,1.34.78,1.79c.56.56,1.12.78,1.79.78Zm26.59,2.35c-1.34,0-2.46-.45-3.46-1.45-1.01-1.01-1.45-2.12-1.45-3.46s.45-2.46,1.45-3.46,2.12-1.45,3.46-1.45,2.46.45,3.46,1.45,1.45,2.12,1.45,3.46-.45,2.46-1.45,3.46c-1.01,1.01-2.12,1.45-3.46,1.45Zm0-2.35c.67,0,1.34-.22,1.79-.78s.78-1.12.78-1.79-.22-1.34-.78-1.79c-.45-.45-1.12-.78-1.79-.78s-1.34.22-1.79.78c-.56.45-.78,1.12-.78,1.79s.22,1.34.78,1.79c.45.56,1.12.78,1.79.78Zm-13.3,2.35c-1.34,0-2.46-.45-3.46-1.45-1.01-1.01-1.45-2.12-1.45-3.46s.45-2.46,1.45-3.46c1.01-1.01,2.12-1.45,3.46-1.45s2.46.45,3.46,1.45,1.45,2.12,1.45,3.46-.45,2.46-1.45,3.46c-.89,1.01-2.12,1.45-3.46,1.45Zm0-2.35c.67,0,1.34-.22,1.79-.78s.78-1.12.78-1.79-.22-1.34-.78-1.79c-.45-.45-1.12-.78-1.79-.78s-1.34.22-1.79.78c-.56.45-.78,1.12-.78,1.79s.22,1.34.78,1.79c.45.56,1.12.78,1.79.78Z"/></svg>