<?xml version="1.0" encoding="UTF-8"?><svg id="Layer_1" xmlns="http://www.w3.org/2000/svg" viewBox="0 0 40 40"><defs><style>.cls-1{fill:none;}</style></defs><rect class="cls-1" width="40" height="40"/><path d="m1.5,12.4l-1.5,1.99h7.35l.5-10.59L1.5,12.4h0ZM31.28,3.05l-10.34-1.12,10.97,11.84-.62-10.72h0Zm-22.93,13.96l-.87-1.74H.12l18.19,21.06-9.97-19.31Zm.25-2.62h22.93l-6.6-7.1-4.86-5.23-11.46,12.34Zm23.93.75l-10.84,21.06,18.19-21.06h-7.35Zm.37-10.22l-.75-1,.12,1.37.5,9.1h7.23l-7.1-9.47Zm-24.42,1.99l-.37,6.85L19.07,1.93l-10.34,1.12-.25,3.86Zm23.18,8.22H8.35l3.36,6.73,8.22,16.2,11.71-22.93h0Z"/></svg>