<?xml version="1.0" encoding="UTF-8"?><svg id="Layer_1" xmlns="http://www.w3.org/2000/svg" viewBox="0 0 40 40"><defs><style>.cls-1{fill:none;}</style></defs><rect class="cls-1" width="40" height="40"/><path d="m28.91,7.14c-.95,0-1.79-.36-2.5-1.07-.71-.71-1.07-1.55-1.07-2.5s.36-1.79,1.07-2.5,1.55-1.07,2.5-1.07,1.79.36,2.5,1.07,1.07,1.55,1.07,2.5-.36,1.79-1.07,2.5-1.55,1.07-2.5,1.07Zm4.17,32.86c-.83,0-1.55-.12-2.38-.24-.71-.12-1.55-.36-2.26-.6L1.77,29.52c-.36-.12-.48-.24-.6-.48-.12-.24-.12-.48,0-.71s.24-.48.48-.6c.24-.12.48-.12.71,0l13.21,4.76,3.33-8.57c0-.12.12-.24,0-.36,0-.12-.12-.24-.24-.36l-7.62-7.62c-.24-.36-.48-.71-.71-1.07-.12-.36-.24-.83-.24-1.19,0-.6.12-1.07.48-1.55.24-.48.71-.95,1.19-1.19l7.86-4.64c.36-.12.6-.24.95-.36h.83c.71,0,1.31.24,1.9.6s.95.95,1.19,1.67l.6,2.14c.6,1.79,1.31,3.21,2.38,4.4,1.07,1.07,2.38,2.02,4.05,2.5l.83-2.38c.12-.24.24-.36.48-.48.24-.12.48-.12.71-.12.24.12.48.24.6.48.12.24.12.48,0,.71l-1.19,3.45c-.12.36-.36.6-.6.71-.36.12-.6.24-.95.12-2.02-.6-3.81-1.55-5.12-2.86-1.31-1.31-2.5-2.98-3.21-5.12l-7.02,4.05,4.88,5.71c.36.48.6.95.71,1.55s0,1.07-.24,1.67l-3.57,9.05,7.38,2.62,4.52-13.69c.36.12.6.24.83.36s.6.12.95.24l-4.52,13.81,2.02.71c.71.24,1.31.36,2.02.48.6.12,1.31.12,2.14.12s1.55-.12,2.26-.24c.71-.12,1.43-.36,2.14-.6.12,0,.36-.12.48,0,.12,0,.36.12.48.24.24.24.36.6.36.95-.12.36-.24.6-.6.71-.83.36-1.67.48-2.38.71-1.07.12-1.9.12-2.86.12h0Z"/></svg>