<?xml version="1.0" encoding="UTF-8"?><svg id="Layer_1" xmlns="http://www.w3.org/2000/svg" viewBox="0 0 40 40"><defs><style>.cls-1{fill:none;}</style></defs><rect class="cls-1" width="40" height="40"/><path d="m8.39,40v-8.58c-1.26-.5-2.4-1.26-3.41-2.15s-1.89-2.02-2.65-3.15-1.26-2.52-1.64-3.91c-.38-1.39-.63-2.78-.63-4.29C.06,12.62,1.96,8.33,5.62,5.05,9.4,1.77,14.2,0,20,0s10.6,1.64,14.38,5.05c3.79,3.28,5.55,7.57,5.55,12.87,0,1.51-.25,2.9-.63,4.29s-1.01,2.65-1.64,3.91c-.76,1.14-1.64,2.27-2.65,3.15-1.01.88-2.15,1.64-3.41,2.15v8.58s-23.22,0-23.22,0Zm2.65-2.65h3.28v-4.29h3.15v4.29h4.79v-4.29h3.15v4.29h3.28v-7.57c1.26-.38,2.4-1.01,3.53-1.77,1.01-.76,1.89-1.64,2.65-2.65.76-1.01,1.26-2.15,1.64-3.41s.63-2.65.63-3.91c0-4.54-1.64-8.2-4.79-10.98s-7.32-4.16-12.49-4.16-9.34,1.39-12.49,4.16c-3.15,2.78-4.79,6.44-4.79,10.98,0,1.39.25,2.65.63,3.91s1.01,2.4,1.64,3.41c.76,1.01,1.64,1.89,2.65,2.65s2.15,1.39,3.53,1.77c0,0,0,7.57,0,7.57Zm6.06-10.98h5.93l-3.03-5.93-2.9,5.93Zm-4.42-5.17c1.01,0,1.77-.38,2.52-1.01.63-.76,1.01-1.51,1.01-2.52s-.38-1.77-1.01-2.52c-.76-.63-1.51-1.01-2.52-1.01s-1.77.38-2.52,1.01c-.63.76-1.01,1.51-1.01,2.52s.38,1.77,1.01,2.52c.63.76,1.51,1.01,2.52,1.01Zm14.64,0c1.01,0,1.77-.38,2.52-1.01.63-.76,1.01-1.51,1.01-2.52s-.38-1.77-1.01-2.52c-.76-.63-1.51-1.01-2.52-1.01s-1.77.38-2.52,1.01c-.63.76-1.01,1.51-1.01,2.52s.38,1.77,1.01,2.52c.76.76,1.64,1.01,2.52,1.01Z"/></svg>