<?xml version="1.0" encoding="UTF-8"?><svg id="Layer_1" xmlns="http://www.w3.org/2000/svg" viewBox="0 0 40 40"><defs><style>.cls-1{fill:none;}</style></defs><rect class="cls-1" width="40" height="40"/><path d="m37.76,23.8c.25-1.25.37-2.62.37-3.86C38.13,9.84,29.91,1.62,19.81,1.62c-1.37,0-2.62.12-3.86.37C14.33.75,12.21,0,9.97,0,4.49,0,0,4.49,0,9.97c0,2.24.75,4.36,2.12,6.11-.25,1.25-.37,2.62-.37,3.86,0,10.09,8.22,18.32,18.32,18.32,1.37,0,2.62-.12,3.86-.37,1.74,1.25,3.74,2.12,6.11,2.12,5.48,0,9.97-4.49,9.97-9.97-.12-2.49-1-4.61-2.24-6.23h0Zm-17.32,8.1c-5.86,0-10.72-2.62-10.72-5.73,0-1.37.75-2.74,2.62-2.74,2.74,0,2.99,3.99,7.85,3.99,2.24,0,3.74-1,3.74-2.37,0-1.62-1.37-1.87-3.74-2.49-5.61-1.37-10.47-1.99-10.47-7.73,0-5.23,5.23-7.23,9.72-7.23,4.86,0,9.84,1.99,9.84,4.98,0,1.5-1,2.87-2.74,2.87-2.49,0-2.62-2.99-6.73-2.99-2.24,0-3.74.62-3.74,1.99,0,1.74,1.87,1.99,6.11,2.99,3.74.87,8.1,2.37,8.1,6.85.12,5.23-4.98,7.6-9.84,7.6h0Z"/></svg>