<?xml version="1.0" encoding="UTF-8"?><svg id="Layer_1" xmlns="http://www.w3.org/2000/svg" viewBox="0 0 40 40"><defs><style>.cls-1{fill:none;}</style></defs><rect class="cls-1" width="40" height="40"/><path d="m8.35,25.17c0,2.24-1.87,4.24-4.24,4.24s-4.11-1.87-4.11-4.24,1.87-4.24,4.24-4.24h4.24v4.24h-.12Zm2.12,0c0-2.37,1.87-4.24,4.24-4.24s4.24,1.87,4.24,4.24v10.47c0,2.37-1.87,4.24-4.24,4.24s-4.24-1.87-4.24-4.24v-10.47Zm4.24-16.82c-2.24,0-4.24-1.87-4.24-4.24S12.34,0,14.7,0s4.24,1.87,4.24,4.24v4.24l-4.24-.12h0Zm0,2.12c2.37,0,4.24,1.87,4.24,4.24s-1.87,4.24-4.24,4.24H4.24c-2.37,0-4.24-1.87-4.24-4.24s1.87-4.24,4.24-4.24h10.47Zm16.82,4.24c0-2.24,1.87-4.24,4.24-4.24,2.24,0,4.24,1.87,4.24,4.24s-1.87,4.24-4.24,4.24h-4.24v-4.24h0Zm-2.12,0c0,2.37-1.87,4.24-4.24,4.24s-4.24-1.87-4.24-4.24V4.24c0-2.37,1.87-4.24,4.24-4.24,2.24,0,4.24,1.87,4.24,4.24v10.47h0Zm-4.24,16.82c2.24,0,4.24,1.87,4.24,4.24s-1.87,4.24-4.24,4.24-4.24-1.87-4.24-4.24v-4.24s4.24,0,4.24,0Zm0-2.12c-2.37,0-4.24-1.87-4.24-4.24s1.87-4.24,4.24-4.24h10.47c2.24,0,4.24,1.87,4.24,4.24,0,2.24-1.87,4.24-4.24,4.24h-10.47Z"/></svg>