<?xml version="1.0" encoding="UTF-8"?><svg id="Layer_1" xmlns="http://www.w3.org/2000/svg" viewBox="0 0 40 40"><defs><style>.cls-1{fill:none;}</style></defs><rect class="cls-1" width="40" height="40"/><path d="m1.44,35.33c-.41,0-.69-.14-.96-.41s-.41-.69-.41-.96c0-.41.14-.69.41-.96s.55-.41.96-.41h9.9c.41,0,.69.14.96.41.27.27.41.69.41,1.1s-.14.69-.41.96-.55.41-.96.41H1.44v-.14ZM1.44,7.42c-.41,0-.69-.14-.96-.41s-.41-.69-.41-1.1.14-.69.41-.96c.27-.27.55-.41.96-.41h19.24c.41,0,.69.14.96.41s.41.69.41.96c0,.41-.14.69-.41.96-.27.27-.55.41-.96.41H1.44v.14Zm17.87,32.58c-.41,0-.69-.14-.96-.41s-.41-.55-.41-.96v-9.35c0-.41.14-.69.41-.96.27-.27.69-.41.96-.41.41,0,.69.14.96.41.27.27.41.69.41.96v3.16h17.87c.41,0,.69.14.96.41.27.27.41.69.41,1.1s-.14.69-.41.96-.55.41-.96.41h-17.87v3.16c0,.41-.14.69-.41.96-.14.41-.55.55-.96.55Zm-7.97-14.02c-.41,0-.69-.14-.96-.41s-.41-.55-.41-.96v-3.3H1.44c-.41,0-.69-.14-.96-.41-.27-.27-.41-.69-.41-1.1s.14-.69.41-.96c.14-.14.55-.27.96-.27h8.52v-3.3c0-.41.14-.69.41-.96s.69-.41.96-.41c.41,0,.69.14.96.41s.41.55.41.96v9.35c0,.41-.14.69-.41.96-.27.27-.55.41-.96.41Zm7.97-4.67c-.41,0-.69-.14-.96-.41-.27-.27-.41-.69-.41-1.1s.14-.69.41-.96c.27-.27.55-.41.96-.41h19.24c.41,0,.69.14.96.41.27.27.41.69.41,1.1s-.14.69-.41.96-.55.41-.96.41h-19.24Zm9.35-9.21c-.41,0-.69-.14-.96-.41s-.41-.55-.41-.96V1.37c0-.41.14-.69.41-.96.27-.27.69-.41.96-.41.41,0,.69.14.96.41.27.27.41.55.41.96v3.16h8.52c.41,0,.69.14.96.41s.41.69.41.96c0,.41-.14.69-.41.96s-.55.41-.96.41h-8.52v3.16c0,.41-.14.69-.41.96-.14.55-.55.69-.96.69Z"/></svg>