<?xml version="1.0" encoding="UTF-8"?><svg id="Layer_1" xmlns="http://www.w3.org/2000/svg" viewBox="0 0 40 40"><defs><style>.cls-1{fill:none;}</style></defs><rect class="cls-1" width="40" height="40"/><path d="m27.34,17.09c.76,0,1.39-.25,1.9-.76s.76-1.14.76-1.9-.25-1.39-.76-1.9-1.14-.76-1.9-.76-1.39.25-1.9.76c-.51.51-.76,1.14-.76,1.9s.25,1.39.76,1.9c.51.63,1.14.76,1.9.76Zm-14.68,0c.76,0,1.39-.25,1.9-.76.51-.51.76-1.14.76-1.9s-.25-1.39-.76-1.9-1.14-.76-1.9-.76-1.39.25-1.9.76c-.51.51-.76,1.14-.76,1.9s.25,1.39.76,1.9c.51.63,1.14.76,1.9.76Zm7.34,13.8c1.77,0,3.54-.38,5.19-1.27,1.65-.89,2.91-2.03,3.92-3.54.25-.38.25-.76.13-1.14-.25-.38-.51-.51-1.01-.51-.13,0-.38,0-.51.13s-.38.25-.38.38c-.76,1.14-1.9,2.15-3.04,2.78-1.27.63-2.66,1.01-4.18,1.01s-2.91-.38-4.18-1.01-2.28-1.52-3.04-2.78c-.13-.13-.25-.25-.38-.38-.13-.13-.38-.13-.51-.13-.38,0-.76.13-.89.51-.25.38-.13.76.13,1.14,1.01,1.52,2.28,2.66,3.92,3.54,1.27.89,3.04,1.27,4.81,1.27Zm0,9.11c-2.78,0-5.32-.51-7.85-1.52s-4.56-2.53-6.33-4.3-3.29-3.92-4.3-6.33-1.52-5.06-1.52-7.85.51-5.32,1.52-7.85c1.01-2.41,2.53-4.56,4.3-6.33,1.77-1.77,3.92-3.29,6.33-4.3S17.22,0,20,0s5.32.51,7.85,1.52c2.41,1.01,4.56,2.53,6.33,4.3,1.77,1.77,3.29,3.92,4.3,6.33,1.01,2.41,1.52,5.06,1.52,7.85s-.51,5.32-1.52,7.85-2.53,4.56-4.3,6.33c-1.77,1.77-3.92,3.29-6.33,4.3-2.41,1.01-5.06,1.52-7.85,1.52Zm0-2.66c4.81,0,8.86-1.65,12.28-5.06s5.06-7.47,5.06-12.28-1.65-8.86-5.06-12.28-7.47-5.06-12.28-5.06-8.99,1.65-12.28,5.06-5.06,7.47-5.06,12.28,1.65,8.99,5.06,12.28c3.42,3.29,7.47,5.06,12.28,5.06Z"/></svg>