<?xml version="1.0" encoding="UTF-8"?><svg id="Layer_1" xmlns="http://www.w3.org/2000/svg" viewBox="0 0 40 40"><defs><style>.cls-1{fill:none;}</style></defs><rect class="cls-1" width="40" height="40"/><path d="m10.13,16.33c.25.25.51.38.76.38s.63-.13.76-.38l1.52-1.52,1.52,1.52c.25.25.51.38.76.38s.63-.13.76-.38c.25-.25.38-.51.38-.76s-.13-.51-.38-.76l-2.03-2.03c-.13-.13-.38-.25-.51-.38-.25-.13-.38-.13-.63-.13s-.38,0-.63.13c-.13.13-.38.25-.51.38l-2.03,2.03c-.25.25-.38.51-.38.76.25.25.38.51.63.76Zm13.54,0c.25.25.51.38.76.38s.63-.13.76-.38l1.52-1.52,1.52,1.52c.25.25.51.38.76.38s.63-.13.76-.38c.25-.25.38-.51.38-.76s-.13-.63-.38-.76l-2.03-2.03c-.13-.13-.38-.25-.51-.38-.25-.13-.38-.13-.63-.13s-.38,0-.63.13c-.13.13-.38.25-.51.38l-2.03,2.03c-.25.25-.38.51-.38.76.25.25.38.51.63.76Zm-3.67,23.67c-2.78,0-5.32-.51-7.85-1.52-2.41-1.01-4.56-2.53-6.33-4.3s-3.29-3.92-4.3-6.33S0,22.78,0,20s.51-5.32,1.52-7.85c1.01-2.41,2.53-4.56,4.3-6.33,1.77-1.77,3.92-3.29,6.33-4.3s5.06-1.52,7.85-1.52,5.32.51,7.85,1.52c2.41,1.01,4.56,2.53,6.33,4.3,1.77,1.77,3.29,3.92,4.3,6.33,1.01,2.41,1.52,5.06,1.52,7.85s-.51,5.32-1.52,7.85-2.53,4.56-4.3,6.33c-1.77,1.77-3.92,3.29-6.33,4.3-2.41,1.01-5.06,1.52-7.85,1.52Zm0-2.66c4.81,0,8.86-1.65,12.28-5.06s5.06-7.47,5.06-12.28-1.65-8.86-5.06-12.28c-3.42-3.42-7.47-5.06-12.28-5.06s-8.99,1.65-12.28,5.06-5.06,7.47-5.06,12.28,1.65,8.99,5.06,12.28c3.42,3.29,7.47,5.06,12.28,5.06Zm0-6.46c1.9,0,3.54-.38,5.32-1.27,1.65-.89,3.04-2.15,4.05-3.8.25-.38.25-.76.13-1.01-.13-.25-.51-.38-.89-.38H11.52c-.38,0-.76.13-.89.38s-.13.63.13,1.01c1.01,1.65,2.41,2.91,4.05,3.8s3.29,1.27,5.19,1.27Z"/></svg>