<?xml version="1.0" encoding="UTF-8"?><svg id="Layer_1" xmlns="http://www.w3.org/2000/svg" viewBox="0 0 40 40"><defs><style>.cls-1{fill:none;}</style></defs><rect class="cls-1" width="40" height="40"/><path d="m33.25,36.75v-4.59h2.29v4.59h-2.29Zm-30.96,0c-.64,0-1.15-.25-1.66-.64-.38-.38-.64-1.02-.64-1.66s.25-1.15.64-1.66c.38-.38,1.02-.64,1.66-.64h28.66v4.59H2.29Zm32.1-7.26c-.38,0-.64-.13-.76-.25-.25-.25-.25-.51-.25-.76v-1.78c0-1.4-.38-2.42-1.27-3.31s-1.91-1.27-3.06-1.27h-3.57c-1.78,0-3.31-.64-4.46-1.91-1.27-1.27-1.78-2.8-1.78-4.71,0-1.53.51-2.93,1.4-4.08,1.02-1.15,2.17-1.78,3.69-2.04.25,0,.64,0,.76.25.25.25.38.51.38.89,0,.25-.13.51-.25.76-.25.25-.51.38-.76.51-.89.25-1.53.64-2.04,1.4-.51.64-.76,1.53-.76,2.42,0,1.15.38,2.17,1.15,3.06.76.89,1.66,1.27,2.93,1.27h3.18c1.78,0,3.31.64,4.59,1.91s1.91,2.8,1.91,4.59v2.17c0,.38-.13.64-.38.76-.13,0-.38.13-.64.13Zm3.31,7.26v-4.59h2.29v4.59h-2.29Zm1.15-7.26c-.38,0-.64-.13-.76-.25-.25-.25-.38-.51-.38-.76v-3.95c0-2.29-.76-4.2-2.17-5.73-1.4-1.53-3.31-2.42-5.61-2.68-.38-.13-.64-.25-.76-.38-.25-.25-.25-.51-.25-.89,0-.25.13-.51.25-.76.25-.25.51-.38.76-.51.89-.25,1.53-.76,2.04-1.4.51-.76.76-1.53.76-2.55,0-.89-.25-1.78-.76-2.55-.51-.76-1.27-1.27-2.04-1.53-.38-.13-.64-.25-.76-.51-.25-.13-.25-.38-.25-.76,0-.25,0-.64.25-.76.25-.25.51-.25.76-.25,1.53.25,2.8,1.02,3.69,2.17s1.4,2.55,1.4,4.08c0,1.15-.25,2.04-.64,2.8-.38.89-.89,1.53-1.66,2.17,1.91.64,3.69,1.91,5.1,3.57,1.4,1.78,2.17,3.95,2.17,6.37v3.95c0,.38-.13.64-.38.76-.13.25-.38.38-.76.38Z"/></svg>