<?xml version="1.0" encoding="UTF-8"?><svg id="Layer_1" xmlns="http://www.w3.org/2000/svg" viewBox="0 0 40 40"><defs><style>.cls-1{fill:none;}</style></defs><rect class="cls-1" width="40" height="40"/><path d="m33.46,26.73l-.25-.25v-4.15h2.14v4.53c0-.13-1.89-.13-1.89-.13Zm-2.52-2.14l-2.26-2.26h2.26v2.26Zm6.67,2.14v-4.53h2.26v4.53h-2.26Zm-.25,13.21l-13.21-13.21H2.64c-.63,0-1.13-.25-1.64-.63-.5-.38-.63-1.01-.63-1.64s.25-1.13.63-1.64c.38-.38,1.01-.63,1.64-.63h17.11L.38,3.08c-.25-.25-.38-.63-.38-1.01s.13-.63.38-1.01c.38-.13.63-.25,1.01-.25s.63.13.88.38l36.98,36.98c.25.25.38.63.38.88,0,.38-.13.63-.38.88s-.63.38-1.01.38-.63-.13-.88-.38Zm-3.14-20.38c-.38,0-.63-.13-.75-.38-.25-.25-.38-.5-.38-.75v-1.76c0-1.38-.38-2.39-1.26-3.27-.88-.88-1.89-1.26-3.02-1.26h-3.52c-1.76,0-3.27-.63-4.4-1.89-1.26-1.26-1.76-2.77-1.76-4.65,0-1.51.5-2.89,1.38-3.9,1.01-1.13,2.14-1.76,3.65-2.01.25,0,.63,0,.75.25.25.25.38.5.38.88,0,.25-.13.5-.25.75-.25.25-.5.38-.75.5-.88.25-1.51.63-2.01,1.38-.5.63-.75,1.38-.75,2.26,0,1.13.38,2.14,1.13,3.02s1.64,1.26,2.89,1.26h3.52c1.76,0,3.27.63,4.53,1.89s1.89,2.77,1.89,4.53v2.14c0,.38-.13.63-.38.75-.25.25-.5.25-.88.25Zm4.53,0c-.38,0-.63-.13-.75-.38-.25-.25-.38-.5-.38-.75v-3.9c0-2.26-.75-4.15-2.14-5.66-1.38-1.51-3.27-2.39-5.53-2.64-.38,0-.63-.13-.75-.38-.25-.25-.25-.5-.25-.75s.13-.5.25-.75c.25-.25.5-.38.75-.5.63-.25,1.26-.5,1.76-1.01s.75-1.13,1.01-1.89c.13-.25.25-.5.38-.75.25-.13.5-.25.75-.25.38,0,.63.13.88.38.25.25.38.5.25.88-.13.75-.38,1.51-.75,2.01-.38.63-.88,1.13-1.38,1.51,1.89.63,3.65,1.89,5.03,3.52,1.38,1.76,2.14,3.9,2.14,6.29v3.9c0,.38-.13.63-.38.75-.38.38-.63.38-.88.38h0Z"/></svg>