<?xml version="1.0" encoding="UTF-8"?><svg id="Layer_1" xmlns="http://www.w3.org/2000/svg" viewBox="0 0 40 40"><defs><style>.cls-1{fill:none;}</style></defs><rect class="cls-1" width="40" height="40"/><path d="m11.23,19.2c.5,0,1.01-.13,1.26-.5.38-.38.5-.76.5-1.26s-.13-1.01-.5-1.26c-.38-.38-.76-.5-1.26-.5s-1.01.13-1.26.5c-.38.38-.5.76-.5,1.26s.13,1.01.5,1.26c.25.25.63.5,1.26.5Zm8.83,0c.5,0,1.01-.13,1.26-.5.38-.38.5-.76.5-1.26s-.13-1.01-.5-1.26c-.38-.38-.76-.5-1.26-.5s-1.01.13-1.26.5c-.38.38-.5.76-.5,1.26s.13,1.01.5,1.26c.25.25.76.5,1.26.5Zm8.58,0c.5,0,1.01-.13,1.26-.5.38-.38.5-.76.5-1.26s-.13-1.01-.5-1.26c-.38-.38-.76-.5-1.26-.5s-1.01.13-1.26.5c-.38.38-.5.76-.5,1.26s.13,1.01.5,1.26c.38.25.76.5,1.26.5Zm-21.2,14.01l-4.67,4.67c-.5.5-1.14.63-1.77.25-.63-.25-1.01-.76-1.01-1.51V4.94c0-.88.38-1.64,1.01-2.27s1.39-1.01,2.27-1.01h33.44c.88,0,1.64.38,2.27,1.01s1.01,1.39,1.01,2.27v24.98c0,.88-.38,1.64-1.01,2.27s-1.39,1.01-2.27,1.01c-.13,0-29.27,0-29.27,0Zm-3.41-2.65h32.56c.13,0,.25-.13.5-.25.13-.13.25-.25.25-.5V4.94c0-.13-.13-.25-.25-.5-.13-.13-.25-.25-.5-.25H3.28c-.13,0-.25.13-.5.25-.13.13-.13.25-.13.5v27.13c0-.13,1.39-1.51,1.39-1.51Zm-1.39,0V4.31v26.25Z"/></svg>