<?xml version="1.0" encoding="UTF-8"?><svg id="Layer_1" xmlns="http://www.w3.org/2000/svg" viewBox="0 0 40 40"><defs><style>.cls-1{fill:none;}</style></defs><rect class="cls-1" width="40" height="40"/><path d="m39.92,30.63c-.38,1-2.13,1.63-5.26,2.13-.13.25-.25,1.13-.5,1.88-.13.38-.5.75-1,.75h0c-.75,0-1.5-.38-3-.38-2.13,0-2.75.5-4.38,1.63-1.75,1.25-3.38,2.25-5.76,2.13-2.5.13-4.5-1.38-5.76-2.13-1.63-1.13-2.38-1.63-4.38-1.63-1.5,0-2.38.38-3,.38s-.88-.38-1-.75c-.25-.75-.38-1.63-.5-1.88-1.63-.25-5.26-.88-5.38-2.5,0-.38.25-.75.75-.88,5.38-.88,7.88-6.51,8.01-6.76h0c.25-.63.38-1.13.25-1.5-.38-.88-2.13-1.25-2.88-1.5-1.88-.75-2.13-1.63-2-2.13.25-1,1.75-1.63,2.63-1.25.75.38,1.38.5,1.88.5.38,0,.63-.13.75-.13-.13-2.75-.5-6.88.5-9.01C12.39,1.6,18.02,1.22,19.65,1.22h.75c4.13,0,8.01,2.13,9.89,6.38,1,2.25.63,6.26.5,9.14.13.13.38.13.63.13.5,0,1.13-.13,1.75-.5.5-.25,1.13-.25,1.63,0h0c.75.25,1.25.75,1.25,1.38,0,.75-.63,1.38-2,2-.13.13-.38.13-.63.25-.75.25-1.88.63-2.25,1.38-.13.38-.13.88.25,1.5h0c.13.25,2.5,5.88,8.01,6.76.38-.13.75.38.5,1h0Z"/></svg>