<?xml version="1.0" encoding="UTF-8"?><svg id="Layer_1" xmlns="http://www.w3.org/2000/svg" viewBox="0 0 40 40"><defs><style>.cls-1{fill:none;}</style></defs><rect class="cls-1" width="40" height="40"/><path d="m27.68,6.78c.9,0,1.69-.34,2.37-1.02s1.02-1.47,1.02-2.37-.34-1.69-1.02-2.37-1.47-1.02-2.37-1.02-1.69.34-2.37,1.02-1.02,1.47-1.02,2.37.34,1.69,1.02,2.37,1.47,1.02,2.37,1.02Zm5.08,33.22h-.79c-.34,0-.56-.11-.9-.11l-23.73-5.08c-1.36-.23-2.49-.79-3.5-1.58-1.02-.79-1.81-1.81-2.37-3.05,0,0,0-.23-.11-.45,0-.23.11-.45.34-.56.23-.23.45-.23.68-.23s.34.11.45.11c.11.11.23.23.34.34.45.9,1.13,1.69,1.92,2.37.79.68,1.69,1.13,2.6,1.24l1.36.23,6.78-4.52c.11,0,.11-.11.11-.23v-.23l-1.58-7.01v-1.13c.11-.45.23-.9.34-1.13l5.31-8.47h-5.65c-.11,0-.23,0-.23.11-.11,0-.11.11-.23.23l-2.71,4.41c-.23.23-.45.45-.79.56s-.56,0-.9-.11c-.34-.23-.45-.45-.56-.79s0-.56.11-.9l2.71-4.41c.23-.45.68-.79,1.13-1.02.68-.34,1.13-.45,1.58-.45h8.7c.68,0,1.24.23,1.69.56.45.45.79.79.9,1.13l1.02,2.26c.56,1.36,1.47,2.49,2.71,3.5,1.13.9,2.49,1.58,4.07,1.81.34.11.56.23.79.45.23.23.34.45.34.79s-.11.68-.34.9c-.23.23-.56.34-.9.23-1.69-.23-3.28-.9-4.75-2.03-1.47-1.02-2.71-2.37-3.73-4.18l-4.52,7.01,5.65,4.41c.34.23.56.56.68.79.23.34.34.68.34,1.02l1.69,10.73,2.6.56c.23.11.45.11.68.11h.68c.79,0,1.47-.11,2.26-.45.68-.34,1.36-.68,2.03-1.24,0,0,.23-.11.68-.23.23,0,.45.11.68.34.11.23.23.45.23.68,0,.11,0,.23-.11.34,0,.11-.11.23-.23.34-.79.68-1.58,1.24-2.6,1.58s-1.92.45-2.94.45Zm-6.44-2.94l-1.47-9.72q0-.11-.11-.23c0-.11-.11-.11-.11-.23l-6.78-4.75.79,6.21c.11.45,0,.79-.23,1.24-.23.34-.45.68-.79.9l-5.31,3.5s14.01,3.05,14.01,3.05Z"/></svg>