<?xml version="1.0" encoding="UTF-8"?><svg id="Layer_1" xmlns="http://www.w3.org/2000/svg" viewBox="0 0 40 40"><defs><style>.cls-1{fill:none;}</style></defs><rect class="cls-1" width="40" height="40"/><path d="m18.77,30.03l-6.77,6.77c-.25.25-.49.37-.86.37s-.62-.12-.86-.37-.37-.49-.37-.86.12-.62.37-.98l8.62-8.62v-5.17h-5.05l-8.74,8.62c-.25.25-.49.37-.86.37s-.62-.12-.86-.37c-.25-.25-.37-.49-.37-.86s.12-.62.37-.98l6.65-6.65H1.29c-.37,0-.62-.12-.86-.37-.25-.25-.37-.49-.37-.86s.12-.62.37-.86c.12-.37.49-.49.86-.49h8.62l-6.77-6.77c-.25-.25-.37-.62-.37-.98s.12-.62.37-.98c.25-.25.49-.37.86-.37s.62.12.98.37l8.62,8.62h5.17v-5.05L10.15,5.05c-.25-.25-.37-.49-.37-.86s.12-.62.37-.98c.25-.25.49-.37.86-.37s.62.12.98.37l6.65,6.65V1.23c0-.37.12-.62.37-.86.25-.25.49-.37.86-.37s.62.12.86.37c.37.25.49.49.49.86v8.62l6.77-6.65c.25-.25.49-.37.86-.37s.62.12.98.37c.25.25.37.62.37.98s-.12.62-.37.86l-8.62,8.62v5.05h5.05l8.49-8.49c.25-.25.49-.37.86-.37s.62.12.98.37c.25.25.37.49.37.86s-.12.62-.37.86l-6.52,6.77h8.62c.37,0,.62.12.86.37.25.25.37.62.37.86,0,.37-.12.74-.37.86-.25.25-.62.37-.86.37h-8.62l6.65,6.77c.25.25.37.49.37.86s-.12.62-.37.86-.62.37-.86.37c-.37,0-.62-.12-.86-.37l-8.62-8.62h-5.17v5.05l8.62,8.62c.25.25.37.49.37.86s-.12.62-.37.86c-.25.25-.49.37-.86.37s-.62-.12-.86-.37l-6.89-6.4v8.74c0,.37-.12.62-.37.86-.25.25-.62.37-.86.37-.37,0-.74-.12-.86-.37-.25-.25-.37-.49-.37-.86v-8.74Z"/></svg>