<?xml version="1.0" encoding="UTF-8"?><svg id="Layer_1" xmlns="http://www.w3.org/2000/svg" viewBox="0 0 40 40"><defs><style>.cls-1{fill:none;}</style></defs><rect class="cls-1" x="0" y="0" width="40" height="40"/><path d="m.98,36.08l2.41-12.41c.13-.76.51-1.39,1.14-1.9s1.27-.76,2.15-.76h26.58c.76,0,1.52.25,2.15.76s1.01,1.14,1.14,1.9l2.53,12.41c.13,1.01,0,1.9-.63,2.78-.63.76-1.52,1.14-2.53,1.14H4.14c-1.01,0-1.9-.38-2.53-1.14-.63-.89-.89-1.77-.63-2.78ZM7.68,1.27c0,.38-.13.63-.38.89-.25.38-.51.51-.89.51h-3.42c-.38,0-.63-.13-.89-.38-.25-.25-.38-.63-.38-1.01s.13-.63.38-.89.51-.38.89-.38h3.42c.38,0,.63.13.89.38.25.25.38.51.38.89Zm-3.42,36.08h14.43v-5.44H4.52l-.89,4.68c0,.25,0,.38.13.51.13.13.25.25.51.25Zm6.2-28.61c.25.25.38.63.38,1.01s-.13.63-.38,1.01l-2.41,2.41c-.25.25-.51.38-.89.38s-.63-.13-.89-.38-.38-.63-.38-1.01.13-.63.38-1.01l2.41-2.41c.25-.25.51-.38.89-.38.25,0,.63.13.89.38Zm-5.44,20.51h13.67v-5.57H6.67c-.13,0-.25,0-.38.13-.13.13-.25.25-.25.38l-1.01,5.06Zm14.94-20.25c-2.53,0-4.56-.89-6.33-2.66C11.86,4.56,10.98,2.41,10.98,0h2.66c0,1.77.63,3.29,1.9,4.56,1.27,1.27,2.66,1.9,4.43,1.9s3.16-.63,4.43-1.9S26.29,1.77,26.29,0h2.66c-.13,2.53-1.01,4.68-2.66,6.33-1.77,1.77-3.8,2.66-6.33,2.66Zm0,3.04c.38,0,.63.13.89.38s.38.51.38.89v3.42c0,.38-.13.63-.38.89-.25.25-.63.38-1.01.38s-.63-.13-.89-.38c-.13-.13-.25-.51-.25-.89v-3.42c0-.38.13-.63.38-.89.25-.25.51-.38.89-.38Zm1.27,25.32h14.43c.25,0,.38-.13.51-.25s.13-.38.13-.51l-.89-4.68h-14.18v5.44Zm0-8.1h13.54l-1.01-5.06c0-.13-.13-.25-.25-.38-.13-.13-.25-.13-.38-.13h-11.9v5.57Zm8.23-20.51c.25-.25.51-.38.89-.38s.63.13.89.38l2.41,2.41c.25.25.38.63.38.89,0,.38-.13.63-.38.89-.25.25-.63.38-.89.38-.38,0-.63-.13-1.01-.38l-2.41-2.41c-.25-.25-.38-.51-.38-.89.13-.38.25-.63.51-.89Zm8.73-7.47c0,.38-.13.63-.38.89s-.51.38-.89.38h-3.42c-.38,0-.63-.13-.89-.38-.25-.25-.38-.63-.38-.89,0-.38.13-.63.38-.89.25-.25.51-.38.89-.38h3.42c.38,0,.63.13.89.38.25.25.38.51.38.89Z"/></svg>