<?xml version="1.0" encoding="UTF-8"?><svg id="Layer_1" xmlns="http://www.w3.org/2000/svg" viewBox="0 0 40 40"><defs><style>.cls-1{fill:none;}</style></defs><rect class="cls-1" x="0" y="0" width="40" height="40"/><path d="m12.1,6.83c.27.27.41.55.41.96s-.14.69-.41,1.1c-.27.27-.55.41-.96.41H1.37c-.41,0-.69-.14-.96-.41s-.41-.55-.41-.96.14-.69.41-.96c.27-.27.55-.41.96-.41h9.76c.27-.14.69,0,.96.27Zm27.49,24.33c.27.27.41.55.41.96s-.14.69-.41.96-.55.41-.96.41H1.37c-.41,0-.69-.14-.96-.41-.27-.27-.41-.55-.41-.96s.14-.69.41-.96c.27-.27.55-.41.96-.41h37.25c.27,0,.69.14.96.41Zm-13.75-12.23c.27.27.41.55.41.96s-.14.69-.41.96c-.27.27-.55.41-.96.41H1.37c-.41,0-.69-.14-.96-.41-.27-.27-.41-.55-.41-.96s.14-.69.41-1.1c.27-.27.55-.41.96-.41h23.51c.27.14.69.27.96.55Z"/></svg>