<?xml version="1.0" encoding="UTF-8"?><svg id="Layer_1" xmlns="http://www.w3.org/2000/svg" viewBox="0 0 40 40"><defs><style>.cls-1{fill:none;}</style></defs><rect class="cls-1" x="0" y="0" width="40" height="40"/><path d="m1.4,25.19c-.53,0-.92-.13-1.18-.53-.26-.39-.26-.79-.13-1.31L7.31,5.49c.13-.39.39-.66.79-.92s.79-.39,1.18-.39.79.13,1.18.39c.39.26.66.53.79.92l7.09,17.72c.26.53.13.92-.13,1.31s-.66.53-1.31.53c-.26,0-.53-.13-.66-.26-.26-.13-.39-.39-.53-.53l-1.58-4.33H4.29l-1.84,4.46c-.13.26-.26.39-.53.53s-.26.26-.53.26Zm3.81-7.75h7.88l-3.81-10.11h-.26l-3.81,10.11Zm21.4,7.75c-.53,0-.92-.13-1.31-.53s-.53-.79-.53-1.31c0-.26,0-.53.13-.79s.26-.53.39-.79l11.55-15.1h-10.11c-.39,0-.66-.13-.92-.39s-.39-.53-.39-.92.13-.66.39-.92c.26-.26.53-.39.92-.39h11.16c.53,0,.92.13,1.31.53s.53.79.53,1.31c0,.26,0,.53-.13.79-.13.26-.26.53-.39.79l-11.42,15.1h10.9c.39,0,.66.13.92.39.26.26.39.53.39.92s-.13.66-.39.92c-.39.26-.66.39-1.05.39h-11.95Zm-6.04,10.77s-.26-.13-.66-.26l-3.28-3.28c-.26-.26-.39-.66-.26-.92.13-.39.39-.53.79-.53h6.56c.39,0,.66.13.79.53.13.39.13.66-.26.92l-3.02,3.28c-.13,0-.26.13-.66.26h0Z"/></svg>