<?xml version="1.0" encoding="UTF-8"?><svg id="Layer_1" xmlns="http://www.w3.org/2000/svg" viewBox="0 0 40 40"><defs><style>.cls-1{fill:none;}</style></defs><rect class="cls-1" x="0" y="0" width="40" height="40"/><path d="m10.94,10.5c-.29-.29-.43-.72-.43-1.15s.14-.86.43-1.15L18.56.58c.14-.14.43-.29.58-.43.29-.14.43-.14.72-.14s.43,0,.72.14.43.29.58.43l7.63,7.63c.29.29.43.72.43,1.15s-.14.72-.43,1.15c-.29.29-.72.43-1.15.43s-.86-.14-1.15-.43l-6.62-6.62-6.76,6.76c-.29.29-.72.43-1.15.43-.29-.14-.72-.29-1.01-.58Zm8.92,29.5c-.29,0-.43,0-.72-.14s-.43-.29-.58-.43l-7.63-7.63c-.29-.29-.43-.72-.43-1.15s.14-.86.43-1.15c.29-.29.72-.43,1.15-.43s.86.14,1.15.43l6.76,6.76,6.76-6.76c.29-.29.72-.43,1.15-.43s.72.14,1.15.43c.29.29.43.72.43,1.15s-.14.86-.43,1.15l-7.63,7.63c-.14.14-.43.29-.58.43-.58,0-.72.14-1.01.14Z"/></svg>