<?xml version="1.0" encoding="UTF-8"?><svg id="Layer_1" xmlns="http://www.w3.org/2000/svg" viewBox="0 0 40 40"><defs><style>.cls-1{fill:none;}</style></defs><rect class="cls-1" x="0" y="0" width="40" height="40"/><path d="m11,33.54H1.37c-.41,0-.69-.14-.96-.41s-.41-.69-.41-.96c0-.41.14-.69.41-.96s.55-.41.96-.41h9.76c.41,0,.69.14.96.41.27.27.41.69.41,1.1s-.14.69-.41.96c-.27.14-.69.27-1.1.27Zm27.49-24.33H1.37c-.41,0-.69-.14-.96-.41s-.41-.69-.41-.96c0-.41.14-.69.41-.96.27-.27.55-.41.96-.41h37.25c.41,0,.69.14.96.41s.41.69.41.96c0,.41-.14.69-.41.96-.27.27-.69.41-1.1.41Zm-13.75,12.1H1.37c-.41,0-.69-.14-.96-.41-.27-.27-.41-.69-.41-1.1s.14-.69.41-.96c.27-.27.55-.41.96-.41h23.51c.41,0,.69.14.96.41.27.27.41.69.41.96,0,.41-.14.69-.41.96s-.69.55-1.1.55Z"/></svg>