<?xml version="1.0" encoding="UTF-8"?><svg id="Layer_1" xmlns="http://www.w3.org/2000/svg" viewBox="0 0 40 40"><defs><style>.cls-1{fill:none;}</style></defs><rect class="cls-1" x="0" y="0" width="40" height="40"/><path d="m6.9,20l.38,4.14-.38,4.26c0,.13-.13.25-.25.25s-.25-.13-.25-.25l-.38-4.26.38-4.14c0-.13.13-.25.25-.25s.25.13.25.25Zm1.38-2.88c-.13,0-.25.13-.38.38l-.38,6.64.38,4.26c0,.13.13.38.38.38.13,0,.25-.13.25-.38l.38-4.26-.38-6.77c0-.13-.13-.25-.25-.25Zm1.63-1.5c-.25,0-.38.13-.38.38l-.25,8.15.25,4.26c0,.25.13.38.38.38.13,0,.38-.13.38-.38l.38-4.26-.38-8.15c-.13-.25-.25-.38-.38-.38h0ZM.38,21.63c-.13,0-.13.13-.13.13L0,24.01l.25,2.26c0,.13.13.13.13.13l.13-.13.38-2.26-.38-2.26s0-.13-.13-.13H.38Zm1.5-1.38c-.13,0-.13.13-.13.13l-.5,3.64.38,3.51c0,.13.13.13.13.13l.13-.13.63-3.51-.5-3.64s0-.13-.13-.13Zm1.63-.75c-.13,0-.25.13-.25.25l-.38,4.26.38,4.14c0,.13.13.25.25.25s.25-.13.25-.25l.38-4.14-.38-4.26c-.13-.13-.25-.25-.25-.25h0Zm1.5-.13c-.13,0-.25.13-.25.25l-.38,4.39.38,4.26c0,.13.13.25.25.25s.25-.13.25-.25l.38-4.26-.38-4.39c0-.13-.13-.25-.25-.25h0Zm15.17-6.9q-.13-.13-.25-.13c-.13,0-.25,0-.38.13-.13.13-.25.25-.25.38h0l-.25,11.03.13,2.01.13,2.01c0,.25.25.5.5.5s.5-.25.5-.5l.25-4.01-.25-11.16c.13,0,0-.13-.13-.25h0Zm-1.63,1c-.13,0-.13-.13-.25-.13s-.25,0-.25.13c-.13.13-.25.25-.25.38v.13l-.13,10.03.25,4.14h0c0,.13,0,.25.13.25.13.13.25.25.38.25s.25-.13.38-.13c.13-.13.13-.25.13-.38v-.38l.25-3.64-.38-10.28c-.13-.25-.13-.38-.25-.38h0Zm-7.02,1.38c-.25,0-.38.13-.38.38l-.25,8.78.25,4.26c0,.25.13.38.38.38s.38-.13.38-.38l.38-4.26-.38-8.78c0-.25-.13-.38-.38-.38h0Zm23.57,3.89c-.63,0-1.38.13-1.88.38-.38-4.39-4.14-7.9-8.65-7.9-1.13,0-2.26.25-3.13.63-.38.13-.5.25-.5.63v15.67c0,.38.25.5.5.63h13.67c2.76,0,4.89-2.26,4.89-4.89.13-2.88-2.13-5.14-4.89-5.14h0Zm-18.56-3.76c-.25,0-.5.25-.5.5l-.25,8.53.25,4.14c0,.25.25.5.5.5s.5-.25.5-.5l.25-4.14-.25-8.53c-.13-.25-.25-.5-.5-.5h0Zm-3.39-.5c-.25,0-.38.25-.38.38l-.25,9.15.25,4.14c0,.25.25.38.38.38.25,0,.38-.13.38-.38l.25-4.14-.25-9.15c0-.13-.13-.38-.38-.38Zm1.63.25c-.25,0-.38.25-.38.38l-.25,8.9.25,4.14c0,.25.25.38.38.38s.38-.25.38-.38l.25-4.14-.25-8.9c.13-.25-.13-.38-.38-.38h0Z"/></svg>