<?xml version="1.0" encoding="UTF-8"?><svg id="Layer_1" xmlns="http://www.w3.org/2000/svg" viewBox="0 0 40 40"><defs><style>.cls-1{fill:none;}</style></defs><rect class="cls-1" x="0" y="0" width="40" height="40"/><path d="m18.72,38.91c-2.31-.38-4.49-1.15-6.79-2.31-2.18-1.15-4.23-2.56-6.03-4.49-1.79-1.92-3.21-4.23-4.23-7.05-1.03-2.69-1.67-6.03-1.67-9.74v-.38c0-.38.13-.77.38-1.03.26-.26.64-.38,1.03-.38h.38c1.67,0,3.59.38,5.64,1.03,2.05.77,3.85,1.67,5.38,2.69.26-2.56.9-5.26,1.92-8.08s2.31-5.26,3.85-7.56c.51-.38.9-.64,1.41-.64s.9.26,1.28.77c1.54,2.18,2.82,4.74,3.85,7.56s1.67,5.51,1.92,8.08c1.54-1.03,3.21-1.92,5.38-2.69,2.05-.77,3.97-1.15,5.77-1.15h.38c.38,0,.77.13,1.03.38.26.26.38.64.38,1.03v.51c-.13,3.33-.64,6.41-1.54,8.97s-2.18,4.87-3.85,6.79c-1.54,1.92-3.46,3.46-5.64,4.74-2.18,1.28-4.49,2.18-6.92,2.82-.38.13-1.03.13-1.54.26-.77,0-1.28,0-1.79-.13Zm1.79-2.44c-.38-6.15-2.18-10.9-5.51-14.1s-7.31-5.26-12.18-6.03h0c.38,6.41,2.31,11.15,5.77,14.36,3.46,3.21,7.44,5.13,11.92,5.77q.13,0,0,0h0Zm-4.87-17.44c.77.64,1.54,1.54,2.44,2.56.77,1.03,1.41,1.92,1.92,2.95.51-.9,1.15-1.92,1.92-2.95s1.67-1.92,2.44-2.56c.13-2.31-.26-4.62-1.15-7.05-.77-2.44-1.92-4.87-3.21-7.31h0c-1.41,2.44-2.44,4.87-3.21,7.31-.9,2.44-1.28,4.74-1.15,7.05Zm5.77,8.46c.38,1.28.77,2.56,1.03,3.72.26,1.28.51,2.69.77,4.36,1.67-.64,3.21-1.41,4.87-2.31,1.54-1.03,2.95-2.31,4.23-3.85s2.31-3.46,3.21-5.51c.9-2.18,1.41-4.74,1.54-7.69h0c-3.59.51-6.79,1.79-9.62,3.85-2.69,2.05-4.74,4.49-6.03,7.44Z"/></svg>