<?xml version="1.0" encoding="UTF-8"?><svg id="Layer_1" xmlns="http://www.w3.org/2000/svg" viewBox="0 0 40 40"><defs><style>.cls-1{fill:none;}</style></defs><rect class="cls-1" x="0" y="0" width="40" height="40"/><path d="m24.4,40c-.13,0-.39,0-.52-.13s-.26-.13-.39-.26l-6.38-6.38c-.26-.26-.39-.52-.39-.91s.13-.65.39-.91c.26-.26.65-.39.91-.39.39,0,.65.13.91.39l5.34,5.34,11.73-11.73c.26-.26.52-.39.91-.39s.65.13.91.39c.26.26.39.65.39.91,0,.39-.13.65-.39.91l-12.77,12.77c-.13.13-.26.26-.39.26,0,.13-.13.13-.26.13ZM3.16,28.4c-.52,0-.91-.13-1.17-.52-.26-.39-.26-.78,0-1.3L11.37,1.43c.13-.39.39-.78.78-1.04.26-.26.65-.39,1.04-.39s.78.13,1.17.39c.39.26.65.65.78,1.04l9.25,25.02c.26.52.13,1.04-.13,1.43-.26.39-.65.52-1.3.52-.26,0-.52-.13-.78-.26s-.39-.39-.52-.65l-2.48-7.04H6.94l-2.61,7.04c-.13.26-.26.39-.52.65-.13.26-.39.26-.65.26Zm4.69-10.55h10.55L13.19,3.39h-.26c.13.13-5.08,14.46-5.08,14.46Z"/></svg>