<?xml version="1.0" encoding="UTF-8"?><svg id="Layer_1" xmlns="http://www.w3.org/2000/svg" viewBox="0 0 40 40"><defs><style>.cls-1{fill:none;}</style></defs><rect class="cls-1" x="0" y="0" width="40" height="40"/><path d="m20,0C9,0,0,9,0,20s9,20,20,20,20-9,20-20S31,0,20,0Zm8.12,29.38c-.37,0-.5-.13-.88-.25-5-3-10.88-3.12-16.63-2-.38.13-.75.25-1,.25-.75,0-1.25-.62-1.25-1.25,0-.88.5-1.25,1.12-1.38,6.62-1.5,13.38-1.38,19.12,2.13.5.37.75.62.75,1.38s-.62,1.12-1.25,1.12h0Zm2.13-5.25c-.37,0-.75-.13-1-.37-5-3-12.5-4.12-19.25-2.37-.38.13-.62.25-1,.25-.87,0-1.63-.75-1.63-1.62s.38-1.38,1.25-1.62c2.25-.62,4.5-1.12,7.87-1.12,5.25,0,10.25,1.25,14.25,3.62.62.37.88.88.88,1.62.25.87-.5,1.62-1.38,1.62Zm2.5-6.12c-.37,0-.62-.13-1-.37-5.75-3.37-16-4.25-22.63-2.37-.25.13-.62.25-1,.25-1.12,0-1.88-.87-1.88-1.88,0-1.12.62-1.75,1.38-1.88,2.88-.87,6-1.25,9.5-1.25,5.88,0,12,1.25,16.62,3.88.62.38,1,.88,1,1.88-.12,1-1,1.75-2,1.75h0Z"/></svg>