<?xml version="1.0" encoding="UTF-8"?><svg id="Layer_1" xmlns="http://www.w3.org/2000/svg" viewBox="0 0 40 40"><defs><style>.cls-1{fill:none;}</style></defs><rect class="cls-1" x="0" y="0" width="40" height="40"/><path d="m3.67,40.07c-.99,0-1.84-.42-2.54-1.13s-1.13-1.55-1.13-2.54V3.6c0-.99.42-1.84,1.13-2.54S2.69-.07,3.67-.07h32.65c.99,0,1.84.42,2.54,1.13s1.13,1.55,1.13,2.54v32.65c0,.99-.42,1.84-1.13,2.54s-1.55,1.13-2.54,1.13H3.67v.14Zm0-2.97h32.65c.14,0,.42,0,.57-.14s.14-.28.14-.57V3.6c0-.14,0-.42-.14-.57s-.28-.14-.57-.14H3.67c-.14,0-.42,0-.57.14,0,.28-.14.42-.14.57v32.65c0,.14,0,.42.14.57.28.14.42.28.57.28Zm-.71,0V2.9v34.2Z"/></svg>