<?xml version="1.0" encoding="UTF-8"?><svg id="Layer_1" xmlns="http://www.w3.org/2000/svg" viewBox="0 0 40 40"><defs><style>.cls-1{fill:none;}</style></defs><rect class="cls-1" x="0" y="0" width="40" height="40"/><path d="m28.75,24.87l-17.5-3.62-.75,3.5,17.5,3.62.75-3.5Zm4.63-7.75l-13.75-11.5-2.25,2.75,13.75,11.5,2.25-2.75Zm-2.75,3.62l-16.25-7.63-1.5,3.25,16.13,7.5,1.62-3.12ZM26.25,0l-2.87,2.12,10.62,14.25,2.87-2.12L26.25,0Zm1.88,29.25H10.25v3.5h17.88v-3.5Zm3.5,7.12H6.62v-10.75h-3.5v14.38h32.13v-14.25h-3.62s0,10.62,0,10.62Z"/></svg>