<?xml version="1.0" encoding="UTF-8"?><svg id="Layer_1" xmlns="http://www.w3.org/2000/svg" viewBox="0 0 40 40"><defs><style>.cls-1{fill:none;}</style></defs><rect class="cls-1" x="0" y="0" width="40" height="40"/><path d="m21.88,17.87c0,.75-.37,1.88-1.88,1.88h-1.75v-3.75h1.75c1.5,0,1.88,1.13,1.88,1.88ZM40,0v40H0V0h40ZM13.5,22.87c0-1.88-1.12-3.12-4.13-4-1.88-.62-2.37-1-2.37-1.62,0-.75.62-1.25,1.88-1.25s1.88.75,1.88,1.62h2.75c0-1.75-1.38-3.75-4.62-3.75-2.12,0-4.75,1-4.75,3.38,0,1.75.87,2.75,4.5,4,1.5.5,2,.88,2,1.75,0,1.38-1.75,1.25-1.75,1.25-1.88,0-2.25-.88-2.25-2h-2.75c0,2.75,2.5,4,5,4,2.75,0,4.62-1.25,4.62-3.38h0Zm11.25-5c0-2.25-1.62-4-4.75-4h-4.63v12.38h2.87v-4.25h1.75c2.63-.13,4.75-1.5,4.75-4.13h0Zm1.88,8.25l4.38-12.37h-2.75l-4.25,12.37h2.63Zm9.5-12.25h-2.75l-4.25,12.37h2.63l4.38-12.37Z"/></svg>