<?xml version="1.0" encoding="UTF-8"?><svg id="Layer_1" xmlns="http://www.w3.org/2000/svg" viewBox="0 0 40 40"><defs><style>.cls-1{fill:none;}</style></defs><rect class="cls-1" x="0" y="0" width="40" height="40"/><path d="m33.38,40H6.62c-.95,0-1.76-.41-2.43-1.08s-1.08-1.49-1.08-2.43v-8.78c0-.95.41-1.76,1.08-2.43s1.49-1.08,2.43-1.08h26.76c.95,0,1.76.41,2.43,1.08.68.68,1.08,1.49,1.08,2.43v8.78c0,.95-.41,1.76-1.08,2.43-.68.81-1.49,1.08-2.43,1.08Zm-1.62-7.84c.68,0,1.22-.27,1.62-.68.41-.41.68-.95.68-1.62v-.41c0-.68-.27-1.22-.68-1.62-.41-.41-.95-.68-1.62-.68H8.24c-.68,0-1.22.27-1.62.68s-.68.95-.68,1.62v.41c0,.68.27,1.22.68,1.62.41.41.95.68,1.62.68h23.51Zm-2.43-20.81l-7.97,10.95c-.14.27-.41.41-.68.54s-.54.14-.81.14-.54,0-.81-.14-.41-.27-.68-.54l-7.97-10.95c-.27-.27-.41-.68-.54-1.08-.14-.41-.14-.81-.14-1.22,0-2.57.95-4.86,2.97-6.49,2.16-1.76,4.59-2.57,7.3-2.57s5.14.81,7.16,2.57,2.97,3.92,2.97,6.49c0,.41,0,.81-.14,1.22-.27.41-.41.81-.68,1.08Zm-9.32,8.65l7.3-10c0-2.03-.68-3.65-2.16-5.14-1.49-1.35-3.11-2.03-5.14-2.03s-3.65.68-5.14,2.03c-1.49,1.35-2.16,3.11-2.16,5.14l7.3,10Z"/></svg>