<?xml version="1.0" encoding="UTF-8"?><svg id="Layer_1" xmlns="http://www.w3.org/2000/svg" viewBox="0 0 40 40"><defs><style>.cls-1{fill:none;}</style></defs><rect class="cls-1" x="0" y="0" width="40" height="40"/><path d="m20.02,6.6v22.16l9.02,5.5-2.45-10.24,7.95-6.88-10.39-.92-4.13-9.63Zm0,25.98l-10.54,6.42c-.31.15-.61.31-.92.15-.31,0-.61-.15-.92-.31-.31-.15-.46-.46-.61-.76-.15-.31-.15-.61,0-.92l2.75-11.92L.46,17.14c-.15-.31-.31-.61-.46-.92v-.92c.15-.31.31-.46.61-.61.31-.15.61-.31.92-.31l12.23-1.07L18.49,1.86c.15-.31.31-.61.61-.76.31-.15.61-.31.92-.31s.61.15.92.31c.31.15.46.46.61.76l4.74,11.31,12.23,1.07c.31,0,.61.15.92.31.31.15.46.46.46.76.15.31.15.61,0,.92,0,.31-.31.61-.46.76l-9.32,8.1,2.75,11.92c.15.31,0,.61,0,.92-.15.31-.31.46-.61.76-.31.15-.61.31-.92.31s-.61,0-.92-.15c.15,0-10.39-6.27-10.39-6.27Z"/></svg>