<?xml version="1.0" encoding="UTF-8"?><svg id="Layer_1" xmlns="http://www.w3.org/2000/svg" viewBox="0 0 40 40"><defs><style>.cls-1{fill:none;}</style></defs><rect class="cls-1" x="0" width="40" height="40"/><path d="m32.79,22.72l.25.25-13.2-13.08c-.25-.25-.75-.25-1.12,0l-4.48,3.36c-.37.25-.37.62-.12,1l5.23,4.98c.25.25.75.25,1.12,0h0c.37-.25.75-.25,1.12,0l6.48,6.35c.25.25.25.75-.12,1l-7.22,5.73c-.37.25-.87.25-1.12,0l-11.83-11.46c-.25-.25-.75-.25-1.12,0l-3.61,2.74c-.37.25-.37.62-.12,1l16.19,15.19s.62.5,1.37,0l15.32-12.7c.25-.25.37-.62,0-1l-2.99-3.36Zm4.23-6.48L20.71.17c-.12-.12-.62-.37-1.25.12L3.4,12.88c-.37.25-.37.62-.12,1l3.36,3.11,13.33,12.83c.25.25.75.25,1.12,0l3.86-2.99h0l.62-.5c.37-.25.37-.62.12-1l-4.48-4.23c-.25-.25-.75-.25-1.12,0h0c-.37.25-.87.25-1.12,0l-7.35-7.1c-.25-.25-.25-.75.12-1l7.1-5.6c.37-.25.75-.25,1.12,0l12.45,12.33c.25.25.75.25,1.12,0l3.61-2.74c.12-.12.25-.5-.12-.75h0Z"/></svg>