<?xml version="1.0" encoding="UTF-8"?><svg id="Layer_1" xmlns="http://www.w3.org/2000/svg" viewBox="0 0 40 40"><defs><style>.cls-1{fill:none;}</style></defs><rect class="cls-1" x="0" width="40" height="40"/><path d="m.63,37.91C.21,37.49,0,36.86,0,36.44,0,35.81.21,35.39.63,34.97l14.87-14.87L.63,5.24c-.42-.42-.63-1.05-.63-1.47,0-.63.21-1.05.63-1.47s1.05-.63,1.47-.63c.63,0,1.05.21,1.47.63l16.13,16.13c.21.21.42.63.63.84.21.21.21.63.21,1.05s0,.63-.21,1.05-.42.63-.63.84L3.56,38.32c-.42.42-1.05.63-1.47.63-.63-.42-1.05-.63-1.47-1.05Zm37.07,2.09c-.63,0-1.26-.21-1.47-.63-.42-.42-.63-.84-.63-1.47V2.09c0-.63.21-1.26.63-1.47C36.65.21,37.07,0,37.91,0,38.53,0,39.16.21,39.37.63c.42.42.63.84.63,1.47v35.81c0,.63-.21,1.26-.63,1.47-.42.42-1.05.63-1.68.63Z"/></svg>