<?xml version="1.0" encoding="UTF-8"?><svg id="Layer_1" xmlns="http://www.w3.org/2000/svg" viewBox="0 0 40 40"><defs><style>.cls-1{fill:none;}</style></defs><rect class="cls-1" x="0" width="40" height="40"/><path d="m39.37,2.09c.42.42.63,1.05.63,1.47,0,.63-.21,1.05-.63,1.47l-14.87,14.87,14.87,14.87c.42.42.63,1.05.63,1.47,0,.63-.21,1.05-.63,1.47s-1.05.63-1.47.63c-.63,0-1.05-.21-1.47-.63l-16.13-16.13c-.21-.21-.42-.63-.63-.84-.21-.21-.21-.63-.21-1.05s0-.63.21-1.05.42-.63.63-.84L36.44,1.68c.42-.42,1.05-.63,1.47-.63.63.42,1.05.63,1.47,1.05ZM2.3,0C2.93,0,3.56.21,3.77.63c.42.42.63.84.63,1.47v35.81c0,.63-.21,1.26-.63,1.47-.42.42-.84.63-1.68.63-.63,0-1.26-.21-1.47-.63-.42-.42-.63-.84-.63-1.47V2.09C0,1.47.21.84.63.63,1.05.21,1.68,0,2.3,0Z"/></svg>