<?xml version="1.0" encoding="UTF-8"?><svg id="Layer_1" xmlns="http://www.w3.org/2000/svg" viewBox="0 0 40 40"><defs><style>.cls-1{fill:none;}</style></defs><rect class="cls-1" x="0" width="40" height="40"/><path d="m23.14,40c-3.59,0-6.67-1.28-9.1-3.85s-3.72-5.64-3.72-9.23v-1.54c-2.82-.38-5.26-1.54-7.18-3.72S.19,16.92.19,13.97V3.85c0-.51.13-.9.51-1.15.26-.26.77-.51,1.15-.51h4.74v-.9c0-.38.13-.64.38-.9s.64-.38,1.03-.38.64.13.9.38c.26.26.38.51.38.9v4.36c0,.38-.13.64-.38.9s-.64.38-.9.38c-.38,0-.64-.13-.9-.38-.51-.26-.64-.51-.64-.9v-.9h-3.72v9.36c0,2.44.9,4.49,2.56,6.28,1.67,1.67,3.85,2.56,6.28,2.56s4.49-.9,6.28-2.56,2.56-3.85,2.56-6.28V4.74h-3.72v.9c0,.38-.13.64-.38.9-.26.26-.64.38-1.03.38s-.64-.13-.9-.38-.38-.51-.38-.9V1.28c0-.38.13-.64.38-.9s.64-.38.9-.38c.38,0,.64.13.9.38.26.26.38.51.38.9v.77h4.74c.51,0,.9.13,1.15.51.26.26.51.77.51,1.15v10.38c0,2.95-1.03,5.51-2.95,7.69-1.92,2.18-4.36,3.46-7.18,3.72v1.54c0,2.82,1.03,5.26,2.95,7.31,1.92,2.05,4.36,3.08,7.31,3.08s5.13-1.03,7.18-2.95c2.05-2.05,2.95-4.49,2.95-7.31v-3.72c-1.15-.26-2.05-.9-2.82-1.79-.77-.9-1.15-2.05-1.15-3.21,0-1.41.51-2.69,1.54-3.72,1.03-1.03,2.31-1.54,3.72-1.54s2.69.51,3.72,1.54c1.03,1.03,1.54,2.18,1.54,3.72,0,1.15-.38,2.31-1.15,3.21-.77.9-1.67,1.54-2.82,1.79v3.72c0,3.59-1.28,6.67-3.72,9.23-2.44,2.31-5.51,3.59-8.97,3.59Zm11.41-19.23c.64,0,1.28-.26,1.79-.77.51-.51.77-1.03.77-1.79s-.26-1.28-.77-1.79c-.51-.51-1.03-.77-1.79-.77s-1.28.26-1.79.77-.77,1.03-.77,1.79c0,.64.26,1.28.77,1.79.51.51,1.15.77,1.79.77Z"/></svg>