<?xml version="1.0" encoding="UTF-8"?><svg id="Layer_1" xmlns="http://www.w3.org/2000/svg" viewBox="0 0 40 40"><defs><style>.cls-1{fill:none;}</style></defs><rect class="cls-1" x="0" width="40" height="40"/><path d="m3.67,40.07c-.99,0-1.84-.42-2.54-1.13s-1.13-1.55-1.13-2.54V3.6c0-.99.42-1.84,1.13-2.54S2.69-.07,3.67-.07h32.65c.99,0,1.84.42,2.54,1.13s1.13,1.55,1.13,2.54v23.75c0,.57-.14.99-.28,1.41-.14.42-.42.85-.85,1.13l-8.9,8.9c-.28.28-.71.57-1.13.85-.42.14-.99.28-1.41.28H3.67v.14Zm23.75-2.97v-4.81c0-1.27.42-2.54,1.41-3.53s2.12-1.41,3.53-1.41h4.81V3.6c0-.14-.14-.28-.28-.57-.14-.14-.28-.28-.57-.28H3.67c-.14.14-.28.28-.42.42-.14.14-.28.28-.28.42v32.65c0,.14.14.28.28.57.14.14.28.28.57.28-.14,0,23.6,0,23.6,0Zm-8.76-22.9v13.14c0,.42.14.71.42.99.28.28.71.42.99.42s.71-.14.99-.42c.28-.28.42-.57.42-.99v-13.14h5.8c.42,0,.71-.14.99-.42s.42-.71.42-.99c0-.42-.14-.71-.42-.99-.28-.28-.57-.42-.99-.42h-14.56c-.42,0-.71.14-.99.42s-.42.71-.42,1.13.14.71.42.99.57.42.99.42h5.94v-.14ZM2.97,37.1V2.9v34.2Z"/></svg>