<?xml version="1.0" encoding="UTF-8"?><svg id="Layer_1" xmlns="http://www.w3.org/2000/svg" viewBox="0 0 40 40"><defs><style>.cls-1{fill:none;}</style></defs><rect class="cls-1" x="0" width="40" height="40"/><path d="m14.05,27.59h12.02c.51,0,.89-.13,1.14-.51.25-.25.51-.76.51-1.14v-12.02c0-.51-.13-.89-.51-1.14-.25-.25-.76-.51-1.14-.51h-12.02c-.51,0-.89.13-1.14.51-.25.25-.51.76-.51,1.14v12.02c0,.51.13.89.51,1.14.25.38.63.51,1.14.51Zm5.95,12.4c-2.78,0-5.32-.51-7.85-1.52s-4.56-2.53-6.33-4.3-3.29-3.92-4.3-6.33S0,22.78,0,20s.51-5.32,1.52-7.85c1.01-2.4,2.53-4.56,4.3-6.33,1.77-1.77,3.92-3.29,6.33-4.3S17.22,0,20,0s5.32.51,7.85,1.52c2.4,1.01,4.56,2.53,6.33,4.3,1.77,1.77,3.29,3.92,4.3,6.33,1.01,2.4,1.52,5.06,1.52,7.85s-.51,5.32-1.52,7.85-2.53,4.56-4.3,6.33c-1.77,1.77-3.92,3.29-6.33,4.3-2.4,1.01-5.06,1.52-7.85,1.52Zm0-2.66c4.81,0,8.99-1.65,12.28-5.06,3.42-3.42,5.06-7.47,5.06-12.28s-1.65-8.99-5.06-12.28c-3.42-3.42-7.47-5.06-12.28-5.06s-8.99,1.65-12.28,5.06c-3.42,3.42-5.06,7.47-5.06,12.28s1.65,8.99,5.06,12.28c3.29,3.42,7.47,5.06,12.28,5.06Z"/></svg>