<?xml version="1.0" encoding="UTF-8"?><svg id="Layer_1" xmlns="http://www.w3.org/2000/svg" viewBox="0 0 40 40"><defs><style>.cls-1{fill:none;}</style></defs><rect class="cls-1" x="0" width="40" height="40"/><path d="m15.67,2.49c-.36,0-.59-.12-.83-.36s-.36-.59-.36-.95.12-.59.36-.83.47-.36.83-.36h8.66c.36,0,.59.12.83.36s.36.59.36.83c0,.36-.12.59-.36.83-.24.24-.47.36-.83.36h-8.66v.12Zm4.27,21.96c.36,0,.59-.12.83-.36s.36-.47.36-.83v-8.43c0-.36-.12-.59-.36-.83-.24-.24-.59-.36-.95-.36s-.59.12-.83.36-.36.47-.36.83v8.43c0,.36.12.59.36.83.36.24.59.36.95.36Zm0,15.55c-2.26,0-4.51-.47-6.53-1.31s-3.8-2.14-5.34-3.56c-1.54-1.54-2.73-3.32-3.56-5.34s-1.31-4.27-1.31-6.53.47-4.51,1.31-6.53c.83-2.02,2.14-3.8,3.56-5.34,1.54-1.54,3.32-2.73,5.34-3.56,2.02-.83,4.27-1.31,6.53-1.31,2.02,0,4.04.36,5.93,1.07,1.9.71,3.56,1.66,5.1,2.97l1.42-1.42c.24-.24.47-.36.83-.36s.59.12.83.36.36.59.36.83c0,.36-.12.59-.36.83l-1.42,1.42c1.19,1.42,2.26,2.97,2.97,4.87.71,1.78,1.19,3.92,1.19,6.17s-.47,4.51-1.31,6.53c-.83,2.02-2.14,3.8-3.56,5.34-1.54,1.54-3.32,2.73-5.34,3.56-2.14.83-4.39,1.31-6.65,1.31Zm0-2.49c3.92,0,7.36-1.42,10.09-4.15s4.15-6.17,4.15-10.09-1.42-7.36-4.15-10.09-6.17-4.27-10.09-4.27-7.36,1.42-10.09,4.15-4.15,6.17-4.15,10.09,1.42,7.36,4.15,10.09,6.17,4.27,10.09,4.27Z"/></svg>