<?xml version="1.0" encoding="UTF-8"?><svg id="Layer_1" xmlns="http://www.w3.org/2000/svg" viewBox="0 0 40 40"><path d="m5.3,37.89c-.86,0-1.59-.37-2.21-.98s-.98-1.35-.98-2.21v-16.91c-.86-.74-1.47-1.59-1.84-2.7-.37-1.1-.37-2.21,0-3.43l2.08-6.74c.25-.86.74-1.59,1.35-2.08s1.35-.74,2.33-.74h27.81c.86,0,1.72.25,2.33.74s1.1,1.1,1.35,2.08l2.21,6.74c.37,1.23.37,2.33,0,3.43-.37,1.1-.98,2.08-1.84,2.82v16.78c0,.86-.37,1.59-.98,2.21s-1.35.98-2.21.98H5.3Zm19.23-21.19c1.1,0,2.08-.37,2.7-.98.61-.74.98-1.47.86-2.33l-1.35-8.58h-5.51v8.45c0,.98.37,1.72.98,2.45.61.61,1.47.98,2.33.98Zm-9.31,0c.98,0,1.84-.37,2.57-.98.61-.74.98-1.47.98-2.45V4.69h-5.51l-1.35,8.7c-.12.74.12,1.47.74,2.21.74.74,1.47,1.1,2.57,1.1Zm-9.19,0c.86,0,1.59-.25,2.21-.86s.98-1.35,1.1-2.21l1.35-8.94h-4.9c-.25,0-.37,0-.49.12-.25.12-.37.25-.37.49l-2.08,6.98c-.37,1.1-.25,2.08.37,3.06.61.86,1.59,1.35,2.82,1.35Zm27.93,0c1.1,0,2.08-.49,2.7-1.35.74-.86.86-1.96.49-3.06l-2.08-6.98c0-.25-.12-.37-.25-.37-.12-.12-.37-.12-.49-.12h-4.78l1.35,8.94c.12.86.49,1.59,1.1,2.21.37.37,1.1.74,1.96.74ZM5.3,35.31h29.4c.12,0,.37,0,.49-.12.12-.12.12-.25.12-.49v-15.68c-.12.12-.37.12-.61.12h-.74c-.86,0-1.72-.12-2.45-.49s-1.47-.98-2.08-1.72c-.49.74-1.23,1.23-1.96,1.59-.86.37-1.72.61-2.82.61-.86,0-1.72-.12-2.45-.49s-1.47-.86-2.21-1.59c-.61.74-1.35,1.23-2.08,1.59-.86.37-1.59.49-2.57.49s-1.84-.12-2.7-.49-1.47-.86-2.08-1.72c-.86.86-1.72,1.47-2.57,1.72-.74.37-1.47.49-2.08.49h-.74c-.25,0-.49-.12-.61-.12v15.68c0,.12,0,.37.12.49.25,0,.49.12.61.12Zm29.4,0H5.3h29.4Z"/></svg>