<?xml version="1.0" encoding="UTF-8"?><svg id="Layer_1" xmlns="http://www.w3.org/2000/svg" viewBox="0 0 40 40"><defs><style>.cls-1{fill:none;}</style></defs><rect class="cls-1" x="0" width="40" height="40"/><path d="m4.17,5.57c-.4,0-.66-.13-.93-.4-.4-.27-.53-.66-.53-1.06s.13-.66.4-.93c.27-.27.53-.4.93-.4h31.92c.4,0,.66.13.93.4.27.27.4.53.4.93s-.13.66-.4.93-.53.4-.93.4H4.17v.13Zm.53,31.52c-.53,0-.93-.13-1.2-.53-.27-.27-.53-.8-.53-1.2v-12.1h-1.2c-.53,0-.93-.27-1.33-.66s-.53-.8-.4-1.33l2.26-10.51c.13-.4.27-.8.66-.93.27-.27.66-.4,1.06-.4h31.92c.4,0,.8.13,1.06.4s.53.53.66.93l2.26,10.51c.13.53,0,1.06-.27,1.46-.4.4-.8.66-1.33.66h-1.2v12.37c0,.4-.13.66-.4.93s-.66.4-1.06.4-.66-.13-.93-.4-.4-.53-.4-.93v-12.37h-10.77v12.1c0,.53-.13.93-.53,1.2-.27.27-.8.53-1.2.53-.13-.13-17.15-.13-17.15-.13Zm1.06-2.79h15.03v-11.04H5.77v11.04Zm-2.79-13.7h34.04H2.98Zm0,0h34.04l-1.86-8.38H4.84l-1.86,8.38Z"/></svg>