<?xml version="1.0" encoding="UTF-8"?><svg id="Layer_1" xmlns="http://www.w3.org/2000/svg" viewBox="0 0 40 40"><path d="m15.26,33.2c-.41,0-.69-.14-.96-.41-.27-.27-.41-.69-.41-1.1s.14-.82.41-1.1c.27-.27.55-.41.96-.41h23.23c.41,0,.69.14.96.41.27.27.41.69.41,1.1s-.14.69-.41,1.1c-.27.27-.55.41-.96.41H15.26ZM1.37,9.69c-.41,0-.69-.14-.96-.41s-.41-.69-.41-1.1.14-.69.41-.96c.27-.27.55-.41.96-.41h37.25c.41,0,.69.14.96.41s.41.69.41.96c0,.41-.14.69-.41.96s-.55.41-.96.41H1.37v.14Zm13.88,11.68c-.41,0-.69-.14-.96-.41-.27-.27-.41-.69-.41-1.1s.14-.69.41-.96.55-.41.96-.41h23.23c.41,0,.69.14.96.41.27.27.41.69.41,1.1s-.14.69-.41.96-.55.41-.96.41H15.26Z"/></svg>