<?xml version="1.0" encoding="UTF-8"?><svg id="Layer_1" xmlns="http://www.w3.org/2000/svg" viewBox="0 0 40 40"><path d="m30.06,19.87c-2.73,0-5.06-1.04-7.01-2.86-1.95-1.95-2.86-4.29-2.86-7.01s1.04-5.06,2.86-7.01c1.95-1.95,4.29-2.99,7.01-2.99s5.06,1.04,7.01,2.99,2.86,4.29,2.86,7.01-1.04,5.06-2.86,7.01c-1.95,1.95-4.29,2.86-7.01,2.86ZM1.36,38.57c-.39-.39-.78-.78-.91-1.17-.26-.52-.39-.91-.39-1.43V7.92c0-1.17.39-2.08,1.17-2.86.78-.78,1.69-1.17,2.86-1.17h13.38c-.52.91-.78,1.82-1.04,2.86-.26,1.04-.39,2.08-.39,3.25,0,1.95.39,3.77,1.17,5.45s1.69,3.25,2.99,4.42L1.36,38.57Zm16.62,1.3v-10.91c0-1.43.39-2.73,1.3-3.77.91-1.17,1.95-1.82,3.38-2.08,1.17-.26,2.34-.39,3.51-.52,1.17-.13,2.47-.13,3.77-.13,1.17,0,2.21,0,3.12.13,1.04.13,1.95.26,2.86.39v12.99c0,1.17-.39,2.08-1.17,2.86s-1.69,1.17-2.86,1.17c.13-.13-13.9-.13-13.9-.13Z"/></svg>