<?xml version="1.0" encoding="UTF-8"?><svg id="Layer_1" xmlns="http://www.w3.org/2000/svg" viewBox="0 0 40 40"><path d="m20.86,35.93c-2.22,0-4.2-.49-5.93-1.6-1.73-.99-3.21-2.47-4.2-4.32-.25-.37-.25-.74-.12-1.23s.49-.74.86-.86.74-.12,1.11,0c.37.12.62.37.86.74.74,1.23,1.85,2.22,3.09,2.96s2.72,1.11,4.32,1.11c1.73,0,3.33-.49,4.57-1.36,1.36-.86,1.98-2.22,1.98-4.07,0-.86-.12-1.6-.49-2.35-.25-.74-.74-1.48-1.23-2.1h3.58c.37.62.74,1.23.86,1.98.25.74.37,1.6.37,2.47,0,2.59-.99,4.69-2.84,6.17-1.73,1.73-4.07,2.47-6.79,2.47ZM1.36,19.38c-.37,0-.74-.12-.99-.37-.25-.25-.37-.49-.37-.86s.12-.74.37-.86c.25-.25.49-.37.86-.37h37.53c.37,0,.74.12.86.37.25.25.37.49.37.86s-.12.74-.37.86c-.25.25-.49.37-.86.37.12,0-37.41,0-37.41,0Zm9.75-6.17c0-.12-.12-.25-.12-.37v-.37c-.12-2.35.74-4.2,2.35-5.93,1.73-1.6,3.95-2.47,6.67-2.47,1.73,0,3.33.37,4.69.99,1.36.62,2.47,1.6,3.46,2.96.25.37.37.74.12,1.23-.12.37-.49.74-.86.99-.25.12-.62.12-.99,0s-.74-.37-.99-.62c-.62-.74-1.36-1.23-2.22-1.73-.86-.49-1.98-.62-3.21-.62-1.85,0-3.33.49-4.44,1.48s-1.6,2.22-1.48,3.7v.37c0,.12,0,.25.12.37h-3.09Z"/></svg>