<?xml version="1.0" encoding="UTF-8"?><svg id="Layer_1" xmlns="http://www.w3.org/2000/svg" viewBox="0 0 40 40"><defs><style>.cls-1{fill:none;}</style></defs><rect class="cls-1" x="0" width="40" height="40"/><path d="m39.99,19.26v5.5c0,5-4,9-9,9s-9-4-9-8.88v-5.62l2.75,1.25,4.12-1.25v5.62c0,1.12,1,2.13,2.13,2.13s2.13-1,2.13-2.13v-5.75h6.88v.13h0Zm-17.87-4.63l2.75,1.25,4.12-1.25v-2.88c0-4.75-4.12-8.63-8.88-8.63s-8.88,3.87-8.88,8.63v13c0,1.12-1,2.13-2.12,2.13s-2.12-1-2.12-2.13v-5.5H0v5.5C0,29.62,4,33.62,8.99,33.62s9-3.88,9-8.88v-12.5c0-1.12,1-2.12,2.13-2.12s2.13,1,2.13,2.12v2.37h-.13v.02Z"/></svg>