<?xml version="1.0" encoding="UTF-8"?><svg id="Layer_1" xmlns="http://www.w3.org/2000/svg" viewBox="0 0 40 40"><defs><style>.cls-1{fill:none;}</style></defs><rect class="cls-1" x="0" width="40" height="40"/><path d="m32.04,39.85c-.62,0-1.07-.15-1.38-.62-.31-.31-.62-.92-.62-1.38v-3.23c0-.62.15-1.07.62-1.38.31-.31.77-.62,1.38-.62h5.7v-3.38h-6.61c-.31,0-.46-.15-.77-.31-.15-.15-.31-.46-.31-.77s.15-.46.31-.62.46-.31.77-.31h6.77c.62,0,1.07.15,1.38.62.31.31.62.77.62,1.38v3.38c0,.62-.15,1.07-.62,1.38-.31.31-.77.46-1.38.46h-5.7v3.54h6.61c.31,0,.46.15.62.31s.31.46.31.62c0,.31-.15.46-.31.77-.15.15-.46.31-.62.31,0-.15-6.77-.15-6.77-.15ZM9.72,16.31L1.11,2.91c-.46-.62-.46-1.23,0-1.85.31-.61.91-.91,1.53-.91.31,0,.62,0,.92.15.31.15.46.31.62.62l8.01,12.62h0L20.34.77c.15-.31.46-.46.62-.62C21.27,0,21.58,0,21.89,0,22.65,0,23.12.31,23.43.92c.31.62.31,1.23-.15,1.85l-8.62,13.39,9.54,14.93c.46.62.46,1.23,0,1.85-.31.62-.92.92-1.54.92-.31,0-.62,0-.92-.15s-.46-.31-.62-.62l-8.92-14h0l-8.77,14c-.15.31-.46.46-.62.62-.31.15-.62.15-.92.15-.77,0-1.23-.31-1.54-.92s-.31-1.23,0-1.85l9.39-14.77h0Z"/></svg>