<?xml version="1.0" encoding="UTF-8"?><svg id="Layer_1" xmlns="http://www.w3.org/2000/svg" viewBox="0 0 40 40"><defs><style>.cls-1{fill:none;}</style></defs><rect class="cls-1" x="0" width="40" height="40"/><path d="m8.23,39.93c-.27,0-.54-.14-.81-.27-.27-.27-.27-.54-.27-.81,0-.14,0-.27.14-.54s.27-.41.41-.41l2.57-1.76c-2.03,0-3.65-.68-5.14-2.03-1.35-1.35-2.03-3.11-2.03-5.14V7.89c0-2.7,1.35-4.73,4.05-5.95S14.18.05,19.99.05s10.41.54,12.98,1.76c2.57,1.22,3.92,3.24,3.92,6.08v20.95c0,2.03-.68,3.65-2.03,5.14-1.35,1.35-3.11,2.03-5.14,2.03l2.57,1.76.41.41c.14.14.14.41.14.54,0,.27-.14.54-.27.81s-.54.27-.81.27H8.23v.14h0Zm-2.3-21.49h12.71v-9.33H5.93s0,9.33,0,9.33Zm23.79,2.84H5.93h28.11-4.33.01Zm-8.24-2.84h12.57v-9.33h-12.57s0,9.33,0,9.33Zm-9.46,11.62c.81,0,1.49-.27,2.03-.81s.81-1.22.81-2.03-.27-1.49-.81-2.03-1.22-.81-2.03-.81-1.49.27-2.03.81-.81,1.22-.81,2.03.27,1.49.81,2.03,1.22.81,2.03.81Zm15.95,0c.81,0,1.49-.27,2.03-.81s.81-1.22.81-2.03-.27-1.49-.81-2.03-1.22-.81-2.03-.81-1.49.27-2.03.81-.81,1.22-.81,2.03.27,1.49.81,2.03c.68.54,1.35.81,2.03.81Zm-17.71,3.24h19.46c1.22,0,2.3-.41,3.11-1.35.81-.81,1.22-1.89,1.22-3.24v-7.57H5.93v7.57c0,1.22.41,2.3,1.22,3.24.81.95,1.89,1.35,3.11,1.35ZM19.99,2.89c-4.33,0-7.43.27-9.6.81-2.03.54-3.38,1.49-4.05,2.57h27.44c-.54-1.08-1.89-1.89-4.05-2.57-2.16-.54-5.41-.81-9.73-.81h-.01Zm0,3.38h13.79H6.34h13.65Z"/></svg>