<?xml version="1.0" encoding="UTF-8"?><svg id="Layer_1" xmlns="http://www.w3.org/2000/svg" viewBox="0 0 40 40"><defs><style>.cls-1{fill:none;}</style></defs><rect class="cls-1" x="0" width="40" height="40"/><path d="m3.29,38.41c-.88,0-1.64-.38-2.27-1.01S0,36.01,0,35.13V12.18c0-.88.38-1.64,1.01-2.27s1.39-1.01,2.27-1.01h9.33v-4.04c0-.88.38-1.64,1.01-2.27.51-.63,1.39-1.01,2.27-1.01h8.2c.88,0,1.64.38,2.27,1.01.63.63,1.01,1.39,1.01,2.27v4.04h9.33c.88,0,1.64.38,2.27,1.01s1.01,1.39,1.01,2.27v22.83c0,.88-.38,1.64-1.01,2.27s-1.39,1.01-2.27,1.01c-.13.13-33.42.13-33.42.13h0Zm0-2.65h33.42c.13,0,.25-.13.51-.25.13-.13.25-.25.25-.51V12.18c0-.13-.13-.25-.25-.51-.13-.13-.25-.25-.51-.25H3.29c-.13,0-.25.13-.51.25-.13.13-.25.25-.25.51v22.83c0,.13.13.25.25.51.13.13.25.25.51.25ZM15.26,8.9h9.46v-4.04c0-.13-.13-.25-.25-.51-.13-.13-.25-.25-.51-.25h-8.2c-.13,0-.25.13-.51.25-.13.13-.25.25-.25.51.25,0,.25,4.04.25,4.04ZM2.65,35.76V11.55v24.22Z"/></svg>