<?xml version="1.0" encoding="UTF-8"?><svg id="Layer_1" xmlns="http://www.w3.org/2000/svg" viewBox="0 0 40 40"><defs><style>.cls-1{fill:none;}</style></defs><rect class="cls-1" x="0" width="40" height="40"/><path d="m19.26,31.59c.25.13.5.25.76.25s.5-.13.76-.25c.25-.25.25-.38.25-.76v-7.18h-2.02v7.18c0,.25.13.5.25.76Z"/><path d="m32.62,8.91c-.63-.63-1.39-1.01-2.27-1.01h-4.54V2.11c0-.5-.25-1.01-.63-1.39s-.88-.63-1.39-.63h-7.56c-.5,0-1.01.25-1.39.63s-.63.88-.63,1.39v5.8h-4.41c-.88,0-1.76.38-2.39,1.01s-1.01,1.39-1.01,2.39v23.31c0,.88.38,1.64,1.01,2.27s1.39,1.01,2.27,1.01c0,0,0,.25.13.25,0,.5.13.88.5,1.26.25.38.76.5,1.26.5s.88-.13,1.26-.5c.38-.25.5-.76.5-1.26v-.25h13.48v.25c0,.5.13.88.5,1.26.25.38.76.5,1.26.5s.88-.13,1.26-.5c.38-.25.5-.76.5-1.26v-.25c.88,0,1.64-.38,2.27-1.01s1.01-1.39,1.01-2.27V11.18c0-.88-.38-1.64-1.01-2.27h.02Zm-1.51,25.71c0,.25,0,.38-.13.5-.13.13-.38.13-.5.13H9.69c-.25,0-.38-.13-.5-.13-.13-.13-.13-.38-.13-.5V11.18c0-.25,0-.38.13-.5s.38-.13.5-.13h6.55v13.11h2.77v-8.7c0-.38,0-.5.25-.76.25-.13.5-.25.76-.25.38,0,.5,0,.76.25.13.25.25.5.25.76v8.7h2.77v-13.11h6.68c.25,0,.38,0,.5.13.13.13.13.38.13.5,0,0,0,23.44,0,23.44Z"/><path d="m26.83,13.95c-.25,0-.5.13-.76.25-.25.25-.25.38-.25.76v15.88c0,.25.13.5.25.76.25.13.5.25.76.25s.5-.13.76-.25c.25-.25.25-.38.25-.76v-15.88c0-.25-.13-.5-.25-.76-.25-.25-.38-.25-.76-.25Z"/><path d="m13.21,13.95c-.38,0-.5.13-.76.25-.25.25-.25.38-.25.76v15.88c0,.25.13.5.25.76.25.13.5.25.76.25s.5-.13.76-.25c.25-.25.25-.38.25-.76v-15.88c0-.25-.13-.5-.25-.76-.25-.25-.38-.25-.76-.25Z"/></svg>