<?xml version="1.0" encoding="UTF-8"?><svg id="Layer_1" xmlns="http://www.w3.org/2000/svg" viewBox="0 0 40 40"><defs><style>.cls-1{fill:none;}</style></defs><rect class="cls-1" x="0" width="40" height="40"/><path d="m13.95,34.48h-5.52c-.83,0-1.53-.35-2.12-.94s-.94-1.29-.94-2.12v-5.4l-3.98-3.98c-.58-.58-.83-1.29-.83-2.12s.23-1.53.83-2.12l3.99-3.99v-5.4c0-.83.35-1.53.94-2.12s1.29-.94,2.12-.94h5.4l3.97-3.96c.59-.59,1.29-.83,2.12-.83s1.53.35,2.12.94l3.99,3.99h5.52c.83,0,1.53.35,2.12.94s.94,1.29.94,2.12v5.4l3.99,3.99c.58.58.83,1.29.83,2.12s-.23,1.53-.83,2.12l-3.99,3.99v5.4c0,.83-.35,1.53-.94,2.12s-1.29.94-2.12.94h-5.52l-3.99,3.99c-.58.58-1.29.83-2.12.83s-1.53-.23-2.12-.83c.12-.12-3.88-4.11-3.88-4.11v-.04Zm6.1-5.75c-2.47,0-4.58-.83-6.35-2.58s-2.58-3.88-2.58-6.35.83-4.58,2.58-6.35,3.88-2.58,6.35-2.58,4.58.83,6.35,2.58,2.58,3.88,2.58,6.35-.83,4.58-2.58,6.35c-1.76,1.64-3.88,2.58-6.35,2.58Zm0-2.47c1.76,0,3.28-.58,4.58-1.88s1.88-2.82,1.88-4.58-.58-3.28-1.88-4.58-2.82-1.88-4.58-1.88-3.28.58-4.58,1.88c-1.29,1.29-1.88,2.82-1.88,4.58s.58,3.28,1.88,4.58c1.29,1.18,2.82,1.88,4.58,1.88Zm0,10.81l5.05-5.05h7.16v-7.16l5.17-5.17-5.17-5.17v-6.93h-7.16l-5.05-5.17-5.17,5.17h-7.04v7.16l-5.17,5.05,5.17,5.17v7.16h7.04c0-.12,5.17,4.94,5.17,4.94Z"/></svg>