<?xml version="1.0" encoding="UTF-8"?><svg id="Layer_1" xmlns="http://www.w3.org/2000/svg" viewBox="0 0 40 40"><defs><style>.cls-1{fill:none;}</style></defs><rect class="cls-1" x="0" width="40" height="40"/><path d="m32.12,12.61c-.61,0-1.08-.15-1.38-.61s-.61-.92-.61-1.38v-3.23c0-.61.15-1.08.61-1.38.31-.31.77-.61,1.38-.61h5.69v-3.38h-6.61c-.31,0-.46-.15-.77-.31-.15-.15-.31-.46-.31-.77s.15-.46.31-.61.46-.31.77-.31h6.76c.61,0,1.08.15,1.38.61.31.31.61.77.61,1.38v3.38c0,.61-.15,1.08-.61,1.38-.31.31-.77.46-1.38.46h-5.69v3.38h6.61c.31,0,.46.15.61.31.15.15.31.46.31.61,0,.31-.15.46-.31.77-.15.15-.46.31-.61.31,0,0-6.76,0-6.76,0ZM1.83,39.98c-.77,0-1.23-.31-1.54-.92-.31-.61-.31-1.23,0-1.84l9.53-14.91L1.22,8.93c-.46-.61-.46-1.23,0-1.84.31-.61.92-.92,1.54-.92.31,0,.61,0,.92.15s.46.31.61.61l7.99,12.61h0l8.15-12.76c.15-.31.46-.46.61-.61.31-.15.61-.15.92-.15.77,0,1.23.31,1.54.92.31.61.31,1.23-.15,1.84l-8.61,13.37,9.53,14.91c.46.61.46,1.23,0,1.84-.31.61-.92.92-1.54.92-.31,0-.61,0-.92-.15s-.46-.31-.61-.61l-8.76-13.99h0l-8.92,14.14c-.15.31-.46.46-.61.61-.46.15-.77.15-1.08.15h0Z"/></svg>