<?xml version="1.0" encoding="UTF-8"?><svg id="Layer_1" xmlns="http://www.w3.org/2000/svg" viewBox="0 0 40 40"><defs><style>.cls-1{fill:none;}</style></defs><rect class="cls-1" x="0" y="0" width="40" height="40"/><path d="m39.81,11.12v-1.24c0-.87-.12-1.74-.25-2.61-.12-.87-.37-1.74-.87-2.48-.75-1.61-2.11-2.86-3.6-3.6-.75-.37-1.61-.62-2.48-.87-.87-.12-1.74-.25-2.61-.25H9.26c-.62,0-1.37.12-1.99.25s-1.24.25-1.86.5c-.25.12-.37.25-.62.37-.62.25-1.12.62-1.61.99-.12.12-.37.37-.5.5-.62.62-1.12,1.37-1.49,2.11-.37.75-.62,1.61-.87,2.48-.12.87-.25,1.74-.25,2.61v20.24c0,.87.12,1.74.25,2.61.13.87.37,1.74.87,2.48.75,1.61,2.11,2.86,3.6,3.6.75.37,1.61.62,2.48.87.87.12,1.74.25,2.61.25h20.24c.87,0,1.74-.12,2.61-.25.87-.12,1.74-.37,2.48-.87,1.61-.75,2.86-2.11,3.6-3.6.37-.75.62-1.61.87-2.48.12-.87.25-1.74.25-2.61V12.49c-.12-.5-.12-.99-.12-1.37Zm-6.21,21.36c-1.74-3.48-5.09-2.61-6.83-1.74-.12.12-.25.12-.5.25h0c-3.48,1.86-8.2,1.99-12.91,0-3.85-1.61-7.08-4.47-9.31-8.07,1.12.75,2.24,1.49,3.48,2.11,4.97,2.36,10.06,2.11,13.54,0-5.09-3.85-9.31-8.94-12.54-13.04-.62-.75-1.12-1.49-1.61-2.24,3.85,3.6,9.93,7.95,12.17,9.19-4.72-4.97-8.82-11.05-8.57-10.8,7.33,7.45,14.16,11.55,14.16,11.55.25.12.5.25.62.37.12-.37.25-.75.37-1.12,1.12-4.35-.12-9.19-3.1-13.29,6.83,4.1,10.8,11.8,9.19,18.38,0,.12-.12.25-.12.5,3.35,4.22,2.48,8.82,1.99,7.95h-.03Z"/></svg>