<?xml version="1.0" encoding="UTF-8"?><svg id="Layer_1" xmlns="http://www.w3.org/2000/svg" viewBox="0 0 40 40"><defs><style>.cls-1{fill:none;}</style></defs><rect class="cls-1" x="0" width="40" height="40"/><path d="m1.62,37.2c-.36.12-.73.12-1.09-.12-.36-.24-.49-.61-.49-1.09,0-.24.12-.49.24-.73.24-.24.49-.36.73-.49.73-.24,1.46-.61,2.06-1.09s1.58-.61,2.91-.61c1.58,0,2.79.36,3.64,1.09s1.94,1.09,3.28,1.09,2.43-.36,3.16-1.09c.85-.73,1.94-1.09,3.52-1.09s2.79.36,3.64,1.09,1.94,1.09,3.28,1.09,2.43-.36,3.16-1.09c.85-.73,1.94-1.09,3.52-1.09,1.34,0,2.31.24,2.91.61.61.49,1.34.73,2.06,1.09.36.12.61.24.73.49.24.24.24.49.24.73,0,.49-.12.85-.49,1.09-.36.24-.73.24-1.09.12-.73-.24-1.46-.61-2.06-1.09-.61-.36-1.46-.61-2.43-.61-1.21,0-2.31.36-3.16,1.09s-2.06,1.09-3.52,1.09c-1.58,0-2.79-.36-3.64-1.09-.97-.73-1.94-1.09-3.28-1.09-1.21,0-2.31.36-3.16,1.09s-2.06,1.09-3.64,1.09-2.79-.36-3.64-1.09-1.94-1.09-3.16-1.09c-.97,0-1.82.24-2.43.61s-.97.85-1.82,1.09h.02Zm0-9.23c-.36.12-.73.12-.97-.12-.24-.24-.49-.61-.49-1.09,0-.24.12-.49.24-.73s.36-.36.73-.49c.73-.24,1.46-.61,2.18-1.09s1.58-.61,2.91-.61c1.58,0,2.79.36,3.64.97s1.94.97,3.28.97,2.43-.36,3.28-.97c.85-.61,2.06-.97,3.64-.97s2.79.36,3.64.97,1.94.97,3.28.97,2.43-.36,3.28-.97,2.06-.97,3.64-.97c1.34,0,2.31.24,2.91.61.61.49,1.34.73,2.18,1.09.24.12.49.24.73.49.12.24.24.49.24.73,0,.49-.12.85-.49,1.09-.24.24-.61.24-.97.12-.73-.24-1.46-.61-2.18-1.09-.61-.36-1.46-.61-2.43-.61-1.21,0-2.31.36-3.16,1.09s-2.06,1.09-3.52,1.09c-1.58,0-2.79-.36-3.64-1.09-.97-.73-1.94-1.09-3.28-1.09s-2.31.36-3.16,1.09-2.06,1.09-3.52,1.09c-1.58,0-2.79-.36-3.64-1.09s-1.94-1.09-3.28-1.09c-.97,0-1.82.24-2.43.61-1.21.36-1.94.73-2.67,1.09h.03Zm11.41-8.74c-.49,0-.97-.12-1.34-.24s-.73-.36-.97-.73l6.68-6.68-2.91-2.91c-.97-.97-1.82-1.58-2.79-2.06s-2.06-.73-3.4-.85c-.49-.12-.85-.24-1.09-.61-.36-.36-.49-.73-.49-1.21s.12-.97.49-1.21c.36-.36.73-.49,1.21-.36,1.7.12,3.28.49,4.49,1.09,1.21.6,2.55,1.46,3.76,2.67l12.26,12.26c-.36.24-.73.49-1.09.61s-.85.24-1.21.24c-1.09,0-2.06-.36-3.03-1.09-.85-.73-2.18-1.09-3.88-1.09s-2.91.36-3.88,1.09c-.73.73-1.7,1.09-2.79,1.09h-.02Zm16.02-7.65c-1.21,0-2.31-.49-3.28-1.34-.85-.85-1.34-1.94-1.34-3.28,0-1.21.49-2.31,1.34-3.28.85-.85,1.94-1.34,3.28-1.34s2.31.49,3.28,1.34c.85.85,1.34,1.94,1.34,3.28,0,1.21-.49,2.31-1.34,3.28-.97.97-1.94,1.34-3.28,1.34Z"/></svg>