<?xml version="1.0" encoding="UTF-8"?><svg id="Layer_1" xmlns="http://www.w3.org/2000/svg" viewBox="0 0 40 40"><defs><style>.cls-1{fill:none;}</style></defs><rect class="cls-1" x="0" width="40" height="40"/><path d="m2.36,35.74c-.62,0-1.13-.25-1.62-.75-.5-.37-.75-1-.75-1.62V10.12C0,8.74.49,7.62,1.36,6.62c1-1,2.13-1.38,3.5-1.38s2.5.5,3.5,1.38c1,1,1.38,2.12,1.38,3.5v2l8.37-7.25c.25-.25.62-.38.88-.5.37-.12.62-.12,1-.12s.62,0,1,.12c.37.13.62.25.88.5l8.38,7.25v-2c0-1.38.5-2.5,1.38-3.5,1-1,2.13-1.38,3.5-1.38s2.5.5,3.5,1.38c1,1,1.37,2.12,1.37,3.5v23.25c0,.62-.25,1.13-.75,1.62s-1,.75-1.62.75h-15.13v-8.87c0-.75-.25-1.38-.75-1.88-.37-.37-1-.62-1.75-.62s-1.38.25-1.88.75c-.37.37-.62,1-.62,1.75v8.87H2.36Zm30.12-23h5.12v-2.5c0-.75-.25-1.38-.75-1.88s-1.13-.75-1.75-.75c-.75,0-1.38.25-1.88.75s-.75,1-.75,1.75v2.62h.01Zm-30.12,0h5.12v-2.5c0-.75-.25-1.38-.75-1.88s-1.12-.75-1.75-.75-1.37.25-1.88.75c-.5.5-.75,1.12-.75,1.88,0-.12,0,2.5,0,2.5h.01Zm0,20.63h5.12V14.99H2.36s0,18.38,0,18.38Zm7.38,0h5.38v-6.5c0-1.38.5-2.5,1.38-3.5,1-1,2.13-1.38,3.5-1.38s2.5.5,3.5,1.38c1,1,1.38,2.13,1.38,3.5v6.5h5.38V15.24h0l-9.75-8.5c-.09-.09-.17-.17-.25-.25-.13-.12-.13,0-.25,0h-.25c-.13,0-.13.13-.25.13l-9.75,8.5h0v18.25h-.02Zm22.75,0h5.12V14.99h-5.12v18.38Zm-12.5-15.38c-.62,0-1.25-.25-1.62-.62-.5-.5-.62-1-.62-1.62s.25-1.25.62-1.63c.5-.5,1-.62,1.62-.62s1.25.25,1.62.62c.5.5.62,1,.62,1.63s-.25,1.25-.62,1.62c-.5.38-1,.62-1.62.62Z"/></svg>