<svg id="sync" xmlns="http://www.w3.org/2000/svg" width="40" height="40" viewBox="0 0 40 40">
  <rect id="Rectangle_10003" data-name="Rectangle 10003" width="40" height="40" fill="none"/>
  <path id="Path_19722" data-name="Path 19722" d="M3.228,20.22a14.743,14.743,0,0,0,1.379,6.457A15.765,15.765,0,0,0,8.456,31.9l2.309,2V27.756a1.206,1.206,0,0,1,.46-1.079,2.262,2.262,0,0,1,1.079-.46,1.206,1.206,0,0,1,1.079.46,1.4,1.4,0,0,1,.46,1.079V37.6a1.464,1.464,0,0,1-.62,1.379,2.28,2.28,0,0,1-1.379.62H2a1.206,1.206,0,0,1-1.079-.46,1.4,1.4,0,0,1-.46-1.079,1.206,1.206,0,0,1,.46-1.079A1.4,1.4,0,0,1,2,36.522H8.456L6.607,34.833a19.16,19.16,0,0,1-5.077-6.767A19.246,19.246,0,0,1,0,20.22a19.791,19.791,0,0,1,3.078-10.6,19.889,19.889,0,0,1,8.146-7.386,1.736,1.736,0,0,1,1.229,0c.46.15.62.46.77.92a1.736,1.736,0,0,1,0,1.229,1.369,1.369,0,0,1-.92.92A18.163,18.163,0,0,0,5.7,11.444,16.474,16.474,0,0,0,3.238,20.21h0Zm33.213-.31a14.9,14.9,0,0,0-1.379-6.147,18.7,18.7,0,0,0-3.848-5.537L29.065,6.077v6.147a1.206,1.206,0,0,1-.46,1.079,1.176,1.176,0,0,1-1.079.62,1.206,1.206,0,0,1-1.079-.46,1.4,1.4,0,0,1-.46-1.079V2.389a1.464,1.464,0,0,1,.62-1.379A2.28,2.28,0,0,1,27.986.39h9.845a1.206,1.206,0,0,1,1.079.46,1.4,1.4,0,0,1,.46,1.079,1.206,1.206,0,0,1-.46,1.079,1.4,1.4,0,0,1-1.079.46H31.374l1.849,1.849A22.176,22.176,0,0,1,38.3,12.394,18.327,18.327,0,0,1,39.99,19.77a18.814,18.814,0,0,1-2.919,10.455,19.476,19.476,0,0,1-8,7.376,1.719,1.719,0,0,1-1.229.15,1.388,1.388,0,0,1-.92-.92,1.736,1.736,0,0,1,0-1.229,1.541,1.541,0,0,1,.77-.92A16.9,16.9,0,0,0,34.3,28.536a18.392,18.392,0,0,0,2.149-8.606v-.02Z" transform="translate(0.01 0.01)"/>
</svg>
