<?xml version="1.0" encoding="UTF-8"?><svg id="Layer_1" xmlns="http://www.w3.org/2000/svg" viewBox="0 0 40 40"><defs><style>.cls-1{fill:none;}</style></defs><rect class="cls-1" x="0" width="40" height="40"/><path d="m.83,18.27c-.28-.28-.42-.69-.42-.97,0-.42.14-.69.42-1.11l6.51-6.51-3.33-3.19-1.52,1.52c-.28.28-.55.42-.97.42s-.69-.14-.97-.42C.14,7.74,0,7.32,0,6.91s.14-.69.42-1.11L5.41.81c.28-.28.69-.42.97-.42.42,0,.69.14,1.11.42.28.28.42.55.42.97s-.14.69-.42.97l-1.52,1.52,3.19,3.19L15.66.95c.28-.28.69-.42,1.11-.42s.69.14.97.42c.42.55.55.83.55,1.25s-.14.69-.42,1.11l-1.66,1.66,17.6,17.6c.69.69,1.11,1.52,1.11,2.63,0,.97-.42,1.8-1.11,2.49l-2.36,2.36,8.31,8.31c.28.28.28.55.14.83-.14.28-.42.42-.69.42h-1.39c-.28,0-.55,0-.97-.14-.28-.14-.55-.28-.83-.55l-6.93-6.93-2.36,2.36c-.69.69-1.52.97-2.49.97s-1.8-.28-2.63-.97L4.44,16.61l-1.66,1.66c-.28.28-.69.42-1.11.42s-.55-.14-.83-.42h-.01Zm5.54-3.6l17.6,17.6c.14.14.28.14.55.14.14,0,.42,0,.55-.14l6.65-6.65c.14-.14.28-.28.28-.55s-.14-.42-.28-.55l-4.02-4.16-3.74,3.74c-.28.28-.69.42-.97.42-.42,0-.69-.14-.97-.42-.28-.28-.42-.69-.42-.97,0-.42.14-.69.42-1.11l3.74-3.74-4.85-4.85-3.74,3.74c-.28.28-.69.42-1.11.42s-.69-.14-.97-.42c-.28-.28-.42-.55-.42-.97s.14-.69.42-.97l3.74-3.74-4.57-4.57-7.9,7.76h0Zm-.14-.28l.14-.14.42-.42,6.65-6.65.28-.28.28-.14-7.76,7.62h0Z"/></svg>