<?xml version="1.0" encoding="UTF-8"?><svg id="Layer_1" xmlns="http://www.w3.org/2000/svg" viewBox="0 0 40 40"><defs><style>.cls-1{fill:none;}</style></defs><rect class="cls-1" x="0" width="40" height="40"/><path d="m20.05,36.32c.46,0,.8-.11,1.03-.46.23-.23.46-.57.46-1.03s-.11-.8-.46-1.03c-.23-.23-.68-.46-1.03-.46-.46,0-.8.11-1.03.46-.23.23-.46.68-.46,1.03,0,.46.11.8.46,1.03.34.34.68.46,1.03.46Zm-13.23,3.65c-.8,0-1.48-.34-2.05-.91s-.91-1.26-.91-2.05V3c0-.8.34-1.48.91-2.05S6.02.03,6.82.03h26.36c.8,0,1.48.34,2.05.91s.91,1.26.91,2.05v34c0,.8-.34,1.48-.91,2.05s-1.26.91-2.05.91H6.82v.02Zm-.57-7.87v4.91c0,.11,0,.34.11.46.11.11.23.11.46.11h26.36c.11,0,.34,0,.46-.11s.11-.23.11-.46v-4.91H6.26Zm0-2.4h27.5V6.88H6.25v22.82h0Zm0-25.1h27.5v-1.6c0-.11,0-.34-.11-.46s-.23-.11-.46-.11H6.82c-.11,0-.34,0-.46.11,0,.11-.11.34-.11.46v1.6h0Zm0,0v-2.17,2.17Zm0,27.5v5.48-5.48Z"/></svg>