<?xml version="1.0" encoding="UTF-8"?><svg id="Layer_1" xmlns="http://www.w3.org/2000/svg" viewBox="0 0 40 40"><defs><style>.cls-1{fill:none;}</style></defs><rect class="cls-1" x="0" width="40" height="40"/><path d="m2.97,34.27c-.8,0-1.49-.34-2.06-.91s-.91-1.26-.91-2.06V8.68c0-.8.34-1.49.92-2.06.58-.57,1.26-.91,2.06-.91h34.05c.8,0,1.49.34,2.06.91s.91,1.26.91,2.06v22.63c0,.8-.34,1.49-.91,2.06s-1.26.91-2.06.91H2.97Zm1.6-26.17h-1.6c-.11,0-.34,0-.46.11-.11.11-.11.34-.11.46v22.63c0,.11,0,.34.11.46s.23.11.46.11h1.6V8.11h0Zm2.4,23.77h26.17V8.11H6.97v23.77h0Zm28.46-23.77v23.77h1.6c.11,0,.34,0,.46-.11s.11-.23.11-.46V8.68c0-.11,0-.34-.11-.46s-.34-.11-.46-.11h-1.6Zm0,0h2.17-2.17Zm-30.85,0h-2.17,2.17Z"/></svg>