<?xml version="1.0" encoding="UTF-8"?><svg id="Layer_1" xmlns="http://www.w3.org/2000/svg" viewBox="0 0 40 40"><defs><style>.cls-1{fill:none;}</style></defs><rect class="cls-1" x="0" width="40" height="40"/><path d="m0,36.48V3.67c0-.99.42-1.84,1.13-2.54C1.84.43,2.69,0,3.67,0h32.65c.99,0,1.84.42,2.55,1.13.71.71,1.13,1.55,1.13,2.54v32.65c0,.99-.42,1.84-1.13,2.54s-1.55,1.13-2.54,1.13H3.67c-.99,0-1.84-.42-2.54-1.13C.42,38.3,0,37.45,0,36.46h0ZM2.97,12.58h34.06V3.67c0-.14,0-.42-.14-.57s-.28-.14-.57-.14H3.67c-.14,0-.42,0-.57.14,0,.28-.14.42-.14.57v8.9h0Zm12.44,12.3h9.47v-9.33h-9.47s0,9.33,0,9.33Zm0,12.3h9.47v-9.33h-9.47s0,9.33,0,9.33ZM2.97,24.88h9.33v-9.33H2.97v9.33Zm24.73,0h9.33v-9.33h-9.33v9.33ZM3.67,37.17h8.62v-9.33H2.97v8.62c0,.14,0,.42.14.57.28,0,.42.14.57.14h0Zm24.03,0h8.62c.14,0,.42,0,.57-.14s.14-.28.14-.57v-8.62h-9.33s0,9.33,0,9.33Z"/></svg>