<?xml version="1.0" encoding="UTF-8"?><svg id="Layer_1" xmlns="http://www.w3.org/2000/svg" viewBox="0 0 40 40"><defs><style>.cls-1{fill:none;}</style></defs><rect class="cls-1" x="0" width="40" height="40"/><path d="m16.82,27.45c.76.76,1.78,1.02,3.06,1.02s2.17-.51,2.8-1.4l8.79-13.12c.25-.38.25-.76-.13-1.02-.38-.38-.64-.38-1.15-.13l-12.99,8.92c-.89.64-1.4,1.53-1.4,2.8-.13,1.15.25,2.17,1.02,2.93Zm3.18-23.44c1.53,0,3.06.13,4.59.51s3.06.89,4.46,1.66c.38.13.64.51.76.89s.13.76,0,1.02c-.25.38-.51.51-.89.64s-.76,0-1.15-.13c-1.27-.64-2.55-1.15-3.95-1.4-1.27-.25-2.55-.51-3.82-.51-4.84,0-8.92,1.66-12.36,5.1s-5.1,7.52-5.1,12.48c0,1.53.25,3.06.64,4.59s1.02,2.93,1.78,4.33h29.93c.76-1.27,1.4-2.8,1.78-4.33.38-1.53.64-3.18.64-4.71,0-1.15-.13-2.42-.38-3.69s-.76-2.55-1.4-3.82c-.13-.38-.25-.76-.25-1.15s.25-.64.64-.89c.25-.25.64-.25,1.02-.13.38.13.64.38.76.76.76,1.53,1.27,2.93,1.66,4.46.38,1.4.51,2.93.64,4.33,0,1.91-.13,3.82-.64,5.6s-1.15,3.44-2.04,4.97c-.25.51-.64.89-1.02,1.15-.38.13-.89.25-1.4.25H5.1c-.51,0-1.02-.13-1.4-.38-.51-.25-.76-.64-1.02-1.02-.76-1.4-1.4-3.06-1.91-4.71C.26,28.22,0,26.43,0,24.39,0,21.59.51,19.04,1.53,16.5s2.55-4.59,4.33-6.5,3.95-3.31,6.37-4.33c2.29-1.15,4.97-1.66,7.77-1.66Z"/></svg>