<svg id="tag" xmlns="http://www.w3.org/2000/svg" width="40" height="40" viewBox="0 0 40 40">
  <rect id="Rectangle_10076" data-name="Rectangle 10076" width="40" height="40" fill="none"/>
  <path id="Path_19720" data-name="Path 19720" d="M23.85,39.18a2.586,2.586,0,0,1-1.89.76,2.548,2.548,0,0,1-1.89-.76L.88,20.13a4.01,4.01,0,0,1-.63-.88A3.239,3.239,0,0,1,0,18.23V2.71A2.563,2.563,0,0,1,.76.82,2.548,2.548,0,0,1,2.65.06H18.17a2.387,2.387,0,0,1,1.01.13,1.451,1.451,0,0,1,.88.63L39.11,19.87a2.983,2.983,0,0,1,.88,2.02,2.532,2.532,0,0,1-.76,1.89L23.84,39.17Zm-1.89-1.77L37.48,21.89,18.17,2.71H2.78V18.23C2.78,18.1,21.96,37.41,21.96,37.41Zm-13.88-27a2.491,2.491,0,0,0,1.77-.76,2.306,2.306,0,0,0,.76-1.77,2.491,2.491,0,0,0-.76-1.77,2.306,2.306,0,0,0-1.77-.76,2.491,2.491,0,0,0-1.77.76A3.73,3.73,0,0,0,5.68,8a2.491,2.491,0,0,0,.76,1.77,2.4,2.4,0,0,0,1.64.63Z"/>
</svg>
