<svg id="tags" xmlns="http://www.w3.org/2000/svg" width="40" height="40" viewBox="0 0 40 40">
  <rect id="Rectangle_10077" data-name="Rectangle 10077" width="40" height="40" fill="none"/>
  <path id="Path_19721" data-name="Path 19721" d="M3.37,35.8l-.87-.25A3.875,3.875,0,0,1,.25,33.18,4.816,4.816,0,0,1,.5,29.69l2.74-6.24c.12.12.12,12.35.12,12.35Zm9.73,3.62a4.022,4.022,0,0,1-2.99-1.25,4.076,4.076,0,0,1-1.25-2.99V25.7l4.37,12.35c.12.25.12.5.25.75a2.1,2.1,0,0,0,.5.62h-.87Zm8.98-1.5a2.3,2.3,0,0,1-2-.12,2.94,2.94,0,0,1-1.37-1.62L9.11,9.98a2.28,2.28,0,0,1,.12-2,2.9,2.9,0,0,1,1.62-1.37L26.94.75a2.28,2.28,0,0,1,2,.12,2.94,2.94,0,0,1,1.37,1.62l9.48,25.94a2.544,2.544,0,0,1-.12,2.12,2.551,2.551,0,0,1-1.5,1.5L22.08,37.91ZM18.09,13.6a1.594,1.594,0,0,0,1.25-.5,1.615,1.615,0,0,0,.5-1.25,1.709,1.709,0,0,0-1.75-1.75,1.436,1.436,0,0,0-1.25.5,1.615,1.615,0,0,0-.5,1.25,1.594,1.594,0,0,0,.5,1.25A1.463,1.463,0,0,0,18.09,13.6Zm3.12,21.83L37.3,29.44,27.69,3.25,11.6,9.11l9.6,26.32ZM11.6,9.11,27.69,3.25,11.6,9.11Z"/>
</svg>
