<svg id="tape" xmlns="http://www.w3.org/2000/svg" width="40" height="40" viewBox="0 0 40 40">
  <rect id="Rectangle_10078" data-name="Rectangle 10078" width="40" height="40" fill="none"/>
  <path id="Path_19722" data-name="Path 19722" d="M22.76,37.15H9.01A3.218,3.218,0,0,1,6.7,36.12a3.218,3.218,0,0,1-1.03-2.31V20.06A16.7,16.7,0,0,1,10.68,7.85,16.389,16.389,0,0,1,22.76,2.84,16.679,16.679,0,0,1,34.97,7.85a16.389,16.389,0,0,1,5.01,12.08,16.679,16.679,0,0,1-5.01,12.21,16.891,16.891,0,0,1-12.21,5.01Zm0-2.7a14.066,14.066,0,0,0,10.28-4.24,13.777,13.777,0,0,0,4.24-10.15A14.066,14.066,0,0,0,33.04,9.78,13.777,13.777,0,0,0,22.89,5.54,14.066,14.066,0,0,0,12.61,9.78,13.86,13.86,0,0,0,8.37,20.06V33.81a.742.742,0,0,0,.13.51c.13.12.26.13.51.13H22.76Zm0-7.45a6.284,6.284,0,0,0,4.88-2.06,6.526,6.526,0,0,0,2.06-4.88,6.3,6.3,0,0,0-2.06-4.88,6.526,6.526,0,0,0-4.88-2.06,6.3,6.3,0,0,0-4.88,2.06,6.526,6.526,0,0,0-2.06,4.88,6.3,6.3,0,0,0,2.06,4.88A6.332,6.332,0,0,0,22.76,27Zm0-2.7a4.194,4.194,0,0,1-3.08-1.28,3.965,3.965,0,0,1-1.28-3.08,4.014,4.014,0,0,1,1.28-3.08,4.254,4.254,0,0,1,3.08-1.28,4.194,4.194,0,0,1,3.08,1.28,4.254,4.254,0,0,1,1.28,3.08,4.37,4.37,0,0,1-4.36,4.36ZM1.31,37.15a1.159,1.159,0,0,1-.9-.39,1.159,1.159,0,0,1-.39-.9V28.79a1.159,1.159,0,0,1,.39-.9,1.159,1.159,0,0,1,.9-.39,1.159,1.159,0,0,1,.9.39,1.159,1.159,0,0,1,.39.9v6.94a1.159,1.159,0,0,1-.39.9.85.85,0,0,1-.9.51Z"/>
</svg>
