<svg id="tasks" xmlns="http://www.w3.org/2000/svg" width="40" height="40" viewBox="0 0 40 40">
  <rect id="Rectangle_10079" data-name="Rectangle 10079" width="40" height="40" fill="none"/>
  <path id="Path_19723" data-name="Path 19723" d="M23.21,14.55a1.2,1.2,0,0,1-.9-.38,1.347,1.347,0,0,1-.38-.9,1.2,1.2,0,0,1,.38-.9,1.151,1.151,0,0,1,.9-.38H38.72a1.2,1.2,0,0,1,.9.38A1.428,1.428,0,0,1,40,13.4a1.185,1.185,0,0,1-.38.9,1.137,1.137,0,0,1-.9.38H23.21v-.13Zm0,16.28a1.2,1.2,0,0,1-.9-.38,1.444,1.444,0,0,1-.38-1.03,1.185,1.185,0,0,1,.38-.9,1.151,1.151,0,0,1,.9-.38H38.72a1.2,1.2,0,0,1,.9.38,1.366,1.366,0,0,1,.38.9,1.2,1.2,0,0,1-.38.9,1.137,1.137,0,0,1-.9.38c0,.13-15.51.13-15.51.13ZM5.13,17.37.38,12.63a1.151,1.151,0,0,1-.38-.9,1.185,1.185,0,0,1,.38-.9,1.151,1.151,0,0,1,.9-.38,1.185,1.185,0,0,1,.9.38L6.15,14.8l8.47-8.45a1.366,1.366,0,0,1,.9-.38,1.2,1.2,0,0,1,.9.38,1.347,1.347,0,0,1,.38.9,1.2,1.2,0,0,1-.38.9l-9.1,9.1a1.572,1.572,0,0,1-1.15.51,1.084,1.084,0,0,1-1.03-.38Zm0,16.28L.38,28.91a1.151,1.151,0,0,1-.38-.9,1.185,1.185,0,0,1,.38-.9,1.151,1.151,0,0,1,.9-.38,1.185,1.185,0,0,1,.9.38l3.97,3.97,8.46-8.46a1.366,1.366,0,0,1,.9-.38,1.2,1.2,0,0,1,.9.38,1.366,1.366,0,0,1,.38.9,1.2,1.2,0,0,1-.38.9l-9.1,9.1a1.572,1.572,0,0,1-1.15.51,1.507,1.507,0,0,1-1.03-.38Z"/>
</svg>
