<svg id="teamspeak" xmlns="http://www.w3.org/2000/svg" width="40" height="40" viewBox="0 0 40 40">
  <rect id="Rectangle_10081" data-name="Rectangle 10081" width="40" height="40" fill="none"/>
  <path id="Path_19725" data-name="Path 19725" d="M19.18,27.08c.12-1-1-2.37-2.49-3.74a26.029,26.029,0,0,0-4.98-3.61c-1.74-1-3.24-.12-3.61,1.74A7.806,7.806,0,0,0,9.22,27.2a4.09,4.09,0,0,0,3.36,1.87,32.47,32.47,0,0,0,4.86-.12,2.432,2.432,0,0,0,1.74-1.87ZM35.12,28.7a.568.568,0,0,0-.62,0,.118.118,0,0,1-.12.12c-.62,1.99-3.49,8.72-13.45,9.47-11.71.87,6.23,3.36,11.33-.5,1.74-1.37,3.74-2.74,3.61-6.6a3.51,3.51,0,0,0-.75-2.49Zm4.86-9.47a3.274,3.274,0,0,0-1.99-3.24.976.976,0,0,1-.5-.5,16.973,16.973,0,0,0-3.11-7.22c-.12-.12-.25-.25-.12-.37.62-.87,0-1.37-.5-1.87Q25.15-2.385,13.95,1.17A17.9,17.9,0,0,0,5.98,6.4c-.25.37-.5.75-.25,1.12s.12.5-.12.75a18.145,18.145,0,0,0-3.11,7.1c0,.37-.25.5-.5.62A3.561,3.561,0,0,0,.01,18.61v3.74A3.694,3.694,0,0,0,4,26.21a.969.969,0,0,0,1-.87c.12-5.98-.25-7.47.25-9.84A14.941,14.941,0,0,1,26.9,5.28a14.715,14.715,0,0,1,7.97,13.2v6.6c0,.5.12,1,.75,1.12a3.549,3.549,0,0,0,4.11-2.86,15.372,15.372,0,0,0,.25-4.11ZM27.53,29.44c2.86.25,4.61-2.24,4.61-4.73-.12-3.49-5.11-1.25-6.85-.62-5.73,2.24-3.49,4.23-1.74,4.73l3.99.62Z"/>
</svg>
