<svg id="telegram" xmlns="http://www.w3.org/2000/svg" width="40" height="40" viewBox="0 0 40 40">
  <rect id="Rectangle_10082" data-name="Rectangle 10082" width="40" height="40" fill="none"/>
  <path id="Path_19726" data-name="Path 19726" d="M20,0A20,20,0,1,0,40,20,20.059,20.059,0,0,0,20,0Zm9.87,13.75-3.25,15.5c-.25,1.12-.88,1.38-1.75.88l-5-3.62L17.5,28.88a1.3,1.3,0,0,1-1,.5l.37-5.13,9.25-8.37c.37-.37-.13-.5-.62-.25L14,22.88l-4.88-1.5C8,21.01,8,20.26,9.37,19.76l19.25-7.37c.75-.62,1.5,0,1.25,1.38Z"/>
</svg>
