<svg id="terminal" xmlns="http://www.w3.org/2000/svg" width="40" height="40" viewBox="0 0 40 40">
  <rect id="Rectangle_10083" data-name="Rectangle 10083" width="40" height="40" fill="none"/>
  <path id="Path_19727" data-name="Path 19727" d="M3.28,35.77a3.165,3.165,0,0,1-2.27-1.01A3.165,3.165,0,0,1,0,32.49V7.51A3.165,3.165,0,0,1,1.01,5.24,3.165,3.165,0,0,1,3.28,4.23H36.72a3.165,3.165,0,0,1,2.27,1.01A3.165,3.165,0,0,1,40,7.51V32.49a3.464,3.464,0,0,1-3.28,3.28Zm0-2.65H36.72c.13,0,.25-.13.5-.25a.642.642,0,0,0,.25-.5V11.17H2.65V32.49c0,.13.13.25.25.5,0,.13.13.13.38.13ZM14.01,22.14,9.47,17.6a1.209,1.209,0,0,1,0-1.76,1.37,1.37,0,0,1,.88-.38,1.142,1.142,0,0,1,.88.38l5.17,5.17a1.538,1.538,0,0,1,.5,1.14,1.577,1.577,0,0,1-.5,1.14l-5.3,5.3a1.209,1.209,0,0,1-1.76,0,1.209,1.209,0,0,1,0-1.76c.25-.13,4.67-4.67,4.67-4.67Zm8.08,7.7a.974.974,0,0,1-.88-.38,1.241,1.241,0,0,1-.38-1.01.974.974,0,0,1,.38-.88,1.919,1.919,0,0,1,.88-.38h8.45a.974.974,0,0,1,.88.38,1.142,1.142,0,0,1,.38.88.974.974,0,0,1-.38.88,1.142,1.142,0,0,1-.88.38H22.09v.13Z"/>
</svg>
