<svg xmlns="http://www.w3.org/2000/svg" width="40" height="40.01" viewBox="0 0 40 40.01">
  <g id="text-width" transform="translate(0 0.01)">
    <rect id="Rectangle_10085" data-name="Rectangle 10085" width="40" height="40" fill="none"/>
    <path id="Path_19729" data-name="Path 19729" d="M8.18,39.62a1.144,1.144,0,0,1-.89.38,1.163,1.163,0,0,1-.89-.38L1.03,34.25A1.572,1.572,0,0,1,.52,33.1a1.406,1.406,0,0,1,.51-1.15l5.24-5.24a1.144,1.144,0,0,1,.89-.38,1.163,1.163,0,0,1,.89.38,1.144,1.144,0,0,1,.38.89,1.163,1.163,0,0,1-.38.89L4.98,31.81H35.14l-3.19-3.19a1.436,1.436,0,0,1-.38-1.02,1.163,1.163,0,0,1,.38-.89,1.144,1.144,0,0,1,.89-.38,1.163,1.163,0,0,1,.89.38l5.24,5.24a1.572,1.572,0,0,1,.51,1.15,1.406,1.406,0,0,1-.51,1.15L33.6,39.62a1.144,1.144,0,0,1-.89.38,1.163,1.163,0,0,1-.89-.38,1.393,1.393,0,0,1-.38-.89,1.163,1.163,0,0,1,.38-.89l3.32-3.32H4.98l3.19,3.32a1.144,1.144,0,0,1,.38.89,1.373,1.373,0,0,1-.38.89Zm2.68-18.4L18.53.89a2.385,2.385,0,0,1,.51-.64,1.36,1.36,0,0,1,.77-.26h.89a1.808,1.808,0,0,1,.77.26,1.256,1.256,0,0,1,.51.64l7.54,20.32a1.224,1.224,0,0,1-.13,1.15,1.043,1.043,0,0,1-1.02.51.966.966,0,0,1-.64-.26,1.256,1.256,0,0,1-.51-.64l-2.17-5.5H15.08l-2.04,5.5a1.917,1.917,0,0,1-.38.51.945.945,0,0,1-.64.26A1.163,1.163,0,0,1,11,22.23a.983.983,0,0,1-.13-1.02Zm4.98-6.77H24.4L20.31,2.95h-.26l-4.22,11.5Z"/>
  </g>
</svg>
