<svg id="text-height" xmlns="http://www.w3.org/2000/svg" width="40" height="40" viewBox="0 0 40 40">
  <rect id="Rectangle_10084" data-name="Rectangle 10084" width="40" height="40" fill="none"/>
  <path id="Path_19728" data-name="Path 19728" d="M27.25,35.75a2.132,2.132,0,0,1-1.99-1.99V8.13H16.51a2,2,0,0,1-1.37-.62,1.615,1.615,0,0,1-.5-1.25,2,2,0,0,1,.62-1.37,2,2,0,0,1,1.37-.62H38a2,2,0,0,1,1.37.62,2,2,0,0,1,.62,1.37,2,2,0,0,1-.62,1.37A2,2,0,0,1,38,8.25H29.25v25.5a2,2,0,0,1-.62,1.37,1.793,1.793,0,0,1-1.37.62Zm-18.75,0a2.132,2.132,0,0,1-1.99-1.99V18.64H2a2,2,0,0,1-1.37-.62A2.055,2.055,0,0,1,0,16.63a2,2,0,0,1,.62-1.37,2,2,0,0,1,1.37-.62h13a1.991,1.991,0,0,1,0,3.98h-4.5V33.74a2,2,0,0,1-.62,1.37,1.793,1.793,0,0,1-1.37.62Z"/>
</svg>
