<svg id="th-list" xmlns="http://www.w3.org/2000/svg" width="40" height="40" viewBox="0 0 40 40">
  <rect id="Rectangle_10055" data-name="Rectangle 10055" width="40" height="40" fill="none"/>
  <path id="Path_19695" data-name="Path 19695" d="M.02,31.3V8.7A3.5,3.5,0,0,1,1.15,6.16,3.561,3.561,0,0,1,3.69,5.03H36.31a3.5,3.5,0,0,1,2.54,1.13A3.561,3.561,0,0,1,39.98,8.7V31.3a3.5,3.5,0,0,1-1.13,2.54,3.561,3.561,0,0,1-2.54,1.13H3.69a3.5,3.5,0,0,1-2.54-1.13A3.521,3.521,0,0,1,.02,31.3ZM2.98,14.07H9.05V8H3.69a.842.842,0,0,0-.56.14c-.14.14-.14.28-.14.56v5.37Zm9.04,0H37.16V8.7a.842.842,0,0,0-.14-.56C36.88,8,36.74,8,36.46,8H12.02Zm0,8.9H37.16V16.9H12.02Zm0,9.04H36.45a.842.842,0,0,0,.56-.14c.14-.14.14-.28.14-.56V25.94H12.02Zm-8.33,0H9.06V25.94H2.98v5.37a.842.842,0,0,0,.14.56,1.058,1.058,0,0,0,.56.14Zm-.71-9.04H9.05V16.9H2.98v6.07Z"/>
</svg>
