<svg id="th-large" xmlns="http://www.w3.org/2000/svg" width="40" height="40" viewBox="0 0 40 40">
  <rect id="Rectangle_10054" data-name="Rectangle 10054" width="40" height="40" fill="none"/>
  <path id="Path_19694" data-name="Path 19694" d="M2.96,17.89a2.826,2.826,0,0,1-2.11-.85A2.9,2.9,0,0,1,0,14.93V2.96A2.826,2.826,0,0,1,.85.85,3.326,3.326,0,0,1,2.96,0H14.93a2.826,2.826,0,0,1,2.11.85,2.9,2.9,0,0,1,.85,2.11V14.93a2.826,2.826,0,0,1-.85,2.11,2.9,2.9,0,0,1-2.11.85H2.96ZM2.96,40a2.826,2.826,0,0,1-2.11-.85A2.826,2.826,0,0,1,0,37.04V25.07a2.826,2.826,0,0,1,.85-2.11,2.9,2.9,0,0,1,2.11-.85H14.93a2.826,2.826,0,0,1,2.11.85,2.9,2.9,0,0,1,.85,2.11V37.04a2.826,2.826,0,0,1-.85,2.11,2.9,2.9,0,0,1-2.11.85ZM25.07,17.89a2.826,2.826,0,0,1-2.11-.85,2.9,2.9,0,0,1-.85-2.11V2.96A2.826,2.826,0,0,1,22.96.85,2.9,2.9,0,0,1,25.07,0H37.04a2.826,2.826,0,0,1,2.11.85A2.9,2.9,0,0,1,40,2.96V14.93a2.826,2.826,0,0,1-.85,2.11,2.88,2.88,0,0,1-2.11.85H25.07Zm0,22.11a2.826,2.826,0,0,1-2.11-.85,2.88,2.88,0,0,1-.85-2.11V25.07a2.826,2.826,0,0,1,.85-2.11,2.9,2.9,0,0,1,2.11-.85H37.04a2.826,2.826,0,0,1,2.11.85A2.9,2.9,0,0,1,40,25.07V37.04a2.826,2.826,0,0,1-.85,2.11,2.88,2.88,0,0,1-2.11.85ZM2.96,14.93H14.93V2.96H2.96Zm22.11,0H37.04V2.96H25.07Zm0,22.11H37.04V25.07H25.07Zm-22.11,0H14.93V25.07H2.96V37.04Z"/>
</svg>
