<svg id="th" xmlns="http://www.w3.org/2000/svg" width="40" height="40" viewBox="0 0 40 40">
  <rect id="Rectangle_10056" data-name="Rectangle 10056" width="40" height="40" fill="none"/>
  <path id="Path_19696" data-name="Path 19696" d="M3.78,40A3.456,3.456,0,0,1,1.1,38.9a3.815,3.815,0,0,1,0-5.36,3.442,3.442,0,0,1,2.68-1.1,3.442,3.442,0,0,1,2.68,1.1,3.815,3.815,0,0,1,0,5.36A3.231,3.231,0,0,1,3.78,40ZM20,40a3.756,3.756,0,0,1-3.78-3.78A3.756,3.756,0,0,1,20,32.44a3.756,3.756,0,0,1,3.78,3.78A3.756,3.756,0,0,1,20,40Zm16.22,0a3.756,3.756,0,0,1-3.78-3.78,3.756,3.756,0,0,1,3.78-3.78A3.756,3.756,0,0,1,40,36.22,3.756,3.756,0,0,1,36.22,40ZM3.78,23.78a3.456,3.456,0,0,1-2.68-1.1A3.456,3.456,0,0,1,0,20a3.456,3.456,0,0,1,1.1-2.68,3.442,3.442,0,0,1,2.68-1.1,3.442,3.442,0,0,1,2.68,1.1A3.442,3.442,0,0,1,7.56,20a3.442,3.442,0,0,1-1.1,2.68A3.231,3.231,0,0,1,3.78,23.78Zm16.22,0A3.756,3.756,0,0,1,16.22,20,3.756,3.756,0,0,1,20,16.22,3.756,3.756,0,0,1,23.78,20,3.756,3.756,0,0,1,20,23.78Zm16.22,0A3.756,3.756,0,0,1,32.44,20a3.756,3.756,0,0,1,3.78-3.78A3.756,3.756,0,0,1,40,20a3.756,3.756,0,0,1-3.78,3.78ZM3.78,7.56A3.456,3.456,0,0,1,1.1,6.46,3.456,3.456,0,0,1,0,3.78,3.49,3.49,0,0,1,1.1,1.1,3.442,3.442,0,0,1,3.78,0,3.456,3.456,0,0,1,6.46,1.1a3.442,3.442,0,0,1,1.1,2.68,3.442,3.442,0,0,1-1.1,2.68A3.231,3.231,0,0,1,3.78,7.56ZM20,7.56a3.456,3.456,0,0,1-2.68-1.1,3.442,3.442,0,0,1-1.1-2.68,3.442,3.442,0,0,1,1.1-2.68A3.456,3.456,0,0,1,20,0a3.456,3.456,0,0,1,2.68,1.1,3.442,3.442,0,0,1,1.1,2.68,3.442,3.442,0,0,1-1.1,2.68A3.442,3.442,0,0,1,20,7.56Zm16.22,0a3.456,3.456,0,0,1-2.68-1.1,3.442,3.442,0,0,1-1.1-2.68,3.442,3.442,0,0,1,1.1-2.68,3.815,3.815,0,0,1,5.36,0A3.442,3.442,0,0,1,40,3.78a3.442,3.442,0,0,1-1.1,2.68A3.442,3.442,0,0,1,36.22,7.56Z"/>
</svg>
