<svg id="theater-masks" xmlns="http://www.w3.org/2000/svg" width="40" height="40" viewBox="0 0 40 40">
  <rect id="Rectangle_10057" data-name="Rectangle 10057" width="40" height="40" fill="none"/>
  <path id="Path_19697" data-name="Path 19697" d="M33.53,10.59a1.538,1.538,0,0,0,1.18-.47,1.45,1.45,0,0,0,.47-1.06,1.538,1.538,0,0,0-.47-1.18,1.49,1.49,0,0,0-1.18-.47,1.607,1.607,0,0,0-1.65,1.65,1.3,1.3,0,0,0,.47,1.06,1.524,1.524,0,0,0,1.18.47Zm-8.12,0a1.538,1.538,0,0,0,1.18-.47,1.45,1.45,0,0,0,.47-1.06,1.538,1.538,0,0,0-.47-1.18,1.49,1.49,0,0,0-1.18-.47,1.16,1.16,0,0,0-1.06.47,1.524,1.524,0,0,0-.47,1.18,1.3,1.3,0,0,0,.47,1.06,1.16,1.16,0,0,0,1.06.47ZM26,17.53h6.82a.953.953,0,0,0,.94-.47.7.7,0,0,0,0-.94A4.243,4.243,0,0,0,32,14.71a6.381,6.381,0,0,0-2.59-.47,6.412,6.412,0,0,0-2.59.47,3.6,3.6,0,0,0-1.76,1.41.7.7,0,0,0,0,.94,1.083,1.083,0,0,0,.94.47ZM10.59,38.59a10.04,10.04,0,0,1-7.53-3.18A10.115,10.115,0,0,1,0,27.88V18.47a2.952,2.952,0,0,1,.94-2.12,2.935,2.935,0,0,1,2.12-.94H18.24a3.223,3.223,0,0,1,3.06,3.06v9.41A10.652,10.652,0,0,1,10.59,38.59Zm0-2.47a7.8,7.8,0,0,0,5.76-2.47,7.749,7.749,0,0,0,2.35-5.76V18.48a.7.7,0,0,0-.12-.47c-.12-.12-.24-.12-.47-.12H2.94a.7.7,0,0,0-.47.12,4.949,4.949,0,0,1-.12.59v9.41A8.158,8.158,0,0,0,4.7,33.77a8.476,8.476,0,0,0,5.88,2.35ZM29.41,24.47a12.836,12.836,0,0,1-2.94-.35,8.749,8.749,0,0,1-2.59-1.06V20.24a17.37,17.37,0,0,0,2.59,1.29,8.032,8.032,0,0,0,8.7-1.76,7.32,7.32,0,0,0,2.35-5.65V4.47A.7.7,0,0,0,37.4,4c-.12-.12-.24-.12-.47-.12H21.75a.7.7,0,0,0-.47.12c0,.12-.12.24-.12.47v8.47H18.69V4.47a2.952,2.952,0,0,1,.94-2.12,2.935,2.935,0,0,1,2.12-.94H36.93a2.952,2.952,0,0,1,2.12.94,2.935,2.935,0,0,1,.94,2.12V14a10.317,10.317,0,0,1-3.06,7.41,10.2,10.2,0,0,1-7.53,3.06Zm-22.94.12a1.16,1.16,0,0,0,1.06-.47A1.45,1.45,0,0,0,8,23.06a1.538,1.538,0,0,0-.47-1.18,1.45,1.45,0,0,0-1.06-.47,1.538,1.538,0,0,0-1.18.47,1.49,1.49,0,0,0-.47,1.18,1.538,1.538,0,0,0,.47,1.18,2.209,2.209,0,0,0,1.18.35Zm8.24,0a1.538,1.538,0,0,0,1.18-.47,1.412,1.412,0,0,0,.47-1.06,1.538,1.538,0,0,0-.47-1.18,1.412,1.412,0,0,0-1.06-.47,1.538,1.538,0,0,0-1.18.47,1.49,1.49,0,0,0-.47,1.18,1.538,1.538,0,0,0,.47,1.18,1.429,1.429,0,0,0,1.06.35Zm-4.12,7.06a6.412,6.412,0,0,0,2.59-.47,3.551,3.551,0,0,0,1.76-1.41.7.7,0,0,0,0-.94.962.962,0,0,0-.94-.47H7.18a.953.953,0,0,0-.94.47.715.715,0,0,0,0,.94A3.6,3.6,0,0,0,8,31.18a6.381,6.381,0,0,0,2.59.47Z"/>
</svg>
