<svg id="thermometer" xmlns="http://www.w3.org/2000/svg" width="40" height="40" viewBox="0 0 40 40">
  <rect id="Rectangle_10058" data-name="Rectangle 10058" width="40" height="40" fill="none"/>
  <path id="Path_19698" data-name="Path 19698" d="M19.93,40A10.106,10.106,0,0,1,9.79,29.86a9.165,9.165,0,0,1,1.41-5.07,10.482,10.482,0,0,1,3.66-3.8V5.07a4.957,4.957,0,0,1,1.41-3.66A4.8,4.8,0,0,1,19.93,0a4.957,4.957,0,0,1,3.66,1.41,4.906,4.906,0,0,1,1.55,3.66V21.13a11.762,11.762,0,0,1,3.66,3.8A10.493,10.493,0,0,1,30.21,30a9.774,9.774,0,0,1-2.96,7.18A11.1,11.1,0,0,1,19.93,40Zm0-2.96a7.2,7.2,0,0,0,7.18-7.18,8.1,8.1,0,0,0-.85-3.66,6.6,6.6,0,0,0-2.54-2.68l-1.55-.99V5.07a2.129,2.129,0,0,0-.56-1.55,1.934,1.934,0,0,0-1.55-.56,2.129,2.129,0,0,0-1.55.56,1.934,1.934,0,0,0-.56,1.55V22.68l-1.55.99a5.841,5.841,0,0,0-2.54,2.68,6.084,6.084,0,0,0-.99,3.52,6.911,6.911,0,0,0,2.11,5.07,6.6,6.6,0,0,0,4.93,2.11Z"/>
</svg>
