<svg id="thumbs-down" xmlns="http://www.w3.org/2000/svg" width="40" height="40" viewBox="0 0 40 40">
  <rect id="Rectangle_10059" data-name="Rectangle 10059" width="40" height="40" fill="none"/>
  <path id="Path_19699" data-name="Path 19699" d="M3.13,25.88a3.027,3.027,0,0,1-2.17-.96A3.027,3.027,0,0,1,0,22.75V18.77a1.522,1.522,0,0,1,.12-.72L6.02,4.31A3.788,3.788,0,0,1,7.47,2.62,3.5,3.5,0,0,1,9.52,1.9h21.2V25.76L19.39,37.33a2.845,2.845,0,0,1-1.33.72,2.092,2.092,0,0,1-1.45-.24,2.117,2.117,0,0,1-.96-1.08,2.03,2.03,0,0,1-.12-1.45l2.05-9.4H3.12ZM28.19,24.8V4.43H9.28c-.12,0-.36.12-.48.12l-.36.36-5.9,14.1v3.73a.721.721,0,0,0,.12.48c.12.12.24.12.48.12H20.73L18.2,35.03l10-10.24ZM36.87,1.9a3.027,3.027,0,0,1,2.17.96A3.027,3.027,0,0,1,40,5.03V22.62a3.29,3.29,0,0,1-3.13,3.13H30.73V23.22h6.14a.721.721,0,0,0,.48-.12c.12-.12.12-.24.12-.48V5.04a.721.721,0,0,0-.12-.48c-.12-.12-.24-.12-.48-.12H30.73V1.9h6.14ZM28.2,4.43v0Z"/>
</svg>
