<svg id="thumbs-up" xmlns="http://www.w3.org/2000/svg" width="40" height="40" viewBox="0 0 40 40">
  <rect id="Rectangle_10060" data-name="Rectangle 10060" width="40" height="40" fill="none"/>
  <path id="Path_19700" data-name="Path 19700" d="M9.28,38.16V14.18L20.6,2.61a2.845,2.845,0,0,1,1.33-.72,2.092,2.092,0,0,1,1.45.24,2.117,2.117,0,0,1,.96,1.08,2.03,2.03,0,0,1,.12,1.45l-2.05,9.4H36.87A3.29,3.29,0,0,1,40,17.19v3.98a1.522,1.522,0,0,1-.12.72l-5.9,13.73a3.259,3.259,0,0,1-1.45,1.69,3.5,3.5,0,0,1-2.05.72c0,.12-21.2.12-21.2.12Zm2.53-22.89V35.63H30.85a.907.907,0,0,0,.48-.12l.36-.36,5.78-14.1V17.32a.721.721,0,0,0-.12-.48c-.12-.12-.24-.12-.48-.12H19.28L21.81,5.03l-10,10.24ZM3.13,38.16A3.027,3.027,0,0,1,.96,37.2,3.027,3.027,0,0,1,0,35.03V17.32a3.027,3.027,0,0,1,.96-2.17,3.027,3.027,0,0,1,2.17-.96H9.27v2.53H3.13a.721.721,0,0,0-.48.12c-.12.12-.12.24-.12.48V34.91a.721.721,0,0,0,.12.48c.12.12.24.12.48.12H9.27v2.53c0,.12-6.14.12-6.14.12Zm8.67-2.53v-.01Z"/>
</svg>
