<svg id="ticket-alt" xmlns="http://www.w3.org/2000/svg" width="40" height="40" viewBox="0 0 40 40">
  <rect id="Rectangle_10061" data-name="Rectangle 10061" width="40" height="40" fill="none"/>
  <path id="Path_19701" data-name="Path 19701" d="M3.28,35.65a3.165,3.165,0,0,1-2.27-1.01A3.165,3.165,0,0,1,0,32.37V26.69a1.866,1.866,0,0,1,.25-.88.847.847,0,0,1,.76-.5,5.927,5.927,0,0,0,2.52-2.14,5.7,5.7,0,0,0,.88-3.15,5.415,5.415,0,0,0-.88-3.15,4.642,4.642,0,0,0-2.52-2.14,2.918,2.918,0,0,1-.76-.5A2.2,2.2,0,0,1,0,13.31V7.63A3.165,3.165,0,0,1,1.01,5.36,3.165,3.165,0,0,1,3.28,4.35H36.72a3.165,3.165,0,0,1,2.27,1.01A3.165,3.165,0,0,1,40,7.63v5.68a1.866,1.866,0,0,1-.25.88.859.859,0,0,1-.76.5,6.9,6.9,0,0,0-2.52,2.14,5.7,5.7,0,0,0-.88,3.15,5.7,5.7,0,0,0,.88,3.15,5.247,5.247,0,0,0,2.52,2.14,2.918,2.918,0,0,1,.76.5,1.758,1.758,0,0,1,.25.88v5.68a3.464,3.464,0,0,1-3.28,3.28H3.28Zm0-2.65H36.72a.717.717,0,0,0,.5-.13c.12-.13.13-.25.13-.5V27.45a9.7,9.7,0,0,1-3.15-3.28,8.642,8.642,0,0,1,0-8.58,11.166,11.166,0,0,1,3.15-3.28V7.39a.717.717,0,0,0-.13-.5c-.13-.12-.25-.13-.5-.13H3.28a.717.717,0,0,0-.5.13.742.742,0,0,0-.13.5v4.92A8.611,8.611,0,0,1,5.8,15.59a8.372,8.372,0,0,1,1.14,4.29A8.372,8.372,0,0,1,5.8,24.17a11.166,11.166,0,0,1-3.15,3.28v4.92a.717.717,0,0,0,.13.5c.13.12.25.13.5.13Zm16.65-3.41a1.142,1.142,0,0,0,.88-.38,1.37,1.37,0,0,0,.38-.88,1.142,1.142,0,0,0-.38-.88,1.37,1.37,0,0,0-.88-.38,1.142,1.142,0,0,0-.88.38,1.37,1.37,0,0,0-.38.88,1.3,1.3,0,0,0,1.26,1.26Zm0-8.45a1.142,1.142,0,0,0,.88-.38,1.37,1.37,0,0,0,.38-.88A1.245,1.245,0,0,0,19.05,19a1.26,1.26,0,0,0,.88,2.14Zm0-8.33a1.142,1.142,0,0,0,.88-.38,1.37,1.37,0,0,0,.38-.88,1.142,1.142,0,0,0-.38-.88,1.37,1.37,0,0,0-.88-.38,1.142,1.142,0,0,0-.88.38,1.37,1.37,0,0,0-.38.88,1.3,1.3,0,0,0,1.26,1.26Z"/>
</svg>
