<svg id="tiktok" xmlns="http://www.w3.org/2000/svg" width="40" height="40" viewBox="0 0 40 40">
  <rect id="Rectangle_10062" data-name="Rectangle 10062" width="40" height="40" fill="none"/>
  <path id="Path_19702" data-name="Path 19702" d="M37.33,16.46a16.585,16.585,0,0,1-9.57-3.11V27.27a12.61,12.61,0,1,1-25.22,0A12.731,12.731,0,0,1,15.21,14.6a8.492,8.492,0,0,1,1.74.12v6.96a5.78,5.78,0,0,0-3.36,11.06,5.65,5.65,0,0,0,7.21-3.85,8.694,8.694,0,0,0,.25-1.74V.06h6.83A8.492,8.492,0,0,0,28,1.8h0a9.207,9.207,0,0,0,4.22,6.21,9.608,9.608,0,0,0,5.22,1.62v6.83h-.12Z"/>
</svg>
