<svg id="times" xmlns="http://www.w3.org/2000/svg" width="40" height="40" viewBox="0 0 40 40">
  <rect id="Rectangle_10065" data-name="Rectangle 10065" width="40" height="40" fill="none"/>
  <path id="Path_19705" data-name="Path 19705" d="M19.9,22.68,3.25,39.33a1.746,1.746,0,0,1-1.34.57,1.746,1.746,0,0,1-1.34-.57A2.076,2.076,0,0,1,0,37.99a1.746,1.746,0,0,1,.57-1.34L17.22,20,.58,3.35A1.721,1.721,0,0,1,0,2.01,1.746,1.746,0,0,1,.57.67,2.079,2.079,0,0,1,1.92.1,1.746,1.746,0,0,1,3.26.67L19.91,17.32,36.55.67a1.86,1.86,0,0,1,2.68,0,2.076,2.076,0,0,1,.57,1.34,1.746,1.746,0,0,1-.57,1.34L22.77,19.81,39.42,36.46a1.86,1.86,0,0,1,0,2.68,2.076,2.076,0,0,1-1.34.57,1.746,1.746,0,0,1-1.34-.57L19.9,22.68Z"/>
</svg>
