<svg id="times-cancel" xmlns="http://www.w3.org/2000/svg" width="40" height="40" viewBox="0 0 40 40">
  <rect id="Rectangle_10063" data-name="Rectangle 10063" width="40" height="40" fill="none"/>
  <path id="Path_19703" data-name="Path 19703" d="M20,21.9l6.84,6.84a1.163,1.163,0,0,0,.89.38,1.179,1.179,0,0,0,.89-.38,1.373,1.373,0,0,0,.38-.89,1.179,1.179,0,0,0-.38-.89L21.91,20l6.84-6.84a1.163,1.163,0,0,0,.38-.89,1.179,1.179,0,0,0-.38-.89,1.324,1.324,0,0,0-.89-.38,1.179,1.179,0,0,0-.89.38l-6.96,6.71-6.84-6.84a1.163,1.163,0,0,0-.89-.38,1.179,1.179,0,0,0-.89.38,1.324,1.324,0,0,0-.38.89,1.179,1.179,0,0,0,.38.89l6.84,6.84-6.84,6.84a1.163,1.163,0,0,0-.38.89,1.179,1.179,0,0,0,.38.89,1.324,1.324,0,0,0,.89.38,1.179,1.179,0,0,0,.89-.38l6.84-6.58ZM20,40a20.7,20.7,0,0,1-7.85-1.52,18.68,18.68,0,0,1-6.33-4.3,19.934,19.934,0,0,1-4.3-6.33A20.226,20.226,0,0,1,0,20a20.666,20.666,0,0,1,1.52-7.85A20.4,20.4,0,0,1,12.15,1.52,20.262,20.262,0,0,1,20,0a20.7,20.7,0,0,1,7.85,1.52A20.4,20.4,0,0,1,38.48,12.15,20.226,20.226,0,0,1,40,20a20.666,20.666,0,0,1-1.52,7.85A20.4,20.4,0,0,1,27.85,38.48,20.226,20.226,0,0,1,20,40Zm0-2.66a16.455,16.455,0,0,0,12.28-5.06A16.62,16.62,0,0,0,37.34,20,16.455,16.455,0,0,0,32.28,7.72,16.62,16.62,0,0,0,20,2.66,16.455,16.455,0,0,0,7.72,7.72,16.62,16.62,0,0,0,2.66,20,16.455,16.455,0,0,0,7.72,32.28,16.418,16.418,0,0,0,20,37.34Z"/>
</svg>
