<svg id="tint" xmlns="http://www.w3.org/2000/svg" width="40" height="40" viewBox="0 0 40 40">
  <rect id="Rectangle_10066" data-name="Rectangle 10066" width="40" height="40" fill="none"/>
  <path id="Path_19706" data-name="Path 19706" d="M20,39.9A15.945,15.945,0,0,1,8.21,35.07,16,16,0,0,1,3.25,23.41a14.787,14.787,0,0,1,1.34-6.3,15.743,15.743,0,0,1,3.62-5.36L20,.1,31.79,11.76a21.154,21.154,0,0,1,3.62,5.36,17.233,17.233,0,0,1,1.34,6.3,15.513,15.513,0,0,1-4.96,11.66A15.961,15.961,0,0,1,20,39.91Zm0-2.81a13.775,13.775,0,0,0,9.92-4.02,13.248,13.248,0,0,0,4.02-9.78,13.25,13.25,0,0,0-4.02-9.52L20,4.12,10.08,13.9a11.749,11.749,0,0,0-2.95,4.29,13.5,13.5,0,0,0-1.07,5.23,13.232,13.232,0,0,0,4.02,9.78A13.967,13.967,0,0,0,20,37.09Z"/>
</svg>
