<?xml version="1.0" encoding="UTF-8"?>
<svg id="Capa_1" data-name="Capa 1" xmlns="http://www.w3.org/2000/svg" viewBox="0 0 40 40">
  <defs>
    <style>
      .cls-1 {
        fill: none;
      }
    </style>
  </defs>
  <rect class="cls-1" x="0" width="40" height="40"/>
  <path d="m20,27.03l2.56,2.56c.17.17.37.26.59.26s.42-.09.59-.26l2.56-2.56,1.17,1.17c.25.25.54.38.87.38.33,0,.63-.12.89-.38.26-.26.39-.56.39-.88s-.13-.62-.39-.88l-2.34-2.34c-.17-.17-.37-.26-.59-.26s-.42.09-.59.26l-2.56,2.56-2.56-2.56c-.17-.17-.37-.26-.59-.26s-.42.09-.59.26l-2.56,2.56-2.56-2.56c-.17-.17-.37-.26-.59-.26s-.42.09-.6.26l-2.34,2.34c-.25.25-.37.54-.38.87,0,.33.12.63.38.89.26.26.56.39.88.39s.62-.13.88-.39l1.17-1.17,2.56,2.56c.17.17.37.26.59.26s.42-.09.59-.26l2.56-2.56Zm-6.67-11.24l-3.1,2.26c-.28.21-.46.49-.52.82-.06.33.02.64.23.93.21.28.49.46.83.54.34.07.65,0,.94-.23l4.98-3.65c.22-.17.32-.39.32-.66,0-.27-.11-.49-.32-.66l-5-3.66c-.28-.22-.58-.3-.91-.22-.33.07-.6.25-.83.54-.21.28-.29.59-.24.93s.23.61.53.82l3.1,2.26Zm13.34,0l3.1-2.26c.28-.21.46-.49.52-.82.06-.33-.02-.64-.23-.93-.21-.28-.49-.46-.83-.54-.34-.07-.65,0-.94.23l-4.96,3.65c-.22.17-.34.39-.34.66s.11.49.34.66l4.99,3.66c.28.22.58.3.91.22.33-.07.6-.25.83-.54.21-.28.29-.59.24-.93-.05-.33-.23-.61-.53-.82,0,0-3.1-2.26-3.1-2.26Zm-6.67,24.21c-2.76,0-5.36-.53-7.8-1.58-2.43-1.05-4.55-2.48-6.35-4.28-1.8-1.8-3.23-3.92-4.28-6.35-1.05-2.43-1.58-5.03-1.58-7.8s.53-5.36,1.58-7.8c1.05-2.43,2.48-4.55,4.28-6.35,1.8-1.8,3.92-3.23,6.35-4.28,2.43-1.05,5.03-1.58,7.8-1.58s5.36.53,7.8,1.58c2.43,1.05,4.55,2.48,6.35,4.28,1.8,1.8,3.23,3.92,4.28,6.35,1.05,2.43,1.58,5.03,1.58,7.8s-.53,5.36-1.58,7.8c-1.05,2.43-2.48,4.55-4.28,6.35-1.8,1.8-3.92,3.23-6.35,4.28-2.43,1.05-5.03,1.58-7.8,1.58Zm0-2.65c4.84,0,8.94-1.68,12.3-5.05,3.37-3.37,5.05-7.47,5.05-12.3,0-4.84-1.68-8.94-5.05-12.3-3.37-3.37-7.47-5.05-12.3-5.05-4.84,0-8.94,1.68-12.3,5.05-3.37,3.37-5.05,7.47-5.05,12.3s1.68,8.94,5.05,12.3c3.37,3.37,7.47,5.05,12.3,5.05Z"/>
</svg>