<svg id="toggle-on" xmlns="http://www.w3.org/2000/svg" width="40.01" height="40" viewBox="0 0 40.01 40">
  <rect id="Rectangle_10069" data-name="Rectangle 10069" width="40" height="40" fill="none"/>
  <path id="Path_19709" data-name="Path 19709" d="M10.49,30.48A10.169,10.169,0,0,1,3.08,27.4,9.955,9.955,0,0,1,0,20a9.993,9.993,0,0,1,3.08-7.41,9.977,9.977,0,0,1,7.41-3.08H29.52a10.169,10.169,0,0,1,7.41,3.08A9.977,9.977,0,0,1,40.01,20a9.977,9.977,0,0,1-3.08,7.41,9.977,9.977,0,0,1-7.41,3.08H10.49Zm0-2.39H29.52a7.688,7.688,0,0,0,5.7-2.39A7.635,7.635,0,0,0,37.61,20a7.688,7.688,0,0,0-2.39-5.7,7.651,7.651,0,0,0-5.7-2.39H10.49a7.688,7.688,0,0,0-5.7,2.39A7.651,7.651,0,0,0,2.4,20a7.688,7.688,0,0,0,2.39,5.7A7.468,7.468,0,0,0,10.49,28.09Zm18.92-3.3A4.682,4.682,0,0,0,34.2,20a4.837,4.837,0,0,0-8.21-3.42A4.643,4.643,0,0,0,24.62,20a4.643,4.643,0,0,0,1.37,3.42,5.053,5.053,0,0,0,3.42,1.37Z"/>
</svg>
