<svg id="tools" xmlns="http://www.w3.org/2000/svg" width="40" height="40" viewBox="0 0 40 40">
  <rect id="Rectangle_10071" data-name="Rectangle 10071" width="40" height="40" fill="none"/>
  <path id="Path_19711" data-name="Path 19711" d="M33.64,39.98a1.082,1.082,0,0,1-.6-.12c-.12-.12-.36-.24-.48-.36L21.45,28.39c-.12-.12-.24-.36-.36-.48a.9.9,0,0,1-.12-.6,1.082,1.082,0,0,1,.12-.6c.12-.12.24-.36.36-.48l3.86-3.86c.12-.12.36-.24.48-.36a.9.9,0,0,1,.6-.12,1.082,1.082,0,0,1,.6.12c.12.12.36.24.48.36L38.58,33.48c.12.12.24.36.36.48a.9.9,0,0,1,.12.6,1.082,1.082,0,0,1-.12.6c-.12.12-.24.36-.36.48l-3.86,3.74c-.12.12-.36.24-.48.36a.661.661,0,0,1-.6.24Zm0-2.9,2.54-2.54L26.4,24.76,23.86,27.3ZM6.35,39.98a1.082,1.082,0,0,1-.6-.12,1.657,1.657,0,0,1-.48-.36L1.53,35.76c-.12-.12-.24-.36-.36-.48a1.56,1.56,0,0,1,0-1.2,1.657,1.657,0,0,1,.36-.48L12.4,22.73h4.23l1.69-1.69L9.63,12.35H6.73L.92,6.66,5.51,2.07l5.8,5.55v2.9L20,19.21l6.28-6.28-3.5-3.5,2.54-2.54H20.25l-.85-.85L25.43.02l.85.85V6.06l2.54-2.54,8.21,8.21a5.1,5.1,0,0,1,1.09,1.69,5.66,5.66,0,0,1,.36,2.05,8.2,8.2,0,0,1-.24,1.69,6.227,6.227,0,0,1-.85,1.57l-4.11-4.59L30.5,16.92l-2.41-2.41-9.9,10.02v4.23L7.32,39.51c-.12.12-.36.24-.48.36a.721.721,0,0,1-.48.12Zm0-2.9L16.37,27.06V24.52H13.83L3.81,34.54C3.81,34.66,6.35,37.08,6.35,37.08Zm0,0L3.81,34.54l1.21,1.21A13.9,13.9,0,0,0,6.35,37.08Zm27.29,0,2.54-2.54Z"/>
</svg>
