<svg id="toolbox" xmlns="http://www.w3.org/2000/svg" width="40" height="40" viewBox="0 0 40 40">
  <rect id="Rectangle_10070" data-name="Rectangle 10070" width="40" height="40" fill="none"/>
  <path id="Path_19710" data-name="Path 19710" d="M0,32.21V15.63a3.17,3.17,0,0,1,1.01-2.28,3.17,3.17,0,0,1,2.28-1.01H10V7.78A3.17,3.17,0,0,1,11.01,5.5a2.739,2.739,0,0,1,2.28-1.01H26.71A3.17,3.17,0,0,1,28.99,5.5,3.17,3.17,0,0,1,30,7.78v4.56h6.71a3.17,3.17,0,0,1,2.28,1.01A3.17,3.17,0,0,1,40,15.63V32.21a3.462,3.462,0,0,1-3.29,3.29H3.29a3.17,3.17,0,0,1-2.28-1.01A2.739,2.739,0,0,1,0,32.21Zm3.29.63H36.83a.755.755,0,0,0,.51-.13c.13-.13.13-.25.13-.51V25.24H31.9V26a1.179,1.179,0,0,1-.38.89,1.439,1.439,0,0,1-1.01.38,1.179,1.179,0,0,1-.89-.38,1.163,1.163,0,0,1-.38-.89v-.76H10.76V26a1.179,1.179,0,0,1-.38.89,1.163,1.163,0,0,1-.89.38,1.179,1.179,0,0,1-.89-.38A1.13,1.13,0,0,1,8.22,26v-.76H2.66V32.2a.755.755,0,0,0,.13.51c.13.13.25.13.51.13ZM2.66,15.63v6.96H8.23v-.76a1.179,1.179,0,0,1,.38-.89,1.4,1.4,0,0,1,1.01-.38,1.179,1.179,0,0,1,.89.38,1.13,1.13,0,0,1,.38.89v.76H29.37v-.76a1.179,1.179,0,0,1,.38-.89,1.439,1.439,0,0,1,1.01-.38,1.179,1.179,0,0,1,.89.38,1.163,1.163,0,0,1,.38.89v.76H37.6V15.63a.755.755,0,0,0-.13-.51c-.13-.13-.25-.13-.51-.13H3.29a.755.755,0,0,0-.51.13c-.13.13-.13.25-.13.51Zm10-3.29H27.34V7.78a.755.755,0,0,0-.13-.51c-.13-.13-.25-.13-.51-.13H13.28a.755.755,0,0,0-.51.13c-.13.13-.13.25-.13.51v4.56Z"/>
</svg>
