<svg id="tooth" xmlns="http://www.w3.org/2000/svg" width="40" height="40" viewBox="0 0 40 40">
  <rect id="Rectangle_10072" data-name="Rectangle 10072" width="40" height="40" fill="none"/>
  <path id="Path_19712" data-name="Path 19712" d="M31.55,0a8.16,8.16,0,0,1,8.16,8.16,8.121,8.121,0,0,1-.14,1.69,15.71,15.71,0,0,1-.28,2.39L36.05,35.9a4,4,0,0,1-1.69,2.96,5.206,5.206,0,0,1-3.1,1.13,3.244,3.244,0,0,1-1.97-.56,15.027,15.027,0,0,1-1.69-1.41l-6.62-9.3-.42-.42a1.049,1.049,0,0,0-.7-.14,4.046,4.046,0,0,0-1.13.7l-6.48,9.01a3.606,3.606,0,0,1-1.69,1.55,3.984,3.984,0,0,1-2.11.56,5.206,5.206,0,0,1-3.1-1.13,4,4,0,0,1-1.69-2.96L.56,12.25C.42,11.26.42,10.56.28,9.86V8.17a8,8,0,0,1,2.4-5.78A8.007,8.007,0,0,1,8.45,0a6.827,6.827,0,0,1,3.1.56,12.071,12.071,0,0,1,2.39,1.27c.85.42,1.69.85,2.54,1.27A22.067,22.067,0,0,0,20,3.52a8.821,8.821,0,0,0,3.52-.56,20.055,20.055,0,0,0,2.54-1.27A12.528,12.528,0,0,1,28.45.56,6.827,6.827,0,0,1,31.55,0Zm0,2.96a6.556,6.556,0,0,0-2.39.42,14.46,14.46,0,0,0-2.11,1.13,30.356,30.356,0,0,1-3.1,1.41,15.681,15.681,0,0,1-3.94.56,9.863,9.863,0,0,1-3.8-.56,15.206,15.206,0,0,1-3.1-1.41A15.49,15.49,0,0,0,11,3.38a6.594,6.594,0,0,0-2.39-.42,5.661,5.661,0,0,0-3.8,1.55,4.7,4.7,0,0,0-1.55,3.8V9.72a12.531,12.531,0,0,0,.28,2.11l3.24,23.8a1.752,1.752,0,0,0,.56,1.13,1.866,1.866,0,0,0,1.13.42,2.076,2.076,0,0,0,.85-.28c.28-.14.42-.42.7-.7l6.34-8.87a4.909,4.909,0,0,1,1.55-1.41,5.238,5.238,0,0,1,1.97-.56,3.244,3.244,0,0,1,1.97.56,4.909,4.909,0,0,1,1.55,1.41l6.34,9.01c.14.28.42.42.56.7a1.985,1.985,0,0,0,.85.28,1.614,1.614,0,0,0,1.13-.42,1.576,1.576,0,0,0,.7-1.13l3.24-23.8c.14-.85.14-1.55.28-2.11a4.656,4.656,0,0,0,0-1.41,5.661,5.661,0,0,0-1.55-3.8,4.222,4.222,0,0,0-3.38-1.69Z"/>
</svg>
