<svg id="tractor" xmlns="http://www.w3.org/2000/svg" width="40" height="40" viewBox="0 0 40 40">
  <rect id="Rectangle_10073" data-name="Rectangle 10073" width="40" height="40" fill="none"/>
  <path id="Path_19713" data-name="Path 19713" d="M4.58,15.64a.981.981,0,0,1-.78-.34,1.044,1.044,0,0,1-.34-.78,1,1,0,0,1,.34-.78,1.028,1.028,0,0,1,.78-.34h6.37a2.811,2.811,0,0,1,1.9.67,4.3,4.3,0,0,1,1.01,1.68c-.11-.11-9.27-.11-9.27-.11ZM8.49,32.85a5.5,5.5,0,0,0,4.25-1.79,5.5,5.5,0,0,0,1.79-4.25,5.5,5.5,0,0,0-1.79-4.25,5.5,5.5,0,0,0-4.25-1.79,5.5,5.5,0,0,0-4.25,1.79,5.5,5.5,0,0,0-1.79,4.25,5.5,5.5,0,0,0,1.79,4.25A5.5,5.5,0,0,0,8.49,32.85Zm25.7,0a3.724,3.724,0,0,0,2.57-1.01,3.537,3.537,0,0,0,1.01-2.57,3.724,3.724,0,0,0-1.01-2.57,3.635,3.635,0,1,0-2.57,6.15ZM8.49,29.5a2.45,2.45,0,0,1-1.9-.78,2.7,2.7,0,0,1,0-3.8,2.45,2.45,0,0,1,1.9-.78,2.45,2.45,0,0,1,1.9.78,2.7,2.7,0,0,1,0,3.8,2.613,2.613,0,0,1-1.9.78Zm26.7-6.14a3.823,3.823,0,0,1,1.23.45,4.255,4.255,0,0,1,1.12.67V13.53a3.086,3.086,0,0,0-.89-2.12,2.839,2.839,0,0,0-2.12-.89H23.47L21.35,8.4l2.23-2.23a.868.868,0,0,0,.22-.56,1.2,1.2,0,0,0-.22-.56.868.868,0,0,0-.56-.22,1.2,1.2,0,0,0-.56.22l-5.47,5.47c-.11.34-.22.45-.22.67a.753.753,0,0,0,.78.78,1.2,1.2,0,0,0,.56-.22l2.23-2.23,2.12,2.12v3.8a4.649,4.649,0,0,1-1.45,3.46,4.451,4.451,0,0,1-3.46,1.45H13.86a4.647,4.647,0,0,1,1.01,1.12c.23.34.56.78.89,1.23h1.79a6.922,6.922,0,0,0,5.14-2.12,6.922,6.922,0,0,0,2.12-5.14V12.87h9.83a.688.688,0,0,1,.45.11c.11.11.11.22.11.45v9.94Zm-6.82,4.58a8.989,8.989,0,0,1,.45-1.34,5.352,5.352,0,0,1,.67-1.01H16.75c0,.45.11.89.11,1.23a5.559,5.559,0,0,1-.11,1.23H28.37v-.11Zm5.81,7.26a5.994,5.994,0,0,1-4.25-1.68,5.841,5.841,0,0,1-1.79-4.13,6.113,6.113,0,0,1,6.04-6.04,5.237,5.237,0,0,1,4.13,1.79,5.813,5.813,0,0,1,1.68,4.25,5.663,5.663,0,0,1-1.79,4.25A5.463,5.463,0,0,1,34.18,35.2Zm-25.81,0a7.9,7.9,0,0,1-5.92-2.46A8.438,8.438,0,0,1,0,26.82,7.914,7.914,0,0,1,2.46,20.9a7.967,7.967,0,0,1,5.92-2.46A7.914,7.914,0,0,1,14.3,20.9a7.929,7.929,0,0,1,2.46,5.92,7.914,7.914,0,0,1-2.46,5.92A7.749,7.749,0,0,1,8.38,35.2Z"/>
</svg>
