<svg xmlns="http://www.w3.org/2000/svg" width="40" height="40.01" viewBox="0 0 40 40.01">
  <g id="traffic-light" transform="translate(0 0.01)">
    <rect id="Rectangle_10074" data-name="Rectangle 10074" width="40" height="40" fill="none"/>
    <path id="Path_19714" data-name="Path 19714" d="M19.96,33.8a2.826,2.826,0,0,0,2.11-.85,2.9,2.9,0,0,0,.85-2.11,2.842,2.842,0,0,0-.85-2.11,2.9,2.9,0,0,0-2.11-.85,2.842,2.842,0,0,0-2.11.85A2.9,2.9,0,0,0,17,30.84a2.842,2.842,0,0,0,.85,2.11A2.88,2.88,0,0,0,19.96,33.8Zm0-10.85a2.826,2.826,0,0,0,2.11-.85,2.9,2.9,0,0,0,.85-2.11,2.842,2.842,0,0,0-.85-2.11,2.9,2.9,0,0,0-2.11-.85,2.842,2.842,0,0,0-2.11.85A2.9,2.9,0,0,0,17,19.99a2.842,2.842,0,0,0,.85,2.11A2.9,2.9,0,0,0,19.96,22.95Zm0-10.7a2.826,2.826,0,0,0,2.11-.85,2.88,2.88,0,0,0,.85-2.11,2.842,2.842,0,0,0-.85-2.11,2.9,2.9,0,0,0-2.11-.85,2.842,2.842,0,0,0-2.11.85A2.88,2.88,0,0,0,17,9.29a2.842,2.842,0,0,0,.85,2.11A2.88,2.88,0,0,0,19.96,12.25ZM12.21,40a2.826,2.826,0,0,1-2.11-.85,2.88,2.88,0,0,1-.85-2.11V34.08a8.177,8.177,0,0,1-3.66-1.83,6.441,6.441,0,0,1-1.83-3.1.948.948,0,0,1,.28-.99,1.245,1.245,0,0,1,.99-.42H9.26V22.67A8.177,8.177,0,0,1,5.6,20.84,6.245,6.245,0,0,1,3.77,17.6a.948.948,0,0,1,.28-.99,1.245,1.245,0,0,1,.99-.42H9.27V11.26A8.177,8.177,0,0,1,5.61,9.43a6.441,6.441,0,0,1-1.83-3.1.948.948,0,0,1,.28-.99,1.383,1.383,0,0,1,.99-.56H9.28V3.09A2.933,2.933,0,0,1,10.13.84a2.88,2.88,0,0,1,2.11-.85H27.73a2.826,2.826,0,0,1,2.11.85,3,3,0,0,1,.85,2.25V4.92h4.37a1.307,1.307,0,0,1,.99.42c.29.28.28.56.28.99a6.2,6.2,0,0,1-1.97,3.1,6.937,6.937,0,0,1-3.66,1.83v4.93h4.37a1.307,1.307,0,0,1,.99.42,1.193,1.193,0,0,1,.28.99,7.254,7.254,0,0,1-1.97,3.24,6.9,6.9,0,0,1-3.66,1.83v5.07h4.37a1.307,1.307,0,0,1,.99.42,1.193,1.193,0,0,1,.28.99,6.2,6.2,0,0,1-1.97,3.1,6.937,6.937,0,0,1-3.66,1.83v2.96a2.826,2.826,0,0,1-.85,2.11,2.9,2.9,0,0,1-2.11.85H12.27Zm0-2.96H27.7V2.96H12.21Zm0,0v0Z"/>
  </g>
</svg>
