<svg id="train" xmlns="http://www.w3.org/2000/svg" width="40" height="40" viewBox="0 0 40 40">
  <rect id="Rectangle_10034" data-name="Rectangle 10034" width="40" height="40" fill="none"/>
  <path id="Path_19674" data-name="Path 19674" d="M8.98,39.94a1.532,1.532,0,0,1-.94-1.07,1.274,1.274,0,0,1,.4-1.34l2-2a7.208,7.208,0,0,1-5.08-2,6.936,6.936,0,0,1-2-5.08V7.75a5.709,5.709,0,0,1,1.2-3.74A7.987,7.987,0,0,1,7.9,1.61,18.757,18.757,0,0,1,13.11.41,52.054,52.054,0,0,1,20.07,0a54.44,54.44,0,0,1,7.08.4,23.648,23.648,0,0,1,5.21,1.2A6.075,6.075,0,0,1,35.57,4a5.669,5.669,0,0,1,1.07,3.74V28.45a7.208,7.208,0,0,1-2,5.08,6.936,6.936,0,0,1-5.08,2l2,2a1.146,1.146,0,0,1,.4,1.2,1.668,1.668,0,0,1-.8,1.07,1.73,1.73,0,0,1-.8.13.736.736,0,0,1-.67-.4l-4.01-4.01H14.46l-4.01,4.01a1.7,1.7,0,0,1-.67.4c-.27.13-.53,0-.8,0ZM20.07,2.81a41.445,41.445,0,0,0-9.62.8A6.533,6.533,0,0,0,6.58,6.15H33.7c-.53-1.07-1.87-1.87-3.87-2.54a43.536,43.536,0,0,0-9.75-.8ZM6.18,18.17H18.74V8.95H6.17v9.22Zm23.51,2.81h-.01Zm-8.15-2.81H33.96V8.95H21.54ZM12.19,29.66a2.8,2.8,0,1,0,0-5.6,2.8,2.8,0,1,0,0,5.6Zm15.76,0a2.734,2.734,0,1,0-2-.8A3.243,3.243,0,0,0,27.95,29.66Zm-17.5,3.21H29.69a3.853,3.853,0,0,0,3.07-1.34,4.338,4.338,0,0,0,1.2-3.21V20.84H6.17v7.48a4.815,4.815,0,0,0,1.2,3.21,3.853,3.853,0,0,0,3.07,1.34ZM20.07,6.14h0Z"/>
</svg>
