<svg id="trailer" xmlns="http://www.w3.org/2000/svg" width="40" height="40" viewBox="0 0 40 40">
  <rect id="Rectangle_10075" data-name="Rectangle 10075" width="40" height="40" fill="none"/>
  <path id="Path_19715" data-name="Path 19715" d="M33.43,34.55a1.3,1.3,0,0,1-.36-.84,1.915,1.915,0,0,1,.36-.96l2.28-2.28H18.44a4.557,4.557,0,0,1-1.92,3,5.734,5.734,0,0,1-3.36,1.2,5.03,5.03,0,0,1-3.36-1.2,5.05,5.05,0,0,1-1.92-3H5.72A5.337,5.337,0,0,1,.2,24.95V14.04H11.71V7.68H1.41a1.089,1.089,0,0,1-.84-.36,1.363,1.363,0,0,1-.36-.96.934.934,0,0,1,.36-.84,1.089,1.089,0,0,1,.84-.36H24.55a3,3,0,0,1,2.16.96,3,3,0,0,1,.96,2.16V27.94h7.91L33.3,25.66a1.089,1.089,0,0,1-.36-.84,1.6,1.6,0,0,1,.36-.96,1.363,1.363,0,0,1,.96-.36,1.089,1.089,0,0,1,.84.36l4.2,4.2c.12.12.24.36.36.48a.9.9,0,0,1,.12.6,1.082,1.082,0,0,1-.12.6,1.657,1.657,0,0,1-.36.48l-4.32,4.2a1.089,1.089,0,0,1-.84.36c-.12.12-.48,0-.72-.24ZM14.36,14.04H25.27V8.28c0-.12-.12-.24-.24-.48a.623.623,0,0,0-.48-.24H14.24c.12.12.12,6.48.12,6.48Zm-1.2,18.11a2.472,2.472,0,0,0,2.04-.84,2.81,2.81,0,0,0,.84-2.04,2.472,2.472,0,0,0-.84-2.04,2.81,2.81,0,0,0-2.04-.84,2.472,2.472,0,0,0-2.04.84,2.81,2.81,0,0,0-.84,2.04,2.472,2.472,0,0,0,.84,2.04,2.9,2.9,0,0,0,2.04.84Zm-5.28-4.2a5.05,5.05,0,0,1,1.92-3,5.03,5.03,0,0,1,3.36-1.2,5.03,5.03,0,0,1,3.36,1.2,5.431,5.431,0,0,1,1.92,3h6.83V16.56H2.73v8.39a2.877,2.877,0,0,0,3,3H7.89Zm0-11.39h0Z"/>
</svg>
