<svg id="trash" xmlns="http://www.w3.org/2000/svg" width="40" height="40" viewBox="0 0 40 40">
  <rect id="Rectangle_10038" data-name="Rectangle 10038" width="40" height="40" fill="none"/>
  <path id="Path_19678" data-name="Path 19678" d="M8.37,40a3.583,3.583,0,0,1-2.55-1.13,3.526,3.526,0,0,1-1.13-2.55V4.82H3.7a1.253,1.253,0,0,1-.99-.43,1.622,1.622,0,0,1-.43-1.13,1.267,1.267,0,0,1,.43-.99,1.3,1.3,0,0,1,.99-.43h8.79A1.384,1.384,0,0,1,13.06.56,1.8,1.8,0,0,1,14.47,0H25.68a1.367,1.367,0,0,1,1.27.57,1.374,1.374,0,0,1,.57,1.28h8.79a1.253,1.253,0,0,1,.99.43,1.552,1.552,0,0,1,.43.99,1.253,1.253,0,0,1-.43.99,1.316,1.316,0,0,1-.99.43h-.85V36.18a3.583,3.583,0,0,1-1.13,2.55,3.526,3.526,0,0,1-2.55,1.13c-.14.14-23.4.14-23.4.14ZM7.66,4.82V36.31a.869.869,0,0,0,.14.57c.14.14.28.14.57.14H31.63a.869.869,0,0,0,.57-.14c.14-.14.14-.28.14-.57V4.82H7.66Zm6.38,25.82a1.253,1.253,0,0,0,.43.99,1.622,1.622,0,0,0,1.13.43,1.267,1.267,0,0,0,.99-.43,1.3,1.3,0,0,0,.43-.99V11.21a1.253,1.253,0,0,0-.43-.99,1.552,1.552,0,0,0-.99-.43,1.5,1.5,0,0,0-.99.43,1.552,1.552,0,0,0-.43.99V30.64Zm8.94,0a1.253,1.253,0,0,0,.43.99,1.552,1.552,0,0,0,.99.43,1.253,1.253,0,0,0,.99-.43,1.3,1.3,0,0,0,.43-.99V11.21a1.253,1.253,0,0,0-.43-.99,1.622,1.622,0,0,0-1.13-.43,1.267,1.267,0,0,0-.99.43,1.573,1.573,0,0,0-.43.99V30.64ZM7.66,4.82V36.31a.869.869,0,0,0,.14.57c.14.14.28.14.57.14H7.66Z"/>
</svg>
