<svg id="tree" xmlns="http://www.w3.org/2000/svg" width="40" height="40" viewBox="0 0 40 40">
  <rect id="Rectangle_10039" data-name="Rectangle 10039" width="40" height="40" fill="none"/>
  <path id="Path_19679" data-name="Path 19679" d="M20.03,40a2.449,2.449,0,0,1-1.87-.8,2.642,2.642,0,0,1-.8-1.87V31.46h-12a1.747,1.747,0,0,1-1.6-.93,1.393,1.393,0,0,1,.13-1.73l7.87-11.6H10.29a1.747,1.747,0,0,1-1.6-.93,1.393,1.393,0,0,1,.13-1.73L18.56.67a1.273,1.273,0,0,1,.67-.53,1.6,1.6,0,0,1,.8-.14,1.73,1.73,0,0,1,.8.13,1.366,1.366,0,0,1,.67.53l9.73,13.87a1.626,1.626,0,0,1,.13,1.73,1.609,1.609,0,0,1-1.6.93H28.29l7.87,11.6a1.626,1.626,0,0,1,.13,1.73,1.609,1.609,0,0,1-1.6.93h-12v5.87a2.449,2.449,0,0,1-.8,1.87,2.253,2.253,0,0,1-1.87.8ZM7.5,28.67H7.49Zm0,0H32.7L22.97,14.4H27.5L20.03,3.73,12.56,14.4h4.67L7.5,28.67Z"/>
</svg>
