<svg id="trello" xmlns="http://www.w3.org/2000/svg" width="40" height="40" viewBox="0 0 40 40">
  <rect id="Rectangle_10040" data-name="Rectangle 10040" width="40" height="40" fill="none"/>
  <path id="Path_19680" data-name="Path 19680" d="M34.85.2H5.15A4.968,4.968,0,0,0,.2,5.15v29.7A4.968,4.968,0,0,0,5.15,39.8h29.7a4.968,4.968,0,0,0,4.95-4.95V5.15A5.047,5.047,0,0,0,34.85.2h0ZM17.53,30.14a2.347,2.347,0,0,1-2.35,2.35H7.88a2.275,2.275,0,0,1-2.35-2.35V7.75A2.347,2.347,0,0,1,7.88,5.4h7.3a2.347,2.347,0,0,1,2.35,2.35v22.4h0Zm17.08-9.9a2.347,2.347,0,0,1-2.35,2.35H25.08a2.347,2.347,0,0,1-2.35-2.35V7.75A2.347,2.347,0,0,1,25.08,5.4h7.18a2.347,2.347,0,0,1,2.35,2.35v12.5Z"/>
</svg>
