<svg id="tripadvisor" xmlns="http://www.w3.org/2000/svg" width="40" height="40" viewBox="0 0 40 40">
  <rect id="Rectangle_10041" data-name="Rectangle 10041" width="40" height="40" fill="none"/>
  <path id="Path_19681" data-name="Path 19681" d="M36.75,14.59,40,11.09H32.75a22.612,22.612,0,0,0-25.5,0H0l3.25,3.5a10.154,10.154,0,0,0-.62,14.12,10.149,10.149,0,0,0,14.12.62L20,32.83l3.25-3.5a10.035,10.035,0,0,0,14.12-.5,9.747,9.747,0,0,0,2.62-6.75h0a10.409,10.409,0,0,0-3.25-7.5ZM10,28.71a6.75,6.75,0,1,1,6.75-6.75A6.722,6.722,0,0,1,10,28.71Zm10-6.87c0-4.5-3.25-8.25-7.5-9.87a19.5,19.5,0,0,1,15,0C23.25,13.47,20,17.34,20,21.84Zm10,6.87h0a6.75,6.75,0,1,1,6.75-6.75A6.722,6.722,0,0,1,30,28.71ZM10,18.46h0a3.491,3.491,0,0,0-3.5,3.5,3.57,3.57,0,0,0,3.5,3.5,3.57,3.57,0,0,0,3.5-3.5h0a3.418,3.418,0,0,0-3.5-3.5Zm20,0a3.491,3.491,0,0,0-3.5,3.5,3.57,3.57,0,0,0,3.5,3.5,3.491,3.491,0,0,0,3.5-3.5h0A3.418,3.418,0,0,0,30,18.46Z"/>
</svg>
