<svg id="truck-moving" xmlns="http://www.w3.org/2000/svg" width="40" height="40" viewBox="0 0 40 40">
  <rect id="Rectangle_10043" data-name="Rectangle 10043" width="40" height="40" fill="none"/>
  <path id="Path_19683" data-name="Path 19683" d="M8.1,34.08a5.261,5.261,0,0,1-3.74-1.5,4.646,4.646,0,0,1-1.5-3.74H2.74a2.642,2.642,0,0,1-1.87-.87A2.921,2.921,0,0,1,0,25.98V8.91A2.939,2.939,0,0,1,.87,6.79a2.71,2.71,0,0,1,2.12-.87H25.92a2.923,2.923,0,0,1,2.12.87,2.744,2.744,0,0,1,.87,2.12v4.36h3.86a.946.946,0,0,1,.62.12.976.976,0,0,1,.5.5l5.73,7.6c.12.12.12.25.25.37,0,.12.12.25.12.5v5.11a1.424,1.424,0,0,1-.37,1,1.407,1.407,0,0,1-1,.37H36.88a5.126,5.126,0,0,1-5.24,5.24,5.261,5.261,0,0,1-3.74-1.5,4.646,4.646,0,0,1-1.5-3.74H13.19a5.065,5.065,0,0,1-1.5,3.74,4.981,4.981,0,0,1-3.61,1.5Zm0-2.24a2.465,2.465,0,0,0,1.99-.87,3.2,3.2,0,0,0,.87-1.99,2.478,2.478,0,0,0-.87-1.99,2.941,2.941,0,0,0-1.99-.87,2.478,2.478,0,0,0-1.99.87,2.711,2.711,0,0,0,0,3.98A2.7,2.7,0,0,0,8.1,31.84ZM2.37,8.91V26.23a.106.106,0,0,0,.12.12l.12.12a.118.118,0,0,1,.12.12h.75A4.1,4.1,0,0,1,5.35,24.6a5.436,5.436,0,0,1,2.74-.87,4.488,4.488,0,0,1,2.74.87,4.791,4.791,0,0,1,1.87,1.99H26.53V8.91a.428.428,0,0,0-.49-.49H2.87a.461.461,0,0,0-.37.12c-.12,0-.12.25-.12.37ZM31.53,31.84a2.465,2.465,0,0,0,1.99-.87,3.254,3.254,0,0,0,.87-1.99,2.478,2.478,0,0,0-.87-1.99,2.941,2.941,0,0,0-1.99-.87,2.978,2.978,0,0,0-2.86,2.86,2.478,2.478,0,0,0,.87,1.99,2.7,2.7,0,0,0,1.99.87Zm-2.74-9.1h8.72l-5.36-7.1H28.79v7.1Z"/>
</svg>
