<svg id="tshirt" xmlns="http://www.w3.org/2000/svg" width="40.01" height="40" viewBox="0 0 40.01 40">
  <rect id="Rectangle_10044" data-name="Rectangle 10044" width="40" height="40" fill="none"/>
  <path id="Path_19684" data-name="Path 19684" d="M5.53,15.03l5.94-3.27V23.03a5.177,5.177,0,0,0-1.33.24c-.48.12-.85.24-1.21.36V16L5.9,17.7a1.4,1.4,0,0,1-1.21.12,1.856,1.856,0,0,1-.97-.73L.2,11.03A1.4,1.4,0,0,1,.08,9.82a1.491,1.491,0,0,1,.73-.97l9.57-5.57c.24-.12.61-.24.85-.36h1.09a1.775,1.775,0,0,1,.85.24,1.268,1.268,0,0,1,.61.73A9.2,9.2,0,0,0,16.2,7.4a5.7,5.7,0,0,0,3.88,1.45A5.5,5.5,0,0,0,23.96,7.4a7.966,7.966,0,0,0,2.42-3.51,3.233,3.233,0,0,1,.61-.73,1.742,1.742,0,0,1,.85-.24,2.669,2.669,0,0,1,.97.12,6.029,6.029,0,0,1,.85.36l9.57,5.57a1.909,1.909,0,0,1,.73.97,2.108,2.108,0,0,1-.12,1.21l-3.39,6.06a1.5,1.5,0,0,1-.97.73,1.394,1.394,0,0,1-1.21-.12l-3.03-1.7V28.6l-2.18,1.94-.12.12a.372.372,0,0,0-.24.12V11.76l6.06,3.27,2.54-4.36L28.57,5.7a11.615,11.615,0,0,1-3.51,4.12,9.243,9.243,0,0,1-9.94,0A9.612,9.612,0,0,1,11.61,5.7L2.99,10.67l2.54,4.36ZM12.8,28.97a10.717,10.717,0,0,0-1.94.24,4.668,4.668,0,0,0-1.7.97L6.25,32.6a1.387,1.387,0,0,1-.97.36.92.92,0,0,1-.85-.48.95.95,0,0,1-.24-.97,1.235,1.235,0,0,1,.48-.85l2.79-2.42a9.84,9.84,0,0,1,2.42-1.45,7.594,7.594,0,0,1,2.79-.48,7.594,7.594,0,0,1,2.79.48,9.78,9.78,0,0,1,2.42,1.45l5.82,4.97a4.731,4.731,0,0,0,1.7.97,5.078,5.078,0,0,0,1.94.24,10.717,10.717,0,0,0,1.94-.24,4.668,4.668,0,0,0,1.7-.97l2.79-2.42a.95.95,0,0,1,.97-.24.92.92,0,0,1,.85.48,1.387,1.387,0,0,1,.36.97,1.235,1.235,0,0,1-.48.85l-2.79,2.42a6.805,6.805,0,0,1-2.42,1.33,7.19,7.19,0,0,1-2.79.48,7.19,7.19,0,0,1-2.79-.48,7.741,7.741,0,0,1-2.42-1.33L16.44,30.3a4.731,4.731,0,0,0-1.7-.97,6.08,6.08,0,0,0-1.94-.36Z"/>
</svg>
