<svg id="tty" xmlns="http://www.w3.org/2000/svg" width="40" height="40" viewBox="0 0 40 40">
  <rect id="Rectangle_10045" data-name="Rectangle 10045" width="40" height="40" fill="none"/>
  <path id="Path_19685" data-name="Path 19685" d="M20,38.42a1.179,1.179,0,0,1-.89-.38,1.324,1.324,0,0,1-.38-.89,1.179,1.179,0,0,1,.38-.89,1.163,1.163,0,0,1,.89-.38H34.56a.755.755,0,0,0,.51-.13c.13-.13.13-.25.13-.51V19.42a13.35,13.35,0,0,0-1.27-5.82,18.165,18.165,0,0,0-3.29-4.81A15.4,15.4,0,0,0,20.01,4.23,13.381,13.381,0,0,0,14.19,5.5,14.162,14.162,0,0,0,9.38,8.79,15.549,15.549,0,0,0,6.09,13.6a12.99,12.99,0,0,0-1.27,5.82V31.19a1.891,1.891,0,0,1-.25.76.939.939,0,0,1-.76.25,3.651,3.651,0,0,1-2.66-1.14A3.651,3.651,0,0,1,.01,28.4V24.22a3.117,3.117,0,0,1,.63-1.9,5.387,5.387,0,0,1,1.52-1.39V18.15a19.448,19.448,0,0,1,1.77-6.71A18.106,18.106,0,0,1,7.85,6.25a20.829,20.829,0,0,1,5.57-3.42,18.344,18.344,0,0,1,6.46-1.27,16.829,16.829,0,0,1,6.58,1.27,16.98,16.98,0,0,1,5.57,3.42,17.39,17.39,0,0,1,3.92,5.19,16.941,16.941,0,0,1,1.77,6.71l.13,2.78a3.7,3.7,0,0,1,1.52,1.27A3.029,3.029,0,0,1,40,23.97v4.81a3.005,3.005,0,0,1-.63,1.77,3.86,3.86,0,0,1-1.52,1.27v3.16a3.462,3.462,0,0,1-3.29,3.29H20v.13ZM14.05,23.61a1.552,1.552,0,0,1-1.14-.51,2.313,2.313,0,0,1-.51-1.14,1.552,1.552,0,0,1,.51-1.14,2.313,2.313,0,0,1,1.14-.51,1.552,1.552,0,0,1,1.14.51,1.608,1.608,0,0,1,.51,1.14,1.552,1.552,0,0,1-.51,1.14A1.608,1.608,0,0,1,14.05,23.61Zm11.9,0a1.613,1.613,0,0,1-1.14-2.79,2.313,2.313,0,0,1,1.14-.51,1.552,1.552,0,0,1,1.14.51,1.608,1.608,0,0,1,.51,1.14,1.552,1.552,0,0,1-.51,1.14A2.313,2.313,0,0,1,25.95,23.61ZM8.1,20.45a12.364,12.364,0,0,1,.76-5.32,11.6,11.6,0,0,1,2.78-4.05,9.894,9.894,0,0,1,3.92-2.53,11.586,11.586,0,0,1,4.43-.89,11.237,11.237,0,0,1,7.72,2.91,12.022,12.022,0,0,1,3.92,7.09,14.506,14.506,0,0,1-8.35-2.53A16.758,16.758,0,0,1,17.71,8.8a14.928,14.928,0,0,1-3.42,7.09,15.038,15.038,0,0,1-6.2,4.56Z"/>
</svg>
