<svg id="tumblr" xmlns="http://www.w3.org/2000/svg" width="40" height="40" viewBox="0 0 40 40">
  <rect id="Rectangle_10046" data-name="Rectangle 10046" width="40" height="40" fill="none"/>
  <path id="Path_19686" data-name="Path 19686" d="M31.78,37.49A11.338,11.338,0,0,1,24.13,40c-9.4,0-11.54-7.02-11.54-11.03V17.68H8.83a.807.807,0,0,1-.75-.75V11.66a1.359,1.359,0,0,1,.88-1.25c4.89-1.76,6.39-6.02,6.65-9.15.13-.88.5-1.25,1.25-1.25h5.52a.807.807,0,0,1,.75.75V9.79h6.52a.807.807,0,0,1,.75.75v6.39a.807.807,0,0,1-.75.75H23.13V28.09c0,2.63,1.88,4.26,5.27,2.76a1.49,1.49,0,0,1,1-.13,1.055,1.055,0,0,1,.63.63l1.76,5.02c.13.38.25.88,0,1.13h0Z"/>
</svg>
