<svg id="tv" xmlns="http://www.w3.org/2000/svg" width="40" height="40" viewBox="0 0 40 40">
  <rect id="Rectangle_10047" data-name="Rectangle 10047" width="40" height="40" fill="none"/>
  <path id="Path_19687" data-name="Path 19687" d="M3.35,33.64a3.143,3.143,0,0,1-2.26-1.01A3.143,3.143,0,0,1,.08,30.37V5.49A3.143,3.143,0,0,1,1.09,3.23,3.143,3.143,0,0,1,3.35,2.22h33.3a3.143,3.143,0,0,1,2.26,1.01,3.143,3.143,0,0,1,1.01,2.26V30.37a3.466,3.466,0,0,1-3.27,3.27H27.1v2.51a1.238,1.238,0,0,1-.5,1.13,1.862,1.862,0,0,1-1.13.5H14.54a1.238,1.238,0,0,1-1.13-.5,1.862,1.862,0,0,1-.5-1.13V33.64H3.36Zm0-2.64h33.3c.13,0,.25-.13.5-.25a.642.642,0,0,0,.25-.5V5.49c0-.13-.13-.25-.25-.5a.642.642,0,0,0-.5-.25H3.35a1.661,1.661,0,0,0-.5.38.458.458,0,0,0-.13.38V30.38c0,.13.13.25.25.5,0,.13.13.13.38.13Zm-.63,0v0Z"/>
</svg>
