<svg id="twitter" xmlns="http://www.w3.org/2000/svg" width="40" height="40" viewBox="0 0 40 40">
  <rect id="Rectangle_10050" data-name="Rectangle 10050" width="40" height="40" fill="none"/>
  <path id="Path_19690" data-name="Path 19690" d="M35.87,11.81v1.12c0,10.75-8.25,23.25-23.25,23.25A24.011,24.011,0,0,1,0,32.56a10.491,10.491,0,0,0,2,.12,15.8,15.8,0,0,0,10.12-3.5A8.1,8.1,0,0,1,4.5,23.56a6.332,6.332,0,0,0,1.5.12,10.535,10.535,0,0,0,2.12-.25,8.175,8.175,0,0,1-6.62-8v-.12a7.661,7.661,0,0,0,3.75,1A8.136,8.136,0,0,1,1.63,9.44,7.846,7.846,0,0,1,2.75,5.32a23.265,23.265,0,0,0,16.87,8.62,10,10,0,0,1-.25-1.87,8.239,8.239,0,0,1,8.25-8.25,8.137,8.137,0,0,1,6,2.62,15.732,15.732,0,0,0,5.25-2,8.065,8.065,0,0,1-3.62,4.5A15.452,15.452,0,0,0,40,7.69a21.427,21.427,0,0,1-4.12,4.12h0Z"/>
</svg>
