<svg id="typo3" xmlns="http://www.w3.org/2000/svg" width="40" height="40" viewBox="0 0 40 40">
  <rect id="Rectangle_10051" data-name="Rectangle 10051" width="40" height="40" fill="none"/>
  <path id="Path_19691" data-name="Path 19691" d="M15.99,4.14c0-2.26.5-2.88,1.25-3.51-6.27.75-13.42,3.01-15.8,5.89A5.933,5.933,0,0,0,.56,9.78C.56,19.06,10.09,40,17.11,40c3.26,0,8.78-5.27,13.17-12.41a3.714,3.714,0,0,1-1.63.25c-5.14,0-12.66-17.68-12.66-23.7h0ZM27.02,0c-2.76,0-3.76.5-3.76,3.26,0,5.89,4.76,17.81,9.15,17.81,2.38,0,7.02-8.9,7.02-16.3,0-3.76-6.02-4.76-12.41-4.76h0Z"/>
</svg>
