<svg id="uber" xmlns="http://www.w3.org/2000/svg" width="40" height="40" viewBox="0 0 40 40">
  <rect id="Rectangle_10052" data-name="Rectangle 10052" width="40" height="40" fill="none"/>
  <path id="Path_19692" data-name="Path 19692" d="M36.87,0H3A2.958,2.958,0,0,0,0,3V37a2.958,2.958,0,0,0,3,3H37a3.042,3.042,0,0,0,3-3V3A3.071,3.071,0,0,0,36.87,0ZM21.12,32A12.078,12.078,0,0,1,7.87,21.13h8.38v1.88a.588.588,0,0,0,.62.62h6.12a.588.588,0,0,0,.62-.62V16.89a.588.588,0,0,0-.62-.62H16.87a.588.588,0,0,0-.62.62v1.87H7.87a12.059,12.059,0,0,1,24,0A11.835,11.835,0,0,1,21.12,32.01Z"/>
</svg>
