<svg id="ubuntu" xmlns="http://www.w3.org/2000/svg" width="40" height="40" viewBox="0 0 40 40">
  <rect id="Rectangle_10053" data-name="Rectangle 10053" width="40" height="40" fill="none"/>
  <path id="Path_19693" data-name="Path 19693" d="M20,0A20,20,0,1,0,40,20,20.059,20.059,0,0,0,20,0Zm4.25,7.5a2.574,2.574,0,0,1,4.5,2.5,2.635,2.635,0,0,1-3.5,1A2.53,2.53,0,0,1,24.25,7.5ZM7,22.63A2.631,2.631,0,0,1,4.38,20,2.563,2.563,0,0,1,7,17.37,2.572,2.572,0,0,1,9.63,20,2.646,2.646,0,0,1,7,22.63Zm2.37.25a3.664,3.664,0,0,0,0-5.62,11.789,11.789,0,0,1,4.5-6.38l1.88,3.25a7.36,7.36,0,0,0,0,12l-1.88,3.25a11.268,11.268,0,0,1-4.5-6.5ZM27.75,33.5a2.574,2.574,0,1,1,1-3.5A2.679,2.679,0,0,1,27.75,33.5Zm0-5.62a3.576,3.576,0,0,0-4.87,2.87A11.1,11.1,0,0,1,15.13,30l1.88-3.25a7.318,7.318,0,0,0,10.37-6h3.75a11.591,11.591,0,0,1-3.38,7.13Zm-.5-8.5a7.325,7.325,0,0,0-10.37-6L15,10.13a11.085,11.085,0,0,1,7.75-.75,3.73,3.73,0,0,0,4.87,2.88,10.82,10.82,0,0,1,3.25,7.12H27.24Z"/>
</svg>
