<svg id="umbrella-beach" xmlns="http://www.w3.org/2000/svg" width="40" height="40" viewBox="0 0 40 40">
  <rect id="Rectangle_10020" data-name="Rectangle 10020" width="40" height="40" fill="none"/>
  <path id="Path_19658" data-name="Path 19658" d="M37.36,39.57l-14-13.86,2.29-2.29L39.51,37.28a1.6,1.6,0,0,1,.43,1.14,1.586,1.586,0,0,1-.43,1.14,1.647,1.647,0,0,1-1.14.43,1.524,1.524,0,0,1-1-.43Zm-33.43-4a19.982,19.982,0,0,1-2.86-6.14,25.292,25.292,0,0,1-1-6.57,21.89,21.89,0,0,1,1.71-8.57,21.683,21.683,0,0,1,5-7.57,21.915,21.915,0,0,1,7.57-5A22.972,22.972,0,0,1,22.92.01a20.455,20.455,0,0,1,6.57,1,21.611,21.611,0,0,1,6.14,2.86,2.183,2.183,0,0,1,1,1.71,2.207,2.207,0,0,1-.71,1.86L7.5,35.86a1.953,1.953,0,0,1-1.86.71,1.863,1.863,0,0,1-1.71-1Zm1.86-2.29,4.14-4.29a20.065,20.065,0,0,1-1.86-2.86c-.57-1-1.14-2-1.71-3.14a26.822,26.822,0,0,1-1.29-3.57,29.972,29.972,0,0,1-.43-3.71,17.66,17.66,0,0,0-1.43,9,19.326,19.326,0,0,0,2.57,8.57Zm6.57-6.43L26.93,12.28A23.868,23.868,0,0,0,21.5,8.99a27.292,27.292,0,0,0-5.29-1.57,11.331,11.331,0,0,0-4.43,0,5.86,5.86,0,0,0-3,1.43,5.981,5.981,0,0,0-1.43,3,15.214,15.214,0,0,0,0,4.43,30.07,30.07,0,0,0,1.57,5.14,31.447,31.447,0,0,0,3.43,5.43Zm21-20.99A19.165,19.165,0,0,0,24.65,3a17.745,17.745,0,0,0-9,1.57,15.728,15.728,0,0,1,3.71.57,13.623,13.623,0,0,1,3.43,1.29,13.679,13.679,0,0,1,3.14,1.71c1,.57,2,1.29,3,2l4.43-4.29Z"/>
</svg>
