<svg id="umbraco" xmlns="http://www.w3.org/2000/svg" width="40" height="40" viewBox="0 0 40 40">
  <rect id="Rectangle_10019" data-name="Rectangle 10019" width="40" height="40" fill="none"/>
  <path id="Path_19657" data-name="Path 19657" d="M20,0A20,20,0,1,0,40,20,19.982,19.982,0,0,0,20,0ZM31.75,21.38a12.611,12.611,0,0,1-1.12,5.25,6.756,6.756,0,0,1-3.5,2.87,20.514,20.514,0,0,1-6.88.88h-.37A19.849,19.849,0,0,1,13,29.5a5.845,5.845,0,0,1-3.5-2.87,10.243,10.243,0,0,1-1.12-5.25v-2.5a34.516,34.516,0,0,1,.25-3.5c.13-1.12.25-1.88.38-2.63a1.627,1.627,0,0,0,.13-.62c0-.12.25-.25.38-.38h0l2.63.38a.4.4,0,0,1,.38.38h0l-.13.75c-.13.75-.25,1.63-.38,2.75a29.391,29.391,0,0,0-.25,3.38,15.994,15.994,0,0,0,.62,4.87,3.694,3.694,0,0,0,2.5,2,14.46,14.46,0,0,0,4.62.37h.88a30.2,30.2,0,0,0,4.63-.37,3.694,3.694,0,0,0,2.5-2,12.05,12.05,0,0,0,.62-4.87,32.215,32.215,0,0,0-.25-3.38c-.13-1.12-.25-2-.37-2.75v-.5h0a.336.336,0,0,1,.37-.38L30.52,12h.13a.332.332,0,0,1,.37.38,2.517,2.517,0,0,1,.13.62c.13.75.25,1.5.37,2.63a31.5,31.5,0,0,1,.25,3.5v2.25h0Z"/>
</svg>
