<svg id="umbrella" xmlns="http://www.w3.org/2000/svg" width="40" height="40.01" viewBox="0 0 40 40.01">
  <rect id="Rectangle_10021" data-name="Rectangle 10021" width="40" height="40" fill="none"/>
  <path id="Path_19659" data-name="Path 19659" d="M19.99,39.88a1.749,1.749,0,0,1-.7-.23,1.229,1.229,0,0,1-.47-.58L9.46,11.7a1.013,1.013,0,0,1,.12-.82.724.724,0,0,1,.82-.23l4.68,1.05,3.63-2.57V3.98a3.809,3.809,0,0,1,1.17-2.81A3.868,3.868,0,0,1,22.8,0a3.92,3.92,0,0,1,2.69.94A3.624,3.624,0,0,1,26.78,3.4a1.043,1.043,0,0,1-.23,1.05,1.445,1.445,0,0,1-.94.47,1.006,1.006,0,0,1-.7-.23.714.714,0,0,1-.35-.7,1.746,1.746,0,0,0-.47-1.17,1.8,1.8,0,0,0-1.17-.47,1.5,1.5,0,0,0-1.17.47,1.5,1.5,0,0,0-.47,1.17V9.37l3.63,2.57,4.68-1.05a.728.728,0,0,1,.82.23c.24.23.23.47.12.82L21.17,39.31a1.453,1.453,0,0,1-.47.7,1.443,1.443,0,0,0-.7-.12h0Zm1.17-8.42L27.12,13.8l-2.81.7-3.16-2.22V31.46Zm-2.34,0V12.28L15.66,14.5l-2.92-.82Z"/>
</svg>
