<svg id="underline" xmlns="http://www.w3.org/2000/svg" width="40" height="40" viewBox="0 0 40 40">
  <rect id="Rectangle_10022" data-name="Rectangle 10022" width="40" height="40" fill="none"/>
  <path id="Path_19660" data-name="Path 19660" d="M5.4,40a1.324,1.324,0,0,1-1.02-.44,1.666,1.666,0,0,1-.44-1.17,1.324,1.324,0,0,1,.44-1.02,1.324,1.324,0,0,1,1.02-.44H34.6a1.324,1.324,0,0,1,1.02.44,1.586,1.586,0,0,1,.44,1.02,1.5,1.5,0,0,1-1.46,1.46C34.6,40,5.4,40,5.4,40ZM20,31.82a12,12,0,0,1-8.91-3.36C8.9,26.27,7.88,23.2,7.88,19.55V1.9A1.433,1.433,0,0,1,8.46.59,1.872,1.872,0,0,1,9.92.01a1.433,1.433,0,0,1,1.31.58,1.777,1.777,0,0,1,.58,1.31V19.56A8.9,8.9,0,0,0,14,25.84a7.5,7.5,0,0,0,5.99,2.34,7.5,7.5,0,0,0,5.99-2.34,8.9,8.9,0,0,0,2.19-6.28V1.9A1.433,1.433,0,0,1,28.75.59,1.872,1.872,0,0,1,30.21.01a1.433,1.433,0,0,1,1.31.58A1.777,1.777,0,0,1,32.1,1.9V19.56c0,3.8-1.02,6.72-3.21,8.91-2.19,2.34-5.11,3.36-8.91,3.36Z"/>
</svg>
