<svg id="undo" xmlns="http://www.w3.org/2000/svg" width="40" height="40" viewBox="0 0 40 40">
  <rect id="Rectangle_10023" data-name="Rectangle 10023" width="40" height="40" fill="none"/>
  <path id="Path_19661" data-name="Path 19661" d="M8.48,38.8a1.246,1.246,0,0,1-1.12-.48,1.453,1.453,0,0,1-.48-1.12,1.817,1.817,0,0,1,.48-1.28,1.453,1.453,0,0,1,1.12-.48h16.8a11.491,11.491,0,0,0,8.16-3.04,10.069,10.069,0,0,0,3.36-7.68,10.069,10.069,0,0,0-3.36-7.68A11.491,11.491,0,0,0,25.28,14H5.44l6.72,6.72a1.547,1.547,0,0,1,0,2.24,1.728,1.728,0,0,1-1.12.48,1.453,1.453,0,0,1-1.12-.48L.64,13.68c-.16-.16-.32-.48-.48-.64a1.442,1.442,0,0,1-.16-.8,1.442,1.442,0,0,1,.16-.8c.16-.16.32-.48.48-.64L9.76,1.68a1.547,1.547,0,0,1,2.24,0,1.728,1.728,0,0,1,.48,1.12A1.453,1.453,0,0,1,12,3.92L5.28,10.64H24.96a15.28,15.28,0,0,1,10.56,4A12.917,12.917,0,0,1,40,24.72,12.917,12.917,0,0,1,35.52,34.8a14.741,14.741,0,0,1-10.56,4Z"/>
</svg>
