<svg id="universal-access" xmlns="http://www.w3.org/2000/svg" width="40" height="40" viewBox="0 0 40 40">
  <rect id="Rectangle_10025" data-name="Rectangle 10025" width="40" height="40" fill="none"/>
  <path id="Path_19663" data-name="Path 19663" d="M20,7.28a3.545,3.545,0,0,1-2.57-1.1,3.552,3.552,0,0,1,0-5.14A3.95,3.95,0,0,1,20,.06a3.545,3.545,0,0,1,2.57,1.1,3.491,3.491,0,0,1,1.1,2.57,3.545,3.545,0,0,1-1.1,2.57A3.95,3.95,0,0,1,20,7.28Zm16.02,4.16c-1.71.37-3.55.73-5.38.98s-3.79.49-5.75.61V38.71a1.106,1.106,0,0,1-.37.86,1.4,1.4,0,0,1-.98.37,1.265,1.265,0,0,1-1.23-1.23V26.97H17.54V38.71a1.106,1.106,0,0,1-.37.86,1.4,1.4,0,0,1-.98.37,1.265,1.265,0,0,1-1.23-1.23V13.03c-1.96-.12-3.91-.37-5.75-.61s-3.67-.61-5.38-.98a1.406,1.406,0,0,1-.86-.61,2.664,2.664,0,0,1,0-.98,1.406,1.406,0,0,1,.61-.86.938.938,0,0,1,.98-.12,53.854,53.854,0,0,0,7.58,1.22c2.57.24,5.14.37,7.82.37a78.268,78.268,0,0,0,7.82-.37,53.853,53.853,0,0,0,7.58-1.22,1.327,1.327,0,0,1,.98.12,2.172,2.172,0,0,1,.61.86,1.327,1.327,0,0,1-.12.98,1.379,1.379,0,0,1-.86.61Z"/>
</svg>
