<svg id="unlink" xmlns="http://www.w3.org/2000/svg" width="40" height="40" viewBox="0 0 40 40">
  <rect id="Rectangle_10026" data-name="Rectangle 10026" width="40" height="40" fill="none"/>
  <path id="Path_19664" data-name="Path 19664" d="M38.64,37.34,2.11.8A1.127,1.127,0,0,0,1.24.43,1.127,1.127,0,0,0,.37.8,1.655,1.655,0,0,0,0,1.8a1.607,1.607,0,0,0,.37.99L7.59,9.96a9.041,9.041,0,0,0-4.62,2.86A9.5,9.5,0,0,0,.74,19.01a9.289,9.289,0,0,0,9.41,9.41V28.3h6.93a1.264,1.264,0,0,0,1.24-1.24,1.331,1.331,0,0,0-.37-.87,1.127,1.127,0,0,0-.87-.37H10.27a6.544,6.544,0,0,1-4.83-1.98,6.544,6.544,0,0,1-1.98-4.83,6.544,6.544,0,0,1,1.98-4.83,6.453,6.453,0,0,1,4.42-1.96l5.59,5.56H14.11a1.264,1.264,0,0,0-1.24,1.24,1.331,1.331,0,0,0,.37.87,1.127,1.127,0,0,0,.87.37s2.2,0,3.86.03L37.02,39.21a1.127,1.127,0,0,0,.87.37,1.331,1.331,0,0,0,.87-.37.9.9,0,0,0,.25-.99,1.127,1.127,0,0,0-.37-.87Z"/>
  <path id="Path_19665" data-name="Path 19665" d="M24.27,12.32h6.44a6.3,6.3,0,0,1,4.71,1.98,6.544,6.544,0,0,1,1.98,4.83,6.709,6.709,0,0,1-5.33,6.56l2.11,2.11a11.53,11.53,0,0,0,4.21-3.47A8.919,8.919,0,0,0,40,19.13a9.1,9.1,0,0,0-2.72-6.69,8.579,8.579,0,0,0-6.56-2.72H24.28a1.264,1.264,0,0,0-1.24,1.24,1.4,1.4,0,0,0,.37.99,1.127,1.127,0,0,0,.87.37Z"/>
  <path id="Path_19666" data-name="Path 19666" d="M24.27,17.77l2.48,2.48H27a1.035,1.035,0,0,0,.74-.37,1.051,1.051,0,0,0,.25-.74,1.4,1.4,0,0,0-.37-.99,1.127,1.127,0,0,0-.87-.37H24.27Z"/>
</svg>
