<?xml version="1.0" encoding="UTF-8"?>
<svg id="Capa_1" data-name="Capa 1" xmlns="http://www.w3.org/2000/svg" viewBox="0 0 40 40">
  <defs>
    <style>
      .cls-1 {
        fill: none;
      }
    </style>
  </defs>
  <rect class="cls-1" x="0" width="40" height="40"/>
  <path d="m5.82,36.19h22.86v-19.05H5.82v19.05Zm11.43-5.71c1.05,0,1.94-.37,2.69-1.12s1.12-1.64,1.12-2.69-.37-1.94-1.12-2.69-1.64-1.12-2.69-1.12-1.94.37-2.69,1.12-1.12,1.64-1.12,2.69.37,1.94,1.12,2.69,1.64,1.12,2.69,1.12Zm-11.43,5.71v-19.05,19.05Zm0,3.81c-1.05,0-1.94-.37-2.69-1.12s-1.12-1.64-1.12-2.69v-19.05c0-1.05.37-1.94,1.12-2.69s1.64-1.12,2.69-1.12h13.33v-3.81c0-2.63.93-4.88,2.79-6.74s4.1-2.79,6.74-2.79c2.25,0,4.22.68,5.9,2.05s2.79,3.08,3.33,5.14c.16.54.06,1.06-.31,1.57s-.8.76-1.31.76c-.54,0-.98-.11-1.33-.33s-.6-.59-.76-1.1c-.35-1.21-1.02-2.22-2.02-3.05s-2.17-1.24-3.5-1.24c-1.59,0-2.94.56-4.05,1.67s-1.67,2.46-1.67,4.05v3.81h5.71c1.05,0,1.94.37,2.69,1.12s1.12,1.64,1.12,2.69v19.05c0,1.05-.37,1.94-1.12,2.69s-1.64,1.12-2.69,1.12H5.82Z"/>
</svg>