<svg id="upload" xmlns="http://www.w3.org/2000/svg" width="40.02" height="40" viewBox="0 0 40.02 40">
  <rect id="Rectangle_10028" data-name="Rectangle 10028" width="40" height="40" fill="none"/>
  <path id="Path_19668" data-name="Path 19668" d="M19.92,29.64a1.64,1.64,0,0,1-1.6-1.6V5.9l-5.9,5.9a1.728,1.728,0,0,1-1.12.48,2.079,2.079,0,0,1-1.27-.48,1.809,1.809,0,0,1-.48-1.27,1.467,1.467,0,0,1,.48-1.12L18.49.96c.16-.16.48-.32.64-.48a1.442,1.442,0,0,1,.8-.16,1.442,1.442,0,0,1,.8.16c.16.16.48.32.64.48l8.45,8.45a1.728,1.728,0,0,1,.48,1.12,1.453,1.453,0,0,1-.48,1.12,1.728,1.728,0,0,1-1.12.48,1.453,1.453,0,0,1-1.12-.48L21.52,5.91V28.06a1.64,1.64,0,0,1-1.6,1.6ZM4.14,39.68a4.014,4.014,0,0,1-2.87-1.27A3.957,3.957,0,0,1,0,35.54V29.32A1.453,1.453,0,0,1,.48,28.2a1.45,1.45,0,0,1,1.27-.64,1.467,1.467,0,0,1,1.12.48,1.453,1.453,0,0,1,.48,1.12v6.22c0,.16.16.32.32.64a.831.831,0,0,0,.64.32H35.86c.16,0,.32-.16.64-.32a.831.831,0,0,0,.32-.64V29.32a1.453,1.453,0,0,1,.48-1.12,1.728,1.728,0,0,1,1.12-.48,1.64,1.64,0,0,1,1.6,1.6v6.22a4.353,4.353,0,0,1-4.14,4.14H4.14Z"/>
</svg>
