<svg xmlns="http://www.w3.org/2000/svg" width="40" height="40.001" viewBox="0 0 40 40.001">
  <g id="ups" transform="translate(0 0.001)">
    <rect id="Rectangle_10029" data-name="Rectangle 10029" width="40" height="40" fill="none"/>
    <path id="Path_19669" data-name="Path 19669" d="M12.12,24.11c-.5.38-3,1.25-3-1.63V13.22H6.24v9.13c0,6.76,7.13,4.63,8.76,3.5V13.09H12.12V24.1ZM3.24,3.72V23.49C3.24,32.75,10,35.63,20,40c10.01-4.38,16.76-7.13,16.76-16.51V3.72C26.38-1.79,11.62-.66,3.24,3.72ZM35.27,23.49c0,7.76-4.75,10.13-15.26,14.76C9.5,33.62,4.75,31.24,4.75,23.49V12.11C13.87,3.84,25.5,3.22,35.26,4.09V23.48ZM16.5,13.86V32.88h2.88V26.75c2.13.63,6.38-.25,6.38-7.01.13-8.63-7.13-7.26-9.26-5.88h0Zm2.88,10.51V15.36c.75-.38,3.5-1.13,3.5,4.38,0,6.13-3.25,4.75-3.5,4.63Zm7.13-7.76c0,4.25,4.63,3.75,4.63,6.26,0,2.13-2.75,2-4.5.5v2.75c3.25,1.88,7.38.75,7.51-3,.13-4.63-4.88-4.13-4.75-6.51,0-1.88,2.75-1.88,4.38-.25v-2.5c-2.63-2-7.26-.88-7.26,2.75h0Z"/>
  </g>
</svg>
