<svg id="usb" xmlns="http://www.w3.org/2000/svg" width="40" height="40.01" viewBox="0 0 40 40.01">
  <rect id="Rectangle_10030" data-name="Rectangle 10030" width="40" height="40" fill="none"/>
  <path id="Path_19670" data-name="Path 19670" d="M19.87,40a3.865,3.865,0,0,1-2.6-1.04,3.63,3.63,0,0,1-1.04-2.6,3.193,3.193,0,0,1,.65-1.95,3.7,3.7,0,0,1,1.69-1.43V27.14H11.3A3.255,3.255,0,0,1,8.96,26.1a3.255,3.255,0,0,1-1.04-2.34V18.57a3.036,3.036,0,0,1-1.56-1.3,3.928,3.928,0,0,1-.65-2.08,3.64,3.64,0,1,1,7.28,0,3.928,3.928,0,0,1-.65,2.08,3.822,3.822,0,0,1-1.56,1.3v5.19c0,.13.13.26.26.52a.675.675,0,0,0,.52.26h7.01V6.36H16.49a.713.713,0,0,1-.78-.52.8.8,0,0,1,.13-.91L19.22.39c.13-.13.26-.13.65-.39a.478.478,0,0,1,.39.13.28.28,0,0,1,.26.26L23.9,4.94a.8.8,0,0,1,.13.91.878.878,0,0,1-.78.52H21.17V24.42h7.27c.13,0,.26-.13.52-.26a.675.675,0,0,0,.26-.52V18.7h-1.3c-.26,0-.39-.13-.65-.26a.993.993,0,0,1-.26-.65V12.34c0-.26.13-.39.26-.65a.993.993,0,0,1,.65-.26h5.45c.26,0,.39.13.65.26a.993.993,0,0,1,.26.65v5.45c0,.26-.13.39-.26.65a.993.993,0,0,1-.65.26h-1.3v4.94a3.567,3.567,0,0,1-3.38,3.38H21.16v5.97a3.594,3.594,0,0,1,1.69,1.43,3.868,3.868,0,0,1,.65,1.95,3.63,3.63,0,0,1-1.04,2.6,3.338,3.338,0,0,1-2.6,1.04Z"/>
</svg>
