<svg id="user-plus" xmlns="http://www.w3.org/2000/svg" width="40" height="40" viewBox="0 0 40 40">
  <rect id="Rectangle_10005" data-name="Rectangle 10005" width="40" height="40" fill="none"/>
  <path id="Path_19643" data-name="Path 19643" d="M32.9,22.99a1.162,1.162,0,0,1-1.13-1.13V17.13H27.04a1.016,1.016,0,0,1-.79-.34,1.262,1.262,0,0,1-.34-.9,1.162,1.162,0,0,1,1.13-1.13h4.73V10.03a1.016,1.016,0,0,1,.34-.79,1.262,1.262,0,0,1,.9-.34,1.162,1.162,0,0,1,1.13,1.13v4.73h4.73a1.016,1.016,0,0,1,.79.34,1.2,1.2,0,0,1,.34.79,1.162,1.162,0,0,1-1.13,1.13H34.14v4.73a1.016,1.016,0,0,1-.34.79A1.154,1.154,0,0,1,32.9,22.99ZM14.08,19.16a6.153,6.153,0,0,1-6.31-6.31,6.153,6.153,0,0,1,6.31-6.31,6.153,6.153,0,0,1,6.31,6.31,6.022,6.022,0,0,1-1.8,4.51A6.469,6.469,0,0,1,14.08,19.16ZM1.47,33.46a1.082,1.082,0,0,1-1.01-.45A1.672,1.672,0,0,1,.01,32V29.75A4.41,4.41,0,0,1,.8,27.16a3.981,3.981,0,0,1,2.03-1.8,35.3,35.3,0,0,1,5.75-2.03,21.861,21.861,0,0,1,10.82,0,35.633,35.633,0,0,1,5.75,2.03,5.53,5.53,0,0,1,2.14,1.8,4.186,4.186,0,0,1,.79,2.59V32a1.082,1.082,0,0,1-.45,1.01,1.672,1.672,0,0,1-1.01.45H1.5Zm.9-2.37H25.8V29.63a2.242,2.242,0,0,0-.34-1.24,3.282,3.282,0,0,0-1.13-1.01,22.866,22.866,0,0,0-5.18-1.92,24,24,0,0,0-5.07-.56,26.5,26.5,0,0,0-5.07.56,22.231,22.231,0,0,0-5.18,1.92,2.476,2.476,0,0,0-1.47,2.25v1.46ZM14.09,16.78a3.862,3.862,0,0,0,3.95-3.95,3.862,3.862,0,0,0-3.95-3.95,3.862,3.862,0,0,0-3.95,3.95,3.739,3.739,0,0,0,1.13,2.82A4.2,4.2,0,0,0,14.09,16.78Z"/>
</svg>
