<svg id="users-cog" xmlns="http://www.w3.org/2000/svg" width="40" height="40" viewBox="0 0 40 40">
  <rect id="Rectangle_10010" data-name="Rectangle 10010" width="40" height="40" fill="none"/>
  <path id="Path_19648" data-name="Path 19648" d="M23.7,40a2.388,2.388,0,0,1-1.92-.84,2.832,2.832,0,0,1-.84-1.92V24.27a2.388,2.388,0,0,1,.84-1.92,2.832,2.832,0,0,1,1.92-.84H36.67a2.388,2.388,0,0,1,1.92.84,2.832,2.832,0,0,1,.84,1.92V37.24a2.388,2.388,0,0,1-.84,1.92,2.832,2.832,0,0,1-1.92.84Zm0-2.76H36.67V35.8a8.523,8.523,0,0,0-2.76-2.28,7.248,7.248,0,0,0-3.6-.84,7.248,7.248,0,0,0-3.6.84,8.523,8.523,0,0,0-2.76,2.28v1.44h-.24Zm6.49-6.49a2.388,2.388,0,0,0,1.92-.84,2.832,2.832,0,0,0,.84-1.92,2.388,2.388,0,0,0-.84-1.92,2.832,2.832,0,0,0-1.92-.84,2.388,2.388,0,0,0-1.92.84,2.832,2.832,0,0,0-.84,1.92,2.876,2.876,0,0,0,2.76,2.76ZM18.66,13.33a5.736,5.736,0,0,0-5.76,5.76,5.613,5.613,0,0,0,1.08,3.36,5.468,5.468,0,0,0,2.64,2.04V21.61a3.737,3.737,0,0,1-.84-1.08,3.2,3.2,0,0,1-.36-1.44,3.278,3.278,0,0,1,3.24-3.24,3.2,3.2,0,0,1,1.44.36,2.117,2.117,0,0,1,1.08.96h2.88a5.767,5.767,0,0,0-2.04-2.76,5.882,5.882,0,0,0-3.36-1.08ZM16.62,38.07H15.9a1.363,1.363,0,0,1-.96-.36,1.481,1.481,0,0,1-.48-.96l-.72-4.8a10.185,10.185,0,0,1-2.04-.96,10.875,10.875,0,0,1-1.92-1.32L5.46,31.83a1.147,1.147,0,0,1-1.08,0,1.269,1.269,0,0,1-.84-.72L.78,26.19a1.166,1.166,0,0,1-.12-1.08,1.649,1.649,0,0,1,.6-.96L5.1,21.27c0-.36-.12-.72-.12-1.08V18.03c0-.36.12-.72.12-1.08L1.26,14.07a1.649,1.649,0,0,1-.6-.96,1.694,1.694,0,0,1,.12-1.08L3.42,7.11a1.613,1.613,0,0,1,.84-.72,1.665,1.665,0,0,1,1.08,0L9.66,8.31c.6-.48,1.2-.84,1.92-1.32a15.621,15.621,0,0,1,2.04-.96l.72-4.68a2.412,2.412,0,0,1,.48-.96,1.363,1.363,0,0,1,.96-.36h5.65a1.936,1.936,0,0,1,1.08.36,2.613,2.613,0,0,1,.6.96l.72,4.68a15.621,15.621,0,0,1,2.04.96,17.171,17.171,0,0,1,1.8,1.32l4.44-1.92a1.694,1.694,0,0,1,1.08-.12,1.613,1.613,0,0,1,.84.72l2.76,4.92a1.166,1.166,0,0,1,.12,1.08,1.649,1.649,0,0,1-.6.96l-3.84,2.88v.12H29.71c0-.24-.12-.36-.12-.6s-.12-.36-.12-.6l4.56-3.36L31.99,8.91l-5.17,2.16A14.381,14.381,0,0,0,24.3,9.03a6.975,6.975,0,0,0-3-1.08l-.72-5.53h-4.2l-.72,5.53a12.767,12.767,0,0,0-3,1.08,8.213,8.213,0,0,0-2.52,2.04L4.97,8.91,2.93,12.39l4.56,3.36c-.12.48-.24,1.08-.36,1.56a7.379,7.379,0,0,0-.12,1.68,6.339,6.339,0,0,0,.12,1.56c.12.48.24,1.08.36,1.56L2.93,25.47l2.04,3.48,5.17-2.16a9.681,9.681,0,0,0,2.88,2.04,11.255,11.255,0,0,0,3.36,1.2c.24.24.24,8.05.24,8.05Z"/>
</svg>
