<svg id="user-friends" xmlns="http://www.w3.org/2000/svg" width="40" height="40" viewBox="0 0 40 40">
  <rect id="Rectangle_10001" data-name="Rectangle 10001" width="40" height="40" fill="none"/>
  <path id="Path_19639" data-name="Path 19639" d="M1.53,34.06a1.16,1.16,0,0,1-1.06-.47A1.16,1.16,0,0,1,0,32.53V30.18a4.414,4.414,0,0,1,.82-2.71,5.045,5.045,0,0,1,2.24-1.88,35.048,35.048,0,0,1,5.76-2.12,23.294,23.294,0,0,1,6-.71,23.349,23.349,0,0,1,6,.71,38.728,38.728,0,0,1,5.76,2.12,5.873,5.873,0,0,1,2.24,1.88,4.02,4.02,0,0,1,.59,2.59v2.35a1.16,1.16,0,0,1-.47,1.06,2.076,2.076,0,0,1-1.06.47c-.12.12-26.35.12-26.35.12Zm30.47,0a1.4,1.4,0,0,0,.59-.59,2.206,2.206,0,0,0,.24-.94V30.18a6.766,6.766,0,0,0-1.18-4.12,9.1,9.1,0,0,0-3.06-2.94c1.65.24,3.06.59,4.59.94,1.41.47,2.71.94,3.76,1.41a5.4,5.4,0,0,1,2.24,2A4.22,4.22,0,0,1,40,30.06v2.47a1.16,1.16,0,0,1-.47,1.06,2.076,2.076,0,0,1-1.06.47H32ZM14.71,19.12A6.331,6.331,0,0,1,10,17.24a6.263,6.263,0,0,1-1.88-4.71A6.137,6.137,0,0,1,10,7.82a6.3,6.3,0,0,1,4.71-1.88,6.137,6.137,0,0,1,4.71,1.88,6.3,6.3,0,0,1,1.88,4.71,6.316,6.316,0,0,1-1.88,4.71,6.748,6.748,0,0,1-4.71,1.88Zm15.88-6.71A6.426,6.426,0,0,1,24,19h-.71c-.24,0-.59-.12-.71-.12a8.485,8.485,0,0,0,1.65-2.82,10.925,10.925,0,0,0,.59-3.53A11.2,11.2,0,0,0,24.23,9a10.234,10.234,0,0,0-1.65-2.94,1.482,1.482,0,0,1,.71-.12H24a6.151,6.151,0,0,1,4.71,1.88,5.891,5.891,0,0,1,1.88,4.59ZM2.35,31.59H26.82V30.06a2.4,2.4,0,0,0-.35-1.29,3.491,3.491,0,0,0-1.18-1.06,30.039,30.039,0,0,0-5.29-2,25.1,25.1,0,0,0-10.82,0,22.675,22.675,0,0,0-5.29,2,2.643,2.643,0,0,0-1.18,1.06,4.063,4.063,0,0,0-.35,1.29v1.53ZM14.7,16.65a4.032,4.032,0,0,0,4.12-4.12,3.869,3.869,0,0,0-1.18-2.94A3.92,3.92,0,0,0,14.7,8.41a3.869,3.869,0,0,0-2.94,1.18,3.92,3.92,0,0,0-1.18,2.94,3.869,3.869,0,0,0,1.18,2.94A4.162,4.162,0,0,0,14.7,16.65Z"/>
</svg>
