<svg xmlns="http://www.w3.org/2000/svg" width="40" height="40" viewBox="0 0 40 40">
  <g id="user-lock" transform="translate(0 0)">
    <rect id="Rectangle_10003" data-name="Rectangle 10003" width="40" height="40" fill="none"/>
    <path id="Path_19641" data-name="Path 19641" d="M29.05,31.01a3.241,3.241,0,0,0,2.25-.95,3.2,3.2,0,0,0-2.25-5.45,3.241,3.241,0,0,0-2.25.95,3.139,3.139,0,0,0,0,4.5A3.475,3.475,0,0,0,29.05,31.01Zm0,6.27a6.459,6.459,0,0,0,2.96-.71,6.064,6.064,0,0,0,2.25-2.01,11.618,11.618,0,0,0-2.49-1.07,9.759,9.759,0,0,0-2.6-.36,9.027,9.027,0,0,0-2.6.36,11.137,11.137,0,0,0-2.49,1.07,6.064,6.064,0,0,0,2.25,2.01,5.229,5.229,0,0,0,2.72.71ZM10.71,13.02H23.02V8.76a5.857,5.857,0,0,0-1.78-4.38,6.005,6.005,0,0,0-4.38-1.89,5.857,5.857,0,0,0-4.38,1.78A6.1,6.1,0,0,0,10.7,8.65v4.38Zm8.64,25.44H5.15a2.967,2.967,0,0,1-2.13-.95,2.967,2.967,0,0,1-.95-2.13V16.09a2.967,2.967,0,0,1,.95-2.13,2.967,2.967,0,0,1,2.13-.95H8.23V8.75A8.261,8.261,0,0,1,10.72,2.6,8.13,8.13,0,0,1,16.87,0a8.505,8.505,0,0,1,8.64,8.64V12.9h3.08a3.26,3.26,0,0,1,3.08,3.08v3.31c-.36-.12-.71-.12-1.18-.24-.36,0-.83-.12-1.3-.12V15.97a.682.682,0,0,0-.12-.47.6.6,0,0,0-.47-.12H5.15a.682.682,0,0,0-.47.12c-.12.12-.12.24-.12.47V35.26a.682.682,0,0,0,.12.47c.12.12.24.12.47.12H17.93a4.559,4.559,0,0,0,.59,1.3,4.815,4.815,0,0,0,.83,1.3ZM29.17,40a8.136,8.136,0,0,1-6.15-2.6,8.587,8.587,0,0,1-2.6-6.15,8.151,8.151,0,0,1,2.6-6.15,8.587,8.587,0,0,1,6.15-2.6,8.151,8.151,0,0,1,6.15,2.6,8.587,8.587,0,0,1,2.6,6.15,8.151,8.151,0,0,1-2.6,6.15A8.8,8.8,0,0,1,29.17,40ZM4.56,21.18v0Z"/>
  </g>
</svg>
