<svg id="user" xmlns="http://www.w3.org/2000/svg" width="40" height="40" viewBox="0 0 40 40">
  <rect id="Rectangle_10009" data-name="Rectangle 10009" width="40" height="40" fill="none"/>
  <path id="Path_19647" data-name="Path 19647" d="M20.08,18.79a8.6,8.6,0,0,1-6.43-2.57,8.6,8.6,0,0,1-2.57-6.43,8.6,8.6,0,0,1,2.57-6.43A8.6,8.6,0,0,1,20.08.79a8.6,8.6,0,0,1,6.43,2.57,8.6,8.6,0,0,1,2.57,6.43,8.6,8.6,0,0,1-2.57,6.43A9.254,9.254,0,0,1,20.08,18.79ZM36.79,39.2H3.37A3.282,3.282,0,0,1,0,35.83V33.9a5.963,5.963,0,0,1,1.12-3.7,8.831,8.831,0,0,1,2.89-2.57,43.612,43.612,0,0,1,8.03-2.89,32.739,32.739,0,0,1,15.74,0,44.359,44.359,0,0,1,8.03,2.89,7.893,7.893,0,0,1,3.05,2.57,5.944,5.944,0,0,1,1.12,3.7v1.93a3.279,3.279,0,0,1-.96,2.41,2.7,2.7,0,0,1-2.25.96ZM3.37,35.83H36.79V33.74a2.429,2.429,0,0,0-.64-1.77c-.32-.64-.96-.96-1.61-1.45a37.381,37.381,0,0,0-7.39-2.73,37.058,37.058,0,0,0-7.23-.8,37.058,37.058,0,0,0-7.23.8A29.849,29.849,0,0,0,5.3,30.52a4.587,4.587,0,0,0-1.61,1.45,2.638,2.638,0,0,0-.64,1.77c.32,0,.32,2.09.32,2.09ZM20.08,15.42a5.323,5.323,0,0,0,4.02-1.61,5.345,5.345,0,0,0,1.61-4.02A5.323,5.323,0,0,0,24.1,5.77a5.323,5.323,0,0,0-4.02-1.61,5.323,5.323,0,0,0-4.02,1.61,5.323,5.323,0,0,0-1.61,4.02,5.323,5.323,0,0,0,1.61,4.02,6.023,6.023,0,0,0,4.02,1.61Z"/>
</svg>
