<svg id="users" xmlns="http://www.w3.org/2000/svg" width="40" height="40" viewBox="0 0 40 40">
  <rect id="Rectangle_10012" data-name="Rectangle 10012" width="40" height="40" fill="none"/>
  <path id="Path_19650" data-name="Path 19650" d="M30.34,23.78a4.526,4.526,0,0,1-3.22-1.36,4.468,4.468,0,0,1-1.36-3.22,4.526,4.526,0,0,1,1.36-3.22,4.468,4.468,0,0,1,3.22-1.36,4.526,4.526,0,0,1,3.22,1.36,4.468,4.468,0,0,1,1.36,3.22,4.526,4.526,0,0,1-1.36,3.22,4.055,4.055,0,0,1-3.22,1.36Zm-8.05,10.9a1.173,1.173,0,0,1-1.11-.5,1.516,1.516,0,0,1-.5-1.11v-.62a3.307,3.307,0,0,1,.5-1.98,2.9,2.9,0,0,1,1.49-1.24,14.724,14.724,0,0,1,3.71-1.24,20.243,20.243,0,0,1,3.96-.37,21.229,21.229,0,0,1,3.96.37,21.269,21.269,0,0,1,3.71,1.24,3.688,3.688,0,0,1,1.49,1.24,3.326,3.326,0,0,1,.5,1.98v.62a1.173,1.173,0,0,1-.5,1.11,1.516,1.516,0,0,1-1.11.5H22.29ZM15.48,18.95a6.767,6.767,0,0,1-6.93-6.93,6.767,6.767,0,0,1,6.93-6.93,6.767,6.767,0,0,1,6.93,6.93,6.625,6.625,0,0,1-1.98,4.95,6.7,6.7,0,0,1-4.95,1.98ZM1.61,34.67a1.173,1.173,0,0,1-1.11-.5A1.834,1.834,0,0,1,0,33.06v-2.6a4.2,4.2,0,0,1,.87-2.72,5.3,5.3,0,0,1,2.35-1.98,30.381,30.381,0,0,1,6.07-2.23,25.46,25.46,0,0,1,6.19-.74,14.594,14.594,0,0,1,2.35.12c.74.12,1.36.12,1.98.25v1.73a2.586,2.586,0,0,0-.62.37c-.12.12-.37.25-.5.37a6.763,6.763,0,0,0-1.61-.12H15.47a27.468,27.468,0,0,0-5.57.62,20.167,20.167,0,0,0-5.57,2.11,2.848,2.848,0,0,0-1.11.99,2.406,2.406,0,0,0-.5,1.49v1.61H16.34v2.6H1.61v-.25ZM15.48,16.34A4.238,4.238,0,0,0,19.82,12a4.238,4.238,0,0,0-4.34-4.34A4.238,4.238,0,0,0,11.14,12a4.108,4.108,0,0,0,1.24,3.1A4.66,4.66,0,0,0,15.48,16.34Z"/>
</svg>
