<svg id="user-check" xmlns="http://www.w3.org/2000/svg" width="40.01" height="40" viewBox="0 0 40.01 40">
  <rect id="Rectangle_10031" data-name="Rectangle 10031" width="40" height="40" fill="none"/>
  <path id="Path_19671" data-name="Path 19671" d="M1.67,34.93a1.248,1.248,0,0,1-1.15-.51,1.9,1.9,0,0,1-.51-1.15V30.71a4.513,4.513,0,0,1,.9-2.95,4.536,4.536,0,0,1,2.44-1.92A37.255,37.255,0,0,1,9.5,23.53a25.083,25.083,0,0,1,6.54-.77,24.414,24.414,0,0,1,3.08.13,19.4,19.4,0,0,1,2.82.51l-2.31,2.31a7.727,7.727,0,0,0-1.79-.13H15.92a27.452,27.452,0,0,0-6.03.64,36,36,0,0,0-5.51,2.05A2.288,2.288,0,0,0,3.1,29.42a2.987,2.987,0,0,0-.38,1.41V32.5H17.46l2.69,2.69H1.67v-.26Zm26.15.9a1.139,1.139,0,0,1-.64-.13c-.13-.13-.38-.26-.51-.38L22.05,30.7a1.151,1.151,0,0,1-.38-.9,1.185,1.185,0,0,1,.38-.9,1.366,1.366,0,0,1,.9-.38,1.2,1.2,0,0,1,.9.38l3.85,3.85L37.83,22.62a1.151,1.151,0,0,1,.9-.38,1.185,1.185,0,0,1,.9.38,1.366,1.366,0,0,1,.38.9,1.2,1.2,0,0,1-.38.9l-10.9,10.9c-.13.13-.38.26-.51.38,0,.13-.26.13-.38.13ZM16.03,18.52a7.007,7.007,0,0,1-7.18-7.18,7.007,7.007,0,0,1,7.18-7.18,7.007,7.007,0,0,1,7.18,7.18,6.866,6.866,0,0,1-2.05,5.13A6.673,6.673,0,0,1,16.03,18.52Zm0-2.69a4.375,4.375,0,0,0,4.48-4.48,4.222,4.222,0,0,0-1.28-3.2,4.274,4.274,0,0,0-3.2-1.28,4.222,4.222,0,0,0-3.2,1.28,4.274,4.274,0,0,0-1.28,3.2,4.375,4.375,0,0,0,4.48,4.48Z"/>
</svg>
