<svg id="usps" xmlns="http://www.w3.org/2000/svg" width="40" height="40" viewBox="0 0 40 40">
  <rect id="Rectangle_10013" data-name="Rectangle 10013" width="40" height="40" fill="none"/>
  <path id="Path_19651" data-name="Path 19651" d="M20.06,39.68a20.436,20.436,0,0,1-7.77-1.5,19.951,19.951,0,0,1-6.27-4.26,19.785,19.785,0,0,1-4.26-6.27,20,20,0,0,1-1.5-7.77,18.051,18.051,0,0,1,1.13-6.39A21.5,21.5,0,0,1,4.4,7.97L.38,3.95a1.415,1.415,0,0,1-.38-1,1.142,1.142,0,0,1,.38-.88,1.37,1.37,0,0,1,.88-.38,1.648,1.648,0,0,1,1,.38L37.87,37.68a1.37,1.37,0,0,1,.38.88,1.142,1.142,0,0,1-.38.88.937.937,0,0,1-.88.5,1.142,1.142,0,0,1-.88-.38l-3.89-3.89a19.025,19.025,0,0,1-5.64,3.01,22.7,22.7,0,0,1-6.52,1ZM17.3,36.92a12.916,12.916,0,0,1,4.14-4.76A15.163,15.163,0,0,1,26.2,29.9L6.15,9.72a19.4,19.4,0,0,0-2.51,4.76,18.725,18.725,0,0,0-.75,5.39,17.609,17.609,0,0,0,.75,5.14A15.85,15.85,0,0,0,5.77,29.4a18.334,18.334,0,0,1,4.26-1.76,17.578,17.578,0,0,1,4.51-.5,19.649,19.649,0,0,1,2.76.25,12.732,12.732,0,0,1,2.38.63,9.972,9.972,0,0,0-1.38,1,10.51,10.51,0,0,0-1.25,1,3.727,3.727,0,0,0-1.25-.13H14.55a17.142,17.142,0,0,0-3.64.38,10.173,10.173,0,0,0-3.39,1.38,14.426,14.426,0,0,0,4.51,3.51,16.469,16.469,0,0,0,5.27,1.76Zm19.18-5.89L34.6,29.15a19.546,19.546,0,0,0,2.01-4.26,16.48,16.48,0,0,0,.75-5.01A16.29,16.29,0,0,0,32.35,7.72,16.454,16.454,0,0,0,20.19,2.71a15.377,15.377,0,0,0-4.89.75,19.723,19.723,0,0,0-4.39,2.01L9.03,3.59A20.466,20.466,0,0,1,14.3.96,18.569,18.569,0,0,1,20.19.08a20.436,20.436,0,0,1,7.77,1.5,19.951,19.951,0,0,1,6.27,4.26,19.785,19.785,0,0,1,4.26,6.27,20,20,0,0,1,1.5,7.77,18.029,18.029,0,0,1-.88,5.89,34.54,34.54,0,0,1-2.63,5.27ZM21.31,15.86,14.54,9.09a5.9,5.9,0,0,1,4.89,1.88,6.055,6.055,0,0,1,1.88,4.89ZM14.67,22.5a6.153,6.153,0,0,1-4.76-2.01A6.633,6.633,0,0,1,7.9,15.73a5.976,5.976,0,0,1,.75-3.01,6.693,6.693,0,0,1,1.88-2.26l9.53,9.4a6,6,0,0,1-2.38,1.88,5.976,5.976,0,0,1-3.01.75Zm15.8,2.51L24.7,19.24a4.992,4.992,0,0,1,1.76-3.26,5.23,5.23,0,0,1,7.39,7.39A5.424,5.424,0,0,1,30.46,25Z"/>
</svg>
