<svg id="user-shield" xmlns="http://www.w3.org/2000/svg" width="40" height="40" viewBox="0 0 40 40">
  <rect id="Rectangle_10006" data-name="Rectangle 10006" width="40" height="40" fill="none"/>
  <path id="Path_19644" data-name="Path 19644" d="M19.87,21.28a6.568,6.568,0,0,1-6.79-6.79A6.568,6.568,0,0,1,19.87,7.7a6.568,6.568,0,0,1,6.79,6.79,6.568,6.568,0,0,1-6.79,6.79Zm0-2.56a3.938,3.938,0,0,0,4.1-4.1,4.1,4.1,0,1,0-8.2,0,4.05,4.05,0,0,0,1.15,2.95A4.663,4.663,0,0,0,19.87,18.72Zm0-16.15L6.54,7.56V17.82a20.7,20.7,0,0,0,.9,6.28,22.851,22.851,0,0,0,2.69,5.64,21.088,21.088,0,0,1,4.74-1.79A22.73,22.73,0,0,1,20,27.31a22.73,22.73,0,0,1,5.13.64,21.207,21.207,0,0,1,4.74,1.79,20.973,20.973,0,0,0,2.69-5.64,20.7,20.7,0,0,0,.9-6.28V7.56c-.26,0-13.59-5-13.59-5Zm0,27.43a16.109,16.109,0,0,0-4.23.51,20.559,20.559,0,0,0-3.97,1.41,22.7,22.7,0,0,0,3.72,3.33,15.231,15.231,0,0,0,4.36,2.18,17.116,17.116,0,0,0,4.36-2.18,18.552,18.552,0,0,0,3.72-3.33,15.614,15.614,0,0,0-3.85-1.41,14.544,14.544,0,0,0-4.1-.51Zm0,10h-.51c-.13,0-.38-.13-.51-.13a21.31,21.31,0,0,1-10.9-8.59A23.794,23.794,0,0,1,3.98,17.95V8.21a3.848,3.848,0,0,1,.64-1.92A3.719,3.719,0,0,1,6.16,5.01L18.85.26A3.677,3.677,0,0,1,20,0a3.677,3.677,0,0,1,1.15.26L33.84,5a3.041,3.041,0,0,1,1.54,1.28,3.161,3.161,0,0,1,.64,1.92v9.74a23.572,23.572,0,0,1-3.97,13.33,21.27,21.27,0,0,1-10.9,8.59.755.755,0,0,1-.51.13h-.77Z"/>
</svg>
