<svg id="user-slash" xmlns="http://www.w3.org/2000/svg" width="40" height="40" viewBox="0 0 40 40">
  <rect id="Rectangle_10007" data-name="Rectangle 10007" width="40" height="40" fill="none"/>
  <path id="Path_19645" data-name="Path 19645" d="M37.64,39.61l-4.59-4.59H6.3a1.285,1.285,0,0,1-1.18-.52,2.366,2.366,0,0,1-.52-1.18V30.7a4.83,4.83,0,0,1,.92-3.02,7.252,7.252,0,0,1,2.36-2.1,43.45,43.45,0,0,1,6.03-2.23,30.914,30.914,0,0,1,5.9-.92h.79L.39,2.36A1.408,1.408,0,0,1,0,1.44,1.518,1.518,0,0,1,.39.39,1.448,1.448,0,0,1,1.31,0,1.733,1.733,0,0,1,2.36.39L39.6,37.63a1.428,1.428,0,0,1,.39.92,1.2,1.2,0,0,1-.39.92.986.986,0,0,1-.92.52,1.484,1.484,0,0,1-1.05-.39ZM7.35,32.27H30.3l-6.95-6.95c-.39,0-.79-.13-1.18-.13H20.99a29.628,29.628,0,0,0-5.9.66,21.908,21.908,0,0,0-5.9,2.23,3.747,3.747,0,0,0-1.31,1.18,2.19,2.19,0,0,0-.52,1.44v1.57ZM34.5,25.71a4.326,4.326,0,0,1,1.7,1.44,4.007,4.007,0,0,1,.66,2.1v.26l-4.72-4.72c.39.13.79.26,1.18.39a4.677,4.677,0,0,0,1.18.52Zm-9.7-8.39-2.1-2.1a3.868,3.868,0,0,0,2.1-1.7,4.762,4.762,0,0,0,.79-2.62A4.478,4.478,0,0,0,21,6.31a4.659,4.659,0,0,0-2.62.79,5.151,5.151,0,0,0-1.7,2.1l-2.1-1.97a5.9,5.9,0,0,1,2.75-2.62A6,6,0,0,1,21,3.56a7.177,7.177,0,0,1,7.35,7.35,6.913,6.913,0,0,1-.92,3.67,6.619,6.619,0,0,1-2.62,2.75Zm5.51,14.95H30.3Z"/>
</svg>
