<svg xmlns="http://www.w3.org/2000/svg" width="40" height="40.01" viewBox="0 0 40 40.01">
  <g id="user-injured" transform="translate(0 0.01)">
    <rect id="Rectangle_10002" data-name="Rectangle 10002" width="40" height="40" fill="none"/>
    <path id="Path_19640" data-name="Path 19640" d="M20,14.83a7.085,7.085,0,0,1-5.3-2.12,7.085,7.085,0,0,1-2.12-5.3,7.085,7.085,0,0,1,2.12-5.3A7.085,7.085,0,0,1,20-.01a7.085,7.085,0,0,1,5.3,2.12,7.085,7.085,0,0,1,2.12,5.3,7.085,7.085,0,0,1-2.12,5.3A7.659,7.659,0,0,1,20,14.83Zm0-2.78a4.424,4.424,0,0,0,3.31-1.32,4.372,4.372,0,0,0,1.32-3.31,4.424,4.424,0,0,0-1.32-3.31A4.372,4.372,0,0,0,20,2.79a4.424,4.424,0,0,0-3.31,1.32,4.372,4.372,0,0,0-1.32,3.31,4.424,4.424,0,0,0,1.32,3.31A4.372,4.372,0,0,0,20,12.05ZM3.44,40V27.02a4.862,4.862,0,0,1,.93-3.05,7.266,7.266,0,0,1,2.38-2.12,37.226,37.226,0,0,1,6.23-2.25A25.072,25.072,0,0,1,20,18.67a24.662,24.662,0,0,1,7.02.93,35.888,35.888,0,0,1,6.09,2.25,6.592,6.592,0,0,1,2.52,2.12,4.844,4.844,0,0,1,.93,3.05v9.4a3.636,3.636,0,0,1-3.44,3.44H15.63a5.04,5.04,0,1,1,0-10.08h6.62l3.58-7.68a21.263,21.263,0,0,0-3.05-.53c-.93,0-1.99-.13-2.78-.13a25.9,25.9,0,0,0-6.62.79,28.791,28.791,0,0,0-5.43,1.99,4.89,4.89,0,0,0-1.32,1.06,3.837,3.837,0,0,0-.53,1.59V39.98H3.45Zm12.19-2.78h3.18l2.12-4.5H15.5a2.249,2.249,0,0,0-1.59,3.84,2.772,2.772,0,0,0,1.72.66Zm6.23,0H33.12a.809.809,0,0,0,.53-.13c.13-.13.13-.26.13-.53v-9.4a2.531,2.531,0,0,0-.53-1.59,3.413,3.413,0,0,0-1.32-1.06,4.507,4.507,0,0,0-1.59-.66,7.766,7.766,0,0,0-1.85-.66c.13-.26-6.62,14.04-6.62,14.04Z"/>
  </g>
</svg>
