<svg xmlns="http://www.w3.org/2000/svg" width="40.03" height="40" viewBox="0 0 40.03 40">
  <g id="user-cog" transform="translate(0.01)">
    <rect id="Rectangle_10033" data-name="Rectangle 10033" width="40" height="40" fill="none"/>
    <path id="Path_19673" data-name="Path 19673" d="M16.18,18.12a7.075,7.075,0,0,1-7.25-7.25A6.957,6.957,0,0,1,11,5.69a6.9,6.9,0,0,1,5.18-2.07,7.075,7.075,0,0,1,7.25,7.25,6.762,6.762,0,0,1-2.07,5.18A7.431,7.431,0,0,1,16.18,18.12ZM1.68,34.56a1.267,1.267,0,0,1-1.17-.52,2.336,2.336,0,0,1-.52-1.17V30.28A4.769,4.769,0,0,1,.9,27.3a5.554,5.554,0,0,1,2.46-2.07A34.356,34.356,0,0,1,9.7,22.9a27.009,27.009,0,0,1,6.6-.78h1.04c-.13.39-.26.91-.39,1.29s-.13.91-.26,1.42H16.3a30.357,30.357,0,0,0-6.21.65,21.06,21.06,0,0,0-5.7,2.2A2.273,2.273,0,0,0,3.1,28.85a2.61,2.61,0,0,0-.39,1.42v1.55H16.69a6.1,6.1,0,0,0,.52,1.42,4.156,4.156,0,0,0,.78,1.29H1.68ZM16.18,15.4a4.334,4.334,0,0,0,3.24-1.29,4.281,4.281,0,0,0,1.29-3.24,4.319,4.319,0,0,0-1.29-3.24,4.267,4.267,0,0,0-3.24-1.29,4.319,4.319,0,0,0-3.24,1.29,4.267,4.267,0,0,0-1.29,3.24,4.319,4.319,0,0,0,1.29,3.24,4.585,4.585,0,0,0,3.24,1.29ZM31.2,30.8a3.8,3.8,0,0,0,2.85-1.17,4.01,4.01,0,0,0,1.17-2.85,3.8,3.8,0,0,0-1.17-2.85,4.01,4.01,0,0,0-2.85-1.17,3.8,3.8,0,0,0-2.85,1.17,4.01,4.01,0,0,0-1.17,2.85A3.995,3.995,0,0,0,31.2,30.8Zm-1.55,2.46a9.827,9.827,0,0,1-1.81-.65,5.908,5.908,0,0,1-1.55-1.17l-2.07.65H23.7c-.13-.13-.26-.13-.39-.39l-.52-.91c-.13-.13-.13-.26-.13-.52,0-.13.13-.39.26-.39l1.81-1.55a6.528,6.528,0,0,1-.26-1.55,6.438,6.438,0,0,1,.26-1.68l-1.68-1.55c-.13-.13-.26-.26-.26-.39a.782.782,0,0,1,.13-.52l.52-.91.39-.39a.4.4,0,0,1,.52,0l2.07.65a8.326,8.326,0,0,1,1.55-1.17,7.593,7.593,0,0,1,1.81-.65l.39-2.33a.986.986,0,0,1,.26-.52c.13-.13.26-.13.52-.13h1.04c.26,0,.39,0,.52.13a.675.675,0,0,1,.26.52l.26,2.33a9.827,9.827,0,0,1,1.81.65,5.908,5.908,0,0,1,1.55,1.17l2.07-.65a.4.4,0,0,1,.52,0c.13.13.26.13.39.39l.52.91c.13.13.13.26.13.52,0,.13-.13.26-.26.39L37.95,25.1a6.576,6.576,0,0,1,.26,1.68,4.781,4.781,0,0,1-.26,1.55l1.81,1.55a.675.675,0,0,1,.26.52.782.782,0,0,1-.13.52l-.52.91-.39.39c-.13.13-.26.13-.52,0l-2.07-.65a8.326,8.326,0,0,1-1.55,1.17,7.593,7.593,0,0,1-1.81.65l-.26,2.33a.986.986,0,0,1-.26.52c-.13.13-.26.13-.52.13H30.95a.782.782,0,0,1-.52-.13.675.675,0,0,1-.26-.52,9.279,9.279,0,0,1-.52-2.46Z"/>
  </g>
</svg>
