<svg id="user-minus" xmlns="http://www.w3.org/2000/svg" width="40" height="40" viewBox="0 0 40 40">
  <rect id="Rectangle_10004" data-name="Rectangle 10004" width="40" height="40" fill="none"/>
  <path id="Path_19642" data-name="Path 19642" d="M30.54,16.71a1.089,1.089,0,0,1-.84-.36,1.363,1.363,0,0,1-.36-.96,1.23,1.23,0,0,1,1.2-1.2H38.8a1.089,1.089,0,0,1,.84.36,1.3,1.3,0,0,1,.36.84,1.23,1.23,0,0,1-1.2,1.2H30.54v.12Zm-15.57,2.4A6.561,6.561,0,0,1,8.26,12.4a6.561,6.561,0,0,1,6.71-6.71,6.561,6.561,0,0,1,6.71,6.71,6.4,6.4,0,0,1-1.92,4.79,6.888,6.888,0,0,1-4.79,1.92ZM1.56,34.31a1.17,1.17,0,0,1-1.08-.48A1.787,1.787,0,0,1,0,32.75v-2.4A4.619,4.619,0,0,1,.84,27.6,4.235,4.235,0,0,1,3,25.68a37.571,37.571,0,0,1,6.11-2.16,23.32,23.32,0,0,1,11.5,0,37.571,37.571,0,0,1,6.11,2.16A5.933,5.933,0,0,1,29,27.6a5.334,5.334,0,0,1,.84,2.75v2.4a1.17,1.17,0,0,1-.48,1.08,1.787,1.787,0,0,1-1.08.48H1.58Zm.96-2.51H27.43V30.24a1.8,1.8,0,0,0-.48-1.32c-.24-.48-.72-.72-1.2-1.08a35.306,35.306,0,0,0-5.51-2.04,25.325,25.325,0,0,0-5.27-.6,27.468,27.468,0,0,0-5.39.6,24.023,24.023,0,0,0-5.51,2.04,2.627,2.627,0,0,0-1.2,1.08,2.735,2.735,0,0,0-.36,1.32V31.8ZM14.97,16.59a4.1,4.1,0,0,0,4.19-4.19,3.958,3.958,0,0,0-1.2-2.99,4.011,4.011,0,0,0-2.99-1.2,3.958,3.958,0,0,0-2.99,1.2,4.011,4.011,0,0,0-1.2,2.99,3.958,3.958,0,0,0,1.2,2.99A4.482,4.482,0,0,0,14.97,16.59Z"/>
</svg>
