<svg id="users-slash" xmlns="http://www.w3.org/2000/svg" width="40" height="40" viewBox="0 0 40 40">
  <rect id="Rectangle_10011" data-name="Rectangle 10011" width="40" height="40" fill="none"/>
  <path id="Path_19649" data-name="Path 19649" d="M33.18,18.88c1.99-3.11,1.12-3.73-.87-3.73H30.2s-.12-.12-.87.62c-.87.37-2.86.5-2.86.62,0,.37,5.35-.25,6.72,0,.75.12-.12,1.62-.37,2.49,0,.37.25.25.37,0ZM24.6,20.62a50.327,50.327,0,0,1,7.83-1.99c.37-.25-.37-.5-1.99-.5-3.98.12-10.45,2.86-13.18,4.1L14.9,15.14H29.95C29.7,13.03,18.26,13.4,4.21,13.4L.1,32.19c14.92-7.46,19.77-9.95,24.5-11.57ZM5.33,7.81c19.28,4.1,25.12,4.97,25.37,6.47,2.74,0,3.48,0,3.98.5C36.3,16.27,33.56,20,33.56,20,33.19,20.25,2.6,32.19,2.6,32.19H34.81l5.1-24.37H5.33Z"/>
</svg>
