<svg id="utensils" xmlns="http://www.w3.org/2000/svg" width="40" height="40" viewBox="0 0 40 40">
  <rect id="Rectangle_10014" data-name="Rectangle 10014" width="40" height="40" fill="none"/>
  <path id="Path_19652" data-name="Path 19652" d="M32.92,39.9a1.265,1.265,0,0,1-1.23-1.23V23.61h-2.2a3.362,3.362,0,0,1-3.18-3.18V9.16a9.285,9.285,0,0,1,2.2-6.25A8.466,8.466,0,0,1,34.39.09V38.55a1.106,1.106,0,0,1-.37.86,1.685,1.685,0,0,1-1.1.49Zm-20.09,0a1.265,1.265,0,0,1-1.23-1.23V21.4a6.991,6.991,0,0,1-4.29-2.45A6.74,6.74,0,0,1,5.6,14.17V1.44A1.106,1.106,0,0,1,5.97.58,1.125,1.125,0,0,1,6.83.21a1.106,1.106,0,0,1,.86.37,1.125,1.125,0,0,1,.37.86V14.18h3.43V1.44a1.106,1.106,0,0,1,.37-.86,1.338,1.338,0,0,1,.86-.37,1.106,1.106,0,0,1,.86.37,1.125,1.125,0,0,1,.37.86V14.18h3.43V1.44a1.106,1.106,0,0,1,.37-.86,1.338,1.338,0,0,1,.86-.37,1.106,1.106,0,0,1,.86.37,1.125,1.125,0,0,1,.37.86V14.18a7.378,7.378,0,0,1-1.71,4.78,7.609,7.609,0,0,1-4.29,2.45V38.8a1.106,1.106,0,0,1-.37.86c.12.12-.24.24-.61.24Z"/>
</svg>
