<svg id="venus" xmlns="http://www.w3.org/2000/svg" width="40" height="40.01" viewBox="0 0 40 40.01">
  <rect id="Rectangle_10015" data-name="Rectangle 10015" width="40" height="40" fill="none"/>
  <path id="Path_19653" data-name="Path 19653" d="M18.39,25.4a12.469,12.469,0,0,1-8.03-4.23A12.049,12.049,0,0,1,7.15,12.7a12.44,12.44,0,0,1,3.8-9.05A12.356,12.356,0,0,1,20,0a12.34,12.34,0,0,1,9.05,3.65,12.479,12.479,0,0,1,3.8,9.05,12.049,12.049,0,0,1-3.21,8.47,12.424,12.424,0,0,1-8.03,4.23v6.72h3.36a1.324,1.324,0,0,1,1.02.44,1.666,1.666,0,0,1,.44,1.17,1.5,1.5,0,0,1-1.46,1.46H21.32v3.36a1.324,1.324,0,0,1-.44,1.02,1.666,1.666,0,0,1-1.17.44,1.5,1.5,0,0,1-1.46-1.46V35.19H14.89a1.324,1.324,0,0,1-1.02-.44,1.586,1.586,0,0,1-.44-1.02,1.5,1.5,0,0,1,1.46-1.46h3.5V25.41Zm1.46-2.92a9.463,9.463,0,0,0,9.63-9.63,9.463,9.463,0,0,0-9.63-9.63,9.463,9.463,0,0,0-9.63,9.63,9.385,9.385,0,0,0,2.77,6.86A9.978,9.978,0,0,0,19.85,22.48Z"/>
</svg>
