<svg id="vials" xmlns="http://www.w3.org/2000/svg" width="40" height="40" viewBox="0 0 40 40">
  <rect id="Rectangle_10017" data-name="Rectangle 10017" width="40" height="40" fill="none"/>
  <path id="Path_19655" data-name="Path 19655" d="M3.24,35.52a2.829,2.829,0,0,1-2.03-.9,2.829,2.829,0,0,1-.9-2.03V23.45a2.829,2.829,0,0,1,.9-2.03,2.829,2.829,0,0,1,2.03-.9h.79V12.28H3.92a2.894,2.894,0,0,1-1.24-.79,2.254,2.254,0,0,1-.45-1.47V6.86A2.323,2.323,0,0,1,4.6,4.49H14.87a2.323,2.323,0,0,1,2.37,2.37V9.91a2.272,2.272,0,0,1-.45,1.47,1.855,1.855,0,0,1-1.24.79h-.23v8.24h9.37V12.17h-.11a2.894,2.894,0,0,1-1.24-.79,2.254,2.254,0,0,1-.45-1.47V6.86a2.323,2.323,0,0,1,2.37-2.37H35.53A2.323,2.323,0,0,1,37.9,6.86V9.91a2.272,2.272,0,0,1-.45,1.47,1.855,1.855,0,0,1-1.24.79h-.23v8.24h.79a3.086,3.086,0,0,1,2.93,2.93v9.14a3.086,3.086,0,0,1-2.93,2.93l-33.51.11h0ZM25.25,10.01H35.52V6.85H25.25Zm-20.65,0H14.87V6.85H4.6v3.16ZM27.17,20.39h6.54V12.27H27.17v8.12Zm-20.76,0h6.54V12.27H6.41ZM3.25,33.14H36.88a.688.688,0,0,0,.45-.11c.11-.11.11-.23.11-.45V23.44a.688.688,0,0,0-.11-.45c-.11-.11-.23-.11-.45-.11H3.24a.688.688,0,0,0-.45.11c-.11.11-.11.23-.11.45v9.14a.688.688,0,0,0,.11.45c.11,0,.34.11.45.11ZM4.6,10.01v0Zm20.65,0v0ZM2.68,33.15v0Z"/>
</svg>
