<svg xmlns="http://www.w3.org/2000/svg" width="40" height="40.02" viewBox="0 0 40 40.02">
  <g id="vial" transform="translate(0 0.02)">
    <rect id="Rectangle_10016" data-name="Rectangle 10016" width="40" height="40" fill="none"/>
    <path id="Path_19654" data-name="Path 19654" d="M20,40a9.562,9.562,0,0,1-9.68-9.68V11.21a3.667,3.667,0,0,1-2.68-1.15A3.666,3.666,0,0,1,6.49,7.38V3.81A3.667,3.667,0,0,1,7.64,1.13,3.231,3.231,0,0,1,10.19-.02H29.68a3.667,3.667,0,0,1,2.68,1.15,3.667,3.667,0,0,1,1.15,2.68V7.38a3.667,3.667,0,0,1-1.15,2.68,3.689,3.689,0,0,1-2.68,1.15V30.45a9.67,9.67,0,0,1-2.93,6.75A9.337,9.337,0,0,1,20,40ZM9.68,8.54H30.19a.755.755,0,0,0,.51-.13c.13-.13.13-.25.13-.51V3.31a.755.755,0,0,0-.13-.51c-.13-.13-.25-.13-.51-.13H9.68a.755.755,0,0,0-.51.13c-.13.13-.13.25-.13.51V7.9a.755.755,0,0,0,.13.51.935.935,0,0,0,.51.13ZM20,37.33a6.579,6.579,0,0,0,4.59-1.66,7.506,7.506,0,0,0,2.42-4.08h-5.1a1.163,1.163,0,0,1-.89-.38,1.393,1.393,0,0,1-.38-.89,1.3,1.3,0,0,1,1.27-1.27h5.22V25.36H21.91a1.163,1.163,0,0,1-.89-.38,1.393,1.393,0,0,1-.38-.89,1.3,1.3,0,0,1,1.27-1.27h5.22V19.13H21.91a1.163,1.163,0,0,1-.89-.38,1.393,1.393,0,0,1-.38-.89,1.3,1.3,0,0,1,1.27-1.27h5.22V11.75H12.86V30.73A6.369,6.369,0,0,0,14.9,35.7,9.358,9.358,0,0,0,20,37.36ZM9.04,8.54v0Z"/>
  </g>
</svg>
