<svg id="video-slash" xmlns="http://www.w3.org/2000/svg" width="40" height="40" viewBox="0 0 40 40">
  <rect id="Rectangle_10015" data-name="Rectangle 10015" width="40" height="40" fill="none"/>
  <path id="Path_19653" data-name="Path 19653" d="M38.57,26.93l-5.82-5.82v5.08l-2.6-2.6V6.88a.79.79,0,0,0-.12-.5c-.12-.12-.25-.12-.5-.12H12.94l-2.6-2.6H29.53a3.1,3.1,0,0,1,2.23.99,3.1,3.1,0,0,1,.99,2.23V17.15l5.82-5.82a.83.83,0,0,1,.87-.25.679.679,0,0,1,.5.74V26.18a.67.67,0,0,1-.5.74.6.6,0,0,1-.87,0ZM37.08,39.18.44,2.55a1.127,1.127,0,0,1-.37-.87A1.127,1.127,0,0,1,.44.81,1.628,1.628,0,0,1,1.43.44,1.127,1.127,0,0,1,2.3.81L38.94,37.45a1.208,1.208,0,0,1,0,1.74,1.331,1.331,0,0,1-.87.37,1.628,1.628,0,0,1-.99-.37ZM5.27,3.66l2.6,2.6H5.02a.79.79,0,0,0-.5.12c0,.12-.12.37-.12.5V31.39a.79.79,0,0,0,.12.5c.12.13.25.12.5.12H29.53a.79.79,0,0,0,.5-.12c.13-.12.12-.25.12-.5V28.67l2.6,2.6v.5a3.3,3.3,0,0,1-.99,2.1,2.983,2.983,0,0,1-2.23.87H5.02a3.1,3.1,0,0,1-2.23-.99,3.1,3.1,0,0,1-.99-2.23V6.88a2.983,2.983,0,0,1,.87-2.23,2.833,2.833,0,0,1,2.1-.99Z"/>
</svg>
