<svg id="video" xmlns="http://www.w3.org/2000/svg" width="40" height="40" viewBox="0 0 40 40">
  <rect id="Rectangle_10016" data-name="Rectangle 10016" width="40" height="40" fill="none"/>
  <path id="Path_19654" data-name="Path 19654" d="M3.44,36.17a3.262,3.262,0,0,1-2.33-1.03A3.206,3.206,0,0,1,.08,32.81V7.19A3.262,3.262,0,0,1,1.11,4.86,3.206,3.206,0,0,1,3.44,3.83H29.06a3.262,3.262,0,0,1,2.33,1.03,3.206,3.206,0,0,1,1.03,2.33V17.93l6.08-6.08a.862.862,0,0,1,.91-.26.713.713,0,0,1,.52.78V27.38a.713.713,0,0,1-.52.78c-.39.13-.65.13-.91-.26l-6.08-6.08V32.56a3.262,3.262,0,0,1-1.03,2.33,3.206,3.206,0,0,1-2.33,1.03c0,.26-25.62.26-25.62.26Zm0-2.72H29.06a.782.782,0,0,0,.52-.13c.13-.13.13-.26.13-.52V7.19a.782.782,0,0,0-.13-.52.782.782,0,0,0-.52-.13H3.44a.782.782,0,0,0-.52.13.782.782,0,0,0-.13.52V32.81a.782.782,0,0,0,.13.52c.13.13.26.13.52.13Zm-.65,0v.01Z"/>
</svg>
