<svg id="vimeo" xmlns="http://www.w3.org/2000/svg" width="40" height="40" viewBox="0 0 40 40">
  <rect id="Rectangle_10017" data-name="Rectangle 10017" width="40" height="40" fill="none"/>
  <path id="Path_19655" data-name="Path 19655" d="M36,0H4A3.949,3.949,0,0,0,0,4V36a3.949,3.949,0,0,0,4,4H36a3.949,3.949,0,0,0,4-4V4a3.949,3.949,0,0,0-4-4ZM33.63,13.25c-.13,2.75-2.13,6.63-5.87,11.5-3.88,5.13-7.25,7.63-10,7.63-1.75,0-3.12-1.5-4.25-4.63C11.26,19.38,10.26,14.5,8.38,14.5a8.851,8.851,0,0,0-2.25,1.38L4.76,14.13c3.38-2.88,6.5-6.12,8.5-6.38,2.25-.25,3.62,1.38,4.12,4.62,1.88,11.75,2.63,13.5,6,8.12a11.345,11.345,0,0,0,2-4.38c.25-3-2.37-2.75-4.12-2,1.38-4.62,4.12-6.88,8.12-6.75,3,.25,4.5,2.13,4.25,5.88h0Z"/>
</svg>
