<svg id="virus" xmlns="http://www.w3.org/2000/svg" width="40" height="40" viewBox="0 0 40 40">
  <rect id="Rectangle_10018" data-name="Rectangle 10018" width="40" height="40" fill="none"/>
  <path id="Path_19656" data-name="Path 19656" d="M18.47,39.87a1.891,1.891,0,0,1-.76-.25c-.25-.13-.25-.38-.25-.64a1.843,1.843,0,0,1,.25-.76c.25-.25.38-.25.76-.25h.64V33.51a11.374,11.374,0,0,1-4.33-1.15,12.649,12.649,0,0,1-3.57-2.17L8.15,33.25l.51.51a.96.96,0,0,1,.25.64,1.843,1.843,0,0,1-.25.76.939.939,0,0,1-.76.25,1.109,1.109,0,0,1-.76-.38L4.97,32.86a.939.939,0,0,1-.25-.76,1.891,1.891,0,0,1,.25-.76.705.705,0,0,1,.64-.25,1.09,1.09,0,0,1,.76.38l.38.38,3.06-3.06a17.955,17.955,0,0,1-2.17-3.57,14.61,14.61,0,0,1-1.02-4.2H2.04v.64a1.891,1.891,0,0,1-.25.76c-.13.13-.38.13-.76.13a1.891,1.891,0,0,1-.76-.25c-.25-.25-.25-.38-.25-.76V18.36a1.891,1.891,0,0,1,.25-.76,1.57,1.57,0,0,1,.76-.13,1.891,1.891,0,0,1,.76.25c.25.25.25.38.25.76v.64H6.5a14.529,14.529,0,0,1,1.02-4.2,14.776,14.776,0,0,1,2.17-3.57L6.63,8.29l-.38.38a.939.939,0,0,1-.76.25,1.891,1.891,0,0,1-.76-.25.939.939,0,0,1-.25-.76,1.891,1.891,0,0,1,.25-.76L7.02,4.86a.939.939,0,0,1,.76-.25,1.891,1.891,0,0,1,.76.25c.25.13.25.38.25.64a.709.709,0,0,1-.38.64l-.38.38,3.06,3.06a17.955,17.955,0,0,1,3.57-2.17,14.61,14.61,0,0,1,4.2-1.02V2.04h-.51a1.891,1.891,0,0,1-.76-.25c-.13-.13-.13-.38-.13-.76a1.4,1.4,0,0,1,.25-.76c.25-.25.38-.25.76-.25h3.18a1.891,1.891,0,0,1,.76.25,1.57,1.57,0,0,1,.13.76c0,.25,0,.64-.25.76-.25.25-.38.25-.76.25h-.64V6.5a12.684,12.684,0,0,1,4.2,1.02,14.776,14.776,0,0,1,3.57,2.17l3.06-3.06-.38-.38c-.25-.25-.38-.38-.38-.64a1.843,1.843,0,0,1,.25-.76.939.939,0,0,1,.76-.25,1.891,1.891,0,0,1,.76.25l2.55,2.29a.705.705,0,0,1,.25.64.709.709,0,0,1-.38.64.939.939,0,0,1-.76.25,1.109,1.109,0,0,1-.76-.38l-.38-.38-2.93,3.18a15.8,15.8,0,0,1,2.17,3.69,14.61,14.61,0,0,1,1.02,4.2h4.46v-.64a1.891,1.891,0,0,1,.25-.76c.25-.25.38-.25.76-.25a1.891,1.891,0,0,1,.76.25c.25.25.25.38.25.76v3.18a1.891,1.891,0,0,1-.25.76.939.939,0,0,1-.76.25,1.891,1.891,0,0,1-.76-.25c-.25-.25-.25-.38-.25-.76v-.64H33.51a14.529,14.529,0,0,1-1.02,4.2,14.776,14.776,0,0,1-2.17,3.57l3.06,3.06.38-.38c.25-.25.38-.25.76-.25a1.891,1.891,0,0,1,.76.25c.25.25.25.38.25.76a1.891,1.891,0,0,1-.25.76l-2.29,2.29a.939.939,0,0,1-.76.25,1.891,1.891,0,0,1-.76-.25.939.939,0,0,1-.25-.76,1.036,1.036,0,0,1,.25-.64l.38-.38L28.79,30.3a12.74,12.74,0,0,1-3.57,2.17,19.74,19.74,0,0,1-4.33,1.15v4.33h.64a1.891,1.891,0,0,1,.76.25c.25.25.25.38.25.76a1.891,1.891,0,0,1-.25.76c-.25.25-.38.25-.76.25a24.1,24.1,0,0,0-3.06-.13ZM20,30.83a10,10,0,0,0,7.64-3.18,10.374,10.374,0,0,0,3.18-7.64,10.194,10.194,0,0,0-3.18-7.64A10.9,10.9,0,0,0,20,9.19a10.194,10.194,0,0,0-7.64,3.18,10.374,10.374,0,0,0-3.18,7.64,10.194,10.194,0,0,0,3.18,7.64A9.993,9.993,0,0,0,20,30.83Zm-3.57-3.06a1.588,1.588,0,0,0,1.15-.51,1.365,1.365,0,0,0,.51-1.15,1.588,1.588,0,0,0-.51-1.15,1.365,1.365,0,0,0-1.15-.51,1.588,1.588,0,0,0-1.15.51,1.374,1.374,0,0,0-.38,1.15,1.572,1.572,0,0,0,.51,1.15A1.293,1.293,0,0,0,16.43,27.77Zm7.13,0a1.258,1.258,0,0,0,1.15-.51,1.928,1.928,0,0,0,.51-1.15,1.588,1.588,0,0,0-.51-1.15,1.248,1.248,0,0,0-1.15-.51,1.588,1.588,0,0,0-1.15.51,1.365,1.365,0,0,0-.51,1.15,1.588,1.588,0,0,0,.51,1.15A1.248,1.248,0,0,0,23.56,27.77ZM12.73,21.66a1.258,1.258,0,0,0,1.15-.51A1.871,1.871,0,0,0,14.39,20a1.588,1.588,0,0,0-.51-1.15,1.365,1.365,0,0,0-1.15-.51,1.588,1.588,0,0,0-1.15.51A1.365,1.365,0,0,0,11.07,20a1.588,1.588,0,0,0,.51,1.15A2.305,2.305,0,0,0,12.73,21.66Zm7.26,0a1.588,1.588,0,0,0,1.15-.51A1.365,1.365,0,0,0,21.65,20a1.588,1.588,0,0,0-.51-1.15,1.365,1.365,0,0,0-1.15-.51,1.588,1.588,0,0,0-1.15.51A1.365,1.365,0,0,0,18.33,20a1.588,1.588,0,0,0,.51,1.15A2.305,2.305,0,0,0,19.99,21.66Zm7.26,0a1.258,1.258,0,0,0,1.15-.51A1.928,1.928,0,0,0,28.91,20a1.588,1.588,0,0,0-.51-1.15,1.365,1.365,0,0,0-1.15-.51,1.588,1.588,0,0,0-1.15.51A1.365,1.365,0,0,0,25.59,20a1.588,1.588,0,0,0,.51,1.15A1.633,1.633,0,0,0,27.25,21.66ZM16.42,15.42a1.588,1.588,0,0,0,1.15-.51,1.393,1.393,0,0,0,.51-1.15,1.588,1.588,0,0,0-.51-1.15,1.393,1.393,0,0,0-1.15-.51,1.588,1.588,0,0,0-1.15.51,1.393,1.393,0,0,0-.51,1.15,1.588,1.588,0,0,0,.51,1.15A1.52,1.52,0,0,0,16.42,15.42Zm7.13,0a1.258,1.258,0,0,0,1.15-.51,1.928,1.928,0,0,0,.51-1.15,1.588,1.588,0,0,0-.51-1.15,1.247,1.247,0,0,0-1.15-.51,1.588,1.588,0,0,0-1.15.51,1.393,1.393,0,0,0-.51,1.15,1.588,1.588,0,0,0,.51,1.15A1.247,1.247,0,0,0,23.55,15.42Z"/>
</svg>
