<svg xmlns="http://www.w3.org/2000/svg" width="40" height="40.52" viewBox="0 0 40 40.52">
  <g id="viruses" transform="translate(0 0.26)">
    <rect id="Rectangle_10019" data-name="Rectangle 10019" width="40" height="40" fill="none"/>
    <path id="Path_19657" data-name="Path 19657" d="M26.71,40.26a1.145,1.145,0,0,1-.9-.39,1.174,1.174,0,0,1-.39-.9V36.13a10.284,10.284,0,0,1-2.71-.65,6.962,6.962,0,0,1-2.32-1.42l-2.45,2.45a1.469,1.469,0,0,1-1.03.39,1.159,1.159,0,0,1-.9-.39,1.456,1.456,0,0,1-.39-.9,1.145,1.145,0,0,1,.39-.9l2.45-2.45c-.13-.26-.39-.52-.52-.77s-.26-.52-.39-.77l-1.68-3.35c0-.13-.13-.13-.13-.26s-.13-.13-.13-.26l-3.1,3.1a1.469,1.469,0,0,1-1.03.39,1.7,1.7,0,0,1-1.03-.39,1.4,1.4,0,0,1-.39-.9,1.381,1.381,0,0,1,.39-.9l3.23-3.23c-.13,0-.13-.13-.26-.13s-.13-.13-.26-.13L9.81,22.98a2.842,2.842,0,0,1-.65-.39c-.26-.13-.39-.26-.65-.39L6.32,24.39a1.469,1.469,0,0,1-1.03.39,1.159,1.159,0,0,1-.9-.39,1.4,1.4,0,0,1-.39-.9,1.145,1.145,0,0,1,.39-.9L6.58,20.4a9.267,9.267,0,0,1-1.42-2.45,9.85,9.85,0,0,1-.77-2.84H1.29a1.145,1.145,0,0,1-.9-.39A1.54,1.54,0,0,1,0,13.68a1.159,1.159,0,0,1,.39-.9.977.977,0,0,1,.9-.52H4.26a15.479,15.479,0,0,1,.65-2.32c.39-.77.77-1.42,1.16-2.06L4.01,5.69a1.4,1.4,0,0,1-.39-.9,1.145,1.145,0,0,1,.39-.9,1.4,1.4,0,0,1,.9-.39,1.145,1.145,0,0,1,.9.39L8,6.08a6.58,6.58,0,0,1,2.06-1.16,7.772,7.772,0,0,1,2.32-.65V1.03a1.145,1.145,0,0,1,.39-.9A1.515,1.515,0,0,1,13.8-.26a1.159,1.159,0,0,1,.9.39,1.174,1.174,0,0,1,.39.9V3.87a10.533,10.533,0,0,1,2.84.77,9.467,9.467,0,0,1,2.45,1.55L22.57,4a1.4,1.4,0,0,1,.9-.39,1.145,1.145,0,0,1,.9.39,1.4,1.4,0,0,1,.39.9,1.381,1.381,0,0,1-.39.9L22.18,7.99c.13.26.26.39.39.65s.26.39.39.65l1.68,3.23c0,.13.13.13.13.26s.13.13.13.26l2.97-2.97a1.4,1.4,0,0,1,.9-.39,1.145,1.145,0,0,1,.9.39,1.456,1.456,0,0,1,.39.9,1.381,1.381,0,0,1-.39.9l-3.1,3.1.26.26c.13,0,.13.13.26.13l3.48,1.81c.26.13.52.39.77.52s.52.39.77.52l2.45-2.45a1.4,1.4,0,0,1,.9-.39,1.145,1.145,0,0,1,.9.39,1.4,1.4,0,0,1,.39.9,1.145,1.145,0,0,1-.39.9l-2.45,2.45a6.8,6.8,0,0,1,1.29,2.32,9.4,9.4,0,0,1,.65,2.58h2.84a1.145,1.145,0,0,1,.9.39,1.174,1.174,0,0,1,.39.9,1.159,1.159,0,0,1-.39.9c.26.52,0,.65-.39.65H36.23a15.479,15.479,0,0,1-.65,2.32,6.668,6.668,0,0,1-1.16,2.06l2.06,2.06a1.4,1.4,0,0,1,.39.9,1.145,1.145,0,0,1-.39.9,1.515,1.515,0,0,1-1.03.39,1.159,1.159,0,0,1-.9-.39l-2.06-2.06a6.58,6.58,0,0,1-2.06,1.16,7.772,7.772,0,0,1-2.32.65v2.97a1.145,1.145,0,0,1-.39.9c-.39.52-.65.65-1.03.65Zm-.26-6.84A6.918,6.918,0,0,0,32,30.84a7.416,7.416,0,0,0,1.68-5.94,8.49,8.49,0,0,0-1.29-3.1,7.129,7.129,0,0,0-2.58-2.19L26.2,17.8a7.8,7.8,0,0,1-2.06-1.55,8.2,8.2,0,0,1-1.55-2.06l-1.81-3.61a7.613,7.613,0,0,0-2.71-2.97A6.668,6.668,0,0,0,14.2,6.58,6.918,6.918,0,0,0,8.65,9.16,7.416,7.416,0,0,0,6.97,15.1a8.49,8.49,0,0,0,1.29,3.1,7.129,7.129,0,0,0,2.58,2.19l3.61,1.81a6.152,6.152,0,0,1,2.06,1.55,7.965,7.965,0,0,1,1.55,2.06l1.81,3.61a7.613,7.613,0,0,0,2.71,2.97,6.668,6.668,0,0,0,3.87,1.03ZM14.84,16.39a3.178,3.178,0,0,0,2.06-.77,3.029,3.029,0,0,0,.9-2.06,2.753,2.753,0,0,0-.9-2.06,3.029,3.029,0,0,0-2.06-.9,2.753,2.753,0,0,0-2.06.9,3.029,3.029,0,0,0-.9,2.06,2.753,2.753,0,0,0,.9,2.06,3.145,3.145,0,0,0,2.06.77ZM25.68,29.68a2.22,2.22,0,1,0-1.55-.65A1.732,1.732,0,0,0,25.68,29.68Z"/>
  </g>
</svg>
