<svg xmlns="http://www.w3.org/2000/svg" width="40.17" height="40" viewBox="0 0 40.17 40">
  <g id="vk" transform="translate(0.17)">
    <rect id="Rectangle_10020" data-name="Rectangle 10020" width="40" height="40" fill="none"/>
    <path id="Path_19658" data-name="Path 19658" d="M38.98,9.74c.25-.88,0-1.63-1.38-1.63H33.22a1.859,1.859,0,0,0-1.88,1.25,39.37,39.37,0,0,1-5.38,9c-1,1-1.5,1.38-2,1.38-.25,0-.75-.38-.75-1.25V9.86c0-1.13-.25-1.63-1.25-1.63H15.08a1.027,1.027,0,0,0-1.13,1c0,1,1.63,1.25,1.75,4.25v6.5c0,1.38-.25,1.63-.75,1.63-1.5,0-5.13-5.5-7.25-11.76C7.32,8.6,6.82,8.1,5.7,8.1H1.33c-1.25,0-1.5.63-1.5,1.25,0,1.13,1.5,6.88,6.88,14.51,3.63,5.25,8.75,8,13.38,8,2.75,0,3.13-.63,3.13-1.75,0-5-.25-5.38,1.13-5.38.63,0,1.75.38,4.38,2.88,3,3,3.5,4.25,5.13,4.25h4.38c1.25,0,1.88-.63,1.5-1.88-.88-2.63-6.5-7.88-6.75-8.25a1.39,1.39,0,0,1,0-2c.13,0,5.5-7.5,6-10h0Z"/>
  </g>
</svg>
