<svg id="voicemail" xmlns="http://www.w3.org/2000/svg" width="40.01" height="40" viewBox="0 0 40.01 40">
  <rect id="Rectangle_10021" data-name="Rectangle 10021" width="40" height="40" fill="none"/>
  <path id="Path_19659" data-name="Path 19659" d="M8.6,28.6a8.692,8.692,0,0,1-6.11-2.49A8.471,8.471,0,0,1,0,20a8.692,8.692,0,0,1,2.49-6.11A8.471,8.471,0,0,1,8.6,11.4a8.692,8.692,0,0,1,6.11,2.49A8.471,8.471,0,0,1,17.2,20a9.469,9.469,0,0,1-.62,3.24,13.163,13.163,0,0,1-1.87,2.74H25.3a6.018,6.018,0,0,1-1.87-2.74A7.158,7.158,0,0,1,22.81,20a8.692,8.692,0,0,1,2.49-6.11,8.471,8.471,0,0,1,6.11-2.49,8.692,8.692,0,0,1,6.11,2.49A8.471,8.471,0,0,1,40.01,20a8.692,8.692,0,0,1-2.49,6.11,8.471,8.471,0,0,1-6.11,2.49Zm0-2.62a5.941,5.941,0,0,0,4.24-1.74A5.726,5.726,0,0,0,14.58,20a5.941,5.941,0,0,0-1.74-4.24A5.726,5.726,0,0,0,8.6,14.02a5.941,5.941,0,0,0-4.24,1.74A5.726,5.726,0,0,0,2.62,20a5.941,5.941,0,0,0,1.74,4.24A5.277,5.277,0,0,0,8.6,25.98Zm22.43,0a5.941,5.941,0,0,0,4.24-1.74A5.726,5.726,0,0,0,37.01,20a5.941,5.941,0,0,0-1.74-4.24,5.726,5.726,0,0,0-4.24-1.74,5.941,5.941,0,0,0-4.24,1.74A5.726,5.726,0,0,0,25.05,20a5.941,5.941,0,0,0,1.74,4.24A5.64,5.64,0,0,0,31.03,25.98Z"/>
</svg>
