<svg id="volleyball-ball" xmlns="http://www.w3.org/2000/svg" width="40" height="40" viewBox="0 0 40 40">
  <rect id="Rectangle_10022" data-name="Rectangle 10022" width="40" height="40" fill="none"/>
  <path id="Path_19660" data-name="Path 19660" d="M36.84,15.57a17.669,17.669,0,0,0-5.57-8.86,17.047,17.047,0,0,0-10-4.05v3.8ZM10.38,23.92l8.23-4.81V2.66a23.75,23.75,0,0,0-4.3.89,22.51,22.51,0,0,0-3.92,1.9V23.93ZM4.3,27.46l3.42-2.03V7.59a17.263,17.263,0,0,0-3.8,5.7A17.5,17.5,0,0,0,2.65,20a18.618,18.618,0,0,0,.38,3.8A12.307,12.307,0,0,0,4.3,27.47Zm7.85,8.1,16.2-9.24L20,21.38,5.57,29.73a17.954,17.954,0,0,0,2.91,3.29,13.65,13.65,0,0,0,3.67,2.53ZM20,37.33a15.959,15.959,0,0,0,8.1-2.03,17.36,17.36,0,0,0,6.2-5.57L30.88,27.7,15.44,36.69a15.558,15.558,0,0,0,2.28.51,13.418,13.418,0,0,0,2.28.13Zm15.7-9.87a16.181,16.181,0,0,0,1.39-4.18,17.036,17.036,0,0,0,.25-4.43L21.26,9.61V19.1l14.43,8.35ZM20,39.99a20.7,20.7,0,0,1-7.85-1.52A20.4,20.4,0,0,1,1.52,27.84,20.226,20.226,0,0,1,0,19.99a20.666,20.666,0,0,1,1.52-7.85A20.4,20.4,0,0,1,12.15,1.51,20.257,20.257,0,0,1,20,0a20.7,20.7,0,0,1,7.85,1.52A20.4,20.4,0,0,1,38.48,12.15,20.226,20.226,0,0,1,40,20a20.666,20.666,0,0,1-1.52,7.85A20.4,20.4,0,0,1,27.85,38.48,20.226,20.226,0,0,1,20,40Z"/>
</svg>
