<svg id="volume-down" xmlns="http://www.w3.org/2000/svg" width="40" height="40" viewBox="0 0 40 40">
  <rect id="Rectangle_10023" data-name="Rectangle 10023" width="40" height="40" fill="none"/>
  <path id="Path_19661" data-name="Path 19661" d="M11.96,27.75H2.58a1.845,1.845,0,0,1-1.72-.77,2.868,2.868,0,0,1-.77-1.72V14.35a1.845,1.845,0,0,1,.77-1.72,2.868,2.868,0,0,1,1.72-.77h9.38L22.11,1.72a1.974,1.974,0,0,1,2.3-.38,2.074,2.074,0,0,1,1.34,1.91v33.5a1.831,1.831,0,0,1-1.34,1.91,2.1,2.1,0,0,1-2.3-.38L11.97,27.75Zm27.95-8.04a12.625,12.625,0,0,1-1.53,6.13,12.169,12.169,0,0,1-4.21,4.59,1.231,1.231,0,0,1-1.15,0,1.049,1.049,0,0,1-.57-.96V9.76a1.06,1.06,0,0,1,.57-.96,1.231,1.231,0,0,1,1.15,0,10.879,10.879,0,0,1,4.21,4.59,13.941,13.941,0,0,1,1.53,6.32ZM21.53,8.03l-7.85,7.66H4.11v7.85h9.57l7.85,7.85V8.04Z"/>
</svg>
