<svg id="volume-mute" xmlns="http://www.w3.org/2000/svg" width="40" height="40" viewBox="0 0 40 40">
  <rect id="Rectangle_10024" data-name="Rectangle 10024" width="40" height="40" fill="none"/>
  <path id="Path_19662" data-name="Path 19662" d="M32.41,22l-5.24,5.24a1.242,1.242,0,0,1-.97.41,1.276,1.276,0,0,1-.97-.41,1.474,1.474,0,0,1-.41-.97,1.525,1.525,0,0,1,.41-.97l5.24-5.24-5.24-5.24a1.428,1.428,0,0,1-.55-1.1,1.291,1.291,0,0,1,.41-.97,1.55,1.55,0,0,1,1.1-.41,1.291,1.291,0,0,1,.97.41l5.24,5.24,5.24-5.24a1.242,1.242,0,0,1,.97-.41,1.276,1.276,0,0,1,.97.41,1.534,1.534,0,0,1,.41,1.1,1.291,1.291,0,0,1-.41.97l-5.24,5.1,5.24,5.24a1.242,1.242,0,0,1,.41.97,1.276,1.276,0,0,1-.41.97,1.454,1.454,0,0,1-.97.41,1.291,1.291,0,0,1-.97-.41c-.14.14-5.24-5.1-5.24-5.1ZM8.55,25.72H1.79a1.345,1.345,0,0,1-1.24-.55A2.077,2.077,0,0,1,0,23.93V16.07a1.345,1.345,0,0,1,.55-1.24,1.462,1.462,0,0,1,1.24-.69H8.55l7.31-7.31a1.446,1.446,0,0,1,1.66-.28,1.512,1.512,0,0,1,.97,1.38V32.07a1.335,1.335,0,0,1-.97,1.38,1.5,1.5,0,0,1-1.66-.28c0-.14-7.31-7.45-7.31-7.45Zm6.9-14.21L9.79,17.03H2.9v5.66H9.8l5.66,5.66V11.52Z"/>
</svg>
