<svg id="volume-up" xmlns="http://www.w3.org/2000/svg" width="40" height="40" viewBox="0 0 40 40">
  <rect id="Rectangle_10026" data-name="Rectangle 10026" width="40" height="40" fill="none"/>
  <path id="Path_19664" data-name="Path 19664" d="M36.83,20.29A17.087,17.087,0,0,0,26.42,4.6a1.3,1.3,0,0,1-.86-.86,1.548,1.548,0,0,1,0-1.14,1.3,1.3,0,0,1,.86-.86,1.938,1.938,0,0,1,1.28,0,20.008,20.008,0,0,1,8.84,7.27,18.779,18.779,0,0,1,3.28,10.98A19.622,19.622,0,0,1,27.7,38.24a2,2,0,0,1-1.28,0,1.319,1.319,0,0,1-.86-.86,1.6,1.6,0,0,1,0-1.14c.14-.43.43-.57.86-.86a16.168,16.168,0,0,0,7.56-6.28,14,14,0,0,0,2.85-8.84ZM9.02,26.28H2.03a1.374,1.374,0,0,1-1.28-.57,2.636,2.636,0,0,1-.57-1.28V16.3a1.374,1.374,0,0,1,.57-1.28,1.491,1.491,0,0,1,1.28-.71H9.02l7.56-7.56a1.478,1.478,0,0,1,1.71-.29,1.556,1.556,0,0,1,1,1.43V32.85a1.387,1.387,0,0,1-1,1.43,1.542,1.542,0,0,1-1.71-.29l-7.56-7.7Zm20.83-5.99a9.421,9.421,0,0,1-1.14,4.56,8.921,8.921,0,0,1-3.14,3.42.933.933,0,0,1-.86,0,.776.776,0,0,1-.43-.71V12.87a.766.766,0,0,1,.43-.71.933.933,0,0,1,.86,0,9.229,9.229,0,0,1,3.14,3.42A8.849,8.849,0,0,1,29.85,20.29Zm-13.69-8.7L10.31,17.3H3.17v5.85H10.3L16.15,29V11.58Z"/>
</svg>
