<svg id="volume-off" xmlns="http://www.w3.org/2000/svg" width="40.01" height="40" viewBox="0 0 40.01 40">
  <rect id="Rectangle_10025" data-name="Rectangle 10025" width="40" height="40" fill="none"/>
  <path id="Path_19663" data-name="Path 19663" d="M31.58,33.75c-.53.26-.92.66-1.45.92s-1.05.53-1.58.79a1.462,1.462,0,0,1-1.05,0,1.18,1.18,0,0,1-.79-.79,1.462,1.462,0,0,1,0-1.05c.13-.39.39-.53.79-.79a3.991,3.991,0,0,0,1.32-.66A4.162,4.162,0,0,0,30,31.25l-9.21-8.29v6.97a1.272,1.272,0,0,1-.92,1.32,1.45,1.45,0,0,1-1.58-.26l-6.97-6.97H5.14a1.26,1.26,0,0,1-1.18-.53,1.975,1.975,0,0,1-.53-1.18v-7.5a1.26,1.26,0,0,1,.53-1.18,1.975,1.975,0,0,1,1.18-.53H10.8L.39,2.43A1.187,1.187,0,0,1,0,1.51,1.756,1.756,0,0,1,.39.46,1.451,1.451,0,0,1,1.32.07a1.2,1.2,0,0,1,.92.39L39.35,37.57a1.2,1.2,0,0,1,.39.92,1.756,1.756,0,0,1-.39,1.05,1.5,1.5,0,0,1-1.05.39,1.756,1.756,0,0,1-1.05-.39l-5.66-5.79Zm5.13-5-1.97-1.97a15.087,15.087,0,0,0,1.84-3.95,16.885,16.885,0,0,0,.66-4.47,15.652,15.652,0,0,0-2.63-8.68,14.991,14.991,0,0,0-6.97-5.79,1.18,1.18,0,0,1-.79-.79,1.462,1.462,0,0,1,0-1.05,1.18,1.18,0,0,1,.79-.79,1.834,1.834,0,0,1,1.18,0,18.511,18.511,0,0,1,8.16,6.71A17.293,17.293,0,0,1,40.01,18.1a19.974,19.974,0,0,1-.79,5.53,20.905,20.905,0,0,1-2.5,5.13ZM30,22.04l-3.82-3.82V11.77a.73.73,0,0,1,.39-.66,1.123,1.123,0,0,1,.92,0,7.483,7.483,0,0,1,2.5,3.16,11.158,11.158,0,0,1,.79,4.08,7.771,7.771,0,0,1-.26,1.84,4.152,4.152,0,0,1-.53,1.84Zm-9.08-9.08L16.18,8.22l2.37-2.37a1.354,1.354,0,0,1,1.58-.26,1.425,1.425,0,0,1,.92,1.32v6.05ZM18.16,26.51V20.19l-4.61-4.61H6.18v5.39h6.58c0,.13,5.39,5.53,5.39,5.53Z"/>
</svg>
