<svg id="vote-yea" xmlns="http://www.w3.org/2000/svg" width="40" height="40" viewBox="0 0 40 40">
  <rect id="Rectangle_10027" data-name="Rectangle 10027" width="40" height="40" fill="none"/>
  <path id="Path_19665" data-name="Path 19665" d="M4.73,39.93A3.233,3.233,0,0,1,2.4,38.89a3.233,3.233,0,0,1-1.04-2.33v-8.8l7.12-7.9,1.94,1.94L4.21,28.79H35.92l-6.08-6.86,1.94-1.94,6.86,7.77v8.8a3.569,3.569,0,0,1-3.37,3.37Zm0-2.72H35.15a.986.986,0,0,0,.52-.26.675.675,0,0,0,.26-.52V31.38H4.08v5.05a.986.986,0,0,0,.26.52C4.47,37.21,4.6,37.21,4.73,37.21ZM17.8,23.88l-7.51-7.51a2.694,2.694,0,0,1-.91-2.33,3.233,3.233,0,0,1,1.04-2.33L20.78,1.1A3.845,3.845,0,0,1,23.11.06,2.8,2.8,0,0,1,25.44,1.1l7.51,7.51a3.233,3.233,0,0,1,1.04,2.33,3.779,3.779,0,0,1-1.04,2.46L22.6,23.88a3.233,3.233,0,0,1-2.33,1.04,3.306,3.306,0,0,1-2.46-1.04ZM30.87,11.45c.13-.13.13-.26.13-.52s0-.39-.13-.52L23.62,3.16c-.13-.13-.26-.13-.52-.13s-.39,0-.52.13L12.23,13.51v.52c0,.26,0,.39.13.52l7.25,7.25c.13.13.26.13.52.13s.39,0,.52-.13c0-.13,10.23-10.35,10.23-10.35ZM4.08,37.22v0Z"/>
</svg>
