<svg id="wallet" xmlns="http://www.w3.org/2000/svg" width="40" height="40" viewBox="0 0 40 40">
  <rect id="Rectangle_10003" data-name="Rectangle 10003" width="40" height="40" fill="none"/>
  <path id="Path_19641" data-name="Path 19641" d="M7.44,35.7A7.272,7.272,0,0,1,.16,28.41V11.59A7.113,7.113,0,0,1,2.29,6.44,7.113,7.113,0,0,1,7.44,4.31H32.55a7.272,7.272,0,0,1,7.28,7.28v16.7a7.272,7.272,0,0,1-7.28,7.28H7.44v.13Zm0-23.23H32.55a5.7,5.7,0,0,1,2.51.5,7.1,7.1,0,0,1,2.13,1.26V11.72a5.06,5.06,0,0,0-1.38-3.39,4.121,4.121,0,0,0-3.26-1.38H7.44A5.06,5.06,0,0,0,4.05,8.33a4.635,4.635,0,0,0-1.38,3.39v2.51A7.677,7.677,0,0,1,4.8,12.97a6.513,6.513,0,0,1,2.64-.5Zm-4.52,6.4,24.36,5.9c.25,0,.5.13.75,0a.7.7,0,0,0,.63-.38l8.04-6.78a4.737,4.737,0,0,0-1.63-1.88,4.527,4.527,0,0,0-2.51-.75H7.44a4.509,4.509,0,0,0-3.01,1.13,4.083,4.083,0,0,0-1.51,2.76Z"/>
</svg>
