<svg id="warehouse" xmlns="http://www.w3.org/2000/svg" width="40" height="40" viewBox="0 0 40 40">
  <rect id="Rectangle_10004" data-name="Rectangle 10004" width="40" height="40" fill="none"/>
  <path id="Path_19642" data-name="Path 19642" d="M19.94,4.77,3.07,11.57a.269.269,0,0,0-.25.25.458.458,0,0,0-.13.38V34.35a.717.717,0,0,0,.13.5c.13.13.25.13.5.13H8.98V20.76a2.6,2.6,0,0,1,2.65-2.65H28.37a2.6,2.6,0,0,1,2.65,2.65v14.1h5.66a.717.717,0,0,0,.5-.13c.13-.13.13-.25.13-.5V12.2a.458.458,0,0,0-.13-.38l-.25-.25L19.94,4.77ZM11.51,37.62H3.32a3.165,3.165,0,0,1-2.27-1.01,3.133,3.133,0,0,1-1-2.26V12.2A3.621,3.621,0,0,1,2.19,9.05L18.68,2.51a3.664,3.664,0,0,1,1.26-.25,5.808,5.808,0,0,1,1.26.25L37.81,9.18a2.936,2.936,0,0,1,1.51,1.26,3.065,3.065,0,0,1,.63,1.89V34.48a3.464,3.464,0,0,1-3.28,3.28H28.36V20.77H11.5V37.63Zm3.02,0V34.47h3.15v3.15Zm3.78-6.29V28.18h3.15v3.15Zm3.9,6.29V34.47h3.15v3.15Zm6.17-19.51h-.02Z"/>
</svg>
