<svg id="water" xmlns="http://www.w3.org/2000/svg" width="40" height="40" viewBox="0 0 40 40">
  <rect id="Rectangle_10005" data-name="Rectangle 10005" width="40" height="40" fill="none"/>
  <path id="Path_19643" data-name="Path 19643" d="M.03,20.8a1.106,1.106,0,0,1,.37-.86,2.144,2.144,0,0,1,.86-.61,6.789,6.789,0,0,0,2.09-1.11,4.53,4.53,0,0,1,2.83-.74,4.471,4.471,0,0,1,3.56,1.23,4.443,4.443,0,0,0,3.2,1.23,4,4,0,0,0,3.2-1.23,5.09,5.09,0,0,1,3.69-1.23,4.97,4.97,0,0,1,3.69,1.23,4.443,4.443,0,0,0,3.2,1.23,4,4,0,0,0,3.2-1.23,5.09,5.09,0,0,1,3.69-1.23,4.731,4.731,0,0,1,2.95.74,6.891,6.891,0,0,0,2.09,1.11,2.245,2.245,0,0,1,.86.61,1.289,1.289,0,0,1,.37.86,1.359,1.359,0,0,1-.37.98.814.814,0,0,1-.86.25,4.791,4.791,0,0,1-2.34-1.23,4.023,4.023,0,0,0-2.58-.74,4.183,4.183,0,0,0-3.2,1.23,5.3,5.3,0,0,1-3.69,1.23,4.97,4.97,0,0,1-3.69-1.23,4.657,4.657,0,0,0-3.2-1.23,4,4,0,0,0-3.2,1.23,5.09,5.09,0,0,1-3.69,1.23,4.793,4.793,0,0,1-3.69-1.23,4.657,4.657,0,0,0-3.2-1.23,4.283,4.283,0,0,0-2.58.74,14,14,0,0,1-2.34,1.23.761.761,0,0,1-.86-.25,1.2,1.2,0,0,1-.37-.98Zm0,7.99a1.106,1.106,0,0,1,.37-.86,2.144,2.144,0,0,1,.86-.61,6.789,6.789,0,0,0,2.09-1.11,4.686,4.686,0,0,1,2.95-.74A4.471,4.471,0,0,1,9.86,26.7a4.443,4.443,0,0,0,3.2,1.23,4,4,0,0,0,3.2-1.23,5.09,5.09,0,0,1,3.69-1.23,4.97,4.97,0,0,1,3.69,1.23,4.443,4.443,0,0,0,3.2,1.23,4,4,0,0,0,3.2-1.23,5.09,5.09,0,0,1,3.69-1.23,4.731,4.731,0,0,1,2.95.74,6.891,6.891,0,0,0,2.09,1.11,2.245,2.245,0,0,1,.86.61,1.289,1.289,0,0,1,.37.86,1.359,1.359,0,0,1-.37.98,1.45,1.45,0,0,1-.98.25,4.791,4.791,0,0,1-2.34-1.23,4.023,4.023,0,0,0-2.58-.74,4.183,4.183,0,0,0-3.2,1.23,5.3,5.3,0,0,1-3.69,1.23,4.97,4.97,0,0,1-3.69-1.23,4.657,4.657,0,0,0-3.2-1.23,4,4,0,0,0-3.2,1.23,5.3,5.3,0,0,1-3.69,1.23,4.97,4.97,0,0,1-3.69-1.23,4.443,4.443,0,0,0-3.2-1.23,4.023,4.023,0,0,0-2.58.74,10.271,10.271,0,0,1-2.34,1.23.761.761,0,0,1-.86-.25,1.375,1.375,0,0,1-.37-.98Zm0-15.98a2.163,2.163,0,0,1,.25-.86,2.144,2.144,0,0,1,.86-.61,9.157,9.157,0,0,0,2.21-1.11A4.731,4.731,0,0,1,6.3,9.49a4.471,4.471,0,0,1,3.56,1.23,4.443,4.443,0,0,0,3.2,1.23,4,4,0,0,0,3.2-1.23,5.09,5.09,0,0,1,3.69-1.23,4.97,4.97,0,0,1,3.69,1.23,4.443,4.443,0,0,0,3.2,1.23,4,4,0,0,0,3.2-1.23,5.09,5.09,0,0,1,3.69-1.23,4.731,4.731,0,0,1,2.95.74,6.891,6.891,0,0,0,2.09,1.11,2.245,2.245,0,0,1,.86.61,1.289,1.289,0,0,1,.37.86,1.359,1.359,0,0,1-.37.98.834.834,0,0,1-.86.25,4.791,4.791,0,0,1-2.34-1.23,4.023,4.023,0,0,0-2.58-.74,4.183,4.183,0,0,0-3.2,1.23,5.3,5.3,0,0,1-3.69,1.23,4.97,4.97,0,0,1-3.69-1.23,4.657,4.657,0,0,0-3.2-1.23,4,4,0,0,0-3.2,1.23,5.09,5.09,0,0,1-3.69,1.23A4.793,4.793,0,0,1,9.49,13.3a4.657,4.657,0,0,0-3.2-1.23,4.568,4.568,0,0,0-2.58.74,10.271,10.271,0,0,1-2.34,1.23.946.946,0,0,1-.98-.25,1.2,1.2,0,0,1-.37-.98Z"/>
</svg>
