<svg id="wave-square" xmlns="http://www.w3.org/2000/svg" width="40" height="40" viewBox="0 0 40 40">
  <rect id="Rectangle_10006" data-name="Rectangle 10006" width="40" height="40" fill="none"/>
  <path id="Path_19644" data-name="Path 19644" d="M14.72,32.92a1.95,1.95,0,0,1-1.15-.34,1.823,1.823,0,0,1-.69-.92L8.52,21.1H1.29a1.037,1.037,0,0,1-.8-.34,1.294,1.294,0,0,1-.34-.92,1.022,1.022,0,0,1,.34-.8,1.715,1.715,0,0,1,.8-.23H9.21a1.606,1.606,0,0,1,.8.23,1.155,1.155,0,0,1,.57.69l4.13,9.99L23.44,8.36a1.755,1.755,0,0,1,.69-.92,1.929,1.929,0,0,1,1.15-.34,1.95,1.95,0,0,1,1.15.34,1.769,1.769,0,0,1,.69.92l4.36,10.45h7.23a1.037,1.037,0,0,1,.8.34,1.294,1.294,0,0,1,.34.92,1.022,1.022,0,0,1-.34.8,1.037,1.037,0,0,1-.8.34H30.79a1.606,1.606,0,0,1-.8-.23,1.155,1.155,0,0,1-.57-.69L25.29,10.3,16.56,31.54a1.755,1.755,0,0,1-.69.92,1.487,1.487,0,0,1-1.15.46Z"/>
</svg>
