<svg id="waze" xmlns="http://www.w3.org/2000/svg" width="40.004" height="40" viewBox="0 0 40.004 40">
  <rect id="Rectangle_10007" data-name="Rectangle 10007" width="40" height="40" fill="none"/>
  <path id="Path_19645" data-name="Path 19645" d="M39.8,15.62c1.13,6.88-2.5,13.51-9.13,16.76a4.144,4.144,0,1,1-8.01,1.63H16.53a4.2,4.2,0,0,1-4.38,4h0a4.139,4.139,0,0,1-3.75-5.5,15.519,15.519,0,0,1-8-5.75,2.138,2.138,0,0,1,1.63-3.38c3.75,0,2.63-4.38,3.5-8.88C7.03,7.11,14.91,1.99,22.54,1.99c8.25,0,15.88,5.63,17.26,13.63h0ZM29.42,30.63a14.386,14.386,0,0,0,7.75-8.25C40.42,12.5,32.04,4.12,22.54,4.12,15.79,4.12,8.91,8.62,7.53,15c-.75,3.88.38,10.51-5.5,10.51a14.575,14.575,0,0,0,7.5,5.13,4.121,4.121,0,0,1,6.38,1.13c1.13.13,6.38.13,7.13.13a4.108,4.108,0,0,1,5.63-1.75c.25.13.5.38.75.5ZM15.91,14.49a2.065,2.065,0,0,1,4.13,0,2.065,2.065,0,0,1-4.13,0Zm9.38,0a2.065,2.065,0,0,1,4.13,0A2.065,2.065,0,0,1,25.29,14.49Zm-9.88,5.63a1.018,1.018,0,1,1,2-.38h0a5.093,5.093,0,0,0,5.13,3.5c2.88-.13,4.75-1.75,5.13-3.38a1.031,1.031,0,0,1,2,.5c-.38,1.75-2.5,5-7.38,5-3.25-.13-6.25-2.25-6.88-5.25h0Z"/>
</svg>
