<svg id="weight" xmlns="http://www.w3.org/2000/svg" width="40" height="40" viewBox="0 0 40 40">
  <rect id="Rectangle_10009" data-name="Rectangle 10009" width="40" height="40" fill="none"/>
  <path id="Path_19647" data-name="Path 19647" d="M20.07,19.31a6.111,6.111,0,0,0,4.56-1.8,6.18,6.18,0,0,0,1.8-4.56,6.157,6.157,0,0,0-6.36-6.36,6.157,6.157,0,0,0-6.36,6.36,6.126,6.126,0,0,0,1.8,4.56A6.72,6.72,0,0,0,20.07,19.31Zm-3.6-5.26a1.95,1.95,0,0,1-.83-.28,1.009,1.009,0,0,1-.28-.83,1.95,1.95,0,0,1,.28-.83,1.009,1.009,0,0,1,.83-.28,1.95,1.95,0,0,1,.83.28c.28.28.41.55.28.83a1.95,1.95,0,0,1-.28.83A1.155,1.155,0,0,1,16.47,14.05Zm3.6,0a1.95,1.95,0,0,1-.83-.28,1.009,1.009,0,0,1-.28-.83,1.95,1.95,0,0,1,.28-.83,1.009,1.009,0,0,1,.83-.28,1.95,1.95,0,0,1,.83.28,1.009,1.009,0,0,1,.28.83,1.95,1.95,0,0,1-.28.83A1.95,1.95,0,0,1,20.07,14.05Zm3.6,0a1.95,1.95,0,0,1-.83-.28,1.009,1.009,0,0,1-.28-.83,1.95,1.95,0,0,1,.28-.83,1.009,1.009,0,0,1,.83-.28,1.95,1.95,0,0,1,.83.28,1.009,1.009,0,0,1,.28.83,1.95,1.95,0,0,1-.28.83A1.95,1.95,0,0,1,23.67,14.05ZM4.02,39.64a3.43,3.43,0,0,1-2.49-1.11A3.486,3.486,0,0,1,.42,36.04V3.95A3.43,3.43,0,0,1,1.53,1.46,3.475,3.475,0,0,1,4.02.36H35.97a3.43,3.43,0,0,1,2.49,1.11,3.486,3.486,0,0,1,1.11,2.49V35.91a3.43,3.43,0,0,1-1.11,2.49,3.486,3.486,0,0,1-2.49,1.11H4.02v.14Zm0-2.9H35.97c.14,0,.28-.14.55-.28a.723.723,0,0,0,.28-.55V3.95c0-.14-.14-.28-.28-.55a.723.723,0,0,0-.55-.28H4.02l-.41.41c-.14.14-.28.28-.28.41V35.89c0,.14.14.28.28.55.14.14.28.28.41.28ZM3.33,3.26v0Z"/>
</svg>
