<svg id="weight-hanging" xmlns="http://www.w3.org/2000/svg" width="40" height="40.01" viewBox="0 0 40 40.01">
  <rect id="Rectangle_10008" data-name="Rectangle 10008" width="40" height="40" fill="none"/>
  <path id="Path_19646" data-name="Path 19646" d="M5.93,37H34.07a1.039,1.039,0,0,0,.57-.29.882.882,0,0,0,.14-.57L31.49,12.57c0-.14-.14-.29-.29-.43a.545.545,0,0,0-.43-.14H9.36a.535.535,0,0,0-.43.14c-.29.14-.29.29-.29.43L5.21,36.14a.869.869,0,0,0,.14.57,1.11,1.11,0,0,0,.57.29ZM20.07,9a2.938,2.938,0,0,0,3-3,3,3,0,1,0-6,0,2.938,2.938,0,0,0,3,3Zm5.14,0h5.57a3.628,3.628,0,0,1,2.43.86,3.772,3.772,0,0,1,1.29,2.29l3.29,23.57a3.761,3.761,0,0,1-.86,3,3.581,3.581,0,0,1-2.86,1.29H5.93a3.609,3.609,0,0,1-2.86-1.29,3.761,3.761,0,0,1-.86-3L5.5,12.15A3.368,3.368,0,0,1,6.79,9.86,3.88,3.88,0,0,1,9.22,9h5.57a4.162,4.162,0,0,1-.57-1.43A5.461,5.461,0,0,1,14.08,6a5.845,5.845,0,0,1,6-6,5.845,5.845,0,0,1,6,6,5.462,5.462,0,0,1-.14,1.57A15.892,15.892,0,0,1,25.23,9Zm-20,28h0Z"/>
</svg>
