<svg id="whatsapp" xmlns="http://www.w3.org/2000/svg" width="40" height="40" viewBox="0 0 40 40">
  <rect id="Rectangle_10010" data-name="Rectangle 10010" width="40" height="40" fill="none"/>
  <path id="Path_19648" data-name="Path 19648" d="M33.98,5.77A19.856,19.856,0,0,0,.16,19.87a19.434,19.434,0,0,0,2.62,9.86L.03,39.97l10.48-2.75a19.118,19.118,0,0,0,9.48,2.37h0A20,20,0,0,0,39.96,19.75,20.131,20.131,0,0,0,33.97,5.77ZM20,36.22a16.149,16.149,0,0,1-8.36-2.25l-.62-.37L4.78,35.22,6.4,29.11l-.37-.62A16.483,16.483,0,0,1,20,3.28,16.312,16.312,0,0,1,31.6,8.15a16.467,16.467,0,0,1,4.99,11.6,16.564,16.564,0,0,1-16.6,16.47Zm8.98-12.23c-.5-.25-2.87-1.5-3.37-1.62s-.75-.25-1.12.25-1.25,1.62-1.62,2c-.25.37-.62.37-1.12.12-2.87-1.5-4.87-2.62-6.74-5.86-.5-.87.5-.75,1.5-2.75a1.086,1.086,0,0,0,0-.87c-.12-.25-1.12-2.75-1.5-3.74s-.87-.87-1.12-.87h-1a1.905,1.905,0,0,0-1.37.62,5.493,5.493,0,0,0-1.75,4.12c0,2.37,1.75,4.74,2,5.12s3.49,5.37,8.49,7.49c3.12,1.37,4.37,1.5,5.99,1.25a5.32,5.32,0,0,0,3.37-2.37,4.47,4.47,0,0,0,.25-2.37c0-.12-.37-.25-.87-.5Z"/>
</svg>
