<svg id="wheelchair" xmlns="http://www.w3.org/2000/svg" width="40" height="40.01" viewBox="0 0 40 40.01">
  <rect id="Rectangle_10011" data-name="Rectangle 10011" width="40" height="40" fill="none"/>
  <path id="Path_19649" data-name="Path 19649" d="M20,7.41A3.544,3.544,0,0,1,17.41,6.3a3.577,3.577,0,0,1,0-5.18,3.577,3.577,0,0,1,5.18,0,3.577,3.577,0,0,1,0,5.18A3.142,3.142,0,0,1,20,7.41ZM32.22,40a1.092,1.092,0,0,1-.86-.37,1.141,1.141,0,0,1-.37-.86V30a.428.428,0,0,0-.49-.49H20.13a3.656,3.656,0,0,1-2.47-.99,3.44,3.44,0,0,1-.99-2.47V13.46A3.383,3.383,0,0,1,20.13,10a2.845,2.845,0,0,1,1.73.49,7.393,7.393,0,0,1,1.85,1.73,16.594,16.594,0,0,0,4.44,4.07,10.434,10.434,0,0,0,4.69,1.85,1.406,1.406,0,0,1,.74.37,1.106,1.106,0,0,1,.37.86,1.4,1.4,0,0,1-.37.99.968.968,0,0,1-.99.25,13.479,13.479,0,0,1-4.69-1.73,26.225,26.225,0,0,1-4.44-3.33V26.04h6.91a3.656,3.656,0,0,1,2.47.99,3.44,3.44,0,0,1,.99,2.47v9.26a1.092,1.092,0,0,1-.37.86,3.21,3.21,0,0,1-1.23.37ZM15.8,40a9.7,9.7,0,0,1-9.75-9.75,9.41,9.41,0,0,1,2.47-6.3,9.2,9.2,0,0,1,6.3-3.21v2.59a6.585,6.585,0,0,0-4.44,2.35,7.089,7.089,0,0,0,10,10,6.585,6.585,0,0,0,2.35-4.44h2.59a9.258,9.258,0,0,1-3.21,6.3,9.392,9.392,0,0,1-6.3,2.47Z"/>
</svg>
