<svg xmlns="http://www.w3.org/2000/svg" width="40" height="40.03" viewBox="0 0 40 40.03">
  <g id="whmcs" transform="translate(0 0.02)">
    <rect id="Rectangle_10012" data-name="Rectangle 10012" width="40" height="40" fill="none"/>
    <path id="Path_19650" data-name="Path 19650" d="M22.73,40H16.8a1.439,1.439,0,0,1-1.01-.38,1.556,1.556,0,0,1-.5-1.01l-.76-4.92a10.426,10.426,0,0,1-2.15-1.01,11.119,11.119,0,0,1-2.02-1.39L5.94,33.44a1.715,1.715,0,0,1-1.14,0,1.322,1.322,0,0,1-.88-.76l-2.9-5.17a1.262,1.262,0,0,1-.13-1.14,1.686,1.686,0,0,1,.63-1.01l4.04-3.03c0-.38-.13-.76-.13-1.14V18.92c0-.38.13-.76.13-1.14L1.52,14.75a1.775,1.775,0,0,1-.5-2.15L3.8,7.43a1.692,1.692,0,0,1,.88-.76,1.715,1.715,0,0,1,1.14,0l4.54,2.02c.63-.5,1.26-.88,2.02-1.39a16,16,0,0,1,2.15-1.01l.76-4.92a2.589,2.589,0,0,1,.5-1.01A1.439,1.439,0,0,1,16.8-.02h5.93a2.069,2.069,0,0,1,1.14.38,2.8,2.8,0,0,1,.63,1.01l.76,4.92A16,16,0,0,1,27.41,7.3,17.528,17.528,0,0,1,29.3,8.69l4.67-2.02a3.421,3.421,0,0,1,1.14-.13,1.692,1.692,0,0,1,.88.76l2.9,5.17a1.9,1.9,0,0,1,.25,1.14,1.734,1.734,0,0,1-.63,1.01l-4.16,3.03a3.421,3.421,0,0,1,.13,1.14v2.15c0,.38-.13.76-.13,1.14l4.16,3.03a1.412,1.412,0,0,1,.63,1.01,1.29,1.29,0,0,1-.25,1.14l-3.03,5.43a1.692,1.692,0,0,1-.88.76,1.715,1.715,0,0,1-1.14,0L29.3,31.43a18.988,18.988,0,0,1-1.89,1.39,10.9,10.9,0,0,1-2.15,1.01l-.76,4.92a1.734,1.734,0,0,1-.63,1.01,2.95,2.95,0,0,1-1.14.25Zm-2.9-13.88a6.043,6.043,0,1,0-4.29-1.77,5.787,5.787,0,0,0,4.29,1.77Zm0-2.65a3.41,3.41,0,0,1,0-6.82,3.238,3.238,0,0,1,2.4,1.01,3.41,3.41,0,0,1-2.4,5.81ZM17.68,37.35H22.1l.76-5.8a8.045,8.045,0,0,0,3.03-1.26,13.29,13.29,0,0,0,2.65-2.02l5.43,2.27,2.15-3.66-4.79-3.53c.13-.63.25-1.14.38-1.77a6.986,6.986,0,0,0,.13-1.64,6.458,6.458,0,0,0-.13-1.64,8.1,8.1,0,0,0-.38-1.64l4.79-3.53L33.97,9.47l-5.43,2.27a15.52,15.52,0,0,0-2.65-2.15,7.415,7.415,0,0,0-3.15-1.14l-.76-5.8H17.56l-.76,5.8a12.859,12.859,0,0,0-3.15,1.14A8.78,8.78,0,0,0,11,11.74L5.57,9.47,3.42,13.13l4.79,3.53c-.13.5-.25,1.14-.38,1.64a7.551,7.551,0,0,0-.13,1.77,6.457,6.457,0,0,0,.13,1.64c.13.5.25,1.14.38,1.64L3.42,26.88l2.15,3.66L11,28.27a12.6,12.6,0,0,0,2.65,2.02,13.918,13.918,0,0,0,3.15,1.26C16.93,31.68,17.68,37.35,17.68,37.35Z"/>
  </g>
</svg>
