<svg id="wifi" xmlns="http://www.w3.org/2000/svg" width="40" height="40" viewBox="0 0 40 40">
  <rect id="Rectangle_10013" data-name="Rectangle 10013" width="40" height="40" fill="none"/>
  <path id="Path_19651" data-name="Path 19651" d="M8.23,23.41a1.521,1.521,0,0,1-.5-1.12,1.2,1.2,0,0,1,.5-1.12,18.053,18.053,0,0,1,5.45-3.35A17.923,17.923,0,0,1,20,16.7a17.7,17.7,0,0,1,6.32,1.12,18.053,18.053,0,0,1,5.45,3.35,1.221,1.221,0,0,1,.5,1.12,1.561,1.561,0,0,1-.5,1.24,1.536,1.536,0,0,1-1.12.5,2.067,2.067,0,0,1-1.24-.37,13.792,13.792,0,0,0-4.46-2.6,13.268,13.268,0,0,0-4.83-.87,12.8,12.8,0,0,0-4.83.87,16.278,16.278,0,0,0-4.46,2.6,2.067,2.067,0,0,1-1.24.37,2.3,2.3,0,0,1-1.36-.62ZM.67,15.85a1.221,1.221,0,0,1-.5-1.12,1.2,1.2,0,0,1,.5-1.12,31.427,31.427,0,0,1,8.8-5.58,27.33,27.33,0,0,1,21.06,0,31.122,31.122,0,0,1,8.8,5.58,1.221,1.221,0,0,1,.5,1.12,1.561,1.561,0,0,1-.5,1.24,1.521,1.521,0,0,1-1.12.5,1.561,1.561,0,0,1-1.24-.5,25.451,25.451,0,0,0-7.81-4.83,22.791,22.791,0,0,0-9.17-1.73,25.251,25.251,0,0,0-9.17,1.73,31.852,31.852,0,0,0-7.81,4.83,2.177,2.177,0,0,1-1.24.5,2.58,2.58,0,0,1-1.12-.62ZM20,34.06a3.6,3.6,0,0,1-2.35-.99,3.163,3.163,0,0,1-.99-2.35,3.6,3.6,0,0,1,.99-2.35A3.163,3.163,0,0,1,20,27.38a3.368,3.368,0,0,1,2.35.99,3.163,3.163,0,0,1,.99,2.35,3.6,3.6,0,0,1-.99,2.35A3.1,3.1,0,0,1,20,34.06Z"/>
</svg>
