<svg xmlns="http://www.w3.org/2000/svg" width="40.02" height="40" viewBox="0 0 40.02 40">
  <g id="wikipedia-w" transform="translate(0.02)">
    <rect id="Rectangle_10014" data-name="Rectangle 10014" width="40" height="40" fill="none"/>
    <path id="Path_19652" data-name="Path 19652" d="M39.86,7.38v.75c-1.74,0-2.73.99-3.48,2.49-1.49,3.6-6.46,14.91-9.69,22.24h-.87L20.73,20.81c-1.99,3.98-4.22,8.08-6.21,12.05h-.87C10.79,26.03,7.69,19.32,4.7,12.48,3.95,10.86,1.59,8.12-.02,8.12V7.25H10.04v.87c-1.24.12-3.23.87-2.73,2.11,1.37,3.11,6.46,14.91,7.83,17.89.87-1.86,3.6-6.83,4.72-8.82-.87-1.74-3.6-8.33-4.47-9.94-.62-1.12-2.24-1.24-3.48-1.24V7.37h8.82v.87c-1.24,0-2.36.5-1.86,1.62,1.12,2.49,1.86,4.22,2.98,6.46.37-.62,2.11-4.35,2.98-6.21.5-1.24-.25-1.74-2.36-1.86V7.38h7.7v.87a4.318,4.318,0,0,0-3.6,1.99l-3.73,7.58c.37.99,3.98,8.82,4.35,9.69L34.77,9.99c-.5-1.49-2.24-1.74-2.98-1.74V7.26l8.08.12h0Z"/>
  </g>
</svg>
