<svg id="window-restore" xmlns="http://www.w3.org/2000/svg" width="40" height="40" viewBox="0 0 40 40">
  <rect id="Rectangle_10008" data-name="Rectangle 10008" width="40" height="40" fill="none"/>
  <path id="Path_19646" data-name="Path 19646" d="M21.71,20a1.285,1.285,0,0,1-1.18-.52,1.963,1.963,0,0,1-.52-1.18V5.57a1.2,1.2,0,0,1,.39-.92,1.428,1.428,0,0,1,.92-.39,1.2,1.2,0,0,1,.92.39.876.876,0,0,1,.52.92v9.84L37.71.46a1.28,1.28,0,0,1,1.84,0,1.187,1.187,0,0,1,.39.92,1.187,1.187,0,0,1-.39.92L24.73,17.25h9.71a1.2,1.2,0,0,1,.92.39,1.428,1.428,0,0,1,.39.92,1.2,1.2,0,0,1-.39.92,1.316,1.316,0,0,1-.92.52H21.72ZM.46,39.54a1.28,1.28,0,0,1,0-1.84L15.41,22.75H5.57a1.2,1.2,0,0,1-.92-.39,1.629,1.629,0,0,1-.52-1.05,1.2,1.2,0,0,1,.39-.92A1.5,1.5,0,0,1,5.57,20H18.29a1.285,1.285,0,0,1,1.18.52,1.963,1.963,0,0,1,.52,1.18V34.42a1.2,1.2,0,0,1-.39.92,1.428,1.428,0,0,1-.92.39,1.2,1.2,0,0,1-.92-.39,1.187,1.187,0,0,1-.39-.92V24.58L2.29,39.53a1.187,1.187,0,0,1-.92.39,1.187,1.187,0,0,1-.92-.39Z"/>
</svg>
