<svg id="wind" xmlns="http://www.w3.org/2000/svg" width="40" height="40" viewBox="0 0 40 40">
  <rect id="Rectangle_10004" data-name="Rectangle 10004" width="40" height="40" fill="none"/>
  <path id="Path_19642" data-name="Path 19642" d="M18.96,36.63a5.05,5.05,0,0,1-3.07-.86,6.406,6.406,0,0,1-1.96-2.45,1.2,1.2,0,0,1,.12-1.1,1.189,1.189,0,0,1,1.1-.49,1.672,1.672,0,0,1,.74.25,1.252,1.252,0,0,1,.61.74,2.49,2.49,0,0,0,.98.98,3.2,3.2,0,0,0,1.47.37,2.72,2.72,0,0,0,2.09-.86,2.672,2.672,0,0,0,.86-2.09,2.72,2.72,0,0,0-.86-2.09,3.208,3.208,0,0,0-2.09-.86H1.28a.943.943,0,0,1-.86-.37,1.106,1.106,0,0,1-.37-.86.943.943,0,0,1,.37-.86,1.106,1.106,0,0,1,.86-.37H18.95a5.176,5.176,0,0,1,3.93,1.6,5.466,5.466,0,0,1,1.6,3.93,5.176,5.176,0,0,1-1.6,3.93,5.571,5.571,0,0,1-3.93,1.47ZM1.28,16.5a.943.943,0,0,1-.86-.37,1.2,1.2,0,0,1-.37-.98.943.943,0,0,1,.37-.86,1.106,1.106,0,0,1,.86-.37h25.9A3.7,3.7,0,0,0,30,12.82,3.876,3.876,0,0,0,31.1,10,3.7,3.7,0,0,0,30,7.18a3.9,3.9,0,0,0-2.82-1.1,3.989,3.989,0,0,0-2.21.61,2.5,2.5,0,0,0-1.35,1.6,1.159,1.159,0,0,1-.49.74.9.9,0,0,1-.74.25.986.986,0,0,1-.98-.49c-.25-.37-.37-.61-.25-.98a6.28,6.28,0,0,1,2.21-3.19A6.018,6.018,0,0,1,27.3,3.39a6.294,6.294,0,0,1,6.5,6.5,6.294,6.294,0,0,1-6.5,6.5c-.12.12-26.02.12-26.02.12ZM35.52,32.33a1.234,1.234,0,0,1-1.1-.25,1.211,1.211,0,0,1-.49-1.1,1.672,1.672,0,0,1,.25-.74,2.434,2.434,0,0,1,.74-.49,3.209,3.209,0,0,0,1.72-1.35,4.211,4.211,0,0,0,.61-2.21,3.767,3.767,0,0,0-3.92-3.92H1.28a.943.943,0,0,1-.86-.37,1.2,1.2,0,0,1-.37-.98.943.943,0,0,1,.37-.86,1.439,1.439,0,0,1,.86-.25H33.43a6.355,6.355,0,0,1,4.66,1.84,6.221,6.221,0,0,1,1.84,4.66,6.262,6.262,0,0,1-1.23,3.93,6.37,6.37,0,0,1-3.19,2.09Z"/>
</svg>
