<svg id="window-close" xmlns="http://www.w3.org/2000/svg" width="40" height="40" viewBox="0 0 40 40">
  <rect id="Rectangle_10005" data-name="Rectangle 10005" width="40" height="40" fill="none"/>
  <path id="Path_19643" data-name="Path 19643" d="M18.07,20l-4.99,4.99a1.331,1.331,0,0,0-.37.87,1.127,1.127,0,0,0,.37.87,1.331,1.331,0,0,0,.87.37,1.127,1.127,0,0,0,.87-.37l4.99-4.99,4.99,4.99a1.208,1.208,0,0,0,1.74,0,1.331,1.331,0,0,0,.37-.87,1.127,1.127,0,0,0-.37-.87L21.55,20l4.99-4.99a1.208,1.208,0,0,0,0-1.74,1.331,1.331,0,0,0-.87-.37,1.127,1.127,0,0,0-.87.37l-4.99,4.99-4.99-4.99a1.331,1.331,0,0,0-.87-.37,1.127,1.127,0,0,0-.87.37,1.331,1.331,0,0,0-.37.87,1.127,1.127,0,0,0,.37.87ZM3.47,35.6a3.128,3.128,0,0,1-2.25-1,3.111,3.111,0,0,1-1-2.25V7.65a3.128,3.128,0,0,1,1-2.25,3.111,3.111,0,0,1,2.25-1H36.54a3.128,3.128,0,0,1,2.25,1,3.111,3.111,0,0,1,1,2.25V32.36a3.429,3.429,0,0,1-3.25,3.25H3.47Zm0-2.62H36.54c.12,0,.25-.12.5-.25a.657.657,0,0,0,.25-.5V7.65c0-.12-.12-.25-.25-.5a.657.657,0,0,0-.5-.25H3.47c-.12,0-.25.12-.5.25a.968.968,0,0,0-.12.5V32.36c0,.12.12.25.25.5,0,.12.12.12.37.12Zm-.62,0v-.01Z"/>
</svg>
