<svg id="wine-bottle" xmlns="http://www.w3.org/2000/svg" width="40" height="40" viewBox="0 0 40 40">
  <rect id="Rectangle_10010" data-name="Rectangle 10010" width="40" height="40" fill="none"/>
  <path id="Path_19648" data-name="Path 19648" d="M2.35,39.85a.974.974,0,0,1-.88-.38,1.241,1.241,0,0,1-.38-1.01.974.974,0,0,1,.38-.88,1.142,1.142,0,0,1,.88-.38H4.87V29.89A5.019,5.019,0,0,1,2.1,28.13a5.222,5.222,0,0,1-1.01-3.15V10.74a1.238,1.238,0,0,1,.5-1.13,1.888,1.888,0,0,1,1.13-.5H9.65a1.238,1.238,0,0,1,1.13.5,1.359,1.359,0,0,1,.5,1.13V24.98A5.121,5.121,0,0,1,10.27,28,5.52,5.52,0,0,1,7.5,29.89V37.2h2.52a.974.974,0,0,1,.88.38,1.142,1.142,0,0,1,.38.88.974.974,0,0,1-.38.88,1.142,1.142,0,0,1-.88.38c0,.13-7.69.13-7.69.13ZM3.74,19.43H8.66V11.74H3.74v7.69ZM6.13,27.5a2.452,2.452,0,0,0,1.76-.76,2.314,2.314,0,0,0,.76-1.76v-2.9H3.74v2.9a2.452,2.452,0,0,0,.76,1.76,2.235,2.235,0,0,0,1.64.76ZM20.88,39.85a2.532,2.532,0,0,1-1.89-.76,2.57,2.57,0,0,1-.76-1.89V16.53a2.224,2.224,0,0,1,.5-1.51,2.616,2.616,0,0,1,1.39-.88l2.02-.76a4.888,4.888,0,0,0,2.02-1.39,3.722,3.722,0,0,0,.63-2.27V1.91a1.65,1.65,0,0,1,.5-1.26,1.6,1.6,0,0,1,1.26-.5h4.03a1.651,1.651,0,0,1,1.26.5,1.6,1.6,0,0,1,.5,1.26V9.6a3.068,3.068,0,0,0,.76,2.27,6.287,6.287,0,0,0,2.02,1.39l2.02.76a3.187,3.187,0,0,1,1.26.88,2.715,2.715,0,0,1,.5,1.51V37.08a2.532,2.532,0,0,1-.76,1.89,2.57,2.57,0,0,1-1.89.76c-.13.13-15.38.13-15.38.13ZM27.31,5.19h2.14V2.92H27.31ZM20.88,21.07H36.13V16.53l-2.14-.76a7.663,7.663,0,0,1-3.28-2.27,6.283,6.283,0,0,1-1.26-3.91V7.83H27.31V9.59a6.168,6.168,0,0,1-1.13,3.78,7.268,7.268,0,0,1-3.15,2.27l-2.14.88v4.54Zm0,16.13H36.13V31.78H20.88V37.2Zm0-8.07H36.13V23.71H20.88v5.42Zm0,0v0Z"/>
</svg>
