<svg id="wine-glass" xmlns="http://www.w3.org/2000/svg" width="40" height="40" viewBox="0 0 40 40">
  <rect id="Rectangle_10012" data-name="Rectangle 10012" width="40" height="40" fill="none"/>
  <path id="Path_19650" data-name="Path 19650" d="M12.99,39.7a1.25,1.25,0,0,1-.97-.42,1.565,1.565,0,0,1-.42-1.11,1.436,1.436,0,0,1,1.39-1.39h5.55V26.24a12.858,12.858,0,0,1-8.32-4.44,13.078,13.078,0,0,1-3.05-8.6V2.1A1.373,1.373,0,0,1,7.72.85,1.693,1.693,0,0,1,8.83.3h22.2a1.373,1.373,0,0,1,1.25.55,2.047,2.047,0,0,1,.55,1.25V13.06a12.573,12.573,0,0,1-3.05,8.6,12.991,12.991,0,0,1-8.32,4.44V36.64h5.55a1.25,1.25,0,0,1,.97.42,1.489,1.489,0,0,1,.42.97,1.436,1.436,0,0,1-1.39,1.39c-.14.28-14.01.28-14.01.28Zm6.94-16.23a9.409,9.409,0,0,0,6.66-2.64,9.789,9.789,0,0,0,3.19-6.24H10.08a9.765,9.765,0,0,0,3.19,6.24A10.106,10.106,0,0,0,19.93,23.47ZM9.94,11.68H29.78V3.35H9.94v8.32Z"/>
</svg>
