<svg id="wix" xmlns="http://www.w3.org/2000/svg" width="40" height="40" viewBox="0 0 40 40">
  <rect id="Rectangle_10013" data-name="Rectangle 10013" width="40" height="40" fill="none"/>
  <path id="Path_19651" data-name="Path 19651" d="M24.42,13.52a2.387,2.387,0,0,1-1.74,2.74,3.358,3.358,0,0,0-1,.62c0-1.99.25-2.62,1.12-2.99a3.5,3.5,0,0,1,1.62-.37Zm-7.23,2.24-2.12,8.22-1.74-6.73c-.5-1.99-1.25-2.99-2.99-2.99s-2.49,1-2.99,2.99L5.61,23.98,3.49,15.76A3.143,3.143,0,0,0,0,13.52L4.11,28.97a4.4,4.4,0,0,0,1.99-.25c.87-.5,1.25-.75,1.87-2.87.5-1.87,1.87-7.35,1.99-7.73.25-.87.75-.87,1,0,.12.37,1.5,5.86,1.99,7.73.5,2.12,1,2.49,1.87,2.87a4.4,4.4,0,0,0,1.99.25l4.11-15.45c-1.87-.25-3.36.5-3.74,2.24h0Zm7.23.25a2.967,2.967,0,0,1-.87.75,4.593,4.593,0,0,1-1.12.5c-1,.5-.87.87-.87,2.24v9.47a3.565,3.565,0,0,0,1.74-.25c.87-.5,1.12-.87,1.12-2.74V16.63h0v-.62h0Zm10.09,5.23,5.23-7.73s-2.24-.37-3.24.62c-.87.75-1.5,1.87-3.36,4.49,0,0-.37.62-.87,0-1.87-2.62-2.49-3.74-3.36-4.49-1.12-1-3.24-.62-3.24-.62l5.23,7.73-5.11,7.73s2.24.25,3.36-.75c.75-.62,1.12-1.25,3.24-4.36.37-.62.75,0,.87,0,1.87,2.62,2.49,3.61,3.36,4.36,1.12,1,3.36.75,3.36.75L34.5,21.24h0Z"/>
</svg>
