<?xml version="1.0" encoding="utf-8"?>
<!-- Generator: Adobe Illustrator 27.7.0, SVG Export Plug-In . SVG Version: 6.00 Build 0)  -->
<svg version="1.1" id="wordpress" xmlns="http://www.w3.org/2000/svg" xmlns:xlink="http://www.w3.org/1999/xlink" x="0px" y="0px"
	 viewBox="0 0 40 40" style="enable-background:new 0 0 40 40;" xml:space="preserve">
<style type="text/css">
	.st0{fill:none;}
</style>
<rect id="Rectangle_10014" class="st0" width="40" height="40"/>
<path id="Path_19652" d="M1.8,11.8l9.5,26C4.4,34.6,0,27.6,0.1,20C0,17.2,0.6,14.4,1.8,11.8L1.8,11.8z M33.5,19c0-2-0.6-3.9-1.6-5.5
	c-1.1-1.3-1.7-3-1.9-4.7c0-1.9,1.5-3.4,3.3-3.5c0,0,0,0,0,0h0.3C25.5-2.2,12.8-1.6,5.4,6.6C4.6,7.4,4,8.2,3.4,9.1h1.3
	c2,0,5.4-0.3,5.4-0.3c0.4,0,0.8,0.3,0.8,0.8c0,0.4-0.3,0.8-0.7,0.8c-0.8,0.1-1.5,0.1-2.3,0.1l7.3,21.7l4.4-13.1l-3.1-8.6
	c-0.7,0-1.4-0.1-2-0.1c-1,0-1-1.8,0.1-1.6c0,0,3.3,0.3,5.2,0.3c2,0,5.4-0.3,5.4-0.3c0.4,0,0.8,0.3,0.8,0.8c0,0.4-0.3,0.8-0.7,0.8
	c-0.8,0.1-1.5,0.1-2.3,0.1l7.3,21.5l2-6.7C32.8,22.6,33.5,20.7,33.5,19L33.5,19L33.5,19z M20.3,21.7l-6,17.5
	c1.8,0.6,3.7,0.9,5.7,0.9c2.3,0,4.5-0.4,6.7-1.2c0-0.1-0.1-0.1-0.1-0.3L20.3,21.7L20.3,21.7z M37.5,10.4c0.1,0.7,0.2,1.4,0.1,2
	c-0.1,2.4-0.6,4.9-1.5,7.1L30,37.2c6.2-3.6,9.9-10.2,9.9-17.3C39.9,16.5,39.1,13.3,37.5,10.4C37.5,10.4,37.5,10.4,37.5,10.4z"/>
</svg>
