<svg id="wrench" xmlns="http://www.w3.org/2000/svg" width="40" height="40" viewBox="0 0 40 40">
  <rect id="Rectangle_10003" data-name="Rectangle 10003" width="40" height="40" fill="none"/>
  <path id="Path_19641" data-name="Path 19641" d="M34.43,38.76a7.874,7.874,0,0,1-1.71-.26,5.212,5.212,0,0,1-1.44-.92L18.82,25.12a9.332,9.332,0,0,1-2.49.79,8.584,8.584,0,0,1-2.62.26A12.309,12.309,0,0,1,1.25,13.84a11.3,11.3,0,0,1,.39-3.02A23.125,23.125,0,0,1,2.69,8.07l7.87,7.74,5.25-5.12L7.93,2.82a12.737,12.737,0,0,1,2.75-1.18,11.3,11.3,0,0,1,3.02-.39,11.983,11.983,0,0,1,8.92,3.67,11.983,11.983,0,0,1,3.67,8.92,16.143,16.143,0,0,1-.26,2.62,17.069,17.069,0,0,1-.79,2.49L37.57,31.28a3.42,3.42,0,0,1,.92,1.44,3.632,3.632,0,0,1,.26,1.71,4.387,4.387,0,0,1-1.44,3.15,3.42,3.42,0,0,1-1.44.92,3.535,3.535,0,0,1-1.44.26Zm-1.05-3.28a1.672,1.672,0,0,0,1.18.52,1.285,1.285,0,0,0,1.18-.52,1.672,1.672,0,0,0,.52-1.18,1.285,1.285,0,0,0-.52-1.18L21.84,19.35a10.047,10.047,0,0,0,1.31-2.62,11.251,11.251,0,0,0,.39-3.02,10.166,10.166,0,0,0-3.02-7.08,9.534,9.534,0,0,0-7.35-2.75l5.51,5.51a1.672,1.672,0,0,1,.52,1.18,1.285,1.285,0,0,1-.52,1.18l-6.69,6.56a1.963,1.963,0,0,1-1.18.52,1.285,1.285,0,0,1-1.18-.52L4.25,12.93a8.865,8.865,0,0,0,2.89,7.48,9.835,9.835,0,0,0,6.82,2.75,11.049,11.049,0,0,0,2.89-.39,8.154,8.154,0,0,0,2.62-1.31c-.13.13,13.9,14.04,13.9,14.04Z"/>
</svg>
