<svg xmlns="http://www.w3.org/2000/svg" width="40" height="40.07" viewBox="0 0 40 40.07">
  <g id="yen-sign" transform="translate(0 0.03)">
    <rect id="Rectangle_10003" data-name="Rectangle 10003" width="40" height="40" fill="none"/>
    <path id="Path_19641" data-name="Path 19641" d="M20,40.03a1.292,1.292,0,0,1-.99-.42,1.277,1.277,0,0,1-.42-.99V31.29H8.01a1.292,1.292,0,0,1-.99-.42,1.614,1.614,0,0,1-.42-1.13,1.292,1.292,0,0,1,.42-.99,1.277,1.277,0,0,1,.99-.42H18.59V22.12H8.01a1.292,1.292,0,0,1-.99-.42,1.536,1.536,0,0,1-.42-.99,1.292,1.292,0,0,1,.42-.99,1.277,1.277,0,0,1,.99-.42h9.03L6.46,2.23a1.529,1.529,0,0,1,0-1.55A1.238,1.238,0,0,1,7.73-.03a1.094,1.094,0,0,1,.71.14A1.976,1.976,0,0,1,9,.67L20,18.16,31.14.68a.631.631,0,0,1,.42-.42,1.279,1.279,0,0,1,.71-.14,1.474,1.474,0,0,1,1.27.71,1.535,1.535,0,0,1,0,1.55L22.96,19.17h9.03a1.292,1.292,0,0,1,.99.42,1.614,1.614,0,0,1,.42,1.13,1.292,1.292,0,0,1-.42.99,1.277,1.277,0,0,1-.99.42H21.41v6.21H31.99a1.292,1.292,0,0,1,.99.42,1.536,1.536,0,0,1,.42.99,1.292,1.292,0,0,1-.42.99,1.277,1.277,0,0,1-.99.42H21.41v7.33a1.292,1.292,0,0,1-.42.99,1.062,1.062,0,0,1-.99.56Z"/>
  </g>
</svg>
