<svg id="youtube" xmlns="http://www.w3.org/2000/svg" width="40.01" height="40" viewBox="0 0 40.01 40">
  <rect id="Rectangle_10004" data-name="Rectangle 10004" width="40" height="40" fill="none"/>
  <path id="Path_19642" data-name="Path 19642" d="M39.17,10.34a5.015,5.015,0,0,0-3.54-3.56C32.51,5.94,20,5.94,20,5.94s-12.51,0-15.63.84A5.015,5.015,0,0,0,.83,10.34C0,13.48,0,20.03,0,20.03s0,6.55.83,9.69a4.953,4.953,0,0,0,3.54,3.5c3.12.84,15.63.84,15.63.84s12.51,0,15.63-.84a4.953,4.953,0,0,0,3.54-3.5c.84-3.14.84-9.69.84-9.69s0-6.56-.84-9.69ZM15.9,25.98V14.08l10.45,5.95L15.9,25.98h0Z"/>
</svg>
